<?xml version="1.0" encoding="UTF-8"?>
<!DOCTYPE svg PUBLIC "-//W3C//DTD SVG 1.1//EN" "http://www.w3.org/Graphics/SVG/1.1/DTD/svg11.dtd">
<!-- Creator: CorelDRAW -->
<svg xmlns="http://www.w3.org/2000/svg" xml:space="preserve" width="150px" height="150px" style="shape-rendering:geometricPrecision; text-rendering:geometricPrecision; image-rendering:optimizeQuality; fill-rule:evenodd; clip-rule:evenodd"
viewBox="0 0 150 150">
 <defs>
  <style type="text/css">
   <![CDATA[
    .fil2 {fill:white}
    .fil0 {fill:#8DB833}
    .fil1 {fill:white;fill-rule:nonzero}
   ]]>
  </style>
 </defs>
 <g id="Capa_x0020_1">
  <metadata id="CorelCorpID_0Corel-Layer"/>
  <path class="fil0" d="M136.854 126.085c0,4.78937 -3.98031,8.67165 -8.89252,8.67165l-105.924 0c-4.9122,0 -8.89252,-3.88228 -8.89252,-8.67165l0 -103.29c0,-4.78937 3.98031,-8.67165 8.89252,-8.67165l105.924 0c4.9122,0 8.89252,3.88228 8.89252,8.67165l0 103.29z"/>
  <path class="fil1" d="M33.3248 121.578c0,0.874016 -0.259843,1.60276 -0.778346,2.18622 -0.518504,0.583465 -1.11614,0.876378 -1.79055,0.876378l-2.71181 0 0 3.37323 -1.94646 0 0 -9.45945 4.45039 0c0.916535,0 1.60866,0.26811 2.07638,0.804331 0.466535,0.53622 0.700394,1.27677 0.700394,2.21929zm-1.8815 -0.116929c0,-0.389764 -0.103937,-0.700394 -0.31063,-0.934252 -0.207874,-0.233858 -0.498425,-0.350787 -0.870472,-0.350787l-2.21811 0 0 2.84173 2.27008 0c0.311811,0 0.579921,-0.167717 0.805512,-0.505512 0.216142,-0.311811 0.323622,-0.661417 0.323622,-1.05118zm9.15 3.04961c0,0.207874 -0.0129921,0.393307 -0.0377953,0.55748l-4.65827 0c-0.0177165,0.0519685 -0.0259843,0.134646 -0.0259843,0.24685 0,0.458268 0.140551,0.827953 0.422835,1.10906 0.283465,0.281102 0.651969,0.421654 1.10551,0.421654 0.301181,0 0.579921,-0.0862205 0.837402,-0.258661 0.231496,-0.165354 0.375591,-0.350787 0.437008,-0.558661l1.84252 0c-0.243307,0.683858 -0.668504,1.23307 -1.27913,1.64764 -0.609449,0.415748 -1.29094,0.623622 -2.04331,0.623622 -0.838583,0 -1.5437,-0.264567 -2.11535,-0.791339 -0.682677,-0.63189 -1.02402,-1.53543 -1.02402,-2.71299 0,-1.2626 0.274016,-2.23346 0.823228,-2.9126 0.549213,-0.679134 1.33937,-1.01811 2.36811,-1.01811 1.00394,0 1.81181,0.335433 2.42598,1.00512 0.614173,0.670866 0.92126,1.55079 0.92126,2.64094zm-1.91929 -0.662598c-0.0519685,-0.976772 -0.506693,-1.46575 -1.36299,-1.46575 -0.864567,0 -1.34528,0.488976 -1.43976,1.46575l2.80276 0zm9.69213 0.740551c0,1.18465 -0.309449,2.10118 -0.928346,2.75079 -0.617717,0.648425 -1.48937,0.973228 -2.61378,0.973228 -1.04764,0 -1.87323,-0.337795 -2.47913,-1.0122 -0.604724,-0.675591 -0.908268,-1.59685 -0.908268,-2.76378 0,-1.15039 0.303543,-2.05039 0.908268,-2.69882 0.605906,-0.649606 1.45748,-0.973228 2.55709,-0.973228 1.08898,0 1.93937,0.328346 2.54882,0.98622 0.61063,0.656693 0.915354,1.56969 0.915354,2.7378zm-1.81654 0.0129921c0,-0.649606 -0.155906,-1.17638 -0.467717,-1.58386 -0.31063,-0.406299 -0.705118,-0.609449 -1.17992,-0.609449 -0.475984,0 -0.86811,0.216142 -1.1752,0.648425 -0.307087,0.433465 -0.46063,0.98622 -0.46063,1.66181 0,0.562205 0.162992,1.04173 0.486614,1.43976 0.324803,0.398031 0.715748,0.596457 1.1752,0.596457 0.474803,0 0.864567,-0.200787 1.16693,-0.602362 0.303543,-0.402756 0.454724,-0.920079 0.454724,-1.55079zm9.80669 0.129921c0,1.03701 -0.255118,1.89331 -0.765354,2.5689 -0.510236,0.674409 -1.17638,1.0122 -1.99843,1.0122 -0.467717,0 -0.825591,-0.0566929 -1.07717,-0.168898 -0.294094,-0.129921 -0.640157,-0.406299 -1.03819,-0.830315l0 3.54213 -1.81654 0 0 -9.87402 1.81654 0 0 1.06299c0.527953,-0.786614 1.19409,-1.17992 1.99843,-1.17992 0.822047,0 1.50709,0.367323 2.0563,1.10315 0.549213,0.734646 0.824409,1.65591 0.824409,2.76378zm-1.82953 -0.155906c0,-0.63189 -0.142913,-1.13976 -0.42874,-1.5248 -0.284646,-0.385039 -0.661417,-0.577559 -1.12795,-0.577559 -0.415748,0 -0.767717,0.200787 -1.05827,0.603543 -0.28937,0.401575 -0.434646,0.905906 -0.434646,1.51181 0,0.666142 0.140551,1.20236 0.421654,1.60866 0.281102,0.406299 0.650787,0.609449 1.11024,0.609449 0.448819,0 0.814961,-0.20315 1.09606,-0.609449 0.281102,-0.406299 0.421654,-0.947244 0.421654,-1.62165zm4.99724 3.43819l-1.81654 0 0 -9.45945 1.81654 0 0 9.45945zm7.74567 -3.50315c0,0.207874 -0.0129921,0.393307 -0.0377953,0.55748l-4.65827 0c-0.0177165,0.0519685 -0.0259843,0.134646 -0.0259843,0.24685 0,0.458268 0.140551,0.827953 0.422835,1.10906 0.283465,0.281102 0.651969,0.421654 1.10551,0.421654 0.301181,0 0.579921,-0.0862205 0.837402,-0.258661 0.231496,-0.165354 0.375591,-0.350787 0.437008,-0.558661l1.84252 0c-0.243307,0.683858 -0.668504,1.23307 -1.27913,1.64764 -0.609449,0.415748 -1.29094,0.623622 -2.04331,0.623622 -0.838583,0 -1.5437,-0.264567 -2.11535,-0.791339 -0.682677,-0.63189 -1.02402,-1.53543 -1.02402,-2.71299 0,-1.2626 0.274016,-2.23346 0.823228,-2.9126 0.549213,-0.679134 1.33937,-1.01811 2.36811,-1.01811 1.00394,0 1.81181,0.335433 2.42598,1.00512 0.614173,0.670866 0.92126,1.55079 0.92126,2.64094zm-1.91929 -0.662598c-0.0519685,-0.976772 -0.506693,-1.46575 -1.36299,-1.46575 -0.864567,0 -1.34528,0.488976 -1.43976,1.46575l2.80276 0zm14.9055 4.16575l-2.04921 0 -0.662598 -0.804331c-0.414567,0.354331 -0.791339,0.605906 -1.12913,0.752362 -0.432283,0.199606 -0.916535,0.298819 -1.45276,0.298819 -0.864567,0 -1.56614,-0.225591 -2.10236,-0.675591 -0.596457,-0.510236 -0.895276,-1.24134 -0.895276,-2.19213 0,-1.06417 0.670866,-1.9252 2.01142,-2.58189 -0.432283,-0.545669 -0.713386,-0.960236 -0.843307,-1.24606 -0.112205,-0.233858 -0.168898,-0.505512 -0.168898,-0.817323 0,-0.597638 0.242126,-1.11142 0.726378,-1.5437 0.485433,-0.433465 1.09961,-0.649606 1.84252,-0.649606 0.744094,0 1.31575,0.233858 1.71378,0.700394 0.336614,0.405118 0.505512,0.907087 0.505512,1.50354 0,0.715748 -0.517323,1.42559 -1.55079,2.12598l1.42087 1.76929c0.294094,-0.337795 0.454724,-0.839764 0.480709,-1.50591l1.45276 0c-0.0259843,1.15039 -0.346063,2.06575 -0.957874,2.74843l1.65827 2.11772zm-4.07362 -7.44803c0,-0.372047 -0.242126,-0.55748 -0.727559,-0.55748 -0.518504,0 -0.778346,0.20315 -0.778346,0.609449 0,0.259843 0.080315,0.484252 0.240945,0.674409 0.159449,0.190157 0.32126,0.381496 0.486614,0.571654 0.344882,-0.18189 0.565748,-0.355512 0.661417,-0.519685 0.0779528,-0.138189 0.116929,-0.398031 0.116929,-0.778346zm0.388583 5.47559l-1.69961 -2.14134c-0.614173,0.36378 -0.94252,0.566929 -0.98622,0.61063 -0.164173,0.155906 -0.24685,0.414567 -0.24685,0.778346 0,0.414567 0.16063,0.773622 0.480709,1.07717 0.285827,0.276378 0.592913,0.414567 0.92126,0.414567 0.510236,0 1.02047,-0.245669 1.53071,-0.73937zm15.4287 -5.86535l-2.76378 0 0 7.8378 -1.94646 0 0 -7.8378 -2.86772 0 0 -1.62165 7.57795 0 0 1.62165zm6.99449 4.33465c0,0.207874 -0.0129921,0.393307 -0.0377953,0.55748l-4.65827 0c-0.0177165,0.0519685 -0.0259843,0.134646 -0.0259843,0.24685 0,0.458268 0.140551,0.827953 0.422835,1.10906 0.283465,0.281102 0.651969,0.421654 1.10551,0.421654 0.301181,0 0.579921,-0.0862205 0.837402,-0.258661 0.231496,-0.165354 0.375591,-0.350787 0.437008,-0.558661l1.84252 0c-0.243307,0.683858 -0.668504,1.23307 -1.27913,1.64764 -0.609449,0.415748 -1.29094,0.623622 -2.04331,0.623622 -0.838583,0 -1.5437,-0.264567 -2.11535,-0.791339 -0.682677,-0.63189 -1.02402,-1.53543 -1.02402,-2.71299 0,-1.2626 0.274016,-2.23346 0.823228,-2.9126 0.549213,-0.679134 1.33937,-1.01811 2.36811,-1.01811 1.00394,0 1.81181,0.335433 2.42598,1.00512 0.614173,0.670866 0.92126,1.55079 0.92126,2.64094zm-1.91929 -0.662598c-0.0519685,-0.976772 -0.506693,-1.46575 -1.36299,-1.46575 -0.864567,0 -1.34528,0.488976 -1.43976,1.46575l2.80276 0zm9.10748 4.16575l-1.93228 0c-0.0874016,-0.138189 -0.152362,-0.367323 -0.194882,-0.687402 -0.666142,0.666142 -1.41496,0.999213 -2.24528,0.999213 -0.674409,0 -1.18937,-0.188976 -1.5437,-0.564567 -0.354331,-0.376772 -0.532677,-0.91063 -0.532677,-1.60276 0,-0.570472 0.168898,-1.05945 0.506693,-1.46575 0.337795,-0.40748 0.791339,-0.65315 1.36181,-0.740551 0.26811,-0.034252 0.722835,-0.0944882 1.36299,-0.180709 0.380315,-0.0614173 0.655512,-0.153543 0.824409,-0.279921 0.167717,-0.125197 0.261024,-0.325984 0.27874,-0.602362 0.0259843,-0.475984 -0.350787,-0.714567 -1.12913,-0.714567 -0.812598,0 -1.23307,0.381496 -1.25906,1.14213l-1.72559 0c0.0354331,-0.830315 0.283465,-1.44685 0.746457,-1.84843 0.462992,-0.402756 1.18701,-0.603543 2.17323,-0.603543 1.93819,0 2.90669,0.747638 2.90669,2.24409l0 3.87992c0,0.302362 0.133465,0.566929 0.401575,0.791339l0 0.233858zm-2.11417 -3.0626l0 -0.271654c-0.262205,0.146457 -0.525591,0.237402 -0.796063,0.271654 -0.634252,0.0779528 -1.05945,0.173622 -1.27795,0.285827 -0.304724,0.147638 -0.455906,0.406299 -0.455906,0.778346 0,0.53622 0.334252,0.804331 1.00276,0.804331 1.01811,0 1.52717,-0.622441 1.52717,-1.8685zm13.2213 3.0626l-1.81654 0 0 -4.89213c0,-0.146457 -0.0779528,-0.28937 -0.232677,-0.427559 -0.199606,-0.18189 -0.467717,-0.272835 -0.805512,-0.272835 -0.294094,0 -0.565748,0.122835 -0.817323,0.369685 -0.250394,0.24685 -0.375591,0.512598 -0.375591,0.798425l0 4.42441 -1.81654 0 0 -4.75984c0,-0.216142 -0.0826772,-0.403937 -0.24685,-0.559843 -0.190157,-0.18189 -0.454724,-0.272835 -0.791339,-0.272835 -0.329528,0 -0.61063,0.116929 -0.843307,0.350787 -0.233858,0.235039 -0.350787,0.50315 -0.350787,0.806693l0 4.43504 -1.81654 0 0 -7.03228 1.81654 0 0 1.02402c0.320079,-0.432283 0.616535,-0.729921 0.88937,-0.895276 0.271654,-0.164173 0.594094,-0.245669 0.966142,-0.245669 0.804331,0 1.46575,0.341339 1.98543,1.0252 0.466535,-0.683858 1.11969,-1.0252 1.95945,-1.0252 0.682677,0 1.22362,0.164173 1.62165,0.49252 0.45,0.354331 0.674409,0.882283 0.674409,1.58268l0 5.07402zm7.59213 -2.14134c0,0.727559 -0.26811,1.31693 -0.805512,1.77165 -0.53622,0.453543 -1.24488,0.681496 -2.12717,0.681496 -1.08189,0 -1.91457,-0.205512 -2.49803,-0.616535 -0.583465,-0.411024 -0.897638,-0.99685 -0.941339,-1.75866l1.79055 0c0.069685,0.355512 0.298819,0.618898 0.688583,0.791339 0.302362,0.147638 0.661417,0.220866 1.07717,0.220866 0.26811,0 0.490157,-0.0732283 0.667323,-0.220866 0.178346,-0.148819 0.266929,-0.325984 0.266929,-0.53622 0,-0.206693 -0.0614173,-0.359055 -0.18189,-0.455906 -0.0956693,-0.069685 -0.304724,-0.151181 -0.634252,-0.24685l-2.05157 -0.590551c-0.908268,-0.26811 -1.36299,-0.877559 -1.36299,-1.82953 0,-0.666142 0.259843,-1.20236 0.778346,-1.60866 0.519685,-0.406299 1.2378,-0.609449 2.15433,-0.609449 0.890551,0 1.61102,0.216142 2.16024,0.648425 0.549213,0.432283 0.827953,1.0122 0.837402,1.73858l-1.75157 0c0.0259843,-0.302362 -0.080315,-0.54685 -0.318898,-0.733465 -0.237402,-0.185433 -0.594094,-0.27874 -1.07008,-0.27874 -0.259843,0 -0.488976,0.0602362 -0.687402,0.18189 -0.233858,0.129921 -0.350787,0.298819 -0.350787,0.505512 0,0.233858 0.0779528,0.372047 0.233858,0.415748l2.59488 0.713386c1.02047,0.277559 1.53189,0.882283 1.53189,1.81654z"/>
  <path class="fil2" d="M90.2598 42.0283c2.9752,0 6.00945,-3.07677 6.00945,-6.3378 0,-3.25748 -2.88661,-6.5752 -5.86417,-6.5752 -2.97402,0 -5.93268,3.39803 -5.93268,6.65315 0,3.25984 2.8122,6.25984 5.7874,6.25984zm11.7201 18.8717c0,-3.17717 0,-6.54449 0,-9.77835 0,-3.1937 0.194882,-2.88898 0,-4.88622 -0.744094,-2.44606 -2.22874,-3.25748 -3.71693,-3.25748 -3.18543,0 -4.23543,0 -6.69449,0 -2.98701,0 -4.43976,-0.011811 -7.41614,-0.011811 -0.414567,0 -0.787795,-0.0106299 -1.13622,0.0011811 -0.347244,1.40787 -1.21299,2.69764 -2.32323,3.61654l4.48228 0c1.48819,0 2.97283,0.812598 3.71693,3.25866 0.134646,1.38189 0.0826772,1.66063 0.0377953,2.75787 0.12874,1.54252 -0.0366142,1.51772 -0.0377953,4.4185l0 0.0472441 0 0.106299 0 0.0448819 0 0.108661 0 0.0437008 0 0.109843 0 0.0413386 0 0.113386 0 0.0389764 0 0.114567 0 0.0377953 0 0.116929 0 0.0354331 0 0.11811 0 0.034252 0 0.120472 0 0.034252 0 0.119291 0 0.0330709 0 0.121654 0 0.0307087 0 0.124016 0 0.0283465 0 0.125197 0 0.0295276 0 0.125197 0 0.0271654 0 0.126378 0 0.0271654 0 0.127559 0 0.0271654 0 0.126378 0 0.0271654 0 0.127559 0 0.0259843 0 0.126378 0 0.0283465 0 0.126378 0 0.0271654 0 0.126378 0 0.0283465 0 0.126378 0 0.0271654 0 0.125197 0 0.0295276 0 0.124016 0 0.0295276 0 0.124016 0 0.0307087 0 0.124016 0 0.0295276 0 0.122835 0 0.0318898 0 0.121654 0 0.0318898 0 0.120472 0 0.034252 0 0.120472 0 0.0330709 0 0.119291 0 0.0354331 0 0.116929 0 0.0366142 0 0.116929 0 0.0377953 0 0.115748 0 0.0366142 0 0.114567 0 0.0401575 0 0.112205 0 0.0413386 0 0.111024 0 0.0437008 0 0.108661 0 0.0437008 0 0.106299 0 0.0484252 0 0.103937 0 0.0496063 0 0.100394 0 0.0531496 0 0.0992126 0 0.0531496 0 0.0968504 0 0.0566929 0 0.0933071 0 0.0590551 0 0.092126 0 0.0625984 0 0.0874016 0 0.0649606 0 0.0850394 0 0.0685039 0 0.0814961 0 0.0708661 0 0.0779528 0 0.0755906 0 0.0744094c0,0.525591 0.0106299,1.14213 0,1.78583l0 0.553937c0,3.34724 0.315354,8.7378 -4.80472,8.74961l0.0425197 17.8913c0,1.62638 0.794882,3.37677 3.03425,3.37677 2.23346,0 3.16417,-1.43386 3.16417,-3.0626 0,-2.9374 0,-15.7205 0,-17.1106 0,-1.6252 0.0519685,-2.41417 0.421654,-2.41417 0.374409,0 0.322441,0.788976 0.322441,2.41417 0,1.47165 0,14.0988 0,17.1106 0,1.01102 0.982677,3.21378 3.21496,3.21378 1.48937,0 2.85709,-2.09646 2.85709,-3.17953 0,-6.5185 0.0330709,-35.5169 0.0330709,-37.5661 0,-1.10906 -0.0885827,-2.52165 0.295276,-2.52165 0.377953,0 0.368504,0.382677 0.368504,1.9878 0,1.83425 0,3.69331 0,6.27047 0,4.28386 0.609449,5.40827 2.09764,5.40827 2.22874,0 2.04094,-4.18228 2.04094,-6.51378z"/>
  <path class="fil2" d="M59.7402 42.0283c-2.9752,0 -6.00945,-3.07677 -6.00945,-6.3378 0,-3.25748 2.88661,-6.5752 5.86417,-6.5752 2.97402,0 5.93268,3.39803 5.93268,6.65315 0,3.25984 -2.8122,6.25984 -5.7874,6.25984zm-11.7201 18.8717c0,-3.17717 0,-6.54449 0,-9.77835 0,-3.1937 -0.194882,-2.88898 0,-4.88622 0.744094,-2.44606 2.22874,-3.25748 3.71693,-3.25748 3.18543,0 4.23543,0 6.69449,0 2.98701,0 4.43976,-0.011811 7.41614,-0.011811 0.414567,0 0.787795,-0.0106299 1.13622,0.0011811 0.347244,1.40787 1.21299,2.69764 2.32323,3.61654l-4.48228 0c-1.48819,0 -2.97283,0.812598 -3.71693,3.25866 -0.134646,1.38189 -0.0826772,1.66063 -0.0377953,2.75787 -0.12874,1.54252 0.0366142,1.51772 0.0377953,4.4185l0 0.0472441 0 0.106299 0 0.0448819 0 0.108661 0 0.0437008 0 0.109843 0 0.0413386 0 0.113386 0 0.0389764 0 0.114567 0 0.0377953 0 0.116929 0 0.0354331 0 0.11811 0 0.034252 0 0.120472 0 0.034252 0 0.119291 0 0.0330709 0 0.121654 0 0.0307087 0 0.124016 0 0.0283465 0 0.125197 0 0.0295276 0 0.125197 0 0.0271654 0 0.126378 0 0.0271654 0 0.127559 0 0.0271654 0 0.126378 0 0.0271654 0 0.127559 0 0.0259843 0 0.126378 0 0.0283465 0 0.126378 0 0.0271654 0 0.126378 0 0.0283465 0 0.126378 0 0.0271654 0 0.125197 0 0.0295276 0 0.124016 0 0.0295276 0 0.124016 0 0.0307087 0 0.124016 0 0.0295276 0 0.122835 0 0.0318898 0 0.121654 0 0.0318898 0 0.120472 0 0.034252 0 0.120472 0 0.0330709 0 0.119291 0 0.0354331 0 0.116929 0 0.0366142 0 0.116929 0 0.0377953 0 0.115748 0 0.0366142 0 0.114567 0 0.0401575 0 0.112205 0 0.0413386 0 0.111024 0 0.0437008 0 0.108661 0 0.0437008 0 0.106299 0 0.0484252 0 0.103937 0 0.0496063 0 0.100394 0 0.0531496 0 0.0992126 0 0.0531496 0 0.0968504 0 0.0566929 0 0.0933071 0 0.0590551 0 0.092126 0 0.0625984 0 0.0874016 0 0.0649606 0 0.0850394 0 0.0685039 0 0.0814961 0 0.0708661 0 0.0779528 0 0.0755906 0 0.0744094c0,0.525591 -0.0106299,1.14213 0,1.78583l0 0.553937c0,3.34724 -0.315354,8.7378 4.80472,8.74961l-0.0425197 17.8913c0,1.62638 -0.794882,3.37677 -3.03425,3.37677 -2.23346,0 -3.16417,-1.43386 -3.16417,-3.0626 0,-2.9374 0,-15.7205 0,-17.1106 0,-1.6252 -0.0519685,-2.41417 -0.421654,-2.41417 -0.374409,0 -0.322441,0.788976 -0.322441,2.41417 0,1.47165 0,14.0988 0,17.1106 0,1.01102 -0.982677,3.21378 -3.21496,3.21378 -1.48937,0 -2.85709,-2.09646 -2.85709,-3.17953 0,-6.5185 -0.0330709,-35.5169 -0.0330709,-37.5661 0,-1.10906 0.0885827,-2.52165 -0.295276,-2.52165 -0.377953,0 -0.368504,0.382677 -0.368504,1.9878 0,1.83425 0,3.69331 0,6.27047 0,4.28386 -0.609449,5.40827 -2.09764,5.40827 -2.22874,0 -2.04094,-4.18228 -2.04094,-6.51378z"/>
  <path class="fil2" d="M74.6209 47.9988c2.97402,0 6.00709,-3.07795 6.00709,-6.33898 0,-3.25748 -2.88543,-6.5752 -5.86299,-6.5752 -2.97402,0 -5.93268,3.39803 -5.93268,6.65433 0,3.25866 2.81339,6.25984 5.78858,6.25984zm11.7189 18.8705c0,-3.17835 0,-6.54567 0,-9.77717 0,-3.19606 0.194882,-2.89016 0,-4.88858 -0.742913,-2.44488 -2.22992,-3.2563 -3.71811,-3.2563 -3.18307,0 -4.23543,0 -6.69213,0 -2.98937,0 -4.44094,-0.00944882 -7.41732,-0.00944882 -1.48583,0 -2.45551,-0.109843 -3.55866,0.987402 -1.50472,1.86969 -1.35591,2.03268 -1.35591,7.24724 0,2.57717 0,7.07362 0,9.94724 0,2.5748 -0.394488,6.57874 1.95709,6.57874 2.23465,0 2.21339,-1.74331 2.21339,-4.34409 0,-3.66969 -0.00826772,-4.6252 -0.00826772,-6.79488 0,-2.37402 -0.122835,-2.77441 0.311811,-2.77441 0.437008,0 0.433465,0.0318898 0.433465,2.55118 0,2.33622 -0.0153543,35.2169 -0.0153543,37.1173 0,1.62992 0.794882,3.37913 3.03425,3.37913 2.23346,0 3.16654,-1.43622 3.16654,-3.06378 0,-2.93622 0,-15.7193 0,-17.1083 0,-1.62756 0.0484252,-2.41654 0.41811,-2.41654 0.375591,0 0.325984,0.788976 0.325984,2.41654 0,1.47047 0,14.0965 0,17.1083 0,1.0122 0.981496,3.21378 3.21142,3.21378 1.49055,0 2.85827,-2.09409 2.85827,-3.17953 0,-6.51614 0.034252,-35.5146 0.034252,-37.565 0,-1.10906 -0.0897638,-2.52047 0.292913,-2.52047 0.379134,0 0.370866,0.381496 0.370866,1.98543 0,1.83543 0,3.69449 0,6.27047 0,4.2874 0.609449,5.40945 2.09528,5.40945 2.2311,0 2.04213,-4.1811 2.04213,-6.51378z"/>
 </g>
</svg>
