<?xml version="1.0" encoding="UTF-8" standalone="no"?>
<!-- Created with Inkscape (http://www.inkscape.org/) -->
<svg
   xmlns:dc="http://purl.org/dc/elements/1.1/"
   xmlns:cc="http://web.resource.org/cc/"
   xmlns:rdf="http://www.w3.org/1999/02/22-rdf-syntax-ns#"
   xmlns:svg="http://www.w3.org/2000/svg"
   xmlns="http://www.w3.org/2000/svg"
   xmlns:xlink="http://www.w3.org/1999/xlink"
   xmlns:sodipodi="http://sodipodi.sourceforge.net/DTD/sodipodi-0.dtd"
   xmlns:inkscape="http://www.inkscape.org/namespaces/inkscape"
   width="32"
   height="32"
   id="svg2836"
   sodipodi:version="0.32"
   inkscape:version="0.44.1"
   version="1.0"
   sodipodi:docbase="/home/silvestre/Trabajos/Brillant"
   sodipodi:docname="bug-large.svg">
  <defs
     id="defs2838">
    <linearGradient
       inkscape:collect="always"
       id="linearGradient4852">
      <stop
         style="stop-color:black;stop-opacity:1;"
         offset="0"
         id="stop4854" />
      <stop
         style="stop-color:black;stop-opacity:0;"
         offset="1"
         id="stop4856" />
    </linearGradient>
    <linearGradient
       inkscape:collect="always"
       id="linearGradient4838">
      <stop
         style="stop-color:black;stop-opacity:1;"
         offset="0"
         id="stop4840" />
      <stop
         style="stop-color:black;stop-opacity:0;"
         offset="1"
         id="stop4842" />
    </linearGradient>
    <linearGradient
       inkscape:collect="always"
       id="linearGradient4788">
      <stop
         style="stop-color:black;stop-opacity:1;"
         offset="0"
         id="stop4790" />
      <stop
         style="stop-color:black;stop-opacity:0;"
         offset="1"
         id="stop4792" />
    </linearGradient>
    <linearGradient
       id="linearGradient4770">
      <stop
         id="stop4772"
         offset="0"
         style="stop-color:#ff7c7c;stop-opacity:1;" />
      <stop
         style="stop-color:#fd0000;stop-opacity:1;"
         offset="0.5"
         id="stop4774" />
      <stop
         id="stop4776"
         offset="0.75"
         style="stop-color:#b30000;stop-opacity:1;" />
      <stop
         id="stop4778"
         offset="1"
         style="stop-color:#790000;stop-opacity:1;" />
    </linearGradient>
    <linearGradient
       id="linearGradient4736">
      <stop
         style="stop-color:black;stop-opacity:0.08247422;"
         offset="0"
         id="stop4738" />
      <stop
         id="stop4744"
         offset="0.5"
         style="stop-color:black;stop-opacity:0.82474226;" />
      <stop
         style="stop-color:black;stop-opacity:1;"
         offset="0"
         id="stop4746" />
      <stop
         style="stop-color:black;stop-opacity:0;"
         offset="1"
         id="stop4740" />
    </linearGradient>
    <linearGradient
       inkscape:collect="always"
       id="linearGradient4726">
      <stop
         style="stop-color:#69767b;stop-opacity:1"
         offset="0"
         id="stop4728" />
      <stop
         style="stop-color:#2e3436;stop-opacity:1"
         offset="1"
         id="stop4730" />
    </linearGradient>
    <linearGradient
       inkscape:collect="always"
       id="linearGradient4718">
      <stop
         style="stop-color:white;stop-opacity:0.58431375"
         offset="0"
         id="stop4720" />
      <stop
         style="stop-color:white;stop-opacity:0;"
         offset="1"
         id="stop4722" />
    </linearGradient>
    <linearGradient
       id="linearGradient4704">
      <stop
         style="stop-color:#717171;stop-opacity:1;"
         offset="0"
         id="stop4706" />
      <stop
         id="stop4712"
         offset="0.5"
         style="stop-color:#494949;stop-opacity:1;" />
      <stop
         style="stop-color:#2a2a2a;stop-opacity:1;"
         offset="0.75"
         id="stop4714" />
      <stop
         style="stop-color:#171717;stop-opacity:1;"
         offset="1"
         id="stop4708" />
    </linearGradient>
    <linearGradient
       inkscape:collect="always"
       id="linearGradient4690">
      <stop
         style="stop-color:#78888e;stop-opacity:1"
         offset="0"
         id="stop4692" />
      <stop
         style="stop-color:#2e3436;stop-opacity:1"
         offset="1"
         id="stop4694" />
    </linearGradient>
    <radialGradient
       inkscape:collect="always"
       xlink:href="#linearGradient4690"
       id="radialGradient4696"
       cx="21.410498"
       cy="11.805437"
       fx="21.410498"
       fy="11.805437"
       r="2.2113025"
       gradientUnits="userSpaceOnUse"
       gradientTransform="matrix(0.63906,0,0,0.63906,8.53363,4.966063)" />
    <radialGradient
       inkscape:collect="always"
       xlink:href="#linearGradient4690"
       id="radialGradient4700"
       gradientUnits="userSpaceOnUse"
       gradientTransform="matrix(0.63906,0,0,0.63906,8.53363,4.966063)"
       cx="21.410498"
       cy="11.805437"
       fx="21.410498"
       fy="11.805437"
       r="2.2113025" />
    <linearGradient
       inkscape:collect="always"
       xlink:href="#linearGradient4718"
       id="linearGradient4724"
       x1="24.45186"
       y1="12.482805"
       x2="29.229015"
       y2="30.684267"
       gradientUnits="userSpaceOnUse" />
    <linearGradient
       inkscape:collect="always"
       xlink:href="#linearGradient4726"
       id="linearGradient4732"
       x1="22.248106"
       y1="12.4375"
       x2="26.375"
       y2="12.4375"
       gradientUnits="userSpaceOnUse"
       gradientTransform="matrix(0.777779,0,0,0.715017,-3.444479,-1.294547)" />
    <linearGradient
       inkscape:collect="always"
       xlink:href="#linearGradient4736"
       id="linearGradient4742"
       x1="24.75"
       y1="16.649254"
       x2="24.75"
       y2="41.565559"
       gradientUnits="userSpaceOnUse"
       gradientTransform="matrix(0.693656,0,0,0.694806,-1.314531,-0.681851)" />
    <radialGradient
       inkscape:collect="always"
       xlink:href="#linearGradient4770"
       id="radialGradient4780"
       gradientUnits="userSpaceOnUse"
       gradientTransform="matrix(0.723506,0,0,0.910784,-1.869191,-7.085593)"
       cx="21.937504"
       cy="25.357134"
       fx="21.937504"
       fy="25.357134"
       r="12" />
    <radialGradient
       inkscape:collect="always"
       xlink:href="#linearGradient4704"
       id="radialGradient4786"
       gradientUnits="userSpaceOnUse"
       gradientTransform="matrix(0.746471,0,0,0.971542,-2.440141,-8.192016)"
       cx="21.937504"
       cy="25.357134"
       fx="21.937504"
       fy="25.357134"
       r="12" />
    <linearGradient
       inkscape:collect="always"
       xlink:href="#linearGradient4788"
       id="linearGradient4794"
       x1="16.175068"
       y1="17.903767"
       x2="16.175068"
       y2="19.100279"
       gradientUnits="userSpaceOnUse"
       gradientTransform="matrix(0.672875,0,0,0.750648,-0.825636,-2.135045)" />
    <linearGradient
       inkscape:collect="always"
       xlink:href="#linearGradient4838"
       id="linearGradient4844"
       x1="31.844358"
       y1="6.3501945"
       x2="43.631622"
       y2="3.1918068"
       gradientUnits="userSpaceOnUse"
       gradientTransform="matrix(0.684722,0,0,0.666666,-1.31248,-1.499999)" />
    <linearGradient
       inkscape:collect="always"
       xlink:href="#linearGradient4838"
       id="linearGradient4848"
       gradientUnits="userSpaceOnUse"
       x1="31.844358"
       y1="6.3501945"
       x2="43.631622"
       y2="3.1918068"
       gradientTransform="matrix(-0.493819,0,0,0.655978,28.53157,-1.387769)" />
    <radialGradient
       inkscape:collect="always"
       xlink:href="#linearGradient4852"
       id="radialGradient4858"
       cx="25"
       cy="28.1875"
       fx="25"
       fy="28.1875"
       r="17.75"
       gradientTransform="matrix(1,0,0,1.066901,0,-1.885783)"
       gradientUnits="userSpaceOnUse" />
    <radialGradient
       inkscape:collect="always"
       xlink:href="#linearGradient4852"
       id="radialGradient4862"
       gradientUnits="userSpaceOnUse"
       gradientTransform="matrix(1,0,0,1.066901,0,-1.885783)"
       cx="25"
       cy="28.1875"
       fx="25"
       fy="28.1875"
       r="17.75" />
  </defs>
  <sodipodi:namedview
     id="base"
     pagecolor="#ffffff"
     bordercolor="#666666"
     borderopacity="1.0"
     inkscape:pageopacity="0.0"
     inkscape:pageshadow="2"
     inkscape:zoom="1"
     inkscape:cx="16"
     inkscape:cy="16"
     inkscape:document-units="px"
     inkscape:current-layer="layer2"
     inkscape:showpageshadow="false"
     width="32px"
     height="32px"
     borderlayer="false"
     showgrid="false"
     showborder="false"
     inkscape:window-width="844"
     inkscape:window-height="613"
     inkscape:window-x="5"
     inkscape:window-y="68" />
  <metadata
     id="metadata2841">
    <rdf:RDF>
      <cc:Work
         rdf:about="">
        <dc:format>image/svg+xml</dc:format>
        <dc:type
           rdf:resource="http://purl.org/dc/dcmitype/StillImage" />
      </cc:Work>
    </rdf:RDF>
  </metadata>
  <g
     inkscape:label="Capa 1"
     inkscape:groupmode="layer"
     id="layer1"
     style="display:inline" />
  <g
     inkscape:groupmode="layer"
     id="layer2"
     style="display:inline">
    <path
       sodipodi:type="arc"
       style="opacity:1;fill:url(#radialGradient4858);fill-opacity:1;stroke:none;stroke-width:1;stroke-linecap:square;stroke-linejoin:round;stroke-miterlimit:4;stroke-dasharray:none;stroke-opacity:0.22051284"
       id="path4850"
       sodipodi:cx="25"
       sodipodi:cy="28.1875"
       sodipodi:rx="17.75"
       sodipodi:ry="18.9375"
       d="M 42.75 28.1875 A 17.75 18.9375 0 1 1  7.25,28.1875 A 17.75 18.9375 0 1 1  42.75 28.1875 z"
       transform="matrix(0.676056,0,0,0.660066,-0.901409,-0.105611)" />
    <path
       sodipodi:type="arc"
       style="opacity:1;fill:url(#radialGradient4862);fill-opacity:1;stroke:none;stroke-width:1;stroke-linecap:square;stroke-linejoin:round;stroke-miterlimit:4;stroke-dasharray:none;stroke-opacity:0.22051284;display:inline"
       id="path4860"
       sodipodi:cx="25"
       sodipodi:cy="28.1875"
       sodipodi:rx="17.75"
       sodipodi:ry="18.9375"
       d="M 42.75 28.1875 A 17.75 18.9375 0 1 1  7.25,28.1875 A 17.75 18.9375 0 1 1  42.75 28.1875 z"
       transform="matrix(0.390641,0,0,0.36854,6.028819,-0.201233)" />
    <g
       id="g4754"
       transform="matrix(0.666667,0,0,0.695652,-1.666667,-0.913045)">
      <path
         id="path4748"
         d="M 15,34 L 12,39 L 12,43 L 13,43 L 14,41 L 13.4375,39 L 16,34.5625 L 15,34 z "
         style="fill:black;fill-opacity:1;fill-rule:evenodd;stroke:none;stroke-width:1px;stroke-linecap:butt;stroke-linejoin:miter;stroke-opacity:1" />
      <path
         id="path4750"
         d="M 15,25 L 12,26 L 10,30 L 10,33 L 11,33 L 12,31 L 11,30 L 13,27 L 15,26.5 L 15,25 z "
         style="fill:black;fill-opacity:1;fill-rule:evenodd;stroke:none;stroke-width:1px;stroke-linecap:butt;stroke-linejoin:miter;stroke-opacity:1" />
      <path
         id="path4752"
         d="M 19,16.5 L 17,13.5 L 17,8.5 L 16,8.5 L 15,10.5 L 16,11.5 L 16,14.5 L 18,18.5 L 19,16.5 z "
         style="fill:black;fill-opacity:1;fill-rule:evenodd;stroke:none;stroke-width:1px;stroke-linecap:butt;stroke-linejoin:miter;stroke-opacity:1" />
    </g>
    <g
       style="display:inline"
       id="g4759"
       transform="matrix(-0.666667,0,0,0.695652,33.66667,-0.913043)">
      <path
         id="path4761"
         d="M 15,34 L 12,39 L 12,43 L 13,43 L 14,41 L 13.4375,39 L 16,34.5625 L 15,34 z "
         style="fill:black;fill-opacity:1;fill-rule:evenodd;stroke:none;stroke-width:1px;stroke-linecap:butt;stroke-linejoin:miter;stroke-opacity:1" />
      <path
         id="path4763"
         d="M 15,25 L 12,26 L 10,30 L 10,33 L 11,33 L 12,31 L 11,30 L 13,27 L 15,26.5 L 15,25 z "
         style="fill:black;fill-opacity:1;fill-rule:evenodd;stroke:none;stroke-width:1px;stroke-linecap:butt;stroke-linejoin:miter;stroke-opacity:1" />
      <path
         id="path4765"
         d="M 19,16.5 L 17,13.5 L 17,8.5 L 16,8.5 L 15,10.5 L 16,11.5 L 16,14.5 L 18,18.5 L 19,16.5 z "
         style="fill:black;fill-opacity:1;fill-rule:evenodd;stroke:none;stroke-width:1px;stroke-linecap:butt;stroke-linejoin:miter;stroke-opacity:1" />
    </g>
    <path
       style="fill:url(#linearGradient4732);fill-opacity:1;fill-rule:evenodd;stroke:black;stroke-width:1.00000012px;stroke-linecap:butt;stroke-linejoin:miter;stroke-opacity:1"
       d="M 12.500002,10.503225 C 12.500002,8.6527371 13.716458,5.5000012 16.000004,5.5000012 C 18.28355,5.5000012 19.500008,8.5570254 19.500008,10.503225 L 12.500002,10.503225 z "
       id="path3797"
       sodipodi:nodetypes="czcc" />
    <path
       style="fill:none;fill-opacity:1;fill-rule:evenodd;stroke:white;stroke-width:1px;stroke-linecap:butt;stroke-linejoin:miter;stroke-opacity:0.22051284;display:inline"
       d="M 13.500004,10.503226 C 13.500004,9.022597 14.368901,6.5000012 16.000005,6.5000012 C 17.631109,6.5000012 18.500007,8.9460144 18.500007,10.503226 L 13.500004,10.503226 z "
       id="path4834"
       sodipodi:nodetypes="czcc" />
    <path
       style="opacity:1;fill:url(#radialGradient4780);fill-opacity:1;stroke:#a40000;stroke-width:1.00000072;stroke-linecap:square;stroke-linejoin:round;stroke-miterlimit:4;stroke-opacity:1"
       d="M 23.500012,19.000008 C 23.500012,24.244012 21.719503,28.500014 16.000008,28.500014 C 10.201571,28.500014 8.5000009,24.244012 8.5000009,19.000008 C 8.5000009,13.756008 9.4107435,9.5000046 16.000008,9.5000046 C 22.670533,9.5000046 23.500012,13.756008 23.500012,19.000008 z "
       id="path2905"
       sodipodi:nodetypes="czszc" />
    <path
       sodipodi:type="arc"
       style="opacity:1;fill:url(#radialGradient4696);fill-opacity:1;stroke:black;stroke-width:1.17935884;stroke-linecap:square;stroke-linejoin:round;stroke-miterlimit:4;stroke-dasharray:none;stroke-opacity:1"
       id="path3793"
       sodipodi:cx="22.879606"
       sodipodi:cy="13.090909"
       sodipodi:rx="1.7690418"
       sodipodi:ry="1.7690418"
       d="M 24.648648 13.090909 A 1.7690418 1.7690418 0 1 1  21.110564,13.090909 A 1.7690418 1.7690418 0 1 1  24.648648 13.090909 z"
       transform="matrix(0.847919,0,0,0.847918,-5.400057,-3.100015)" />
    <path
       sodipodi:type="arc"
       style="opacity:1;fill:url(#radialGradient4700);fill-opacity:1;stroke:black;stroke-width:1.17936027;stroke-linecap:square;stroke-linejoin:round;stroke-miterlimit:4;stroke-dasharray:none;stroke-opacity:1;display:inline"
       id="path4698"
       sodipodi:cx="22.879606"
       sodipodi:cy="13.090909"
       sodipodi:rx="1.7690418"
       sodipodi:ry="1.7690418"
       d="M 24.648648 13.090909 A 1.7690418 1.7690418 0 1 1  21.110564,13.090909 A 1.7690418 1.7690418 0 1 1  24.648648 13.090909 z"
       transform="matrix(0.847917,0,0,0.847918,-1.400004,-3.100017)" />
    <path
       style="opacity:1;fill:url(#radialGradient4786);fill-opacity:1;stroke:url(#linearGradient4794);stroke-width:1.00000036;stroke-linecap:square;stroke-linejoin:round;stroke-miterlimit:4;stroke-opacity:1;display:inline"
       d="M 9.9379128,11.928874 C 11.073507,10.414717 12.944661,9.5000018 15.996256,9.5000018 C 18.964035,9.5000018 20.811184,10.34421 21.952316,11.753093 C 19.535517,14.449233 13.220109,14.042877 9.9379128,11.928874 z "
       id="path4767"
       sodipodi:nodetypes="czcc" />
    <path
       sodipodi:type="arc"
       style="opacity:0.73529412;fill:url(#linearGradient4724);fill-opacity:1;stroke:none;stroke-width:1;stroke-linecap:square;stroke-linejoin:round;stroke-miterlimit:4;stroke-dasharray:none;stroke-opacity:0.27692309"
       id="path4716"
       sodipodi:cx="27.15625"
       sodipodi:cy="22.75"
       sodipodi:rx="6.78125"
       sodipodi:ry="5"
       d="M 33.9375 22.75 A 6.78125 5 0 1 1  20.375,22.75 A 6.78125 5 0 1 1  33.9375 22.75 z"
       transform="matrix(0.884793,0,0,0.9,-8.027675,-4.974994)" />
    <path
       style="opacity:0.46078431;fill:none;fill-opacity:1;fill-rule:evenodd;stroke:url(#linearGradient4742);stroke-width:1px;stroke-linecap:butt;stroke-linejoin:miter;stroke-opacity:1"
       d="M 16.02688,10.435045 L 16.02688,28.5"
       id="path4734" />
    <path
       style="opacity:1;fill:none;fill-opacity:1;stroke:white;stroke-width:1.00000119;stroke-linecap:square;stroke-linejoin:round;stroke-miterlimit:4;stroke-opacity:0.27692309;display:inline"
       d="M 22.50001,19.000004 C 22.50001,23.692006 20.956902,27.500005 16.000008,27.500005 C 10.974699,27.500005 9.5000063,23.692006 9.5000063,19.000004 C 9.5000063,14.308005 10.289315,10.500005 16.000008,10.500005 C 21.781127,10.500005 22.50001,14.308005 22.50001,19.000004 z "
       id="path4702"
       sodipodi:nodetypes="czszc" />
    <g
       id="g4805"
       transform="matrix(0.693656,0,0,0.694806,-1.549251,-0.961076)">
      <path
         transform="matrix(1.882353,0,0,1.411767,-16.41177,-10.52947)"
         d="M 19.875 25.875 A 1.0625 2.125 0 1 1  17.75,25.875 A 1.0625 2.125 0 1 1  19.875 25.875 z"
         sodipodi:ry="2.125"
         sodipodi:rx="1.0625"
         sodipodi:cy="25.875"
         sodipodi:cx="18.8125"
         id="path4797"
         style="opacity:0.73529412;fill:black;fill-opacity:0.70256413;stroke:none;stroke-width:1;stroke-linecap:square;stroke-linejoin:round;stroke-miterlimit:4;stroke-dasharray:none;stroke-opacity:1"
         sodipodi:type="arc" />
      <path
         transform="matrix(1.411767,0,0,0.941176,-8.058863,1.647059)"
         d="M 19.875 25.875 A 1.0625 2.125 0 1 1  17.75,25.875 A 1.0625 2.125 0 1 1  19.875 25.875 z"
         sodipodi:ry="2.125"
         sodipodi:rx="1.0625"
         sodipodi:cy="25.875"
         sodipodi:cx="18.8125"
         id="path4801"
         style="opacity:0.73529412;fill:black;fill-opacity:0.83076926;stroke:none;stroke-width:1;stroke-linecap:square;stroke-linejoin:round;stroke-miterlimit:4;stroke-dasharray:none;stroke-opacity:1;display:inline"
         sodipodi:type="arc" />
      <path
         transform="matrix(0.941176,0,0,0.47059,0.294129,13.82348)"
         d="M 19.875 25.875 A 1.0625 2.125 0 1 1  17.75,25.875 A 1.0625 2.125 0 1 1  19.875 25.875 z"
         sodipodi:ry="2.125"
         sodipodi:rx="1.0625"
         sodipodi:cy="25.875"
         sodipodi:cx="18.8125"
         id="path4803"
         style="opacity:0.73529412;fill:black;fill-opacity:0.83076926;stroke:none;stroke-width:1;stroke-linecap:square;stroke-linejoin:round;stroke-miterlimit:4;stroke-dasharray:none;stroke-opacity:1;display:inline"
         sodipodi:type="arc" />
    </g>
    <g
       style="display:inline"
       id="g4810"
       transform="matrix(0.693656,0,0,0.579004,-0.161936,8.650437)">
      <path
         transform="matrix(1.882353,0,0,1.411767,-16.41177,-10.52947)"
         d="M 19.875 25.875 A 1.0625 2.125 0 1 1  17.75,25.875 A 1.0625 2.125 0 1 1  19.875 25.875 z"
         sodipodi:ry="2.125"
         sodipodi:rx="1.0625"
         sodipodi:cy="25.875"
         sodipodi:cx="18.8125"
         id="path4812"
         style="opacity:0.73529412;fill:black;fill-opacity:0.70256413;stroke:none;stroke-width:1;stroke-linecap:square;stroke-linejoin:round;stroke-miterlimit:4;stroke-dasharray:none;stroke-opacity:1"
         sodipodi:type="arc" />
      <path
         transform="matrix(1.411767,0,0,0.941176,-8.058863,1.647059)"
         d="M 19.875 25.875 A 1.0625 2.125 0 1 1  17.75,25.875 A 1.0625 2.125 0 1 1  19.875 25.875 z"
         sodipodi:ry="2.125"
         sodipodi:rx="1.0625"
         sodipodi:cy="25.875"
         sodipodi:cx="18.8125"
         id="path4814"
         style="opacity:0.73529412;fill:black;fill-opacity:0.83076926;stroke:none;stroke-width:1;stroke-linecap:square;stroke-linejoin:round;stroke-miterlimit:4;stroke-dasharray:none;stroke-opacity:1;display:inline"
         sodipodi:type="arc" />
      <path
         transform="matrix(0.941176,0,0,0.47059,0.294129,13.82348)"
         d="M 19.875 25.875 A 1.0625 2.125 0 1 1  17.75,25.875 A 1.0625 2.125 0 1 1  19.875 25.875 z"
         sodipodi:ry="2.125"
         sodipodi:rx="1.0625"
         sodipodi:cy="25.875"
         sodipodi:cx="18.8125"
         id="path4816"
         style="opacity:0.73529412;fill:black;fill-opacity:0.83076926;stroke:none;stroke-width:1;stroke-linecap:square;stroke-linejoin:round;stroke-miterlimit:4;stroke-dasharray:none;stroke-opacity:1;display:inline"
         sodipodi:type="arc" />
    </g>
    <g
       style="display:inline"
       id="g4818"
       transform="matrix(-0.693656,0,0,0.694806,33.13356,-0.961074)">
      <path
         transform="matrix(1.882353,0,0,1.411767,-16.41177,-10.52947)"
         d="M 19.875 25.875 A 1.0625 2.125 0 1 1  17.75,25.875 A 1.0625 2.125 0 1 1  19.875 25.875 z"
         sodipodi:ry="2.125"
         sodipodi:rx="1.0625"
         sodipodi:cy="25.875"
         sodipodi:cx="18.8125"
         id="path4820"
         style="opacity:0.73529412;fill:black;fill-opacity:0.70256413;stroke:none;stroke-width:1;stroke-linecap:square;stroke-linejoin:round;stroke-miterlimit:4;stroke-dasharray:none;stroke-opacity:1"
         sodipodi:type="arc" />
      <path
         transform="matrix(1.411767,0,0,0.941176,-8.058863,1.647059)"
         d="M 19.875 25.875 A 1.0625 2.125 0 1 1  17.75,25.875 A 1.0625 2.125 0 1 1  19.875 25.875 z"
         sodipodi:ry="2.125"
         sodipodi:rx="1.0625"
         sodipodi:cy="25.875"
         sodipodi:cx="18.8125"
         id="path4822"
         style="opacity:0.73529412;fill:black;fill-opacity:0.83076926;stroke:none;stroke-width:1;stroke-linecap:square;stroke-linejoin:round;stroke-miterlimit:4;stroke-dasharray:none;stroke-opacity:1;display:inline"
         sodipodi:type="arc" />
      <path
         transform="matrix(0.941176,0,0,0.47059,0.294129,13.82348)"
         d="M 19.875 25.875 A 1.0625 2.125 0 1 1  17.75,25.875 A 1.0625 2.125 0 1 1  19.875 25.875 z"
         sodipodi:ry="2.125"
         sodipodi:rx="1.0625"
         sodipodi:cy="25.875"
         sodipodi:cx="18.8125"
         id="path4824"
         style="opacity:0.73529412;fill:black;fill-opacity:0.83076926;stroke:none;stroke-width:1;stroke-linecap:square;stroke-linejoin:round;stroke-miterlimit:4;stroke-dasharray:none;stroke-opacity:1;display:inline"
         sodipodi:type="arc" />
    </g>
    <g
       style="display:inline"
       id="g4826"
       transform="matrix(-0.693656,0,0,0.579004,31.74624,8.650437)">
      <path
         transform="matrix(1.882353,0,0,1.411767,-16.41177,-10.52947)"
         d="M 19.875 25.875 A 1.0625 2.125 0 1 1  17.75,25.875 A 1.0625 2.125 0 1 1  19.875 25.875 z"
         sodipodi:ry="2.125"
         sodipodi:rx="1.0625"
         sodipodi:cy="25.875"
         sodipodi:cx="18.8125"
         id="path4828"
         style="opacity:0.73529412;fill:black;fill-opacity:0.70256413;stroke:none;stroke-width:1;stroke-linecap:square;stroke-linejoin:round;stroke-miterlimit:4;stroke-dasharray:none;stroke-opacity:1"
         sodipodi:type="arc" />
      <path
         transform="matrix(1.411767,0,0,0.941176,-8.058863,1.647059)"
         d="M 19.875 25.875 A 1.0625 2.125 0 1 1  17.75,25.875 A 1.0625 2.125 0 1 1  19.875 25.875 z"
         sodipodi:ry="2.125"
         sodipodi:rx="1.0625"
         sodipodi:cy="25.875"
         sodipodi:cx="18.8125"
         id="path4830"
         style="opacity:0.73529412;fill:black;fill-opacity:0.83076926;stroke:none;stroke-width:1;stroke-linecap:square;stroke-linejoin:round;stroke-miterlimit:4;stroke-dasharray:none;stroke-opacity:1;display:inline"
         sodipodi:type="arc" />
      <path
         transform="matrix(0.941176,0,0,0.47059,0.294129,13.82348)"
         d="M 19.875 25.875 A 1.0625 2.125 0 1 1  17.75,25.875 A 1.0625 2.125 0 1 1  19.875 25.875 z"
         sodipodi:ry="2.125"
         sodipodi:rx="1.0625"
         sodipodi:cy="25.875"
         sodipodi:cx="18.8125"
         id="path4832"
         style="opacity:0.73529412;fill:black;fill-opacity:0.83076926;stroke:none;stroke-width:1;stroke-linecap:square;stroke-linejoin:round;stroke-miterlimit:4;stroke-dasharray:none;stroke-opacity:1;display:inline"
         sodipodi:type="arc" />
    </g>
    <path
       style="fill:none;fill-opacity:1;fill-rule:evenodd;stroke:url(#linearGradient4844);stroke-width:1.00000024px;stroke-linecap:butt;stroke-linejoin:miter;stroke-opacity:1"
       d="M 16.832654,5.499999 C 19.090104,2.0940718 24.957759,0.92145398 29.500013,0.50000029"
       id="path4836"
       sodipodi:nodetypes="cc" />
    <path
       style="fill:none;fill-opacity:1;fill-rule:evenodd;stroke:url(#linearGradient4848);stroke-width:1.00000095px;stroke-linecap:butt;stroke-linejoin:miter;stroke-opacity:1;display:inline"
       d="M 15.445346,5.5000026 C 13.817278,2.1486804 10.156519,0.50287851 6.500004,2.1381138"
       id="path4846"
       sodipodi:nodetypes="cc" />
  </g>
</svg>
