<?xml version="1.0" encoding="UTF-8"?>
<!DOCTYPE svg PUBLIC "-//W3C//DTD SVG 1.1//EN" "http://www.w3.org/Graphics/SVG/1.1/DTD/svg11.dtd">
<!-- Creator: CorelDRAW -->
<svg xmlns="http://www.w3.org/2000/svg" xml:space="preserve" width="2550px" height="3300px" style="shape-rendering:geometricPrecision; text-rendering:geometricPrecision; image-rendering:optimizeQuality; fill-rule:evenodd; clip-rule:evenodd"
viewBox="0 0 2550 3300">
 <defs>
  <style type="text/css">
   <![CDATA[
    .str0 {stroke:#1F1A17;stroke-width:2.08346}
    .str1 {stroke:#706E6D;stroke-width:2.08346}
    .fil2 {fill:none}
    .fil3 {fill:#1F1A17}
    .fil8 {fill:#706E6D}
    .fil1 {fill:white}
    .fil6 {fill:white}
    .fil0 {fill:#969594}
    .fil4 {fill:#9F2B29}
    .fil7 {fill:#B7B6B5}
    .fil9 {fill:#BE8171}
    .fil5 {fill:url(#id15)}
    .fil10 {fill:url(#id16)}
    .fil11 {fill:url(#id17)}
    .fil12 {fill:url(#id18)}
   ]]>
  </style>
   <clipPath id="id0">
    <path d="M183.378 113.459c27.4276,0 49.6713,22.2437 49.6713,49.6713 0,27.4276 -22.2437,49.6713 -49.6713,49.6713 -27.4276,0 -49.6713,-22.2437 -49.6713,-49.6713 0,-27.4276 22.2437,-49.6713 49.6713,-49.6713z"/>
   </clipPath>
      <clipPath id="id1">
       <path d="M136.436 179.392c-0.542126,-1.5626 -1.00748,-3.16063 -1.39252,-4.79055 0.858661,-4.48701 3.37087,-8.40472 7.36299,-10.7209 8.14016,-4.72205 19.3358,-1.00748 25.0051,8.29724 0.506693,0.831496 0.949606,1.68425 1.33583,2.54291 -5.75669,-8.94921 -16.7043,-12.4571 -24.7016,-7.81772 -4.50709,2.61496 -7.12795,7.27441 -7.60984,12.489z"/>
      </clipPath>
       <clipPath id="id2">
        <path d="M136.436 179.392c-0.542126,-1.5626 -1.00748,-3.16063 -1.39252,-4.79055 0.858661,-4.48701 3.37087,-8.40472 7.36299,-10.7209 8.14016,-4.72205 19.3358,-1.00748 25.0051,8.29724 0.506693,0.831496 0.949606,1.68425 1.33583,2.54291 -5.75669,-8.94921 -16.7043,-12.4571 -24.7016,-7.81772 -4.50709,2.61496 -7.12795,7.27441 -7.60984,12.489z"/>
       </clipPath>
       <clipPath id="id3">
        <path d="M136.436 179.392c-0.542126,-1.5626 -1.00748,-3.16063 -1.39252,-4.79055 0.858661,-4.48701 3.37087,-8.40472 7.36299,-10.7209 8.14016,-4.72205 19.3358,-1.00748 25.0051,8.29724 0.506693,0.831496 0.949606,1.68425 1.33583,2.54291 -5.75669,-8.94921 -16.7043,-12.4571 -24.7016,-7.81772 -4.50709,2.61496 -7.12795,7.27441 -7.60984,12.489z"/>
       </clipPath>
      <clipPath id="id4">
       <path d="M183.378 113.459c27.4276,0 49.6713,22.2437 49.6713,49.6713 0,27.4276 -22.2437,49.6713 -49.6713,49.6713 -27.4276,0 -49.6713,-22.2437 -49.6713,-49.6713 0,-27.4276 22.2437,-49.6713 49.6713,-49.6713z"/>
      </clipPath>
       <mask id="id5">
  <linearGradient id="id6" gradientUnits="userSpaceOnUse" x1="154.928" y1="185.196" x2="151.913" y2="180.918">
   <stop offset="0" style="stop-opacity:1; stop-color:white"/>
   <stop offset="1" style="stop-opacity:0; stop-color:white"/>
  </linearGradient>
        <rect style="fill:url(#id6)" x="141.393" y="163.078" width="24.0543" height="39.9555"/>
       </mask>
      <clipPath id="id7">
       <path d="M230.6 147.693c0.49252,1.50591 0.914173,3.04252 1.2626,4.60748 -1.00512,4.45984 -3.65197,8.29252 -7.72205,10.4764 -8.29134,4.44921 -19.3583,0.366142 -24.7146,-9.12165 -0.479528,-0.848031 -0.895276,-1.71378 -1.25079,-2.58543 5.45551,9.13465 16.2815,13.0039 24.4276,8.6315 4.52835,-2.43071 7.29449,-6.90236 7.99724,-12.0083z"/>
      </clipPath>
       <clipPath id="id8">
        <path d="M230.6 147.693c0.49252,1.50591 0.914173,3.04252 1.2626,4.60748 -1.00512,4.45984 -3.65197,8.29252 -7.72205,10.4764 -8.29134,4.44921 -19.3583,0.366142 -24.7146,-9.12165 -0.479528,-0.848031 -0.895276,-1.71378 -1.25079,-2.58543 5.45551,9.13465 16.2815,13.0039 24.4276,8.6315 4.52835,-2.43071 7.29449,-6.90236 7.99724,-12.0083z"/>
       </clipPath>
           <mask id="id9">
  <linearGradient id="id10" gradientUnits="userSpaceOnUse" x1="154.928" y1="185.196" x2="151.913" y2="180.918">
   <stop offset="0" style="stop-opacity:1; stop-color:white"/>
   <stop offset="1" style="stop-opacity:0; stop-color:white"/>
  </linearGradient>
            <rect style="fill:url(#id10)" x="141.393" y="163.078" width="24.0543" height="39.9555"/>
           </mask>
       <clipPath id="id11">
        <path d="M230.6 147.693c0.49252,1.50591 0.914173,3.04252 1.2626,4.60748 -1.00512,4.45984 -3.65197,8.29252 -7.72205,10.4764 -8.29134,4.44921 -19.3583,0.366142 -24.7146,-9.12165 -0.479528,-0.848031 -0.895276,-1.71378 -1.25079,-2.58543 5.45551,9.13465 16.2815,13.0039 24.4276,8.6315 4.52835,-2.43071 7.29449,-6.90236 7.99724,-12.0083z"/>
       </clipPath>
      <clipPath id="id12">
       <path d="M183.378 113.459c27.4276,0 49.6713,22.2437 49.6713,49.6713 0,27.4276 -22.2437,49.6713 -49.6713,49.6713 -27.4276,0 -49.6713,-22.2437 -49.6713,-49.6713 0,-27.4276 22.2437,-49.6713 49.6713,-49.6713z"/>
      </clipPath>
       <mask id="id13">
  <linearGradient id="id14" gradientUnits="userSpaceOnUse" x1="212.333" y1="141.059" x2="215.205" y2="145.436">
   <stop offset="0" style="stop-opacity:1; stop-color:white"/>
   <stop offset="1" style="stop-opacity:0; stop-color:white"/>
  </linearGradient>
        <rect style="fill:url(#id14)" x="202.375" y="122.916" width="22.787" height="40.663"/>
       </mask>
  <radialGradient id="id15" gradientUnits="userSpaceOnUse" cx="134.917" cy="174.012" r="26.85" fx="134.917" fy="174.012">
   <stop offset="0" style="stop-color:#ECB19F"/>
   <stop offset="0.0705882" style="stop-color:#E88D74"/>
   <stop offset="0.458824" style="stop-color:#DE674E"/>
   <stop offset="0.619608" style="stop-color:#CF3529"/>
   <stop offset="1" style="stop-color:#AF2926"/>
  </radialGradient>
  <radialGradient id="id16" gradientUnits="userSpaceOnUse" cx="134.917" cy="174.012" r="26.85" fx="134.917" fy="174.012">
   <stop offset="0" style="stop-color:#F4CEBF"/>
   <stop offset="0.0705882" style="stop-color:#F0B29C"/>
   <stop offset="0.458824" style="stop-color:#E99881"/>
   <stop offset="0.619608" style="stop-color:#E07E68"/>
   <stop offset="1" style="stop-color:#CA7E6C"/>
  </radialGradient>
  <radialGradient id="id17" gradientUnits="userSpaceOnUse" xlink:href="#id15" cx="195.463" cy="136.958" r="26.85" fx="195.463" fy="136.958">
  </radialGradient>
  <radialGradient id="id18" gradientUnits="userSpaceOnUse" xlink:href="#id16" cx="195.463" cy="136.958" r="26.85" fx="195.463" fy="136.958">
  </radialGradient>
 </defs>
 <g id="Capa_x0020_1">
  <metadata id="CorelCorpID_0Corel-Layer"/>
  <path class="fil0" d="M288.256 220.988l0.579921 0.413386c1.32283,0.94252 1.63228,2.79094 0.690945,4.11378l-11.8654 16.6524c-0.94252,1.32283 -2.79094,1.63228 -4.1126,0.690945l-4.67126 -3.32835 -34.9264 -23.7531c-2.62795,-1.77165 -3.29528,-5.56535 -1.67126,-8.82992 -5.72835,5.64331 -12.1512,8.05748 -16.4197,5.52992 -0.255118,-0.119291 -0.470079,-0.301181 -0.670866,-0.445276 -10.3772,7.31575 -23.0386,11.3197 -36.3803,10.6181 -31.8213,-1.68543 -55.5378,-29.5559 -53.0303,-62.1839 2.54173,-32.6362 30.3661,-57.7606 62.152,-56.0516 31.8083,1.72677 55.5543,29.5512 53.0433,62.1969 -0.214961,2.32441 -0.523228,4.59449 -0.928346,6.86811 4.63583,3.3815 4.68661,12.4193 0.390945,21.6945 2.45315,-2.31496 5.92677,-2.8937 8.43307,-1.19173l39.5091 26.8335 -0.122835 0.172441zm-143.913 -85.4976c15.7335,-22.2413 46.0524,-27.8516 67.7091,-12.5386 21.6579,15.3165 26.4673,45.7677 10.7327,68.0067 -15.7299,22.2354 -46.0476,27.8516 -67.7079,12.5315 -21.6579,-15.313 -26.4626,-45.7642 -10.7339,-67.9996z"/>
  <path class="fil1" d="M183.378 113.459c27.4276,0 49.6713,22.2437 49.6713,49.6713 0,27.4276 -22.2437,49.6713 -49.6713,49.6713 -27.4276,0 -49.6713,-22.2437 -49.6713,-49.6713 0,-27.4276 22.2437,-49.6713 49.6713,-49.6713z"/>
  <g style="clip-path:url(#id0)">
   <g id="_26350288">
    <g>
     <g>
      <g>
       <path id="_173587560" class="fil2 str0" d="M136.63 180.568c-2.07283,3.01181 -5.25118,3.64252 -9.53386,1.89449 -0.50315,-3.72283 -1.79528,-10.8921 -6.09094,-11.8772"/>
       <path id="_26649888" class="fil2 str0" d="M139.886 194.158c-2.29016,2.63622 -5.32323,3.5185 -9.09567,2.65039 -0.0200787,-2.88898 -0.356693,-8.41299 -4.23307,-8.6752"/>
      </g>
      <path id="_26633168" class="fil2 str0" d="M169.685 201.413c13.5921,-0.0248031 11.4661,0.154724 12.4335,-13.3417"/>
      <g>
       <path id="_26828336" class="fil2 str0" d="M160.428 166.762c3.64252,-0.304724 5.7685,-2.75079 6.37795,-7.33583 -2.98346,-2.28543 -8.56535,-6.96496 -7.28858,-11.1839"/>
       <path id="_27407064" class="fil2 str0" d="M170.609 176.334c3.4252,-0.679134 5.69646,-2.87362 6.81614,-6.57992 -2.49921,-1.45039 -7.12677,-4.48583 -5.43071,-7.98071"/>
      </g>
      <path id="_26881896" class="fil2 str0" d="M162.457 205.38c-6.76772,11.7862 -5.55709,10.0299 -17.7531,4.17047"/>
      <path id="_26672448" class="fil3" d="M167.995 207.227c-6.33661,3.67559 -14.0197,2.27244 -17.1543,-3.13228l-0.108661 -0.196063 22.9429 -13.3098 0.115748 0.191339c3.13583,5.40472 0.539764,12.7713 -5.79567,16.4469z"/>
      <path id="_173484448" class="fil4" d="M152.173 207.333c-16.9972,-4.25551 -27.8539,-36.4169 -11.5441,-45.8799 16.4409,-9.5374 40.5685,13.3618 35.2748,32.7189 -11.1744,2.67047 -15.6555,4.99961 -23.7307,13.161z"/>
      <path id="_27393080" class="fil5" d="M152.748 204.494c-14.7673,-3.90827 -24.4996,-32.2535 -10.4646,-40.3961 14.1461,-8.20748 35.2819,12.1406 30.8917,29.0811 -9.65433,2.2311 -13.513,4.23071 -20.4272,11.315z"/>
      <polygon id="_26883072" class="fil3" points="160.406,201.731 166.033,198.13 158.956,192.485 "/>
     </g>
     <g style="clip-path:url(#id1)">
      <polygon id="_25581704" class="fil6" points="-165.286,-138.162 468.749,-138.162 468.749,489.762 -165.286,489.762 "/>
      <g id="Capa_x0020_1_0">
       <metadata id="CorelCorpID_1Corel-Layer"/>
       <path id="_26598872" class="fil7" d="M288.256 220.988l0.579921 0.413386c1.32283,0.94252 1.63228,2.79094 0.690945,4.11378l-11.8654 16.6524c-0.94252,1.32283 -2.79094,1.63228 -4.1126,0.690945l-4.67126 -3.32835 -34.9264 -23.7531c-2.62795,-1.77165 -3.29528,-5.56535 -1.67126,-8.82992 -5.72835,5.64331 -12.1512,8.05748 -16.4197,5.52992 -0.255118,-0.119291 -0.470079,-0.301181 -0.670866,-0.445276 -10.3772,7.31575 -23.0386,11.3197 -36.3803,10.6181 -31.8213,-1.68543 -55.5378,-29.5559 -53.0303,-62.1839 2.54173,-32.6362 30.3661,-57.7606 62.152,-56.0516 31.8083,1.72677 55.5543,29.5512 53.0433,62.1969 -0.214961,2.32441 -0.523228,4.59449 -0.928346,6.86811 4.63583,3.3815 4.68661,12.4193 0.390945,21.6945 2.45315,-2.31496 5.92677,-2.8937 8.43307,-1.19173l39.5091 26.8335 -0.122835 0.172441zm-143.913 -85.4976c15.7335,-22.2413 46.0524,-27.8516 67.7091,-12.5386 21.6579,15.3165 26.4673,45.7677 10.7327,68.0067 -15.7299,22.2354 -46.0476,27.8516 -67.7079,12.5315 -21.6579,-15.313 -26.4626,-45.7642 -10.7339,-67.9996z"/>
       <path id="_25326456" class="fil1" d="M183.378 113.459c27.4276,0 49.6713,22.2437 49.6713,49.6713 0,27.4276 -22.2437,49.6713 -49.6713,49.6713 -27.4276,0 -49.6713,-22.2437 -49.6713,-49.6713 0,-27.4276 22.2437,-49.6713 49.6713,-49.6713z"/>
      </g>
      <g style="clip-path:url(#id2)">
       <g>
        <g>
         <g>
          <g>
           <path id="_173587560" class="fil2 str1" d="M136.63 180.568c-2.07283,3.01181 -5.25118,3.64252 -9.53386,1.89449 -0.50315,-3.72283 -1.79528,-10.8921 -6.09094,-11.8772"/>
           <path id="_26649888" class="fil2 str1" d="M139.886 194.158c-2.29016,2.63622 -5.32323,3.5185 -9.09567,2.65039 -0.0200787,-2.88898 -0.356693,-8.41299 -4.23307,-8.6752"/>
          </g>
          <path id="_26633168" class="fil2 str1" d="M169.685 201.413c13.5921,-0.0248031 11.4661,0.154724 12.4335,-13.3417"/>
          <g>
           <path id="_26828336" class="fil2 str1" d="M160.428 166.762c3.64252,-0.304724 5.7685,-2.75079 6.37795,-7.33583 -2.98346,-2.28543 -8.56535,-6.96496 -7.28858,-11.1839"/>
           <path id="_27407064" class="fil2 str1" d="M170.609 176.334c3.4252,-0.679134 5.69646,-2.87362 6.81614,-6.57992 -2.49921,-1.45039 -7.12677,-4.48583 -5.43071,-7.98071"/>
          </g>
          <path id="_26881896" class="fil2 str1" d="M162.457 205.38c-6.76772,11.7862 -5.55709,10.0299 -17.7531,4.17047"/>
          <path id="_26672448" class="fil8" d="M167.995 207.227c-6.33661,3.67559 -14.0197,2.27244 -17.1543,-3.13228l-0.108661 -0.196063 22.9429 -13.3098 0.115748 0.191339c3.13583,5.40472 0.539764,12.7713 -5.79567,16.4469z"/>
          <path id="_173484448" class="fil9" d="M152.173 207.333c-16.9972,-4.25551 -27.8539,-36.4169 -11.5441,-45.8799 16.4409,-9.5374 40.5685,13.3618 35.2748,32.7189 -11.1744,2.67047 -15.6555,4.99961 -23.7307,13.161z"/>
          <path id="_27393080" class="fil10" d="M152.748 204.494c-14.7673,-3.90827 -24.4996,-32.2535 -10.4646,-40.3961 14.1461,-8.20748 35.2819,12.1406 30.8917,29.0811 -9.65433,2.2311 -13.513,4.23071 -20.4272,11.315z"/>
          <polygon id="_26883072" class="fil8" points="160.406,201.731 166.033,198.13 158.956,192.485 "/>
         </g>
        </g>
       </g>
      </g>
      <g style="clip-path:url(#id3)">
       <path class="fil2" d="M183.378 113.459c27.4276,0 49.6713,22.2437 49.6713,49.6713 0,27.4276 -22.2437,49.6713 -49.6713,49.6713 -27.4276,0 -49.6713,-22.2437 -49.6713,-49.6713 0,-27.4276 22.2437,-49.6713 49.6713,-49.6713z"/>
      </g>
     </g>
     <g style="clip-path:url(#id4)">
      <path class="fil2" d="M138.237 189.762l-0.305906 -0.483071c-5.66811,-9.30354 -3.66378,-20.6764 4.4752,-25.3984 8.14016,-4.72205 19.3358,-1.00748 25.0051,8.29724 0.506693,0.831496 0.949606,1.68425 1.33583,2.54291 -5.75669,-8.94921 -16.7043,-12.4571 -24.7016,-7.81772 -7.41024,4.29921 -9.7311,14.1142 -5.80866,22.8591z"/>
      <line id="_26560056" class="fil2 str0" style="mask:url(#id5)" x1="164.406" y1="201.991" x2="142.435" y2= "164.119" />
     </g>
     <g>
      <g>
       <path id="_26740896" class="fil2 str0" d="M230.467 146.29c2.17205,-2.94094 5.36929,-3.46654 9.59173,-1.57795 0.380315,3.73819 1.43268,10.9465 5.69409,12.0732"/>
       <path id="_26847528" class="fil2 str0" d="M227.663 132.6c2.37756,-2.55827 5.43661,-3.34016 9.17953,-2.34803 -0.0767717,2.88898 0.0767717,8.42008 3.94252,8.8122"/>
      </g>
      <path id="_172421360" class="fil2 str0" d="M198.122 124.361c-13.5862,-0.426378 -11.4555,-0.535039 -12.8693,12.9213"/>
      <g>
       <path id="_27648816" class="fil2 str0" d="M206.225 159.3c-3.65079,0.183071 -5.85591,2.55709 -6.61772,7.11969 2.90551,2.38346 8.33031,7.24488 6.91417,11.4189"/>
       <path id="_172469552" class="fil2 str0" d="M196.368 149.395c-3.44646,0.565748 -5.78976,2.68346 -7.0311,6.35079 2.44961,1.53307 6.97441,4.7185 5.1626,8.15669"/>
      </g>
      <path id="_26882576" class="fil2 str0" d="M205.478 120.637c7.15512,-11.5559 5.88661,-9.84094 17.8807,-3.57992"/>
      <path id="_27090112" class="fil3" d="M200.003 118.606c6.45472,-3.46417 14.087,-1.80591 17.0409,3.69921l0.102756 0.199606 -23.3717 12.5421 -0.109843 -0.196063c-2.95394,-5.50512 -0.115748,-12.7807 6.3378,-16.2449z"/>
      <path id="_27271544" class="fil4" d="M215.82 119.024c16.8461,4.81772 26.6315,37.3205 10.0169,46.2366 -16.748,8.98819 -40.1043,-14.6976 -34.1717,-33.8693 11.2571,-2.29843 15.8138,-4.47756 24.1547,-12.3673z"/>
      <path id="_172301872" class="fil11" d="M215.151 121.844c14.6303,4.39606 23.4177,33.0484 9.12047,40.7209 -14.4106,7.73268 -34.8602,-13.3039 -29.9114,-30.0898 9.72283,-1.90984 13.6465,-3.78071 20.7909,-10.6311z"/>
      <polygon id="_27001984" class="fil3" points="207.406,124.35 201.663,127.763 208.548,133.638 "/>
     </g>
     <g style="clip-path:url(#id7)">
      <polygon id="_26826704" class="fil6" points="-101.829,-162.954 532.315,-162.954 532.315,464.575 -101.829,464.575 "/>
      <g id="Capa_x0020_1_1">
       <metadata id="CorelCorpID_2Corel-Layer"/>
       <path id="_26598872" class="fil7" d="M288.256 220.988l0.579921 0.413386c1.32283,0.94252 1.63228,2.79094 0.690945,4.11378l-11.8654 16.6524c-0.94252,1.32283 -2.79094,1.63228 -4.1126,0.690945l-4.67126 -3.32835 -34.9264 -23.7531c-2.62795,-1.77165 -3.29528,-5.56535 -1.67126,-8.82992 -5.72835,5.64331 -12.1512,8.05748 -16.4197,5.52992 -0.255118,-0.119291 -0.470079,-0.301181 -0.670866,-0.445276 -10.3772,7.31575 -23.0386,11.3197 -36.3803,10.6181 -31.8213,-1.68543 -55.5378,-29.5559 -53.0303,-62.1839 2.54173,-32.6362 30.3661,-57.7606 62.152,-56.0516 31.8083,1.72677 55.5543,29.5512 53.0433,62.1969 -0.214961,2.32441 -0.523228,4.59449 -0.928346,6.86811 4.63583,3.3815 4.68661,12.4193 0.390945,21.6945 2.45315,-2.31496 5.92677,-2.8937 8.43307,-1.19173l39.5091 26.8335 -0.122835 0.172441zm-143.913 -85.4976c15.7335,-22.2413 46.0524,-27.8516 67.7091,-12.5386 21.6579,15.3165 26.4673,45.7677 10.7327,68.0067 -15.7299,22.2354 -46.0476,27.8516 -67.7079,12.5315 -21.6579,-15.313 -26.4626,-45.7642 -10.7339,-67.9996z"/>
       <path id="_25326456" class="fil1" d="M183.378 113.459c27.4276,0 49.6713,22.2437 49.6713,49.6713 0,27.4276 -22.2437,49.6713 -49.6713,49.6713 -27.4276,0 -49.6713,-22.2437 -49.6713,-49.6713 0,-27.4276 22.2437,-49.6713 49.6713,-49.6713z"/>
      </g>
      <g style="clip-path:url(#id8)">
       <g>
        <g>
         <g>
          <g>
           <path id="_173587560" class="fil2 str1" d="M136.63 180.568c-2.07283,3.01181 -5.25118,3.64252 -9.53386,1.89449 -0.50315,-3.72283 -1.79528,-10.8921 -6.09094,-11.8772"/>
           <path id="_26649888" class="fil2 str1" d="M139.886 194.158c-2.29016,2.63622 -5.32323,3.5185 -9.09567,2.65039 -0.0200787,-2.88898 -0.356693,-8.41299 -4.23307,-8.6752"/>
          </g>
          <path id="_26633168" class="fil2 str1" d="M169.685 201.413c13.5921,-0.0248031 11.4661,0.154724 12.4335,-13.3417"/>
          <g>
           <path id="_26828336" class="fil2 str1" d="M160.428 166.762c3.64252,-0.304724 5.7685,-2.75079 6.37795,-7.33583 -2.98346,-2.28543 -8.56535,-6.96496 -7.28858,-11.1839"/>
           <path id="_27407064" class="fil2 str1" d="M170.609 176.334c3.4252,-0.679134 5.69646,-2.87362 6.81614,-6.57992 -2.49921,-1.45039 -7.12677,-4.48583 -5.43071,-7.98071"/>
          </g>
          <path id="_26881896" class="fil2 str1" d="M162.457 205.38c-6.76772,11.7862 -5.55709,10.0299 -17.7531,4.17047"/>
          <path id="_26672448" class="fil8" d="M167.995 207.227c-6.33661,3.67559 -14.0197,2.27244 -17.1543,-3.13228l-0.108661 -0.196063 22.9429 -13.3098 0.115748 0.191339c3.13583,5.40472 0.539764,12.7713 -5.79567,16.4469z"/>
          <path id="_173484448" class="fil9" d="M152.173 207.333c-16.9972,-4.25551 -27.8539,-36.4169 -11.5441,-45.8799 16.4409,-9.5374 40.5685,13.3618 35.2748,32.7189 -11.1744,2.67047 -15.6555,4.99961 -23.7307,13.161z"/>
          <path id="_27393080" class="fil10" d="M152.748 204.494c-14.7673,-3.90827 -24.4996,-32.2535 -10.4646,-40.3961 14.1461,-8.20748 35.2819,12.1406 30.8917,29.0811 -9.65433,2.2311 -13.513,4.23071 -20.4272,11.315z"/>
          <polygon id="_26883072" class="fil8" points="160.406,201.731 166.033,198.13 158.956,192.485 "/>
          <path id="_25581704" class="fil2" d="M138.237 189.762l-0.305906 -0.483071c-5.66811,-9.30354 -3.66378,-20.6764 4.4752,-25.3984 8.14016,-4.72205 19.3358,-1.00748 25.0051,8.29724 0.506693,0.831496 0.949606,1.68425 1.33583,2.54291 -5.75669,-8.94921 -16.7043,-12.4571 -24.7016,-7.81772 -7.41024,4.29921 -9.7311,14.1142 -5.80866,22.8591z"/>
          <line id="_26560056" class="fil2 str1" style="mask:url(#id9)" x1="164.406" y1="201.991" x2="142.435" y2= "164.119" />
         </g>
         <g>
          <g>
           <path id="_26740896" class="fil2 str1" d="M230.467 146.29c2.17205,-2.94094 5.36929,-3.46654 9.59173,-1.57795 0.380315,3.73819 1.43268,10.9465 5.69409,12.0732"/>
           <path id="_26847528" class="fil2 str1" d="M227.663 132.6c2.37756,-2.55827 5.43661,-3.34016 9.17953,-2.34803 -0.0767717,2.88898 0.0767717,8.42008 3.94252,8.8122"/>
          </g>
          <path id="_172421360" class="fil2 str1" d="M198.122 124.361c-13.5862,-0.426378 -11.4555,-0.535039 -12.8693,12.9213"/>
          <g>
           <path id="_27648816" class="fil2 str1" d="M206.225 159.3c-3.65079,0.183071 -5.85591,2.55709 -6.61772,7.11969 2.90551,2.38346 8.33031,7.24488 6.91417,11.4189"/>
           <path id="_172469552" class="fil2 str1" d="M196.368 149.395c-3.44646,0.565748 -5.78976,2.68346 -7.0311,6.35079 2.44961,1.53307 6.97441,4.7185 5.1626,8.15669"/>
          </g>
          <path id="_26882576" class="fil2 str1" d="M205.478 120.637c7.15512,-11.5559 5.88661,-9.84094 17.8807,-3.57992"/>
          <path id="_27090112" class="fil8" d="M200.003 118.606c6.45472,-3.46417 14.087,-1.80591 17.0409,3.69921l0.102756 0.199606 -23.3717 12.5421 -0.109843 -0.196063c-2.95394,-5.50512 -0.115748,-12.7807 6.3378,-16.2449z"/>
          <path id="_27271544" class="fil9" d="M215.82 119.024c16.8461,4.81772 26.6315,37.3205 10.0169,46.2366 -16.748,8.98819 -40.1043,-14.6976 -34.1717,-33.8693 11.2571,-2.29843 15.8138,-4.47756 24.1547,-12.3673z"/>
          <path id="_172301872" class="fil12" d="M215.151 121.844c14.6303,4.39606 23.4177,33.0484 9.12047,40.7209 -14.4106,7.73268 -34.8602,-13.3039 -29.9114,-30.0898 9.72283,-1.90984 13.6465,-3.78071 20.7909,-10.6311z"/>
          <polygon id="_27001984" class="fil8" points="207.406,124.35 201.663,127.763 208.548,133.638 "/>
         </g>
        </g>
       </g>
      </g>
      <g style="clip-path:url(#id11)">
       <path class="fil2" d="M183.378 113.459c27.4276,0 49.6713,22.2437 49.6713,49.6713 0,27.4276 -22.2437,49.6713 -49.6713,49.6713 -27.4276,0 -49.6713,-22.2437 -49.6713,-49.6713 0,-27.4276 22.2437,-49.6713 49.6713,-49.6713z"/>
      </g>
     </g>
     <g style="clip-path:url(#id12)">
      <path class="fil2" d="M229.166 137.048l0.28937 0.49252c5.35748,9.4878 2.97638,20.7874 -5.31496,25.2366 -8.29134,4.44921 -19.3583,0.366142 -24.7146,-9.12165 -0.479528,-0.848031 -0.895276,-1.71378 -1.25079,-2.58543 5.45551,9.13465 16.2815,13.0039 24.4276,8.6315 7.54961,-4.05118 10.1941,-13.7835 6.56339,-22.6535z"/>
      <line id="_26358416" class="fil2 str0" style="mask:url(#id13)" x1="203.417" y1="123.958" x2="224.12" y2= "162.537" />
     </g>
    </g>
   </g>
  </g>
  <path class="fil2" d="M183.378 113.459c27.4276,0 49.6713,22.2437 49.6713,49.6713 0,27.4276 -22.2437,49.6713 -49.6713,49.6713 -27.4276,0 -49.6713,-22.2437 -49.6713,-49.6713 0,-27.4276 22.2437,-49.6713 49.6713,-49.6713z"/>
 </g>
</svg>
