<?xml version="1.0" encoding="UTF-8" standalone="no"?>
<!-- Created with Inkscape (http://www.inkscape.org/) -->
<svg
   xmlns:dc="http://purl.org/dc/elements/1.1/"
   xmlns:cc="http://web.resource.org/cc/"
   xmlns:rdf="http://www.w3.org/1999/02/22-rdf-syntax-ns#"
   xmlns:svg="http://www.w3.org/2000/svg"
   xmlns="http://www.w3.org/2000/svg"
   xmlns:sodipodi="http://inkscape.sourceforge.net/DTD/sodipodi-0.dtd"
   xmlns:inkscape="http://www.inkscape.org/namespaces/inkscape"
   width="400"
   height="400"
   id="svg2"
   sodipodi:version="0.32"
   inkscape:version="0.43"
   version="1.0"
   sodipodi:docbase="/home/mpt/hacking/lp/2006-09-calendar-removal/lib/canonical/launchpad/images"
   sodipodi:docname="sorry-were-closed.svg"
   inkscape:export-filename="/home/mpt/hacking/lp/2006-09-calendar-removal/lib/canonical/launchpad/images/sorry-were-closed.png"
   inkscape:export-xdpi="41"
   inkscape:export-ydpi="41">
  <defs
     id="defs4" />
  <sodipodi:namedview
     id="base"
     pagecolor="#ffffff"
     bordercolor="#666666"
     borderopacity="1.0"
     inkscape:pageopacity="0.0"
     inkscape:pageshadow="2"
     inkscape:zoom="2.8284271"
     inkscape:cx="127.83552"
     inkscape:cy="222.53081"
     inkscape:document-units="px"
     inkscape:current-layer="layer1"
     gridspacingx="20px"
     gridspacingy="20px"
     showgrid="true"
     gridempspacing="1"
     inkscape:grid-points="true"
     inkscape:guide-points="true"
     inkscape:window-width="1014"
     inkscape:window-height="689"
     inkscape:window-x="0"
     inkscape:window-y="25" />
  <metadata
     id="metadata7">
    <rdf:RDF>
      <cc:Work
         rdf:about="">
        <dc:format>image/svg+xml</dc:format>
        <dc:type
           rdf:resource="http://purl.org/dc/dcmitype/StillImage" />
      </cc:Work>
    </rdf:RDF>
  </metadata>
  <g
     inkscape:label="Layer 1"
     inkscape:groupmode="layer"
     id="layer1">
    <rect
       id="rect1327"
       width="400"
       height="318.67236"
       x="-44.829266"
       y="112.40096"
       ry="38.709679"
       style="fill:#ffffff;fill-opacity:1;stroke:#000000;stroke-width:2;stroke-miterlimit:4;stroke-dasharray:none;stroke-opacity:1"
       rx="38.709679"
       transform="matrix(0.984808,-0.173648,0.173648,0.984808,0,0)" />
    <rect
       style="fill:#000000;fill-opacity:1;stroke:none;stroke-width:2;stroke-miterlimit:4;stroke-dasharray:none;stroke-opacity:1"
       id="rect3075"
       width="361.14145"
       height="281.14145"
       x="-24.829268"
       y="131.07341"
       rx="20.97945"
       ry="19.851118"
       transform="matrix(0.984808,-0.173648,0.173648,0.984808,0,0)" />
    <flowRoot
       xml:space="preserve"
       id="flowRoot1307"
       style="font-size:40px;font-style:normal;font-variant:normal;font-weight:bold;font-stretch:normal;text-align:start;line-height:125%;writing-mode:lr-tb;text-anchor:start;fill:#cccccc;fill-opacity:1;stroke:none;stroke-opacity:1;font-family:DejaVu Sans Condensed"
       transform="matrix(0.984808,-0.173648,0.173648,0.984808,5.790553,21.7788)"><flowRegion
         id="flowRegion1309"><rect
           id="rect1311"
           width="134.98759"
           height="58.560795"
           x="185.60794"
           y="168.7345"
           style="font-size:40px;font-style:normal;font-variant:normal;font-weight:bold;font-stretch:normal;text-align:start;line-height:125%;writing-mode:lr-tb;text-anchor:start;fill:#cccccc;fill-opacity:1;stroke:none;stroke-opacity:1;font-family:DejaVu Sans Condensed" /></flowRegion><flowPara
         id="flowPara1313"
         style="font-size:40px;font-style:normal;font-variant:normal;font-weight:bold;font-stretch:normal;text-align:start;line-height:125%;writing-mode:lr-tb;text-anchor:start;fill:#cccccc;fill-opacity:1;stroke:none;stroke-opacity:1;font-family:DejaVu Sans Condensed">WE’RE</flowPara></flowRoot>    <flowRoot
       xml:space="preserve"
       id="flowRoot1315"><flowRegion
         id="flowRegion1317"><rect
           id="rect1319"
           width="354.34244"
           height="156.82382"
           x="24.813896"
           y="226.30273" /></flowRegion><flowPara
         id="flowPara1321"
         style="font-family:DejaVu Sans Condensed;font-weight:bold;font-style:normal;font-stretch:normal;font-variant:normal;font-size:144;text-anchor:start;text-align:start;writing-mode:lr;line-height:125%">CLOSED</flowPara></flowRoot>    <text
       xml:space="preserve"
       style="font-size:14.62565231px;font-style:normal;font-weight:normal;line-height:125%;fill:#c12517;fill-opacity:1;stroke:none;stroke-width:1px;stroke-linecap:butt;stroke-linejoin:miter;stroke-opacity:1;font-family:Bitstream Vera Sans"
       x="-11.33184"
       y="262.42349"
       id="text1323"
       sodipodi:linespacing="125%"
       transform="matrix(0.663918,-0.117067,0.257577,1.460792,0,0)"><tspan
         sodipodi:role="line"
         id="tspan1325"
         x="-11.33184"
         y="262.42349"
         style="font-size:121.88043213px;font-style:normal;font-variant:normal;font-weight:bold;font-stretch:normal;text-align:start;line-height:125%;writing-mode:lr-tb;text-anchor:start;fill:#c12517;fill-opacity:1;font-family:DejaVu Sans Condensed">CLOSED</tspan></text>
    <path
       style="fill:#ffffff;fill-opacity:1;fill-rule:nonzero;stroke:none;stroke-width:1px;stroke-linecap:butt;stroke-linejoin:miter;stroke-opacity:1"
       id="path5702"
       d="M 60.914054,153.64386 C 60.182158,150.56559 59.754216,145.57166 55.025922,145.25777 C 45.829448,145.57909 36.38455,154.05884 48.985479,143.90682 C 41.74005,149.35481 40.902767,154.90075 37.542578,160.85108 C 34.468265,166.008 33.700937,171.49889 34.320474,177.33949 C 34.730644,185.28248 39.636779,186.57431 46.781549,186.06869 C 70.110897,180.9762 76.661571,193.42052 77.366357,192.27448 C 79.4695,194.32523 78.75332,194.60245 80.744275,198.21973 C 80.494915,204.49834 77.240138,208.30409 73.492409,212.12391 C 66.222591,220.83854 60.981186,225.81721 50.602949,230.92748 C 45.36379,233.74804 39.725723,236.20653 33.911917,237.41437 C 31.481009,237.24841 29.796365,235.74524 27.860961,234.54194 L 36.553519,226.97099 C 38.309616,227.99098 39.744843,229.3303 41.973735,229.13641 C 47.656758,227.54163 53.217414,225.33646 58.355859,222.40101 C 62.648517,220.02081 73.857136,212.90442 57.461104,225.00276 C 57.582054,224.48482 49.916253,232.80954 63.837586,218.32486 C 66.644053,213.82107 68.528876,210.09051 69.315718,205.625 C 70.273917,203.81577 69.334799,202.30355 68.750356,199.75247 C 65.722108,197.19583 63.797271,195.90408 59.600334,194.55968 C 54.501598,194.30598 45.762822,193.77507 38.810284,194.18077 C 31.256502,194.57487 25.616895,192.59539 25.082453,184.2574 C 24.284505,178.23617 24.832066,172.44149 28.038689,167.09928 C 31.226559,161.03574 35.461457,155.72475 39.197617,150.01023 C 47.768981,142.51306 52.212326,137.57611 63.141664,137.02464 C 69.302201,137.38738 70.962132,140.95949 70.322323,146.91746 C 69.74683,155.77652 63.998377,161.06374 55.341845,164.39954 C 55.341845,164.39954 62.290507,160.10449 60.914054,153.64386 z "
       sodipodi:nodetypes="cccccccccccccccccccccccccccc" />
    <path
       style="fill:#ffffff;fill-opacity:1;fill-rule:nonzero;stroke:none;stroke-width:1px;stroke-linecap:butt;stroke-linejoin:miter;stroke-opacity:1"
       id="path5704"
       d="M 67.422456,239.00132 C 71.510761,232.9541 81.065522,226.1852 88.097578,221.35522 C 94.106774,217.03421 100.5324,213.31955 106.84415,209.47518 C 110.73403,206.6458 116.42131,204.04905 121.05832,202.91964 C 128.05307,200.51538 133.61108,199.45362 141.03979,197.22697 C 147.64332,196.01867 153.27011,194.1519 159.8391,192.77099 C 165.29343,191.74174 169.72852,192.57639 175.07228,194.04821 C 176.36658,194.95057 176.43812,195.82027 176.79652,197.12177 C 176.87227,198.64214 176.61526,199.72091 173.55575,201.52971 C 170.20245,201.62036 169.53394,200.35377 164.58737,200.62882 C 159.49744,200.12695 153.09993,202.47878 148.01435,203.53831 C 141.45185,204.97613 135.38921,206.80667 128.82822,208.2417 C 122.50613,210.31574 117.02498,212.78921 110.55254,214.298 C 105.9933,215.65881 101.30029,216.95709 97.451196,219.8736 C 90.939145,222.86357 85.462026,226.43173 78.737713,230.47466 L 67.422456,239.00132 z "
       sodipodi:nodetypes="cccccccccccccccc" />
    <path
       style="fill:#ffffff;fill-opacity:1;stroke:none;stroke-width:2;stroke-miterlimit:4;stroke-dasharray:none;stroke-opacity:1"
       d="M 105.77081,166.04881 C 97.899846,166.58677 92.116962,172.95622 89.008564,179.72677 C 85.695221,185.64787 85.438291,192.70114 87.425352,199.09014 C 87.829282,204.75303 94.747131,207.66659 99.604867,205.46274 C 105.18592,205.12565 109.87299,199.19121 109.77983,193.91683 C 112.15311,188.65497 119.62849,187.50289 119.91113,180.7375 C 121.80392,175.72904 121.09491,169.67665 126.9121,168.17364 C 128.39519,165.63358 132.63132,165.24978 130.21023,169.0656 C 126.68243,173.54007 127.05283,179.3481 127.24452,184.66016 C 127.1374,191.4042 135.84001,191.31221 139.17471,187.17554 C 142.84002,183.35488 146.94522,179.35344 146.39768,173.5534 C 147.16392,168.44246 148.21297,163.04929 150.6048,158.46802 C 154.16494,157.8077 155.99315,153.77767 158.72373,152.53112 C 159.29468,157.691 154.41541,162.85384 154.82513,168.62912 C 154.08215,174.03643 156.62187,180.39293 163.05213,178.05545 C 168.40432,177.38359 169.94278,170.28983 174.20202,168.76855 C 177.85373,173.1968 184.14932,168.56717 186.21758,164.57762 C 187.79746,163.07132 191.84736,156.59565 191.14136,162.51751 C 189.41215,167.30027 185.8765,171.48369 185.75929,176.80174 C 186.46176,182.79769 182.4402,187.5624 181.4945,193.22425 C 181.41804,198.51684 178.73122,205.62425 183.65647,209.47899 C 190.48881,212.37479 188.64455,202.37026 189.50196,198.3895 C 190.86182,192.42201 188.75255,185.93629 191.91537,180.35875 C 194.25284,173.90775 198.19711,168.10936 199.91903,161.42372 C 203.75537,157.20391 205.33895,151.63102 207.59636,146.5802 C 210.59625,144.70924 210.59313,135.73628 206.47123,140.49148 C 206.24439,146.11428 203.25457,150.1092 199.94601,154.32251 C 195.93214,160.09747 198.25339,151.60226 198.71246,149.12835 C 199.59859,144.48235 200.49387,139.83729 201.26032,135.16966 C 198.6975,133.09738 193.91726,130.492 195.02106,136.08766 C 192.36128,140.57084 193.5968,146.25564 190.97204,150.64809 C 187.02449,153.07985 186.88157,162.31533 181.14917,158.94315 C 179.4941,153.80427 181.91672,148.82702 183.40939,143.9692 C 186.44473,140.26453 182.07677,131.38946 178.63857,134.81201 C 178.63893,140.82226 174.45484,145.86214 174.33426,151.86837 C 172.72618,156.57705 173.20316,162.01755 168.76232,165.1134 C 166.52245,168.71617 162.36904,168.43983 162.48259,163.67123 C 160.45136,158.21481 165.23007,154.33757 167.04561,149.72577 C 167.95424,146.52878 164.20772,145.01265 162.45371,142.90185 C 157.51072,141.74841 155.19077,150.86776 150.43425,147.74718 C 150.49914,141.03223 143.10779,146.69719 144.35878,151.13197 C 143.15535,156.89539 147.43091,162.29347 145.67408,167.98781 C 144.06822,172.06463 141.81118,181.02774 135.98879,178.17804 C 133.65714,173.01053 137.03826,167.20327 137.38195,161.84819 C 139.92682,156.07077 132.69553,151.32154 129.07776,157.12618 C 126.35448,160.86901 122.41815,159.10516 121.1647,155.35589 C 117.27067,155.95227 114.88587,162.25709 115.3087,166.13247 C 116.24715,169.54415 121.87674,170.46279 119.18548,175.1226 C 116.78744,177.73989 116.27635,185.50638 111.88673,184.03244 C 110.75175,180.42762 111.78642,172.25612 105.86213,173.43335 C 101.5053,177.57698 104.6522,183.54511 106.03031,188.12359 C 107.63668,194.49944 97.691716,198.69612 95.897685,191.5668 C 93.991674,184.61217 96.040576,176.90624 101.12107,171.78879 C 102.45903,169.71601 105.73508,168.7021 105.77081,166.04881 z "
       id="path7630" />
    <path
       style="fill:#ffffff;fill-opacity:1;stroke:none;stroke-width:2;stroke-miterlimit:4;stroke-dasharray:none;stroke-opacity:1"
       d="M -159.33975,266.88072 C -159.33975,267.80668 -159.33975,270.94835 -159.33975,272.93159"
       id="path7634" />
  </g>
</svg>
