<?xml version="1.0" encoding="UTF-8"?>
<!DOCTYPE svg PUBLIC "-//W3C//DTD SVG 1.1//EN" "http://www.w3.org/Graphics/SVG/1.1/DTD/svg11.dtd">
<!-- Creator: CorelDRAW -->
<svg xmlns="http://www.w3.org/2000/svg" xml:space="preserve" width="2550px" height="3300px" style="shape-rendering:geometricPrecision; text-rendering:geometricPrecision; image-rendering:optimizeQuality; fill-rule:evenodd; clip-rule:evenodd"
viewBox="0 0 2550 3300">
 <defs>
  <style type="text/css">
   <![CDATA[
    .fil118 {fill:white}
    .fil115 {fill:#9CA1A7}
    .fil116 {fill:#E2822E}
    .fil0 {fill:white}
    .fil120 {fill:#1F1A17;fill-rule:nonzero}
    .fil119 {fill:#E2822E;fill-rule:nonzero}
    .fil1 {fill:#FDFDFD;fill-opacity:0.007843}
    .fil2 {fill:#FCFCFD;fill-opacity:0.015686}
    .fil3 {fill:#F9FAFB;fill-opacity:0.027451}
    .fil4 {fill:#F8F8FA;fill-opacity:0.035294}
    .fil5 {fill:#F7F7F9;fill-opacity:0.043137}
    .fil6 {fill:#F6F7F8;fill-opacity:0.050980}
    .fil7 {fill:#F5F6F7;fill-opacity:0.062745}
    .fil8 {fill:#F5F6F7;fill-opacity:0.070588}
    .fil9 {fill:#F4F5F6;fill-opacity:0.078431}
    .fil10 {fill:#F3F4F5;fill-opacity:0.086275}
    .fil11 {fill:#F4F5F6;fill-opacity:0.094118}
    .fil12 {fill:#F2F2F4;fill-opacity:0.105882}
    .fil13 {fill:#F1F2F3;fill-opacity:0.113725}
    .fil14 {fill:#F0F2F3;fill-opacity:0.121569}
    .fil15 {fill:#EFF1F2;fill-opacity:0.129412}
    .fil16 {fill:#EDEFF1;fill-opacity:0.137255}
    .fil17 {fill:#EEEFF1;fill-opacity:0.149020}
    .fil18 {fill:#EDEEF0;fill-opacity:0.156863}
    .fil19 {fill:#EDEEF0;fill-opacity:0.164706}
    .fil20 {fill:#EAECEE;fill-opacity:0.172549}
    .fil21 {fill:#E9EBEE;fill-opacity:0.184314}
    .fil22 {fill:#E8EAED;fill-opacity:0.192157}
    .fil23 {fill:#E9EAED;fill-opacity:0.200000}
    .fil24 {fill:#E8E9EC;fill-opacity:0.207843}
    .fil25 {fill:#E6E8EB;fill-opacity:0.215686}
    .fil26 {fill:#E5E8EA;fill-opacity:0.227451}
    .fil27 {fill:#E5E7EA;fill-opacity:0.235294}
    .fil28 {fill:#E4E6E9;fill-opacity:0.243137}
    .fil29 {fill:#E3E5E8;fill-opacity:0.250980}
    .fil30 {fill:#E3E5E8;fill-opacity:0.262745}
    .fil31 {fill:#E2E4E7;fill-opacity:0.270588}
    .fil32 {fill:#E1E3E6;fill-opacity:0.278431}
    .fil33 {fill:#E0E2E5;fill-opacity:0.286275}
    .fil34 {fill:#DEE0E4;fill-opacity:0.294118}
    .fil35 {fill:#DDE0E3;fill-opacity:0.305882}
    .fil36 {fill:#DEE0E3;fill-opacity:0.313725}
    .fil37 {fill:#DDDFE2;fill-opacity:0.321569}
    .fil38 {fill:#DCDEE1;fill-opacity:0.329412}
    .fil39 {fill:#D9DCE0;fill-opacity:0.337255}
    .fil40 {fill:#D9DDE0;fill-opacity:0.349020}
    .fil41 {fill:#D9DCDF;fill-opacity:0.356863}
    .fil42 {fill:#D9DCDF;fill-opacity:0.364706}
    .fil43 {fill:#D8DADE;fill-opacity:0.372549}
    .fil44 {fill:#D6D9DD;fill-opacity:0.384314}
    .fil45 {fill:#D5D8DC;fill-opacity:0.392157}
    .fil46 {fill:#D5D8DC;fill-opacity:0.400000}
    .fil47 {fill:#D5D8DB;fill-opacity:0.407843}
    .fil48 {fill:#D3D6DA;fill-opacity:0.415686}
    .fil49 {fill:#D2D5D9;fill-opacity:0.427451}
    .fil50 {fill:#D1D3D8;fill-opacity:0.435294}
    .fil51 {fill:#D0D4D7;fill-opacity:0.443137}
    .fil52 {fill:#CFD3D6;fill-opacity:0.450980}
    .fil53 {fill:#CFD1D6;fill-opacity:0.462745}
    .fil54 {fill:#CED0D5;fill-opacity:0.470588}
    .fil55 {fill:#CDCFD4;fill-opacity:0.478431}
    .fil56 {fill:#CCD0D4;fill-opacity:0.486275}
    .fil57 {fill:#CBCED3;fill-opacity:0.494118}
    .fil58 {fill:#CACDD2;fill-opacity:0.505882}
    .fil59 {fill:#CACDD1;fill-opacity:0.513725}
    .fil60 {fill:#C9CBD0;fill-opacity:0.521569}
    .fil61 {fill:#C8CCD0;fill-opacity:0.529412}
    .fil62 {fill:#C6CACF;fill-opacity:0.537255}
    .fil63 {fill:#C5C9CE;fill-opacity:0.549020}
    .fil64 {fill:#C4C8CD;fill-opacity:0.556863}
    .fil65 {fill:#C3C7CC;fill-opacity:0.564706}
    .fil66 {fill:#C3C6CB;fill-opacity:0.572549}
    .fil67 {fill:#C2C6CA;fill-opacity:0.584314}
    .fil68 {fill:#C1C5CA;fill-opacity:0.592157}
    .fil69 {fill:#C0C4C9;fill-opacity:0.600000}
    .fil70 {fill:#C0C3C8;fill-opacity:0.607843}
    .fil71 {fill:#C0C3C8;fill-opacity:0.615686}
    .fil72 {fill:#BFC3C7;fill-opacity:0.627451}
    .fil73 {fill:#BEC2C7;fill-opacity:0.635294}
    .fil74 {fill:#BDC1C6;fill-opacity:0.643137}
    .fil75 {fill:#BCC0C5;fill-opacity:0.650980}
    .fil76 {fill:#BBBFC4;fill-opacity:0.662745}
    .fil77 {fill:#BBBEC3;fill-opacity:0.670588}
    .fil78 {fill:#BABEC3;fill-opacity:0.678431}
    .fil79 {fill:#B9BDC2;fill-opacity:0.686275}
    .fil80 {fill:#B8BCC1;fill-opacity:0.694118}
    .fil81 {fill:#B7BBC0;fill-opacity:0.705882}
    .fil82 {fill:#B5B9BF;fill-opacity:0.713725}
    .fil83 {fill:#B6BABF;fill-opacity:0.721569}
    .fil84 {fill:#B5B9BE;fill-opacity:0.729412}
    .fil85 {fill:#B4B8BD;fill-opacity:0.737255}
    .fil86 {fill:#B3B7BC;fill-opacity:0.749020}
    .fil87 {fill:#B2B6BC;fill-opacity:0.756863}
    .fil88 {fill:#B1B5BB;fill-opacity:0.764706}
    .fil89 {fill:#B1B5BA;fill-opacity:0.772549}
    .fil90 {fill:#B0B4B9;fill-opacity:0.784314}
    .fil91 {fill:#AFB3B8;fill-opacity:0.792157}
    .fil92 {fill:#AEB2B8;fill-opacity:0.800000}
    .fil93 {fill:#ADB1B7;fill-opacity:0.807843}
    .fil94 {fill:#ADB1B6;fill-opacity:0.815686}
    .fil95 {fill:#ACB0B5;fill-opacity:0.827451}
    .fil96 {fill:#ABAFB4;fill-opacity:0.835294}
    .fil97 {fill:#AAAEB4;fill-opacity:0.843137}
    .fil98 {fill:#A9ADB3;fill-opacity:0.850980}
    .fil99 {fill:#A8ADB2;fill-opacity:0.862745}
    .fil100 {fill:#A8ACB1;fill-opacity:0.870588}
    .fil101 {fill:#A7ABB1;fill-opacity:0.878431}
    .fil102 {fill:#A6AAB0;fill-opacity:0.886275}
    .fil103 {fill:#A5A9AF;fill-opacity:0.894118}
    .fil104 {fill:#A4A9AF;fill-opacity:0.905882}
    .fil105 {fill:#A4A8AE;fill-opacity:0.913725}
    .fil106 {fill:#A3A7AD;fill-opacity:0.921569}
    .fil107 {fill:#A2A6AD;fill-opacity:0.929412}
    .fil108 {fill:#A0A5AC;fill-opacity:0.937255}
    .fil109 {fill:#A1A5AB;fill-opacity:0.949020}
    .fil110 {fill:#A0A4AA;fill-opacity:0.956863}
    .fil111 {fill:#9FA3AA;fill-opacity:0.964706}
    .fil112 {fill:#9EA2A9;fill-opacity:0.972549}
    .fil113 {fill:#9DA3A8;fill-opacity:0.984314}
    .fil114 {fill:#9DA2A7;fill-opacity:0.992157}
    .fil117 {fill:url(#id0)}
   ]]>
  </style>
  <linearGradient id="id0" gradientUnits="userSpaceOnUse" x1="816.569" y1="1238.71" x2="816.569" y2="1130.24">
   <stop offset="0" style="stop-color:#ECC100"/>
   <stop offset="0.101961" style="stop-color:#EEBC00"/>
   <stop offset="0.258824" style="stop-color:#F0C100"/>
   <stop offset="0.431373" style="stop-color:#ECB200"/>
   <stop offset="0.619608" style="stop-color:#EAA914"/>
   <stop offset="1" style="stop-color:#EAA818"/>
  </linearGradient>
 </defs>
 <g id="Capa_x0020_1">
  <metadata id="CorelCorpID_0Corel-Layer"/>
  <g id="_147892000">
   <path id="_27505024" class="fil0" d="M887.031 1243.74c0,9.23386 -32.0173,16.7031 -71.5146,16.7031 -39.5031,0 -71.5346,-7.46929 -71.5346,-16.7031 0,-9.21969 32.0315,-16.6937 71.5346,-16.6937 39.4984,0 71.5146,7.47283 71.5146,16.6937z"/>
   <path id="_148108264" class="fil1" d="M815.518 1260.31c-39.1937,0 -70.963,-7.40906 -70.963,-16.565 0,-9.14409 31.7764,-16.5579 70.963,-16.5579 39.1831,0 70.9417,7.4126 70.9417,16.5579 0,9.15591 -31.7587,16.565 -70.9417,16.565z"/>
   <path id="_148106936" class="fil2" d="M815.52 1260.17c-38.8736,0 -70.3949,-7.34528 -70.3949,-16.428 0,-9.0685 31.5213,-16.4185 70.3949,-16.4185 38.8665,0 70.3724,7.35 70.3724,16.4185 0,9.08031 -31.5118,16.428 -70.3724,16.428z"/>
   <path id="_148113688" class="fil3" d="M815.518 1260.03c-38.5583,0 -69.822,-7.28504 -69.822,-16.2898 0,-8.99173 31.2638,-16.2803 69.822,-16.2803 38.5488,0 69.802,7.28858 69.802,16.2803 0,9.00472 -31.2508,16.2898 -69.802,16.2898z"/>
   <path id="_148123432" class="fil4" d="M815.518 1259.9c-38.2417,0 -69.2528,-7.2248 -69.2528,-16.1539 0,-8.91378 31.0087,-16.1457 69.2528,-16.1457 38.2335,0 69.228,7.22717 69.228,16.1457 0,8.92913 -30.9945,16.1539 -69.228,16.1539z"/>
   <path id="_148128696" class="fil5" d="M815.518 1259.76c-37.9264,0 -68.6823,-7.1563 -68.6823,-16.011 0,-8.84173 30.7559,-16.011 68.6823,-16.011 37.9193,0 68.6587,7.16929 68.6587,16.011 0,8.85472 -30.7394,16.011 -68.6587,16.011z"/>
   <path id="_148129824" class="fil6" d="M815.518 1259.62c-37.6122,0 -68.1071,-7.09961 -68.1071,-15.8764 0,-8.76732 30.4949,-15.8717 68.1071,-15.8717 37.6039,0 68.0882,7.10787 68.0882,15.8717 0,8.77677 -30.4843,15.8764 -68.0882,15.8764z"/>
   <path id="_148136344" class="fil7" d="M815.518 1259.48c-37.2945,0 -67.5402,-7.03819 -67.5402,-15.7394 0,-8.68937 30.2457,-15.7323 67.5402,-15.7323 37.2886,0 67.5165,7.04646 67.5165,15.7323 0,8.70118 -30.228,15.7394 -67.5165,15.7394z"/>
   <path id="_148145008" class="fil8" d="M815.52 1259.35c-36.9803,0 -66.965,-6.9815 -66.965,-15.6059 0,-8.61496 29.9882,-15.5965 66.965,-15.5965 36.972,0 66.9472,6.9815 66.9472,15.5965 -0.0023622,8.62441 -29.9752,15.6059 -66.9472,15.6059z"/>
   <path id="_148152168" class="fil9" d="M815.518 1259.21c-36.6661,0 -66.3945,-6.91535 -66.3945,-15.4654 0,-8.53819 29.7283,-15.4571 66.3945,-15.4571 36.6579,0 66.3756,6.9189 66.3756,15.4571 0,8.55 -29.7177,15.4654 -66.3756,15.4654z"/>
   <path id="_148152352" class="fil10" d="M815.518 1259.07c-36.3508,0 -65.8228,-6.85512 -65.8228,-15.3272 0,-8.46024 29.472,-15.3177 65.8228,-15.3177 36.3449,0 65.8051,6.85748 65.8051,15.3177 0,8.47205 -29.4602,15.3272 -65.8051,15.3272z"/>
   <path id="_148161056" class="fil11" d="M815.518 1258.94c-36.0354,0 -65.2512,-6.79134 -65.2512,-15.1902 0,-8.38346 29.2157,-15.1843 65.2512,-15.1843 36.0272,0 65.2335,6.80079 65.2335,15.1843 0,8.39882 -29.2063,15.1902 -65.2335,15.1902z"/>
   <path id="_148166384" class="fil12" d="M815.518 1258.8c-35.7224,0 -64.6831,-6.72992 -64.6831,-15.052 0,-8.31142 28.9606,-15.0425 64.6831,-15.0425 35.713,0 64.6594,6.73583 64.6594,15.0425 0.0023622,8.32323 -28.9465,15.052 -64.6594,15.052z"/>
   <path id="_148167576" class="fil13" d="M815.518 1258.66c-35.4024,0 -64.1102,-6.6685 -64.1102,-14.9138 0,-8.23346 28.7079,-14.9067 64.1102,-14.9067 35.3953,0 64.089,6.67323 64.089,14.9067 0,8.24882 -28.6937,14.9138 -64.089,14.9138z"/>
   <path id="_148173488" class="fil14" d="M815.518 1258.52c-35.0917,0 -63.5386,-6.60591 -63.5386,-14.7768 0,-8.15906 28.4504,-14.772 63.5386,-14.772 35.0811,0 63.5197,6.61299 63.5197,14.772 0,8.16732 -28.4386,14.7768 -63.5197,14.7768z"/>
   <path id="_148182608" class="fil15" d="M815.518 1258.38c-34.7728,0 -62.9693,-6.54567 -62.9693,-14.6398 0,-8.08346 28.1965,-14.6362 62.9693,-14.6362 34.7622,0 62.9469,6.55157 62.9469,14.6362 0,8.09409 -28.1846,14.6398 -62.9469,14.6398z"/>
   <path id="_148183688" class="fil16" d="M815.518 1258.25c-34.4551,0 -62.3965,-6.48307 -62.3965,-14.5016 0,-8.00433 27.9413,-14.4945 62.3965,-14.4945 34.4539,0 62.3764,6.49134 62.3764,14.4945 0.0011811,8.02205 -27.9224,14.5016 -62.3764,14.5016z"/>
   <path id="_148189808" class="fil17" d="M815.518 1258.11c-34.1409,0 -61.8236,-6.42165 -61.8236,-14.3669 0,-7.92992 27.6827,-14.3575 61.8236,-14.3575 34.135,0 61.8047,6.42756 61.8047,14.3575 0,7.94173 -27.6697,14.3669 -61.8047,14.3669z"/>
   <path id="_148198576" class="fil18" d="M815.518 1257.97c-33.8232,0 -61.2543,-6.36378 -61.2543,-14.2264 0,-7.85669 27.4311,-14.224 61.2543,-14.224 33.8197,0 61.2343,6.36732 61.2343,14.224 0,7.86378 -27.411,14.2264 -61.2343,14.2264z"/>
   <path id="_148199304" class="fil19" d="M815.52 1257.83c-33.5126,0 -60.6791,-6.29764 -60.6791,-14.0894 0,-7.77756 27.1724,-14.0858 60.6791,-14.0858 33.5043,0 60.665,6.30827 60.665,14.0858 0,7.79173 -27.1642,14.0894 -60.665,14.0894z"/>
   <path id="_148205912" class="fil20" d="M815.518 1257.7c-33.1925,0 -60.111,-6.23976 -60.111,-13.9535 0,-7.70079 26.9185,-13.9465 60.111,-13.9465 33.189,0 60.0933,6.24567 60.0933,13.9465 0,7.71378 -26.9043,13.9535 -60.0933,13.9535z"/>
   <path id="_148214576" class="fil21" d="M815.518 1257.56c-32.8783,0 -59.5394,-6.17362 -59.5394,-13.8142 0,-7.62638 26.6634,-13.8083 59.5394,-13.8083 32.8677,0 59.5228,6.18189 59.5228,13.8083 0,7.64055 -26.6551,13.8142 -59.5228,13.8142z"/>
   <path id="_148221744" class="fil22" d="M815.518 1257.42c-32.5642,0 -58.9701,-6.11457 -58.9701,-13.6748 0,-7.54961 26.4059,-13.6713 58.9701,-13.6713 32.5547,0 58.9476,6.11929 58.9476,13.6713 0.0023622,7.56024 -26.3929,13.6748 -58.9476,13.6748z"/>
   <path id="_148221984" class="fil23" d="M815.518 1257.28c-32.2524,0 -58.3984,-6.05433 -58.3984,-13.5402 0,-7.47283 26.152,-13.5331 58.3984,-13.5331 32.2346,0 58.3783,6.05433 58.3783,13.5331 0,7.48583 -26.1437,13.5402 -58.3783,13.5402z"/>
   <path id="_148230712" class="fil24" d="M815.52 1257.15c-31.9323,0 -57.8256,-5.99055 -57.8256,-13.402 0,-7.39724 25.8933,-13.3961 57.8256,-13.3961 31.9228,0 57.8079,5.99882 57.8079,13.3961 0,7.41142 -25.885,13.402 -57.8079,13.402z"/>
   <path id="_148235920" class="fil25" d="M815.518 1257.01c-31.6146,0 -57.2551,-5.93268 -57.2551,-13.265 0,-7.32283 25.6406,-13.2591 57.2551,-13.2591 31.6087,0 57.2386,5.93622 57.2386,13.2591 0.0023622,7.33228 -25.6264,13.265 -57.2386,13.265z"/>
   <path id="_148237032" class="fil26" d="M815.518 1256.87c-31.3004,0 -56.6835,-5.86654 -56.6835,-13.1268 0,-7.24606 25.3819,-13.1197 56.6835,-13.1197 31.2933,0 56.6693,5.87362 56.6693,13.1197 0,7.26024 -25.376,13.1268 -56.6693,13.1268z"/>
   <path id="_148243008" class="fil27" d="M815.518 1256.73c-30.985,0 -56.1118,-5.80512 -56.1118,-12.9886 0,-7.16929 25.1268,-12.9862 56.1118,-12.9862 30.9791,0 56.0976,5.81457 56.0976,12.9862 0,7.18465 -25.1185,12.9886 -56.0976,12.9886z"/>
   <path id="_148251904" class="fil28" d="M815.518 1256.6c-30.672,0 -55.5449,-5.7437 -55.5449,-12.848 0,-7.09724 24.8728,-12.848 55.5449,-12.848 30.6638,0 55.5236,5.75197 55.5236,12.848 0.00354331,7.10433 -24.8598,12.848 -55.5236,12.848z"/>
   <path id="_148252720" class="fil29" d="M815.518 1256.46c-30.3555,0 -54.9709,-5.68465 -54.9709,-12.7169 0,-7.01929 24.6154,-12.7075 54.9709,-12.7075 30.3472,0 54.952,5.68819 54.952,12.7075 0,7.02992 -24.6047,12.7169 -54.952,12.7169z"/>
   <path id="_148259240" class="fil30" d="M815.518 1256.32c-30.039,0 -54.3992,-5.62087 -54.3992,-12.5752 0,-6.94606 24.3602,-12.5705 54.3992,-12.5705 30.0319,0 54.3791,5.62441 54.3791,12.5705 0,6.95433 -24.3472,12.5752 -54.3791,12.5752z"/>
   <path id="_148267864" class="fil31" d="M815.518 1256.19c-29.7224,0 -53.8299,-5.56063 -53.8299,-12.4406 0,-6.86575 24.1098,-12.4346 53.8299,-12.4346 29.7177,0 53.8098,5.5689 53.8098,12.4346 0,6.87992 -24.0921,12.4406 -53.8098,12.4406z"/>
   <path id="_148274976" class="fil32" d="M815.518 1256.05c-29.4071,0 -53.2571,-5.50039 -53.2571,-12.3035 0,-6.79016 23.85,-12.2965 53.2571,-12.2965 29.4,0 53.2394,5.5063 53.2394,12.2965 0,6.80315 -23.8394,12.3035 -53.2394,12.3035z"/>
   <path id="_148275256" class="fil33" d="M815.518 1255.91c-29.0929,0 -52.6843,-5.4378 -52.6843,-12.1642 0,-6.71575 23.5913,-12.1606 52.6843,-12.1606 29.0858,0 52.6701,5.44488 52.6701,12.1606 0,6.72638 -23.5819,12.1642 -52.6701,12.1642z"/>
   <path id="_148283840" class="fil34" d="M815.518 1255.77c-28.7764,0 -52.1126,-5.37638 -52.1126,-12.0272 0,-6.6378 23.3362,-12.0201 52.1126,-12.0201 28.7669,0 52.0984,5.38228 52.0984,12.0201 0,6.65079 -23.3315,12.0272 -52.0984,12.0272z"/>
   <path id="_148289128" class="fil35" d="M815.518 1255.64c-28.461,0 -51.5445,-5.3185 -51.5445,-11.8913 0,-6.56457 23.0835,-11.8831 51.5445,-11.8831 28.4539,0 51.5268,5.31969 51.5268,11.8831 0,6.57283 -23.0728,11.8913 -51.5268,11.8913z"/>
   <path id="_148290256" class="fil36" d="M815.518 1255.5c-28.148,0 -50.9717,-5.25236 -50.9717,-11.7508 0,-6.48661 22.8236,-11.7484 50.9717,-11.7484 28.1409,0 50.9516,5.26181 50.9516,11.7484 0,6.49843 -22.8094,11.7508 -50.9516,11.7508z"/>
   <path id="_148296264" class="fil37" d="M815.518 1255.36c-27.8291,0 -50.4047,-5.1874 -50.4047,-11.6138 0,-6.40984 22.5697,-11.6079 50.4047,-11.6079 27.828,0 50.3882,5.19803 50.3882,11.6079 0,6.42165 -22.5602,11.6138 -50.3882,11.6138z"/>
   <path id="_148305096" class="fil38" d="M815.518 1255.22c-27.515,0 -49.8283,-5.13071 -49.8283,-11.478 0,-6.33543 22.3157,-11.4744 49.8283,-11.4744 27.5067,0 49.8165,5.13898 49.8165,11.4744 0,6.34724 -22.3075,11.478 -49.8165,11.478z"/>
   <path id="_148305848" class="fil39" d="M815.518 1255.08c-27.1996,0 -49.2567,-5.0622 -49.2567,-11.3374 0,-6.25984 22.0571,-11.3374 49.2567,-11.3374 27.1949,0 49.2402,5.07402 49.2402,11.3374 0,6.2752 -22.0453,11.3374 -49.2402,11.3374z"/>
   <path id="_148312400" class="fil40" d="M815.518 1254.95c-26.8843,0 -48.6886,-5.00669 -48.6886,-11.2016 0,-6.18307 21.8043,-11.1957 48.6886,-11.1957 26.8724,0 48.672,5.01496 48.672,11.1957 0,6.19488 -21.7961,11.2016 -48.672,11.2016z"/>
   <path id="_148321160" class="fil41" d="M815.518 1254.81c-26.5677,0 -48.1169,-4.94882 -48.1169,-11.0657 0,-6.10748 21.5492,-11.0587 48.1169,-11.0587 26.5618,0 48.0992,4.95118 48.0992,11.0587 0,6.11693 -21.5374,11.0657 -48.0992,11.0657z"/>
   <path id="_148328320" class="fil42" d="M815.518 1254.67c-26.2512,0 -47.5476,-4.88268 -47.5476,-10.9228 0,-6.03307 21.2906,-10.9228 47.5476,-10.9228 26.2488,0 47.5276,4.88976 47.5276,10.9228 0,6.04016 -21.2764,10.9228 -47.5276,10.9228z"/>
   <path id="_148328512" class="fil43" d="M815.518 1254.54c-25.9406,0 -46.9724,-4.82126 -46.9724,-10.7894 0,-5.95394 21.0319,-10.7835 46.9724,-10.7835 25.9323,0 46.9571,4.82953 46.9571,10.7835 0.0011811,5.96811 -21.0248,10.7894 -46.9571,10.7894z"/>
   <path id="_148337192" class="fil44" d="M815.518 1254.4c-25.6217,0 -46.3996,-4.75984 -46.3996,-10.6512 0,-5.88071 20.7803,-10.6465 46.3996,-10.6465 25.6181,0 46.3843,4.76929 46.3843,10.6465 0,5.89134 -20.7661,10.6512 -46.3843,10.6512z"/>
   <path id="_148342576" class="fil45" d="M815.518 1254.26c-25.3051,0 -45.8315,-4.69843 -45.8315,-10.5142 0,-5.80394 20.5264,-10.5094 45.8315,-10.5094 25.3016,0 45.8173,4.70551 45.8173,10.5094 0.0011811,5.81575 -20.5157,10.5142 -45.8173,10.5142z"/>
   <path id="_148343696" class="fil46" d="M815.518 1254.12c-24.9898,0 -45.261,-4.63701 -45.261,-10.3772 0,-5.72953 20.2713,-10.3713 45.261,-10.3713 24.9862,0 45.2433,4.64646 45.2433,10.3713 0,5.74016 -20.2571,10.3772 -45.2433,10.3772z"/>
   <path id="_148349664" class="fil47" d="M815.518 1253.98c-24.6768,0 -44.6894,-4.57559 -44.6894,-10.239 0,-5.65276 20.0126,-10.2366 44.6894,-10.2366 24.6697,0 44.6764,4.58386 44.6764,10.2366 0,5.66339 -20.0043,10.239 -44.6764,10.239z"/>
   <path id="_148359080" class="fil48" d="M815.518 1253.85c-24.3591,0 -44.1154,-4.51181 -44.1154,-10.0996 0,-5.58071 19.7563,-10.0972 44.1154,-10.0972 24.3579,0 44.1035,4.52244 44.1035,10.0972 0,5.5878 -19.7457,10.0996 -44.1035,10.0996z"/>
   <path id="_148363808" class="fil49" d="M815.518 1253.71c-24.0472,0 -43.5461,-4.45276 -43.5461,-9.96732 0,-5.49803 19.4988,-9.96378 43.5461,-9.96378 24.039,0 43.5319,4.46102 43.5319,9.96378 0,5.5122 -19.4929,9.96732 -43.5319,9.96732z"/>
   <path id="_148366392" class="fil50" d="M815.518 1253.57c-23.7283,0 -42.9756,-4.3937 -42.9756,-9.82913 0,-5.42008 19.2472,-9.82323 42.9756,-9.82323 23.7248,0 42.9591,4.40315 42.9591,9.82323 0,5.43543 -19.2343,9.82913 -42.9591,9.82913z"/>
   <path id="_148375248" class="fil51" d="M815.518 1253.43c-23.413,0 -42.4016,-4.32756 -42.4016,-9.6874 0,-5.34803 18.9886,-9.68504 42.4016,-9.68504 23.4059,0 42.3874,4.33701 42.3874,9.68504 0,5.36102 -18.9815,9.6874 -42.3874,9.6874z"/>
   <path id="_148376424" class="fil52" d="M815.518 1253.3c-23.0988,0 -41.8346,-4.26732 -41.8346,-9.55276 0,-5.2689 18.7382,-9.54803 41.8346,-9.54803 23.0906,0 41.8193,4.27559 41.8193,9.54803 0,5.28543 -18.7287,9.55276 -41.8193,9.55276z"/>
   <path id="_148382320" class="fil53" d="M815.518 1253.16c-22.7858,0 -41.2618,-4.20709 -41.2618,-9.41457 0,-5.19803 18.476,-9.4122 41.2618,-9.4122 22.7776,0 41.2453,4.21417 41.2453,9.4122 0,5.20748 -18.4677,9.41457 -41.2453,9.41457z"/>
   <path id="_148391328" class="fil54" d="M815.518 1253.02c-22.4693,0 -40.689,-4.14567 -40.689,-9.27638 0,-5.12126 18.2197,-9.2752 40.689,-9.2752 22.4622,0 40.6783,4.15394 40.6783,9.2752 0,5.13071 -18.2161,9.27638 -40.6783,9.27638z"/>
   <path id="_148392184" class="fil55" d="M815.518 1252.89c-22.1492,0 -40.1185,-4.08425 -40.1185,-9.14055 0,-5.04449 17.9693,-9.13583 40.1185,-9.13583 22.1457,0 40.1043,4.09134 40.1043,9.13583 0.0023622,5.0563 -17.9587,9.14055 -40.1043,9.14055z"/>
   <path id="_148398632" class="fil56" d="M815.518 1252.75c-21.8374,0 -39.548,-4.02047 -39.548,-9.00236 0,-4.9689 17.7142,-8.99882 39.548,-8.99882 21.8291,0 39.535,4.03228 39.535,8.99882 0,4.97953 -17.7035,9.00236 -39.535,9.00236z"/>
   <path id="_148407408" class="fil57" d="M815.518 1252.61c-21.5209,0 -38.9752,-3.96024 -38.9752,-8.86417 0,-4.89449 17.4543,-8.85945 38.9752,-8.85945 21.5138,0 38.961,3.96732 38.961,8.85945 0,4.90394 -17.4472,8.86417 -38.961,8.86417z"/>
   <path id="_148407960" class="fil58" d="M815.518 1252.47c-21.2055,0 -38.4071,-3.9 -38.4071,-8.72717 0,-4.81535 17.2016,-8.72362 38.4071,-8.72362 21.1984,0 38.3894,3.90827 38.3894,8.72362 0,4.82717 -17.1909,8.72717 -38.3894,8.72717z"/>
   <path id="_148414608" class="fil59" d="M815.518 1252.33c-20.8878,0 -37.8331,-3.83622 -37.8331,-8.58898 0,-4.73858 16.9453,-8.58543 37.8331,-8.58543 20.8807,0 37.8224,3.84685 37.8224,8.58543 0,4.75276 -16.9417,8.58898 -37.8224,8.58898z"/>
   <path id="_148423384" class="fil60" d="M815.518 1252.2c-20.5724,0 -37.2626,-3.7748 -37.2626,-8.44961 0,-4.66535 16.6902,-8.44843 37.2626,-8.44843 20.5642,0 37.2484,3.78307 37.2484,8.44843 0,4.6748 -16.6843,8.44961 -37.2484,8.44961z"/>
   <path id="_148428680" class="fil61" d="M815.518 1252.06c-20.2559,0 -36.6957,-3.71457 -36.6957,-8.31496 0,-4.5874 16.4398,-8.3126 36.6957,-8.3126 20.2535,0 36.678,3.72283 36.678,8.3126 0,4.60039 -16.4244,8.31496 -36.678,8.31496z"/>
   <path id="_148433544" class="fil62" d="M815.518 1251.92c-19.9417,0 -36.1193,-3.64843 -36.1193,-8.17559 0,-4.50945 16.1776,-8.17205 36.1193,-8.17205 19.9346,0 36.1075,3.6626 36.1075,8.17205 0,4.52717 -16.1728,8.17559 -36.1075,8.17559z"/>
   <path id="_148435456" class="fil63" d="M815.518 1251.79c-19.6299,0 -35.5465,-3.59055 -35.5465,-8.03858 0,-4.43976 15.9165,-8.03858 35.5465,-8.03858 19.6205,0 35.5323,3.60236 35.5323,8.03858 0.00354331,4.44803 -15.9118,8.03858 -35.5323,8.03858z"/>
   <path id="_148444608" class="fil64" d="M815.518 1251.65c-19.3134,0 -34.9772,-3.53268 -34.9772,-7.90276 0,-4.35945 15.6638,-7.89567 34.9772,-7.89567 19.298,0 34.9677,3.53622 34.9677,7.89567 0,4.37008 -15.6614,7.90276 -34.9677,7.90276z"/>
   <path id="_148445600" class="fil65" d="M815.518 1251.51c-18.998,0 -34.4079,-3.46654 -34.4079,-7.76339 0,-4.28386 15.4075,-7.75984 34.4079,-7.75984 18.9862,0 34.3949,3.47598 34.3949,7.75984 0.00708661,4.29685 -15.4039,7.76339 -34.3949,7.76339z"/>
   <path id="_148451880" class="fil66" d="M815.518 1251.38c-18.6815,0 -33.8362,-3.4063 -33.8362,-7.62638 0,-4.20945 15.1547,-7.62283 33.8362,-7.62283 18.6685,0 33.8232,3.41339 33.8232,7.62283 0,4.22008 -15.1547,7.62638 -33.8232,7.62638z"/>
   <path id="_148460552" class="fil67" d="M815.518 1251.23c-18.3661,0 -33.2622,-3.34016 -33.2622,-7.48701 0,-4.13268 14.8984,-7.48465 33.2622,-7.48465 18.3555,0 33.2492,3.35433 33.2492,7.48465 0,4.14685 -14.8902,7.48701 -33.2492,7.48701z"/>
   <path id="_148461144" class="fil68" d="M815.518 1251.09c-18.0496,0 -32.6965,-3.27874 -32.6965,-7.34882 0,-4.05709 14.6469,-7.34764 32.6965,-7.34764 18.0402,0 32.6787,3.29055 32.6787,7.34764 0,4.07008 -14.6386,7.34882 -32.6787,7.34882z"/>
   <path id="_148467848" class="fil69" d="M815.518 1250.96c-17.7343,0 -32.1201,-3.22205 -32.1201,-7.21535 0,-3.98031 14.3882,-7.21063 32.1201,-7.21063 17.726,0 32.1083,3.22677 32.1083,7.21063 0.0023622,3.99331 -14.3823,7.21535 -32.1083,7.21535z"/>
   <path id="_148476672" class="fil70" d="M815.518 1250.82c-17.4213,0 -31.5496,-3.15945 -31.5496,-7.07717 0,-3.90591 14.1283,-7.07598 31.5496,-7.07598 17.4083,0 31.5366,3.17008 31.5366,7.07598 0,3.91772 -14.1283,7.07717 -31.5366,7.07717z"/>
   <path id="_148481872" class="fil71" d="M815.518 1250.68c-17.1035,0 -30.978,-3.10039 -30.978,-6.93898 0,-3.82677 13.8744,-6.9378 30.978,-6.9378 17.0976,0 30.9638,3.11102 30.9638,6.9378 0,3.84213 -13.8661,6.93898 -30.9638,6.93898z"/>
   <path id="_148482976" class="fil72" d="M815.518 1250.55c-16.7894,0 -30.4087,-3.03543 -30.4087,-6.80315 0,-3.75236 13.6193,-6.79961 30.4087,-6.79961 16.7787,0 30.3945,3.04606 30.3945,6.79961 0,3.76654 -13.6157,6.80315 -30.3945,6.80315z"/>
   <path id="_148488904" class="fil73" d="M815.518 1250.41c-16.4705,0 -29.8382,-2.9752 -29.8382,-6.66496 0,-3.67677 13.3618,-6.66496 29.8382,-6.66496 16.4622,0 29.824,2.98819 29.824,6.66496 0,3.68976 -13.3618,6.66496 -29.824,6.66496z"/>
   <path id="_148497776" class="fil74" d="M815.518 1250.27c-16.1575,0 -29.263,-2.91378 -29.263,-6.52559 0,-3.59882 13.1055,-6.52087 29.263,-6.52087 16.1469,0 29.2512,2.92205 29.2512,6.52087 0,3.61417 -13.0996,6.52559 -29.2512,6.52559z"/>
   <path id="_148498608" class="fil75" d="M815.518 1250.14c-15.8386,0 -28.6913,-2.85472 -28.6913,-6.38858 0,-3.52913 12.8528,-6.38858 28.6913,-6.38858 15.8303,0 28.6807,2.85945 28.6807,6.38858 0.0023622,3.53386 -12.8504,6.38858 -28.6807,6.38858z"/>
   <path id="_148505000" class="fil76" d="M815.518 1250c-15.522,0 -28.1232,-2.79094 -28.1232,-6.25276 0,-3.44882 12.5953,-6.25039 28.1232,-6.25039 15.5209,0 28.1138,2.80157 28.1138,6.25039 0,3.46181 -12.5929,6.25276 -28.1138,6.25276z"/>
   <path id="_148513680" class="fil77" d="M815.518 1249.86c-15.2114,0 -27.5528,-2.72717 -27.5528,-6.11339 0,-3.37559 12.3413,-6.11339 27.5528,-6.11339 15.2031,0 27.5374,2.74252 27.5374,6.11339 0,3.38622 -12.3343,6.11339 -27.5374,6.11339z"/>
   <path id="_148520800" class="fil78" d="M815.518 1249.73c-14.8961,0 -26.9835,-2.66693 -26.9835,-5.97638 0,-3.29882 12.0874,-5.97402 26.9835,-5.97402 14.8925,0 26.9693,2.6752 26.9693,5.97402 0,3.30945 -12.0768,5.97638 -26.9693,5.97638z"/>
   <path id="_148519384" class="fil79" d="M815.518 1249.59c-14.5795,0 -26.4094,-2.60433 -26.4094,-5.83937 0,-3.22205 11.8299,-5.83583 26.4094,-5.83583 14.5736,0 26.4,2.61378 26.4,5.83583 0,3.23504 -11.8264,5.83937 -26.4,5.83937z"/>
   <path id="_148529736" class="fil80" d="M815.518 1249.45c-14.2618,0 -25.8378,-2.54173 -25.8378,-5.70236 0,-3.14291 11.576,-5.70118 25.8378,-5.70118 14.2594,0 25.8248,2.55827 25.8248,5.70118 0.00590551,3.15827 -11.5654,5.70236 -25.8248,5.70236z"/>
   <path id="_148535056" class="fil81" d="M815.518 1249.31c-13.95,0 -25.2638,-2.48504 -25.2638,-5.56417 0,-3.06969 11.3185,-5.56417 25.2638,-5.56417 13.9382,0 25.2614,2.49449 25.2614,5.56417 0,3.07913 -11.3197,5.56417 -25.2614,5.56417z"/>
   <path id="_148536184" class="fil82" d="M815.518 1249.17c-13.6346,0 -24.6933,-2.41772 -24.6933,-5.42362 0,-2.99528 11.0634,-5.42835 24.6933,-5.42835 13.6264,0 24.6815,2.43189 24.6815,5.42835 0.00354331,3.00591 -11.0551,5.42362 -24.6815,5.42362z"/>
   <path id="_148542072" class="fil83" d="M815.518 1249.03c-13.3181,0 -24.1264,-2.35748 -24.1264,-5.2878 0,-2.91732 10.8059,-5.28661 24.1264,-5.28661 13.311,0 24.1146,2.36929 24.1146,5.28661 0,2.93031 -10.8035,5.2878 -24.1146,5.2878z"/>
   <path id="_148550912" class="fil84" d="M815.518 1248.9c-13.0016,0 -23.5512,-2.29843 -23.5512,-5.15197 0,-2.84409 10.5496,-5.15079 23.5512,-5.15079 12.9957,0 23.5417,2.30669 23.5417,5.15079 0,2.85354 -10.5461,5.15197 -23.5417,5.15197z"/>
   <path id="_148551960" class="fil85" d="M815.518 1248.76c-12.6874,0 -22.9831,-2.23701 -22.9831,-5.01614 0,-2.76496 10.2945,-5.01614 22.9831,-5.01614 12.6803,0 22.9713,2.24528 22.9713,5.01614 0,2.78031 -10.2909,5.01614 -22.9713,5.01614z"/>
   <path id="_148558432" class="fil86" d="M815.518 1248.62c-12.3709,0 -22.4138,-2.17441 -22.4138,-4.87441 0,-2.68937 10.0429,-4.87441 22.4138,-4.87441 12.365,0 22.4031,2.18504 22.4031,4.87441 0,2.70591 -10.0382,4.87441 -22.4031,4.87441z"/>
   <path id="_148567112" class="fil87" d="M815.518 1248.49c-12.0543,0 -21.8421,-2.11181 -21.8421,-4.73622 0,-2.61732 9.7878,-4.74213 21.8421,-4.74213 12.0472,0 21.8291,2.12835 21.8291,4.74213 0.0023622,2.61969 -9.78189,4.73622 -21.8291,4.73622z"/>
   <path id="_148568296" class="fil88" d="M815.518 1248.35c-11.7402,0 -21.2669,-2.05276 -21.2669,-4.60276 0,-2.53819 9.52913,-4.60276 21.2669,-4.60276 11.7319,0 21.2575,2.06457 21.2575,4.60276 0,2.55 -9.52559,4.60276 -21.2575,4.60276z"/>
   <path id="_148574368" class="fil89" d="M815.518 1248.21c-11.4213,0 -20.6976,-1.99016 -20.6976,-4.46339 0,-2.46142 9.27402,-4.4622 20.6976,-4.4622 11.4154,0 20.6858,1.99961 20.6858,4.4622 0,2.47677 -9.27047,4.46339 -20.6858,4.46339z"/>
   <path id="_148583008" class="fil90" d="M815.518 1248.07c-11.1094,0 -20.1272,-1.92874 -20.1272,-4.32402 0,-2.38819 9.01772,-4.3311 20.1272,-4.3311 11.1024,0 20.1165,1.94291 20.1165,4.3311 0,2.39528 -9.01417,4.32402 -20.1165,4.32402z"/>
   <path id="_148588296" class="fil91" d="M815.518 1247.94c-10.7894,0 -19.5567,-1.86614 -19.5567,-4.19055 0,-2.31142 8.76024,-4.19291 19.5567,-4.19291 10.7835,0 19.5425,1.8815 19.5425,4.19291 0,2.32441 -8.75551,4.19055 -19.5425,4.19055z"/>
   <path id="_148589488" class="fil92" d="M815.518 1247.8c-10.474,0 -18.9839,-1.80118 -18.9839,-4.04882 0,-2.23583 8.50512,-4.05236 18.9839,-4.05236 10.4705,0 18.9756,1.81654 18.9756,4.05236 0,2.24291 -8.50512,4.04882 -18.9756,4.04882z"/>
   <path id="_148595408" class="fil93" d="M815.518 1247.66c-10.1634,0 -18.411,-1.74331 -18.411,-3.91181 0,-2.15906 8.24764,-3.9189 18.411,-3.9189 10.1563,0 18.398,1.7563 18.398,3.9189 0.00472441,2.1685 -8.24173,3.91181 -18.398,3.91181z"/>
   <path id="_148604632" class="fil94" d="M815.518 1247.52c-9.84685,0 -17.8429,-1.68307 -17.8429,-3.77835 0,-2.08228 7.99606,-3.77598 17.8429,-3.77598 9.83976,0 17.8311,1.69488 17.8311,3.77598 0,2.09646 -7.99134,3.77835 -17.8311,3.77835z"/>
   <path id="_148609552" class="fil95" d="M815.518 1247.39c-9.53031,0 -17.2736,-1.62165 -17.2736,-3.6378 0,-2.00669 7.74331,-3.64134 17.2736,-3.64134 9.52323,0 17.2642,1.63465 17.2642,3.64134 0,2.01614 -7.74094,3.6378 -17.2642,3.6378z"/>
   <path id="_148611744" class="fil96" d="M815.518 1247.25c-9.21732,0 -16.6984,-1.55787 -16.6984,-3.49961 0,-1.93228 7.4811,-3.50315 16.6984,-3.50315 9.20787,0 16.689,1.57087 16.689,3.50315 0,1.93819 -7.4811,3.49961 -16.689,3.49961z"/>
   <path id="_148620600" class="fil97" d="M815.518 1247.11c-8.89961,0 -16.1268,-1.49646 -16.1268,-3.36496 0,-1.85551 7.22835,-3.36496 16.1268,-3.36496 8.89488,0 16.122,1.50827 16.122,3.36496 0,1.8685 -7.22717,3.36496 -16.122,3.36496z"/>
   <path id="_148621448" class="fil98" d="M815.518 1246.97c-8.58307,0 -15.5539,-1.43268 -15.5539,-3.22323 0,-1.77992 6.97087,-3.22913 15.5539,-3.22913 8.57953,0 15.5445,1.44921 15.5445,3.22913 0,1.79055 -6.96496,3.22323 -15.5445,3.22323z"/>
   <path id="_148627872" class="fil99" d="M815.518 1246.83c-8.26772,0 -14.9846,-1.3748 -14.9846,-3.08386 0,-1.70551 6.71457,-3.09213 14.9846,-3.09213 8.26535,0 14.9764,1.38307 14.9764,3.09213 0.00354331,1.70906 -6.71102,3.08386 -14.9764,3.08386z"/>
   <path id="_148636528" class="fil100" d="M815.518 1246.7c-7.95118,0 -14.4118,-1.3122 -14.4118,-2.94803 0,-1.62992 6.46063,-2.95394 14.4118,-2.95394 7.94409,0 14.4035,1.32402 14.4035,2.95394 0,1.63583 -6.45945,2.94803 -14.4035,2.94803z"/>
   <path id="_148643600" class="fil101" d="M815.518 1246.56c-7.64055,0 -13.8413,-1.24961 -13.8413,-2.80984 0,-1.55197 6.20315,-2.81575 13.8413,-2.81575 7.62992,0 13.8319,1.26378 13.8319,2.81575 0,1.56024 -6.20197,2.80984 -13.8319,2.80984z"/>
   <path id="_148643904" class="fil102" d="M815.518 1246.42c-7.32283,0 -13.272,-1.18701 -13.272,-2.6752 0,-1.47756 5.94921,-2.68228 13.272,-2.68228 7.31693,0 13.2626,1.20472 13.2626,2.68228 0,1.48819 -5.94567,2.6752 -13.2626,2.6752z"/>
   <path id="_148652480" class="fil103" d="M815.518 1246.29c-7.00512,0 -12.7016,-1.12913 -12.7016,-2.53701 0,-1.40079 5.69291,-2.54173 12.7016,-2.54173 7.00157,0 12.6921,1.1374 12.6921,2.54173 0,1.40787 -5.69055,2.53701 -12.6921,2.53701z"/>
   <path id="_148657784" class="fil104" d="M815.518 1246.15c-6.69213,0 -12.1287,-1.0689 -12.1287,-2.40118 0,-1.3252 5.43661,-2.40354 12.1287,-2.40354 6.68504,0 12.1205,1.07835 12.1205,2.40354 0.00590551,1.33228 -5.43543,2.40118 -12.1205,2.40118z"/>
   <path id="_148658792" class="fil105" d="M815.518 1246.01c-6.37441,0 -11.5583,-1.00512 -11.5583,-2.26181 0,-1.25197 5.18386,-2.26772 11.5583,-2.26772 6.37323,0 11.5465,1.01575 11.5465,2.26772 0,1.25787 -5.17323,2.26181 -11.5465,2.26181z"/>
   <path id="_148664912" class="fil106" d="M815.518 1245.87c-6.06024,0 -10.9854,-0.94252 -10.9854,-2.12362 0,-1.1752 4.9252,-2.12835 10.9854,-2.12835 6.05315,0 10.9795,0.954331 10.9795,2.12835 0,1.1811 -4.92638,2.12362 -10.9795,2.12362z"/>
   <path id="_148673632" class="fil107" d="M815.518 1245.74c-5.74252,0 -10.415,-0.883465 -10.415,-1.9878 0,-1.09724 4.67008,-1.99252 10.415,-1.99252 5.73898,0 10.4102,0.895276 10.4102,1.99252 0,1.10433 -4.67126,1.9878 -10.4102,1.9878z"/>
   <path id="_148674840" class="fil108" d="M815.518 1245.6c-5.42835,0 -9.84685,-0.819685 -9.84685,-1.84843 0,-1.02283 4.4185,-1.85433 9.84685,-1.85433 5.42244,0 9.83858,0.831496 9.83858,1.85433 0,1.02874 -4.41142,1.84843 -9.83858,1.84843z"/>
   <path id="_148680872" class="fil109" d="M815.518 1245.46c-5.11181,0 -9.2752,-0.757087 -9.2752,-1.70906 0,-0.948425 4.16102,-1.71732 9.2752,-1.71732 5.10709,0 9.26339,0.77126 9.26339,1.71732 0,0.95315 -4.15512,1.70906 -9.26339,1.70906z"/>
   <path id="_148689528" class="fil110" d="M815.518 1245.32c-4.79646,0 -8.69882,-0.69685 -8.69882,-1.57559 0,-0.870472 3.90236,-1.58031 8.69882,-1.58031 4.79409,0 8.69291,0.709843 8.69291,1.58031 0.0011811,0.876378 -3.89882,1.57559 -8.69291,1.57559z"/>
   <path id="_148694832" class="fil111" d="M815.518 1245.19c-4.48228,0 -8.13189,-0.637795 -8.13189,-1.43622 0,-0.797244 3.64843,-1.44331 8.13189,-1.44331 4.47638,0 8.1248,0.648425 8.1248,1.44331 0,0.798425 -3.64843,1.43622 -8.1248,1.43622z"/>
   <path id="_148699648" class="fil112" d="M815.518 1245.05c-4.16929,0 -7.55906,-0.572835 -7.55906,-1.29803 0,-0.719291 3.38976,-1.30394 7.55906,-1.30394 4.15984,0 7.54843,0.584646 7.54843,1.30394 0,0.725197 -3.38386,1.29803 -7.54843,1.29803z"/>
   <path id="_148701856" class="fil113" d="M815.518 1244.91c-3.85276,0 -6.98858,-0.511417 -6.98858,-1.16339 0,-0.641339 3.13583,-1.16929 6.98858,-1.16929 3.84567,0 6.9815,0.525591 6.9815,1.16929 0,0.649606 -3.13583,1.16339 -6.9815,1.16339z"/>
   <path id="_148711000" class="fil114" d="M815.518 1244.77c-3.53622,0 -6.41575,-0.448819 -6.41575,-1.02402 0,-0.565748 2.87835,-1.0311 6.41575,-1.0311 3.5315,0 6.40866,0.465354 6.40866,1.0311 0.0023622,0.575197 -2.87717,1.02402 -6.40866,1.02402z"/>
   <path id="_27504672" class="fil115" d="M821.356 1243.75c0,0.498425 -2.62441,0.887008 -5.83937,0.887008 -3.21969,0 -5.84291,-0.388583 -5.84291,-0.887008 0,-0.488976 2.62323,-0.890551 5.84291,-0.890551 3.21496,0 5.83937,0.402756 5.83937,0.890551z"/>
  </g>
 </g>
 <g id="Capa_x0020_2">
  <metadata id="CorelCorpID_1Corel-Layer"/>
  <polygon class="fil116" points="816.39,1124.77 745.638,1242.18 887.031,1242.18 "/>
  <polygon class="fil117" points="816.371,1130.24 751.646,1238.59 881.494,1238.71 "/>
  <g>
   <polygon class="fil118" points="815.725,1148.6 766.514,1230.99 867.249,1231.02 "/>
   <path class="fil119" d="M766.514 1231.58l-0.504331 -0.890551 49.2106 -82.3878 1.00866 0.604724 -49.2106 82.3878 -0.504331 0.285827zm0 0l-1.03583 0 0.531496 -0.890551 0.504331 0.890551zm101.232 -0.864567l-0.497244 0.9 -100.735 -0.0354331 0 -1.17638 100.735 0.0354331 0.497244 0.276378zm0 0l0.562205 0.9 -1.05945 0 0.497244 -0.9zm-52.526 -82.4138l1.00157 -0.00944882 51.5244 82.4232 -0.994488 0.623622 -51.5244 -82.4232 -0.00708661 -0.614173zm0 0l0.491339 -0.823228 0.510236 0.81378 -1.00157 0.00944882z"/>
  </g>
  <path class="fil120" d="M816.849 1210.13c1.37008,0 2.56299,0.501969 3.57638,1.51535 1.01457,1.01339 1.51654,2.2063 1.51654,3.57638 0,1.37008 -0.501969,2.56299 -1.51654,3.57638 -1.01339,1.01457 -2.2063,1.51535 -3.57638,1.51535 -1.39252,0 -2.57362,-0.490157 -3.55394,-1.48228 -0.981496,-0.990945 -1.47047,-2.19449 -1.47047,-3.60945 0,-1.41496 0.488976,-2.6185 1.47047,-3.61063 0.980315,-0.990945 2.16142,-1.4811 3.55394,-1.4811zm5.09291 -34.5638l-3.88937 31.6217 -2.33976 0 -3.88819 -31.6217c0,-0.0661417 -0.011811,-0.188976 -0.034252,-0.356693 -0.0661417,-0.724016 -0.100394,-1.2248 -0.100394,-1.50354 0,-1.32638 0.401575,-2.28425 1.19291,-2.8748 0.791339,-0.590551 2.11654,-0.879921 3.96614,-0.879921 1.89449,0 3.24213,0.28937 4.03346,0.879921 0.791339,0.590551 1.19291,1.57087 1.19291,2.94213 0,0.211417 -0.0448819,0.724016 -0.133465,1.52598 0,0.133465 0,0.222047 0,0.266929z"/>
 </g>
</svg>
