<?xml version="1.0" encoding="utf-8"?>
<!-- Generator: Adobe Illustrator 13.0.0, SVG Export Plug-In . SVG Version: 6.00 Build 14948)  -->
<!DOCTYPE svg PUBLIC "-//W3C//DTD SVG 1.1//EN" "http://www.w3.org/Graphics/SVG/1.1/DTD/svg11.dtd">
<svg version="1.1" id="Layer_1" xmlns="http://www.w3.org/2000/svg" xmlns:xlink="http://www.w3.org/1999/xlink" x="0px" y="0px"
	 width="463.513px" height="262.019px" viewBox="0 0 463.513 262.019" enable-background="new 0 0 463.513 262.019"
	 xml:space="preserve">
<path fill="#DFE0E3" d="M335.822,148.104l51.775,8.075c0,0,5.352,1.248,6.672,1.502c4.637,0.887-0.361,5.329-0.361,5.329
	l-14.309,17.921c0,0-2.084,2.354-5.387,3.455c-3.666,1.223-7.695-0.32-7.695-0.32L71.348,122.203
	c-2.162-0.692-1.516-0.46-3.662-1.313c-2.965-1.179,0.945-3.609,0.945-3.609l259.196,34.965c0,0,1.817-1.326,2.885-2.037
	C333.769,148.17,335.822,148.104,335.822,148.104z"/>
<radialGradient id="SVGID_1_" cx="231.729" cy="99.7295" r="131.0254" gradientUnits="userSpaceOnUse">
	<stop  offset="0" style="stop-color:#FFFFFF"/>
	<stop  offset="0.5905" style="stop-color:#999FB4"/>
	<stop  offset="1" style="stop-color:#566183"/>
</radialGradient>
<path fill="url(#SVGID_1_)" d="M90.075,14.667l299.454,46.427c0,0,4.805,0.474,6.115,3.919c1.182,3.096,0.443,5.161,0.443,5.161
	L378.38,179.417c0,0-0.865,3.868-4.168,4.969c-3.666,1.223-7.695-0.32-7.695-0.32L70.856,122.378c0,0-1.935-0.445-3.096-2.452
	c-1.059-1.829-0.432-5.243-0.432-5.243L84.145,20.92c0,0,0.466-3.179,1.282-4.169C87.671,14.026,90.075,14.667,90.075,14.667z"/>
<radialGradient id="SVGID_2_" cx="201.8198" cy="-5.4209" r="266.5827" gradientUnits="userSpaceOnUse">
	<stop  offset="0" style="stop-color:#FFFFFF"/>
	<stop  offset="0.4972" style="stop-color:#BAC5D8"/>
	<stop  offset="1" style="stop-color:#788EB3"/>
</radialGradient>
<path fill="url(#SVGID_2_)" d="M90.478,23.094l295.131,47.149c0,0,4.49-0.058,6.023,3.009c1.082,2.161,0.074,5.434,0.074,5.434
	l-16.109,97.944c0,0-0.803,3.596-3.875,4.62c-3.408,1.136-7.154-0.298-7.154-0.298L72.789,120.187c0,0-1.799-0.414-2.878-2.279
	c-0.984-1.7-0.401-4.875-0.401-4.875l15.454-84.125c0,0,0.614-3.013,0.952-4.157C86.637,22.305,90.478,23.094,90.478,23.094z"/>
<radialGradient id="SVGID_3_" cx="389.1655" cy="64.8296" r="5.5795" gradientUnits="userSpaceOnUse">
	<stop  offset="0" style="stop-color:#FFFFFF"/>
	<stop  offset="0.0246" style="stop-color:#F4F5F7"/>
	<stop  offset="0.1342" style="stop-color:#CBCED9"/>
	<stop  offset="0.2499" style="stop-color:#A7ACBE"/>
	<stop  offset="0.3707" style="stop-color:#8991A9"/>
	<stop  offset="0.4985" style="stop-color:#737C98"/>
	<stop  offset="0.6364" style="stop-color:#626D8C"/>
	<stop  offset="0.7915" style="stop-color:#596485"/>
	<stop  offset="1" style="stop-color:#566183"/>
</radialGradient>
<circle fill="url(#SVGID_3_)" cx="390.628" cy="67.007" r="2.777"/>
<radialGradient id="SVGID_4_" cx="382.0083" cy="63.8467" r="5.2349" gradientUnits="userSpaceOnUse">
	<stop  offset="0" style="stop-color:#FFFFFF"/>
	<stop  offset="0.0246" style="stop-color:#F4F5F7"/>
	<stop  offset="0.1342" style="stop-color:#CBCED9"/>
	<stop  offset="0.2499" style="stop-color:#A7ACBE"/>
	<stop  offset="0.3707" style="stop-color:#8991A9"/>
	<stop  offset="0.4985" style="stop-color:#737C98"/>
	<stop  offset="0.6364" style="stop-color:#626D8C"/>
	<stop  offset="0.7915" style="stop-color:#596485"/>
	<stop  offset="1" style="stop-color:#566183"/>
</radialGradient>
<circle fill="url(#SVGID_4_)" cx="383.38" cy="65.89" r="2.605"/>
<radialGradient id="SVGID_5_" cx="181.3862" cy="283.1699" r="386.5618" gradientUnits="userSpaceOnUse">
	<stop  offset="0" style="stop-color:#FFFFFF"/>
	<stop  offset="0.4972" style="stop-color:#BAC5D8"/>
	<stop  offset="1" style="stop-color:#788EB3"/>
</radialGradient>
<path fill="url(#SVGID_5_)" d="M90.095,24.643l297.34,47.775c0,0,2.223,0.265,2.24,3.138c0.035,5.264-4.037,4.459-4.037,4.459
	L87.851,30.596c0,0-2.416-1.162-1.191-4.16C87.577,24.184,90.095,24.643,90.095,24.643z"/>
<polygon opacity="0.5" fill="#FFFFFF" points="319.339,124.565 333.735,127.024 330.893,143.689 316.683,140.769 "/>
<polygon opacity="0.5" fill="#FFFFFF" points="328.756,74.482 365.077,81 362.235,97.666 326.1,90.685 "/>
<polygon opacity="0.5" fill="#FFFFFF" points="264.839,63.565 279.235,66.024 276.393,82.689 262.183,79.769 "/>
<path opacity="0.5" fill="#FFFFFF" d="M316.77,144.513l55.792,11.254c0,0,0.631,0.199,0.547,0.804
	c-0.115,0.804-0.924,0.675-0.924,0.675l-55.892-11.468c0,0-0.514-0.247-0.253-0.884C316.236,144.415,316.77,144.513,316.77,144.513z
	"/>
<path opacity="0.5" fill="#FFFFFF" d="M315.942,148.638l36.851,7.373c0,0,0.631,0.199,0.545,0.803
	c-0.113,0.804-0.924,0.675-0.924,0.675l-36.949-7.586c0,0-0.514-0.247-0.253-0.884C315.407,148.54,315.942,148.638,315.942,148.638z
	"/>
<path opacity="0.5" fill="#FFFFFF" d="M315.317,153.013l44.007,8.805c0,0,0.631,0.199,0.547,0.804
	c-0.115,0.804-0.924,0.675-0.924,0.675l-44.106-9.02c0,0-0.515-0.246-0.253-0.883C314.783,152.915,315.317,153.013,315.317,153.013z
	"/>
<path opacity="0.5" fill="#FFFFFF" d="M314.692,157.472l36.851,7.373c0,0,0.631,0.199,0.545,0.803
	c-0.113,0.804-0.924,0.675-0.924,0.675l-36.949-7.586c0,0-0.514-0.247-0.253-0.884C314.157,157.374,314.692,157.472,314.692,157.472
	z"/>
<path opacity="0.5" fill="#FFFFFF" d="M314.067,161.847l44.007,8.805c0,0,0.631,0.199,0.547,0.804
	c-0.115,0.804-0.924,0.675-0.924,0.675l-44.106-9.02c0,0-0.515-0.246-0.253-0.883C313.533,161.749,314.067,161.847,314.067,161.847z
	"/>
<path opacity="0.5" fill="#FFFFFF" d="M260.968,82.513l58.954,11.254c0,0,0.666,0.199,0.578,0.804
	c-0.122,0.804-0.977,0.675-0.977,0.675l-59.059-11.468c0,0-0.543-0.247-0.268-0.884C260.404,82.415,260.968,82.513,260.968,82.513z"
	/>
<path opacity="0.5" fill="#FFFFFF" d="M260.093,86.638l38.939,7.373c0,0,0.666,0.199,0.575,0.803
	c-0.119,0.804-0.976,0.675-0.976,0.675l-39.043-7.586c0,0-0.543-0.247-0.268-0.884C259.528,86.54,260.093,86.638,260.093,86.638z"/>
<path opacity="0.5" fill="#FFFFFF" d="M255.801,110.221l58.954,11.254c0,0,0.666,0.199,0.578,0.804
	c-0.122,0.804-0.977,0.675-0.977,0.675l-59.059-11.468c0,0-0.543-0.247-0.268-0.884
	C255.237,110.123,255.801,110.221,255.801,110.221z"/>
<path opacity="0.5" fill="#FFFFFF" d="M255.093,114.012l38.939,7.373c0,0,0.666,0.199,0.575,0.803
	c-0.119,0.804-0.976,0.675-0.976,0.675l-39.043-7.586c0,0-0.543-0.247-0.268-0.884C254.528,113.914,255.093,114.012,255.093,114.012
	z"/>
<path opacity="0.5" fill="#FFFFFF" d="M258.398,95.347l38.938,7.373c0,0,0.667,0.199,0.576,0.803
	c-0.12,0.804-0.977,0.675-0.977,0.675l-39.043-7.586c0,0-0.543-0.247-0.268-0.884C257.833,95.249,258.398,95.347,258.398,95.347z"/>
<path opacity="0.5" fill="#FFFFFF" d="M257.613,99.264l46.5,8.805c0,0,0.667,0.199,0.578,0.804
	c-0.122,0.804-0.977,0.675-0.977,0.675l-46.605-9.02c0,0-0.544-0.246-0.268-0.883C257.048,99.166,257.613,99.264,257.613,99.264z"/>
<path opacity="0.5" fill="#FFFFFF" d="M257.481,102.764l38.938,7.373c0,0,0.667,0.199,0.576,0.803
	c-0.12,0.804-0.977,0.675-0.977,0.675l-39.043-7.586c0,0-0.543-0.247-0.268-0.884C256.916,102.666,257.481,102.764,257.481,102.764z
	"/>
<path opacity="0.5" fill="#FFFFFF" d="M256.487,106.472l46.5,8.805c0,0,0.667,0.199,0.578,0.804
	c-0.122,0.804-0.977,0.675-0.977,0.675l-46.605-9.02c0,0-0.544-0.246-0.268-0.883C255.922,106.374,256.487,106.472,256.487,106.472z
	"/>
<polygon opacity="0.5" fill="#FFFFFF" points="133.839,41.565 148.235,44.024 145.393,60.689 131.183,57.769 "/>
<polygon opacity="0.35" fill="#FFFFFF" points="88.756,34.815 125.152,41.274 110.077,120.667 75.201,113.746 "/>
<path opacity="0.5" fill="#FFFFFF" d="M129.968,60.513l58.954,11.254c0,0,0.666,0.199,0.578,0.804
	c-0.122,0.804-0.977,0.675-0.977,0.675l-59.059-11.468c0,0-0.543-0.247-0.268-0.884C129.404,60.415,129.968,60.513,129.968,60.513z"
	/>
<path opacity="0.5" fill="#FFFFFF" d="M129.093,64.638l38.939,7.373c0,0,0.666,0.199,0.575,0.803
	c-0.119,0.804-0.976,0.675-0.976,0.675l-39.043-7.586c0,0-0.543-0.247-0.268-0.884C128.528,64.54,129.093,64.638,129.093,64.638z"/>
<path opacity="0.5" fill="#FFFFFF" d="M123.468,88.388l58.954,11.254c0,0,0.666,0.199,0.578,0.804
	c-0.122,0.804-0.977,0.675-0.977,0.675l-59.059-11.468c0,0-0.543-0.247-0.268-0.884C122.904,88.29,123.468,88.388,123.468,88.388z"
	/>
<path opacity="0.5" fill="#FFFFFF" d="M122.593,92.513l38.939,7.373c0,0,0.666,0.199,0.575,0.803
	c-0.119,0.804-0.976,0.675-0.976,0.675l-39.043-7.586c0,0-0.543-0.247-0.268-0.884C122.028,92.415,122.593,92.513,122.593,92.513z"
	/>
<path opacity="0.5" fill="#FFFFFF" d="M127.398,73.347l38.938,7.373c0,0,0.667,0.199,0.576,0.803
	c-0.12,0.804-0.977,0.675-0.977,0.675l-39.043-7.586c0,0-0.543-0.247-0.268-0.884C126.833,73.249,127.398,73.347,127.398,73.347z"/>
<path opacity="0.5" fill="#FFFFFF" d="M126.113,77.097l46.5,8.805c0,0,0.667,0.199,0.578,0.804
	c-0.122,0.804-0.977,0.675-0.977,0.675l-46.605-9.02c0,0-0.544-0.246-0.268-0.883C125.548,76.999,126.113,77.097,126.113,77.097z"/>
<path opacity="0.5" fill="#FFFFFF" d="M125.148,81.097l38.938,7.373c0,0,0.667,0.199,0.576,0.803
	c-0.12,0.804-0.977,0.675-0.977,0.675l-39.043-7.586c0,0-0.543-0.247-0.268-0.884C124.583,80.999,125.148,81.097,125.148,81.097z"/>
<path opacity="0.5" fill="#FFFFFF" d="M124.488,84.972l46.5,8.805c0,0,0.667,0.199,0.578,0.804
	c-0.122,0.804-0.977,0.675-0.977,0.675l-46.605-9.02c0,0-0.544-0.246-0.268-0.883C123.923,84.874,124.488,84.972,124.488,84.972z"/>
<path opacity="0.5" fill="#FFFFFF" d="M322.817,108.513l44.007,8.805c0,0,0.631,0.199,0.547,0.804
	c-0.115,0.804-0.924,0.675-0.924,0.675l-44.106-9.02c0,0-0.515-0.246-0.253-0.883C322.283,108.415,322.817,108.513,322.817,108.513z
	"/>
<path opacity="0.5" fill="#FFFFFF" d="M322.192,112.972l36.851,7.373c0,0,0.631,0.199,0.545,0.803
	c-0.113,0.804-0.924,0.675-0.924,0.675l-36.949-7.586c0,0-0.514-0.247-0.253-0.884C321.657,112.874,322.192,112.972,322.192,112.972
	z"/>
<path opacity="0.5" fill="#FFFFFF" d="M321.567,117.347l44.007,8.805c0,0,0.631,0.199,0.547,0.804
	c-0.115,0.804-0.924,0.675-0.924,0.675l-44.106-9.02c0,0-0.515-0.246-0.253-0.883C321.033,117.249,321.567,117.347,321.567,117.347z
	"/>
<path opacity="0.5" fill="#FFFFFF" d="M325.317,95.013l44.007,8.805c0,0,0.631,0.199,0.547,0.804
	c-0.115,0.804-0.924,0.675-0.924,0.675l-44.106-9.02c0,0-0.515-0.246-0.253-0.883C324.783,94.915,325.317,95.013,325.317,95.013z"/>
<path opacity="0.5" fill="#FFFFFF" d="M324.692,99.472l36.851,7.373c0,0,0.631,0.199,0.545,0.803
	c-0.113,0.804-0.924,0.675-0.924,0.675l-36.949-7.586c0,0-0.514-0.247-0.253-0.884C324.157,99.374,324.692,99.472,324.692,99.472z"
	/>
<path opacity="0.5" fill="#FFFFFF" d="M324.067,103.847l44.007,8.805c0,0,0.631,0.199,0.547,0.804
	c-0.115,0.804-0.924,0.675-0.924,0.675l-44.106-9.02c0,0-0.515-0.246-0.253-0.883C323.533,103.749,324.067,103.847,324.067,103.847z
	"/>
<polygon opacity="0.5" fill="#FFFFFF" points="189.089,102.065 240.327,111.25 237.485,127.915 186.433,118.269 "/>
<polygon opacity="0.5" fill="#FFFFFF" points="198.506,51.982 225.827,56.75 222.985,73.416 195.85,68.185 "/>
<path opacity="0.5" fill="#FFFFFF" d="M186.52,122.013l55.792,11.254c0,0,0.631,0.199,0.547,0.804
	c-0.115,0.804-0.924,0.675-0.924,0.675l-55.892-11.468c0,0-0.514-0.247-0.253-0.884C185.986,121.915,186.52,122.013,186.52,122.013z
	"/>
<path opacity="0.5" fill="#FFFFFF" d="M185.692,126.138l36.851,7.373c0,0,0.631,0.199,0.545,0.803
	c-0.113,0.804-0.924,0.675-0.924,0.675l-36.949-7.586c0,0-0.514-0.247-0.253-0.884C185.157,126.04,185.692,126.138,185.692,126.138z
	"/>
<path opacity="0.5" fill="#FFFFFF" d="M185.067,130.513l44.007,8.805c0,0,0.631,0.199,0.547,0.804
	c-0.115,0.804-0.924,0.675-0.924,0.675l-44.106-9.02c0,0-0.515-0.246-0.253-0.883C184.533,130.415,185.067,130.513,185.067,130.513z
	"/>
<path opacity="0.5" fill="#FFFFFF" d="M184.442,134.972l36.851,7.373c0,0,0.631,0.199,0.545,0.803
	c-0.113,0.804-0.924,0.675-0.924,0.675l-36.949-7.586c0,0-0.514-0.247-0.253-0.884C183.907,134.874,184.442,134.972,184.442,134.972
	z"/>
<path opacity="0.5" fill="#FFFFFF" d="M192.567,86.013l44.007,8.805c0,0,0.631,0.199,0.547,0.804
	c-0.115,0.804-0.924,0.675-0.924,0.675l-44.106-9.02c0,0-0.515-0.246-0.253-0.883C192.033,85.915,192.567,86.013,192.567,86.013z"/>
<path opacity="0.5" fill="#FFFFFF" d="M191.942,90.472l36.851,7.373c0,0,0.631,0.199,0.545,0.803
	c-0.113,0.804-0.924,0.675-0.924,0.675l-36.949-7.586c0,0-0.514-0.247-0.253-0.884C191.407,90.374,191.942,90.472,191.942,90.472z"
	/>
<path opacity="0.5" fill="#FFFFFF" d="M191.317,94.847l44.007,8.805c0,0,0.631,0.199,0.547,0.804
	c-0.115,0.804-0.924,0.675-0.924,0.675l-44.106-9.02c0,0-0.515-0.246-0.253-0.883C190.783,94.749,191.317,94.847,191.317,94.847z"/>
<path opacity="0.5" fill="#FFFFFF" d="M195.067,72.513l44.007,8.805c0,0,0.631,0.199,0.547,0.804
	c-0.115,0.804-0.924,0.675-0.924,0.675l-44.106-9.02c0,0-0.515-0.246-0.253-0.883C194.533,72.415,195.067,72.513,195.067,72.513z"/>
<path opacity="0.5" fill="#FFFFFF" d="M194.442,76.972l36.851,7.373c0,0,0.631,0.199,0.545,0.803
	c-0.113,0.804-0.924,0.675-0.924,0.675l-36.949-7.586c0,0-0.514-0.247-0.253-0.884C193.907,76.874,194.442,76.972,194.442,76.972z"
	/>
<path opacity="0.5" fill="#FFFFFF" d="M193.817,81.347l44.007,8.805c0,0,0.631,0.199,0.547,0.804
	c-0.115,0.804-0.924,0.675-0.924,0.675l-44.106-9.02c0,0-0.515-0.246-0.253-0.883C193.283,81.249,193.817,81.347,193.817,81.347z"/>
<g>
	<g>
		<ellipse fill="#DFE0E3" cx="201.501" cy="219.877" rx="30.995" ry="10.434"/>
		<path fill="#DFE0E3" d="M234.909,213.55c0,3.344-4.064,6.054-9.078,6.054c-5.018,0-9.082-2.71-9.082-6.054
			c0-3.343,4.064-6.054,9.082-6.054C230.844,207.496,234.909,210.207,234.909,213.55z"/>
	</g>
	<radialGradient id="SVGID_6_" cx="191.4829" cy="180.4932" r="36.6536" gradientUnits="userSpaceOnUse">
		<stop  offset="0" style="stop-color:#FFFFFF"/>
		<stop  offset="0.084" style="stop-color:#E9F3F9"/>
		<stop  offset="0.7233" style="stop-color:#4396CE"/>
		<stop  offset="1" style="stop-color:#0071BC"/>
	</radialGradient>
	<path fill="url(#SVGID_6_)" d="M226.852,221.44c0.006,0.083-7.857,8.028-28.869,8.372c-20.328,0.33-27.506-8.289-27.505-8.372
		c0.171-20.842,11.357-44.757,28.53-44.757C216.178,176.684,225.657,201.452,226.852,221.44z"/>
	<path fill="#0071BC" d="M203.04,177.41c0,0,15.244,8.447,17.439,25.51c2.129,16.565-0.145,22.484-0.145,22.484
		s-1.17,0.733,1.67-0.687s4.832-3.238,4.832-3.238s-0.557-12.751-5.785-25.425c-7.145-17.327-19.074-19.572-19.074-19.572
		L203.04,177.41z"/>
	<radialGradient id="SVGID_7_" cx="190.894" cy="187.5762" r="16.0903" gradientUnits="userSpaceOnUse">
		<stop  offset="0" style="stop-color:#FFFFFF"/>
		<stop  offset="0.084" style="stop-color:#E9F3F9"/>
		<stop  offset="0.7233" style="stop-color:#4396CE"/>
		<stop  offset="1" style="stop-color:#0071BC"/>
	</radialGradient>
	<path fill="url(#SVGID_7_)" d="M209.768,180.393c0.045,0.04-3.859,2.271-10.682,2.549c-7.537,0.309-11.439-2.43-11.391-2.467
		c3.732-2.793,8.324-3.732,11.202-3.732C204.651,176.742,208.903,179.633,209.768,180.393z"/>
	<radialGradient id="SVGID_8_" cx="200.7671" cy="154.9805" r="18.5507" gradientUnits="userSpaceOnUse">
		<stop  offset="0" style="stop-color:#FFFFFF"/>
		<stop  offset="1" style="stop-color:#EAD5A5"/>
	</radialGradient>
	<circle fill="url(#SVGID_8_)" cx="197.979" cy="156.43" r="23.832"/>
	<radialGradient id="SVGID_9_" cx="191.1489" cy="147.1143" r="27.0099" gradientUnits="userSpaceOnUse">
		<stop  offset="0" style="stop-color:#D5C9C0"/>
		<stop  offset="0.2416" style="stop-color:#BBAA99"/>
		<stop  offset="0.3269" style="stop-color:#A49587"/>
		<stop  offset="0.5546" style="stop-color:#6D635B"/>
		<stop  offset="0.7508" style="stop-color:#453E3B"/>
		<stop  offset="0.9057" style="stop-color:#2C2727"/>
		<stop  offset="1" style="stop-color:#231F20"/>
	</radialGradient>
	<path fill="url(#SVGID_9_)" d="M221.444,153.19c0.699,6.892-7.687,6.313-8.032,10.808c-1.092,14.182-17.103,13.695-20.483,13.045
		c-11.049-2.125-18.807-10.095-18.807-20.629c0-13.16,10.67-23.832,23.83-23.832C211.114,132.582,220.336,142.301,221.444,153.19z"
		/>
</g>
<g>
	<g>
		<ellipse fill="#DFE0E3" cx="271.535" cy="234.252" rx="30.995" ry="10.434"/>
		<path fill="#DFE0E3" d="M304.942,227.925c0,3.344-4.064,6.054-9.078,6.054c-5.018,0-9.082-2.71-9.082-6.054
			c0-3.343,4.064-6.054,9.082-6.054C300.877,221.871,304.942,224.582,304.942,227.925z"/>
	</g>
	<radialGradient id="SVGID_10_" cx="261.5161" cy="194.8682" r="36.6536" gradientUnits="userSpaceOnUse">
		<stop  offset="0" style="stop-color:#FFFFFF"/>
		<stop  offset="0.6445" style="stop-color:#A9B47E"/>
		<stop  offset="1" style="stop-color:#7C8E3B"/>
	</radialGradient>
	<path fill="url(#SVGID_10_)" d="M296.885,235.815c0.006,0.083-7.857,8.028-28.869,8.372c-20.328,0.33-27.506-8.289-27.505-8.372
		c0.171-20.842,11.357-44.757,28.53-44.757C286.211,191.059,295.69,215.827,296.885,235.815z"/>
	<path fill="#7C8E3B" d="M273.073,191.785c0,0,15.244,8.447,17.439,25.51c2.129,16.565-0.145,22.484-0.145,22.484
		s-1.17,0.733,1.67-0.687s4.832-3.238,4.832-3.238s-0.557-12.751-5.785-25.425c-7.145-17.327-19.074-19.572-19.074-19.572
		L273.073,191.785z"/>
	<radialGradient id="SVGID_11_" cx="260.9272" cy="201.9512" r="16.0903" gradientUnits="userSpaceOnUse">
		<stop  offset="0" style="stop-color:#FFFFFF"/>
		<stop  offset="0.6445" style="stop-color:#A9B47E"/>
		<stop  offset="1" style="stop-color:#7C8E3B"/>
	</radialGradient>
	<path fill="url(#SVGID_11_)" d="M279.801,194.768c0.045,0.04-3.859,2.271-10.682,2.549c-7.537,0.309-11.439-2.43-11.391-2.467
		c3.732-2.793,8.324-3.732,11.202-3.732C274.684,191.117,278.936,194.008,279.801,194.768z"/>
	<radialGradient id="SVGID_12_" cx="270.8003" cy="169.3555" r="18.5507" gradientUnits="userSpaceOnUse">
		<stop  offset="0" style="stop-color:#FFFFFF"/>
		<stop  offset="1" style="stop-color:#463E2E"/>
	</radialGradient>
	<circle fill="url(#SVGID_12_)" cx="268.013" cy="170.805" r="23.832"/>
	<radialGradient id="SVGID_13_" cx="261.189" cy="161.4844" r="27.0113" gradientUnits="userSpaceOnUse">
		<stop  offset="0" style="stop-color:#D5C9C0"/>
		<stop  offset="0.2416" style="stop-color:#BBAA99"/>
		<stop  offset="0.3269" style="stop-color:#A49587"/>
		<stop  offset="0.5546" style="stop-color:#6D635B"/>
		<stop  offset="0.7508" style="stop-color:#453E3B"/>
		<stop  offset="0.9057" style="stop-color:#2C2727"/>
		<stop  offset="1" style="stop-color:#231F20"/>
	</radialGradient>
	<path fill="url(#SVGID_13_)" d="M291.477,167.565c0.699,6.892-4.803,6.161-5.148,10.656c-1.092,14.182-19.986,13.847-23.367,13.196
		c-11.049-2.125-18.807-10.095-18.807-20.629c0-13.16,10.67-23.832,23.83-23.832C281.147,146.957,290.37,156.676,291.477,167.565z"
		/>
</g>
<g>
	<g>
		<ellipse fill="#DFE0E3" cx="337.536" cy="241.585" rx="30.995" ry="10.434"/>
		<path fill="#DFE0E3" d="M370.943,235.258c0,3.344-4.064,6.054-9.078,6.054c-5.018,0-9.082-2.71-9.082-6.054
			c0-3.343,4.064-6.054,9.082-6.054C366.878,229.204,370.943,231.915,370.943,235.258z"/>
	</g>
	<radialGradient id="SVGID_14_" cx="327.5181" cy="202.2021" r="36.6528" gradientUnits="userSpaceOnUse">
		<stop  offset="0" style="stop-color:#FFFFFF"/>
		<stop  offset="0.4762" style="stop-color:#88B8A1"/>
		<stop  offset="1" style="stop-color:#006837"/>
	</radialGradient>
	<path fill="url(#SVGID_14_)" d="M362.886,243.148c0.006,0.083-7.857,8.028-28.869,8.372c-20.328,0.33-27.506-8.289-27.505-8.372
		c0.171-20.842,11.357-44.757,28.53-44.757C352.212,198.392,361.691,223.16,362.886,243.148z"/>
	<path fill="#006837" d="M339.074,199.118c0,0,15.244,8.447,17.439,25.51c2.129,16.565-0.145,22.484-0.145,22.484
		s-1.17,0.733,1.67-0.687s4.832-3.238,4.832-3.238s-0.557-12.751-5.785-25.425c-7.145-17.327-19.074-19.572-19.074-19.572
		L339.074,199.118z"/>
	<radialGradient id="SVGID_15_" cx="326.9282" cy="209.2852" r="16.0905" gradientUnits="userSpaceOnUse">
		<stop  offset="0" style="stop-color:#FFFFFF"/>
		<stop  offset="0.4762" style="stop-color:#88B8A1"/>
		<stop  offset="1" style="stop-color:#006837"/>
	</radialGradient>
	<path fill="url(#SVGID_15_)" d="M345.802,202.101c0.045,0.04-3.859,2.271-10.682,2.549c-7.537,0.309-11.439-2.43-11.391-2.467
		c3.732-2.793,8.324-3.732,11.202-3.732C340.685,198.45,344.937,201.341,345.802,202.101z"/>
	<radialGradient id="SVGID_16_" cx="336.8022" cy="176.6885" r="18.5504" gradientUnits="userSpaceOnUse">
		<stop  offset="0" style="stop-color:#FFFFFF"/>
		<stop  offset="1" style="stop-color:#EAD5A5"/>
	</radialGradient>
	<circle fill="url(#SVGID_16_)" cx="334.014" cy="178.138" r="23.832"/>
	<radialGradient id="SVGID_17_" cx="327.2095" cy="168.7793" r="26.9901" gradientUnits="userSpaceOnUse">
		<stop  offset="0" style="stop-color:#D5C9C0"/>
		<stop  offset="0.2416" style="stop-color:#BBAA99"/>
		<stop  offset="0.3664" style="stop-color:#A79785"/>
		<stop  offset="0.6446" style="stop-color:#7F705F"/>
		<stop  offset="0.8654" style="stop-color:#665947"/>
		<stop  offset="1" style="stop-color:#5D503E"/>
	</radialGradient>
	<path fill="url(#SVGID_17_)" d="M357.478,174.898c0.699,6.892-2.055,4.273-2.4,8.769c-1.092,14.182-22.734,15.734-26.115,15.084
		c-7.305-1.405-14.984-6.506-15.552-12.75c-0.5-5.5-3.255-4.31-3.255-7.879c0-13.16,10.67-23.832,23.83-23.832
		C347.148,154.29,356.371,164.009,357.478,174.898z"/>
</g>
<g>
	<path fill="#DFE0E3" d="M428.794,235.075c0,5.538-12.152,10.024-27.145,10.024s-27.146-4.486-27.146-10.024
		c0-5.533,12.154-10.022,27.146-10.022S428.794,229.542,428.794,235.075z"/>
	<ellipse fill="#DFE0E3" cx="426.041" cy="228.668" rx="7.953" ry="5.816"/>
	<g>
		
			<radialGradient id="SVGID_18_" cx="85.6587" cy="199.7246" r="29.5262" gradientTransform="matrix(-0.9607 0 0 1 477.5504 0)" gradientUnits="userSpaceOnUse">
			<stop  offset="0" style="stop-color:#FFFFFF"/>
			<stop  offset="0.664" style="stop-color:#CD8072"/>
			<stop  offset="1" style="stop-color:#B6442F"/>
		</radialGradient>
		<path fill="url(#SVGID_18_)" d="M374.138,237.222c-0.004,0.081,7.254,7.714,26.646,8.043c18.766,0.318,25.391-7.962,25.389-8.043
			c-0.158-20.023-10.482-43.001-26.334-43.001C383.992,194.221,375.242,218.021,374.138,237.222z"/>
		<path fill="#B6442F" d="M403.369,194.599c0,0,13.428,3.666,19.018,24.576c2.65,9.925,2.113,19.652,2.113,19.652
			s0.375-0.264,0.881-0.715c0.488-0.434,0.793-0.891,0.793-0.891s0.105-11.248-4.783-23.688
			c-6.883-17.518-18.373-19.125-18.373-19.125L403.369,194.599z"/>
		
			<radialGradient id="SVGID_19_" cx="94.1133" cy="196.0732" r="23.2444" gradientTransform="matrix(-0.9607 0 0 1 477.5504 0)" gradientUnits="userSpaceOnUse">
			<stop  offset="0" style="stop-color:#FFFFFF"/>
			<stop  offset="0.664" style="stop-color:#CD8072"/>
			<stop  offset="1" style="stop-color:#B6442F"/>
		</radialGradient>
		<path fill="url(#SVGID_19_)" d="M389.908,197.787c-0.041,0.036,3.563,2.18,9.861,2.447c6.955,0.298,10.557-2.335,10.512-2.369
			c-3.445-2.685-7.684-3.587-10.34-3.587C394.63,194.278,390.705,197.056,389.908,197.787z"/>
	</g>
	
		<radialGradient id="SVGID_20_" cx="98.4707" cy="170.4766" r="17.4949" gradientTransform="matrix(-1 0 0 1 486.6455 0)" gradientUnits="userSpaceOnUse">
		<stop  offset="0" style="stop-color:#D5C9C0"/>
		<stop  offset="0.2416" style="stop-color:#BBAA99"/>
		<stop  offset="0.3664" style="stop-color:#A79785"/>
		<stop  offset="0.6446" style="stop-color:#7F705F"/>
		<stop  offset="0.8654" style="stop-color:#665947"/>
		<stop  offset="1" style="stop-color:#5D503E"/>
	</radialGradient>
	<circle fill="url(#SVGID_20_)" cx="399.751" cy="174.763" r="22.896"/>
	
		<radialGradient id="SVGID_21_" cx="93.1836" cy="165.7861" r="22.0623" gradientTransform="matrix(-1 0 0 1 486.6455 0)" gradientUnits="userSpaceOnUse">
		<stop  offset="0" style="stop-color:#BBAA99"/>
		<stop  offset="0.1125" style="stop-color:#A49587"/>
		<stop  offset="0.4127" style="stop-color:#6D635B"/>
		<stop  offset="0.6714" style="stop-color:#453E3B"/>
		<stop  offset="0.8756" style="stop-color:#2C2727"/>
		<stop  offset="1" style="stop-color:#231F20"/>
	</radialGradient>
	<path fill="url(#SVGID_21_)" d="M378.453,166.624c-1.031,4.293-0.992,10.134,0.41,5.836c0.33-1.015,2.604-1.745,2.531,3.266
		c-0.215,14.756-4.006,17.133-3.883,17.167c2.621,0.733,14.74,5.279,28.746,3.519c12.236-1.537,17.723-6.041,17.723-5.906
		s-2.447-1.386-1.422-14.732c0.967-12.608-10.135-23.913-22.779-23.92C386.628,151.845,379.388,162.726,378.453,166.624z"/>
</g>
<g>
	<ellipse fill="#DEDFE3" cx="43.468" cy="162.884" rx="29.442" ry="9.908"/>
	<ellipse fill="#DEDFE3" cx="66.574" cy="156.872" rx="8.626" ry="5.751"/>
	<path fill="#231F20" d="M51.463,125.046c0,0,6.124,4.923,10.053,10.934c3.777,5.778,4.89,11.556,4.89,11.556l-1.172,3.322
		l-3.556-4.891c0,0-1.235-4.112-3.111-8c-3.111-6.442-8.222-11.997-8.222-11.997s-3.131-1.217-1.807-2.351
		C51.5,121.086,51.463,125.046,51.463,125.046z"/>
	<radialGradient id="SVGID_22_" cx="31.2261" cy="131.9648" r="30.4513" gradientUnits="userSpaceOnUse">
		<stop  offset="0" style="stop-color:#FFFFFF"/>
		<stop  offset="1" style="stop-color:#D0D2D3"/>
	</radialGradient>
	<path fill="url(#SVGID_22_)" d="M67.547,164.367c0.005,0.081-7.465,7.625-27.422,7.952C20.818,172.634,14,164.448,14,164.367
		c0.164-19.796,10.787-42.512,27.099-42.512C57.408,121.855,66.412,145.382,67.547,164.367z"/>
	<radialGradient id="SVGID_23_" cx="45.1299" cy="117.875" r="38.8285" gradientUnits="userSpaceOnUse">
		<stop  offset="0" style="stop-color:#DEDFE3"/>
		<stop  offset="1" style="stop-color:#B8BDC3"/>
	</radialGradient>
	<path fill="url(#SVGID_23_)" d="M44.145,122.339c0,0,12.756,8.447,14.84,24.656c2.025,15.734-1.073,22.609-1.073,22.609
		s2.331-0.774,5.029-2.125c2.699-1.348,4.591-3.074,4.591-3.074s-0.527-12.114-5.494-24.149
		c-6.788-16.457-18.119-18.589-18.119-18.589L44.145,122.339z"/>
	<radialGradient id="SVGID_24_" cx="33.3911" cy="132.207" r="15.2841" gradientUnits="userSpaceOnUse">
		<stop  offset="0" style="stop-color:#FFFFFF"/>
		<stop  offset="1" style="stop-color:#D0D2D3"/>
	</radialGradient>
	<path fill="url(#SVGID_24_)" d="M51.318,125.38c0.042,0.038-3.667,2.156-10.147,2.422c-7.158,0.293-10.863-2.309-10.818-2.345
		c3.546-2.651,7.907-3.546,10.641-3.546C46.458,121.911,50.498,124.66,51.318,125.38z"/>
	<radialGradient id="SVGID_25_" cx="42.77" cy="101.2417" r="17.6206" gradientUnits="userSpaceOnUse">
		<stop  offset="0" style="stop-color:#EFE3D5"/>
		<stop  offset="1" style="stop-color:#C69C6D"/>
	</radialGradient>
	<circle fill="url(#SVGID_25_)" cx="40.122" cy="102.621" r="22.636"/>
	<radialGradient id="SVGID_26_" cx="33.6284" cy="92.8784" r="24.8392" gradientUnits="userSpaceOnUse">
		<stop  offset="0" style="stop-color:#D5C9C0"/>
		<stop  offset="0.2416" style="stop-color:#BBAA99"/>
		<stop  offset="0.3269" style="stop-color:#A49587"/>
		<stop  offset="0.5546" style="stop-color:#6D635B"/>
		<stop  offset="0.7508" style="stop-color:#453E3B"/>
		<stop  offset="0.9057" style="stop-color:#2C2727"/>
		<stop  offset="1" style="stop-color:#231F20"/>
	</radialGradient>
	<path fill="url(#SVGID_26_)" d="M62.409,99.544c0.249,5.326-1.118-7.348-9.25-4.869c-5.471,1.668-1.671,8.384-3.188,16.686
		c-0.077,0.424-2.113,0.764-2.594,0.65c-2.764-0.655-0.368-13.462-6.228-9.87c-2.8,1.716-0.817,10.472-5.84,15.414
		c-1.815,1.782-3.823,2.261-5.842,2.109c-6.358-0.488-12.009-7.053-12.009-17.062c0-12.5,10.133-22.635,22.636-22.635
		C52.596,79.969,61.921,89.159,62.409,99.544z"/>
	<path opacity="0.21" fill="#F2F2F2" d="M34.381,83.685c0.629-3.732-15.397,6.828-13.861,15.842
		C20.667,100.387,34.089,82.021,34.381,83.685z"/>
</g>
<g>
	<path opacity="0.2" d="M114.758,79.213c2.068,2.681-6.244,19.579-6.244,19.579s13.69-15.585,17.659-15.948
		c3.971-0.362,7.944,1.171,12.229,1.171c20.59,0,37.281-9.474,37.281-21.16c0-11.688-16.691-21.159-37.281-21.159
		c-20.588,0-37.277,9.471-37.277,21.159C101.124,69.447,112.688,76.533,114.758,79.213z"/>
	
		<radialGradient id="SVGID_27_" cx="331.4985" cy="-157.3291" r="29.6924" gradientTransform="matrix(-1 0 0 -1 478.3682 -84.8311)" gradientUnits="userSpaceOnUse">
		<stop  offset="0" style="stop-color:#F5F5F5"/>
		<stop  offset="1" style="stop-color:#EBD5A5"/>
	</radialGradient>
	<path fill="url(#SVGID_27_)" d="M112.931,78.779c2.069,2.681-6.245,19.579-6.245,19.579s13.69-15.585,17.661-15.948
		c3.971-0.363,7.943,1.171,12.227,1.171c20.591,0,37.279-9.474,37.279-21.161s-16.688-21.158-37.279-21.158
		c-20.588,0-37.277,9.471-37.277,21.158C99.296,69.012,110.861,76.099,112.931,78.779z"/>
	<path opacity="0.35" fill="#F2F2F2" d="M128.271,45.012c0.803-4.769-28.88,5.3-26.918,16.821
		C101.539,62.931,127.898,42.887,128.271,45.012z"/>
</g>
<g>
	<path opacity="0.2" d="M234.758,123.213c2.068,2.682,9.146,27.222,9.146,27.222s-1.701-23.228,2.268-23.591
		c3.971-0.361,7.945,1.172,12.229,1.172c20.59,0,37.281-9.475,37.281-21.16c0-11.688-16.691-21.159-37.281-21.159
		c-20.588,0-37.277,9.471-37.277,21.159C221.124,113.447,232.688,120.533,234.758,123.213z"/>
	
		<radialGradient id="SVGID_28_" cx="211.4985" cy="-205.5103" r="30.9435" gradientTransform="matrix(-1 0 0 -1 478.3682 -84.8311)" gradientUnits="userSpaceOnUse">
		<stop  offset="0" style="stop-color:#F5F5F5"/>
		<stop  offset="1" style="stop-color:#EBD5A5"/>
	</radialGradient>
	<path fill="url(#SVGID_28_)" d="M232.93,122.779c2.07,2.68,9.146,27.221,9.146,27.221s-1.701-23.229,2.27-23.59
		c3.971-0.363,7.943,1.171,12.227,1.171c20.592,0,37.279-9.474,37.279-21.161c0-11.687-16.688-21.158-37.279-21.158
		c-20.588,0-37.277,9.471-37.277,21.158C219.295,113.012,230.862,120.099,232.93,122.779z"/>
	<path opacity="0.35" fill="#F2F2F2" d="M248.27,89.012c0.803-4.769-28.879,5.3-26.918,16.821
		C221.54,106.931,247.899,86.887,248.27,89.012z"/>
</g>
<g>
	<g>
		<ellipse fill="#DFE0E3" cx="89.572" cy="187.976" rx="30.361" ry="10.22"/>
		<ellipse fill="#DFE0E3" cx="113.401" cy="181.777" rx="8.895" ry="5.93"/>
	</g>
	<radialGradient id="SVGID_29_" cx="76.9487" cy="156.0918" r="31.4029" gradientUnits="userSpaceOnUse">
		<stop  offset="0" style="stop-color:#FFFFFF"/>
		<stop  offset="0.5927" style="stop-color:#98A0B4"/>
		<stop  offset="1" style="stop-color:#556283"/>
	</radialGradient>
	<path fill="url(#SVGID_29_)" d="M114.405,189.507c0.004,0.081-7.698,7.864-28.28,8.2c-19.911,0.324-26.942-8.119-26.941-8.2
		c0.168-20.415,11.125-43.841,27.946-43.841C103.948,145.666,113.232,169.928,114.405,189.507z"/>
	<path fill="#556283" d="M90.272,146.163c0,0,13.154,8.714,15.305,25.427c2.086,16.227-1.109,23.318-1.109,23.318
		s2.405-0.801,5.188-2.191s4.732-3.172,4.732-3.172s-0.543-12.49-5.666-24.904c-6.998-16.973-18.684-19.172-18.684-19.172
		L90.272,146.163z"/>
	<radialGradient id="SVGID_30_" cx="79.1807" cy="156.3369" r="15.763" gradientUnits="userSpaceOnUse">
		<stop  offset="0" style="stop-color:#FFFFFF"/>
		<stop  offset="0.5927" style="stop-color:#98A0B4"/>
		<stop  offset="1" style="stop-color:#556283"/>
	</radialGradient>
	<path fill="url(#SVGID_30_)" d="M97.67,149.299c0.044,0.039-3.781,2.225-10.465,2.497c-7.381,0.302-11.204-2.38-11.157-2.416
		c3.658-2.736,8.155-3.657,10.974-3.657C92.657,145.723,96.823,148.555,97.67,149.299z"/>
	<radialGradient id="SVGID_31_" cx="88.8535" cy="124.4072" r="18.1707" gradientUnits="userSpaceOnUse">
		<stop  offset="0" style="stop-color:#D8C2AB"/>
		<stop  offset="1" style="stop-color:#A67C52"/>
	</radialGradient>
	<circle fill="url(#SVGID_31_)" cx="86.122" cy="125.826" r="23.344"/>
	<radialGradient id="SVGID_32_" cx="79.4653" cy="115.9229" r="25.7749" gradientUnits="userSpaceOnUse">
		<stop  offset="0" style="stop-color:#969696"/>
		<stop  offset="1" style="stop-color:#000000"/>
	</radialGradient>
	<path fill="url(#SVGID_32_)" d="M109.238,118.723c0,0.375,0.25-1.125-4,0.5c-2.483,0.949-4.554,1.506-4.687,10.207
		c-0.03,2.008-1.459,2.699-2.677,0.67c-1.506-2.512-2.708-4.352-5.02-3.179c-3.022,1.53-0.846,10.8-6.023,15.896
		c-1.872,1.84-9.614,0.746-11.696,0.588c-6.557-0.503-12.383-7.274-12.383-17.594c0-12.891,10.451-23.344,23.342-23.344
		C98.987,102.467,109.238,108.001,109.238,118.723z"/>
</g>
<g>
	<ellipse fill="#DFE0E3" cx="139.949" cy="204.408" rx="27.146" ry="10.023"/>
	<ellipse fill="#DFE0E3" cx="164.706" cy="198" rx="7.953" ry="5.816"/>
	<g>
		
			<radialGradient id="SVGID_33_" cx="-375.1177" cy="169.0576" r="29.5262" gradientTransform="matrix(0.9607 0 0 1 506.7142 0)" gradientUnits="userSpaceOnUse">
			<stop  offset="0" style="stop-color:#FFFFFF"/>
			<stop  offset="0.3596" style="stop-color:#A993C1"/>
			<stop  offset="0.472" style="stop-color:#A087B9"/>
			<stop  offset="0.677" style="stop-color:#8766A4"/>
			<stop  offset="0.9497" style="stop-color:#5F3183"/>
			<stop  offset="1" style="stop-color:#57277C"/>
		</radialGradient>
		<path fill="url(#SVGID_33_)" d="M167.46,206.555c0.004,0.08-7.254,7.713-26.646,8.043c-18.766,0.318-25.391-7.963-25.389-8.043
			c0.158-20.023,10.482-43.002,26.334-43.002C157.606,163.553,166.356,187.354,167.46,206.555z"/>
		<path fill="#662D91" d="M138.229,163.932c0,0-13.428,3.666-19.018,24.576c-2.65,9.924-2.113,19.652-2.113,19.652
			s-0.375-0.264-0.881-0.715c-0.488-0.434-0.793-0.891-0.793-0.891s-0.105-11.248,4.783-23.688
			c6.883-17.518,18.373-19.125,18.373-19.125L138.229,163.932z"/>
		
			<radialGradient id="SVGID_34_" cx="-366.6631" cy="165.4063" r="23.2407" gradientTransform="matrix(0.9607 0 0 1 506.7142 0)" gradientUnits="userSpaceOnUse">
			<stop  offset="0" style="stop-color:#FFFFFF"/>
			<stop  offset="0.3596" style="stop-color:#A993C1"/>
			<stop  offset="0.472" style="stop-color:#A087B9"/>
			<stop  offset="0.677" style="stop-color:#8766A4"/>
			<stop  offset="0.9497" style="stop-color:#5F3183"/>
			<stop  offset="1" style="stop-color:#57277C"/>
		</radialGradient>
		<path fill="url(#SVGID_34_)" d="M151.69,167.119c0.041,0.037-3.563,2.18-9.861,2.447c-6.955,0.299-10.557-2.334-10.512-2.369
			c3.445-2.684,7.684-3.586,10.34-3.586C146.968,163.611,150.894,166.389,151.69,167.119z"/>
	</g>
	
		<radialGradient id="SVGID_35_" cx="-344.1958" cy="139.8096" r="17.4949" gradientTransform="matrix(1 0 0 1 497.6191 0)" gradientUnits="userSpaceOnUse">
		<stop  offset="0" style="stop-color:#FFFFFF"/>
		<stop  offset="1" style="stop-color:#EAD5A5"/>
	</radialGradient>
	<circle fill="url(#SVGID_35_)" cx="141.847" cy="144.096" r="22.896"/>
	
		<radialGradient id="SVGID_36_" cx="-350.3218" cy="140.9521" r="29.74" gradientTransform="matrix(1 0 0 1 497.6191 0)" gradientUnits="userSpaceOnUse">
		<stop  offset="0" style="stop-color:#F7E6BB"/>
		<stop  offset="1" style="stop-color:#F4C970"/>
	</radialGradient>
	<path fill="url(#SVGID_36_)" d="M163.146,135.957c1.031,4.293,0.992,10.133-0.41,5.836c-0.33-1.016-2.604-1.746-2.531,3.266
		c0.215,14.756,2,34.236,1.877,34.27c-2.621,0.734-10.661,7.094-24.667,5.334c-12.236-1.537-21.802-7.855-21.802-7.721
		s4.453-18.49,3.427-31.836c-0.967-12.609,10.135-23.914,22.779-23.92C154.97,121.178,162.21,132.059,163.146,135.957z"/>
</g>
<g>
	<path fill="#DFC480" d="M282.473,105.736c0,0-15.58-1.264-23.227-1.189c-7.793,0.076-25.652,1.189-25.652,1.189
		s19.289,0.969,25.74,0.893C265.496,106.555,282.473,105.736,282.473,105.736z"/>
	<path fill="#DFC480" d="M278.795,113.496c0,0-12.954-1.051-19.314-0.99c-6.479,0.064-21.328,0.99-21.328,0.99
		s16.037,0.807,21.4,0.744C264.677,114.176,278.795,113.496,278.795,113.496z"/>
	<path fill="#DFC480" d="M278.213,97.898c0,0-12.952-1.053-19.311-0.99c-6.48,0.064-21.332,0.99-21.332,0.99
		s16.041,0.805,21.404,0.74C264.099,98.576,278.213,97.898,278.213,97.898z"/>
	<path fill="#FFFFFF" d="M282.295,104.883c0,0-15.578-1.266-23.227-1.191c-7.793,0.078-25.652,1.191-25.652,1.191
		s19.291,0.969,25.74,0.891C265.32,105.699,282.295,104.883,282.295,104.883z"/>
	<path fill="#FFFFFF" d="M278.618,112.643c0,0-12.952-1.053-19.313-0.99c-6.479,0.064-21.33,0.99-21.33,0.99
		s16.039,0.805,21.402,0.74C264.501,113.32,278.618,112.643,278.618,112.643z"/>
	<path fill="#FFFFFF" d="M278.038,97.043c0,0-12.952-1.052-19.313-0.99c-6.479,0.064-21.33,0.99-21.33,0.99
		s16.041,0.805,21.402,0.742C263.921,97.723,278.038,97.043,278.038,97.043z"/>
</g>
<g>
	<path fill="#DFC480" d="M161.473,61.736c0,0-15.58-1.264-23.227-1.189c-7.793,0.076-25.652,1.189-25.652,1.189
		s19.289,0.969,25.74,0.893C144.496,62.555,161.473,61.736,161.473,61.736z"/>
	<path fill="#DFC480" d="M157.795,69.496c0,0-12.954-1.051-19.314-0.99c-6.479,0.064-21.328,0.99-21.328,0.99
		s16.037,0.807,21.4,0.744C143.677,70.176,157.795,69.496,157.795,69.496z"/>
	<path fill="#DFC480" d="M157.213,53.898c0,0-12.952-1.053-19.311-0.99c-6.48,0.064-21.332,0.99-21.332,0.99
		s16.041,0.805,21.404,0.74C143.099,54.576,157.213,53.898,157.213,53.898z"/>
	<path fill="#FFFFFF" d="M161.295,60.883c0,0-15.578-1.266-23.227-1.191c-7.793,0.078-25.652,1.191-25.652,1.191
		s19.291,0.969,25.74,0.891C144.32,61.699,161.295,60.883,161.295,60.883z"/>
	<path fill="#FFFFFF" d="M157.618,68.643c0,0-12.952-1.053-19.313-0.99c-6.479,0.064-21.33,0.99-21.33,0.99
		s16.039,0.805,21.402,0.74C143.501,69.32,157.618,68.643,157.618,68.643z"/>
	<path fill="#FFFFFF" d="M157.038,53.043c0,0-12.952-1.052-19.313-0.99c-6.479,0.064-21.33,0.99-21.33,0.99
		s16.041,0.805,21.402,0.742C142.921,53.723,157.038,53.043,157.038,53.043z"/>
</g>
</svg>
