<?xml version="1.0" encoding="utf-8"?>
<!-- Generator: Adobe Illustrator 13.0.0, SVG Export Plug-In . SVG Version: 6.00 Build 14948)  -->
<!DOCTYPE svg PUBLIC "-//W3C//DTD SVG 1.1//EN" "http://www.w3.org/Graphics/SVG/1.1/DTD/svg11.dtd">
<svg version="1.1" id="Layer_1" xmlns="http://www.w3.org/2000/svg" xmlns:xlink="http://www.w3.org/1999/xlink" x="0px" y="0px"
	 width="492.466px" height="270px" viewBox="0 0 492.466 270" enable-background="new 0 0 492.466 270" xml:space="preserve">
<g>
	
		<radialGradient id="SVGID_1_" cx="316.9536" cy="-175.1182" r="48.6033" gradientTransform="matrix(-1 0 0 -1 663.0049 46.9844)" gradientUnits="userSpaceOnUse">
		<stop  offset="0" style="stop-color:#EBEBED"/>
		<stop  offset="1" style="stop-color:#E1E3E7"/>
	</radialGradient>
	<path opacity="0.57" fill="url(#SVGID_1_)" d="M290.495,232.382c3.386,4.389-10.223,32.048-10.223,32.048
		s22.408-25.51,28.907-26.105c6.501-0.593,13.003,1.918,20.015,1.918c33.703,0,61.025-15.508,61.025-34.636
		c0-19.131-27.322-34.634-61.025-34.634c-33.7,0-61.017,15.503-61.017,34.634C268.177,216.395,287.107,227.995,290.495,232.382z"/>
	<radialGradient id="SVGID_2_" cx="326.2065" cy="216.9917" r="54.3464" gradientUnits="userSpaceOnUse">
		<stop  offset="0" style="stop-color:#F5F5F5"/>
		<stop  offset="1" style="stop-color:#EBD5A5"/>
	</radialGradient>
	<path fill="url(#SVGID_2_)" d="M287.502,231.672c3.389,4.388-10.221,32.048-10.221,32.048s22.408-25.511,28.908-26.105
		c6.497-0.593,13,1.917,20.015,1.917c33.702,0,61.022-15.507,61.022-34.637s-27.32-34.632-61.022-34.632
		c-33.698,0-61.019,15.502-61.019,34.632C265.186,215.684,284.115,227.285,287.502,231.672z"/>
	<path opacity="0.35" fill="#F2F2F2" d="M312.612,176.401c1.316-7.806-47.273,8.676-44.061,27.532
		C268.858,205.731,312.003,172.923,312.612,176.401z"/>
</g>
<g>
	
		<radialGradient id="SVGID_3_" cx="456.0464" cy="-40.5063" r="50.8662" gradientTransform="matrix(1 0 0 -1 -388.0215 46.9844)" gradientUnits="userSpaceOnUse">
		<stop  offset="0" style="stop-color:#EBEBED"/>
		<stop  offset="1" style="stop-color:#E1E3E7"/>
	</radialGradient>
	<path opacity="0.57" fill="url(#SVGID_3_)" d="M120.647,97.831c-3.386,4.389,30.428,31.938,30.428,31.938
		s-42.614-25.401-49.113-25.997c-6.501-0.592-13.002,1.918-20.015,1.918c-33.702,0-61.025-15.508-61.025-34.636
		c0-19.131,27.323-34.633,61.025-34.633c33.701,0,61.017,15.502,61.017,34.633C142.965,81.843,124.036,93.443,120.647,97.831z"/>
	
		<radialGradient id="SVGID_4_" cx="185.9937" cy="82.3843" r="56.6272" gradientTransform="matrix(-1 0 0 1 274.9834 0)" gradientUnits="userSpaceOnUse">
		<stop  offset="0" style="stop-color:#F5F5F5"/>
		<stop  offset="1" style="stop-color:#EBD5A5"/>
	</radialGradient>
	<path fill="url(#SVGID_4_)" d="M123.639,97.12c-3.388,4.388,30.426,31.939,30.426,31.939s-42.614-25.401-49.113-25.996
		c-6.497-0.593-13,1.917-20.015,1.917c-33.702,0-61.023-15.507-61.023-34.637S51.235,35.71,84.938,35.71
		c33.699,0,67.058,15.503,67.058,34.632C151.996,81.132,127.027,92.732,123.639,97.12z"/>
	<path opacity="0.35" fill="#F2F2F2" d="M31.403,60.672C24.62,56.59,68.757,30.429,80.983,45.14
		C82.147,46.544,29.159,57.947,31.403,60.672z"/>
</g>
<g>
	
		<radialGradient id="SVGID_5_" cx="539.8677" cy="-136.083" r="55.1441" gradientTransform="matrix(-1 0 0 -1 663.0049 46.9844)" gradientUnits="userSpaceOnUse">
		<stop  offset="0" style="stop-color:#EBEBED"/>
		<stop  offset="1" style="stop-color:#E1E3E7"/>
	</radialGradient>
	<path opacity="0.57" fill="url(#SVGID_5_)" d="M60.104,194.733c3.842,4.977-11.597,36.358-11.597,36.358
		s25.425-28.943,32.798-29.618c7.373-0.672,14.751,2.177,22.708,2.177c38.239,0,69.237-17.596,69.237-39.298
		c0-21.705-30.998-39.294-69.237-39.294c-38.235,0-69.23,17.589-69.23,39.294C34.783,176.592,56.26,189.754,60.104,194.733z"/>
	
		<radialGradient id="SVGID_6_" cx="543.2612" cy="-135.2764" r="55.1441" gradientTransform="matrix(-1 0 0 -1 663.0049 46.9844)" gradientUnits="userSpaceOnUse">
		<stop  offset="0" style="stop-color:#EBEBED"/>
		<stop  offset="1" style="stop-color:#E1E3E7"/>
	</radialGradient>
	<path fill="url(#SVGID_6_)" d="M56.71,193.924c3.843,4.979-11.597,36.36-11.597,36.36s25.425-28.945,32.798-29.616
		c7.373-0.676,14.752,2.175,22.708,2.175c38.239,0,69.237-17.595,69.237-39.298c0-21.705-30.998-39.294-69.237-39.294
		c-38.235,0-69.23,17.589-69.23,39.294C31.389,175.786,52.866,188.948,56.71,193.924z"/>
	<path opacity="0.5" fill="#F2F2F2" d="M85.199,131.216c1.491-8.857-53.635,9.842-49.991,31.238
		C35.556,164.493,84.508,127.269,85.199,131.216z"/>
</g>
<g opacity="0.2">
	<text transform="matrix(1 0 0 1 59.4863 154.894)"><tspan x="0" y="0" fill="#808080" font-family="'Interstate-Regular'" font-size="12.4201">Please select the </tspan><tspan x="2.031" y="14.904" fill="#808080" font-family="'Interstate-Regular'" font-size="12.4201">home page you </tspan><tspan x="14.972" y="29.809" fill="#808080" font-family="'Interstate-Regular'" font-size="12.4201">wish to use</tspan></text>
</g>
<g>
	<text transform="matrix(1 0 0 1 58.4512 153.8594)"><tspan x="0" y="0" fill="#808080" font-family="'Interstate-Regular'" font-size="12.4201">Please select the </tspan><tspan x="2.031" y="14.904" fill="#808080" font-family="'Interstate-Regular'" font-size="12.4201">home page you </tspan><tspan x="14.972" y="29.808" fill="#808080" font-family="'Interstate-Regular'" font-size="12.4201">wish to use</tspan></text>
</g>
<g>
	
		<radialGradient id="SVGID_7_" cx="660.6011" cy="-63.5664" r="55.9146" gradientTransform="matrix(1.118 0.0235 0.021 -0.9998 -370.208 76.8459)" gradientUnits="userSpaceOnUse">
		<stop  offset="0" style="stop-color:#EBEBED"/>
		<stop  offset="1" style="stop-color:#E1E3E7"/>
	</radialGradient>
	<path opacity="0.57" fill="url(#SVGID_7_)" d="M436.001,162.598c-4.316,4.792-24.563,46.502-24.563,46.502
		s9.25-39.549,1.183-40.378c-8.066-0.831-16.218,1.792-24.94,1.609c-41.92-0.881-75.538-18.841-75.091-40.118
		c0.447-21.278,34.789-37.807,76.708-36.927c41.916,0.88,75.531,18.834,75.085,40.113C464.13,145.4,440.316,157.807,436.001,162.598
		z"/>
	
		<radialGradient id="SVGID_8_" cx="658.4722" cy="-63.918" r="55.9143" gradientTransform="matrix(1.118 0.0235 0.021 -0.9998 -370.208 76.8459)" gradientUnits="userSpaceOnUse">
		<stop  offset="0" style="stop-color:#F5F5F5"/>
		<stop  offset="1" style="stop-color:#EBD5A5"/>
	</radialGradient>
	<path fill="url(#SVGID_8_)" d="M433.611,162.899c-9.753,8.25-24.563,46.502-24.563,46.502s9.252-39.551,1.185-40.379
		c-8.071-0.833-16.219,1.792-24.941,1.609c-41.918-0.881-75.534-18.841-75.088-40.118c0.447-21.278,34.787-37.807,76.707-36.927
		c41.913,0.879,75.53,18.835,75.083,40.113C461.742,145.702,442.489,153.209,433.611,162.899z"/>
	<path opacity="0.35" fill="#F2F2F2" d="M371.129,101.787c1.816-8.648-59,8.415-55.443,29.474
		C316.02,133.267,370.453,97.902,371.129,101.787z"/>
</g>
<g>
	
		<radialGradient id="SVGID_9_" cx="989.7427" cy="64.5176" r="64.9317" gradientTransform="matrix(-1.1051 0.1838 -0.2067 -0.983 1479.3494 -32.6877)" gradientUnits="userSpaceOnUse">
		<stop  offset="0" style="stop-color:#EBEBED"/>
		<stop  offset="1" style="stop-color:#E1E3E7"/>
	</radialGradient>
	<path opacity="0.57" fill="url(#SVGID_9_)" d="M297.822,84.646c5.43,4.311-8.839,86.598-8.839,86.598s26.142-81.711,34.379-83.787
		c8.239-2.076,17.238-0.591,26.287-2.096c43.48-7.234,74.984-30.892,70.367-52.844C415.4,10.563,376.415-1.363,332.935,5.872
		c-43.477,7.232-74.979,30.885-70.364,52.839C265.176,71.091,292.394,80.339,297.822,84.646z"/>
	
		<radialGradient id="SVGID_10_" cx="993.2368" cy="65.3481" r="64.9315" gradientTransform="matrix(-1.1051 0.1838 -0.2067 -0.983 1479.3494 -32.6877)" gradientUnits="userSpaceOnUse">
		<stop  offset="0" style="stop-color:#F5F5F5"/>
		<stop  offset="1" style="stop-color:#EBD5A5"/>
	</radialGradient>
	<path fill="url(#SVGID_10_)" d="M293.792,84.472c10.826,8.115-8.841,86.597-8.841,86.597s26.141-81.709,34.381-83.785
		c8.24-2.078,17.238-0.592,26.284-2.096c43.48-7.235,74.98-30.892,70.367-52.844c-4.616-21.954-43.601-33.879-87.08-26.646
		c-43.478,7.232-74.979,30.886-70.364,52.839C261.142,70.917,288.23,80.302,293.792,84.472z"/>
	<path opacity="0.35" fill="#F2F2F2" d="M320.87,17.609c0.723-9.218-60.64,15.443-54.04,36.99
		C267.454,56.653,319.633,13.637,320.87,17.609z"/>
</g>
<g>
	
		<radialGradient id="SVGID_11_" cx="312.9702" cy="-70.8345" r="54.0677" gradientTransform="matrix(1 0 0 -1 -120.4365 46.9844)" gradientUnits="userSpaceOnUse">
		<stop  offset="0" style="stop-color:#EBEBED"/>
		<stop  offset="1" style="stop-color:#E1E3E7"/>
	</radialGradient>
	<path opacity="0.57" fill="url(#SVGID_11_)" d="M254.336,129.255c-3.765,4.881,11.371,35.652,11.371,35.652
		s-24.929-28.38-32.156-29.042c-7.23-0.658-14.466,2.134-22.266,2.134c-37.492,0-67.884-17.25-67.884-38.53
		c0-21.282,30.392-38.528,67.884-38.528c37.488,0,67.878,17.246,67.878,38.528C279.163,111.471,258.104,124.374,254.336,129.255z"/>
	
		<radialGradient id="SVGID_12_" cx="316.3003" cy="-70.0425" r="54.067" gradientTransform="matrix(1 0 0 -1 -120.4365 46.9844)" gradientUnits="userSpaceOnUse">
		<stop  offset="0" style="stop-color:#F5F5F5"/>
		<stop  offset="1" style="stop-color:#EBD5A5"/>
	</radialGradient>
	<path fill="url(#SVGID_12_)" d="M257.664,128.463c-3.768,4.882,11.372,35.65,11.372,35.65s-24.929-28.378-32.158-29.038
		c-7.231-0.662-14.465,2.133-22.265,2.133c-37.493,0-67.88-17.252-67.88-38.532s30.388-38.527,67.88-38.527
		c37.489,0,67.879,17.247,67.879,38.527C282.492,110.678,261.432,123.584,257.664,128.463z"/>
	<path opacity="0.35" fill="#F2F2F2" d="M202.28,68.194c1.461-8.684-52.587,9.651-49.014,30.63
		C153.605,100.823,201.603,64.325,202.28,68.194z"/>
</g>
<text transform="matrix(1 0 0 1 166.958 90.2461)" opacity="0.2"><tspan x="0" y="0" fill="#8C6239" font-family="'Interstate-Regular'" font-size="12.4201">Mesedez aukeratu </tspan><tspan x="0.739" y="14.904" fill="#8C6239" font-family="'Interstate-Regular'" font-size="12.4201">erabili nahi duzun </tspan><tspan x="16.798" y="29.808" fill="#8C6239" font-family="'Interstate-Regular'" font-size="12.4201">hasiera orria</tspan></text>
<text transform="matrix(1 0 0 1 165.9233 89.2109)"><tspan x="0" y="0" fill="#8C6239" font-family="'Interstate-Regular'" font-size="12.4201">Mesedez aukeratu </tspan><tspan x="0.739" y="14.904" fill="#8C6239" font-family="'Interstate-Regular'" font-size="12.4201">erabili nahi duzun </tspan><tspan x="16.798" y="29.808" fill="#8C6239" font-family="'Interstate-Regular'" font-size="12.4201">hasiera orria</tspan></text>
<g>
	
		<radialGradient id="SVGID_13_" cx="406.3481" cy="-181.6284" r="48.0928" gradientTransform="matrix(-0.8317 0.5552 -0.5552 -0.8317 467.1782 -171.1942)" gradientUnits="userSpaceOnUse">
		<stop  offset="0" style="stop-color:#EBEBED"/>
		<stop  offset="1" style="stop-color:#E1E3E7"/>
	</radialGradient>
	<path opacity="0.57" fill="url(#SVGID_13_)" d="M190.564,246.371c5.253,1.77,24.912,17.929,24.912,17.929
		s-11.148-19.257-6.072-23.361c5.077-4.102,11.878-5.624,17.71-9.518c28.031-18.713,42.144-46.78,31.523-62.69
		c-10.622-15.91-41.953-13.634-69.984,5.079c-28.028,18.711-42.14,46.771-31.518,62.683
		C163.126,245.464,185.31,244.602,190.564,246.371z"/>
	<radialGradient id="SVGID_14_" cx="205.0034" cy="212.2886" r="53.6865" gradientUnits="userSpaceOnUse">
		<stop  offset="0" style="stop-color:#F5F5F5"/>
		<stop  offset="1" style="stop-color:#EBD5A5"/>
	</radialGradient>
	<path fill="url(#SVGID_14_)" d="M187.681,247.44c5.254,1.769,24.915,17.928,24.915,17.928s-11.148-19.257-6.073-23.359
		c5.074-4.101,11.876-5.624,17.71-9.52c28.03-18.712,42.143-46.779,31.521-62.688c-10.621-15.91-41.951-13.636-69.981,5.077
		c-28.027,18.711-42.141,46.773-31.52,62.683C160.244,246.534,182.427,245.672,187.681,247.44z"/>
	<path opacity="0.35" fill="#F2F2F2" d="M200.899,173.436c-0.579-7.895-43.855,19.666-36.253,37.22
		C165.373,212.329,199.48,170.203,200.899,173.436z"/>
</g>
<text transform="matrix(1 0 0 1 296.1558 36.4258)" opacity="0.2"><tspan x="0" y="0" fill="#8C6239" font-family="'Interstate-Regular'" font-size="12.4201">Veuillez choisir la </tspan><tspan x="-17.767" y="14.904" fill="#8C6239" font-family="'Interstate-Regular'" font-size="12.4201">page d&apos;accueil que vous </tspan><tspan x="8.502" y="29.808" fill="#8C6239" font-family="'Interstate-Regular'" font-size="12.4201">désirez utiliser</tspan></text>
<text transform="matrix(1 0 0 1 295.1206 35.3906)"><tspan x="0" y="0" fill="#8C6239" font-family="'Interstate-Regular'" font-size="12.4201">Veuillez choisir la </tspan><tspan x="-17.767" y="14.904" fill="#8C6239" font-family="'Interstate-Regular'" font-size="12.4201">page d&apos;accueil que vous </tspan><tspan x="8.502" y="29.808" fill="#8C6239" font-family="'Interstate-Regular'" font-size="12.4201">désirez utiliser</tspan></text>
<text transform="matrix(1 0 0 1 335.0151 125.4365)" opacity="0.2"><tspan x="0" y="0" fill="#8C6239" font-family="'Interstate-Regular'" font-size="12.4201">Por favor, seleccione </tspan><tspan x="6.116" y="14.904" fill="#8C6239" font-family="'Interstate-Regular'" font-size="12.4201">la página de inicio </tspan><tspan x="15.599" y="29.808" fill="#8C6239" font-family="'Interstate-Regular'" font-size="12.4201">que desea usar</tspan></text>
<text transform="matrix(1 0 0 1 333.98 124.4014)"><tspan x="0" y="0" fill="#8C6239" font-family="'Interstate-Regular'" font-size="12.4201">Por favor, seleccione </tspan><tspan x="6.116" y="14.904" fill="#8C6239" font-family="'Interstate-Regular'" font-size="12.4201">la página de inicio </tspan><tspan x="15.599" y="29.808" fill="#8C6239" font-family="'Interstate-Regular'" font-size="12.4201">que desea usar</tspan></text>
<text transform="matrix(1 0 0 1 308.939 194.7817)" opacity="0.2"><tspan x="0" y="0" fill="#8C6239" font-family="'Interstate-Regular'" font-size="12.4201">Valitse </tspan><tspan x="-10.079" y="14.904" fill="#8C6239" font-family="'Interstate-Regular'" font-size="12.4201">käytettävä </tspan><tspan x="-9.259" y="29.809" fill="#8C6239" font-family="'Interstate-Regular'" font-size="12.4201">aloitussivu</tspan></text>
<text transform="matrix(1 0 0 1 307.9038 193.7466)"><tspan x="0" y="0" fill="#8C6239" font-family="'Interstate-Regular'" font-size="12.4201">Valitse </tspan><tspan x="-10.079" y="14.904" fill="#8C6239" font-family="'Interstate-Regular'" font-size="12.4201">käytettävä </tspan><tspan x="-9.259" y="29.809" fill="#8C6239" font-family="'Interstate-Regular'" font-size="12.4201">aloitussivu</tspan></text>
<text transform="matrix(1 0 0 1 53.811 59.5405)" opacity="0.2"><tspan x="0" y="0" fill="#8C6239" font-family="'MyriadPro-Regular'" font-size="12.4201">Пожалуйста</tspan><tspan x="64.708" y="0" fill="#8C6239" font-family="'Interstate-Regular'" font-size="12.4201"> </tspan><tspan x="-24.299" y="14.904" fill="#8C6239" font-family="'MyriadPro-Regular'" font-size="12.4201">выберите</tspan><tspan x="28.225" y="14.904" fill="#8C6239" font-family="'Interstate-Regular'" font-size="12.4201"> </tspan><tspan x="30.857" y="14.904" fill="#8C6239" font-family="'MyriadPro-Regular'" font-size="12.4201">домашнюю</tspan><tspan x="8.638" y="29.808" fill="#8C6239" font-family="'MyriadPro-Regular'" font-size="12.4201">страницу</tspan></text>
<text transform="matrix(1 0 0 1 52.7759 58.5054)"><tspan x="0" y="0" fill="#8C6239" font-family="'MyriadPro-Regular'" font-size="12.4201">Пожалуйста</tspan><tspan x="64.708" y="0" fill="#8C6239" font-family="'Interstate-Regular'" font-size="12.4201"> </tspan><tspan x="-24.299" y="14.904" fill="#8C6239" font-family="'MyriadPro-Regular'" font-size="12.4201">выберите</tspan><tspan x="28.225" y="14.904" fill="#8C6239" font-family="'Interstate-Regular'" font-size="12.4201"> </tspan><tspan x="30.857" y="14.904" fill="#8C6239" font-family="'MyriadPro-Regular'" font-size="12.4201">домашнюю</tspan><tspan x="8.638" y="29.808" fill="#8C6239" font-family="'MyriadPro-Regular'" font-size="12.4201">страницу</tspan></text>
<text transform="matrix(1 0 0 1 200.9863 179.9448)" opacity="0.2"><tspan x="0" y="0" fill="#8C6239" font-family="'KozGoPro-Regular-90ms-RKSJ-H'" font-size="12.4201">使用する</tspan><tspan x="-3.949" y="14.904" fill="#8C6239" font-family="'KozGoPro-Regular-90ms-RKSJ-H'" font-size="12.4201">ホームペ</tspan><tspan x="45.731" y="14.904" fill="#8C6239" font-family="'Interstate-Regular'" font-size="12.4201">   </tspan><tspan x="-8.271" y="29.809" fill="#8C6239" font-family="'KozGoPro-Regular-90ms-RKSJ-H'" font-size="12.4201">ージを</tspan><tspan x="28.989" y="29.809" fill="#8C6239" font-family="'Interstate-Regular'" font-size="12.4201">           </tspan><tspan x="-28.962" y="44.712" fill="#8C6239" font-family="'KozGoPro-Regular-90ms-RKSJ-H'" font-size="12.4201">選択して</tspan><tspan x="20.718" y="44.712" fill="#8C6239" font-family="'Interstate-Regular'" font-size="12.4201">                      </tspan><tspan x="-36.861" y="59.616" fill="#8C6239" font-family="'KozGoPro-Regular-90ms-RKSJ-H'" font-size="12.4201">ください</tspan><tspan x="12.82" y="59.616" fill="#8C6239" font-family="'Interstate-Regular'" font-size="12.4201">                            </tspan></text>
<text transform="matrix(1 0 0 1 199.9517 178.9097)"><tspan x="0" y="0" fill="#8C6239" font-family="'KozGoPro-Regular-90ms-RKSJ-H'" font-size="12.4201">使用する</tspan><tspan x="-3.949" y="14.904" fill="#8C6239" font-family="'KozGoPro-Regular-90ms-RKSJ-H'" font-size="12.4201">ホームペ</tspan><tspan x="45.731" y="14.904" fill="#8C6239" font-family="'Interstate-Regular'" font-size="12.4201">   </tspan><tspan x="-8.271" y="29.809" fill="#8C6239" font-family="'KozGoPro-Regular-90ms-RKSJ-H'" font-size="12.4201">ージを</tspan><tspan x="28.989" y="29.809" fill="#8C6239" font-family="'Interstate-Regular'" font-size="12.4201">           </tspan><tspan x="-28.962" y="44.712" fill="#8C6239" font-family="'KozGoPro-Regular-90ms-RKSJ-H'" font-size="12.4201">選択して</tspan><tspan x="20.719" y="44.712" fill="#8C6239" font-family="'Interstate-Regular'" font-size="12.4201">                      </tspan><tspan x="-36.861" y="59.616" fill="#8C6239" font-family="'KozGoPro-Regular-90ms-RKSJ-H'" font-size="12.4201">ください</tspan><tspan x="12.819" y="59.616" fill="#8C6239" font-family="'Interstate-Regular'" font-size="12.4201">                            </tspan></text>
</svg>
