<?xml version="1.0" encoding="UTF-8" standalone="no"?>
<!DOCTYPE svg PUBLIC "-//W3C//DTD SVG 1.0//EN"
 "http://www.w3.org/TR/2001/REC-SVG-20010904/DTD/svg10.dtd">
<!-- Generated by fdp version 2.2 (Sat Feb  5 01:37:52 UTC 2005)
     For user: (stub) Stuart Bishop,,,   Title: g    Pages: 1 -->
<svg width="471px" height="535px"
 viewBox = "-1 -1 470 534"
 xmlns="http://www.w3.org/2000/svg">
<g id="graph0" class="graph" transform = "scale(0.733520)"
 style="font-family:Times-Roman;font-size:14.00;">
<title>g</title>
<text text-anchor="middle" style="font-size:22.00;" x="318" y="710">Bounty</text>
<g id="node1" class="node"><title>bounty</title>
<polygon style="fill:#c1cdcc;stroke:#c1cdcc;" points="301,534 301,348 451,348 451,534 301,534"/>
<polygon style="fill:white;stroke:white;" points="304,363 304,351 448,351 448,363 304,363"/>
<text text-anchor="middle" style="font-size:6.00;" x="376" y="359">bounty</text>
<polygon style="fill:none;stroke:black;" points="304,363 304,351 448,351 448,363 304,363"/>
<text text-anchor="middle" style="font-size:6.00;" x="309" y="372">id</text>
<text text-anchor="middle" style="font-size:6.00;" x="351" y="372">serial</text>
<text text-anchor="middle" style="font-size:6.00;" x="409" y="372"> PRIMARY KEY </text>
<text text-anchor="middle" style="font-size:6.00;" x="314" y="384">name</text>
<text text-anchor="middle" style="font-size:6.00;" x="350" y="384">text</text>
<text text-anchor="middle" style="font-size:6.00;" x="400" y="384"> UNIQUE </text>
<text text-anchor="middle" style="font-size:6.00;" x="312" y="396">title</text>
<text text-anchor="middle" style="font-size:6.00;" x="350" y="396">text</text>
<text text-anchor="middle" style="font-size:6.00;" x="318" y="408">summary</text>
<text text-anchor="middle" style="font-size:6.00;" x="350" y="408">text</text>
<text text-anchor="middle" style="font-size:6.00;" x="321" y="420">description</text>
<text text-anchor="middle" style="font-size:6.00;" x="350" y="420">text</text>
<text text-anchor="middle" style="font-size:6.00;" x="318" y="432">usdvalue</text>
<text text-anchor="middle" style="font-size:6.00;" x="362" y="432">numeric(10,2)</text>
<text text-anchor="middle" style="font-size:6.00;" x="318" y="444">difficulty</text>
<text text-anchor="middle" style="font-size:6.00;" x="353" y="444">integer</text>
<text text-anchor="middle" style="font-size:6.00;" x="317" y="456">duration</text>
<text text-anchor="middle" style="font-size:6.00;" x="354" y="456">interval</text>
<text text-anchor="middle" style="font-size:6.00;" x="318" y="468">reviewer</text>
<text text-anchor="middle" style="font-size:6.00;" x="353" y="468">integer</text>
<text text-anchor="middle" style="font-size:6.00;" x="416" y="468"> REFERENCES person </text>
<text text-anchor="middle" style="font-size:6.00;" x="321" y="480">datecreated</text>
<text text-anchor="middle" style="font-size:6.00;" x="358" y="480">timestamp</text>
<text text-anchor="middle" style="font-size:6.00;" x="315" y="492">owner</text>
<text text-anchor="middle" style="font-size:6.00;" x="353" y="492">integer</text>
<text text-anchor="middle" style="font-size:6.00;" x="416" y="492"> REFERENCES person </text>
<text text-anchor="middle" style="font-size:6.00;" x="317" y="504">deadline</text>
<text text-anchor="middle" style="font-size:6.00;" x="358" y="504">timestamp</text>
<text text-anchor="middle" style="font-size:6.00;" x="317" y="516">claimant</text>
<text text-anchor="middle" style="font-size:6.00;" x="353" y="516">integer</text>
<text text-anchor="middle" style="font-size:6.00;" x="416" y="516"> REFERENCES person </text>
<text text-anchor="middle" style="font-size:6.00;" x="322" y="528">dateclaimed</text>
<text text-anchor="middle" style="font-size:6.00;" x="358" y="528">timestamp</text>
<polygon style="fill:none;stroke:black;" points="301,534 301,348 451,348 451,534 301,534"/>
</g>
<g id="node4" class="node"><title>person</title>
<polygon style="fill:#c1cdcc;stroke:#c1cdcc;" points="247,222 247,12 427,12 427,222 247,222"/>
<polygon style="fill:white;stroke:white;" points="250,27 250,15 424,15 424,27 250,27"/>
<text text-anchor="middle" style="font-size:6.00;" x="337" y="23">person</text>
<polygon style="fill:none;stroke:black;" points="250,27 250,15 424,15 424,27 250,27"/>
<text text-anchor="middle" style="font-size:6.00;" x="255" y="36">id</text>
<text text-anchor="middle" style="font-size:6.00;" x="330" y="36">serial</text>
<text text-anchor="middle" style="font-size:6.00;" x="379" y="36"> PRIMARY KEY </text>
<text text-anchor="middle" style="font-size:6.00;" x="268" y="48">displayname</text>
<text text-anchor="middle" style="font-size:6.00;" x="329" y="48">text</text>
<text text-anchor="middle" style="font-size:6.00;" x="266" y="60">givenname</text>
<text text-anchor="middle" style="font-size:6.00;" x="329" y="60">text</text>
<text text-anchor="middle" style="font-size:6.00;" x="267" y="72">familyname</text>
<text text-anchor="middle" style="font-size:6.00;" x="329" y="72">text</text>
<text text-anchor="middle" style="font-size:6.00;" x="265" y="84">password</text>
<text text-anchor="middle" style="font-size:6.00;" x="329" y="84">text</text>
<text text-anchor="middle" style="font-size:6.00;" x="266" y="96">teamowner</text>
<text text-anchor="middle" style="font-size:6.00;" x="332" y="96">integer</text>
<text text-anchor="middle" style="font-size:6.00;" x="386" y="96"> REFERENCES person </text>
<text text-anchor="middle" style="font-size:6.00;" x="272" y="108">teamdescription</text>
<text text-anchor="middle" style="font-size:6.00;" x="329" y="108">text</text>
<text text-anchor="middle" style="font-size:6.00;" x="261" y="120">karma</text>
<text text-anchor="middle" style="font-size:6.00;" x="332" y="120">integer</text>
<text text-anchor="middle" style="font-size:6.00;" x="273" y="132">karmatimestamp</text>
<text text-anchor="middle" style="font-size:6.00;" x="337" y="132">timestamp</text>
<text text-anchor="middle" style="font-size:6.00;" x="260" y="144">name</text>
<text text-anchor="middle" style="font-size:6.00;" x="329" y="144">text</text>
<text text-anchor="middle" style="font-size:6.00;" x="264" y="156">language</text>
<text text-anchor="middle" style="font-size:6.00;" x="332" y="156">integer</text>
<text text-anchor="middle" style="font-size:6.00;" x="389" y="156"> REFERENCES language </text>
<text text-anchor="middle" style="font-size:6.00;" x="256" y="168">fti</text>
<text text-anchor="middle" style="font-size:6.00;" x="334" y="168">tsvector</text>
<text text-anchor="middle" style="font-size:6.00;" x="284" y="180">defaultmembershipperiod</text>
<text text-anchor="middle" style="font-size:6.00;" x="332" y="180">integer</text>
<text text-anchor="middle" style="font-size:6.00;" x="279" y="192">defaultrenewalperiod</text>
<text text-anchor="middle" style="font-size:6.00;" x="332" y="192">integer</text>
<text text-anchor="middle" style="font-size:6.00;" x="275" y="204">subscriptionpolicy</text>
<text text-anchor="middle" style="font-size:6.00;" x="332" y="204">integer</text>
<text text-anchor="middle" style="font-size:6.00;" x="262" y="216">merged</text>
<text text-anchor="middle" style="font-size:6.00;" x="332" y="216">integer</text>
<text text-anchor="middle" style="font-size:6.00;" x="386" y="216"> REFERENCES person </text>
<polygon style="fill:none;stroke:black;" points="247,222 247,12 427,12 427,222 247,222"/>
</g>
<g id="edge2" class="edge"><title>bounty&#45;&gt;person</title>
<path style="fill:none;stroke:black;" d="M351,344C346,310 341,272 338,236"/>
<polygon style="fill:black;stroke:black;" points="335,236 337,226 341,236 335,236"/>
</g>
<g id="edge4" class="edge"><title>bounty&#45;&gt;person</title>
<path style="fill:none;stroke:black;" d="M375,344C372,310 368,272 363,236"/>
<polygon style="fill:black;stroke:black;" points="360,236 362,226 366,236 360,236"/>
</g>
<g id="edge6" class="edge"><title>bounty&#45;&gt;person</title>
<path style="fill:none;stroke:black;" d="M363,344C359,310 355,272 350,236"/>
<polygon style="fill:black;stroke:black;" points="347,236 349,226 353,236 347,236"/>
</g>
<g id="node2" class="node"><title>bountysubscription</title>
<polygon style="fill:#c1cdcc;stroke:#c1cdcc;" points="467,262 467,196 623,196 623,262 467,262"/>
<polygon style="fill:white;stroke:white;" points="470,211 470,199 620,199 620,211 470,211"/>
<text text-anchor="middle" style="font-size:6.00;" x="545" y="207">bountysubscription</text>
<polygon style="fill:none;stroke:black;" points="470,211 470,199 620,199 620,211 470,211"/>
<text text-anchor="middle" style="font-size:6.00;" x="475" y="220">id</text>
<text text-anchor="middle" style="font-size:6.00;" x="516" y="220">serial</text>
<text text-anchor="middle" style="font-size:6.00;" x="556" y="220"> PRIMARY KEY </text>
<text text-anchor="middle" style="font-size:6.00;" x="482" y="232">bounty</text>
<text text-anchor="middle" style="font-size:6.00;" x="518" y="232">integer</text>
<text text-anchor="middle" style="font-size:6.00;" x="576" y="232"> REFERENCES bounty UNIQUE </text>
<text text-anchor="middle" style="font-size:6.00;" x="481" y="244">person</text>
<text text-anchor="middle" style="font-size:6.00;" x="518" y="244">integer</text>
<text text-anchor="middle" style="font-size:6.00;" x="575" y="244"> REFERENCES person UNIQUE </text>
<text text-anchor="middle" style="font-size:6.00;" x="488" y="256">subscription</text>
<text text-anchor="middle" style="font-size:6.00;" x="518" y="256">integer</text>
<polygon style="fill:none;stroke:black;" points="467,262 467,196 623,196 623,262 467,262"/>
</g>
<g id="edge8" class="edge"><title>bountysubscription&#45;&gt;bounty</title>
<path style="fill:none;stroke:black;" d="M515,266C500,286 479,311 460,336"/>
<polygon style="fill:black;stroke:black;" points="463,338 454,344 457,334 463,338"/>
</g>
<g id="edge10" class="edge"><title>bountysubscription&#45;&gt;person</title>
<path style="fill:none;stroke:black;" d="M476,192C466,187 455,180 444,175"/>
<polygon style="fill:black;stroke:black;" points="442,178 435,170 445,172 442,178"/>
</g>
<g id="node3" class="node"><title>distrobounty</title>
<polygon style="fill:#c1cdcc;stroke:#c1cdcc;" points="44,572 44,518 210,518 210,572 44,572"/>
<polygon style="fill:white;stroke:white;" points="47,533 47,521 207,521 207,533 47,533"/>
<text text-anchor="middle" style="font-size:6.00;" x="127" y="529">distrobounty</text>
<polygon style="fill:none;stroke:black;" points="47,533 47,521 207,521 207,533 47,533"/>
<text text-anchor="middle" style="font-size:6.00;" x="52" y="542">id</text>
<text text-anchor="middle" style="font-size:6.00;" x="92" y="542">serial</text>
<text text-anchor="middle" style="font-size:6.00;" x="132" y="542"> PRIMARY KEY </text>
<text text-anchor="middle" style="font-size:6.00;" x="59" y="554">bounty</text>
<text text-anchor="middle" style="font-size:6.00;" x="94" y="554">integer</text>
<text text-anchor="middle" style="font-size:6.00;" x="152" y="554"> REFERENCES bounty UNIQUE </text>
<text text-anchor="middle" style="font-size:6.00;" x="64" y="566">distribution</text>
<text text-anchor="middle" style="font-size:6.00;" x="94" y="566">integer</text>
<text text-anchor="middle" style="font-size:6.00;" x="157" y="566"> UNIQUE REFERENCES distribution </text>
<polygon style="fill:none;stroke:black;" points="44,572 44,518 210,518 210,572 44,572"/>
</g>
<g id="edge12" class="edge"><title>distrobounty&#45;&gt;bounty</title>
<path style="fill:none;stroke:black;" d="M201,514C227,503 256,491 283,480"/>
<polygon style="fill:black;stroke:black;" points="282,476 293,476 285,483 282,476"/>
</g>
<g id="node13" class="node"><title>fake_distribution_97</title>
<ellipse cx="33" cy="466" rx="27" ry="18" style="fill:none;stroke:red;"/>
<text text-anchor="middle" style="font-size:6.00;" x="33" y="468">distribution</text>
</g>
<g id="edge14" class="edge"><title>distrobounty&#45;&gt;fake_distribution_97</title>
<path style="fill:none;stroke:black;" d="M90,514C79,505 68,495 58,487"/>
<polygon style="fill:black;stroke:black;" points="55,489 50,480 60,484 55,489"/>
</g>
<g id="edge16" class="edge"><title>person&#45;&gt;person</title>
<path style="fill:none;stroke:black;" d="M435,151C446,145 453,133 453,117 453,105 449,96 443,89"/>
<polygon style="fill:black;stroke:black;" points="441,92 435,83 445,86 441,92"/>
</g>
<g id="edge20" class="edge"><title>person&#45;&gt;person</title>
<path style="fill:none;stroke:black;" d="M435,195C456,187 471,161 471,117 471,80 460,55 444,44"/>
<polygon style="fill:black;stroke:black;" points="442,47 435,39 445,41 442,47"/>
</g>
<g id="node16" class="node"><title>fake_language_154</title>
<ellipse cx="192" cy="100" rx="27" ry="18" style="fill:none;stroke:red;"/>
<text text-anchor="middle" style="font-size:6.00;" x="192" y="102">language</text>
</g>
<g id="edge18" class="edge"><title>person&#45;&gt;fake_language_154</title>
<path style="fill:none;stroke:black;" d="M239,105C236,105 232,104 229,104"/>
<polygon style="fill:black;stroke:black;" points="229,107 219,103 229,101 229,107"/>
</g>
<g id="node5" class="node"><title>productbounty</title>
<polygon style="fill:#c1cdcc;stroke:#c1cdcc;" points="377,613 377,559 525,559 525,613 377,613"/>
<polygon style="fill:white;stroke:white;" points="380,574 380,562 522,562 522,574 380,574"/>
<text text-anchor="middle" style="font-size:6.00;" x="451" y="570">productbounty</text>
<polygon style="fill:none;stroke:black;" points="380,574 380,562 522,562 522,574 380,574"/>
<text text-anchor="middle" style="font-size:6.00;" x="385" y="583">id</text>
<text text-anchor="middle" style="font-size:6.00;" x="416" y="583">serial</text>
<text text-anchor="middle" style="font-size:6.00;" x="456" y="583"> PRIMARY KEY </text>
<text text-anchor="middle" style="font-size:6.00;" x="392" y="595">bounty</text>
<text text-anchor="middle" style="font-size:6.00;" x="418" y="595">integer</text>
<text text-anchor="middle" style="font-size:6.00;" x="476" y="595"> REFERENCES bounty UNIQUE </text>
<text text-anchor="middle" style="font-size:6.00;" x="392" y="607">product</text>
<text text-anchor="middle" style="font-size:6.00;" x="418" y="607">integer</text>
<text text-anchor="middle" style="font-size:6.00;" x="477" y="607"> UNIQUE REFERENCES product </text>
<polygon style="fill:none;stroke:black;" points="377,613 377,559 525,559 525,613 377,613"/>
</g>
<g id="edge22" class="edge"><title>productbounty&#45;&gt;bounty</title>
<path style="fill:none;stroke:black;" d="M435,555C434,553 432,550 431,547"/>
<polygon style="fill:black;stroke:black;" points="428,548 426,538 434,545 428,548"/>
</g>
<g id="node20" class="node"><title>fake_product_203</title>
<ellipse cx="407" cy="667" rx="27" ry="18" style="fill:none;stroke:red;"/>
<text text-anchor="middle" style="font-size:6.00;" x="407" y="669">product</text>
</g>
<g id="edge24" class="edge"><title>productbounty&#45;&gt;fake_product_203</title>
<path style="fill:none;stroke:black;" d="M434,617C430,625 425,633 421,641"/>
<polygon style="fill:black;stroke:black;" points="424,643 416,650 418,640 424,643"/>
</g>
<g id="node6" class="node"><title>projectbounty</title>
<polygon style="fill:#c1cdcc;stroke:#c1cdcc;" points="226,323 226,269 370,269 370,323 226,323"/>
<polygon style="fill:white;stroke:white;" points="229,284 229,272 367,272 367,284 229,284"/>
<text text-anchor="middle" style="font-size:6.00;" x="298" y="280">projectbounty</text>
<polygon style="fill:none;stroke:black;" points="229,284 229,272 367,272 367,284 229,284"/>
<text text-anchor="middle" style="font-size:6.00;" x="234" y="293">id</text>
<text text-anchor="middle" style="font-size:6.00;" x="263" y="293">serial</text>
<text text-anchor="middle" style="font-size:6.00;" x="303" y="293"> PRIMARY KEY </text>
<text text-anchor="middle" style="font-size:6.00;" x="241" y="305">bounty</text>
<text text-anchor="middle" style="font-size:6.00;" x="265" y="305">integer</text>
<text text-anchor="middle" style="font-size:6.00;" x="323" y="305"> REFERENCES bounty UNIQUE </text>
<text text-anchor="middle" style="font-size:6.00;" x="240" y="317">project</text>
<text text-anchor="middle" style="font-size:6.00;" x="265" y="317">integer</text>
<text text-anchor="middle" style="font-size:6.00;" x="323" y="317"> UNIQUE REFERENCES project </text>
<polygon style="fill:none;stroke:black;" points="226,323 226,269 370,269 370,323 226,323"/>
</g>
<g id="edge26" class="edge"><title>projectbounty&#45;&gt;bounty</title>
<path style="fill:none;stroke:black;" d="M315,327C316,329 318,332 319,335"/>
<polygon style="fill:black;stroke:black;" points="322,334 324,344 316,337 322,334"/>
</g>
<g id="node23" class="node"><title>fake_project_220</title>
<ellipse cx="444" cy="302" rx="27" ry="18" style="fill:none;stroke:red;"/>
<text text-anchor="middle" style="font-size:6.00;" x="444" y="304">project</text>
</g>
<g id="edge28" class="edge"><title>projectbounty&#45;&gt;fake_project_220</title>
<path style="fill:none;stroke:black;" d="M378,299C388,300 398,300 407,300"/>
<polygon style="fill:black;stroke:black;" points="407,297 417,301 407,303 407,297"/>
</g>
</g>
</svg>
