<?xml version="1.0" encoding="UTF-8" standalone="no"?>
<!DOCTYPE svg PUBLIC "-//W3C//DTD SVG 1.0//EN"
 "http://www.w3.org/TR/2001/REC-SVG-20010904/DTD/svg10.dtd">
<!-- Generated by fdp version 2.2 (Sat Feb  5 01:37:52 UTC 2005)
     For user: (stub) Stuart Bishop,,,   Title: g    Pages: 1 -->
<svg width="611px" height="535px"
 viewBox = "-1 -1 610 534"
 xmlns="http://www.w3.org/2000/svg">
<g id="graph0" class="graph" transform = "scale(0.656211)"
 style="font-family:Times-Roman;font-size:14.00;">
<title>g</title>
<text text-anchor="middle" style="font-size:22.00;" x="461" y="796">Bounty</text>
<g id="node1" class="node"><title>bounty</title>
<polygon style="fill:#c1cdcc;stroke:#c1cdcc;" points="362,538 362,352 512,352 512,538 362,538"/>
<polygon style="fill:white;stroke:white;" points="365,367 365,355 509,355 509,367 365,367"/>
<text text-anchor="middle" style="font-size:6.00;" x="437" y="363">bounty</text>
<polygon style="fill:none;stroke:black;" points="365,367 365,355 509,355 509,367 365,367"/>
<text text-anchor="middle" style="font-size:6.00;" x="370" y="376">id</text>
<text text-anchor="middle" style="font-size:6.00;" x="412" y="376">serial</text>
<text text-anchor="middle" style="font-size:6.00;" x="470" y="376"> PRIMARY KEY </text>
<text text-anchor="middle" style="font-size:6.00;" x="375" y="388">name</text>
<text text-anchor="middle" style="font-size:6.00;" x="411" y="388">text</text>
<text text-anchor="middle" style="font-size:6.00;" x="461" y="388"> UNIQUE </text>
<text text-anchor="middle" style="font-size:6.00;" x="373" y="400">title</text>
<text text-anchor="middle" style="font-size:6.00;" x="411" y="400">text</text>
<text text-anchor="middle" style="font-size:6.00;" x="379" y="412">summary</text>
<text text-anchor="middle" style="font-size:6.00;" x="411" y="412">text</text>
<text text-anchor="middle" style="font-size:6.00;" x="382" y="424">description</text>
<text text-anchor="middle" style="font-size:6.00;" x="411" y="424">text</text>
<text text-anchor="middle" style="font-size:6.00;" x="379" y="436">usdvalue</text>
<text text-anchor="middle" style="font-size:6.00;" x="423" y="436">numeric(10,2)</text>
<text text-anchor="middle" style="font-size:6.00;" x="379" y="448">difficulty</text>
<text text-anchor="middle" style="font-size:6.00;" x="414" y="448">integer</text>
<text text-anchor="middle" style="font-size:6.00;" x="378" y="460">duration</text>
<text text-anchor="middle" style="font-size:6.00;" x="415" y="460">interval</text>
<text text-anchor="middle" style="font-size:6.00;" x="379" y="472">reviewer</text>
<text text-anchor="middle" style="font-size:6.00;" x="414" y="472">integer</text>
<text text-anchor="middle" style="font-size:6.00;" x="477" y="472"> REFERENCES person </text>
<text text-anchor="middle" style="font-size:6.00;" x="382" y="484">datecreated</text>
<text text-anchor="middle" style="font-size:6.00;" x="419" y="484">timestamp</text>
<text text-anchor="middle" style="font-size:6.00;" x="376" y="496">owner</text>
<text text-anchor="middle" style="font-size:6.00;" x="414" y="496">integer</text>
<text text-anchor="middle" style="font-size:6.00;" x="477" y="496"> REFERENCES person </text>
<text text-anchor="middle" style="font-size:6.00;" x="378" y="508">deadline</text>
<text text-anchor="middle" style="font-size:6.00;" x="419" y="508">timestamp</text>
<text text-anchor="middle" style="font-size:6.00;" x="378" y="520">claimant</text>
<text text-anchor="middle" style="font-size:6.00;" x="414" y="520">integer</text>
<text text-anchor="middle" style="font-size:6.00;" x="477" y="520"> REFERENCES person </text>
<text text-anchor="middle" style="font-size:6.00;" x="383" y="532">dateclaimed</text>
<text text-anchor="middle" style="font-size:6.00;" x="419" y="532">timestamp</text>
<polygon style="fill:none;stroke:black;" points="362,538 362,352 512,352 512,538 362,538"/>
</g>
<g id="node4" class="node"><title>person</title>
<polygon style="fill:#c1cdcc;stroke:#c1cdcc;" points="579,320 579,98 781,98 781,320 579,320"/>
<polygon style="fill:white;stroke:white;" points="582,113 582,101 778,101 778,113 582,113"/>
<text text-anchor="middle" style="font-size:6.00;" x="680" y="109">person</text>
<polygon style="fill:none;stroke:black;" points="582,113 582,101 778,101 778,113 582,113"/>
<text text-anchor="middle" style="font-size:6.00;" x="587" y="122">id</text>
<text text-anchor="middle" style="font-size:6.00;" x="662" y="122">serial</text>
<text text-anchor="middle" style="font-size:6.00;" x="711" y="122"> PRIMARY KEY </text>
<text text-anchor="middle" style="font-size:6.00;" x="600" y="134">displayname</text>
<text text-anchor="middle" style="font-size:6.00;" x="661" y="134">text</text>
<text text-anchor="middle" style="font-size:6.00;" x="598" y="146">givenname</text>
<text text-anchor="middle" style="font-size:6.00;" x="661" y="146">text</text>
<text text-anchor="middle" style="font-size:6.00;" x="599" y="158">familyname</text>
<text text-anchor="middle" style="font-size:6.00;" x="661" y="158">text</text>
<text text-anchor="middle" style="font-size:6.00;" x="597" y="170">password</text>
<text text-anchor="middle" style="font-size:6.00;" x="661" y="170">text</text>
<text text-anchor="middle" style="font-size:6.00;" x="598" y="182">teamowner</text>
<text text-anchor="middle" style="font-size:6.00;" x="664" y="182">integer</text>
<text text-anchor="middle" style="font-size:6.00;" x="718" y="182"> REFERENCES person </text>
<text text-anchor="middle" style="font-size:6.00;" x="604" y="194">teamdescription</text>
<text text-anchor="middle" style="font-size:6.00;" x="661" y="194">text</text>
<text text-anchor="middle" style="font-size:6.00;" x="592" y="206">name</text>
<text text-anchor="middle" style="font-size:6.00;" x="661" y="206">text</text>
<text text-anchor="middle" style="font-size:6.00;" x="596" y="218">language</text>
<text text-anchor="middle" style="font-size:6.00;" x="664" y="218">integer</text>
<text text-anchor="middle" style="font-size:6.00;" x="721" y="218"> REFERENCES language </text>
<text text-anchor="middle" style="font-size:6.00;" x="588" y="230">fti</text>
<text text-anchor="middle" style="font-size:6.00;" x="666" y="230">tsvector</text>
<text text-anchor="middle" style="font-size:6.00;" x="616" y="242">defaultmembershipperiod</text>
<text text-anchor="middle" style="font-size:6.00;" x="664" y="242">integer</text>
<text text-anchor="middle" style="font-size:6.00;" x="611" y="254">defaultrenewalperiod</text>
<text text-anchor="middle" style="font-size:6.00;" x="664" y="254">integer</text>
<text text-anchor="middle" style="font-size:6.00;" x="607" y="266">subscriptionpolicy</text>
<text text-anchor="middle" style="font-size:6.00;" x="664" y="266">integer</text>
<text text-anchor="middle" style="font-size:6.00;" x="594" y="278">merged</text>
<text text-anchor="middle" style="font-size:6.00;" x="664" y="278">integer</text>
<text text-anchor="middle" style="font-size:6.00;" x="718" y="278"> REFERENCES person </text>
<text text-anchor="middle" style="font-size:6.00;" x="599" y="290">datecreated</text>
<text text-anchor="middle" style="font-size:6.00;" x="669" y="290">timestamp</text>
<text text-anchor="middle" style="font-size:6.00;" x="595" y="302">calendar</text>
<text text-anchor="middle" style="font-size:6.00;" x="664" y="302">integer</text>
<text text-anchor="middle" style="font-size:6.00;" x="732" y="302"> REFERENCES calendar UNIQUE </text>
<text text-anchor="middle" style="font-size:6.00;" x="596" y="314">timezone</text>
<text text-anchor="middle" style="font-size:6.00;" x="661" y="314">text</text>
<polygon style="fill:none;stroke:black;" points="579,320 579,98 781,98 781,320 579,320"/>
</g>
<g id="edge2" class="edge"><title>bounty&#45;&gt;person</title>
<path style="fill:none;stroke:black;" d="M519,348C534,333 548,319 563,304"/>
<polygon style="fill:black;stroke:black;" points="561,301 571,297 566,306 561,301"/>
</g>
<g id="edge4" class="edge"><title>bounty&#45;&gt;person</title>
<path style="fill:none;stroke:black;" d="M520,380C537,365 554,349 572,331"/>
<polygon style="fill:black;stroke:black;" points="569,329 579,324 574,334 569,329"/>
</g>
<g id="edge6" class="edge"><title>bounty&#45;&gt;person</title>
<path style="fill:none;stroke:black;" d="M520,363C534,349 549,335 563,321"/>
<polygon style="fill:black;stroke:black;" points="561,318 571,314 566,323 561,318"/>
</g>
<g id="node2" class="node"><title>bountysubscription</title>
<polygon style="fill:#c1cdcc;stroke:#c1cdcc;" points="390,235 390,169 546,169 546,235 390,235"/>
<polygon style="fill:white;stroke:white;" points="393,184 393,172 543,172 543,184 393,184"/>
<text text-anchor="middle" style="font-size:6.00;" x="468" y="180">bountysubscription</text>
<polygon style="fill:none;stroke:black;" points="393,184 393,172 543,172 543,184 393,184"/>
<text text-anchor="middle" style="font-size:6.00;" x="398" y="193">id</text>
<text text-anchor="middle" style="font-size:6.00;" x="439" y="193">serial</text>
<text text-anchor="middle" style="font-size:6.00;" x="479" y="193"> PRIMARY KEY </text>
<text text-anchor="middle" style="font-size:6.00;" x="405" y="205">bounty</text>
<text text-anchor="middle" style="font-size:6.00;" x="441" y="205">integer</text>
<text text-anchor="middle" style="font-size:6.00;" x="499" y="205"> REFERENCES bounty UNIQUE </text>
<text text-anchor="middle" style="font-size:6.00;" x="404" y="217">person</text>
<text text-anchor="middle" style="font-size:6.00;" x="441" y="217">integer</text>
<text text-anchor="middle" style="font-size:6.00;" x="498" y="217"> REFERENCES person UNIQUE </text>
<text text-anchor="middle" style="font-size:6.00;" x="411" y="229">subscription</text>
<text text-anchor="middle" style="font-size:6.00;" x="441" y="229">integer</text>
<polygon style="fill:none;stroke:black;" points="390,235 390,169 546,169 546,235 390,235"/>
</g>
<g id="edge8" class="edge"><title>bountysubscription&#45;&gt;bounty</title>
<path style="fill:none;stroke:black;" d="M463,239C460,265 455,303 451,338"/>
<polygon style="fill:black;stroke:black;" points="454,338 450,348 448,338 454,338"/>
</g>
<g id="edge10" class="edge"><title>bountysubscription&#45;&gt;person</title>
<path style="fill:none;stroke:black;" d="M554,205C556,205 559,205 561,205"/>
<polygon style="fill:black;stroke:black;" points="561,202 571,206 561,208 561,202"/>
</g>
<g id="node3" class="node"><title>distrobounty</title>
<polygon style="fill:#c1cdcc;stroke:#c1cdcc;" points="270,646 270,592 436,592 436,646 270,646"/>
<polygon style="fill:white;stroke:white;" points="273,607 273,595 433,595 433,607 273,607"/>
<text text-anchor="middle" style="font-size:6.00;" x="353" y="603">distrobounty</text>
<polygon style="fill:none;stroke:black;" points="273,607 273,595 433,595 433,607 273,607"/>
<text text-anchor="middle" style="font-size:6.00;" x="278" y="616">id</text>
<text text-anchor="middle" style="font-size:6.00;" x="318" y="616">serial</text>
<text text-anchor="middle" style="font-size:6.00;" x="358" y="616"> PRIMARY KEY </text>
<text text-anchor="middle" style="font-size:6.00;" x="285" y="628">bounty</text>
<text text-anchor="middle" style="font-size:6.00;" x="320" y="628">integer</text>
<text text-anchor="middle" style="font-size:6.00;" x="378" y="628"> REFERENCES bounty UNIQUE </text>
<text text-anchor="middle" style="font-size:6.00;" x="290" y="640">distribution</text>
<text text-anchor="middle" style="font-size:6.00;" x="320" y="640">integer</text>
<text text-anchor="middle" style="font-size:6.00;" x="383" y="640"> UNIQUE REFERENCES distribution </text>
<polygon style="fill:none;stroke:black;" points="270,646 270,592 436,592 436,646 270,646"/>
</g>
<g id="edge12" class="edge"><title>distrobounty&#45;&gt;bounty</title>
<path style="fill:none;stroke:black;" d="M368,588C373,577 379,565 386,551"/>
<polygon style="fill:black;stroke:black;" points="383,550 390,542 389,553 383,550"/>
</g>
<g id="node13" class="node"><title>fake_distribution_101</title>
<ellipse cx="271" cy="753" rx="27" ry="18" style="fill:none;stroke:red;"/>
<text text-anchor="middle" style="font-size:6.00;" x="271" y="755">distribution</text>
</g>
<g id="edge14" class="edge"><title>distrobounty&#45;&gt;fake_distribution_101</title>
<path style="fill:none;stroke:black;" d="M334,650C320,674 301,706 287,727"/>
<polygon style="fill:black;stroke:black;" points="289,730 281,736 284,726 289,730"/>
</g>
<g id="edge16" class="edge"><title>person&#45;&gt;person</title>
<path style="fill:none;stroke:black;" d="M789,244C800,237 807,225 807,209 807,197 803,188 797,181"/>
<polygon style="fill:black;stroke:black;" points="794,183 789,174 799,178 794,183"/>
</g>
<g id="edge20" class="edge"><title>person&#45;&gt;person</title>
<path style="fill:none;stroke:black;" d="M789,290C810,281 825,254 825,209 825,171 814,145 798,133"/>
<polygon style="fill:black;stroke:black;" points="796,136 789,128 799,130 796,136"/>
</g>
<g id="node16" class="node"><title>fake_language_165</title>
<ellipse cx="890" cy="299" rx="27" ry="18" style="fill:none;stroke:red;"/>
<text text-anchor="middle" style="font-size:6.00;" x="890" y="301">language</text>
</g>
<g id="edge18" class="edge"><title>person&#45;&gt;fake_language_165</title>
<path style="fill:none;stroke:black;" d="M789,256C814,267 839,277 858,285"/>
<polygon style="fill:black;stroke:black;" points="859,282 867,289 856,288 859,282"/>
</g>
<g id="node19" class="node"><title>fake_calendar_168</title>
<ellipse cx="537" cy="28" rx="27" ry="18" style="fill:none;stroke:red;"/>
<text text-anchor="middle" style="font-size:6.00;" x="537" y="30">calendar</text>
</g>
<g id="edge22" class="edge"><title>person&#45;&gt;fake_calendar_168</title>
<path style="fill:none;stroke:black;" d="M589,94C577,78 565,63 556,52"/>
<polygon style="fill:black;stroke:black;" points="553,54 550,44 559,50 553,54"/>
</g>
<g id="node5" class="node"><title>productbounty</title>
<polygon style="fill:#c1cdcc;stroke:#c1cdcc;" points="573,624 573,570 721,570 721,624 573,624"/>
<polygon style="fill:white;stroke:white;" points="576,585 576,573 718,573 718,585 576,585"/>
<text text-anchor="middle" style="font-size:6.00;" x="647" y="581">productbounty</text>
<polygon style="fill:none;stroke:black;" points="576,585 576,573 718,573 718,585 576,585"/>
<text text-anchor="middle" style="font-size:6.00;" x="581" y="594">id</text>
<text text-anchor="middle" style="font-size:6.00;" x="612" y="594">serial</text>
<text text-anchor="middle" style="font-size:6.00;" x="652" y="594"> PRIMARY KEY </text>
<text text-anchor="middle" style="font-size:6.00;" x="588" y="606">bounty</text>
<text text-anchor="middle" style="font-size:6.00;" x="614" y="606">integer</text>
<text text-anchor="middle" style="font-size:6.00;" x="672" y="606"> REFERENCES bounty UNIQUE </text>
<text text-anchor="middle" style="font-size:6.00;" x="588" y="618">product</text>
<text text-anchor="middle" style="font-size:6.00;" x="614" y="618">integer</text>
<text text-anchor="middle" style="font-size:6.00;" x="673" y="618"> UNIQUE REFERENCES product </text>
<polygon style="fill:none;stroke:black;" points="573,624 573,570 721,570 721,624 573,624"/>
</g>
<g id="edge24" class="edge"><title>productbounty&#45;&gt;bounty</title>
<path style="fill:none;stroke:black;" d="M604,566C582,550 555,530 528,511"/>
<polygon style="fill:black;stroke:black;" points="526,514 520,505 530,508 526,514"/>
</g>
<g id="node22" class="node"><title>fake_product_225</title>
<ellipse cx="748" cy="706" rx="27" ry="18" style="fill:none;stroke:red;"/>
<text text-anchor="middle" style="font-size:6.00;" x="748" y="708">product</text>
</g>
<g id="edge26" class="edge"><title>productbounty&#45;&gt;fake_product_225</title>
<path style="fill:none;stroke:black;" d="M676,628C692,645 712,666 727,682"/>
<polygon style="fill:black;stroke:black;" points="730,680 734,690 725,685 730,680"/>
</g>
<g id="node6" class="node"><title>projectbounty</title>
<polygon style="fill:#c1cdcc;stroke:#c1cdcc;" points="111,404 111,350 255,350 255,404 111,404"/>
<polygon style="fill:white;stroke:white;" points="114,365 114,353 252,353 252,365 114,365"/>
<text text-anchor="middle" style="font-size:6.00;" x="183" y="361">projectbounty</text>
<polygon style="fill:none;stroke:black;" points="114,365 114,353 252,353 252,365 114,365"/>
<text text-anchor="middle" style="font-size:6.00;" x="119" y="374">id</text>
<text text-anchor="middle" style="font-size:6.00;" x="148" y="374">serial</text>
<text text-anchor="middle" style="font-size:6.00;" x="188" y="374"> PRIMARY KEY </text>
<text text-anchor="middle" style="font-size:6.00;" x="126" y="386">bounty</text>
<text text-anchor="middle" style="font-size:6.00;" x="150" y="386">integer</text>
<text text-anchor="middle" style="font-size:6.00;" x="208" y="386"> REFERENCES bounty UNIQUE </text>
<text text-anchor="middle" style="font-size:6.00;" x="125" y="398">project</text>
<text text-anchor="middle" style="font-size:6.00;" x="150" y="398">integer</text>
<text text-anchor="middle" style="font-size:6.00;" x="208" y="398"> UNIQUE REFERENCES project </text>
<polygon style="fill:none;stroke:black;" points="111,404 111,350 255,350 255,404 111,404"/>
</g>
<g id="edge28" class="edge"><title>projectbounty&#45;&gt;bounty</title>
<path style="fill:none;stroke:black;" d="M263,398C289,405 317,413 344,420"/>
<polygon style="fill:black;stroke:black;" points="345,417 354,422 344,423 345,417"/>
</g>
<g id="node25" class="node"><title>fake_project_244</title>
<ellipse cx="33" cy="388" rx="27" ry="18" style="fill:none;stroke:red;"/>
<text text-anchor="middle" style="font-size:6.00;" x="33" y="390">project</text>
</g>
<g id="edge30" class="edge"><title>projectbounty&#45;&gt;fake_project_244</title>
<path style="fill:none;stroke:black;" d="M103,383C91,384 80,384 70,385"/>
<polygon style="fill:black;stroke:black;" points="70,388 60,386 70,382 70,388"/>
</g>
</g>
</svg>
