<?xml version="1.0" encoding="UTF-8" standalone="no"?>
<!DOCTYPE svg PUBLIC "-//W3C//DTD SVG 1.0//EN"
 "http://www.w3.org/TR/2001/REC-SVG-20010904/DTD/svg10.dtd">
<!-- Generated by fdp version 2.2.1 (Tue Oct 11 01:38:21 UTC 2005)
     For user: (stub) Stuart Bishop,,,   Title: g    Pages: 1 -->
<svg width="1130px" height="1114px"
 viewBox = "-1 -1 1129 1113"
 xmlns="http://www.w3.org/2000/svg">
<g id="graph0" class="graph" style="font-family:Times-Roman;font-size:14.00;">
<title>g</title>
<text text-anchor="middle" style="font-size:22.00;" x="564" y="1096">Bounty</text>
<g id="node1" class="node"><title>bounty</title>
<polygon style="fill:#c1cdcc;stroke:#c1cdcc;" points="395,482 395,266 585,266 585,482 395,482"/>
<polygon style="fill:white;stroke:white;" points="398,283 398,269 582,269 582,283 398,283"/>
<text text-anchor="middle" style="font-size:8.00;" x="490" y="279">bounty</text>
<polygon style="fill:none;stroke:black;" points="398,283 398,269 582,269 582,283 398,283"/>
<text text-anchor="middle" style="font-size:8.00;" x="404" y="294">id</text>
<text text-anchor="middle" style="font-size:8.00;" x="457" y="294">serial</text>
<text text-anchor="middle" style="font-size:8.00;" x="531" y="294"> PRIMARY KEY </text>
<text text-anchor="middle" style="font-size:8.00;" x="410" y="308">name</text>
<text text-anchor="middle" style="font-size:8.00;" x="455" y="308">text</text>
<text text-anchor="middle" style="font-size:8.00;" x="519" y="308"> UNIQUE </text>
<text text-anchor="middle" style="font-size:8.00;" x="407" y="322">title</text>
<text text-anchor="middle" style="font-size:8.00;" x="455" y="322">text</text>
<text text-anchor="middle" style="font-size:8.00;" x="416" y="336">summary</text>
<text text-anchor="middle" style="font-size:8.00;" x="455" y="336">text</text>
<text text-anchor="middle" style="font-size:8.00;" x="418" y="350">description</text>
<text text-anchor="middle" style="font-size:8.00;" x="455" y="350">text</text>
<text text-anchor="middle" style="font-size:8.00;" x="415" y="364">usdvalue</text>
<text text-anchor="middle" style="font-size:8.00;" x="472" y="364">numeric(10,2)</text>
<text text-anchor="middle" style="font-size:8.00;" x="415" y="378">difficulty</text>
<text text-anchor="middle" style="font-size:8.00;" x="460" y="378">integer</text>
<text text-anchor="middle" style="font-size:8.00;" x="415" y="392">reviewer</text>
<text text-anchor="middle" style="font-size:8.00;" x="460" y="392">integer</text>
<text text-anchor="middle" style="font-size:8.00;" x="541" y="392"> REFERENCES person </text>
<text text-anchor="middle" style="font-size:8.00;" x="419" y="406">datecreated</text>
<text text-anchor="middle" style="font-size:8.00;" x="466" y="406">timestamp</text>
<text text-anchor="middle" style="font-size:8.00;" x="411" y="420">owner</text>
<text text-anchor="middle" style="font-size:8.00;" x="460" y="420">integer</text>
<text text-anchor="middle" style="font-size:8.00;" x="541" y="420"> REFERENCES person </text>
<text text-anchor="middle" style="font-size:8.00;" x="414" y="434">deadline</text>
<text text-anchor="middle" style="font-size:8.00;" x="466" y="434">timestamp</text>
<text text-anchor="middle" style="font-size:8.00;" x="414" y="448">claimant</text>
<text text-anchor="middle" style="font-size:8.00;" x="460" y="448">integer</text>
<text text-anchor="middle" style="font-size:8.00;" x="541" y="448"> REFERENCES person </text>
<text text-anchor="middle" style="font-size:8.00;" x="420" y="462">dateclaimed</text>
<text text-anchor="middle" style="font-size:8.00;" x="466" y="462">timestamp</text>
<text text-anchor="middle" style="font-size:8.00;" x="421" y="476">bountystatus</text>
<text text-anchor="middle" style="font-size:8.00;" x="460" y="476">integer</text>
<polygon style="fill:none;stroke:black;" points="395,482 395,266 585,266 585,482 395,482"/>
</g>
<g id="node5" class="node"><title>person</title>
<polygon style="fill:#c1cdcc;stroke:#c1cdcc;" points="655,944 655,546 913,546 913,944 655,944"/>
<polygon style="fill:white;stroke:white;" points="658,563 658,549 910,549 910,563 658,563"/>
<text text-anchor="middle" style="font-size:8.00;" x="784" y="559">person</text>
<polygon style="fill:none;stroke:black;" points="658,563 658,549 910,549 910,563 658,563"/>
<text text-anchor="middle" style="font-size:8.00;" x="664" y="574">id</text>
<text text-anchor="middle" style="font-size:8.00;" x="759" y="574">serial</text>
<text text-anchor="middle" style="font-size:8.00;" x="821" y="574"> PRIMARY KEY </text>
<text text-anchor="middle" style="font-size:8.00;" x="681" y="588">displayname</text>
<text text-anchor="middle" style="font-size:8.00;" x="757" y="588">text</text>
<text text-anchor="middle" style="font-size:8.00;" x="676" y="602">password</text>
<text text-anchor="middle" style="font-size:8.00;" x="757" y="602">text</text>
<text text-anchor="middle" style="font-size:8.00;" x="679" y="616">teamowner</text>
<text text-anchor="middle" style="font-size:8.00;" x="762" y="616">integer</text>
<text text-anchor="middle" style="font-size:8.00;" x="831" y="616"> REFERENCES person </text>
<text text-anchor="middle" style="font-size:8.00;" x="687" y="630">teamdescription</text>
<text text-anchor="middle" style="font-size:8.00;" x="757" y="630">text</text>
<text text-anchor="middle" style="font-size:8.00;" x="670" y="644">name</text>
<text text-anchor="middle" style="font-size:8.00;" x="757" y="644">text</text>
<text text-anchor="middle" style="font-size:8.00;" x="676" y="658">language</text>
<text text-anchor="middle" style="font-size:8.00;" x="762" y="658">integer</text>
<text text-anchor="middle" style="font-size:8.00;" x="835" y="658"> REFERENCES language </text>
<text text-anchor="middle" style="font-size:8.00;" x="665" y="672">fti</text>
<text text-anchor="middle" style="font-size:8.00;" x="764" y="672">tsvector</text>
<text text-anchor="middle" style="font-size:8.00;" x="702" y="686">defaultmembershipperiod</text>
<text text-anchor="middle" style="font-size:8.00;" x="762" y="686">integer</text>
<text text-anchor="middle" style="font-size:8.00;" x="695" y="700">defaultrenewalperiod</text>
<text text-anchor="middle" style="font-size:8.00;" x="762" y="700">integer</text>
<text text-anchor="middle" style="font-size:8.00;" x="690" y="714">subscriptionpolicy</text>
<text text-anchor="middle" style="font-size:8.00;" x="762" y="714">integer</text>
<text text-anchor="middle" style="font-size:8.00;" x="673" y="728">merged</text>
<text text-anchor="middle" style="font-size:8.00;" x="762" y="728">integer</text>
<text text-anchor="middle" style="font-size:8.00;" x="831" y="728"> REFERENCES person </text>
<text text-anchor="middle" style="font-size:8.00;" x="679" y="742">datecreated</text>
<text text-anchor="middle" style="font-size:8.00;" x="768" y="742">timestamp</text>
<text text-anchor="middle" style="font-size:8.00;" x="674" y="756">calendar</text>
<text text-anchor="middle" style="font-size:8.00;" x="762" y="756">integer</text>
<text text-anchor="middle" style="font-size:8.00;" x="850" y="756"> REFERENCES calendar UNIQUE </text>
<text text-anchor="middle" style="font-size:8.00;" x="676" y="770">timezone</text>
<text text-anchor="middle" style="font-size:8.00;" x="757" y="770">text</text>
<text text-anchor="middle" style="font-size:8.00;" x="681" y="784">addressline1</text>
<text text-anchor="middle" style="font-size:8.00;" x="757" y="784">text</text>
<text text-anchor="middle" style="font-size:8.00;" x="681" y="798">addressline2</text>
<text text-anchor="middle" style="font-size:8.00;" x="757" y="798">text</text>
<text text-anchor="middle" style="font-size:8.00;" x="681" y="812">organization</text>
<text text-anchor="middle" style="font-size:8.00;" x="757" y="812">text</text>
<text text-anchor="middle" style="font-size:8.00;" x="667" y="826">city</text>
<text text-anchor="middle" style="font-size:8.00;" x="757" y="826">text</text>
<text text-anchor="middle" style="font-size:8.00;" x="675" y="840">province</text>
<text text-anchor="middle" style="font-size:8.00;" x="757" y="840">text</text>
<text text-anchor="middle" style="font-size:8.00;" x="673" y="854">country</text>
<text text-anchor="middle" style="font-size:8.00;" x="762" y="854">integer</text>
<text text-anchor="middle" style="font-size:8.00;" x="832" y="854"> REFERENCES country </text>
<text text-anchor="middle" style="font-size:8.00;" x="675" y="868">postcode</text>
<text text-anchor="middle" style="font-size:8.00;" x="757" y="868">text</text>
<text text-anchor="middle" style="font-size:8.00;" x="671" y="882">phone</text>
<text text-anchor="middle" style="font-size:8.00;" x="757" y="882">text</text>
<text text-anchor="middle" style="font-size:8.00;" x="692" y="896">homepage_content</text>
<text text-anchor="middle" style="font-size:8.00;" x="757" y="896">text</text>
<text text-anchor="middle" style="font-size:8.00;" x="674" y="910">emblem</text>
<text text-anchor="middle" style="font-size:8.00;" x="762" y="910">integer</text>
<text text-anchor="middle" style="font-size:8.00;" x="843" y="910"> REFERENCES libraryfilealias </text>
<text text-anchor="middle" style="font-size:8.00;" x="682" y="924">hackergotchi</text>
<text text-anchor="middle" style="font-size:8.00;" x="762" y="924">integer</text>
<text text-anchor="middle" style="font-size:8.00;" x="843" y="924"> REFERENCES libraryfilealias </text>
<text text-anchor="middle" style="font-size:8.00;" x="696" y="938">hide_email_addresses</text>
<text text-anchor="middle" style="font-size:8.00;" x="764" y="938">boolean</text>
<polygon style="fill:none;stroke:black;" points="655,944 655,546 913,546 913,944 655,944"/>
</g>
<g id="edge2" class="edge"><title>bounty&#45;&gt;person</title>
<path style="fill:none;stroke:black;" d="M593,456C608,470 623,486 636,501 645,511 653,523 662,534"/>
<polygon style="fill:black;stroke:black;" points="665,532 668,542 659,536 665,532"/>
</g>
<g id="edge4" class="edge"><title>bounty&#45;&gt;person</title>
<path style="fill:none;stroke:black;" d="M593,456C608,470 623,486 636,501 645,511 653,523 662,534"/>
<polygon style="fill:black;stroke:black;" points="665,532 668,542 659,536 665,532"/>
</g>
<g id="edge6" class="edge"><title>bounty&#45;&gt;person</title>
<path style="fill:none;stroke:black;" d="M593,456C608,470 623,486 636,501 645,511 653,523 662,534"/>
<polygon style="fill:black;stroke:black;" points="665,532 668,542 659,536 665,532"/>
</g>
<g id="node2" class="node"><title>bountymessage</title>
<polygon style="fill:#c1cdcc;stroke:#c1cdcc;" points="367,242 367,180 559,180 559,242 367,242"/>
<polygon style="fill:white;stroke:white;" points="370,197 370,183 556,183 556,197 370,197"/>
<text text-anchor="middle" style="font-size:8.00;" x="463" y="193">bountymessage</text>
<polygon style="fill:none;stroke:black;" points="370,197 370,183 556,183 556,197 370,197"/>
<text text-anchor="middle" style="font-size:8.00;" x="376" y="208">id</text>
<text text-anchor="middle" style="font-size:8.00;" x="416" y="208">serial</text>
<text text-anchor="middle" style="font-size:8.00;" x="467" y="208"> PRIMARY KEY </text>
<text text-anchor="middle" style="font-size:8.00;" x="384" y="222">bounty</text>
<text text-anchor="middle" style="font-size:8.00;" x="419" y="222">integer</text>
<text text-anchor="middle" style="font-size:8.00;" x="493" y="222"> REFERENCES bounty UNIQUE </text>
<text text-anchor="middle" style="font-size:8.00;" x="387" y="236">message</text>
<text text-anchor="middle" style="font-size:8.00;" x="419" y="236">integer</text>
<text text-anchor="middle" style="font-size:8.00;" x="496" y="236"> UNIQUE REFERENCES message </text>
<polygon style="fill:none;stroke:black;" points="367,242 367,180 559,180 559,242 367,242"/>
</g>
<g id="edge8" class="edge"><title>bountymessage&#45;&gt;bounty</title>
<path style="fill:none;stroke:black;" d="M469,246C469,248 470,250 470,252"/>
<polygon style="fill:black;stroke:black;" points="473,252 472,262 467,253 473,252"/>
</g>
<g id="node12" class="node"><title>fake_message_15</title>
<ellipse cx="437" cy="43" rx="27" ry="18" style="fill:none;stroke:red;"/>
<text text-anchor="middle" style="font-size:8.00;" x="437" y="46">message</text>
</g>
<g id="edge10" class="edge"><title>bountymessage&#45;&gt;fake_message_15</title>
<path style="fill:none;stroke:black;" d="M458,176C453,145 446,100 441,71"/>
<polygon style="fill:black;stroke:black;" points="438,71 440,61 444,71 438,71"/>
</g>
<g id="node3" class="node"><title>bountysubscription</title>
<polygon style="fill:#c1cdcc;stroke:#c1cdcc;" points="441,569 441,507 623,507 623,569 441,569"/>
<polygon style="fill:white;stroke:white;" points="444,524 444,510 620,510 620,524 444,524"/>
<text text-anchor="middle" style="font-size:8.00;" x="532" y="520">bountysubscription</text>
<polygon style="fill:none;stroke:black;" points="444,524 444,510 620,510 620,524 444,524"/>
<text text-anchor="middle" style="font-size:8.00;" x="450" y="535">id</text>
<text text-anchor="middle" style="font-size:8.00;" x="485" y="535">serial</text>
<text text-anchor="middle" style="font-size:8.00;" x="536" y="535"> PRIMARY KEY </text>
<text text-anchor="middle" style="font-size:8.00;" x="458" y="549">bounty</text>
<text text-anchor="middle" style="font-size:8.00;" x="488" y="549">integer</text>
<text text-anchor="middle" style="font-size:8.00;" x="562" y="549"> REFERENCES bounty UNIQUE </text>
<text text-anchor="middle" style="font-size:8.00;" x="458" y="563">person</text>
<text text-anchor="middle" style="font-size:8.00;" x="488" y="563">integer</text>
<text text-anchor="middle" style="font-size:8.00;" x="562" y="563"> REFERENCES person UNIQUE </text>
<polygon style="fill:none;stroke:black;" points="441,569 441,507 623,507 623,569 441,569"/>
</g>
<g id="edge12" class="edge"><title>bountysubscription&#45;&gt;bounty</title>
<path style="fill:none;stroke:black;" d="M523,503C523,501 522,498 521,496"/>
<polygon style="fill:black;stroke:black;" points="518,496 519,486 524,495 518,496"/>
</g>
<g id="edge14" class="edge"><title>bountysubscription&#45;&gt;person</title>
<path style="fill:none;stroke:black;" d="M575,573C593,588 616,607 639,626"/>
<polygon style="fill:black;stroke:black;" points="641,623 647,632 637,629 641,623"/>
</g>
<g id="node4" class="node"><title>distributionbounty</title>
<polygon style="fill:#c1cdcc;stroke:#c1cdcc;" points="97,540 97,478 309,478 309,540 97,540"/>
<polygon style="fill:white;stroke:white;" points="100,495 100,481 306,481 306,495 100,495"/>
<text text-anchor="middle" style="font-size:8.00;" x="203" y="491">distributionbounty</text>
<polygon style="fill:none;stroke:black;" points="100,495 100,481 306,481 306,495 100,495"/>
<text text-anchor="middle" style="font-size:8.00;" x="106" y="506">id</text>
<text text-anchor="middle" style="font-size:8.00;" x="156" y="506">serial</text>
<text text-anchor="middle" style="font-size:8.00;" x="207" y="506"> PRIMARY KEY </text>
<text text-anchor="middle" style="font-size:8.00;" x="114" y="520">bounty</text>
<text text-anchor="middle" style="font-size:8.00;" x="159" y="520">integer</text>
<text text-anchor="middle" style="font-size:8.00;" x="233" y="520"> UNIQUE REFERENCES bounty </text>
<text text-anchor="middle" style="font-size:8.00;" x="121" y="534">distribution</text>
<text text-anchor="middle" style="font-size:8.00;" x="159" y="534">integer</text>
<text text-anchor="middle" style="font-size:8.00;" x="241" y="534"> UNIQUE REFERENCES distribution </text>
<polygon style="fill:none;stroke:black;" points="97,540 97,478 309,478 309,540 97,540"/>
</g>
<g id="edge16" class="edge"><title>distributionbounty&#45;&gt;bounty</title>
<path style="fill:none;stroke:black;" d="M278,474C308,459 344,443 378,427"/>
<polygon style="fill:black;stroke:black;" points="376,424 387,423 379,430 376,424"/>
</g>
<g id="node17" class="node"><title>fake_distribution_104</title>
<ellipse cx="36" cy="581" rx="30" ry="18" style="fill:none;stroke:red;"/>
<text text-anchor="middle" style="font-size:8.00;" x="36" y="584">distribution</text>
</g>
<g id="edge18" class="edge"><title>distributionbounty&#45;&gt;fake_distribution_104</title>
<path style="fill:none;stroke:black;" d="M121,544C103,551 85,559 70,566"/>
<polygon style="fill:black;stroke:black;" points="72,569 61,570 69,563 72,569"/>
</g>
<g id="edge24" class="edge"><title>person&#45;&gt;person</title>
<path style="fill:none;stroke:black;" d="M921,803C932,790 939,771 939,745 939,724 934,708 927,695"/>
<polygon style="fill:black;stroke:black;" points="924,697 921,687 930,693 924,697"/>
</g>
<g id="edge20" class="edge"><title>person&#45;&gt;person</title>
<path style="fill:none;stroke:black;" d="M921,883C943,863 957,816 957,745 957,682 946,638 928,615"/>
<polygon style="fill:black;stroke:black;" points="925,617 921,607 930,612 925,617"/>
</g>
<g id="node20" class="node"><title>fake_language_189</title>
<ellipse cx="813" cy="1053" rx="27" ry="18" style="fill:none;stroke:red;"/>
<text text-anchor="middle" style="font-size:8.00;" x="813" y="1056">language</text>
</g>
<g id="edge22" class="edge"><title>person&#45;&gt;fake_language_189</title>
<path style="fill:none;stroke:black;" d="M803,948C806,978 809,1006 810,1025"/>
<polygon style="fill:black;stroke:black;" points="813,1025 811,1035 807,1025 813,1025"/>
</g>
<g id="node23" class="node"><title>fake_calendar_192</title>
<ellipse cx="978" cy="986" rx="27" ry="18" style="fill:none;stroke:red;"/>
<text text-anchor="middle" style="font-size:8.00;" x="978" y="989">calendar</text>
</g>
<g id="edge26" class="edge"><title>person&#45;&gt;fake_calendar_192</title>
<path style="fill:none;stroke:black;" d="M921,915C936,933 949,949 959,962"/>
<polygon style="fill:black;stroke:black;" points="962,960 965,970 956,964 962,960"/>
</g>
<g id="node25" class="node"><title>fake_country_194</title>
<ellipse cx="626" cy="1011" rx="27" ry="18" style="fill:none;stroke:red;"/>
<text text-anchor="middle" style="font-size:8.00;" x="626" y="1014">country</text>
</g>
<g id="edge28" class="edge"><title>person&#45;&gt;fake_country_194</title>
<path style="fill:none;stroke:black;" d="M663,948C655,963 647,975 641,985"/>
<polygon style="fill:black;stroke:black;" points="644,987 636,994 638,984 644,987"/>
</g>
<g id="node27" class="node"><title>fake_libraryfilealias_196</title>
<ellipse cx="1085" cy="646" rx="35" ry="18" style="fill:none;stroke:red;"/>
<text text-anchor="middle" style="font-size:8.00;" x="1085" y="649">libraryfilealias</text>
</g>
<g id="edge30" class="edge"><title>person&#45;&gt;fake_libraryfilealias_196</title>
<path style="fill:none;stroke:black;" d="M921,700C967,686 1014,669 1045,659"/>
<polygon style="fill:black;stroke:black;" points="1044,656 1055,656 1046,662 1044,656"/>
</g>
<g id="node29" class="node"><title>fake_libraryfilealias_198</title>
<ellipse cx="1087" cy="843" rx="35" ry="18" style="fill:none;stroke:red;"/>
<text text-anchor="middle" style="font-size:8.00;" x="1087" y="846">libraryfilealias</text>
</g>
<g id="edge32" class="edge"><title>person&#45;&gt;fake_libraryfilealias_198</title>
<path style="fill:none;stroke:black;" d="M921,789C967,804 1015,820 1047,830"/>
<polygon style="fill:black;stroke:black;" points="1048,827 1057,833 1046,833 1048,827"/>
</g>
<g id="node6" class="node"><title>productbounty</title>
<polygon style="fill:#c1cdcc;stroke:#c1cdcc;" points="134,247 134,185 320,185 320,247 134,247"/>
<polygon style="fill:white;stroke:white;" points="137,202 137,188 317,188 317,202 137,202"/>
<text text-anchor="middle" style="font-size:8.00;" x="227" y="198">productbounty</text>
<polygon style="fill:none;stroke:black;" points="137,202 137,188 317,188 317,202 137,202"/>
<text text-anchor="middle" style="font-size:8.00;" x="143" y="213">id</text>
<text text-anchor="middle" style="font-size:8.00;" x="180" y="213">serial</text>
<text text-anchor="middle" style="font-size:8.00;" x="231" y="213"> PRIMARY KEY </text>
<text text-anchor="middle" style="font-size:8.00;" x="151" y="227">bounty</text>
<text text-anchor="middle" style="font-size:8.00;" x="183" y="227">integer</text>
<text text-anchor="middle" style="font-size:8.00;" x="257" y="227"> REFERENCES bounty UNIQUE </text>
<text text-anchor="middle" style="font-size:8.00;" x="152" y="241">product</text>
<text text-anchor="middle" style="font-size:8.00;" x="183" y="241">integer</text>
<text text-anchor="middle" style="font-size:8.00;" x="258" y="241"> UNIQUE REFERENCES product </text>
<polygon style="fill:none;stroke:black;" points="134,247 134,185 320,185 320,247 134,247"/>
</g>
<g id="edge34" class="edge"><title>productbounty&#45;&gt;bounty</title>
<path style="fill:none;stroke:black;" d="M285,251C313,268 346,287 378,307"/>
<polygon style="fill:black;stroke:black;" points="380,304 387,312 377,310 380,304"/>
</g>
<g id="node32" class="node"><title>fake_product_262</title>
<ellipse cx="86" cy="125" rx="27" ry="18" style="fill:none;stroke:red;"/>
<text text-anchor="middle" style="font-size:8.00;" x="86" y="128">product</text>
</g>
<g id="edge36" class="edge"><title>productbounty&#45;&gt;fake_product_262</title>
<path style="fill:none;stroke:black;" d="M172,181C153,168 131,154 115,144"/>
<polygon style="fill:black;stroke:black;" points="112,146 106,138 116,141 112,146"/>
</g>
<g id="node7" class="node"><title>projectbounty</title>
<polygon style="fill:#c1cdcc;stroke:#c1cdcc;" points="605,183 605,121 787,121 787,183 605,183"/>
<polygon style="fill:white;stroke:white;" points="608,138 608,124 784,124 784,138 608,138"/>
<text text-anchor="middle" style="font-size:8.00;" x="696" y="134">projectbounty</text>
<polygon style="fill:none;stroke:black;" points="608,138 608,124 784,124 784,138 608,138"/>
<text text-anchor="middle" style="font-size:8.00;" x="614" y="149">id</text>
<text text-anchor="middle" style="font-size:8.00;" x="649" y="149">serial</text>
<text text-anchor="middle" style="font-size:8.00;" x="700" y="149"> PRIMARY KEY </text>
<text text-anchor="middle" style="font-size:8.00;" x="622" y="163">bounty</text>
<text text-anchor="middle" style="font-size:8.00;" x="652" y="163">integer</text>
<text text-anchor="middle" style="font-size:8.00;" x="726" y="163"> REFERENCES bounty UNIQUE </text>
<text text-anchor="middle" style="font-size:8.00;" x="622" y="177">project</text>
<text text-anchor="middle" style="font-size:8.00;" x="652" y="177">integer</text>
<text text-anchor="middle" style="font-size:8.00;" x="726" y="177"> UNIQUE REFERENCES project </text>
<polygon style="fill:none;stroke:black;" points="605,183 605,121 787,121 787,183 605,183"/>
</g>
<g id="edge38" class="edge"><title>projectbounty&#45;&gt;bounty</title>
<path style="fill:none;stroke:black;" d="M663,187C646,206 623,230 600,255"/>
<polygon style="fill:black;stroke:black;" points="602,258 593,263 597,253 602,258"/>
</g>
<g id="node35" class="node"><title>fake_project_281</title>
<ellipse cx="800" cy="23" rx="27" ry="18" style="fill:none;stroke:red;"/>
<text text-anchor="middle" style="font-size:8.00;" x="800" y="26">project</text>
</g>
<g id="edge40" class="edge"><title>projectbounty&#45;&gt;fake_project_281</title>
<path style="fill:none;stroke:black;" d="M724,117C742,95 765,67 781,47"/>
<polygon style="fill:black;stroke:black;" points="778,45 787,39 784,49 778,45"/>
</g>
</g>
</svg>
