<?xml version="1.0" encoding="UTF-8" standalone="no"?>
<!DOCTYPE svg PUBLIC "-//W3C//DTD SVG 1.0//EN"
 "http://www.w3.org/TR/2001/REC-SVG-20010904/DTD/svg10.dtd">
<!-- Generated by fdp version 2.2.1 (Tue Oct 11 01:38:21 UTC 2005)
     For user: (stub) Stuart Bishop,,,   Title: g    Pages: 1 -->
<svg width="436px" height="535px"
 viewBox = "-1 -1 435 534"
 xmlns="http://www.w3.org/2000/svg">
<g id="graph0" class="graph" transform = "scale(0.432947)"
 style="font-family:Times-Roman;font-size:14.00;">
<title>g</title>
<text text-anchor="middle" style="font-size:22.00;" x="495" y="1215">Bounty</text>
<g id="node1" class="node"><title>bounty</title>
<polygon style="fill:#c1cdcc;stroke:#c1cdcc;" points="389,562 389,376 541,376 541,562 389,562"/>
<polygon style="fill:white;stroke:white;" points="392,391 392,379 538,379 538,391 392,391"/>
<text text-anchor="middle" style="font-size:6.00;" x="465" y="387">bounty</text>
<polygon style="fill:none;stroke:black;" points="392,391 392,379 538,379 538,391 392,391"/>
<text text-anchor="middle" style="font-size:6.00;" x="397" y="400">id</text>
<text text-anchor="middle" style="font-size:6.00;" x="441" y="400">serial</text>
<text text-anchor="middle" style="font-size:6.00;" x="499" y="400"> PRIMARY KEY </text>
<text text-anchor="middle" style="font-size:6.00;" x="402" y="412">name</text>
<text text-anchor="middle" style="font-size:6.00;" x="440" y="412">text</text>
<text text-anchor="middle" style="font-size:6.00;" x="490" y="412"> UNIQUE </text>
<text text-anchor="middle" style="font-size:6.00;" x="400" y="424">title</text>
<text text-anchor="middle" style="font-size:6.00;" x="440" y="424">text</text>
<text text-anchor="middle" style="font-size:6.00;" x="406" y="436">summary</text>
<text text-anchor="middle" style="font-size:6.00;" x="440" y="436">text</text>
<text text-anchor="middle" style="font-size:6.00;" x="409" y="448">description</text>
<text text-anchor="middle" style="font-size:6.00;" x="440" y="448">text</text>
<text text-anchor="middle" style="font-size:6.00;" x="406" y="460">usdvalue</text>
<text text-anchor="middle" style="font-size:6.00;" x="452" y="460">numeric(10,2)</text>
<text text-anchor="middle" style="font-size:6.00;" x="406" y="472">difficulty</text>
<text text-anchor="middle" style="font-size:6.00;" x="443" y="472">integer</text>
<text text-anchor="middle" style="font-size:6.00;" x="405" y="484">reviewer</text>
<text text-anchor="middle" style="font-size:6.00;" x="443" y="484">integer</text>
<text text-anchor="middle" style="font-size:6.00;" x="506" y="484"> REFERENCES person </text>
<text text-anchor="middle" style="font-size:6.00;" x="409" y="496">datecreated</text>
<text text-anchor="middle" style="font-size:6.00;" x="448" y="496">timestamp</text>
<text text-anchor="middle" style="font-size:6.00;" x="403" y="508">owner</text>
<text text-anchor="middle" style="font-size:6.00;" x="443" y="508">integer</text>
<text text-anchor="middle" style="font-size:6.00;" x="506" y="508"> REFERENCES person </text>
<text text-anchor="middle" style="font-size:6.00;" x="405" y="520">deadline</text>
<text text-anchor="middle" style="font-size:6.00;" x="448" y="520">timestamp</text>
<text text-anchor="middle" style="font-size:6.00;" x="405" y="532">claimant</text>
<text text-anchor="middle" style="font-size:6.00;" x="443" y="532">integer</text>
<text text-anchor="middle" style="font-size:6.00;" x="506" y="532"> REFERENCES person </text>
<text text-anchor="middle" style="font-size:6.00;" x="410" y="544">dateclaimed</text>
<text text-anchor="middle" style="font-size:6.00;" x="448" y="544">timestamp</text>
<text text-anchor="middle" style="font-size:6.00;" x="411" y="556">bountystatus</text>
<text text-anchor="middle" style="font-size:6.00;" x="443" y="556">integer</text>
<polygon style="fill:none;stroke:black;" points="389,562 389,376 541,376 541,562 389,562"/>
</g>
<g id="node5" class="node"><title>person</title>
<polygon style="fill:#c1cdcc;stroke:#c1cdcc;" points="545,1055 545,689 747,689 747,1055 545,1055"/>
<polygon style="fill:white;stroke:white;" points="548,704 548,692 744,692 744,704 548,704"/>
<text text-anchor="middle" style="font-size:6.00;" x="646" y="700">person</text>
<polygon style="fill:none;stroke:black;" points="548,704 548,692 744,692 744,704 548,704"/>
<text text-anchor="middle" style="font-size:6.00;" x="553" y="713">id</text>
<text text-anchor="middle" style="font-size:6.00;" x="628" y="713">serial</text>
<text text-anchor="middle" style="font-size:6.00;" x="677" y="713"> PRIMARY KEY </text>
<text text-anchor="middle" style="font-size:6.00;" x="566" y="725">displayname</text>
<text text-anchor="middle" style="font-size:6.00;" x="627" y="725">text</text>
<text text-anchor="middle" style="font-size:6.00;" x="564" y="737">givenname</text>
<text text-anchor="middle" style="font-size:6.00;" x="627" y="737">text</text>
<text text-anchor="middle" style="font-size:6.00;" x="565" y="749">familyname</text>
<text text-anchor="middle" style="font-size:6.00;" x="627" y="749">text</text>
<text text-anchor="middle" style="font-size:6.00;" x="562" y="761">password</text>
<text text-anchor="middle" style="font-size:6.00;" x="627" y="761">text</text>
<text text-anchor="middle" style="font-size:6.00;" x="564" y="773">teamowner</text>
<text text-anchor="middle" style="font-size:6.00;" x="630" y="773">integer</text>
<text text-anchor="middle" style="font-size:6.00;" x="684" y="773"> REFERENCES person </text>
<text text-anchor="middle" style="font-size:6.00;" x="571" y="785">teamdescription</text>
<text text-anchor="middle" style="font-size:6.00;" x="627" y="785">text</text>
<text text-anchor="middle" style="font-size:6.00;" x="558" y="797">name</text>
<text text-anchor="middle" style="font-size:6.00;" x="627" y="797">text</text>
<text text-anchor="middle" style="font-size:6.00;" x="562" y="809">language</text>
<text text-anchor="middle" style="font-size:6.00;" x="630" y="809">integer</text>
<text text-anchor="middle" style="font-size:6.00;" x="687" y="809"> REFERENCES language </text>
<text text-anchor="middle" style="font-size:6.00;" x="554" y="821">fti</text>
<text text-anchor="middle" style="font-size:6.00;" x="632" y="821">tsvector</text>
<text text-anchor="middle" style="font-size:6.00;" x="582" y="833">defaultmembershipperiod</text>
<text text-anchor="middle" style="font-size:6.00;" x="630" y="833">integer</text>
<text text-anchor="middle" style="font-size:6.00;" x="577" y="845">defaultrenewalperiod</text>
<text text-anchor="middle" style="font-size:6.00;" x="630" y="845">integer</text>
<text text-anchor="middle" style="font-size:6.00;" x="573" y="857">subscriptionpolicy</text>
<text text-anchor="middle" style="font-size:6.00;" x="630" y="857">integer</text>
<text text-anchor="middle" style="font-size:6.00;" x="560" y="869">merged</text>
<text text-anchor="middle" style="font-size:6.00;" x="630" y="869">integer</text>
<text text-anchor="middle" style="font-size:6.00;" x="684" y="869"> REFERENCES person </text>
<text text-anchor="middle" style="font-size:6.00;" x="565" y="881">datecreated</text>
<text text-anchor="middle" style="font-size:6.00;" x="635" y="881">timestamp</text>
<text text-anchor="middle" style="font-size:6.00;" x="561" y="893">calendar</text>
<text text-anchor="middle" style="font-size:6.00;" x="630" y="893">integer</text>
<text text-anchor="middle" style="font-size:6.00;" x="698" y="893"> REFERENCES calendar UNIQUE </text>
<text text-anchor="middle" style="font-size:6.00;" x="562" y="905">timezone</text>
<text text-anchor="middle" style="font-size:6.00;" x="627" y="905">text</text>
<text text-anchor="middle" style="font-size:6.00;" x="559" y="917">karma</text>
<text text-anchor="middle" style="font-size:6.00;" x="630" y="917">integer</text>
<text text-anchor="middle" style="font-size:6.00;" x="566" y="929">addressline1</text>
<text text-anchor="middle" style="font-size:6.00;" x="627" y="929">text</text>
<text text-anchor="middle" style="font-size:6.00;" x="566" y="941">addressline2</text>
<text text-anchor="middle" style="font-size:6.00;" x="627" y="941">text</text>
<text text-anchor="middle" style="font-size:6.00;" x="566" y="953">organization</text>
<text text-anchor="middle" style="font-size:6.00;" x="627" y="953">text</text>
<text text-anchor="middle" style="font-size:6.00;" x="556" y="965">city</text>
<text text-anchor="middle" style="font-size:6.00;" x="627" y="965">text</text>
<text text-anchor="middle" style="font-size:6.00;" x="562" y="977">province</text>
<text text-anchor="middle" style="font-size:6.00;" x="627" y="977">text</text>
<text text-anchor="middle" style="font-size:6.00;" x="561" y="989">country</text>
<text text-anchor="middle" style="font-size:6.00;" x="630" y="989">integer</text>
<text text-anchor="middle" style="font-size:6.00;" x="686" y="989"> REFERENCES country </text>
<text text-anchor="middle" style="font-size:6.00;" x="562" y="1001">postcode</text>
<text text-anchor="middle" style="font-size:6.00;" x="627" y="1001">text</text>
<text text-anchor="middle" style="font-size:6.00;" x="559" y="1013">phone</text>
<text text-anchor="middle" style="font-size:6.00;" x="627" y="1013">text</text>
<text text-anchor="middle" style="font-size:6.00;" x="574" y="1025">homepage_content</text>
<text text-anchor="middle" style="font-size:6.00;" x="627" y="1025">text</text>
<text text-anchor="middle" style="font-size:6.00;" x="561" y="1037">emblem</text>
<text text-anchor="middle" style="font-size:6.00;" x="630" y="1037">integer</text>
<text text-anchor="middle" style="font-size:6.00;" x="694" y="1037"> REFERENCES libraryfilealias </text>
<text text-anchor="middle" style="font-size:6.00;" x="567" y="1049">hackergotchi</text>
<text text-anchor="middle" style="font-size:6.00;" x="630" y="1049">integer</text>
<text text-anchor="middle" style="font-size:6.00;" x="694" y="1049"> REFERENCES libraryfilealias </text>
<polygon style="fill:none;stroke:black;" points="545,1055 545,689 747,689 747,1055 545,1055"/>
</g>
<g id="edge2" class="edge"><title>bounty&#45;&gt;person</title>
<path style="fill:none;stroke:black;" d="M521,566C538,599 555,637 572,675"/>
<polygon style="fill:black;stroke:black;" points="576,674 576,685 569,677 576,674"/>
</g>
<g id="edge4" class="edge"><title>bounty&#45;&gt;person</title>
<path style="fill:none;stroke:black;" d="M496,566C510,599 526,638 544,676"/>
<polygon style="fill:black;stroke:black;" points="547,674 548,685 541,677 547,674"/>
</g>
<g id="edge6" class="edge"><title>bounty&#45;&gt;person</title>
<path style="fill:none;stroke:black;" d="M509,566C524,599 541,637 558,675"/>
<polygon style="fill:black;stroke:black;" points="562,674 562,685 555,677 562,674"/>
</g>
<g id="node2" class="node"><title>bountymessage</title>
<polygon style="fill:#c1cdcc;stroke:#c1cdcc;" points="597,309 597,255 747,255 747,309 597,309"/>
<polygon style="fill:white;stroke:white;" points="600,270 600,258 744,258 744,270 600,270"/>
<text text-anchor="middle" style="font-size:6.00;" x="672" y="266">bountymessage</text>
<polygon style="fill:none;stroke:black;" points="600,270 600,258 744,258 744,270 600,270"/>
<text text-anchor="middle" style="font-size:6.00;" x="605" y="279">id</text>
<text text-anchor="middle" style="font-size:6.00;" x="637" y="279">serial</text>
<text text-anchor="middle" style="font-size:6.00;" x="677" y="279"> PRIMARY KEY </text>
<text text-anchor="middle" style="font-size:6.00;" x="612" y="291">bounty</text>
<text text-anchor="middle" style="font-size:6.00;" x="639" y="291">integer</text>
<text text-anchor="middle" style="font-size:6.00;" x="697" y="291"> REFERENCES bounty UNIQUE </text>
<text text-anchor="middle" style="font-size:6.00;" x="613" y="303">message</text>
<text text-anchor="middle" style="font-size:6.00;" x="639" y="303">integer</text>
<text text-anchor="middle" style="font-size:6.00;" x="698" y="303"> UNIQUE REFERENCES message </text>
<polygon style="fill:none;stroke:black;" points="597,309 597,255 747,255 747,309 597,309"/>
</g>
<g id="edge8" class="edge"><title>bountymessage&#45;&gt;bounty</title>
<path style="fill:none;stroke:black;" d="M637,313C615,333 585,360 557,386"/>
<polygon style="fill:black;stroke:black;" points="559,389 549,393 554,384 559,389"/>
</g>
<g id="node12" class="node"><title>fake_message_15</title>
<ellipse cx="790" cy="170" rx="27" ry="18" style="fill:none;stroke:red;"/>
<text text-anchor="middle" style="font-size:6.00;" x="790" y="172">message</text>
</g>
<g id="edge10" class="edge"><title>bountymessage&#45;&gt;fake_message_15</title>
<path style="fill:none;stroke:black;" d="M705,251C725,233 749,209 767,192"/>
<polygon style="fill:black;stroke:black;" points="764,190 774,185 769,195 764,190"/>
</g>
<g id="node3" class="node"><title>bountysubscription</title>
<polygon style="fill:#c1cdcc;stroke:#c1cdcc;" points="293,681 293,627 437,627 437,681 293,681"/>
<polygon style="fill:white;stroke:white;" points="296,642 296,630 434,630 434,642 296,642"/>
<text text-anchor="middle" style="font-size:6.00;" x="365" y="638">bountysubscription</text>
<polygon style="fill:none;stroke:black;" points="296,642 296,630 434,630 434,642 296,642"/>
<text text-anchor="middle" style="font-size:6.00;" x="301" y="651">id</text>
<text text-anchor="middle" style="font-size:6.00;" x="330" y="651">serial</text>
<text text-anchor="middle" style="font-size:6.00;" x="370" y="651"> PRIMARY KEY </text>
<text text-anchor="middle" style="font-size:6.00;" x="308" y="663">bounty</text>
<text text-anchor="middle" style="font-size:6.00;" x="332" y="663">integer</text>
<text text-anchor="middle" style="font-size:6.00;" x="390" y="663"> REFERENCES bounty UNIQUE </text>
<text text-anchor="middle" style="font-size:6.00;" x="307" y="675">person</text>
<text text-anchor="middle" style="font-size:6.00;" x="332" y="675">integer</text>
<text text-anchor="middle" style="font-size:6.00;" x="389" y="675"> REFERENCES person UNIQUE </text>
<polygon style="fill:none;stroke:black;" points="293,681 293,627 437,627 437,681 293,681"/>
</g>
<g id="edge12" class="edge"><title>bountysubscription&#45;&gt;bounty</title>
<path style="fill:none;stroke:black;" d="M382,623C389,609 398,593 407,575"/>
<polygon style="fill:black;stroke:black;" points="404,573 412,566 410,576 404,573"/>
</g>
<g id="edge14" class="edge"><title>bountysubscription&#45;&gt;person</title>
<path style="fill:none;stroke:black;" d="M405,685C438,710 485,746 529,781"/>
<polygon style="fill:black;stroke:black;" points="531,778 537,787 527,784 531,778"/>
</g>
<g id="node4" class="node"><title>distributionbounty</title>
<polygon style="fill:#c1cdcc;stroke:#c1cdcc;" points="110,397 110,343 276,343 276,397 110,397"/>
<polygon style="fill:white;stroke:white;" points="113,358 113,346 273,346 273,358 113,358"/>
<text text-anchor="middle" style="font-size:6.00;" x="193" y="354">distributionbounty</text>
<polygon style="fill:none;stroke:black;" points="113,358 113,346 273,346 273,358 113,358"/>
<text text-anchor="middle" style="font-size:6.00;" x="118" y="367">id</text>
<text text-anchor="middle" style="font-size:6.00;" x="158" y="367">serial</text>
<text text-anchor="middle" style="font-size:6.00;" x="198" y="367"> PRIMARY KEY </text>
<text text-anchor="middle" style="font-size:6.00;" x="125" y="379">bounty</text>
<text text-anchor="middle" style="font-size:6.00;" x="160" y="379">integer</text>
<text text-anchor="middle" style="font-size:6.00;" x="218" y="379"> UNIQUE REFERENCES bounty </text>
<text text-anchor="middle" style="font-size:6.00;" x="130" y="391">distribution</text>
<text text-anchor="middle" style="font-size:6.00;" x="160" y="391">integer</text>
<text text-anchor="middle" style="font-size:6.00;" x="223" y="391"> UNIQUE REFERENCES distribution </text>
<polygon style="fill:none;stroke:black;" points="110,397 110,343 276,343 276,397 110,397"/>
</g>
<g id="edge16" class="edge"><title>distributionbounty&#45;&gt;bounty</title>
<path style="fill:none;stroke:black;" d="M278,401C308,412 341,423 371,434"/>
<polygon style="fill:black;stroke:black;" points="373,431 381,438 370,438 373,431"/>
</g>
<g id="node17" class="node"><title>fake_distribution_101</title>
<ellipse cx="33" cy="316" rx="27" ry="18" style="fill:none;stroke:red;"/>
<text text-anchor="middle" style="font-size:6.00;" x="33" y="318">distribution</text>
</g>
<g id="edge18" class="edge"><title>distributionbounty&#45;&gt;fake_distribution_101</title>
<path style="fill:none;stroke:black;" d="M102,339C90,335 78,331 67,327"/>
<polygon style="fill:black;stroke:black;" points="66,330 57,324 68,324 66,330"/>
</g>
<g id="edge24" class="edge"><title>person&#45;&gt;person</title>
<path style="fill:none;stroke:black;" d="M755,929C766,917 773,899 773,872 773,850 769,835 761,823"/>
<polygon style="fill:black;stroke:black;" points="758,825 755,815 764,821 758,825"/>
</g>
<g id="edge20" class="edge"><title>person&#45;&gt;person</title>
<path style="fill:none;stroke:black;" d="M755,1005C776,989 791,945 791,872 791,808 779,766 762,746"/>
<polygon style="fill:black;stroke:black;" points="760,749 755,739 765,744 760,749"/>
</g>
<g id="node20" class="node"><title>fake_language_175</title>
<ellipse cx="680" cy="1172" rx="27" ry="18" style="fill:none;stroke:red;"/>
<text text-anchor="middle" style="font-size:6.00;" x="680" y="1174">language</text>
</g>
<g id="edge22" class="edge"><title>person&#45;&gt;fake_language_175</title>
<path style="fill:none;stroke:black;" d="M667,1059C670,1092 675,1123 677,1144"/>
<polygon style="fill:black;stroke:black;" points="680,1144 678,1154 674,1144 680,1144"/>
</g>
<g id="node23" class="node"><title>fake_calendar_178</title>
<ellipse cx="851" cy="1097" rx="27" ry="18" style="fill:none;stroke:red;"/>
<text text-anchor="middle" style="font-size:6.00;" x="851" y="1099">calendar</text>
</g>
<g id="edge26" class="edge"><title>person&#45;&gt;fake_calendar_178</title>
<path style="fill:none;stroke:black;" d="M755,992C784,1023 812,1054 830,1074"/>
<polygon style="fill:black;stroke:black;" points="832,1071 837,1081 827,1076 832,1071"/>
</g>
<g id="node25" class="node"><title>fake_country_180</title>
<ellipse cx="500" cy="1133" rx="27" ry="18" style="fill:none;stroke:red;"/>
<text text-anchor="middle" style="font-size:6.00;" x="500" y="1135">country</text>
</g>
<g id="edge28" class="edge"><title>person&#45;&gt;fake_country_180</title>
<path style="fill:none;stroke:black;" d="M541,1059C531,1077 522,1094 515,1107"/>
<polygon style="fill:black;stroke:black;" points="518,1109 510,1116 512,1106 518,1109"/>
</g>
<g id="node27" class="node"><title>fake_libraryfilealias_182</title>
<ellipse cx="955" cy="883" rx="29" ry="18" style="fill:none;stroke:red;"/>
<text text-anchor="middle" style="font-size:6.00;" x="955" y="885">libraryfilealias</text>
</g>
<g id="edge30" class="edge"><title>person&#45;&gt;fake_libraryfilealias_182</title>
<path style="fill:none;stroke:black;" d="M755,876C811,878 875,881 916,882"/>
<polygon style="fill:black;stroke:black;" points="916,878 926,882 916,885 916,878"/>
</g>
<g id="node29" class="node"><title>fake_libraryfilealias_184</title>
<ellipse cx="806" cy="883" rx="29" ry="18" style="fill:none;stroke:red;"/>
<text text-anchor="middle" style="font-size:6.00;" x="806" y="885">libraryfilealias</text>
</g>
<g id="edge32" class="edge"><title>person&#45;&gt;fake_libraryfilealias_184</title>
<path style="fill:none;stroke:black;" d="M755,880C759,880 763,880 767,881"/>
<polygon style="fill:black;stroke:black;" points="767,877 777,881 767,884 767,877"/>
</g>
<g id="node6" class="node"><title>productbounty</title>
<polygon style="fill:#c1cdcc;stroke:#c1cdcc;" points="339,222 339,168 487,168 487,222 339,222"/>
<polygon style="fill:white;stroke:white;" points="342,183 342,171 484,171 484,183 342,183"/>
<text text-anchor="middle" style="font-size:6.00;" x="413" y="179">productbounty</text>
<polygon style="fill:none;stroke:black;" points="342,183 342,171 484,171 484,183 342,183"/>
<text text-anchor="middle" style="font-size:6.00;" x="347" y="192">id</text>
<text text-anchor="middle" style="font-size:6.00;" x="378" y="192">serial</text>
<text text-anchor="middle" style="font-size:6.00;" x="418" y="192"> PRIMARY KEY </text>
<text text-anchor="middle" style="font-size:6.00;" x="354" y="204">bounty</text>
<text text-anchor="middle" style="font-size:6.00;" x="380" y="204">integer</text>
<text text-anchor="middle" style="font-size:6.00;" x="438" y="204"> REFERENCES bounty UNIQUE </text>
<text text-anchor="middle" style="font-size:6.00;" x="354" y="216">product</text>
<text text-anchor="middle" style="font-size:6.00;" x="380" y="216">integer</text>
<text text-anchor="middle" style="font-size:6.00;" x="439" y="216"> UNIQUE REFERENCES product </text>
<polygon style="fill:none;stroke:black;" points="339,222 339,168 487,168 487,222 339,222"/>
</g>
<g id="edge34" class="edge"><title>productbounty&#45;&gt;bounty</title>
<path style="fill:none;stroke:black;" d="M419,226C426,259 436,313 445,362"/>
<polygon style="fill:black;stroke:black;" points="448,362 447,372 442,363 448,362"/>
</g>
<g id="node32" class="node"><title>fake_product_242</title>
<ellipse cx="382" cy="36" rx="27" ry="18" style="fill:none;stroke:red;"/>
<text text-anchor="middle" style="font-size:6.00;" x="382" y="38">product</text>
</g>
<g id="edge36" class="edge"><title>productbounty&#45;&gt;fake_product_242</title>
<path style="fill:none;stroke:black;" d="M407,164C402,135 393,92 388,64"/>
<polygon style="fill:black;stroke:black;" points="385,64 386,54 391,63 385,64"/>
</g>
<g id="node7" class="node"><title>projectbounty</title>
<polygon style="fill:#c1cdcc;stroke:#c1cdcc;" points="305,761 305,707 449,707 449,761 305,761"/>
<polygon style="fill:white;stroke:white;" points="308,722 308,710 446,710 446,722 308,722"/>
<text text-anchor="middle" style="font-size:6.00;" x="377" y="718">projectbounty</text>
<polygon style="fill:none;stroke:black;" points="308,722 308,710 446,710 446,722 308,722"/>
<text text-anchor="middle" style="font-size:6.00;" x="313" y="731">id</text>
<text text-anchor="middle" style="font-size:6.00;" x="342" y="731">serial</text>
<text text-anchor="middle" style="font-size:6.00;" x="382" y="731"> PRIMARY KEY </text>
<text text-anchor="middle" style="font-size:6.00;" x="320" y="743">bounty</text>
<text text-anchor="middle" style="font-size:6.00;" x="344" y="743">integer</text>
<text text-anchor="middle" style="font-size:6.00;" x="402" y="743"> REFERENCES bounty UNIQUE </text>
<text text-anchor="middle" style="font-size:6.00;" x="319" y="755">project</text>
<text text-anchor="middle" style="font-size:6.00;" x="344" y="755">integer</text>
<text text-anchor="middle" style="font-size:6.00;" x="402" y="755"> UNIQUE REFERENCES project </text>
<polygon style="fill:none;stroke:black;" points="305,761 305,707 449,707 449,761 305,761"/>
</g>
<g id="edge38" class="edge"><title>projectbounty&#45;&gt;bounty</title>
<path style="fill:none;stroke:black;" d="M387,703C397,672 415,621 430,576"/>
<polygon style="fill:black;stroke:black;" points="427,575 433,566 433,577 427,575"/>
</g>
<g id="node35" class="node"><title>fake_project_261</title>
<ellipse cx="268" cy="843" rx="27" ry="18" style="fill:none;stroke:red;"/>
<text text-anchor="middle" style="font-size:6.00;" x="268" y="845">project</text>
</g>
<g id="edge40" class="edge"><title>projectbounty&#45;&gt;fake_project_261</title>
<path style="fill:none;stroke:black;" d="M346,765C329,782 306,805 290,821"/>
<polygon style="fill:black;stroke:black;" points="293,823 283,828 288,818 293,823"/>
</g>
</g>
</svg>
