<?xml version="1.0" encoding="UTF-8" standalone="no"?>
<!DOCTYPE svg PUBLIC "-//W3C//DTD SVG 1.0//EN"
 "http://www.w3.org/TR/2001/REC-SVG-20010904/DTD/svg10.dtd">
<!-- Generated by fdp version 2.2.1 (Tue Oct 11 01:38:21 UTC 2005)
     For user: (stub) Stuart Bishop,,,   Title: g    Pages: 1 -->
<svg width="1096px" height="1123px"
 viewBox = "-1 -1 1095 1122"
 xmlns="http://www.w3.org/2000/svg">
<g id="graph0" class="graph" style="font-family:Times-Roman;font-size:14.00;">
<title>g</title>
<text text-anchor="middle" style="font-size:22.00;" x="547" y="1105">Bounty</text>
<g id="node1" class="node"><title>bounty</title>
<polygon style="fill:#c1cdcc;stroke:#c1cdcc;" points="546,496 546,280 736,280 736,496 546,496"/>
<polygon style="fill:white;stroke:white;" points="549,297 549,283 733,283 733,297 549,297"/>
<text text-anchor="middle" style="font-size:8.00;" x="641" y="293">bounty</text>
<polygon style="fill:none;stroke:black;" points="549,297 549,283 733,283 733,297 549,297"/>
<text text-anchor="middle" style="font-size:8.00;" x="555" y="308">id</text>
<text text-anchor="middle" style="font-size:8.00;" x="608" y="308">serial</text>
<text text-anchor="middle" style="font-size:8.00;" x="682" y="308"> PRIMARY KEY </text>
<text text-anchor="middle" style="font-size:8.00;" x="561" y="322">name</text>
<text text-anchor="middle" style="font-size:8.00;" x="606" y="322">text</text>
<text text-anchor="middle" style="font-size:8.00;" x="670" y="322"> UNIQUE </text>
<text text-anchor="middle" style="font-size:8.00;" x="558" y="336">title</text>
<text text-anchor="middle" style="font-size:8.00;" x="606" y="336">text</text>
<text text-anchor="middle" style="font-size:8.00;" x="567" y="350">summary</text>
<text text-anchor="middle" style="font-size:8.00;" x="606" y="350">text</text>
<text text-anchor="middle" style="font-size:8.00;" x="569" y="364">description</text>
<text text-anchor="middle" style="font-size:8.00;" x="606" y="364">text</text>
<text text-anchor="middle" style="font-size:8.00;" x="566" y="378">usdvalue</text>
<text text-anchor="middle" style="font-size:8.00;" x="623" y="378">numeric(10,2)</text>
<text text-anchor="middle" style="font-size:8.00;" x="566" y="392">difficulty</text>
<text text-anchor="middle" style="font-size:8.00;" x="611" y="392">integer</text>
<text text-anchor="middle" style="font-size:8.00;" x="566" y="406">reviewer</text>
<text text-anchor="middle" style="font-size:8.00;" x="611" y="406">integer</text>
<text text-anchor="middle" style="font-size:8.00;" x="692" y="406"> REFERENCES person </text>
<text text-anchor="middle" style="font-size:8.00;" x="570" y="420">datecreated</text>
<text text-anchor="middle" style="font-size:8.00;" x="617" y="420">timestamp</text>
<text text-anchor="middle" style="font-size:8.00;" x="562" y="434">owner</text>
<text text-anchor="middle" style="font-size:8.00;" x="611" y="434">integer</text>
<text text-anchor="middle" style="font-size:8.00;" x="692" y="434"> REFERENCES person </text>
<text text-anchor="middle" style="font-size:8.00;" x="565" y="448">deadline</text>
<text text-anchor="middle" style="font-size:8.00;" x="617" y="448">timestamp</text>
<text text-anchor="middle" style="font-size:8.00;" x="565" y="462">claimant</text>
<text text-anchor="middle" style="font-size:8.00;" x="611" y="462">integer</text>
<text text-anchor="middle" style="font-size:8.00;" x="692" y="462"> REFERENCES person </text>
<text text-anchor="middle" style="font-size:8.00;" x="571" y="476">dateclaimed</text>
<text text-anchor="middle" style="font-size:8.00;" x="617" y="476">timestamp</text>
<text text-anchor="middle" style="font-size:8.00;" x="572" y="490">bountystatus</text>
<text text-anchor="middle" style="font-size:8.00;" x="611" y="490">integer</text>
<polygon style="fill:none;stroke:black;" points="546,496 546,280 736,280 736,496 546,496"/>
</g>
<g id="node5" class="node"><title>person</title>
<polygon style="fill:#c1cdcc;stroke:#c1cdcc;" points="205,943 205,545 463,545 463,943 205,943"/>
<polygon style="fill:white;stroke:white;" points="208,562 208,548 460,548 460,562 208,562"/>
<text text-anchor="middle" style="font-size:8.00;" x="334" y="558">person</text>
<polygon style="fill:none;stroke:black;" points="208,562 208,548 460,548 460,562 208,562"/>
<text text-anchor="middle" style="font-size:8.00;" x="214" y="573">id</text>
<text text-anchor="middle" style="font-size:8.00;" x="309" y="573">serial</text>
<text text-anchor="middle" style="font-size:8.00;" x="371" y="573"> PRIMARY KEY </text>
<text text-anchor="middle" style="font-size:8.00;" x="231" y="587">displayname</text>
<text text-anchor="middle" style="font-size:8.00;" x="307" y="587">text</text>
<text text-anchor="middle" style="font-size:8.00;" x="226" y="601">password</text>
<text text-anchor="middle" style="font-size:8.00;" x="307" y="601">text</text>
<text text-anchor="middle" style="font-size:8.00;" x="229" y="615">teamowner</text>
<text text-anchor="middle" style="font-size:8.00;" x="312" y="615">integer</text>
<text text-anchor="middle" style="font-size:8.00;" x="381" y="615"> REFERENCES person </text>
<text text-anchor="middle" style="font-size:8.00;" x="237" y="629">teamdescription</text>
<text text-anchor="middle" style="font-size:8.00;" x="307" y="629">text</text>
<text text-anchor="middle" style="font-size:8.00;" x="220" y="643">name</text>
<text text-anchor="middle" style="font-size:8.00;" x="307" y="643">text</text>
<text text-anchor="middle" style="font-size:8.00;" x="226" y="657">language</text>
<text text-anchor="middle" style="font-size:8.00;" x="312" y="657">integer</text>
<text text-anchor="middle" style="font-size:8.00;" x="385" y="657"> REFERENCES language </text>
<text text-anchor="middle" style="font-size:8.00;" x="215" y="671">fti</text>
<text text-anchor="middle" style="font-size:8.00;" x="314" y="671">tsvector</text>
<text text-anchor="middle" style="font-size:8.00;" x="252" y="685">defaultmembershipperiod</text>
<text text-anchor="middle" style="font-size:8.00;" x="312" y="685">integer</text>
<text text-anchor="middle" style="font-size:8.00;" x="245" y="699">defaultrenewalperiod</text>
<text text-anchor="middle" style="font-size:8.00;" x="312" y="699">integer</text>
<text text-anchor="middle" style="font-size:8.00;" x="240" y="713">subscriptionpolicy</text>
<text text-anchor="middle" style="font-size:8.00;" x="312" y="713">integer</text>
<text text-anchor="middle" style="font-size:8.00;" x="223" y="727">merged</text>
<text text-anchor="middle" style="font-size:8.00;" x="312" y="727">integer</text>
<text text-anchor="middle" style="font-size:8.00;" x="381" y="727"> REFERENCES person </text>
<text text-anchor="middle" style="font-size:8.00;" x="229" y="741">datecreated</text>
<text text-anchor="middle" style="font-size:8.00;" x="318" y="741">timestamp</text>
<text text-anchor="middle" style="font-size:8.00;" x="224" y="755">calendar</text>
<text text-anchor="middle" style="font-size:8.00;" x="312" y="755">integer</text>
<text text-anchor="middle" style="font-size:8.00;" x="400" y="755"> REFERENCES calendar UNIQUE </text>
<text text-anchor="middle" style="font-size:8.00;" x="226" y="769">timezone</text>
<text text-anchor="middle" style="font-size:8.00;" x="307" y="769">text</text>
<text text-anchor="middle" style="font-size:8.00;" x="231" y="783">addressline1</text>
<text text-anchor="middle" style="font-size:8.00;" x="307" y="783">text</text>
<text text-anchor="middle" style="font-size:8.00;" x="231" y="797">addressline2</text>
<text text-anchor="middle" style="font-size:8.00;" x="307" y="797">text</text>
<text text-anchor="middle" style="font-size:8.00;" x="231" y="811">organization</text>
<text text-anchor="middle" style="font-size:8.00;" x="307" y="811">text</text>
<text text-anchor="middle" style="font-size:8.00;" x="217" y="825">city</text>
<text text-anchor="middle" style="font-size:8.00;" x="307" y="825">text</text>
<text text-anchor="middle" style="font-size:8.00;" x="225" y="839">province</text>
<text text-anchor="middle" style="font-size:8.00;" x="307" y="839">text</text>
<text text-anchor="middle" style="font-size:8.00;" x="223" y="853">country</text>
<text text-anchor="middle" style="font-size:8.00;" x="312" y="853">integer</text>
<text text-anchor="middle" style="font-size:8.00;" x="382" y="853"> REFERENCES country </text>
<text text-anchor="middle" style="font-size:8.00;" x="225" y="867">postcode</text>
<text text-anchor="middle" style="font-size:8.00;" x="307" y="867">text</text>
<text text-anchor="middle" style="font-size:8.00;" x="221" y="881">phone</text>
<text text-anchor="middle" style="font-size:8.00;" x="307" y="881">text</text>
<text text-anchor="middle" style="font-size:8.00;" x="242" y="895">homepage_content</text>
<text text-anchor="middle" style="font-size:8.00;" x="307" y="895">text</text>
<text text-anchor="middle" style="font-size:8.00;" x="224" y="909">emblem</text>
<text text-anchor="middle" style="font-size:8.00;" x="312" y="909">integer</text>
<text text-anchor="middle" style="font-size:8.00;" x="393" y="909"> REFERENCES libraryfilealias </text>
<text text-anchor="middle" style="font-size:8.00;" x="232" y="923">hackergotchi</text>
<text text-anchor="middle" style="font-size:8.00;" x="312" y="923">integer</text>
<text text-anchor="middle" style="font-size:8.00;" x="393" y="923"> REFERENCES libraryfilealias </text>
<text text-anchor="middle" style="font-size:8.00;" x="246" y="937">hide_email_addresses</text>
<text text-anchor="middle" style="font-size:8.00;" x="314" y="937">boolean</text>
<polygon style="fill:none;stroke:black;" points="205,943 205,545 463,545 463,943 205,943"/>
</g>
<g id="edge2" class="edge"><title>bounty&#45;&gt;person</title>
<path style="fill:none;stroke:black;" d="M538,462C519,478 499,496 483,514 477,520 472,526 467,533"/>
<polygon style="fill:black;stroke:black;" points="469,536 460,541 464,531 469,536"/>
</g>
<g id="edge4" class="edge"><title>bounty&#45;&gt;person</title>
<path style="fill:none;stroke:black;" d="M538,462C519,478 499,496 483,514 477,520 472,526 467,533"/>
<polygon style="fill:black;stroke:black;" points="469,536 460,541 464,531 469,536"/>
</g>
<g id="edge6" class="edge"><title>bounty&#45;&gt;person</title>
<path style="fill:none;stroke:black;" d="M538,462C519,478 499,496 483,514 477,520 472,526 467,533"/>
<polygon style="fill:black;stroke:black;" points="469,536 460,541 464,531 469,536"/>
</g>
<g id="node2" class="node"><title>bountymessage</title>
<polygon style="fill:#c1cdcc;stroke:#c1cdcc;" points="814,566 814,504 1006,504 1006,566 814,566"/>
<polygon style="fill:white;stroke:white;" points="817,521 817,507 1003,507 1003,521 817,521"/>
<text text-anchor="middle" style="font-size:8.00;" x="910" y="517">bountymessage</text>
<polygon style="fill:none;stroke:black;" points="817,521 817,507 1003,507 1003,521 817,521"/>
<text text-anchor="middle" style="font-size:8.00;" x="823" y="532">id</text>
<text text-anchor="middle" style="font-size:8.00;" x="863" y="532">serial</text>
<text text-anchor="middle" style="font-size:8.00;" x="914" y="532"> PRIMARY KEY </text>
<text text-anchor="middle" style="font-size:8.00;" x="831" y="546">bounty</text>
<text text-anchor="middle" style="font-size:8.00;" x="866" y="546">integer</text>
<text text-anchor="middle" style="font-size:8.00;" x="940" y="546"> REFERENCES bounty UNIQUE </text>
<text text-anchor="middle" style="font-size:8.00;" x="834" y="560">message</text>
<text text-anchor="middle" style="font-size:8.00;" x="866" y="560">integer</text>
<text text-anchor="middle" style="font-size:8.00;" x="943" y="560"> UNIQUE REFERENCES message </text>
<polygon style="fill:none;stroke:black;" points="814,566 814,504 1006,504 1006,566 814,566"/>
</g>
<g id="edge8" class="edge"><title>bountymessage&#45;&gt;bounty</title>
<path style="fill:none;stroke:black;" d="M846,500C818,484 784,466 753,449"/>
<polygon style="fill:black;stroke:black;" points="751,452 744,444 754,446 751,452"/>
</g>
<g id="node12" class="node"><title>fake_message_15</title>
<ellipse cx="1061" cy="612" rx="27" ry="18" style="fill:none;stroke:red;"/>
<text text-anchor="middle" style="font-size:8.00;" x="1061" y="615">message</text>
</g>
<g id="edge10" class="edge"><title>bountymessage&#45;&gt;fake_message_15</title>
<path style="fill:none;stroke:black;" d="M979,570C997,579 1016,589 1031,596"/>
<polygon style="fill:black;stroke:black;" points="1033,593 1040,601 1030,599 1033,593"/>
</g>
<g id="node3" class="node"><title>bountysubscription</title>
<polygon style="fill:#c1cdcc;stroke:#c1cdcc;" points="496,582 496,520 678,520 678,582 496,582"/>
<polygon style="fill:white;stroke:white;" points="499,537 499,523 675,523 675,537 499,537"/>
<text text-anchor="middle" style="font-size:8.00;" x="587" y="533">bountysubscription</text>
<polygon style="fill:none;stroke:black;" points="499,537 499,523 675,523 675,537 499,537"/>
<text text-anchor="middle" style="font-size:8.00;" x="505" y="548">id</text>
<text text-anchor="middle" style="font-size:8.00;" x="540" y="548">serial</text>
<text text-anchor="middle" style="font-size:8.00;" x="591" y="548"> PRIMARY KEY </text>
<text text-anchor="middle" style="font-size:8.00;" x="513" y="562">bounty</text>
<text text-anchor="middle" style="font-size:8.00;" x="543" y="562">integer</text>
<text text-anchor="middle" style="font-size:8.00;" x="617" y="562"> REFERENCES bounty UNIQUE </text>
<text text-anchor="middle" style="font-size:8.00;" x="513" y="576">person</text>
<text text-anchor="middle" style="font-size:8.00;" x="543" y="576">integer</text>
<text text-anchor="middle" style="font-size:8.00;" x="617" y="576"> REFERENCES person UNIQUE </text>
<polygon style="fill:none;stroke:black;" points="496,582 496,520 678,520 678,582 496,582"/>
</g>
<g id="edge12" class="edge"><title>bountysubscription&#45;&gt;bounty</title>
<path style="fill:none;stroke:black;" d="M599,516C600,514 600,512 601,510"/>
<polygon style="fill:black;stroke:black;" points="598,509 604,500 604,511 598,509"/>
</g>
<g id="edge14" class="edge"><title>bountysubscription&#45;&gt;person</title>
<path style="fill:none;stroke:black;" d="M541,586C523,599 501,616 479,633"/>
<polygon style="fill:black;stroke:black;" points="481,636 471,639 477,630 481,636"/>
</g>
<g id="node4" class="node"><title>distributionbounty</title>
<polygon style="fill:#c1cdcc;stroke:#c1cdcc;" points="573,254 573,192 785,192 785,254 573,254"/>
<polygon style="fill:white;stroke:white;" points="576,209 576,195 782,195 782,209 576,209"/>
<text text-anchor="middle" style="font-size:8.00;" x="679" y="205">distributionbounty</text>
<polygon style="fill:none;stroke:black;" points="576,209 576,195 782,195 782,209 576,209"/>
<text text-anchor="middle" style="font-size:8.00;" x="582" y="220">id</text>
<text text-anchor="middle" style="font-size:8.00;" x="632" y="220">serial</text>
<text text-anchor="middle" style="font-size:8.00;" x="683" y="220"> PRIMARY KEY </text>
<text text-anchor="middle" style="font-size:8.00;" x="590" y="234">bounty</text>
<text text-anchor="middle" style="font-size:8.00;" x="635" y="234">integer</text>
<text text-anchor="middle" style="font-size:8.00;" x="709" y="234"> UNIQUE REFERENCES bounty </text>
<text text-anchor="middle" style="font-size:8.00;" x="597" y="248">distribution</text>
<text text-anchor="middle" style="font-size:8.00;" x="635" y="248">integer</text>
<text text-anchor="middle" style="font-size:8.00;" x="717" y="248"> UNIQUE REFERENCES distribution </text>
<polygon style="fill:none;stroke:black;" points="573,254 573,192 785,192 785,254 573,254"/>
</g>
<g id="edge16" class="edge"><title>distributionbounty&#45;&gt;bounty</title>
<path style="fill:none;stroke:black;" d="M671,258C671,261 670,263 669,266"/>
<polygon style="fill:black;stroke:black;" points="672,267 667,276 666,266 672,267"/>
</g>
<g id="node17" class="node"><title>fake_distribution_104</title>
<ellipse cx="717" cy="45" rx="30" ry="18" style="fill:none;stroke:red;"/>
<text text-anchor="middle" style="font-size:8.00;" x="717" y="48">distribution</text>
</g>
<g id="edge18" class="edge"><title>distributionbounty&#45;&gt;fake_distribution_104</title>
<path style="fill:none;stroke:black;" d="M687,188C694,154 705,104 711,73"/>
<polygon style="fill:black;stroke:black;" points="708,72 713,63 714,73 708,72"/>
</g>
<g id="edge24" class="edge"><title>person&#45;&gt;person</title>
<path style="fill:none;stroke:black;" d="M471,802C482,789 489,770 489,744 489,723 484,707 477,694"/>
<polygon style="fill:black;stroke:black;" points="474,696 471,686 480,692 474,696"/>
</g>
<g id="edge20" class="edge"><title>person&#45;&gt;person</title>
<path style="fill:none;stroke:black;" d="M471,882C493,862 507,815 507,744 507,681 496,637 478,614"/>
<polygon style="fill:black;stroke:black;" points="475,616 471,606 480,611 475,616"/>
</g>
<g id="node20" class="node"><title>fake_language_189</title>
<ellipse cx="33" cy="827" rx="27" ry="18" style="fill:none;stroke:red;"/>
<text text-anchor="middle" style="font-size:8.00;" x="33" y="830">language</text>
</g>
<g id="edge22" class="edge"><title>person&#45;&gt;fake_language_189</title>
<path style="fill:none;stroke:black;" d="M197,782C149,796 100,809 68,817"/>
<polygon style="fill:black;stroke:black;" points="69,820 58,820 67,814 69,820"/>
</g>
<g id="node23" class="node"><title>fake_calendar_192</title>
<ellipse cx="127" cy="979" rx="27" ry="18" style="fill:none;stroke:red;"/>
<text text-anchor="middle" style="font-size:8.00;" x="127" y="982">calendar</text>
</g>
<g id="edge26" class="edge"><title>person&#45;&gt;fake_calendar_192</title>
<path style="fill:none;stroke:black;" d="M197,900C178,922 160,941 148,955"/>
<polygon style="fill:black;stroke:black;" points="150,958 141,963 145,953 150,958"/>
</g>
<g id="node25" class="node"><title>fake_country_194</title>
<ellipse cx="44" cy="635" rx="27" ry="18" style="fill:none;stroke:red;"/>
<text text-anchor="middle" style="font-size:8.00;" x="44" y="638">country</text>
</g>
<g id="edge28" class="edge"><title>person&#45;&gt;fake_country_194</title>
<path style="fill:none;stroke:black;" d="M197,692C152,675 107,658 78,647"/>
<polygon style="fill:black;stroke:black;" points="77,650 68,644 79,644 77,650"/>
</g>
<g id="node27" class="node"><title>fake_libraryfilealias_196</title>
<ellipse cx="287" cy="1062" rx="35" ry="18" style="fill:none;stroke:red;"/>
<text text-anchor="middle" style="font-size:8.00;" x="287" y="1065">libraryfilealias</text>
</g>
<g id="edge30" class="edge"><title>person&#45;&gt;fake_libraryfilealias_196</title>
<path style="fill:none;stroke:black;" d="M304,947C299,981 294,1013 291,1034"/>
<polygon style="fill:black;stroke:black;" points="294,1034 290,1044 288,1034 294,1034"/>
</g>
<g id="node29" class="node"><title>fake_libraryfilealias_198</title>
<ellipse cx="479" cy="1028" rx="35" ry="18" style="fill:none;stroke:red;"/>
<text text-anchor="middle" style="font-size:8.00;" x="479" y="1031">libraryfilealias</text>
</g>
<g id="edge32" class="edge"><title>person&#45;&gt;fake_libraryfilealias_198</title>
<path style="fill:none;stroke:black;" d="M438,947C449,968 458,987 466,1002"/>
<polygon style="fill:black;stroke:black;" points="469,1000 470,1011 463,1003 469,1000"/>
</g>
<g id="node6" class="node"><title>productbounty</title>
<polygon style="fill:#c1cdcc;stroke:#c1cdcc;" points="820,277 820,215 1006,215 1006,277 820,277"/>
<polygon style="fill:white;stroke:white;" points="823,232 823,218 1003,218 1003,232 823,232"/>
<text text-anchor="middle" style="font-size:8.00;" x="913" y="228">productbounty</text>
<polygon style="fill:none;stroke:black;" points="823,232 823,218 1003,218 1003,232 823,232"/>
<text text-anchor="middle" style="font-size:8.00;" x="829" y="243">id</text>
<text text-anchor="middle" style="font-size:8.00;" x="866" y="243">serial</text>
<text text-anchor="middle" style="font-size:8.00;" x="917" y="243"> PRIMARY KEY </text>
<text text-anchor="middle" style="font-size:8.00;" x="837" y="257">bounty</text>
<text text-anchor="middle" style="font-size:8.00;" x="869" y="257">integer</text>
<text text-anchor="middle" style="font-size:8.00;" x="943" y="257"> REFERENCES bounty UNIQUE </text>
<text text-anchor="middle" style="font-size:8.00;" x="838" y="271">product</text>
<text text-anchor="middle" style="font-size:8.00;" x="869" y="271">integer</text>
<text text-anchor="middle" style="font-size:8.00;" x="944" y="271"> UNIQUE REFERENCES product </text>
<polygon style="fill:none;stroke:black;" points="820,277 820,215 1006,215 1006,277 820,277"/>
</g>
<g id="edge34" class="edge"><title>productbounty&#45;&gt;bounty</title>
<path style="fill:none;stroke:black;" d="M846,281C818,296 785,313 753,329"/>
<polygon style="fill:black;stroke:black;" points="754,332 744,334 751,326 754,332"/>
</g>
<g id="node32" class="node"><title>fake_product_262</title>
<ellipse cx="1059" cy="164" rx="27" ry="18" style="fill:none;stroke:red;"/>
<text text-anchor="middle" style="font-size:8.00;" x="1059" y="167">product</text>
</g>
<g id="edge36" class="edge"><title>productbounty&#45;&gt;fake_product_262</title>
<path style="fill:none;stroke:black;" d="M975,211C994,201 1014,190 1029,181"/>
<polygon style="fill:black;stroke:black;" points="1028,178 1038,176 1031,184 1028,178"/>
</g>
<g id="node7" class="node"><title>projectbounty</title>
<polygon style="fill:#c1cdcc;stroke:#c1cdcc;" points="355,186 355,124 537,124 537,186 355,186"/>
<polygon style="fill:white;stroke:white;" points="358,141 358,127 534,127 534,141 358,141"/>
<text text-anchor="middle" style="font-size:8.00;" x="446" y="137">projectbounty</text>
<polygon style="fill:none;stroke:black;" points="358,141 358,127 534,127 534,141 358,141"/>
<text text-anchor="middle" style="font-size:8.00;" x="364" y="152">id</text>
<text text-anchor="middle" style="font-size:8.00;" x="399" y="152">serial</text>
<text text-anchor="middle" style="font-size:8.00;" x="450" y="152"> PRIMARY KEY </text>
<text text-anchor="middle" style="font-size:8.00;" x="372" y="166">bounty</text>
<text text-anchor="middle" style="font-size:8.00;" x="402" y="166">integer</text>
<text text-anchor="middle" style="font-size:8.00;" x="476" y="166"> REFERENCES bounty UNIQUE </text>
<text text-anchor="middle" style="font-size:8.00;" x="372" y="180">project</text>
<text text-anchor="middle" style="font-size:8.00;" x="402" y="180">integer</text>
<text text-anchor="middle" style="font-size:8.00;" x="476" y="180"> UNIQUE REFERENCES project </text>
<polygon style="fill:none;stroke:black;" points="355,186 355,124 537,124 537,186 355,186"/>
</g>
<g id="edge38" class="edge"><title>projectbounty&#45;&gt;bounty</title>
<path style="fill:none;stroke:black;" d="M475,190C492,211 516,240 540,268"/>
<polygon style="fill:black;stroke:black;" points="543,266 547,276 538,271 543,266"/>
</g>
<g id="node35" class="node"><title>fake_project_281</title>
<ellipse cx="349" cy="23" rx="27" ry="18" style="fill:none;stroke:red;"/>
<text text-anchor="middle" style="font-size:8.00;" x="349" y="26">project</text>
</g>
<g id="edge40" class="edge"><title>projectbounty&#45;&gt;fake_project_281</title>
<path style="fill:none;stroke:black;" d="M420,120C403,97 382,68 367,47"/>
<polygon style="fill:black;stroke:black;" points="364,49 361,39 370,45 364,49"/>
</g>
</g>
</svg>
