<?xml version="1.0" encoding="UTF-8" standalone="no"?>
<!DOCTYPE svg PUBLIC "-//W3C//DTD SVG 1.0//EN"
 "http://www.w3.org/TR/2001/REC-SVG-20010904/DTD/svg10.dtd">
<!-- Generated by fdp version 2.2 (Sat Feb  5 01:37:52 UTC 2005)
     For user: (stub) Stuart Bishop,,,   Title: g    Pages: 1 -->
<svg width="477px" height="535px"
 viewBox = "-1 -1 476 534"
 xmlns="http://www.w3.org/2000/svg">
<g id="graph0" class="graph" transform = "scale(0.658690)"
 style="font-family:Times-Roman;font-size:14.00;">
<title>g</title>
<text text-anchor="middle" style="font-size:22.00;" x="358" y="793">Bounty</text>
<g id="node1" class="node"><title>bounty</title>
<polygon style="fill:#c1cdcc;stroke:#c1cdcc;" points="348,538 348,352 498,352 498,538 348,538"/>
<polygon style="fill:white;stroke:white;" points="351,367 351,355 495,355 495,367 351,367"/>
<text text-anchor="middle" style="font-size:6.00;" x="423" y="363">bounty</text>
<polygon style="fill:none;stroke:black;" points="351,367 351,355 495,355 495,367 351,367"/>
<text text-anchor="middle" style="font-size:6.00;" x="356" y="376">id</text>
<text text-anchor="middle" style="font-size:6.00;" x="398" y="376">serial</text>
<text text-anchor="middle" style="font-size:6.00;" x="456" y="376"> PRIMARY KEY </text>
<text text-anchor="middle" style="font-size:6.00;" x="361" y="388">name</text>
<text text-anchor="middle" style="font-size:6.00;" x="397" y="388">text</text>
<text text-anchor="middle" style="font-size:6.00;" x="447" y="388"> UNIQUE </text>
<text text-anchor="middle" style="font-size:6.00;" x="359" y="400">title</text>
<text text-anchor="middle" style="font-size:6.00;" x="397" y="400">text</text>
<text text-anchor="middle" style="font-size:6.00;" x="365" y="412">summary</text>
<text text-anchor="middle" style="font-size:6.00;" x="397" y="412">text</text>
<text text-anchor="middle" style="font-size:6.00;" x="368" y="424">description</text>
<text text-anchor="middle" style="font-size:6.00;" x="397" y="424">text</text>
<text text-anchor="middle" style="font-size:6.00;" x="365" y="436">usdvalue</text>
<text text-anchor="middle" style="font-size:6.00;" x="409" y="436">numeric(10,2)</text>
<text text-anchor="middle" style="font-size:6.00;" x="365" y="448">difficulty</text>
<text text-anchor="middle" style="font-size:6.00;" x="400" y="448">integer</text>
<text text-anchor="middle" style="font-size:6.00;" x="364" y="460">duration</text>
<text text-anchor="middle" style="font-size:6.00;" x="401" y="460">interval</text>
<text text-anchor="middle" style="font-size:6.00;" x="365" y="472">reviewer</text>
<text text-anchor="middle" style="font-size:6.00;" x="400" y="472">integer</text>
<text text-anchor="middle" style="font-size:6.00;" x="463" y="472"> REFERENCES person </text>
<text text-anchor="middle" style="font-size:6.00;" x="368" y="484">datecreated</text>
<text text-anchor="middle" style="font-size:6.00;" x="405" y="484">timestamp</text>
<text text-anchor="middle" style="font-size:6.00;" x="362" y="496">owner</text>
<text text-anchor="middle" style="font-size:6.00;" x="400" y="496">integer</text>
<text text-anchor="middle" style="font-size:6.00;" x="463" y="496"> REFERENCES person </text>
<text text-anchor="middle" style="font-size:6.00;" x="364" y="508">deadline</text>
<text text-anchor="middle" style="font-size:6.00;" x="405" y="508">timestamp</text>
<text text-anchor="middle" style="font-size:6.00;" x="364" y="520">claimant</text>
<text text-anchor="middle" style="font-size:6.00;" x="400" y="520">integer</text>
<text text-anchor="middle" style="font-size:6.00;" x="463" y="520"> REFERENCES person </text>
<text text-anchor="middle" style="font-size:6.00;" x="369" y="532">dateclaimed</text>
<text text-anchor="middle" style="font-size:6.00;" x="405" y="532">timestamp</text>
<polygon style="fill:none;stroke:black;" points="348,538 348,352 498,352 498,538 348,538"/>
</g>
<g id="node4" class="node"><title>person</title>
<polygon style="fill:#c1cdcc;stroke:#c1cdcc;" points="297,236 297,14 477,14 477,236 297,236"/>
<polygon style="fill:white;stroke:white;" points="300,29 300,17 474,17 474,29 300,29"/>
<text text-anchor="middle" style="font-size:6.00;" x="387" y="25">person</text>
<polygon style="fill:none;stroke:black;" points="300,29 300,17 474,17 474,29 300,29"/>
<text text-anchor="middle" style="font-size:6.00;" x="305" y="38">id</text>
<text text-anchor="middle" style="font-size:6.00;" x="380" y="38">serial</text>
<text text-anchor="middle" style="font-size:6.00;" x="429" y="38"> PRIMARY KEY </text>
<text text-anchor="middle" style="font-size:6.00;" x="318" y="50">displayname</text>
<text text-anchor="middle" style="font-size:6.00;" x="379" y="50">text</text>
<text text-anchor="middle" style="font-size:6.00;" x="316" y="62">givenname</text>
<text text-anchor="middle" style="font-size:6.00;" x="379" y="62">text</text>
<text text-anchor="middle" style="font-size:6.00;" x="317" y="74">familyname</text>
<text text-anchor="middle" style="font-size:6.00;" x="379" y="74">text</text>
<text text-anchor="middle" style="font-size:6.00;" x="315" y="86">password</text>
<text text-anchor="middle" style="font-size:6.00;" x="379" y="86">text</text>
<text text-anchor="middle" style="font-size:6.00;" x="316" y="98">teamowner</text>
<text text-anchor="middle" style="font-size:6.00;" x="382" y="98">integer</text>
<text text-anchor="middle" style="font-size:6.00;" x="436" y="98"> REFERENCES person </text>
<text text-anchor="middle" style="font-size:6.00;" x="322" y="110">teamdescription</text>
<text text-anchor="middle" style="font-size:6.00;" x="379" y="110">text</text>
<text text-anchor="middle" style="font-size:6.00;" x="311" y="122">karma</text>
<text text-anchor="middle" style="font-size:6.00;" x="382" y="122">integer</text>
<text text-anchor="middle" style="font-size:6.00;" x="323" y="134">karmatimestamp</text>
<text text-anchor="middle" style="font-size:6.00;" x="387" y="134">timestamp</text>
<text text-anchor="middle" style="font-size:6.00;" x="310" y="146">name</text>
<text text-anchor="middle" style="font-size:6.00;" x="379" y="146">text</text>
<text text-anchor="middle" style="font-size:6.00;" x="314" y="158">language</text>
<text text-anchor="middle" style="font-size:6.00;" x="382" y="158">integer</text>
<text text-anchor="middle" style="font-size:6.00;" x="439" y="158"> REFERENCES language </text>
<text text-anchor="middle" style="font-size:6.00;" x="306" y="170">fti</text>
<text text-anchor="middle" style="font-size:6.00;" x="384" y="170">tsvector</text>
<text text-anchor="middle" style="font-size:6.00;" x="334" y="182">defaultmembershipperiod</text>
<text text-anchor="middle" style="font-size:6.00;" x="382" y="182">integer</text>
<text text-anchor="middle" style="font-size:6.00;" x="329" y="194">defaultrenewalperiod</text>
<text text-anchor="middle" style="font-size:6.00;" x="382" y="194">integer</text>
<text text-anchor="middle" style="font-size:6.00;" x="325" y="206">subscriptionpolicy</text>
<text text-anchor="middle" style="font-size:6.00;" x="382" y="206">integer</text>
<text text-anchor="middle" style="font-size:6.00;" x="312" y="218">merged</text>
<text text-anchor="middle" style="font-size:6.00;" x="382" y="218">integer</text>
<text text-anchor="middle" style="font-size:6.00;" x="436" y="218"> REFERENCES person </text>
<text text-anchor="middle" style="font-size:6.00;" x="317" y="230">datecreated</text>
<text text-anchor="middle" style="font-size:6.00;" x="387" y="230">timestamp</text>
<polygon style="fill:none;stroke:black;" points="297,236 297,14 477,14 477,236 297,236"/>
</g>
<g id="edge2" class="edge"><title>bounty&#45;&gt;person</title>
<path style="fill:none;stroke:black;" d="M399,348C394,317 391,283 388,250"/>
<polygon style="fill:black;stroke:black;" points="385,250 387,240 391,250 385,250"/>
</g>
<g id="edge4" class="edge"><title>bounty&#45;&gt;person</title>
<path style="fill:none;stroke:black;" d="M423,348C420,317 417,282 412,250"/>
<polygon style="fill:black;stroke:black;" points="409,250 411,240 415,250 409,250"/>
</g>
<g id="edge6" class="edge"><title>bounty&#45;&gt;person</title>
<path style="fill:none;stroke:black;" d="M411,348C407,317 404,282 400,250"/>
<polygon style="fill:black;stroke:black;" points="397,250 399,240 403,250 397,250"/>
</g>
<g id="node2" class="node"><title>bountysubscription</title>
<polygon style="fill:#c1cdcc;stroke:#c1cdcc;" points="546,300 546,234 702,234 702,300 546,300"/>
<polygon style="fill:white;stroke:white;" points="549,249 549,237 699,237 699,249 549,249"/>
<text text-anchor="middle" style="font-size:6.00;" x="624" y="245">bountysubscription</text>
<polygon style="fill:none;stroke:black;" points="549,249 549,237 699,237 699,249 549,249"/>
<text text-anchor="middle" style="font-size:6.00;" x="554" y="258">id</text>
<text text-anchor="middle" style="font-size:6.00;" x="595" y="258">serial</text>
<text text-anchor="middle" style="font-size:6.00;" x="635" y="258"> PRIMARY KEY </text>
<text text-anchor="middle" style="font-size:6.00;" x="561" y="270">bounty</text>
<text text-anchor="middle" style="font-size:6.00;" x="597" y="270">integer</text>
<text text-anchor="middle" style="font-size:6.00;" x="655" y="270"> REFERENCES bounty UNIQUE </text>
<text text-anchor="middle" style="font-size:6.00;" x="560" y="282">person</text>
<text text-anchor="middle" style="font-size:6.00;" x="597" y="282">integer</text>
<text text-anchor="middle" style="font-size:6.00;" x="654" y="282"> REFERENCES person UNIQUE </text>
<text text-anchor="middle" style="font-size:6.00;" x="567" y="294">subscription</text>
<text text-anchor="middle" style="font-size:6.00;" x="597" y="294">integer</text>
<polygon style="fill:none;stroke:black;" points="546,300 546,234 702,234 702,300 546,300"/>
</g>
<g id="edge8" class="edge"><title>bountysubscription&#45;&gt;bounty</title>
<path style="fill:none;stroke:black;" d="M582,304C562,322 537,343 514,365"/>
<polygon style="fill:black;stroke:black;" points="516,368 506,372 511,363 516,368"/>
</g>
<g id="edge10" class="edge"><title>bountysubscription&#45;&gt;person</title>
<path style="fill:none;stroke:black;" d="M562,230C542,218 517,203 494,189"/>
<polygon style="fill:black;stroke:black;" points="492,192 485,184 495,186 492,192"/>
</g>
<g id="node3" class="node"><title>distrobounty</title>
<polygon style="fill:#c1cdcc;stroke:#c1cdcc;" points="97,596 97,542 263,542 263,596 97,596"/>
<polygon style="fill:white;stroke:white;" points="100,557 100,545 260,545 260,557 100,557"/>
<text text-anchor="middle" style="font-size:6.00;" x="180" y="553">distrobounty</text>
<polygon style="fill:none;stroke:black;" points="100,557 100,545 260,545 260,557 100,557"/>
<text text-anchor="middle" style="font-size:6.00;" x="105" y="566">id</text>
<text text-anchor="middle" style="font-size:6.00;" x="145" y="566">serial</text>
<text text-anchor="middle" style="font-size:6.00;" x="185" y="566"> PRIMARY KEY </text>
<text text-anchor="middle" style="font-size:6.00;" x="112" y="578">bounty</text>
<text text-anchor="middle" style="font-size:6.00;" x="147" y="578">integer</text>
<text text-anchor="middle" style="font-size:6.00;" x="205" y="578"> REFERENCES bounty UNIQUE </text>
<text text-anchor="middle" style="font-size:6.00;" x="117" y="590">distribution</text>
<text text-anchor="middle" style="font-size:6.00;" x="147" y="590">integer</text>
<text text-anchor="middle" style="font-size:6.00;" x="210" y="590"> UNIQUE REFERENCES distribution </text>
<polygon style="fill:none;stroke:black;" points="97,596 97,542 263,542 263,596 97,596"/>
</g>
<g id="edge12" class="edge"><title>distrobounty&#45;&gt;bounty</title>
<path style="fill:none;stroke:black;" d="M241,538C268,524 301,507 331,492"/>
<polygon style="fill:black;stroke:black;" points="330,489 340,487 333,495 330,489"/>
</g>
<g id="node13" class="node"><title>fake_distribution_98</title>
<ellipse cx="33" cy="510" rx="27" ry="18" style="fill:none;stroke:red;"/>
<text text-anchor="middle" style="font-size:6.00;" x="33" y="512">distribution</text>
</g>
<g id="edge14" class="edge"><title>distrobounty&#45;&gt;fake_distribution_98</title>
<path style="fill:none;stroke:black;" d="M103,538C90,533 77,528 65,523"/>
<polygon style="fill:black;stroke:black;" points="64,526 56,519 67,520 64,526"/>
</g>
<g id="edge16" class="edge"><title>person&#45;&gt;person</title>
<path style="fill:none;stroke:black;" d="M485,161C496,154 503,142 503,125 503,113 499,103 493,96"/>
<polygon style="fill:black;stroke:black;" points="490,98 485,89 495,93 490,98"/>
</g>
<g id="edge20" class="edge"><title>person&#45;&gt;person</title>
<path style="fill:none;stroke:black;" d="M485,208C506,199 521,172 521,125 521,85 510,59 494,47"/>
<polygon style="fill:black;stroke:black;" points="492,50 485,42 495,44 492,50"/>
</g>
<g id="node16" class="node"><title>fake_language_156</title>
<ellipse cx="232" cy="71" rx="27" ry="18" style="fill:none;stroke:red;"/>
<text text-anchor="middle" style="font-size:6.00;" x="232" y="73">language</text>
</g>
<g id="edge18" class="edge"><title>person&#45;&gt;fake_language_156</title>
<path style="fill:none;stroke:black;" d="M289,91C281,88 273,86 265,83"/>
<polygon style="fill:black;stroke:black;" points="264,86 256,79 267,80 264,86"/>
</g>
<g id="node5" class="node"><title>productbounty</title>
<polygon style="fill:#c1cdcc;stroke:#c1cdcc;" points="462,669 462,615 610,615 610,669 462,669"/>
<polygon style="fill:white;stroke:white;" points="465,630 465,618 607,618 607,630 465,630"/>
<text text-anchor="middle" style="font-size:6.00;" x="536" y="626">productbounty</text>
<polygon style="fill:none;stroke:black;" points="465,630 465,618 607,618 607,630 465,630"/>
<text text-anchor="middle" style="font-size:6.00;" x="470" y="639">id</text>
<text text-anchor="middle" style="font-size:6.00;" x="501" y="639">serial</text>
<text text-anchor="middle" style="font-size:6.00;" x="541" y="639"> PRIMARY KEY </text>
<text text-anchor="middle" style="font-size:6.00;" x="477" y="651">bounty</text>
<text text-anchor="middle" style="font-size:6.00;" x="503" y="651">integer</text>
<text text-anchor="middle" style="font-size:6.00;" x="561" y="651"> REFERENCES bounty UNIQUE </text>
<text text-anchor="middle" style="font-size:6.00;" x="477" y="663">product</text>
<text text-anchor="middle" style="font-size:6.00;" x="503" y="663">integer</text>
<text text-anchor="middle" style="font-size:6.00;" x="562" y="663"> UNIQUE REFERENCES product </text>
<polygon style="fill:none;stroke:black;" points="462,669 462,615 610,615 610,669 462,669"/>
</g>
<g id="edge22" class="edge"><title>productbounty&#45;&gt;bounty</title>
<path style="fill:none;stroke:black;" d="M518,611C508,594 496,573 484,551"/>
<polygon style="fill:black;stroke:black;" points="481,552 479,542 487,549 481,552"/>
</g>
<g id="node20" class="node"><title>fake_product_213</title>
<ellipse cx="471" cy="750" rx="27" ry="18" style="fill:none;stroke:red;"/>
<text text-anchor="middle" style="font-size:6.00;" x="471" y="752">product</text>
</g>
<g id="edge24" class="edge"><title>productbounty&#45;&gt;fake_product_213</title>
<path style="fill:none;stroke:black;" d="M517,673C507,690 496,709 486,724"/>
<polygon style="fill:black;stroke:black;" points="489,726 481,733 483,723 489,726"/>
</g>
<g id="node6" class="node"><title>projectbounty</title>
<polygon style="fill:#c1cdcc;stroke:#c1cdcc;" points="275,327 275,273 419,273 419,327 275,327"/>
<polygon style="fill:white;stroke:white;" points="278,288 278,276 416,276 416,288 278,288"/>
<text text-anchor="middle" style="font-size:6.00;" x="347" y="284">projectbounty</text>
<polygon style="fill:none;stroke:black;" points="278,288 278,276 416,276 416,288 278,288"/>
<text text-anchor="middle" style="font-size:6.00;" x="283" y="297">id</text>
<text text-anchor="middle" style="font-size:6.00;" x="312" y="297">serial</text>
<text text-anchor="middle" style="font-size:6.00;" x="352" y="297"> PRIMARY KEY </text>
<text text-anchor="middle" style="font-size:6.00;" x="290" y="309">bounty</text>
<text text-anchor="middle" style="font-size:6.00;" x="314" y="309">integer</text>
<text text-anchor="middle" style="font-size:6.00;" x="372" y="309"> REFERENCES bounty UNIQUE </text>
<text text-anchor="middle" style="font-size:6.00;" x="289" y="321">project</text>
<text text-anchor="middle" style="font-size:6.00;" x="314" y="321">integer</text>
<text text-anchor="middle" style="font-size:6.00;" x="372" y="321"> UNIQUE REFERENCES project </text>
<polygon style="fill:none;stroke:black;" points="275,327 275,273 419,273 419,327 275,327"/>
</g>
<g id="edge26" class="edge"><title>projectbounty&#45;&gt;bounty</title>
<path style="fill:none;stroke:black;" d="M363,331C364,333 366,336 367,339"/>
<polygon style="fill:black;stroke:black;" points="370,338 372,348 364,341 370,338"/>
</g>
<g id="node23" class="node"><title>fake_project_231</title>
<ellipse cx="492" cy="311" rx="27" ry="18" style="fill:none;stroke:red;"/>
<text text-anchor="middle" style="font-size:6.00;" x="492" y="313">project</text>
</g>
<g id="edge28" class="edge"><title>projectbounty&#45;&gt;fake_project_231</title>
<path style="fill:none;stroke:black;" d="M427,306C437,307 446,307 455,308"/>
<polygon style="fill:black;stroke:black;" points="455,305 465,309 455,311 455,305"/>
</g>
</g>
</svg>
