<?xml version="1.0" encoding="UTF-8" standalone="no"?>
<!DOCTYPE svg PUBLIC "-//W3C//DTD SVG 1.0//EN"
 "http://www.w3.org/TR/2001/REC-SVG-20010904/DTD/svg10.dtd">
<!-- Generated by fdp version 2.2.1 (Thu Apr  6 00:32:47 UTC 2006)
     For user: (stub) Stuart Bishop,,,   Title: g    Pages: 1 -->
<svg width="2638px" height="1917px"
 viewBox = "-1 -1 2637 1916"
 xmlns="http://www.w3.org/2000/svg">
<g id="graph0" class="graph" style="font-family:Times-Roman;font-size:14.00;">
<title>g</title>
<text text-anchor="middle" style="font-size:22.00;" x="1318" y="1899">Build</text>
<g id="node1" class="node"><title>binarypackagerelease</title>
<polygon style="fill:#c1cdcc;stroke:#c1cdcc;" points="970,1591 970,1235 1280,1235 1280,1591 970,1591"/>
<polygon style="fill:white;stroke:white;" points="973,1252 973,1238 1277,1238 1277,1252 973,1252"/>
<text text-anchor="middle" style="font-size:8.00;" x="1125" y="1248">binarypackagerelease</text>
<polygon style="fill:none;stroke:black;" points="973,1252 973,1238 1277,1238 1277,1252 973,1252"/>
<text text-anchor="middle" style="font-size:8.00;" x="979" y="1263">id</text>
<text text-anchor="middle" style="font-size:8.00;" x="1056" y="1263">serial</text>
<text text-anchor="middle" style="font-size:8.00;" x="1118" y="1263"> PRIMARY KEY </text>
<text text-anchor="middle" style="font-size:8.00;" x="1008" y="1277">binarypackagename</text>
<text text-anchor="middle" style="font-size:8.00;" x="1059" y="1277">integer</text>
<text text-anchor="middle" style="font-size:8.00;" x="1182" y="1277"> REFERENCES binarypackagename UNIQUE UNIQUE </text>
<text text-anchor="middle" style="font-size:8.00;" x="988" y="1291">version</text>
<text text-anchor="middle" style="font-size:8.00;" x="1054" y="1291">text</text>
<text text-anchor="middle" style="font-size:8.00;" x="1106" y="1291"> UNIQUE </text>
<text text-anchor="middle" style="font-size:8.00;" x="991" y="1305">summary</text>
<text text-anchor="middle" style="font-size:8.00;" x="1054" y="1305">text</text>
<text text-anchor="middle" style="font-size:8.00;" x="993" y="1319">description</text>
<text text-anchor="middle" style="font-size:8.00;" x="1054" y="1319">text</text>
<text text-anchor="middle" style="font-size:8.00;" x="984" y="1333">build</text>
<text text-anchor="middle" style="font-size:8.00;" x="1059" y="1333">integer</text>
<text text-anchor="middle" style="font-size:8.00;" x="1158" y="1333"> UNIQUE REFERENCES build UNIQUE </text>
<text text-anchor="middle" style="font-size:8.00;" x="1005" y="1347">binpackageformat</text>
<text text-anchor="middle" style="font-size:8.00;" x="1059" y="1347">integer</text>
<text text-anchor="middle" style="font-size:8.00;" x="994" y="1361">component</text>
<text text-anchor="middle" style="font-size:8.00;" x="1059" y="1361">integer</text>
<text text-anchor="middle" style="font-size:8.00;" x="1135" y="1361"> REFERENCES component </text>
<text text-anchor="middle" style="font-size:8.00;" x="987" y="1375">section</text>
<text text-anchor="middle" style="font-size:8.00;" x="1059" y="1375">integer</text>
<text text-anchor="middle" style="font-size:8.00;" x="1128" y="1375"> REFERENCES section </text>
<text text-anchor="middle" style="font-size:8.00;" x="988" y="1389">priority</text>
<text text-anchor="middle" style="font-size:8.00;" x="1059" y="1389">integer</text>
<text text-anchor="middle" style="font-size:8.00;" x="991" y="1403">shlibdeps</text>
<text text-anchor="middle" style="font-size:8.00;" x="1054" y="1403">text</text>
<text text-anchor="middle" style="font-size:8.00;" x="989" y="1417">depends</text>
<text text-anchor="middle" style="font-size:8.00;" x="1054" y="1417">text</text>
<text text-anchor="middle" style="font-size:8.00;" x="997" y="1431">recommends</text>
<text text-anchor="middle" style="font-size:8.00;" x="1054" y="1431">text</text>
<text text-anchor="middle" style="font-size:8.00;" x="989" y="1445">suggests</text>
<text text-anchor="middle" style="font-size:8.00;" x="1054" y="1445">text</text>
<text text-anchor="middle" style="font-size:8.00;" x="989" y="1459">conflicts</text>
<text text-anchor="middle" style="font-size:8.00;" x="1054" y="1459">text</text>
<text text-anchor="middle" style="font-size:8.00;" x="989" y="1473">replaces</text>
<text text-anchor="middle" style="font-size:8.00;" x="1054" y="1473">text</text>
<text text-anchor="middle" style="font-size:8.00;" x="990" y="1487">provides</text>
<text text-anchor="middle" style="font-size:8.00;" x="1054" y="1487">text</text>
<text text-anchor="middle" style="font-size:8.00;" x="990" y="1501">essential</text>
<text text-anchor="middle" style="font-size:8.00;" x="1061" y="1501">boolean</text>
<text text-anchor="middle" style="font-size:8.00;" x="996" y="1515">installedsize</text>
<text text-anchor="middle" style="font-size:8.00;" x="1059" y="1515">integer</text>
<text text-anchor="middle" style="font-size:8.00;" x="991" y="1529">copyright</text>
<text text-anchor="middle" style="font-size:8.00;" x="1054" y="1529">text</text>
<text text-anchor="middle" style="font-size:8.00;" x="987" y="1543">licence</text>
<text text-anchor="middle" style="font-size:8.00;" x="1054" y="1543">text</text>
<text text-anchor="middle" style="font-size:8.00;" x="1007" y="1557">architecturespecific</text>
<text text-anchor="middle" style="font-size:8.00;" x="1061" y="1557">boolean</text>
<text text-anchor="middle" style="font-size:8.00;" x="980" y="1571">fti</text>
<text text-anchor="middle" style="font-size:8.00;" x="1061" y="1571">tsvector</text>
<text text-anchor="middle" style="font-size:8.00;" x="994" y="1585">datecreated</text>
<text text-anchor="middle" style="font-size:8.00;" x="1065" y="1585">timestamp</text>
<polygon style="fill:none;stroke:black;" points="970,1591 970,1235 1280,1235 1280,1591 970,1591"/>
</g>
<g id="node2" class="node"><title>build</title>
<polygon style="fill:#c1cdcc;stroke:#c1cdcc;" points="888,958 888,770 1144,770 1144,958 888,958"/>
<polygon style="fill:white;stroke:white;" points="891,787 891,773 1141,773 1141,787 891,787"/>
<text text-anchor="middle" style="font-size:8.00;" x="1016" y="783">build</text>
<polygon style="fill:none;stroke:black;" points="891,787 891,773 1141,773 1141,787 891,787"/>
<text text-anchor="middle" style="font-size:8.00;" x="897" y="798">id</text>
<text text-anchor="middle" style="font-size:8.00;" x="980" y="798">serial</text>
<text text-anchor="middle" style="font-size:8.00;" x="1042" y="798"> PRIMARY KEY </text>
<text text-anchor="middle" style="font-size:8.00;" x="912" y="812">datecreated</text>
<text text-anchor="middle" style="font-size:8.00;" x="989" y="812">timestamp</text>
<text text-anchor="middle" style="font-size:8.00;" x="910" y="826">processor</text>
<text text-anchor="middle" style="font-size:8.00;" x="983" y="826">integer</text>
<text text-anchor="middle" style="font-size:8.00;" x="1056" y="826"> REFERENCES processor </text>
<text text-anchor="middle" style="font-size:8.00;" x="921" y="840">distroarchrelease</text>
<text text-anchor="middle" style="font-size:8.00;" x="983" y="840">integer</text>
<text text-anchor="middle" style="font-size:8.00;" x="1068" y="840"> REFERENCES distroarchrelease </text>
<text text-anchor="middle" style="font-size:8.00;" x="910" y="854">buildstate</text>
<text text-anchor="middle" style="font-size:8.00;" x="983" y="854">integer</text>
<text text-anchor="middle" style="font-size:8.00;" x="908" y="868">datebuilt</text>
<text text-anchor="middle" style="font-size:8.00;" x="989" y="868">timestamp</text>
<text text-anchor="middle" style="font-size:8.00;" x="916" y="882">buildduration</text>
<text text-anchor="middle" style="font-size:8.00;" x="984" y="882">interval</text>
<text text-anchor="middle" style="font-size:8.00;" x="908" y="896">buildlog</text>
<text text-anchor="middle" style="font-size:8.00;" x="983" y="896">integer</text>
<text text-anchor="middle" style="font-size:8.00;" x="1064" y="896"> REFERENCES libraryfilealias </text>
<text text-anchor="middle" style="font-size:8.00;" x="905" y="910">builder</text>
<text text-anchor="middle" style="font-size:8.00;" x="983" y="910">integer</text>
<text text-anchor="middle" style="font-size:8.00;" x="1052" y="910"> REFERENCES builder </text>
<text text-anchor="middle" style="font-size:8.00;" x="929" y="924">sourcepackagerelease</text>
<text text-anchor="middle" style="font-size:8.00;" x="983" y="924">integer</text>
<text text-anchor="middle" style="font-size:8.00;" x="1076" y="924"> REFERENCES sourcepackagerelease </text>
<text text-anchor="middle" style="font-size:8.00;" x="905" y="938">pocket</text>
<text text-anchor="middle" style="font-size:8.00;" x="983" y="938">integer</text>
<text text-anchor="middle" style="font-size:8.00;" x="915" y="952">dependencies</text>
<text text-anchor="middle" style="font-size:8.00;" x="978" y="952">text</text>
<polygon style="fill:none;stroke:black;" points="888,958 888,770 1144,770 1144,958 888,958"/>
</g>
<g id="edge4" class="edge"><title>binarypackagerelease&#45;&gt;build</title>
<path style="fill:none;stroke:black;" d="M1089,1231C1072,1145 1052,1046 1038,972"/>
<polygon style="fill:black;stroke:black;" points="1035,972 1036,962 1041,971 1035,972"/>
</g>
<g id="node5" class="node"><title>component</title>
<polygon style="fill:#c1cdcc;stroke:#c1cdcc;" points="1475,1276 1475,1228 1595,1228 1595,1276 1475,1276"/>
<polygon style="fill:white;stroke:white;" points="1478,1245 1478,1231 1592,1231 1592,1245 1478,1245"/>
<text text-anchor="middle" style="font-size:8.00;" x="1535" y="1241">component</text>
<polygon style="fill:none;stroke:black;" points="1478,1245 1478,1231 1592,1231 1592,1245 1478,1245"/>
<text text-anchor="middle" style="font-size:8.00;" x="1484" y="1256">id</text>
<text text-anchor="middle" style="font-size:8.00;" x="1515" y="1256">serial</text>
<text text-anchor="middle" style="font-size:8.00;" x="1560" y="1256"> PRIMARY KEY </text>
<text text-anchor="middle" style="font-size:8.00;" x="1490" y="1270">name</text>
<text text-anchor="middle" style="font-size:8.00;" x="1513" y="1270">text</text>
<text text-anchor="middle" style="font-size:8.00;" x="1548" y="1270"> UNIQUE </text>
<polygon style="fill:none;stroke:black;" points="1475,1276 1475,1228 1595,1228 1595,1276 1475,1276"/>
</g>
<g id="edge6" class="edge"><title>binarypackagerelease&#45;&gt;component</title>
<path style="fill:none;stroke:black;" d="M1288,1349C1347,1326 1410,1301 1458,1283"/>
<polygon style="fill:black;stroke:black;" points="1456,1280 1467,1279 1459,1286 1456,1280"/>
</g>
<g id="node15" class="node"><title>section</title>
<polygon style="fill:#c1cdcc;stroke:#c1cdcc;" points="1252,1075 1252,1027 1372,1027 1372,1075 1252,1075"/>
<polygon style="fill:white;stroke:white;" points="1255,1044 1255,1030 1369,1030 1369,1044 1255,1044"/>
<text text-anchor="middle" style="font-size:8.00;" x="1312" y="1040">section</text>
<polygon style="fill:none;stroke:black;" points="1255,1044 1255,1030 1369,1030 1369,1044 1255,1044"/>
<text text-anchor="middle" style="font-size:8.00;" x="1261" y="1055">id</text>
<text text-anchor="middle" style="font-size:8.00;" x="1292" y="1055">serial</text>
<text text-anchor="middle" style="font-size:8.00;" x="1337" y="1055"> PRIMARY KEY </text>
<text text-anchor="middle" style="font-size:8.00;" x="1267" y="1069">name</text>
<text text-anchor="middle" style="font-size:8.00;" x="1290" y="1069">text</text>
<text text-anchor="middle" style="font-size:8.00;" x="1325" y="1069"> UNIQUE </text>
<polygon style="fill:none;stroke:black;" points="1252,1075 1252,1027 1372,1027 1372,1075 1252,1075"/>
</g>
<g id="edge8" class="edge"><title>binarypackagerelease&#45;&gt;section</title>
<path style="fill:none;stroke:black;" d="M1219,1231C1247,1177 1275,1123 1293,1088"/>
<polygon style="fill:black;stroke:black;" points="1290,1086 1298,1079 1296,1089 1290,1086"/>
</g>
<g id="node17" class="node"><title>fake_binarypackagename_7</title>
<ellipse cx="947" cy="1779" rx="44" ry="18" style="fill:none;stroke:red;"/>
<text text-anchor="middle" style="font-size:8.00;" x="947" y="1782">binarypackagename</text>
</g>
<g id="edge2" class="edge"><title>binarypackagerelease&#45;&gt;fake_binarypackagename_7</title>
<path style="fill:none;stroke:black;" d="M1036,1595C1007,1657 977,1718 960,1752"/>
<polygon style="fill:black;stroke:black;" points="963,1753 956,1761 957,1750 963,1753"/>
</g>
<g id="node3" class="node"><title>builder</title>
<polygon style="fill:#c1cdcc;stroke:#c1cdcc;" points="493,1123 493,935 667,935 667,1123 493,1123"/>
<polygon style="fill:white;stroke:white;" points="496,952 496,938 664,938 664,952 496,952"/>
<text text-anchor="middle" style="font-size:8.00;" x="580" y="948">builder</text>
<polygon style="fill:none;stroke:black;" points="496,952 496,938 664,938 664,952 496,952"/>
<text text-anchor="middle" style="font-size:8.00;" x="502" y="963">id</text>
<text text-anchor="middle" style="font-size:8.00;" x="550" y="963">serial</text>
<text text-anchor="middle" style="font-size:8.00;" x="604" y="963"> PRIMARY KEY </text>
<text text-anchor="middle" style="font-size:8.00;" x="515" y="977">processor</text>
<text text-anchor="middle" style="font-size:8.00;" x="553" y="977">integer</text>
<text text-anchor="middle" style="font-size:8.00;" x="618" y="977"> REFERENCES processor </text>
<text text-anchor="middle" style="font-size:8.00;" x="508" y="991">name</text>
<text text-anchor="middle" style="font-size:8.00;" x="548" y="991">text</text>
<text text-anchor="middle" style="font-size:8.00;" x="505" y="1005">title</text>
<text text-anchor="middle" style="font-size:8.00;" x="548" y="1005">text</text>
<text text-anchor="middle" style="font-size:8.00;" x="516" y="1019">description</text>
<text text-anchor="middle" style="font-size:8.00;" x="548" y="1019">text</text>
<text text-anchor="middle" style="font-size:8.00;" x="509" y="1033">owner</text>
<text text-anchor="middle" style="font-size:8.00;" x="553" y="1033">integer</text>
<text text-anchor="middle" style="font-size:8.00;" x="614" y="1033"> REFERENCES person </text>
<text text-anchor="middle" style="font-size:8.00;" x="517" y="1047">speedindex</text>
<text text-anchor="middle" style="font-size:8.00;" x="553" y="1047">integer</text>
<text text-anchor="middle" style="font-size:8.00;" x="515" y="1061">builderok</text>
<text text-anchor="middle" style="font-size:8.00;" x="555" y="1061">boolean</text>
<text text-anchor="middle" style="font-size:8.00;" x="513" y="1075">failnotes</text>
<text text-anchor="middle" style="font-size:8.00;" x="548" y="1075">text</text>
<text text-anchor="middle" style="font-size:8.00;" x="510" y="1089">trusted</text>
<text text-anchor="middle" style="font-size:8.00;" x="555" y="1089">boolean</text>
<text text-anchor="middle" style="font-size:8.00;" x="504" y="1103">url</text>
<text text-anchor="middle" style="font-size:8.00;" x="548" y="1103">text</text>
<text text-anchor="middle" style="font-size:8.00;" x="592" y="1103"> UNIQUE </text>
<text text-anchor="middle" style="font-size:8.00;" x="511" y="1117">manual</text>
<text text-anchor="middle" style="font-size:8.00;" x="555" y="1117">boolean</text>
<polygon style="fill:none;stroke:black;" points="493,1123 493,935 667,935 667,1123 493,1123"/>
</g>
<g id="edge16" class="edge"><title>build&#45;&gt;builder</title>
<path style="fill:none;stroke:black;" d="M880,916C817,940 743,967 685,989"/>
<polygon style="fill:black;stroke:black;" points="686,993 675,993 683,986 686,993"/>
</g>
<g id="node6" class="node"><title>distroarchrelease</title>
<polygon style="fill:#c1cdcc;stroke:#c1cdcc;" points="446,566 446,448 712,448 712,566 446,566"/>
<polygon style="fill:white;stroke:white;" points="449,465 449,451 709,451 709,465 449,465"/>
<text text-anchor="middle" style="font-size:8.00;" x="579" y="461">distroarchrelease</text>
<polygon style="fill:none;stroke:black;" points="449,465 449,451 709,451 709,465 449,465"/>
<text text-anchor="middle" style="font-size:8.00;" x="455" y="476">id</text>
<text text-anchor="middle" style="font-size:8.00;" x="520" y="476">serial</text>
<text text-anchor="middle" style="font-size:8.00;" x="574" y="476"> PRIMARY KEY </text>
<text text-anchor="middle" style="font-size:8.00;" x="472" y="490">distrorelease</text>
<text text-anchor="middle" style="font-size:8.00;" x="523" y="490">integer</text>
<text text-anchor="middle" style="font-size:8.00;" x="626" y="490"> REFERENCES distrorelease UNIQUE UNIQUE </text>
<text text-anchor="middle" style="font-size:8.00;" x="478" y="504">processorfamily</text>
<text text-anchor="middle" style="font-size:8.00;" x="523" y="504">integer</text>
<text text-anchor="middle" style="font-size:8.00;" x="615" y="504"> REFERENCES processorfamily UNIQUE </text>
<text text-anchor="middle" style="font-size:8.00;" x="475" y="518">architecturetag</text>
<text text-anchor="middle" style="font-size:8.00;" x="518" y="518">text</text>
<text text-anchor="middle" style="font-size:8.00;" x="562" y="518"> UNIQUE </text>
<text text-anchor="middle" style="font-size:8.00;" x="462" y="532">owner</text>
<text text-anchor="middle" style="font-size:8.00;" x="523" y="532">integer</text>
<text text-anchor="middle" style="font-size:8.00;" x="584" y="532"> REFERENCES person </text>
<text text-anchor="middle" style="font-size:8.00;" x="463" y="546">official</text>
<text text-anchor="middle" style="font-size:8.00;" x="525" y="546">boolean</text>
<text text-anchor="middle" style="font-size:8.00;" x="476" y="560">package_count</text>
<text text-anchor="middle" style="font-size:8.00;" x="523" y="560">integer</text>
<polygon style="fill:none;stroke:black;" points="446,566 446,448 712,448 712,566 446,566"/>
</g>
<g id="edge12" class="edge"><title>build&#45;&gt;distroarchrelease</title>
<path style="fill:none;stroke:black;" d="M896,766C823,705 731,630 665,576"/>
<polygon style="fill:black;stroke:black;" points="663,579 657,570 667,573 663,579"/>
</g>
<g id="node13" class="node"><title>processor</title>
<polygon style="fill:#c1cdcc;stroke:#c1cdcc;" points="506,901 506,811 698,811 698,901 506,901"/>
<polygon style="fill:white;stroke:white;" points="509,828 509,814 695,814 695,828 509,828"/>
<text text-anchor="middle" style="font-size:8.00;" x="602" y="824">processor</text>
<polygon style="fill:none;stroke:black;" points="509,828 509,814 695,814 695,828 509,828"/>
<text text-anchor="middle" style="font-size:8.00;" x="515" y="839">id</text>
<text text-anchor="middle" style="font-size:8.00;" x="563" y="839">serial</text>
<text text-anchor="middle" style="font-size:8.00;" x="614" y="839"> PRIMARY KEY </text>
<text text-anchor="middle" style="font-size:8.00;" x="523" y="853">family</text>
<text text-anchor="middle" style="font-size:8.00;" x="566" y="853">integer</text>
<text text-anchor="middle" style="font-size:8.00;" x="639" y="853"> REFERENCES processorfamily </text>
<text text-anchor="middle" style="font-size:8.00;" x="521" y="867">name</text>
<text text-anchor="middle" style="font-size:8.00;" x="561" y="867">text</text>
<text text-anchor="middle" style="font-size:8.00;" x="602" y="867"> UNIQUE </text>
<text text-anchor="middle" style="font-size:8.00;" x="518" y="881">title</text>
<text text-anchor="middle" style="font-size:8.00;" x="561" y="881">text</text>
<text text-anchor="middle" style="font-size:8.00;" x="529" y="895">description</text>
<text text-anchor="middle" style="font-size:8.00;" x="561" y="895">text</text>
<polygon style="fill:none;stroke:black;" points="506,901 506,811 698,811 698,901 506,901"/>
</g>
<g id="edge10" class="edge"><title>build&#45;&gt;processor</title>
<path style="fill:none;stroke:black;" d="M880,861C827,860 767,859 716,858"/>
<polygon style="fill:black;stroke:black;" points="716,861 706,858 716,854 716,861"/>
</g>
<g id="node16" class="node"><title>sourcepackagerelease</title>
<polygon style="fill:#c1cdcc;stroke:#c1cdcc;" points="1438,921 1438,649 1684,649 1684,921 1438,921"/>
<polygon style="fill:white;stroke:white;" points="1441,666 1441,652 1681,652 1681,666 1441,666"/>
<text text-anchor="middle" style="font-size:8.00;" x="1561" y="662">sourcepackagerelease</text>
<polygon style="fill:none;stroke:black;" points="1441,666 1441,652 1681,652 1681,666 1441,666"/>
<text text-anchor="middle" style="font-size:8.00;" x="1447" y="677">id</text>
<text text-anchor="middle" style="font-size:8.00;" x="1524" y="677">serial</text>
<text text-anchor="middle" style="font-size:8.00;" x="1586" y="677"> PRIMARY KEY </text>
<text text-anchor="middle" style="font-size:8.00;" x="1455" y="691">creator</text>
<text text-anchor="middle" style="font-size:8.00;" x="1527" y="691">integer</text>
<text text-anchor="middle" style="font-size:8.00;" x="1596" y="691"> REFERENCES person </text>
<text text-anchor="middle" style="font-size:8.00;" x="1456" y="705">version</text>
<text text-anchor="middle" style="font-size:8.00;" x="1522" y="705">text</text>
<text text-anchor="middle" style="font-size:8.00;" x="1465" y="719">dateuploaded</text>
<text text-anchor="middle" style="font-size:8.00;" x="1533" y="719">timestamp</text>
<text text-anchor="middle" style="font-size:8.00;" x="1457" y="733">urgency</text>
<text text-anchor="middle" style="font-size:8.00;" x="1527" y="733">integer</text>
<text text-anchor="middle" style="font-size:8.00;" x="1467" y="747">dscsigningkey</text>
<text text-anchor="middle" style="font-size:8.00;" x="1527" y="747">integer</text>
<text text-anchor="middle" style="font-size:8.00;" x="1597" y="747"> REFERENCES gpgkey </text>
<text text-anchor="middle" style="font-size:8.00;" x="1462" y="761">component</text>
<text text-anchor="middle" style="font-size:8.00;" x="1527" y="761">integer</text>
<text text-anchor="middle" style="font-size:8.00;" x="1603" y="761"> REFERENCES component </text>
<text text-anchor="middle" style="font-size:8.00;" x="1460" y="775">changelog</text>
<text text-anchor="middle" style="font-size:8.00;" x="1522" y="775">text</text>
<text text-anchor="middle" style="font-size:8.00;" x="1466" y="789">builddepends</text>
<text text-anchor="middle" style="font-size:8.00;" x="1522" y="789">text</text>
<text text-anchor="middle" style="font-size:8.00;" x="1475" y="803">builddependsindep</text>
<text text-anchor="middle" style="font-size:8.00;" x="1522" y="803">text</text>
<text text-anchor="middle" style="font-size:8.00;" x="1474" y="817">architecturehintlist</text>
<text text-anchor="middle" style="font-size:8.00;" x="1522" y="817">text</text>
<text text-anchor="middle" style="font-size:8.00;" x="1449" y="831">dsc</text>
<text text-anchor="middle" style="font-size:8.00;" x="1522" y="831">text</text>
<text text-anchor="middle" style="font-size:8.00;" x="1455" y="845">section</text>
<text text-anchor="middle" style="font-size:8.00;" x="1527" y="845">integer</text>
<text text-anchor="middle" style="font-size:8.00;" x="1596" y="845"> REFERENCES section </text>
<text text-anchor="middle" style="font-size:8.00;" x="1458" y="859">manifest</text>
<text text-anchor="middle" style="font-size:8.00;" x="1527" y="859">integer</text>
<text text-anchor="middle" style="font-size:8.00;" x="1615" y="859"> REFERENCES manifest UNIQUE </text>
<text text-anchor="middle" style="font-size:8.00;" x="1461" y="873">maintainer</text>
<text text-anchor="middle" style="font-size:8.00;" x="1527" y="873">integer</text>
<text text-anchor="middle" style="font-size:8.00;" x="1596" y="873"> REFERENCES person </text>
<text text-anchor="middle" style="font-size:8.00;" x="1476" y="887">sourcepackagename</text>
<text text-anchor="middle" style="font-size:8.00;" x="1527" y="887">integer</text>
<text text-anchor="middle" style="font-size:8.00;" x="1618" y="887"> REFERENCES sourcepackagename </text>
<text text-anchor="middle" style="font-size:8.00;" x="1475" y="901">uploaddistrorelease</text>
<text text-anchor="middle" style="font-size:8.00;" x="1527" y="901">integer</text>
<text text-anchor="middle" style="font-size:8.00;" x="1605" y="901"> REFERENCES distrorelease </text>
<text text-anchor="middle" style="font-size:8.00;" x="1455" y="915">format</text>
<text text-anchor="middle" style="font-size:8.00;" x="1527" y="915">integer</text>
<polygon style="fill:none;stroke:black;" points="1438,921 1438,649 1684,649 1684,921 1438,921"/>
</g>
<g id="edge18" class="edge"><title>build&#45;&gt;sourcepackagerelease</title>
<path style="fill:none;stroke:black;" d="M1152,844C1234,832 1338,817 1420,805"/>
<polygon style="fill:black;stroke:black;" points="1420,802 1430,804 1420,808 1420,802"/>
</g>
<g id="node24" class="node"><title>fake_libraryfilealias_83</title>
<ellipse cx="918" cy="594" rx="35" ry="18" style="fill:none;stroke:red;"/>
<text text-anchor="middle" style="font-size:8.00;" x="918" y="597">libraryfilealias</text>
</g>
<g id="edge14" class="edge"><title>build&#45;&gt;fake_libraryfilealias_83</title>
<path style="fill:none;stroke:black;" d="M980,766C961,714 940,655 928,622"/>
<polygon style="fill:black;stroke:black;" points="924,623 924,612 931,620 924,623"/>
</g>
<g id="edge20" class="edge"><title>builder&#45;&gt;processor</title>
<path style="fill:none;stroke:black;" d="M592,931C593,926 593,920 594,915"/>
<polygon style="fill:black;stroke:black;" points="591,915 595,905 597,915 591,915"/>
</g>
<g id="node29" class="node"><title>fake_person_88</title>
<ellipse cx="348" cy="1156" rx="27" ry="18" style="fill:none;stroke:red;"/>
<text text-anchor="middle" style="font-size:8.00;" x="348" y="1159">person</text>
</g>
<g id="edge22" class="edge"><title>builder&#45;&gt;fake_person_88</title>
<path style="fill:none;stroke:black;" d="M485,1081C447,1102 405,1125 378,1139"/>
<polygon style="fill:black;stroke:black;" points="379,1142 369,1144 376,1136 379,1142"/>
</g>
<g id="node4" class="node"><title>buildqueue</title>
<polygon style="fill:#c1cdcc;stroke:#c1cdcc;" points="704,1252 704,1120 874,1120 874,1252 704,1252"/>
<polygon style="fill:white;stroke:white;" points="707,1137 707,1123 871,1123 871,1137 707,1137"/>
<text text-anchor="middle" style="font-size:8.00;" x="789" y="1133">buildqueue</text>
<polygon style="fill:none;stroke:black;" points="707,1137 707,1123 871,1123 871,1137 707,1137"/>
<text text-anchor="middle" style="font-size:8.00;" x="713" y="1148">id</text>
<text text-anchor="middle" style="font-size:8.00;" x="757" y="1148">serial</text>
<text text-anchor="middle" style="font-size:8.00;" x="819" y="1148"> PRIMARY KEY </text>
<text text-anchor="middle" style="font-size:8.00;" x="718" y="1162">build</text>
<text text-anchor="middle" style="font-size:8.00;" x="760" y="1162">integer</text>
<text text-anchor="middle" style="font-size:8.00;" x="826" y="1162"> REFERENCES build </text>
<text text-anchor="middle" style="font-size:8.00;" x="721" y="1176">builder</text>
<text text-anchor="middle" style="font-size:8.00;" x="760" y="1176">integer</text>
<text text-anchor="middle" style="font-size:8.00;" x="829" y="1176"> REFERENCES builder </text>
<text text-anchor="middle" style="font-size:8.00;" x="720" y="1190">logtail</text>
<text text-anchor="middle" style="font-size:8.00;" x="755" y="1190">text</text>
<text text-anchor="middle" style="font-size:8.00;" x="721" y="1204">created</text>
<text text-anchor="middle" style="font-size:8.00;" x="766" y="1204">timestamp</text>
<text text-anchor="middle" style="font-size:8.00;" x="725" y="1218">buildstart</text>
<text text-anchor="middle" style="font-size:8.00;" x="766" y="1218">timestamp</text>
<text text-anchor="middle" style="font-size:8.00;" x="724" y="1232">lastscore</text>
<text text-anchor="middle" style="font-size:8.00;" x="760" y="1232">integer</text>
<text text-anchor="middle" style="font-size:8.00;" x="722" y="1246">manual</text>
<text text-anchor="middle" style="font-size:8.00;" x="762" y="1246">boolean</text>
<polygon style="fill:none;stroke:black;" points="704,1252 704,1120 874,1120 874,1252 704,1252"/>
</g>
<g id="edge24" class="edge"><title>buildqueue&#45;&gt;build</title>
<path style="fill:none;stroke:black;" d="M839,1116C868,1073 907,1018 941,970"/>
<polygon style="fill:black;stroke:black;" points="938,968 947,962 944,972 938,968"/>
</g>
<g id="edge26" class="edge"><title>buildqueue&#45;&gt;builder</title>
<path style="fill:none;stroke:black;" d="M696,1116C692,1113 687,1110 683,1106"/>
<polygon style="fill:black;stroke:black;" points="681,1109 675,1100 685,1103 681,1109"/>
</g>
<g id="node14" class="node"><title>processorfamily</title>
<polygon style="fill:#c1cdcc;stroke:#c1cdcc;" points="280,764 280,688 416,688 416,764 280,764"/>
<polygon style="fill:white;stroke:white;" points="283,705 283,691 413,691 413,705 283,705"/>
<text text-anchor="middle" style="font-size:8.00;" x="348" y="701">processorfamily</text>
<polygon style="fill:none;stroke:black;" points="283,705 283,691 413,691 413,705 283,705"/>
<text text-anchor="middle" style="font-size:8.00;" x="289" y="716">id</text>
<text text-anchor="middle" style="font-size:8.00;" x="336" y="716">serial</text>
<text text-anchor="middle" style="font-size:8.00;" x="381" y="716"> PRIMARY KEY </text>
<text text-anchor="middle" style="font-size:8.00;" x="295" y="730">name</text>
<text text-anchor="middle" style="font-size:8.00;" x="334" y="730">text</text>
<text text-anchor="middle" style="font-size:8.00;" x="369" y="730"> UNIQUE </text>
<text text-anchor="middle" style="font-size:8.00;" x="292" y="744">title</text>
<text text-anchor="middle" style="font-size:8.00;" x="334" y="744">text</text>
<text text-anchor="middle" style="font-size:8.00;" x="303" y="758">description</text>
<text text-anchor="middle" style="font-size:8.00;" x="334" y="758">text</text>
<polygon style="fill:none;stroke:black;" points="280,764 280,688 416,688 416,764 280,764"/>
</g>
<g id="edge30" class="edge"><title>distroarchrelease&#45;&gt;processorfamily</title>
<path style="fill:none;stroke:black;" d="M512,570C477,604 433,646 399,677"/>
<polygon style="fill:black;stroke:black;" points="402,679 392,684 397,674 402,679"/>
</g>
<g id="node33" class="node"><title>fake_distrorelease_120</title>
<ellipse cx="523" cy="230" rx="32" ry="18" style="fill:none;stroke:red;"/>
<text text-anchor="middle" style="font-size:8.00;" x="523" y="233">distrorelease</text>
</g>
<g id="edge28" class="edge"><title>distroarchrelease&#45;&gt;fake_distrorelease_120</title>
<path style="fill:none;stroke:black;" d="M566,444C555,385 538,301 529,258"/>
<polygon style="fill:black;stroke:black;" points="526,258 527,248 532,257 526,258"/>
</g>
<g id="node36" class="node"><title>fake_person_123</title>
<ellipse cx="320" cy="413" rx="27" ry="18" style="fill:none;stroke:red;"/>
<text text-anchor="middle" style="font-size:8.00;" x="320" y="416">person</text>
</g>
<g id="edge32" class="edge"><title>distroarchrelease&#45;&gt;fake_person_123</title>
<path style="fill:none;stroke:black;" d="M438,456C406,445 375,433 353,425"/>
<polygon style="fill:black;stroke:black;" points="352,428 344,422 355,422 352,428"/>
</g>
<g id="node7" class="node"><title>distrocomponentuploader</title>
<polygon style="fill:#c1cdcc;stroke:#c1cdcc;" points="1498,1647 1498,1571 1710,1571 1710,1647 1498,1647"/>
<polygon style="fill:white;stroke:white;" points="1501,1588 1501,1574 1707,1574 1707,1588 1501,1588"/>
<text text-anchor="middle" style="font-size:8.00;" x="1604" y="1584">distrocomponentuploader</text>
<polygon style="fill:none;stroke:black;" points="1501,1588 1501,1574 1707,1574 1707,1588 1501,1588"/>
<text text-anchor="middle" style="font-size:8.00;" x="1507" y="1599">id</text>
<text text-anchor="middle" style="font-size:8.00;" x="1557" y="1599">serial</text>
<text text-anchor="middle" style="font-size:8.00;" x="1608" y="1599"> PRIMARY KEY </text>
<text text-anchor="middle" style="font-size:8.00;" x="1522" y="1613">distribution</text>
<text text-anchor="middle" style="font-size:8.00;" x="1560" y="1613">integer</text>
<text text-anchor="middle" style="font-size:8.00;" x="1642" y="1613"> REFERENCES distribution UNIQUE </text>
<text text-anchor="middle" style="font-size:8.00;" x="1522" y="1627">component</text>
<text text-anchor="middle" style="font-size:8.00;" x="1560" y="1627">integer</text>
<text text-anchor="middle" style="font-size:8.00;" x="1641" y="1627"> REFERENCES component UNIQUE </text>
<text text-anchor="middle" style="font-size:8.00;" x="1518" y="1641">uploader</text>
<text text-anchor="middle" style="font-size:8.00;" x="1560" y="1641">integer</text>
<text text-anchor="middle" style="font-size:8.00;" x="1618" y="1641"> REFERENCES person </text>
<polygon style="fill:none;stroke:black;" points="1498,1647 1498,1571 1710,1571 1710,1647 1498,1647"/>
</g>
<g id="edge36" class="edge"><title>distrocomponentuploader&#45;&gt;component</title>
<path style="fill:none;stroke:black;" d="M1596,1567C1583,1498 1556,1358 1542,1290"/>
<polygon style="fill:black;stroke:black;" points="1539,1290 1540,1280 1545,1289 1539,1290"/>
</g>
<g id="node38" class="node"><title>fake_distribution_125</title>
<ellipse cx="1574" cy="1856" rx="30" ry="18" style="fill:none;stroke:red;"/>
<text text-anchor="middle" style="font-size:8.00;" x="1574" y="1859">distribution</text>
</g>
<g id="edge34" class="edge"><title>distrocomponentuploader&#45;&gt;fake_distribution_125</title>
<path style="fill:none;stroke:black;" d="M1599,1651C1593,1702 1583,1785 1577,1828"/>
<polygon style="fill:black;stroke:black;" points="1580,1828 1576,1838 1574,1828 1580,1828"/>
</g>
<g id="node41" class="node"><title>fake_person_128</title>
<ellipse cx="1727" cy="1821" rx="27" ry="18" style="fill:none;stroke:red;"/>
<text text-anchor="middle" style="font-size:8.00;" x="1727" y="1824">person</text>
</g>
<g id="edge38" class="edge"><title>distrocomponentuploader&#45;&gt;fake_person_128</title>
<path style="fill:none;stroke:black;" d="M1628,1651C1653,1694 1691,1759 1712,1795"/>
<polygon style="fill:black;stroke:black;" points="1715,1794 1717,1804 1709,1797 1715,1794"/>
</g>
<g id="node8" class="node"><title>distroreleasequeue</title>
<polygon style="fill:#c1cdcc;stroke:#c1cdcc;" points="1860,1168 1860,1078 2052,1078 2052,1168 1860,1168"/>
<polygon style="fill:white;stroke:white;" points="1863,1095 1863,1081 2049,1081 2049,1095 1863,1095"/>
<text text-anchor="middle" style="font-size:8.00;" x="1956" y="1091">distroreleasequeue</text>
<polygon style="fill:none;stroke:black;" points="1863,1095 1863,1081 2049,1081 2049,1095 1863,1095"/>
<text text-anchor="middle" style="font-size:8.00;" x="1869" y="1106">id</text>
<text text-anchor="middle" style="font-size:8.00;" x="1922" y="1106">serial</text>
<text text-anchor="middle" style="font-size:8.00;" x="1973" y="1106"> PRIMARY KEY </text>
<text text-anchor="middle" style="font-size:8.00;" x="1875" y="1120">status</text>
<text text-anchor="middle" style="font-size:8.00;" x="1925" y="1120">integer</text>
<text text-anchor="middle" style="font-size:8.00;" x="1886" y="1134">distrorelease</text>
<text text-anchor="middle" style="font-size:8.00;" x="1925" y="1134">integer</text>
<text text-anchor="middle" style="font-size:8.00;" x="1992" y="1134"> REFERENCES distrorelease </text>
<text text-anchor="middle" style="font-size:8.00;" x="1877" y="1148">pocket</text>
<text text-anchor="middle" style="font-size:8.00;" x="1925" y="1148">integer</text>
<text text-anchor="middle" style="font-size:8.00;" x="1884" y="1162">changesfile</text>
<text text-anchor="middle" style="font-size:8.00;" x="1925" y="1162">integer</text>
<text text-anchor="middle" style="font-size:8.00;" x="1995" y="1162"> REFERENCES libraryfilealias </text>
<polygon style="fill:none;stroke:black;" points="1860,1168 1860,1078 2052,1078 2052,1168 1860,1168"/>
</g>
<g id="node43" class="node"><title>fake_distrorelease_139</title>
<ellipse cx="2111" cy="1318" rx="32" ry="18" style="fill:none;stroke:red;"/>
<text text-anchor="middle" style="font-size:8.00;" x="2111" y="1321">distrorelease</text>
</g>
<g id="edge40" class="edge"><title>distroreleasequeue&#45;&gt;fake_distrorelease_139</title>
<path style="fill:none;stroke:black;" d="M1995,1172C2026,1210 2067,1263 2092,1293"/>
<polygon style="fill:black;stroke:black;" points="2095,1291 2098,1301 2089,1295 2095,1291"/>
</g>
<g id="node45" class="node"><title>fake_libraryfilealias_141</title>
<ellipse cx="2202" cy="1095" rx="35" ry="18" style="fill:none;stroke:red;"/>
<text text-anchor="middle" style="font-size:8.00;" x="2202" y="1098">libraryfilealias</text>
</g>
<g id="edge42" class="edge"><title>distroreleasequeue&#45;&gt;fake_libraryfilealias_141</title>
<path style="fill:none;stroke:black;" d="M2060,1111C2094,1107 2131,1103 2158,1100"/>
<polygon style="fill:black;stroke:black;" points="2158,1097 2168,1099 2158,1103 2158,1097"/>
</g>
<g id="node9" class="node"><title>distroreleasequeuebuild</title>
<polygon style="fill:#c1cdcc;stroke:#c1cdcc;" points="1410,1048 1410,986 1634,986 1634,1048 1410,1048"/>
<polygon style="fill:white;stroke:white;" points="1413,1003 1413,989 1631,989 1631,1003 1413,1003"/>
<text text-anchor="middle" style="font-size:8.00;" x="1522" y="999">distroreleasequeuebuild</text>
<polygon style="fill:none;stroke:black;" points="1413,1003 1413,989 1631,989 1631,1003 1413,1003"/>
<text text-anchor="middle" style="font-size:8.00;" x="1419" y="1014">id</text>
<text text-anchor="middle" style="font-size:8.00;" x="1491" y="1014">serial</text>
<text text-anchor="middle" style="font-size:8.00;" x="1542" y="1014"> PRIMARY KEY </text>
<text text-anchor="middle" style="font-size:8.00;" x="1446" y="1028">distroreleasequeue</text>
<text text-anchor="middle" style="font-size:8.00;" x="1494" y="1028">integer</text>
<text text-anchor="middle" style="font-size:8.00;" x="1571" y="1028"> REFERENCES distroreleasequeue </text>
<text text-anchor="middle" style="font-size:8.00;" x="1424" y="1042">build</text>
<text text-anchor="middle" style="font-size:8.00;" x="1494" y="1042">integer</text>
<text text-anchor="middle" style="font-size:8.00;" x="1549" y="1042"> REFERENCES build </text>
<polygon style="fill:none;stroke:black;" points="1410,1048 1410,986 1634,986 1634,1048 1410,1048"/>
</g>
<g id="edge46" class="edge"><title>distroreleasequeuebuild&#45;&gt;build</title>
<path style="fill:none;stroke:black;" d="M1406,982C1334,960 1240,931 1162,908"/>
<polygon style="fill:black;stroke:black;" points="1161,911 1152,905 1163,905 1161,911"/>
</g>
<g id="edge44" class="edge"><title>distroreleasequeuebuild&#45;&gt;distroreleasequeue</title>
<path style="fill:none;stroke:black;" d="M1642,1046C1705,1061 1780,1080 1842,1096"/>
<polygon style="fill:black;stroke:black;" points="1843,1093 1852,1098 1842,1099 1843,1093"/>
</g>
<g id="node10" class="node"><title>distroreleasequeuecustom</title>
<polygon style="fill:#c1cdcc;stroke:#c1cdcc;" points="2229,1293 2229,1217 2453,1217 2453,1293 2229,1293"/>
<polygon style="fill:white;stroke:white;" points="2232,1234 2232,1220 2450,1220 2450,1234 2232,1234"/>
<text text-anchor="middle" style="font-size:8.00;" x="2341" y="1230">distroreleasequeuecustom</text>
<polygon style="fill:none;stroke:black;" points="2232,1234 2232,1220 2450,1220 2450,1234 2232,1234"/>
<text text-anchor="middle" style="font-size:8.00;" x="2238" y="1245">id</text>
<text text-anchor="middle" style="font-size:8.00;" x="2310" y="1245">serial</text>
<text text-anchor="middle" style="font-size:8.00;" x="2361" y="1245"> PRIMARY KEY </text>
<text text-anchor="middle" style="font-size:8.00;" x="2265" y="1259">distroreleasequeue</text>
<text text-anchor="middle" style="font-size:8.00;" x="2313" y="1259">integer</text>
<text text-anchor="middle" style="font-size:8.00;" x="2390" y="1259"> REFERENCES distroreleasequeue </text>
<text text-anchor="middle" style="font-size:8.00;" x="2257" y="1273">customformat</text>
<text text-anchor="middle" style="font-size:8.00;" x="2313" y="1273">integer</text>
<text text-anchor="middle" style="font-size:8.00;" x="2258" y="1287">libraryfilealias</text>
<text text-anchor="middle" style="font-size:8.00;" x="2313" y="1287">integer</text>
<text text-anchor="middle" style="font-size:8.00;" x="2383" y="1287"> REFERENCES libraryfilealias </text>
<polygon style="fill:none;stroke:black;" points="2229,1293 2229,1217 2453,1217 2453,1293 2229,1293"/>
</g>
<g id="edge48" class="edge"><title>distroreleasequeuecustom&#45;&gt;distroreleasequeue</title>
<path style="fill:none;stroke:black;" d="M2221,1214C2172,1197 2117,1178 2069,1162"/>
<polygon style="fill:black;stroke:black;" points="2068,1165 2060,1159 2071,1159 2068,1165"/>
</g>
<g id="node50" class="node"><title>fake_libraryfilealias_146</title>
<ellipse cx="2595" cy="1336" rx="35" ry="18" style="fill:none;stroke:red;"/>
<text text-anchor="middle" style="font-size:8.00;" x="2595" y="1339">libraryfilealias</text>
</g>
<g id="edge50" class="edge"><title>distroreleasequeuecustom&#45;&gt;fake_libraryfilealias_146</title>
<path style="fill:none;stroke:black;" d="M2461,1293C2495,1304 2530,1315 2555,1323"/>
<polygon style="fill:black;stroke:black;" points="2556,1320 2565,1326 2554,1326 2556,1320"/>
</g>
<g id="node11" class="node"><title>distroreleasequeuesource</title>
<polygon style="fill:#c1cdcc;stroke:#c1cdcc;" points="1799,1053 1799,991 2043,991 2043,1053 1799,1053"/>
<polygon style="fill:white;stroke:white;" points="1802,1008 1802,994 2040,994 2040,1008 1802,1008"/>
<text text-anchor="middle" style="font-size:8.00;" x="1921" y="1004">distroreleasequeuesource</text>
<polygon style="fill:none;stroke:black;" points="1802,1008 1802,994 2040,994 2040,1008 1802,1008"/>
<text text-anchor="middle" style="font-size:8.00;" x="1808" y="1019">id</text>
<text text-anchor="middle" style="font-size:8.00;" x="1890" y="1019">serial</text>
<text text-anchor="middle" style="font-size:8.00;" x="1941" y="1019"> PRIMARY KEY </text>
<text text-anchor="middle" style="font-size:8.00;" x="1835" y="1033">distroreleasequeue</text>
<text text-anchor="middle" style="font-size:8.00;" x="1893" y="1033">integer</text>
<text text-anchor="middle" style="font-size:8.00;" x="1970" y="1033"> REFERENCES distroreleasequeue </text>
<text text-anchor="middle" style="font-size:8.00;" x="1840" y="1047">sourcepackagerelease</text>
<text text-anchor="middle" style="font-size:8.00;" x="1893" y="1047">integer</text>
<text text-anchor="middle" style="font-size:8.00;" x="1975" y="1047"> REFERENCES sourcepackagerelease </text>
<polygon style="fill:none;stroke:black;" points="1799,1053 1799,991 2043,991 2043,1053 1799,1053"/>
</g>
<g id="edge52" class="edge"><title>distroreleasequeuesource&#45;&gt;distroreleasequeue</title>
<path style="fill:none;stroke:black;" d="M1933,1057C1934,1059 1935,1062 1936,1064"/>
<polygon style="fill:black;stroke:black;" points="1939,1063 1939,1074 1933,1065 1939,1063"/>
</g>
<g id="edge54" class="edge"><title>distroreleasequeuesource&#45;&gt;sourcepackagerelease</title>
<path style="fill:none;stroke:black;" d="M1867,987C1823,958 1759,915 1701,878"/>
<polygon style="fill:black;stroke:black;" points="1698,880 1692,872 1702,875 1698,880"/>
</g>
<g id="node12" class="node"><title>pocketchroot</title>
<polygon style="fill:#c1cdcc;stroke:#c1cdcc;" points="124,239 124,163 370,163 370,239 124,239"/>
<polygon style="fill:white;stroke:white;" points="127,180 127,166 367,166 367,180 127,180"/>
<text text-anchor="middle" style="font-size:8.00;" x="247" y="176">pocketchroot</text>
<polygon style="fill:none;stroke:black;" points="127,180 127,166 367,166 367,180 127,180"/>
<text text-anchor="middle" style="font-size:8.00;" x="133" y="191">id</text>
<text text-anchor="middle" style="font-size:8.00;" x="200" y="191">serial</text>
<text text-anchor="middle" style="font-size:8.00;" x="251" y="191"> PRIMARY KEY </text>
<text text-anchor="middle" style="font-size:8.00;" x="157" y="205">distroarchrelease</text>
<text text-anchor="middle" style="font-size:8.00;" x="203" y="205">integer</text>
<text text-anchor="middle" style="font-size:8.00;" x="293" y="205"> REFERENCES distroarchrelease UNIQUE </text>
<text text-anchor="middle" style="font-size:8.00;" x="141" y="219">pocket</text>
<text text-anchor="middle" style="font-size:8.00;" x="203" y="219">integer</text>
<text text-anchor="middle" style="font-size:8.00;" x="239" y="219"> UNIQUE </text>
<text text-anchor="middle" style="font-size:8.00;" x="140" y="233">chroot</text>
<text text-anchor="middle" style="font-size:8.00;" x="203" y="233">integer</text>
<text text-anchor="middle" style="font-size:8.00;" x="289" y="233"> REFERENCES libraryfilealias UNIQUE </text>
<polygon style="fill:none;stroke:black;" points="124,239 124,163 370,163 370,239 124,239"/>
</g>
<g id="edge56" class="edge"><title>pocketchroot&#45;&gt;distroarchrelease</title>
<path style="fill:none;stroke:black;" d="M293,243C347,293 439,377 504,437"/>
<polygon style="fill:black;stroke:black;" points="506,434 511,444 501,439 506,434"/>
</g>
<g id="node55" class="node"><title>fake_libraryfilealias_230</title>
<ellipse cx="41" cy="23" rx="35" ry="18" style="fill:none;stroke:red;"/>
<text text-anchor="middle" style="font-size:8.00;" x="41" y="26">libraryfilealias</text>
</g>
<g id="edge58" class="edge"><title>pocketchroot&#45;&gt;fake_libraryfilealias_230</title>
<path style="fill:none;stroke:black;" d="M198,159C157,123 100,74 67,46"/>
<polygon style="fill:black;stroke:black;" points="64,48 59,39 69,43 64,48"/>
</g>
<g id="edge60" class="edge"><title>processor&#45;&gt;processorfamily</title>
<path style="fill:none;stroke:black;" d="M506,807C482,795 457,781 433,769"/>
<polygon style="fill:black;stroke:black;" points="432,772 424,765 435,766 432,772"/>
</g>
<g id="edge66" class="edge"><title>sourcepackagerelease&#45;&gt;component</title>
<path style="fill:none;stroke:black;" d="M1638,925C1652,966 1659,1012 1648,1054 1631,1115 1591,1178 1563,1216"/>
<polygon style="fill:black;stroke:black;" points="1566,1218 1557,1224 1560,1214 1566,1218"/>
</g>
<g id="edge68" class="edge"><title>sourcepackagerelease&#45;&gt;section</title>
<path style="fill:none;stroke:black;" d="M1430,925C1398,958 1368,992 1345,1016"/>
<polygon style="fill:black;stroke:black;" points="1348,1018 1338,1023 1343,1013 1348,1018"/>
</g>
<g id="node58" class="node"><title>fake_person_341</title>
<ellipse cx="1891" cy="734" rx="27" ry="18" style="fill:none;stroke:red;"/>
<text text-anchor="middle" style="font-size:8.00;" x="1891" y="737">person</text>
</g>
<g id="edge62" class="edge"><title>sourcepackagerelease&#45;&gt;fake_person_341</title>
<path style="fill:none;stroke:black;" d="M1692,765C1751,756 1815,746 1855,740"/>
<polygon style="fill:black;stroke:black;" points="1855,737 1865,738 1856,743 1855,737"/>
</g>
<g id="node60" class="node"><title>fake_gpgkey_343</title>
<ellipse cx="1776" cy="508" rx="27" ry="18" style="fill:none;stroke:red;"/>
<text text-anchor="middle" style="font-size:8.00;" x="1776" y="511">gpgkey</text>
</g>
<g id="edge64" class="edge"><title>sourcepackagerelease&#45;&gt;fake_gpgkey_343</title>
<path style="fill:none;stroke:black;" d="M1670,645C1703,601 1737,558 1757,532"/>
<polygon style="fill:black;stroke:black;" points="1754,530 1763,524 1760,534 1754,530"/>
</g>
<g id="node64" class="node"><title>fake_manifest_347</title>
<ellipse cx="1667" cy="452" rx="27" ry="18" style="fill:none;stroke:red;"/>
<text text-anchor="middle" style="font-size:8.00;" x="1667" y="455">manifest</text>
</g>
<g id="edge70" class="edge"><title>sourcepackagerelease&#45;&gt;fake_manifest_347</title>
<path style="fill:none;stroke:black;" d="M1606,645C1626,583 1647,516 1658,480"/>
<polygon style="fill:black;stroke:black;" points="1655,479 1661,470 1661,481 1655,479"/>
</g>
<g id="node66" class="node"><title>fake_person_349</title>
<ellipse cx="1538" cy="446" rx="27" ry="18" style="fill:none;stroke:red;"/>
<text text-anchor="middle" style="font-size:8.00;" x="1538" y="449">person</text>
</g>
<g id="edge72" class="edge"><title>sourcepackagerelease&#45;&gt;fake_person_349</title>
<path style="fill:none;stroke:black;" d="M1551,645C1547,581 1542,512 1540,474"/>
<polygon style="fill:black;stroke:black;" points="1537,474 1539,464 1543,474 1537,474"/>
</g>
<g id="node68" class="node"><title>fake_sourcepackagename_351</title>
<ellipse cx="1394" cy="481" rx="44" ry="18" style="fill:none;stroke:red;"/>
<text text-anchor="middle" style="font-size:8.00;" x="1394" y="484">sourcepackagename</text>
</g>
<g id="edge74" class="edge"><title>sourcepackagerelease&#45;&gt;fake_sourcepackagename_351</title>
<path style="fill:none;stroke:black;" d="M1484,645C1455,592 1426,539 1409,508"/>
<polygon style="fill:black;stroke:black;" points="1406,509 1404,499 1412,506 1406,509"/>
</g>
<g id="node70" class="node"><title>fake_distrorelease_353</title>
<ellipse cx="1864" cy="598" rx="32" ry="18" style="fill:none;stroke:red;"/>
<text text-anchor="middle" style="font-size:8.00;" x="1864" y="601">distrorelease</text>
</g>
<g id="edge76" class="edge"><title>sourcepackagerelease&#45;&gt;fake_distrorelease_353</title>
<path style="fill:none;stroke:black;" d="M1692,704C1744,672 1800,638 1834,617"/>
<polygon style="fill:black;stroke:black;" points="1833,614 1843,611 1837,619 1833,614"/>
</g>
</g>
</svg>
