<?xml version="1.0" encoding="UTF-8" standalone="no"?>
<!DOCTYPE svg PUBLIC "-//W3C//DTD SVG 1.0//EN"
 "http://www.w3.org/TR/2001/REC-SVG-20010904/DTD/svg10.dtd">
<!-- Generated by fdp version 2.2 (Sat Feb  5 01:37:52 UTC 2005)
     For user: (stub) Stuart Bishop,,,   Title: g    Pages: 1 -->
<svg width="622px" height="535px"
 viewBox = "-1 -1 621 534"
 xmlns="http://www.w3.org/2000/svg">
<g id="graph0" class="graph" transform = "scale(0.490159)"
 style="font-family:Times-Roman;font-size:14.00;">
<title>g</title>
<text text-anchor="middle" style="font-size:22.00;" x="627" y="1071">Build</text>
<g id="node1" class="node"><title>build</title>
<polygon style="fill:#c1cdcc;stroke:#c1cdcc;" points="707,897 707,735 905,735 905,897 707,897"/>
<polygon style="fill:white;stroke:white;" points="710,750 710,738 902,738 902,750 710,750"/>
<text text-anchor="middle" style="font-size:6.00;" x="806" y="746">build</text>
<polygon style="fill:none;stroke:black;" points="710,750 710,738 902,738 902,750 710,750"/>
<text text-anchor="middle" style="font-size:6.00;" x="715" y="759">id</text>
<text text-anchor="middle" style="font-size:6.00;" x="778" y="759">serial</text>
<text text-anchor="middle" style="font-size:6.00;" x="827" y="759"> PRIMARY KEY </text>
<text text-anchor="middle" style="font-size:6.00;" x="727" y="771">datecreated</text>
<text text-anchor="middle" style="font-size:6.00;" x="785" y="771">timestamp</text>
<text text-anchor="middle" style="font-size:6.00;" x="725" y="783">processor</text>
<text text-anchor="middle" style="font-size:6.00;" x="780" y="783">integer</text>
<text text-anchor="middle" style="font-size:6.00;" x="838" y="783"> REFERENCES processor </text>
<text text-anchor="middle" style="font-size:6.00;" x="733" y="795">distroarchrelease</text>
<text text-anchor="middle" style="font-size:6.00;" x="780" y="795">integer</text>
<text text-anchor="middle" style="font-size:6.00;" x="846" y="795"> REFERENCES distroarchrelease </text>
<text text-anchor="middle" style="font-size:6.00;" x="725" y="807">buildstate</text>
<text text-anchor="middle" style="font-size:6.00;" x="780" y="807">integer</text>
<text text-anchor="middle" style="font-size:6.00;" x="724" y="819">datebuilt</text>
<text text-anchor="middle" style="font-size:6.00;" x="785" y="819">timestamp</text>
<text text-anchor="middle" style="font-size:6.00;" x="730" y="831">buildduration</text>
<text text-anchor="middle" style="font-size:6.00;" x="781" y="831">interval</text>
<text text-anchor="middle" style="font-size:6.00;" x="723" y="843">buildlog</text>
<text text-anchor="middle" style="font-size:6.00;" x="780" y="843">integer</text>
<text text-anchor="middle" style="font-size:6.00;" x="844" y="843"> REFERENCES libraryfilealias </text>
<text text-anchor="middle" style="font-size:6.00;" x="722" y="855">builder</text>
<text text-anchor="middle" style="font-size:6.00;" x="780" y="855">integer</text>
<text text-anchor="middle" style="font-size:6.00;" x="835" y="855"> REFERENCES builder </text>
<text text-anchor="middle" style="font-size:6.00;" x="731" y="867">gpgsigningkey</text>
<text text-anchor="middle" style="font-size:6.00;" x="780" y="867">integer</text>
<text text-anchor="middle" style="font-size:6.00;" x="835" y="867"> REFERENCES gpgkey </text>
<text text-anchor="middle" style="font-size:6.00;" x="723" y="879">changes</text>
<text text-anchor="middle" style="font-size:6.00;" x="777" y="879">text</text>
<text text-anchor="middle" style="font-size:6.00;" x="739" y="891">sourcepackagerelease</text>
<text text-anchor="middle" style="font-size:6.00;" x="780" y="891">integer</text>
<text text-anchor="middle" style="font-size:6.00;" x="852" y="891"> REFERENCES sourcepackagerelease </text>
<polygon style="fill:none;stroke:black;" points="707,897 707,735 905,735 905,897 707,897"/>
</g>
<g id="node2" class="node"><title>builder</title>
<polygon style="fill:#c1cdcc;stroke:#c1cdcc;" points="1006,706 1006,556 1146,556 1146,706 1006,706"/>
<polygon style="fill:white;stroke:white;" points="1009,571 1009,559 1143,559 1143,571 1009,571"/>
<text text-anchor="middle" style="font-size:6.00;" x="1076" y="567">builder</text>
<polygon style="fill:none;stroke:black;" points="1009,571 1009,559 1143,559 1143,571 1009,571"/>
<text text-anchor="middle" style="font-size:6.00;" x="1014" y="580">id</text>
<text text-anchor="middle" style="font-size:6.00;" x="1054" y="580">serial</text>
<text text-anchor="middle" style="font-size:6.00;" x="1097" y="580"> PRIMARY KEY </text>
<text text-anchor="middle" style="font-size:6.00;" x="1024" y="592">processor</text>
<text text-anchor="middle" style="font-size:6.00;" x="1056" y="592">integer</text>
<text text-anchor="middle" style="font-size:6.00;" x="1108" y="592"> REFERENCES processor </text>
<text text-anchor="middle" style="font-size:6.00;" x="1019" y="604">name</text>
<text text-anchor="middle" style="font-size:6.00;" x="1053" y="604">text</text>
<text text-anchor="middle" style="font-size:6.00;" x="1017" y="616">title</text>
<text text-anchor="middle" style="font-size:6.00;" x="1053" y="616">text</text>
<text text-anchor="middle" style="font-size:6.00;" x="1026" y="628">description</text>
<text text-anchor="middle" style="font-size:6.00;" x="1053" y="628">text</text>
<text text-anchor="middle" style="font-size:6.00;" x="1020" y="640">owner</text>
<text text-anchor="middle" style="font-size:6.00;" x="1056" y="640">integer</text>
<text text-anchor="middle" style="font-size:6.00;" x="1104" y="640"> REFERENCES person </text>
<text text-anchor="middle" style="font-size:6.00;" x="1025" y="652">speedindex</text>
<text text-anchor="middle" style="font-size:6.00;" x="1056" y="652">integer</text>
<text text-anchor="middle" style="font-size:6.00;" x="1024" y="664">builderok</text>
<text text-anchor="middle" style="font-size:6.00;" x="1058" y="664">boolean</text>
<text text-anchor="middle" style="font-size:6.00;" x="1023" y="676">failnotes</text>
<text text-anchor="middle" style="font-size:6.00;" x="1053" y="676">text</text>
<text text-anchor="middle" style="font-size:6.00;" x="1020" y="688">trusted</text>
<text text-anchor="middle" style="font-size:6.00;" x="1058" y="688">boolean</text>
<text text-anchor="middle" style="font-size:6.00;" x="1015" y="700">url</text>
<text text-anchor="middle" style="font-size:6.00;" x="1053" y="700">text</text>
<text text-anchor="middle" style="font-size:6.00;" x="1088" y="700"> UNIQUE </text>
<polygon style="fill:none;stroke:black;" points="1006,706 1006,556 1146,556 1146,706 1006,706"/>
</g>
<g id="edge8" class="edge"><title>build&#45;&gt;builder</title>
<path style="fill:none;stroke:black;" d="M913,743C938,725 965,707 990,690"/>
<polygon style="fill:black;stroke:black;" points="988,687 998,684 992,693 988,687"/>
</g>
<g id="node4" class="node"><title>distroarchrelease</title>
<polygon style="fill:#c1cdcc;stroke:#c1cdcc;" points="433,596 433,518 637,518 637,596 433,596"/>
<polygon style="fill:white;stroke:white;" points="436,533 436,521 634,521 634,533 436,533"/>
<text text-anchor="middle" style="font-size:6.00;" x="535" y="529">distroarchrelease</text>
<polygon style="fill:none;stroke:black;" points="436,533 436,521 634,521 634,533 436,533"/>
<text text-anchor="middle" style="font-size:6.00;" x="441" y="542">id</text>
<text text-anchor="middle" style="font-size:6.00;" x="492" y="542">serial</text>
<text text-anchor="middle" style="font-size:6.00;" x="532" y="542"> PRIMARY KEY </text>
<text text-anchor="middle" style="font-size:6.00;" x="454" y="554">distrorelease</text>
<text text-anchor="middle" style="font-size:6.00;" x="494" y="554">integer</text>
<text text-anchor="middle" style="font-size:6.00;" x="571" y="554"> REFERENCES distrorelease UNIQUE UNIQUE </text>
<text text-anchor="middle" style="font-size:6.00;" x="459" y="566">processorfamily</text>
<text text-anchor="middle" style="font-size:6.00;" x="494" y="566">integer</text>
<text text-anchor="middle" style="font-size:6.00;" x="563" y="566"> REFERENCES processorfamily UNIQUE </text>
<text text-anchor="middle" style="font-size:6.00;" x="457" y="578">architecturetag</text>
<text text-anchor="middle" style="font-size:6.00;" x="491" y="578">text</text>
<text text-anchor="middle" style="font-size:6.00;" x="523" y="578"> UNIQUE </text>
<text text-anchor="middle" style="font-size:6.00;" x="447" y="590">owner</text>
<text text-anchor="middle" style="font-size:6.00;" x="494" y="590">integer</text>
<text text-anchor="middle" style="font-size:6.00;" x="539" y="590"> REFERENCES person </text>
<polygon style="fill:none;stroke:black;" points="433,596 433,518 637,518 637,596 433,596"/>
</g>
<g id="edge4" class="edge"><title>build&#45;&gt;distroarchrelease</title>
<path style="fill:none;stroke:black;" d="M717,731C674,690 625,642 587,607"/>
<polygon style="fill:black;stroke:black;" points="585,610 580,600 590,605 585,610"/>
</g>
<g id="node10" class="node"><title>processor</title>
<polygon style="fill:#c1cdcc;stroke:#c1cdcc;" points="784,709 784,631 936,631 936,709 784,709"/>
<polygon style="fill:white;stroke:white;" points="787,646 787,634 933,634 933,646 787,646"/>
<text text-anchor="middle" style="font-size:6.00;" x="860" y="642">processor</text>
<polygon style="fill:none;stroke:black;" points="787,646 787,634 933,634 933,646 787,646"/>
<text text-anchor="middle" style="font-size:6.00;" x="792" y="655">id</text>
<text text-anchor="middle" style="font-size:6.00;" x="831" y="655">serial</text>
<text text-anchor="middle" style="font-size:6.00;" x="871" y="655"> PRIMARY KEY </text>
<text text-anchor="middle" style="font-size:6.00;" x="798" y="667">family</text>
<text text-anchor="middle" style="font-size:6.00;" x="833" y="667">integer</text>
<text text-anchor="middle" style="font-size:6.00;" x="890" y="667"> REFERENCES processorfamily </text>
<text text-anchor="middle" style="font-size:6.00;" x="797" y="679">name</text>
<text text-anchor="middle" style="font-size:6.00;" x="830" y="679">text</text>
<text text-anchor="middle" style="font-size:6.00;" x="862" y="679"> UNIQUE </text>
<text text-anchor="middle" style="font-size:6.00;" x="795" y="691">title</text>
<text text-anchor="middle" style="font-size:6.00;" x="830" y="691">text</text>
<text text-anchor="middle" style="font-size:6.00;" x="804" y="703">description</text>
<text text-anchor="middle" style="font-size:6.00;" x="830" y="703">text</text>
<polygon style="fill:none;stroke:black;" points="784,709 784,631 936,631 936,709 784,709"/>
</g>
<g id="edge2" class="edge"><title>build&#45;&gt;processor</title>
<path style="fill:none;stroke:black;" d="M838,731C839,728 840,725 841,723"/>
<polygon style="fill:black;stroke:black;" points="838,722 844,713 844,724 838,722"/>
</g>
<g id="node14" class="node"><title>fake_libraryfilealias_73</title>
<ellipse cx="755" cy="1028" rx="29" ry="18" style="fill:none;stroke:red;"/>
<text text-anchor="middle" style="font-size:6.00;" x="755" y="1030">libraryfilealias</text>
</g>
<g id="edge6" class="edge"><title>build&#45;&gt;fake_libraryfilealias_73</title>
<path style="fill:none;stroke:black;" d="M786,901C777,936 768,975 761,1000"/>
<polygon style="fill:black;stroke:black;" points="764,1001 759,1010 758,1000 764,1001"/>
</g>
<g id="node17" class="node"><title>fake_gpgkey_76</title>
<ellipse cx="880" cy="1020" rx="27" ry="18" style="fill:none;stroke:red;"/>
<text text-anchor="middle" style="font-size:6.00;" x="880" y="1022">gpgkey</text>
</g>
<g id="edge10" class="edge"><title>build&#45;&gt;fake_gpgkey_76</title>
<path style="fill:none;stroke:black;" d="M837,901C848,934 861,969 870,992"/>
<polygon style="fill:black;stroke:black;" points="873,991 873,1002 867,993 873,991"/>
</g>
<g id="node19" class="node"><title>fake_sourcepackagerelease_78</title>
<ellipse cx="984" cy="958" rx="37" ry="18" style="fill:none;stroke:red;"/>
<text text-anchor="middle" style="font-size:6.00;" x="984" y="960">sourcepackagerelease</text>
</g>
<g id="edge12" class="edge"><title>build&#45;&gt;fake_sourcepackagerelease_78</title>
<path style="fill:none;stroke:black;" d="M913,901C929,914 945,926 957,936"/>
<polygon style="fill:black;stroke:black;" points="959,933 965,942 955,939 959,933"/>
</g>
<g id="edge14" class="edge"><title>builder&#45;&gt;processor</title>
<path style="fill:none;stroke:black;" d="M998,645C984,647 969,650 954,653"/>
<polygon style="fill:black;stroke:black;" points="954,656 944,655 953,650 954,656"/>
</g>
<g id="node22" class="node"><title>fake_person_81</title>
<ellipse cx="1222" cy="513" rx="27" ry="18" style="fill:none;stroke:red;"/>
<text text-anchor="middle" style="font-size:6.00;" x="1222" y="515">person</text>
</g>
<g id="edge16" class="edge"><title>builder&#45;&gt;fake_person_81</title>
<path style="fill:none;stroke:black;" d="M1154,568C1169,556 1185,543 1197,533"/>
<polygon style="fill:black;stroke:black;" points="1195,530 1205,527 1199,536 1195,530"/>
</g>
<g id="node3" class="node"><title>buildqueue</title>
<polygon style="fill:#c1cdcc;stroke:#c1cdcc;" points="1025,900 1025,798 1161,798 1161,900 1025,900"/>
<polygon style="fill:white;stroke:white;" points="1028,813 1028,801 1158,801 1158,813 1028,813"/>
<text text-anchor="middle" style="font-size:6.00;" x="1093" y="809">buildqueue</text>
<polygon style="fill:none;stroke:black;" points="1028,813 1028,801 1158,801 1158,813 1028,813"/>
<text text-anchor="middle" style="font-size:6.00;" x="1033" y="822">id</text>
<text text-anchor="middle" style="font-size:6.00;" x="1069" y="822">serial</text>
<text text-anchor="middle" style="font-size:6.00;" x="1118" y="822"> PRIMARY KEY </text>
<text text-anchor="middle" style="font-size:6.00;" x="1037" y="834">build</text>
<text text-anchor="middle" style="font-size:6.00;" x="1071" y="834">integer</text>
<text text-anchor="middle" style="font-size:6.00;" x="1123" y="834"> REFERENCES build </text>
<text text-anchor="middle" style="font-size:6.00;" x="1040" y="846">builder</text>
<text text-anchor="middle" style="font-size:6.00;" x="1071" y="846">integer</text>
<text text-anchor="middle" style="font-size:6.00;" x="1126" y="846"> REFERENCES builder </text>
<text text-anchor="middle" style="font-size:6.00;" x="1039" y="858">logtail</text>
<text text-anchor="middle" style="font-size:6.00;" x="1068" y="858">text</text>
<text text-anchor="middle" style="font-size:6.00;" x="1040" y="870">created</text>
<text text-anchor="middle" style="font-size:6.00;" x="1076" y="870">timestamp</text>
<text text-anchor="middle" style="font-size:6.00;" x="1043" y="882">buildstart</text>
<text text-anchor="middle" style="font-size:6.00;" x="1076" y="882">timestamp</text>
<text text-anchor="middle" style="font-size:6.00;" x="1042" y="894">lastscore</text>
<text text-anchor="middle" style="font-size:6.00;" x="1071" y="894">integer</text>
<polygon style="fill:none;stroke:black;" points="1025,900 1025,798 1161,798 1161,900 1025,900"/>
</g>
<g id="edge18" class="edge"><title>buildqueue&#45;&gt;build</title>
<path style="fill:none;stroke:black;" d="M1017,840C988,836 955,833 923,829"/>
<polygon style="fill:black;stroke:black;" points="923,832 913,828 923,826 923,832"/>
</g>
<g id="edge20" class="edge"><title>buildqueue&#45;&gt;builder</title>
<path style="fill:none;stroke:black;" d="M1089,794C1087,771 1085,745 1083,720"/>
<polygon style="fill:black;stroke:black;" points="1080,720 1082,710 1086,720 1080,720"/>
</g>
<g id="node5" class="node"><title>distrorelease</title>
<polygon style="fill:#c1cdcc;stroke:#c1cdcc;" points="250,385 250,163 438,163 438,385 250,385"/>
<polygon style="fill:white;stroke:white;" points="253,178 253,166 435,166 435,178 253,178"/>
<text text-anchor="middle" style="font-size:6.00;" x="344" y="174">distrorelease</text>
<polygon style="fill:none;stroke:black;" points="253,178 253,166 435,166 435,178 253,178"/>
<text text-anchor="middle" style="font-size:6.00;" x="258" y="187">id</text>
<text text-anchor="middle" style="font-size:6.00;" x="311" y="187">serial</text>
<text text-anchor="middle" style="font-size:6.00;" x="360" y="187"> PRIMARY KEY </text>
<text text-anchor="middle" style="font-size:6.00;" x="270" y="199">distribution</text>
<text text-anchor="middle" style="font-size:6.00;" x="313" y="199">integer</text>
<text text-anchor="middle" style="font-size:6.00;" x="385" y="199"> REFERENCES distribution UNIQUE </text>
<text text-anchor="middle" style="font-size:6.00;" x="263" y="211">name</text>
<text text-anchor="middle" style="font-size:6.00;" x="310" y="211">text</text>
<text text-anchor="middle" style="font-size:6.00;" x="351" y="211"> UNIQUE </text>
<text text-anchor="middle" style="font-size:6.00;" x="261" y="223">title</text>
<text text-anchor="middle" style="font-size:6.00;" x="310" y="223">text</text>
<text text-anchor="middle" style="font-size:6.00;" x="270" y="235">description</text>
<text text-anchor="middle" style="font-size:6.00;" x="310" y="235">text</text>
<text text-anchor="middle" style="font-size:6.00;" x="265" y="247">version</text>
<text text-anchor="middle" style="font-size:6.00;" x="310" y="247">text</text>
<text text-anchor="middle" style="font-size:6.00;" x="271" y="259">components</text>
<text text-anchor="middle" style="font-size:6.00;" x="313" y="259">integer</text>
<text text-anchor="middle" style="font-size:6.00;" x="368" y="259"> REFERENCES schema </text>
<text text-anchor="middle" style="font-size:6.00;" x="265" y="271">sections</text>
<text text-anchor="middle" style="font-size:6.00;" x="313" y="271">integer</text>
<text text-anchor="middle" style="font-size:6.00;" x="368" y="271"> REFERENCES schema </text>
<text text-anchor="middle" style="font-size:6.00;" x="271" y="283">releasestatus</text>
<text text-anchor="middle" style="font-size:6.00;" x="313" y="283">integer</text>
<text text-anchor="middle" style="font-size:6.00;" x="271" y="295">datereleased</text>
<text text-anchor="middle" style="font-size:6.00;" x="318" y="295">timestamp</text>
<text text-anchor="middle" style="font-size:6.00;" x="272" y="307">parentrelease</text>
<text text-anchor="middle" style="font-size:6.00;" x="313" y="307">integer</text>
<text text-anchor="middle" style="font-size:6.00;" x="374" y="307"> REFERENCES distrorelease </text>
<text text-anchor="middle" style="font-size:6.00;" x="264" y="319">owner</text>
<text text-anchor="middle" style="font-size:6.00;" x="313" y="319">integer</text>
<text text-anchor="middle" style="font-size:6.00;" x="367" y="319"> REFERENCES person </text>
<text text-anchor="middle" style="font-size:6.00;" x="271" y="331">lucilleconfig</text>
<text text-anchor="middle" style="font-size:6.00;" x="310" y="331">text</text>
<text text-anchor="middle" style="font-size:6.00;" x="267" y="343">summary</text>
<text text-anchor="middle" style="font-size:6.00;" x="310" y="343">text</text>
<text text-anchor="middle" style="font-size:6.00;" x="271" y="355">displayname</text>
<text text-anchor="middle" style="font-size:6.00;" x="310" y="355">text</text>
<text text-anchor="middle" style="font-size:6.00;" x="276" y="367">datelastlangpack</text>
<text text-anchor="middle" style="font-size:6.00;" x="318" y="367">timestamp</text>
<text text-anchor="middle" style="font-size:6.00;" x="273" y="379">messagecount</text>
<text text-anchor="middle" style="font-size:6.00;" x="313" y="379">integer</text>
<polygon style="fill:none;stroke:black;" points="250,385 250,163 438,163 438,385 250,385"/>
</g>
<g id="edge22" class="edge"><title>distroarchrelease&#45;&gt;distrorelease</title>
<path style="fill:none;stroke:black;" d="M506,514C484,483 455,439 428,398"/>
<polygon style="fill:black;stroke:black;" points="425,399 422,389 430,395 425,399"/>
</g>
<g id="node11" class="node"><title>processorfamily</title>
<polygon style="fill:#c1cdcc;stroke:#c1cdcc;" points="616,692 616,626 728,626 728,692 616,692"/>
<polygon style="fill:white;stroke:white;" points="619,641 619,629 725,629 725,641 619,641"/>
<text text-anchor="middle" style="font-size:6.00;" x="672" y="637">processorfamily</text>
<polygon style="fill:none;stroke:black;" points="619,641 619,629 725,629 725,641 619,641"/>
<text text-anchor="middle" style="font-size:6.00;" x="624" y="650">id</text>
<text text-anchor="middle" style="font-size:6.00;" x="664" y="650">serial</text>
<text text-anchor="middle" style="font-size:6.00;" x="700" y="650"> PRIMARY KEY </text>
<text text-anchor="middle" style="font-size:6.00;" x="629" y="662">name</text>
<text text-anchor="middle" style="font-size:6.00;" x="663" y="662">text</text>
<text text-anchor="middle" style="font-size:6.00;" x="691" y="662"> UNIQUE </text>
<text text-anchor="middle" style="font-size:6.00;" x="627" y="674">title</text>
<text text-anchor="middle" style="font-size:6.00;" x="663" y="674">text</text>
<text text-anchor="middle" style="font-size:6.00;" x="636" y="686">description</text>
<text text-anchor="middle" style="font-size:6.00;" x="663" y="686">text</text>
<polygon style="fill:none;stroke:black;" points="616,692 616,626 728,626 728,692 616,692"/>
</g>
<g id="edge24" class="edge"><title>distroarchrelease&#45;&gt;processorfamily</title>
<path style="fill:none;stroke:black;" d="M593,600C600,605 607,610 614,616"/>
<polygon style="fill:black;stroke:black;" points="616,613 622,622 612,619 616,613"/>
</g>
<g id="node28" class="node"><title>fake_person_103</title>
<ellipse cx="648" cy="402" rx="27" ry="18" style="fill:none;stroke:red;"/>
<text text-anchor="middle" style="font-size:6.00;" x="648" y="404">person</text>
</g>
<g id="edge26" class="edge"><title>distroarchrelease&#45;&gt;fake_person_103</title>
<path style="fill:none;stroke:black;" d="M566,514C587,486 613,450 630,426"/>
<polygon style="fill:black;stroke:black;" points="627,424 636,418 633,428 627,424"/>
</g>
<g id="edge34" class="edge"><title>distrorelease&#45;&gt;distrorelease</title>
<path style="fill:none;stroke:black;" d="M446,346C457,332 464,308 464,274 464,246 459,225 452,211"/>
<polygon style="fill:black;stroke:black;" points="449,212 446,202 454,208 449,212"/>
</g>
<g id="node30" class="node"><title>fake_distribution_107</title>
<ellipse cx="487" cy="85" rx="27" ry="18" style="fill:none;stroke:red;"/>
<text text-anchor="middle" style="font-size:6.00;" x="487" y="87">distribution</text>
</g>
<g id="edge28" class="edge"><title>distrorelease&#45;&gt;fake_distribution_107</title>
<path style="fill:none;stroke:black;" d="M431,159C445,140 458,123 469,109"/>
<polygon style="fill:black;stroke:black;" points="466,107 475,101 472,111 466,107"/>
</g>
<g id="node32" class="node"><title>fake_schema_109</title>
<ellipse cx="364" cy="33" rx="27" ry="18" style="fill:none;stroke:red;"/>
<text text-anchor="middle" style="font-size:6.00;" x="364" y="35">schema</text>
</g>
<g id="edge30" class="edge"><title>distrorelease&#45;&gt;fake_schema_109</title>
<path style="fill:none;stroke:black;" d="M354,159C357,122 360,86 362,61"/>
<polygon style="fill:black;stroke:black;" points="359,61 363,51 365,61 359,61"/>
</g>
<g id="node34" class="node"><title>fake_schema_111</title>
<ellipse cx="134" cy="155" rx="27" ry="18" style="fill:none;stroke:red;"/>
<text text-anchor="middle" style="font-size:6.00;" x="134" y="157">schema</text>
</g>
<g id="edge32" class="edge"><title>distrorelease&#45;&gt;fake_schema_111</title>
<path style="fill:none;stroke:black;" d="M242,216C213,200 184,184 164,172"/>
<polygon style="fill:black;stroke:black;" points="162,175 155,167 165,169 162,175"/>
</g>
<g id="node37" class="node"><title>fake_person_114</title>
<ellipse cx="236" cy="57" rx="27" ry="18" style="fill:none;stroke:red;"/>
<text text-anchor="middle" style="font-size:6.00;" x="236" y="59">person</text>
</g>
<g id="edge36" class="edge"><title>distrorelease&#45;&gt;fake_person_114</title>
<path style="fill:none;stroke:black;" d="M287,159C272,131 259,103 249,83"/>
<polygon style="fill:black;stroke:black;" points="246,85 245,74 252,82 246,85"/>
</g>
<g id="node6" class="node"><title>distroreleasequeue</title>
<polygon style="fill:#c1cdcc;stroke:#c1cdcc;" points="254,627 254,573 400,573 400,627 254,627"/>
<polygon style="fill:white;stroke:white;" points="257,588 257,576 397,576 397,588 257,588"/>
<text text-anchor="middle" style="font-size:6.00;" x="327" y="584">distroreleasequeue</text>
<polygon style="fill:none;stroke:black;" points="257,588 257,576 397,576 397,588 257,588"/>
<text text-anchor="middle" style="font-size:6.00;" x="262" y="597">id</text>
<text text-anchor="middle" style="font-size:6.00;" x="304" y="597">serial</text>
<text text-anchor="middle" style="font-size:6.00;" x="344" y="597"> PRIMARY KEY </text>
<text text-anchor="middle" style="font-size:6.00;" x="267" y="609">status</text>
<text text-anchor="middle" style="font-size:6.00;" x="306" y="609">integer</text>
<text text-anchor="middle" style="font-size:6.00;" x="275" y="621">distrorelease</text>
<text text-anchor="middle" style="font-size:6.00;" x="306" y="621">integer</text>
<text text-anchor="middle" style="font-size:6.00;" x="358" y="621"> REFERENCES distrorelease </text>
<polygon style="fill:none;stroke:black;" points="254,627 254,573 400,573 400,627 254,627"/>
</g>
<g id="edge38" class="edge"><title>distroreleasequeue&#45;&gt;distrorelease</title>
<path style="fill:none;stroke:black;" d="M329,569C331,530 335,461 338,399"/>
<polygon style="fill:black;stroke:black;" points="335,399 338,389 342,399 335,399"/>
</g>
<g id="node7" class="node"><title>distroreleasequeuebuild</title>
<polygon style="fill:#c1cdcc;stroke:#c1cdcc;" points="417,799 417,745 593,745 593,799 417,799"/>
<polygon style="fill:white;stroke:white;" points="420,760 420,748 590,748 590,760 420,760"/>
<text text-anchor="middle" style="font-size:6.00;" x="505" y="756">distroreleasequeuebuild</text>
<polygon style="fill:none;stroke:black;" points="420,760 420,748 590,748 590,760 420,760"/>
<text text-anchor="middle" style="font-size:6.00;" x="425" y="769">id</text>
<text text-anchor="middle" style="font-size:6.00;" x="482" y="769">serial</text>
<text text-anchor="middle" style="font-size:6.00;" x="522" y="769"> PRIMARY KEY </text>
<text text-anchor="middle" style="font-size:6.00;" x="446" y="781">distroreleasequeue</text>
<text text-anchor="middle" style="font-size:6.00;" x="484" y="781">integer</text>
<text text-anchor="middle" style="font-size:6.00;" x="544" y="781"> REFERENCES distroreleasequeue </text>
<text text-anchor="middle" style="font-size:6.00;" x="429" y="793">build</text>
<text text-anchor="middle" style="font-size:6.00;" x="484" y="793">integer</text>
<text text-anchor="middle" style="font-size:6.00;" x="527" y="793"> REFERENCES build </text>
<polygon style="fill:none;stroke:black;" points="417,799 417,745 593,745 593,799 417,799"/>
</g>
<g id="edge42" class="edge"><title>distroreleasequeuebuild&#45;&gt;build</title>
<path style="fill:none;stroke:black;" d="M601,786C629,790 660,795 689,799"/>
<polygon style="fill:black;stroke:black;" points="689,796 699,800 689,802 689,796"/>
</g>
<g id="edge40" class="edge"><title>distroreleasequeuebuild&#45;&gt;distroreleasequeue</title>
<path style="fill:none;stroke:black;" d="M473,741C442,712 398,669 366,638"/>
<polygon style="fill:black;stroke:black;" points="364,641 359,631 369,636 364,641"/>
</g>
<g id="node8" class="node"><title>distroreleasequeuesource</title>
<polygon style="fill:#c1cdcc;stroke:#c1cdcc;" points="155,706 155,652 345,652 345,706 155,706"/>
<polygon style="fill:white;stroke:white;" points="158,667 158,655 342,655 342,667 158,667"/>
<text text-anchor="middle" style="font-size:6.00;" x="250" y="663">distroreleasequeuesource</text>
<polygon style="fill:none;stroke:black;" points="158,667 158,655 342,655 342,667 158,667"/>
<text text-anchor="middle" style="font-size:6.00;" x="163" y="676">id</text>
<text text-anchor="middle" style="font-size:6.00;" x="227" y="676">serial</text>
<text text-anchor="middle" style="font-size:6.00;" x="267" y="676"> PRIMARY KEY </text>
<text text-anchor="middle" style="font-size:6.00;" x="184" y="688">distroreleasequeue</text>
<text text-anchor="middle" style="font-size:6.00;" x="229" y="688">integer</text>
<text text-anchor="middle" style="font-size:6.00;" x="289" y="688"> REFERENCES distroreleasequeue </text>
<text text-anchor="middle" style="font-size:6.00;" x="187" y="700">sourcepackagerelease</text>
<text text-anchor="middle" style="font-size:6.00;" x="229" y="700">integer</text>
<text text-anchor="middle" style="font-size:6.00;" x="292" y="700"> REFERENCES sourcepackagerelease </text>
<polygon style="fill:none;stroke:black;" points="155,706 155,652 345,652 345,706 155,706"/>
</g>
<g id="edge44" class="edge"><title>distroreleasequeuesource&#45;&gt;distroreleasequeue</title>
<path style="fill:none;stroke:black;" d="M280,648C283,645 287,641 290,638"/>
<polygon style="fill:black;stroke:black;" points="287,636 297,631 292,641 287,636"/>
</g>
<g id="node43" class="node"><title>fake_sourcepackagerelease_122</title>
<ellipse cx="112" cy="821" rx="37" ry="18" style="fill:none;stroke:red;"/>
<text text-anchor="middle" style="font-size:6.00;" x="112" y="823">sourcepackagerelease</text>
</g>
<g id="edge46" class="edge"><title>distroreleasequeuesource&#45;&gt;fake_sourcepackagerelease_122</title>
<path style="fill:none;stroke:black;" d="M220,710C194,736 158,773 135,797"/>
<polygon style="fill:black;stroke:black;" points="138,799 128,804 133,794 138,799"/>
</g>
<g id="node9" class="node"><title>pocketchroot</title>
<polygon style="fill:#c1cdcc;stroke:#c1cdcc;" points="138,549 138,483 330,483 330,549 138,549"/>
<polygon style="fill:white;stroke:white;" points="141,498 141,486 327,486 327,498 141,498"/>
<text text-anchor="middle" style="font-size:6.00;" x="234" y="494">pocketchroot</text>
<polygon style="fill:none;stroke:black;" points="141,498 141,486 327,486 327,498 141,498"/>
<text text-anchor="middle" style="font-size:6.00;" x="146" y="507">id</text>
<text text-anchor="middle" style="font-size:6.00;" x="199" y="507">serial</text>
<text text-anchor="middle" style="font-size:6.00;" x="239" y="507"> PRIMARY KEY </text>
<text text-anchor="middle" style="font-size:6.00;" x="164" y="519">distroarchrelease</text>
<text text-anchor="middle" style="font-size:6.00;" x="201" y="519">integer</text>
<text text-anchor="middle" style="font-size:6.00;" x="271" y="519"> REFERENCES distroarchrelease UNIQUE </text>
<text text-anchor="middle" style="font-size:6.00;" x="152" y="531">pocket</text>
<text text-anchor="middle" style="font-size:6.00;" x="201" y="531">integer</text>
<text text-anchor="middle" style="font-size:6.00;" x="230" y="531"> UNIQUE </text>
<text text-anchor="middle" style="font-size:6.00;" x="152" y="543">chroot</text>
<text text-anchor="middle" style="font-size:6.00;" x="201" y="543">integer</text>
<text text-anchor="middle" style="font-size:6.00;" x="268" y="543"> REFERENCES libraryfilealias UNIQUE </text>
<polygon style="fill:none;stroke:black;" points="138,549 138,483 330,483 330,549 138,549"/>
</g>
<g id="edge48" class="edge"><title>pocketchroot&#45;&gt;distroarchrelease</title>
<path style="fill:none;stroke:black;" d="M338,530C363,534 389,537 415,541"/>
<polygon style="fill:black;stroke:black;" points="415,538 425,542 415,544 415,538"/>
</g>
<g id="node46" class="node"><title>fake_libraryfilealias_182</title>
<ellipse cx="35" cy="520" rx="29" ry="18" style="fill:none;stroke:red;"/>
<text text-anchor="middle" style="font-size:6.00;" x="35" y="522">libraryfilealias</text>
</g>
<g id="edge50" class="edge"><title>pocketchroot&#45;&gt;fake_libraryfilealias_182</title>
<path style="fill:none;stroke:black;" d="M130,518C110,519 91,519 74,519"/>
<polygon style="fill:black;stroke:black;" points="74,522 64,519 74,515 74,522"/>
</g>
<g id="edge52" class="edge"><title>processor&#45;&gt;processorfamily</title>
<path style="fill:none;stroke:black;" d="M776,665C766,664 756,664 746,663"/>
<polygon style="fill:black;stroke:black;" points="746,666 736,663 746,659 746,666"/>
</g>
</g>
</svg>
