<?xml version="1.0" encoding="UTF-8" standalone="no"?>
<!DOCTYPE svg PUBLIC "-//W3C//DTD SVG 1.0//EN"
 "http://www.w3.org/TR/2001/REC-SVG-20010904/DTD/svg10.dtd">
<!-- Generated by fdp version 2.2 (Sat Feb  5 01:37:52 UTC 2005)
     For user: (stub) Stuart Bishop,,,   Title: g    Pages: 1 -->
<svg width="417px" height="535px"
 viewBox = "-1 -1 416 534"
 xmlns="http://www.w3.org/2000/svg">
<g id="graph0" class="graph" transform = "scale(0.528817)"
 style="font-family:Times-Roman;font-size:14.00;">
<title>g</title>
<text text-anchor="middle" style="font-size:22.00;" x="388" y="991">Build</text>
<g id="node1" class="node"><title>build</title>
<polygon style="fill:#c1cdcc;stroke:#c1cdcc;" points="244,813 244,651 442,651 442,813 244,813"/>
<polygon style="fill:white;stroke:white;" points="247,666 247,654 439,654 439,666 247,666"/>
<text text-anchor="middle" style="font-size:6.00;" x="343" y="662">build</text>
<polygon style="fill:none;stroke:black;" points="247,666 247,654 439,654 439,666 247,666"/>
<text text-anchor="middle" style="font-size:6.00;" x="252" y="675">id</text>
<text text-anchor="middle" style="font-size:6.00;" x="315" y="675">serial</text>
<text text-anchor="middle" style="font-size:6.00;" x="364" y="675"> PRIMARY KEY </text>
<text text-anchor="middle" style="font-size:6.00;" x="264" y="687">datecreated</text>
<text text-anchor="middle" style="font-size:6.00;" x="322" y="687">timestamp</text>
<text text-anchor="middle" style="font-size:6.00;" x="262" y="699">processor</text>
<text text-anchor="middle" style="font-size:6.00;" x="317" y="699">integer</text>
<text text-anchor="middle" style="font-size:6.00;" x="375" y="699"> REFERENCES processor </text>
<text text-anchor="middle" style="font-size:6.00;" x="270" y="711">distroarchrelease</text>
<text text-anchor="middle" style="font-size:6.00;" x="317" y="711">integer</text>
<text text-anchor="middle" style="font-size:6.00;" x="383" y="711"> REFERENCES distroarchrelease </text>
<text text-anchor="middle" style="font-size:6.00;" x="262" y="723">buildstate</text>
<text text-anchor="middle" style="font-size:6.00;" x="317" y="723">integer</text>
<text text-anchor="middle" style="font-size:6.00;" x="261" y="735">datebuilt</text>
<text text-anchor="middle" style="font-size:6.00;" x="322" y="735">timestamp</text>
<text text-anchor="middle" style="font-size:6.00;" x="267" y="747">buildduration</text>
<text text-anchor="middle" style="font-size:6.00;" x="318" y="747">interval</text>
<text text-anchor="middle" style="font-size:6.00;" x="260" y="759">buildlog</text>
<text text-anchor="middle" style="font-size:6.00;" x="317" y="759">integer</text>
<text text-anchor="middle" style="font-size:6.00;" x="381" y="759"> REFERENCES libraryfilealias </text>
<text text-anchor="middle" style="font-size:6.00;" x="259" y="771">builder</text>
<text text-anchor="middle" style="font-size:6.00;" x="317" y="771">integer</text>
<text text-anchor="middle" style="font-size:6.00;" x="372" y="771"> REFERENCES builder </text>
<text text-anchor="middle" style="font-size:6.00;" x="268" y="783">gpgsigningkey</text>
<text text-anchor="middle" style="font-size:6.00;" x="317" y="783">integer</text>
<text text-anchor="middle" style="font-size:6.00;" x="372" y="783"> REFERENCES gpgkey </text>
<text text-anchor="middle" style="font-size:6.00;" x="260" y="795">changes</text>
<text text-anchor="middle" style="font-size:6.00;" x="314" y="795">text</text>
<text text-anchor="middle" style="font-size:6.00;" x="276" y="807">sourcepackagerelease</text>
<text text-anchor="middle" style="font-size:6.00;" x="317" y="807">integer</text>
<text text-anchor="middle" style="font-size:6.00;" x="389" y="807"> REFERENCES sourcepackagerelease </text>
<polygon style="fill:none;stroke:black;" points="244,813 244,651 442,651 442,813 244,813"/>
</g>
<g id="node2" class="node"><title>builder</title>
<polygon style="fill:#c1cdcc;stroke:#c1cdcc;" points="236,624 236,474 376,474 376,624 236,624"/>
<polygon style="fill:white;stroke:white;" points="239,489 239,477 373,477 373,489 239,489"/>
<text text-anchor="middle" style="font-size:6.00;" x="306" y="485">builder</text>
<polygon style="fill:none;stroke:black;" points="239,489 239,477 373,477 373,489 239,489"/>
<text text-anchor="middle" style="font-size:6.00;" x="244" y="498">id</text>
<text text-anchor="middle" style="font-size:6.00;" x="284" y="498">serial</text>
<text text-anchor="middle" style="font-size:6.00;" x="327" y="498"> PRIMARY KEY </text>
<text text-anchor="middle" style="font-size:6.00;" x="254" y="510">processor</text>
<text text-anchor="middle" style="font-size:6.00;" x="286" y="510">integer</text>
<text text-anchor="middle" style="font-size:6.00;" x="338" y="510"> REFERENCES processor </text>
<text text-anchor="middle" style="font-size:6.00;" x="249" y="522">name</text>
<text text-anchor="middle" style="font-size:6.00;" x="283" y="522">text</text>
<text text-anchor="middle" style="font-size:6.00;" x="247" y="534">title</text>
<text text-anchor="middle" style="font-size:6.00;" x="283" y="534">text</text>
<text text-anchor="middle" style="font-size:6.00;" x="256" y="546">description</text>
<text text-anchor="middle" style="font-size:6.00;" x="283" y="546">text</text>
<text text-anchor="middle" style="font-size:6.00;" x="250" y="558">owner</text>
<text text-anchor="middle" style="font-size:6.00;" x="286" y="558">integer</text>
<text text-anchor="middle" style="font-size:6.00;" x="334" y="558"> REFERENCES person </text>
<text text-anchor="middle" style="font-size:6.00;" x="255" y="570">speedindex</text>
<text text-anchor="middle" style="font-size:6.00;" x="286" y="570">integer</text>
<text text-anchor="middle" style="font-size:6.00;" x="254" y="582">builderok</text>
<text text-anchor="middle" style="font-size:6.00;" x="288" y="582">boolean</text>
<text text-anchor="middle" style="font-size:6.00;" x="253" y="594">failnotes</text>
<text text-anchor="middle" style="font-size:6.00;" x="283" y="594">text</text>
<text text-anchor="middle" style="font-size:6.00;" x="250" y="606">trusted</text>
<text text-anchor="middle" style="font-size:6.00;" x="288" y="606">boolean</text>
<text text-anchor="middle" style="font-size:6.00;" x="245" y="618">url</text>
<text text-anchor="middle" style="font-size:6.00;" x="283" y="618">text</text>
<text text-anchor="middle" style="font-size:6.00;" x="318" y="618"> UNIQUE </text>
<polygon style="fill:none;stroke:black;" points="236,624 236,474 376,474 376,624 236,624"/>
</g>
<g id="edge8" class="edge"><title>build&#45;&gt;builder</title>
<path style="fill:none;stroke:black;" d="M326,647C326,644 325,641 324,638"/>
<polygon style="fill:black;stroke:black;" points="321,638 322,628 327,637 321,638"/>
</g>
<g id="node7" class="node"><title>processor</title>
<polygon style="fill:#c1cdcc;stroke:#c1cdcc;" points="501,631 501,541 653,541 653,631 501,631"/>
<polygon style="fill:white;stroke:white;" points="504,556 504,544 650,544 650,556 504,556"/>
<text text-anchor="middle" style="font-size:6.00;" x="577" y="552">processor</text>
<polygon style="fill:none;stroke:black;" points="504,556 504,544 650,544 650,556 504,556"/>
<text text-anchor="middle" style="font-size:6.00;" x="509" y="565">id</text>
<text text-anchor="middle" style="font-size:6.00;" x="548" y="565">serial</text>
<text text-anchor="middle" style="font-size:6.00;" x="588" y="565"> PRIMARY KEY </text>
<text text-anchor="middle" style="font-size:6.00;" x="515" y="577">family</text>
<text text-anchor="middle" style="font-size:6.00;" x="550" y="577">integer</text>
<text text-anchor="middle" style="font-size:6.00;" x="607" y="577"> REFERENCES processorfamily </text>
<text text-anchor="middle" style="font-size:6.00;" x="514" y="589">name</text>
<text text-anchor="middle" style="font-size:6.00;" x="547" y="589">text</text>
<text text-anchor="middle" style="font-size:6.00;" x="579" y="589"> UNIQUE </text>
<text text-anchor="middle" style="font-size:6.00;" x="512" y="601">title</text>
<text text-anchor="middle" style="font-size:6.00;" x="547" y="601">text</text>
<text text-anchor="middle" style="font-size:6.00;" x="521" y="613">description</text>
<text text-anchor="middle" style="font-size:6.00;" x="547" y="613">text</text>
<text text-anchor="middle" style="font-size:6.00;" x="515" y="625">owner</text>
<text text-anchor="middle" style="font-size:6.00;" x="550" y="625">integer</text>
<text text-anchor="middle" style="font-size:6.00;" x="595" y="625"> REFERENCES person </text>
<polygon style="fill:none;stroke:black;" points="501,631 501,541 653,541 653,631 501,631"/>
</g>
<g id="edge2" class="edge"><title>build&#45;&gt;processor</title>
<path style="fill:none;stroke:black;" d="M450,665C463,657 477,649 489,641"/>
<polygon style="fill:black;stroke:black;" points="488,638 498,635 492,643 488,638"/>
</g>
<g id="node9" class="node"><title>fake_distroarchrelease_72</title>
<ellipse cx="380" cy="948" rx="32" ry="18" style="fill:none;stroke:red;"/>
<text text-anchor="middle" style="font-size:6.00;" x="380" y="950">distroarchrelease</text>
</g>
<g id="edge4" class="edge"><title>build&#45;&gt;fake_distroarchrelease_72</title>
<path style="fill:none;stroke:black;" d="M358,817C364,854 371,894 375,920"/>
<polygon style="fill:black;stroke:black;" points="378,920 377,930 372,921 378,920"/>
</g>
<g id="node11" class="node"><title>fake_libraryfilealias_74</title>
<ellipse cx="154" cy="842" rx="29" ry="18" style="fill:none;stroke:red;"/>
<text text-anchor="middle" style="font-size:6.00;" x="154" y="844">libraryfilealias</text>
</g>
<g id="edge6" class="edge"><title>build&#45;&gt;fake_libraryfilealias_74</title>
<path style="fill:none;stroke:black;" d="M236,794C217,805 198,816 184,825"/>
<polygon style="fill:black;stroke:black;" points="185,828 175,830 182,822 185,828"/>
</g>
<g id="node14" class="node"><title>fake_gpgkey_77</title>
<ellipse cx="253" cy="927" rx="27" ry="18" style="fill:none;stroke:red;"/>
<text text-anchor="middle" style="font-size:6.00;" x="253" y="929">gpgkey</text>
</g>
<g id="edge10" class="edge"><title>build&#45;&gt;fake_gpgkey_77</title>
<path style="fill:none;stroke:black;" d="M304,817C289,847 275,879 265,901"/>
<polygon style="fill:black;stroke:black;" points="268,902 261,910 262,899 268,902"/>
</g>
<g id="node16" class="node"><title>fake_sourcepackagerelease_79</title>
<ellipse cx="505" cy="886" rx="37" ry="18" style="fill:none;stroke:red;"/>
<text text-anchor="middle" style="font-size:6.00;" x="505" y="888">sourcepackagerelease</text>
</g>
<g id="edge12" class="edge"><title>build&#45;&gt;fake_sourcepackagerelease_79</title>
<path style="fill:none;stroke:black;" d="M433,817C451,834 467,850 481,863"/>
<polygon style="fill:black;stroke:black;" points="483,860 488,870 478,865 483,860"/>
</g>
<g id="edge14" class="edge"><title>builder&#45;&gt;processor</title>
<path style="fill:none;stroke:black;" d="M384,560C415,565 451,569 483,574"/>
<polygon style="fill:black;stroke:black;" points="483,571 493,575 483,577 483,571"/>
</g>
<g id="node19" class="node"><title>fake_person_82</title>
<ellipse cx="132" cy="470" rx="27" ry="18" style="fill:none;stroke:red;"/>
<text text-anchor="middle" style="font-size:6.00;" x="132" y="472">person</text>
</g>
<g id="edge16" class="edge"><title>builder&#45;&gt;fake_person_82</title>
<path style="fill:none;stroke:black;" d="M228,514C205,504 182,493 163,484"/>
<polygon style="fill:black;stroke:black;" points="162,487 154,480 165,481 162,487"/>
</g>
<g id="node3" class="node"><title>buildqueue</title>
<polygon style="fill:#c1cdcc;stroke:#c1cdcc;" points="14,709 14,607 150,607 150,709 14,709"/>
<polygon style="fill:white;stroke:white;" points="17,622 17,610 147,610 147,622 17,622"/>
<text text-anchor="middle" style="font-size:6.00;" x="82" y="618">buildqueue</text>
<polygon style="fill:none;stroke:black;" points="17,622 17,610 147,610 147,622 17,622"/>
<text text-anchor="middle" style="font-size:6.00;" x="22" y="631">id</text>
<text text-anchor="middle" style="font-size:6.00;" x="58" y="631">serial</text>
<text text-anchor="middle" style="font-size:6.00;" x="107" y="631"> PRIMARY KEY </text>
<text text-anchor="middle" style="font-size:6.00;" x="26" y="643">build</text>
<text text-anchor="middle" style="font-size:6.00;" x="60" y="643">integer</text>
<text text-anchor="middle" style="font-size:6.00;" x="112" y="643"> REFERENCES build </text>
<text text-anchor="middle" style="font-size:6.00;" x="29" y="655">builder</text>
<text text-anchor="middle" style="font-size:6.00;" x="60" y="655">integer</text>
<text text-anchor="middle" style="font-size:6.00;" x="115" y="655"> REFERENCES builder </text>
<text text-anchor="middle" style="font-size:6.00;" x="28" y="667">logtail</text>
<text text-anchor="middle" style="font-size:6.00;" x="57" y="667">text</text>
<text text-anchor="middle" style="font-size:6.00;" x="29" y="679">created</text>
<text text-anchor="middle" style="font-size:6.00;" x="65" y="679">timestamp</text>
<text text-anchor="middle" style="font-size:6.00;" x="32" y="691">buildstart</text>
<text text-anchor="middle" style="font-size:6.00;" x="65" y="691">timestamp</text>
<text text-anchor="middle" style="font-size:6.00;" x="31" y="703">lastscore</text>
<text text-anchor="middle" style="font-size:6.00;" x="60" y="703">integer</text>
<polygon style="fill:none;stroke:black;" points="14,709 14,607 150,607 150,709 14,709"/>
</g>
<g id="edge18" class="edge"><title>buildqueue&#45;&gt;build</title>
<path style="fill:none;stroke:black;" d="M158,680C179,686 203,692 226,699"/>
<polygon style="fill:black;stroke:black;" points="227,696 236,702 225,702 227,696"/>
</g>
<g id="edge20" class="edge"><title>buildqueue&#45;&gt;builder</title>
<path style="fill:none;stroke:black;" d="M158,621C177,611 198,601 219,591"/>
<polygon style="fill:black;stroke:black;" points="217,588 228,587 220,594 217,588"/>
</g>
<g id="node4" class="node"><title>distroreleasequeue</title>
<polygon style="fill:#c1cdcc;stroke:#c1cdcc;" points="340,345 340,291 486,291 486,345 340,345"/>
<polygon style="fill:white;stroke:white;" points="343,306 343,294 483,294 483,306 343,306"/>
<text text-anchor="middle" style="font-size:6.00;" x="413" y="302">distroreleasequeue</text>
<polygon style="fill:none;stroke:black;" points="343,306 343,294 483,294 483,306 343,306"/>
<text text-anchor="middle" style="font-size:6.00;" x="348" y="315">id</text>
<text text-anchor="middle" style="font-size:6.00;" x="390" y="315">serial</text>
<text text-anchor="middle" style="font-size:6.00;" x="430" y="315"> PRIMARY KEY </text>
<text text-anchor="middle" style="font-size:6.00;" x="353" y="327">status</text>
<text text-anchor="middle" style="font-size:6.00;" x="392" y="327">integer</text>
<text text-anchor="middle" style="font-size:6.00;" x="361" y="339">distrorelease</text>
<text text-anchor="middle" style="font-size:6.00;" x="392" y="339">integer</text>
<text text-anchor="middle" style="font-size:6.00;" x="444" y="339"> REFERENCES distrorelease </text>
<polygon style="fill:none;stroke:black;" points="340,345 340,291 486,291 486,345 340,345"/>
</g>
<g id="node23" class="node"><title>fake_distrorelease_109</title>
<ellipse cx="506" cy="183" rx="27" ry="18" style="fill:none;stroke:red;"/>
<text text-anchor="middle" style="font-size:6.00;" x="506" y="185">distrorelease</text>
</g>
<g id="edge22" class="edge"><title>distroreleasequeue&#45;&gt;fake_distrorelease_109</title>
<path style="fill:none;stroke:black;" d="M435,287C451,263 474,230 489,207"/>
<polygon style="fill:black;stroke:black;" points="486,205 495,199 492,209 486,205"/>
</g>
<g id="node5" class="node"><title>distroreleasequeuebuild</title>
<polygon style="fill:#c1cdcc;stroke:#c1cdcc;" points="312,423 312,369 488,369 488,423 312,423"/>
<polygon style="fill:white;stroke:white;" points="315,384 315,372 485,372 485,384 315,384"/>
<text text-anchor="middle" style="font-size:6.00;" x="400" y="380">distroreleasequeuebuild</text>
<polygon style="fill:none;stroke:black;" points="315,384 315,372 485,372 485,384 315,384"/>
<text text-anchor="middle" style="font-size:6.00;" x="320" y="393">id</text>
<text text-anchor="middle" style="font-size:6.00;" x="377" y="393">serial</text>
<text text-anchor="middle" style="font-size:6.00;" x="417" y="393"> PRIMARY KEY </text>
<text text-anchor="middle" style="font-size:6.00;" x="341" y="405">distroreleasequeue</text>
<text text-anchor="middle" style="font-size:6.00;" x="379" y="405">integer</text>
<text text-anchor="middle" style="font-size:6.00;" x="439" y="405"> REFERENCES distroreleasequeue </text>
<text text-anchor="middle" style="font-size:6.00;" x="324" y="417">build</text>
<text text-anchor="middle" style="font-size:6.00;" x="379" y="417">integer</text>
<text text-anchor="middle" style="font-size:6.00;" x="422" y="417"> REFERENCES build </text>
<polygon style="fill:none;stroke:black;" points="312,423 312,369 488,369 488,423 312,423"/>
</g>
<g id="edge26" class="edge"><title>distroreleasequeuebuild&#45;&gt;build</title>
<path style="fill:none;stroke:black;" d="M395,427C387,474 372,566 360,637"/>
<polygon style="fill:black;stroke:black;" points="363,638 358,647 357,637 363,638"/>
</g>
<g id="edge24" class="edge"><title>distroreleasequeuebuild&#45;&gt;distroreleasequeue</title>
<path style="fill:none;stroke:black;" d="M405,365C405,363 406,361 406,359"/>
<polygon style="fill:black;stroke:black;" points="403,358 408,349 409,359 403,358"/>
</g>
<g id="node6" class="node"><title>distroreleasequeuesource</title>
<polygon style="fill:#c1cdcc;stroke:#c1cdcc;" points="221,123 221,69 411,69 411,123 221,123"/>
<polygon style="fill:white;stroke:white;" points="224,84 224,72 408,72 408,84 224,84"/>
<text text-anchor="middle" style="font-size:6.00;" x="316" y="80">distroreleasequeuesource</text>
<polygon style="fill:none;stroke:black;" points="224,84 224,72 408,72 408,84 224,84"/>
<text text-anchor="middle" style="font-size:6.00;" x="229" y="93">id</text>
<text text-anchor="middle" style="font-size:6.00;" x="293" y="93">serial</text>
<text text-anchor="middle" style="font-size:6.00;" x="333" y="93"> PRIMARY KEY </text>
<text text-anchor="middle" style="font-size:6.00;" x="250" y="105">distroreleasequeue</text>
<text text-anchor="middle" style="font-size:6.00;" x="295" y="105">integer</text>
<text text-anchor="middle" style="font-size:6.00;" x="355" y="105"> REFERENCES distroreleasequeue </text>
<text text-anchor="middle" style="font-size:6.00;" x="253" y="117">sourcepackagerelease</text>
<text text-anchor="middle" style="font-size:6.00;" x="295" y="117">integer</text>
<text text-anchor="middle" style="font-size:6.00;" x="358" y="117"> REFERENCES sourcepackagerelease </text>
<polygon style="fill:none;stroke:black;" points="221,123 221,69 411,69 411,123 221,123"/>
</g>
<g id="edge28" class="edge"><title>distroreleasequeuesource&#45;&gt;distroreleasequeue</title>
<path style="fill:none;stroke:black;" d="M330,127C347,167 376,235 395,278"/>
<polygon style="fill:black;stroke:black;" points="398,276 399,287 392,279 398,276"/>
</g>
<g id="node28" class="node"><title>fake_sourcepackagerelease_114</title>
<ellipse cx="281" cy="31" rx="37" ry="18" style="fill:none;stroke:red;"/>
<text text-anchor="middle" style="font-size:6.00;" x="281" y="33">sourcepackagerelease</text>
</g>
<g id="edge30" class="edge"><title>distroreleasequeuesource&#45;&gt;fake_sourcepackagerelease_114</title>
<path style="fill:none;stroke:black;" d="M299,65C298,62 296,60 295,58"/>
<polygon style="fill:black;stroke:black;" points="292,59 290,49 298,56 292,59"/>
</g>
<g id="node30" class="node"><title>fake_processorfamily_210</title>
<ellipse cx="740" cy="507" rx="31" ry="18" style="fill:none;stroke:red;"/>
<text text-anchor="middle" style="font-size:6.00;" x="740" y="509">processorfamily</text>
</g>
<g id="edge32" class="edge"><title>processor&#45;&gt;fake_processorfamily_210</title>
<path style="fill:none;stroke:black;" d="M661,545C677,537 693,530 707,523"/>
<polygon style="fill:black;stroke:black;" points="705,520 716,519 708,526 705,520"/>
</g>
<g id="node32" class="node"><title>fake_person_212</title>
<ellipse cx="743" cy="646" rx="27" ry="18" style="fill:none;stroke:red;"/>
<text text-anchor="middle" style="font-size:6.00;" x="743" y="648">person</text>
</g>
<g id="edge34" class="edge"><title>processor&#45;&gt;fake_person_212</title>
<path style="fill:none;stroke:black;" d="M661,617C678,623 695,629 709,634"/>
<polygon style="fill:black;stroke:black;" points="710,631 719,637 708,637 710,631"/>
</g>
</g>
</svg>
