<?xml version="1.0" encoding="UTF-8" standalone="no"?>
<!DOCTYPE svg PUBLIC "-//W3C//DTD SVG 1.0//EN"
 "http://www.w3.org/TR/2001/REC-SVG-20010904/DTD/svg10.dtd">
<!-- Generated by fdp version 2.2.1 (Tue Oct 11 01:38:21 UTC 2005)
     For user: (stub) Stuart Bishop,,,   Title: g    Pages: 1 -->
<svg width="2557px" height="1634px"
 viewBox = "-1 -1 2556 1633"
 xmlns="http://www.w3.org/2000/svg">
<g id="graph0" class="graph" style="font-family:Times-Roman;font-size:14.00;">
<title>g</title>
<text text-anchor="middle" style="font-size:22.00;" x="1277" y="1616">Build</text>
<g id="node1" class="node"><title>binarypackagerelease</title>
<polygon style="fill:#c1cdcc;stroke:#c1cdcc;" points="1235,555 1235,199 1545,199 1545,555 1235,555"/>
<polygon style="fill:white;stroke:white;" points="1238,216 1238,202 1542,202 1542,216 1238,216"/>
<text text-anchor="middle" style="font-size:8.00;" x="1390" y="212">binarypackagerelease</text>
<polygon style="fill:none;stroke:black;" points="1238,216 1238,202 1542,202 1542,216 1238,216"/>
<text text-anchor="middle" style="font-size:8.00;" x="1244" y="227">id</text>
<text text-anchor="middle" style="font-size:8.00;" x="1321" y="227">serial</text>
<text text-anchor="middle" style="font-size:8.00;" x="1383" y="227"> PRIMARY KEY </text>
<text text-anchor="middle" style="font-size:8.00;" x="1273" y="241">binarypackagename</text>
<text text-anchor="middle" style="font-size:8.00;" x="1324" y="241">integer</text>
<text text-anchor="middle" style="font-size:8.00;" x="1447" y="241"> REFERENCES binarypackagename UNIQUE UNIQUE </text>
<text text-anchor="middle" style="font-size:8.00;" x="1253" y="255">version</text>
<text text-anchor="middle" style="font-size:8.00;" x="1319" y="255">text</text>
<text text-anchor="middle" style="font-size:8.00;" x="1371" y="255"> UNIQUE </text>
<text text-anchor="middle" style="font-size:8.00;" x="1256" y="269">summary</text>
<text text-anchor="middle" style="font-size:8.00;" x="1319" y="269">text</text>
<text text-anchor="middle" style="font-size:8.00;" x="1258" y="283">description</text>
<text text-anchor="middle" style="font-size:8.00;" x="1319" y="283">text</text>
<text text-anchor="middle" style="font-size:8.00;" x="1249" y="297">build</text>
<text text-anchor="middle" style="font-size:8.00;" x="1324" y="297">integer</text>
<text text-anchor="middle" style="font-size:8.00;" x="1423" y="297"> UNIQUE REFERENCES build UNIQUE </text>
<text text-anchor="middle" style="font-size:8.00;" x="1270" y="311">binpackageformat</text>
<text text-anchor="middle" style="font-size:8.00;" x="1324" y="311">integer</text>
<text text-anchor="middle" style="font-size:8.00;" x="1259" y="325">component</text>
<text text-anchor="middle" style="font-size:8.00;" x="1324" y="325">integer</text>
<text text-anchor="middle" style="font-size:8.00;" x="1400" y="325"> REFERENCES component </text>
<text text-anchor="middle" style="font-size:8.00;" x="1252" y="339">section</text>
<text text-anchor="middle" style="font-size:8.00;" x="1324" y="339">integer</text>
<text text-anchor="middle" style="font-size:8.00;" x="1393" y="339"> REFERENCES section </text>
<text text-anchor="middle" style="font-size:8.00;" x="1253" y="353">priority</text>
<text text-anchor="middle" style="font-size:8.00;" x="1324" y="353">integer</text>
<text text-anchor="middle" style="font-size:8.00;" x="1256" y="367">shlibdeps</text>
<text text-anchor="middle" style="font-size:8.00;" x="1319" y="367">text</text>
<text text-anchor="middle" style="font-size:8.00;" x="1254" y="381">depends</text>
<text text-anchor="middle" style="font-size:8.00;" x="1319" y="381">text</text>
<text text-anchor="middle" style="font-size:8.00;" x="1262" y="395">recommends</text>
<text text-anchor="middle" style="font-size:8.00;" x="1319" y="395">text</text>
<text text-anchor="middle" style="font-size:8.00;" x="1254" y="409">suggests</text>
<text text-anchor="middle" style="font-size:8.00;" x="1319" y="409">text</text>
<text text-anchor="middle" style="font-size:8.00;" x="1254" y="423">conflicts</text>
<text text-anchor="middle" style="font-size:8.00;" x="1319" y="423">text</text>
<text text-anchor="middle" style="font-size:8.00;" x="1254" y="437">replaces</text>
<text text-anchor="middle" style="font-size:8.00;" x="1319" y="437">text</text>
<text text-anchor="middle" style="font-size:8.00;" x="1255" y="451">provides</text>
<text text-anchor="middle" style="font-size:8.00;" x="1319" y="451">text</text>
<text text-anchor="middle" style="font-size:8.00;" x="1255" y="465">essential</text>
<text text-anchor="middle" style="font-size:8.00;" x="1326" y="465">boolean</text>
<text text-anchor="middle" style="font-size:8.00;" x="1261" y="479">installedsize</text>
<text text-anchor="middle" style="font-size:8.00;" x="1324" y="479">integer</text>
<text text-anchor="middle" style="font-size:8.00;" x="1256" y="493">copyright</text>
<text text-anchor="middle" style="font-size:8.00;" x="1319" y="493">text</text>
<text text-anchor="middle" style="font-size:8.00;" x="1252" y="507">licence</text>
<text text-anchor="middle" style="font-size:8.00;" x="1319" y="507">text</text>
<text text-anchor="middle" style="font-size:8.00;" x="1272" y="521">architecturespecific</text>
<text text-anchor="middle" style="font-size:8.00;" x="1326" y="521">boolean</text>
<text text-anchor="middle" style="font-size:8.00;" x="1245" y="535">fti</text>
<text text-anchor="middle" style="font-size:8.00;" x="1326" y="535">tsvector</text>
<text text-anchor="middle" style="font-size:8.00;" x="1259" y="549">datecreated</text>
<text text-anchor="middle" style="font-size:8.00;" x="1330" y="549">timestamp</text>
<polygon style="fill:none;stroke:black;" points="1235,555 1235,199 1545,199 1545,555 1235,555"/>
</g>
<g id="node2" class="node"><title>build</title>
<polygon style="fill:#c1cdcc;stroke:#c1cdcc;" points="1412,984 1412,796 1668,796 1668,984 1412,984"/>
<polygon style="fill:white;stroke:white;" points="1415,813 1415,799 1665,799 1665,813 1415,813"/>
<text text-anchor="middle" style="font-size:8.00;" x="1540" y="809">build</text>
<polygon style="fill:none;stroke:black;" points="1415,813 1415,799 1665,799 1665,813 1415,813"/>
<text text-anchor="middle" style="font-size:8.00;" x="1421" y="824">id</text>
<text text-anchor="middle" style="font-size:8.00;" x="1504" y="824">serial</text>
<text text-anchor="middle" style="font-size:8.00;" x="1566" y="824"> PRIMARY KEY </text>
<text text-anchor="middle" style="font-size:8.00;" x="1436" y="838">datecreated</text>
<text text-anchor="middle" style="font-size:8.00;" x="1513" y="838">timestamp</text>
<text text-anchor="middle" style="font-size:8.00;" x="1434" y="852">processor</text>
<text text-anchor="middle" style="font-size:8.00;" x="1507" y="852">integer</text>
<text text-anchor="middle" style="font-size:8.00;" x="1580" y="852"> REFERENCES processor </text>
<text text-anchor="middle" style="font-size:8.00;" x="1445" y="866">distroarchrelease</text>
<text text-anchor="middle" style="font-size:8.00;" x="1507" y="866">integer</text>
<text text-anchor="middle" style="font-size:8.00;" x="1592" y="866"> REFERENCES distroarchrelease </text>
<text text-anchor="middle" style="font-size:8.00;" x="1434" y="880">buildstate</text>
<text text-anchor="middle" style="font-size:8.00;" x="1507" y="880">integer</text>
<text text-anchor="middle" style="font-size:8.00;" x="1432" y="894">datebuilt</text>
<text text-anchor="middle" style="font-size:8.00;" x="1513" y="894">timestamp</text>
<text text-anchor="middle" style="font-size:8.00;" x="1440" y="908">buildduration</text>
<text text-anchor="middle" style="font-size:8.00;" x="1508" y="908">interval</text>
<text text-anchor="middle" style="font-size:8.00;" x="1432" y="922">buildlog</text>
<text text-anchor="middle" style="font-size:8.00;" x="1507" y="922">integer</text>
<text text-anchor="middle" style="font-size:8.00;" x="1588" y="922"> REFERENCES libraryfilealias </text>
<text text-anchor="middle" style="font-size:8.00;" x="1429" y="936">builder</text>
<text text-anchor="middle" style="font-size:8.00;" x="1507" y="936">integer</text>
<text text-anchor="middle" style="font-size:8.00;" x="1576" y="936"> REFERENCES builder </text>
<text text-anchor="middle" style="font-size:8.00;" x="1453" y="950">sourcepackagerelease</text>
<text text-anchor="middle" style="font-size:8.00;" x="1507" y="950">integer</text>
<text text-anchor="middle" style="font-size:8.00;" x="1600" y="950"> REFERENCES sourcepackagerelease </text>
<text text-anchor="middle" style="font-size:8.00;" x="1429" y="964">pocket</text>
<text text-anchor="middle" style="font-size:8.00;" x="1507" y="964">integer</text>
<text text-anchor="middle" style="font-size:8.00;" x="1439" y="978">dependencies</text>
<text text-anchor="middle" style="font-size:8.00;" x="1502" y="978">text</text>
<polygon style="fill:none;stroke:black;" points="1412,984 1412,796 1668,796 1668,984 1412,984"/>
</g>
<g id="edge4" class="edge"><title>binarypackagerelease&#45;&gt;build</title>
<path style="fill:none;stroke:black;" d="M1443,559C1465,634 1489,717 1508,782"/>
<polygon style="fill:black;stroke:black;" points="1511,781 1511,792 1505,783 1511,781"/>
</g>
<g id="node5" class="node"><title>component</title>
<polygon style="fill:#c1cdcc;stroke:#c1cdcc;" points="954,586 954,538 1074,538 1074,586 954,586"/>
<polygon style="fill:white;stroke:white;" points="957,555 957,541 1071,541 1071,555 957,555"/>
<text text-anchor="middle" style="font-size:8.00;" x="1014" y="551">component</text>
<polygon style="fill:none;stroke:black;" points="957,555 957,541 1071,541 1071,555 957,555"/>
<text text-anchor="middle" style="font-size:8.00;" x="963" y="566">id</text>
<text text-anchor="middle" style="font-size:8.00;" x="994" y="566">serial</text>
<text text-anchor="middle" style="font-size:8.00;" x="1039" y="566"> PRIMARY KEY </text>
<text text-anchor="middle" style="font-size:8.00;" x="969" y="580">name</text>
<text text-anchor="middle" style="font-size:8.00;" x="992" y="580">text</text>
<text text-anchor="middle" style="font-size:8.00;" x="1027" y="580"> UNIQUE </text>
<polygon style="fill:none;stroke:black;" points="954,586 954,538 1074,538 1074,586 954,586"/>
</g>
<g id="edge6" class="edge"><title>binarypackagerelease&#45;&gt;component</title>
<path style="fill:none;stroke:black;" d="M1227,457C1175,482 1120,509 1080,529"/>
<polygon style="fill:black;stroke:black;" points="1081,532 1071,534 1078,526 1081,532"/>
</g>
<g id="node15" class="node"><title>section</title>
<polygon style="fill:#c1cdcc;stroke:#c1cdcc;" points="1206,761 1206,713 1326,713 1326,761 1206,761"/>
<polygon style="fill:white;stroke:white;" points="1209,730 1209,716 1323,716 1323,730 1209,730"/>
<text text-anchor="middle" style="font-size:8.00;" x="1266" y="726">section</text>
<polygon style="fill:none;stroke:black;" points="1209,730 1209,716 1323,716 1323,730 1209,730"/>
<text text-anchor="middle" style="font-size:8.00;" x="1215" y="741">id</text>
<text text-anchor="middle" style="font-size:8.00;" x="1246" y="741">serial</text>
<text text-anchor="middle" style="font-size:8.00;" x="1291" y="741"> PRIMARY KEY </text>
<text text-anchor="middle" style="font-size:8.00;" x="1221" y="755">name</text>
<text text-anchor="middle" style="font-size:8.00;" x="1244" y="755">text</text>
<text text-anchor="middle" style="font-size:8.00;" x="1279" y="755"> UNIQUE </text>
<polygon style="fill:none;stroke:black;" points="1206,761 1206,713 1326,713 1326,761 1206,761"/>
</g>
<g id="edge8" class="edge"><title>binarypackagerelease&#45;&gt;section</title>
<path style="fill:none;stroke:black;" d="M1327,559C1309,612 1291,665 1279,699"/>
<polygon style="fill:black;stroke:black;" points="1282,700 1276,709 1276,698 1282,700"/>
</g>
<g id="node17" class="node"><title>fake_binarypackagename_7</title>
<ellipse cx="1522" cy="23" rx="44" ry="18" style="fill:none;stroke:red;"/>
<text text-anchor="middle" style="font-size:8.00;" x="1522" y="26">binarypackagename</text>
</g>
<g id="edge2" class="edge"><title>binarypackagerelease&#45;&gt;fake_binarypackagename_7</title>
<path style="fill:none;stroke:black;" d="M1458,195C1479,138 1500,82 1511,50"/>
<polygon style="fill:black;stroke:black;" points="1508,49 1515,41 1514,52 1508,49"/>
</g>
<g id="node3" class="node"><title>builder</title>
<polygon style="fill:#c1cdcc;stroke:#c1cdcc;" points="1839,800 1839,612 2013,612 2013,800 1839,800"/>
<polygon style="fill:white;stroke:white;" points="1842,629 1842,615 2010,615 2010,629 1842,629"/>
<text text-anchor="middle" style="font-size:8.00;" x="1926" y="625">builder</text>
<polygon style="fill:none;stroke:black;" points="1842,629 1842,615 2010,615 2010,629 1842,629"/>
<text text-anchor="middle" style="font-size:8.00;" x="1848" y="640">id</text>
<text text-anchor="middle" style="font-size:8.00;" x="1896" y="640">serial</text>
<text text-anchor="middle" style="font-size:8.00;" x="1950" y="640"> PRIMARY KEY </text>
<text text-anchor="middle" style="font-size:8.00;" x="1861" y="654">processor</text>
<text text-anchor="middle" style="font-size:8.00;" x="1899" y="654">integer</text>
<text text-anchor="middle" style="font-size:8.00;" x="1964" y="654"> REFERENCES processor </text>
<text text-anchor="middle" style="font-size:8.00;" x="1854" y="668">name</text>
<text text-anchor="middle" style="font-size:8.00;" x="1894" y="668">text</text>
<text text-anchor="middle" style="font-size:8.00;" x="1851" y="682">title</text>
<text text-anchor="middle" style="font-size:8.00;" x="1894" y="682">text</text>
<text text-anchor="middle" style="font-size:8.00;" x="1862" y="696">description</text>
<text text-anchor="middle" style="font-size:8.00;" x="1894" y="696">text</text>
<text text-anchor="middle" style="font-size:8.00;" x="1855" y="710">owner</text>
<text text-anchor="middle" style="font-size:8.00;" x="1899" y="710">integer</text>
<text text-anchor="middle" style="font-size:8.00;" x="1960" y="710"> REFERENCES person </text>
<text text-anchor="middle" style="font-size:8.00;" x="1863" y="724">speedindex</text>
<text text-anchor="middle" style="font-size:8.00;" x="1899" y="724">integer</text>
<text text-anchor="middle" style="font-size:8.00;" x="1861" y="738">builderok</text>
<text text-anchor="middle" style="font-size:8.00;" x="1901" y="738">boolean</text>
<text text-anchor="middle" style="font-size:8.00;" x="1859" y="752">failnotes</text>
<text text-anchor="middle" style="font-size:8.00;" x="1894" y="752">text</text>
<text text-anchor="middle" style="font-size:8.00;" x="1856" y="766">trusted</text>
<text text-anchor="middle" style="font-size:8.00;" x="1901" y="766">boolean</text>
<text text-anchor="middle" style="font-size:8.00;" x="1850" y="780">url</text>
<text text-anchor="middle" style="font-size:8.00;" x="1894" y="780">text</text>
<text text-anchor="middle" style="font-size:8.00;" x="1938" y="780"> UNIQUE </text>
<text text-anchor="middle" style="font-size:8.00;" x="1857" y="794">manual</text>
<text text-anchor="middle" style="font-size:8.00;" x="1901" y="794">boolean</text>
<polygon style="fill:none;stroke:black;" points="1839,800 1839,612 2013,612 2013,800 1839,800"/>
</g>
<g id="edge16" class="edge"><title>build&#45;&gt;builder</title>
<path style="fill:none;stroke:black;" d="M1676,825C1724,803 1777,777 1822,755"/>
<polygon style="fill:black;stroke:black;" points="1820,752 1831,751 1823,758 1820,752"/>
</g>
<g id="node6" class="node"><title>distroarchrelease</title>
<polygon style="fill:#c1cdcc;stroke:#c1cdcc;" points="1832,1247 1832,1129 2098,1129 2098,1247 1832,1247"/>
<polygon style="fill:white;stroke:white;" points="1835,1146 1835,1132 2095,1132 2095,1146 1835,1146"/>
<text text-anchor="middle" style="font-size:8.00;" x="1965" y="1142">distroarchrelease</text>
<polygon style="fill:none;stroke:black;" points="1835,1146 1835,1132 2095,1132 2095,1146 1835,1146"/>
<text text-anchor="middle" style="font-size:8.00;" x="1841" y="1157">id</text>
<text text-anchor="middle" style="font-size:8.00;" x="1906" y="1157">serial</text>
<text text-anchor="middle" style="font-size:8.00;" x="1960" y="1157"> PRIMARY KEY </text>
<text text-anchor="middle" style="font-size:8.00;" x="1858" y="1171">distrorelease</text>
<text text-anchor="middle" style="font-size:8.00;" x="1909" y="1171">integer</text>
<text text-anchor="middle" style="font-size:8.00;" x="2012" y="1171"> REFERENCES distrorelease UNIQUE UNIQUE </text>
<text text-anchor="middle" style="font-size:8.00;" x="1864" y="1185">processorfamily</text>
<text text-anchor="middle" style="font-size:8.00;" x="1909" y="1185">integer</text>
<text text-anchor="middle" style="font-size:8.00;" x="2001" y="1185"> REFERENCES processorfamily UNIQUE </text>
<text text-anchor="middle" style="font-size:8.00;" x="1861" y="1199">architecturetag</text>
<text text-anchor="middle" style="font-size:8.00;" x="1904" y="1199">text</text>
<text text-anchor="middle" style="font-size:8.00;" x="1948" y="1199"> UNIQUE </text>
<text text-anchor="middle" style="font-size:8.00;" x="1848" y="1213">owner</text>
<text text-anchor="middle" style="font-size:8.00;" x="1909" y="1213">integer</text>
<text text-anchor="middle" style="font-size:8.00;" x="1970" y="1213"> REFERENCES person </text>
<text text-anchor="middle" style="font-size:8.00;" x="1849" y="1227">official</text>
<text text-anchor="middle" style="font-size:8.00;" x="1911" y="1227">boolean</text>
<text text-anchor="middle" style="font-size:8.00;" x="1862" y="1241">package_count</text>
<text text-anchor="middle" style="font-size:8.00;" x="1909" y="1241">integer</text>
<polygon style="fill:none;stroke:black;" points="1832,1247 1832,1129 2098,1129 2098,1247 1832,1247"/>
</g>
<g id="edge12" class="edge"><title>build&#45;&gt;distroarchrelease</title>
<path style="fill:none;stroke:black;" d="M1676,986C1738,1029 1810,1080 1867,1119"/>
<polygon style="fill:black;stroke:black;" points="1869,1116 1875,1125 1865,1122 1869,1116"/>
</g>
<g id="node13" class="node"><title>processor</title>
<polygon style="fill:#c1cdcc;stroke:#c1cdcc;" points="1826,923 1826,833 2018,833 2018,923 1826,923"/>
<polygon style="fill:white;stroke:white;" points="1829,850 1829,836 2015,836 2015,850 1829,850"/>
<text text-anchor="middle" style="font-size:8.00;" x="1922" y="846">processor</text>
<polygon style="fill:none;stroke:black;" points="1829,850 1829,836 2015,836 2015,850 1829,850"/>
<text text-anchor="middle" style="font-size:8.00;" x="1835" y="861">id</text>
<text text-anchor="middle" style="font-size:8.00;" x="1883" y="861">serial</text>
<text text-anchor="middle" style="font-size:8.00;" x="1934" y="861"> PRIMARY KEY </text>
<text text-anchor="middle" style="font-size:8.00;" x="1843" y="875">family</text>
<text text-anchor="middle" style="font-size:8.00;" x="1886" y="875">integer</text>
<text text-anchor="middle" style="font-size:8.00;" x="1959" y="875"> REFERENCES processorfamily </text>
<text text-anchor="middle" style="font-size:8.00;" x="1841" y="889">name</text>
<text text-anchor="middle" style="font-size:8.00;" x="1881" y="889">text</text>
<text text-anchor="middle" style="font-size:8.00;" x="1922" y="889"> UNIQUE </text>
<text text-anchor="middle" style="font-size:8.00;" x="1838" y="903">title</text>
<text text-anchor="middle" style="font-size:8.00;" x="1881" y="903">text</text>
<text text-anchor="middle" style="font-size:8.00;" x="1849" y="917">description</text>
<text text-anchor="middle" style="font-size:8.00;" x="1881" y="917">text</text>
<polygon style="fill:none;stroke:black;" points="1826,923 1826,833 2018,833 2018,923 1826,923"/>
</g>
<g id="edge10" class="edge"><title>build&#45;&gt;processor</title>
<path style="fill:none;stroke:black;" d="M1676,886C1719,884 1766,883 1808,881"/>
<polygon style="fill:black;stroke:black;" points="1808,877 1818,881 1808,884 1808,877"/>
</g>
<g id="node16" class="node"><title>sourcepackagerelease</title>
<polygon style="fill:#c1cdcc;stroke:#c1cdcc;" points="904,1147 904,875 1150,875 1150,1147 904,1147"/>
<polygon style="fill:white;stroke:white;" points="907,892 907,878 1147,878 1147,892 907,892"/>
<text text-anchor="middle" style="font-size:8.00;" x="1027" y="888">sourcepackagerelease</text>
<polygon style="fill:none;stroke:black;" points="907,892 907,878 1147,878 1147,892 907,892"/>
<text text-anchor="middle" style="font-size:8.00;" x="913" y="903">id</text>
<text text-anchor="middle" style="font-size:8.00;" x="990" y="903">serial</text>
<text text-anchor="middle" style="font-size:8.00;" x="1052" y="903"> PRIMARY KEY </text>
<text text-anchor="middle" style="font-size:8.00;" x="921" y="917">creator</text>
<text text-anchor="middle" style="font-size:8.00;" x="993" y="917">integer</text>
<text text-anchor="middle" style="font-size:8.00;" x="1062" y="917"> REFERENCES person </text>
<text text-anchor="middle" style="font-size:8.00;" x="922" y="931">version</text>
<text text-anchor="middle" style="font-size:8.00;" x="988" y="931">text</text>
<text text-anchor="middle" style="font-size:8.00;" x="931" y="945">dateuploaded</text>
<text text-anchor="middle" style="font-size:8.00;" x="999" y="945">timestamp</text>
<text text-anchor="middle" style="font-size:8.00;" x="923" y="959">urgency</text>
<text text-anchor="middle" style="font-size:8.00;" x="993" y="959">integer</text>
<text text-anchor="middle" style="font-size:8.00;" x="933" y="973">dscsigningkey</text>
<text text-anchor="middle" style="font-size:8.00;" x="993" y="973">integer</text>
<text text-anchor="middle" style="font-size:8.00;" x="1063" y="973"> REFERENCES gpgkey </text>
<text text-anchor="middle" style="font-size:8.00;" x="928" y="987">component</text>
<text text-anchor="middle" style="font-size:8.00;" x="993" y="987">integer</text>
<text text-anchor="middle" style="font-size:8.00;" x="1069" y="987"> REFERENCES component </text>
<text text-anchor="middle" style="font-size:8.00;" x="926" y="1001">changelog</text>
<text text-anchor="middle" style="font-size:8.00;" x="988" y="1001">text</text>
<text text-anchor="middle" style="font-size:8.00;" x="932" y="1015">builddepends</text>
<text text-anchor="middle" style="font-size:8.00;" x="988" y="1015">text</text>
<text text-anchor="middle" style="font-size:8.00;" x="941" y="1029">builddependsindep</text>
<text text-anchor="middle" style="font-size:8.00;" x="988" y="1029">text</text>
<text text-anchor="middle" style="font-size:8.00;" x="940" y="1043">architecturehintlist</text>
<text text-anchor="middle" style="font-size:8.00;" x="988" y="1043">text</text>
<text text-anchor="middle" style="font-size:8.00;" x="915" y="1057">dsc</text>
<text text-anchor="middle" style="font-size:8.00;" x="988" y="1057">text</text>
<text text-anchor="middle" style="font-size:8.00;" x="921" y="1071">section</text>
<text text-anchor="middle" style="font-size:8.00;" x="993" y="1071">integer</text>
<text text-anchor="middle" style="font-size:8.00;" x="1062" y="1071"> REFERENCES section </text>
<text text-anchor="middle" style="font-size:8.00;" x="924" y="1085">manifest</text>
<text text-anchor="middle" style="font-size:8.00;" x="993" y="1085">integer</text>
<text text-anchor="middle" style="font-size:8.00;" x="1081" y="1085"> REFERENCES manifest UNIQUE </text>
<text text-anchor="middle" style="font-size:8.00;" x="927" y="1099">maintainer</text>
<text text-anchor="middle" style="font-size:8.00;" x="993" y="1099">integer</text>
<text text-anchor="middle" style="font-size:8.00;" x="1062" y="1099"> REFERENCES person </text>
<text text-anchor="middle" style="font-size:8.00;" x="942" y="1113">sourcepackagename</text>
<text text-anchor="middle" style="font-size:8.00;" x="993" y="1113">integer</text>
<text text-anchor="middle" style="font-size:8.00;" x="1084" y="1113"> REFERENCES sourcepackagename </text>
<text text-anchor="middle" style="font-size:8.00;" x="941" y="1127">uploaddistrorelease</text>
<text text-anchor="middle" style="font-size:8.00;" x="993" y="1127">integer</text>
<text text-anchor="middle" style="font-size:8.00;" x="1071" y="1127"> REFERENCES distrorelease </text>
<text text-anchor="middle" style="font-size:8.00;" x="921" y="1141">format</text>
<text text-anchor="middle" style="font-size:8.00;" x="993" y="1141">integer</text>
<polygon style="fill:none;stroke:black;" points="904,1147 904,875 1150,875 1150,1147 904,1147"/>
</g>
<g id="edge18" class="edge"><title>build&#45;&gt;sourcepackagerelease</title>
<path style="fill:none;stroke:black;" d="M1404,922C1331,939 1241,960 1168,978"/>
<polygon style="fill:black;stroke:black;" points="1168,981 1158,980 1167,975 1168,981"/>
</g>
<g id="node24" class="node"><title>fake_libraryfilealias_81</title>
<ellipse cx="1653" cy="1160" rx="35" ry="18" style="fill:none;stroke:red;"/>
<text text-anchor="middle" style="font-size:8.00;" x="1653" y="1163">libraryfilealias</text>
</g>
<g id="edge14" class="edge"><title>build&#45;&gt;fake_libraryfilealias_81</title>
<path style="fill:none;stroke:black;" d="M1581,988C1603,1040 1627,1099 1641,1132"/>
<polygon style="fill:black;stroke:black;" points="1645,1131 1645,1142 1638,1134 1645,1131"/>
</g>
<g id="edge20" class="edge"><title>builder&#45;&gt;processor</title>
<path style="fill:none;stroke:black;" d="M1924,804C1924,809 1924,814 1924,819"/>
<polygon style="fill:black;stroke:black;" points="1927,819 1923,829 1921,819 1927,819"/>
</g>
<g id="node29" class="node"><title>fake_person_86</title>
<ellipse cx="2129" cy="565" rx="27" ry="18" style="fill:none;stroke:red;"/>
<text text-anchor="middle" style="font-size:8.00;" x="2129" y="568">person</text>
</g>
<g id="edge22" class="edge"><title>builder&#45;&gt;fake_person_86</title>
<path style="fill:none;stroke:black;" d="M2021,640C2051,619 2081,598 2102,584"/>
<polygon style="fill:black;stroke:black;" points="2100,581 2110,578 2104,587 2100,581"/>
</g>
<g id="node4" class="node"><title>buildqueue</title>
<polygon style="fill:#c1cdcc;stroke:#c1cdcc;" points="1633,625 1633,493 1803,493 1803,625 1633,625"/>
<polygon style="fill:white;stroke:white;" points="1636,510 1636,496 1800,496 1800,510 1636,510"/>
<text text-anchor="middle" style="font-size:8.00;" x="1718" y="506">buildqueue</text>
<polygon style="fill:none;stroke:black;" points="1636,510 1636,496 1800,496 1800,510 1636,510"/>
<text text-anchor="middle" style="font-size:8.00;" x="1642" y="521">id</text>
<text text-anchor="middle" style="font-size:8.00;" x="1686" y="521">serial</text>
<text text-anchor="middle" style="font-size:8.00;" x="1748" y="521"> PRIMARY KEY </text>
<text text-anchor="middle" style="font-size:8.00;" x="1647" y="535">build</text>
<text text-anchor="middle" style="font-size:8.00;" x="1689" y="535">integer</text>
<text text-anchor="middle" style="font-size:8.00;" x="1755" y="535"> REFERENCES build </text>
<text text-anchor="middle" style="font-size:8.00;" x="1650" y="549">builder</text>
<text text-anchor="middle" style="font-size:8.00;" x="1689" y="549">integer</text>
<text text-anchor="middle" style="font-size:8.00;" x="1758" y="549"> REFERENCES builder </text>
<text text-anchor="middle" style="font-size:8.00;" x="1649" y="563">logtail</text>
<text text-anchor="middle" style="font-size:8.00;" x="1684" y="563">text</text>
<text text-anchor="middle" style="font-size:8.00;" x="1650" y="577">created</text>
<text text-anchor="middle" style="font-size:8.00;" x="1695" y="577">timestamp</text>
<text text-anchor="middle" style="font-size:8.00;" x="1654" y="591">buildstart</text>
<text text-anchor="middle" style="font-size:8.00;" x="1695" y="591">timestamp</text>
<text text-anchor="middle" style="font-size:8.00;" x="1653" y="605">lastscore</text>
<text text-anchor="middle" style="font-size:8.00;" x="1689" y="605">integer</text>
<text text-anchor="middle" style="font-size:8.00;" x="1651" y="619">manual</text>
<text text-anchor="middle" style="font-size:8.00;" x="1691" y="619">boolean</text>
<polygon style="fill:none;stroke:black;" points="1633,625 1633,493 1803,493 1803,625 1633,625"/>
</g>
<g id="edge24" class="edge"><title>buildqueue&#45;&gt;build</title>
<path style="fill:none;stroke:black;" d="M1680,629C1656,673 1625,732 1598,783"/>
<polygon style="fill:black;stroke:black;" points="1601,785 1593,792 1595,782 1601,785"/>
</g>
<g id="edge26" class="edge"><title>buildqueue&#45;&gt;builder</title>
<path style="fill:none;stroke:black;" d="M1811,625C1815,628 1819,630 1823,633"/>
<polygon style="fill:black;stroke:black;" points="1825,630 1831,639 1821,636 1825,630"/>
</g>
<g id="node14" class="node"><title>processorfamily</title>
<polygon style="fill:#c1cdcc;stroke:#c1cdcc;" points="2113,1002 2113,926 2249,926 2249,1002 2113,1002"/>
<polygon style="fill:white;stroke:white;" points="2116,943 2116,929 2246,929 2246,943 2116,943"/>
<text text-anchor="middle" style="font-size:8.00;" x="2181" y="939">processorfamily</text>
<polygon style="fill:none;stroke:black;" points="2116,943 2116,929 2246,929 2246,943 2116,943"/>
<text text-anchor="middle" style="font-size:8.00;" x="2122" y="954">id</text>
<text text-anchor="middle" style="font-size:8.00;" x="2169" y="954">serial</text>
<text text-anchor="middle" style="font-size:8.00;" x="2214" y="954"> PRIMARY KEY </text>
<text text-anchor="middle" style="font-size:8.00;" x="2128" y="968">name</text>
<text text-anchor="middle" style="font-size:8.00;" x="2167" y="968">text</text>
<text text-anchor="middle" style="font-size:8.00;" x="2202" y="968"> UNIQUE </text>
<text text-anchor="middle" style="font-size:8.00;" x="2125" y="982">title</text>
<text text-anchor="middle" style="font-size:8.00;" x="2167" y="982">text</text>
<text text-anchor="middle" style="font-size:8.00;" x="2136" y="996">description</text>
<text text-anchor="middle" style="font-size:8.00;" x="2167" y="996">text</text>
<polygon style="fill:none;stroke:black;" points="2113,1002 2113,926 2249,926 2249,1002 2113,1002"/>
</g>
<g id="edge30" class="edge"><title>distroarchrelease&#45;&gt;processorfamily</title>
<path style="fill:none;stroke:black;" d="M2026,1125C2060,1090 2101,1046 2133,1014"/>
<polygon style="fill:black;stroke:black;" points="2131,1011 2140,1006 2136,1016 2131,1011"/>
</g>
<g id="node33" class="node"><title>fake_distrorelease_113</title>
<ellipse cx="2052" cy="1446" rx="32" ry="18" style="fill:none;stroke:red;"/>
<text text-anchor="middle" style="font-size:8.00;" x="2052" y="1449">distrorelease</text>
</g>
<g id="edge28" class="edge"><title>distroarchrelease&#45;&gt;fake_distrorelease_113</title>
<path style="fill:none;stroke:black;" d="M1986,1251C2004,1304 2030,1379 2043,1418"/>
<polygon style="fill:black;stroke:black;" points="2046,1417 2046,1428 2040,1419 2046,1417"/>
</g>
<g id="node36" class="node"><title>fake_person_116</title>
<ellipse cx="2219" cy="1254" rx="27" ry="18" style="fill:none;stroke:red;"/>
<text text-anchor="middle" style="font-size:8.00;" x="2219" y="1257">person</text>
</g>
<g id="edge32" class="edge"><title>distroarchrelease&#45;&gt;fake_person_116</title>
<path style="fill:none;stroke:black;" d="M2106,1225C2135,1233 2163,1240 2183,1245"/>
<polygon style="fill:black;stroke:black;" points="2184,1242 2193,1247 2183,1248 2184,1242"/>
</g>
<g id="node7" class="node"><title>distrocomponentuploader</title>
<polygon style="fill:#c1cdcc;stroke:#c1cdcc;" points="810,284 810,208 1022,208 1022,284 810,284"/>
<polygon style="fill:white;stroke:white;" points="813,225 813,211 1019,211 1019,225 813,225"/>
<text text-anchor="middle" style="font-size:8.00;" x="916" y="221">distrocomponentuploader</text>
<polygon style="fill:none;stroke:black;" points="813,225 813,211 1019,211 1019,225 813,225"/>
<text text-anchor="middle" style="font-size:8.00;" x="819" y="236">id</text>
<text text-anchor="middle" style="font-size:8.00;" x="869" y="236">serial</text>
<text text-anchor="middle" style="font-size:8.00;" x="920" y="236"> PRIMARY KEY </text>
<text text-anchor="middle" style="font-size:8.00;" x="834" y="250">distribution</text>
<text text-anchor="middle" style="font-size:8.00;" x="872" y="250">integer</text>
<text text-anchor="middle" style="font-size:8.00;" x="954" y="250"> REFERENCES distribution UNIQUE </text>
<text text-anchor="middle" style="font-size:8.00;" x="834" y="264">component</text>
<text text-anchor="middle" style="font-size:8.00;" x="872" y="264">integer</text>
<text text-anchor="middle" style="font-size:8.00;" x="953" y="264"> REFERENCES component UNIQUE </text>
<text text-anchor="middle" style="font-size:8.00;" x="830" y="278">uploader</text>
<text text-anchor="middle" style="font-size:8.00;" x="872" y="278">integer</text>
<text text-anchor="middle" style="font-size:8.00;" x="930" y="278"> REFERENCES person </text>
<polygon style="fill:none;stroke:black;" points="810,284 810,208 1022,208 1022,284 810,284"/>
</g>
<g id="edge36" class="edge"><title>distrocomponentuploader&#45;&gt;component</title>
<path style="fill:none;stroke:black;" d="M929,288C949,350 984,465 1002,524"/>
<polygon style="fill:black;stroke:black;" points="1005,523 1005,534 999,525 1005,523"/>
</g>
<g id="node38" class="node"><title>fake_distribution_118</title>
<ellipse cx="776" cy="67" rx="30" ry="18" style="fill:none;stroke:red;"/>
<text text-anchor="middle" style="font-size:8.00;" x="776" y="70">distribution</text>
</g>
<g id="edge34" class="edge"><title>distrocomponentuploader&#45;&gt;fake_distribution_118</title>
<path style="fill:none;stroke:black;" d="M883,204C855,169 817,121 795,91"/>
<polygon style="fill:black;stroke:black;" points="792,93 789,83 798,89 792,93"/>
</g>
<g id="node41" class="node"><title>fake_person_121</title>
<ellipse cx="929" cy="24" rx="27" ry="18" style="fill:none;stroke:red;"/>
<text text-anchor="middle" style="font-size:8.00;" x="929" y="27">person</text>
</g>
<g id="edge38" class="edge"><title>distrocomponentuploader&#45;&gt;fake_person_121</title>
<path style="fill:none;stroke:black;" d="M918,204C921,159 925,91 927,52"/>
<polygon style="fill:black;stroke:black;" points="924,52 928,42 930,52 924,52"/>
</g>
<g id="node8" class="node"><title>distroreleasequeue</title>
<polygon style="fill:#c1cdcc;stroke:#c1cdcc;" points="548,764 548,674 740,674 740,764 548,764"/>
<polygon style="fill:white;stroke:white;" points="551,691 551,677 737,677 737,691 551,691"/>
<text text-anchor="middle" style="font-size:8.00;" x="644" y="687">distroreleasequeue</text>
<polygon style="fill:none;stroke:black;" points="551,691 551,677 737,677 737,691 551,691"/>
<text text-anchor="middle" style="font-size:8.00;" x="557" y="702">id</text>
<text text-anchor="middle" style="font-size:8.00;" x="610" y="702">serial</text>
<text text-anchor="middle" style="font-size:8.00;" x="661" y="702"> PRIMARY KEY </text>
<text text-anchor="middle" style="font-size:8.00;" x="563" y="716">status</text>
<text text-anchor="middle" style="font-size:8.00;" x="613" y="716">integer</text>
<text text-anchor="middle" style="font-size:8.00;" x="574" y="730">distrorelease</text>
<text text-anchor="middle" style="font-size:8.00;" x="613" y="730">integer</text>
<text text-anchor="middle" style="font-size:8.00;" x="680" y="730"> REFERENCES distrorelease </text>
<text text-anchor="middle" style="font-size:8.00;" x="565" y="744">pocket</text>
<text text-anchor="middle" style="font-size:8.00;" x="613" y="744">integer</text>
<text text-anchor="middle" style="font-size:8.00;" x="572" y="758">changesfile</text>
<text text-anchor="middle" style="font-size:8.00;" x="613" y="758">integer</text>
<text text-anchor="middle" style="font-size:8.00;" x="683" y="758"> REFERENCES libraryfilealias </text>
<polygon style="fill:none;stroke:black;" points="548,764 548,674 740,674 740,764 548,764"/>
</g>
<g id="node43" class="node"><title>fake_distrorelease_131</title>
<ellipse cx="479" cy="548" rx="32" ry="18" style="fill:none;stroke:red;"/>
<text text-anchor="middle" style="font-size:8.00;" x="479" y="551">distrorelease</text>
</g>
<g id="edge40" class="edge"><title>distroreleasequeue&#45;&gt;fake_distrorelease_131</title>
<path style="fill:none;stroke:black;" d="M597,670C565,637 526,597 502,571"/>
<polygon style="fill:black;stroke:black;" points="500,574 495,564 505,569 500,574"/>
</g>
<g id="node45" class="node"><title>fake_libraryfilealias_133</title>
<ellipse cx="412" cy="766" rx="35" ry="18" style="fill:none;stroke:red;"/>
<text text-anchor="middle" style="font-size:8.00;" x="412" y="769">libraryfilealias</text>
</g>
<g id="edge42" class="edge"><title>distroreleasequeue&#45;&gt;fake_libraryfilealias_133</title>
<path style="fill:none;stroke:black;" d="M540,740C509,746 479,752 455,757"/>
<polygon style="fill:black;stroke:black;" points="455,760 445,759 454,754 455,760"/>
</g>
<g id="node9" class="node"><title>distroreleasequeuebuild</title>
<polygon style="fill:#c1cdcc;stroke:#c1cdcc;" points="949,819 949,757 1173,757 1173,819 949,819"/>
<polygon style="fill:white;stroke:white;" points="952,774 952,760 1170,760 1170,774 952,774"/>
<text text-anchor="middle" style="font-size:8.00;" x="1061" y="770">distroreleasequeuebuild</text>
<polygon style="fill:none;stroke:black;" points="952,774 952,760 1170,760 1170,774 952,774"/>
<text text-anchor="middle" style="font-size:8.00;" x="958" y="785">id</text>
<text text-anchor="middle" style="font-size:8.00;" x="1030" y="785">serial</text>
<text text-anchor="middle" style="font-size:8.00;" x="1081" y="785"> PRIMARY KEY </text>
<text text-anchor="middle" style="font-size:8.00;" x="985" y="799">distroreleasequeue</text>
<text text-anchor="middle" style="font-size:8.00;" x="1033" y="799">integer</text>
<text text-anchor="middle" style="font-size:8.00;" x="1110" y="799"> REFERENCES distroreleasequeue </text>
<text text-anchor="middle" style="font-size:8.00;" x="963" y="813">build</text>
<text text-anchor="middle" style="font-size:8.00;" x="1033" y="813">integer</text>
<text text-anchor="middle" style="font-size:8.00;" x="1088" y="813"> REFERENCES build </text>
<polygon style="fill:none;stroke:black;" points="949,819 949,757 1173,757 1173,819 949,819"/>
</g>
<g id="edge46" class="edge"><title>distroreleasequeuebuild&#45;&gt;build</title>
<path style="fill:none;stroke:black;" d="M1181,814C1246,827 1326,844 1394,859"/>
<polygon style="fill:black;stroke:black;" points="1395,856 1404,861 1394,862 1395,856"/>
</g>
<g id="edge44" class="edge"><title>distroreleasequeuebuild&#45;&gt;distroreleasequeue</title>
<path style="fill:none;stroke:black;" d="M941,768C883,759 815,747 758,738"/>
<polygon style="fill:black;stroke:black;" points="757,741 748,736 758,735 757,741"/>
</g>
<g id="node10" class="node"><title>distroreleasequeuecustom</title>
<polygon style="fill:#c1cdcc;stroke:#c1cdcc;" points="163,676 163,600 387,600 387,676 163,676"/>
<polygon style="fill:white;stroke:white;" points="166,617 166,603 384,603 384,617 166,617"/>
<text text-anchor="middle" style="font-size:8.00;" x="275" y="613">distroreleasequeuecustom</text>
<polygon style="fill:none;stroke:black;" points="166,617 166,603 384,603 384,617 166,617"/>
<text text-anchor="middle" style="font-size:8.00;" x="172" y="628">id</text>
<text text-anchor="middle" style="font-size:8.00;" x="244" y="628">serial</text>
<text text-anchor="middle" style="font-size:8.00;" x="295" y="628"> PRIMARY KEY </text>
<text text-anchor="middle" style="font-size:8.00;" x="199" y="642">distroreleasequeue</text>
<text text-anchor="middle" style="font-size:8.00;" x="247" y="642">integer</text>
<text text-anchor="middle" style="font-size:8.00;" x="324" y="642"> REFERENCES distroreleasequeue </text>
<text text-anchor="middle" style="font-size:8.00;" x="191" y="656">customformat</text>
<text text-anchor="middle" style="font-size:8.00;" x="247" y="656">integer</text>
<text text-anchor="middle" style="font-size:8.00;" x="192" y="670">libraryfilealias</text>
<text text-anchor="middle" style="font-size:8.00;" x="247" y="670">integer</text>
<text text-anchor="middle" style="font-size:8.00;" x="317" y="670"> REFERENCES libraryfilealias </text>
<polygon style="fill:none;stroke:black;" points="163,676 163,600 387,600 387,676 163,676"/>
</g>
<g id="edge48" class="edge"><title>distroreleasequeuecustom&#45;&gt;distroreleasequeue</title>
<path style="fill:none;stroke:black;" d="M395,664C439,673 487,684 530,694"/>
<polygon style="fill:black;stroke:black;" points="531,691 540,696 530,697 531,691"/>
</g>
<g id="node50" class="node"><title>fake_libraryfilealias_138</title>
<ellipse cx="41" cy="594" rx="35" ry="18" style="fill:none;stroke:red;"/>
<text text-anchor="middle" style="font-size:8.00;" x="41" y="597">libraryfilealias</text>
</g>
<g id="edge50" class="edge"><title>distroreleasequeuecustom&#45;&gt;fake_libraryfilealias_138</title>
<path style="fill:none;stroke:black;" d="M155,615C129,611 104,606 84,602"/>
<polygon style="fill:black;stroke:black;" points="83,605 74,600 84,599 83,605"/>
</g>
<g id="node11" class="node"><title>distroreleasequeuesource</title>
<polygon style="fill:#c1cdcc;stroke:#c1cdcc;" points="540,850 540,788 784,788 784,850 540,850"/>
<polygon style="fill:white;stroke:white;" points="543,805 543,791 781,791 781,805 543,805"/>
<text text-anchor="middle" style="font-size:8.00;" x="662" y="801">distroreleasequeuesource</text>
<polygon style="fill:none;stroke:black;" points="543,805 543,791 781,791 781,805 543,805"/>
<text text-anchor="middle" style="font-size:8.00;" x="549" y="816">id</text>
<text text-anchor="middle" style="font-size:8.00;" x="631" y="816">serial</text>
<text text-anchor="middle" style="font-size:8.00;" x="682" y="816"> PRIMARY KEY </text>
<text text-anchor="middle" style="font-size:8.00;" x="576" y="830">distroreleasequeue</text>
<text text-anchor="middle" style="font-size:8.00;" x="634" y="830">integer</text>
<text text-anchor="middle" style="font-size:8.00;" x="711" y="830"> REFERENCES distroreleasequeue </text>
<text text-anchor="middle" style="font-size:8.00;" x="581" y="844">sourcepackagerelease</text>
<text text-anchor="middle" style="font-size:8.00;" x="634" y="844">integer</text>
<text text-anchor="middle" style="font-size:8.00;" x="716" y="844"> REFERENCES sourcepackagerelease </text>
<polygon style="fill:none;stroke:black;" points="540,850 540,788 784,788 784,850 540,850"/>
</g>
<g id="edge52" class="edge"><title>distroreleasequeuesource&#45;&gt;distroreleasequeue</title>
<path style="fill:none;stroke:black;" d="M656,784C656,782 655,780 655,778"/>
<polygon style="fill:black;stroke:black;" points="652,778 653,768 658,777 652,778"/>
</g>
<g id="edge54" class="edge"><title>distroreleasequeuesource&#45;&gt;sourcepackagerelease</title>
<path style="fill:none;stroke:black;" d="M729,854C773,878 832,909 887,937"/>
<polygon style="fill:black;stroke:black;" points="889,934 896,942 886,940 889,934"/>
</g>
<g id="node12" class="node"><title>pocketchroot</title>
<polygon style="fill:#c1cdcc;stroke:#c1cdcc;" points="2186,1473 2186,1397 2432,1397 2432,1473 2186,1473"/>
<polygon style="fill:white;stroke:white;" points="2189,1414 2189,1400 2429,1400 2429,1414 2189,1414"/>
<text text-anchor="middle" style="font-size:8.00;" x="2309" y="1410">pocketchroot</text>
<polygon style="fill:none;stroke:black;" points="2189,1414 2189,1400 2429,1400 2429,1414 2189,1414"/>
<text text-anchor="middle" style="font-size:8.00;" x="2195" y="1425">id</text>
<text text-anchor="middle" style="font-size:8.00;" x="2262" y="1425">serial</text>
<text text-anchor="middle" style="font-size:8.00;" x="2313" y="1425"> PRIMARY KEY </text>
<text text-anchor="middle" style="font-size:8.00;" x="2219" y="1439">distroarchrelease</text>
<text text-anchor="middle" style="font-size:8.00;" x="2265" y="1439">integer</text>
<text text-anchor="middle" style="font-size:8.00;" x="2355" y="1439"> REFERENCES distroarchrelease UNIQUE </text>
<text text-anchor="middle" style="font-size:8.00;" x="2203" y="1453">pocket</text>
<text text-anchor="middle" style="font-size:8.00;" x="2265" y="1453">integer</text>
<text text-anchor="middle" style="font-size:8.00;" x="2301" y="1453"> UNIQUE </text>
<text text-anchor="middle" style="font-size:8.00;" x="2202" y="1467">chroot</text>
<text text-anchor="middle" style="font-size:8.00;" x="2265" y="1467">integer</text>
<text text-anchor="middle" style="font-size:8.00;" x="2351" y="1467"> REFERENCES libraryfilealias UNIQUE </text>
<polygon style="fill:none;stroke:black;" points="2186,1473 2186,1397 2432,1397 2432,1473 2186,1473"/>
</g>
<g id="edge56" class="edge"><title>pocketchroot&#45;&gt;distroarchrelease</title>
<path style="fill:none;stroke:black;" d="M2250,1393C2198,1356 2122,1300 2061,1257"/>
<polygon style="fill:black;stroke:black;" points="2059,1260 2053,1251 2063,1254 2059,1260"/>
</g>
<g id="node55" class="node"><title>fake_libraryfilealias_216</title>
<ellipse cx="2514" cy="1573" rx="35" ry="18" style="fill:none;stroke:red;"/>
<text text-anchor="middle" style="font-size:8.00;" x="2514" y="1576">libraryfilealias</text>
</g>
<g id="edge58" class="edge"><title>pocketchroot&#45;&gt;fake_libraryfilealias_216</title>
<path style="fill:none;stroke:black;" d="M2372,1477C2409,1502 2455,1533 2484,1553"/>
<polygon style="fill:black;stroke:black;" points="2487,1551 2493,1559 2483,1556 2487,1551"/>
</g>
<g id="edge60" class="edge"><title>processor&#45;&gt;processorfamily</title>
<path style="fill:none;stroke:black;" d="M2026,913C2049,921 2073,929 2095,936"/>
<polygon style="fill:black;stroke:black;" points="2096,933 2105,939 2094,939 2096,933"/>
</g>
<g id="edge66" class="edge"><title>sourcepackagerelease&#45;&gt;component</title>
<path style="fill:none;stroke:black;" d="M949,871C944,856 939,840 935,825 928,793 929,783 935,751 946,696 974,636 993,599"/>
<polygon style="fill:black;stroke:black;" points="990,597 998,590 996,600 990,597"/>
</g>
<g id="edge68" class="edge"><title>sourcepackagerelease&#45;&gt;section</title>
<path style="fill:none;stroke:black;" d="M1149,871C1181,835 1212,798 1234,773"/>
<polygon style="fill:black;stroke:black;" points="1232,770 1241,765 1237,775 1232,770"/>
</g>
<g id="node58" class="node"><title>fake_person_322</title>
<ellipse cx="765" cy="1202" rx="27" ry="18" style="fill:none;stroke:red;"/>
<text text-anchor="middle" style="font-size:8.00;" x="765" y="1205">person</text>
</g>
<g id="edge62" class="edge"><title>sourcepackagerelease&#45;&gt;fake_person_322</title>
<path style="fill:none;stroke:black;" d="M896,1106C857,1135 817,1164 792,1182"/>
<polygon style="fill:black;stroke:black;" points="794,1185 784,1188 790,1179 794,1185"/>
</g>
<g id="node60" class="node"><title>fake_gpgkey_324</title>
<ellipse cx="1088" cy="1326" rx="27" ry="18" style="fill:none;stroke:red;"/>
<text text-anchor="middle" style="font-size:8.00;" x="1088" y="1329">gpgkey</text>
</g>
<g id="edge64" class="edge"><title>sourcepackagerelease&#45;&gt;fake_gpgkey_324</title>
<path style="fill:none;stroke:black;" d="M1054,1151C1065,1206 1076,1264 1082,1298"/>
<polygon style="fill:black;stroke:black;" points="1085,1298 1084,1308 1079,1299 1085,1298"/>
</g>
<g id="node64" class="node"><title>fake_manifest_328</title>
<ellipse cx="963" cy="1328" rx="27" ry="18" style="fill:none;stroke:red;"/>
<text text-anchor="middle" style="font-size:8.00;" x="963" y="1331">manifest</text>
</g>
<g id="edge70" class="edge"><title>sourcepackagerelease&#45;&gt;fake_manifest_328</title>
<path style="fill:none;stroke:black;" d="M999,1151C988,1207 976,1266 969,1300"/>
<polygon style="fill:black;stroke:black;" points="972,1301 967,1310 966,1300 972,1301"/>
</g>
<g id="node66" class="node"><title>fake_person_330</title>
<ellipse cx="714" cy="1079" rx="27" ry="18" style="fill:none;stroke:red;"/>
<text text-anchor="middle" style="font-size:8.00;" x="714" y="1082">person</text>
</g>
<g id="edge72" class="edge"><title>sourcepackagerelease&#45;&gt;fake_person_330</title>
<path style="fill:none;stroke:black;" d="M896,1040C842,1051 785,1064 750,1071"/>
<polygon style="fill:black;stroke:black;" points="750,1074 740,1073 749,1068 750,1074"/>
</g>
<g id="node68" class="node"><title>fake_sourcepackagename_332</title>
<ellipse cx="1226" cy="1283" rx="44" ry="18" style="fill:none;stroke:red;"/>
<text text-anchor="middle" style="font-size:8.00;" x="1226" y="1286">sourcepackagename</text>
</g>
<g id="edge74" class="edge"><title>sourcepackagerelease&#45;&gt;fake_sourcepackagename_332</title>
<path style="fill:none;stroke:black;" d="M1130,1151C1159,1192 1189,1232 1207,1257"/>
<polygon style="fill:black;stroke:black;" points="1210,1255 1213,1265 1204,1259 1210,1255"/>
</g>
<g id="node70" class="node"><title>fake_distrorelease_334</title>
<ellipse cx="849" cy="1290" rx="32" ry="18" style="fill:none;stroke:red;"/>
<text text-anchor="middle" style="font-size:8.00;" x="849" y="1293">distrorelease</text>
</g>
<g id="edge76" class="edge"><title>sourcepackagerelease&#45;&gt;fake_distrorelease_334</title>
<path style="fill:none;stroke:black;" d="M937,1151C909,1195 882,1238 866,1264"/>
<polygon style="fill:black;stroke:black;" points="868,1267 860,1273 863,1263 868,1267"/>
</g>
</g>
</svg>
