<?xml version="1.0" encoding="UTF-8" standalone="no"?>
<!DOCTYPE svg PUBLIC "-//W3C//DTD SVG 1.0//EN"
 "http://www.w3.org/TR/2001/REC-SVG-20010904/DTD/svg10.dtd">
<!-- Generated by fdp version 2.2.1 (Thu Apr 14 05:40:09 UTC 2005)
     For user: (stub) Stuart Bishop,,,   Title: g    Pages: 1 -->
<svg width="457px" height="535px"
 viewBox = "-1 -1 456 534"
 xmlns="http://www.w3.org/2000/svg">
<g id="graph0" class="graph" transform = "scale(0.257509)"
 style="font-family:Times-Roman;font-size:14.00;">
<title>g</title>
<text text-anchor="middle" style="font-size:22.00;" x="870" y="2053">Build</text>
<g id="node1" class="node"><title>binarypackagerelease</title>
<polygon style="fill:#c1cdcc;stroke:#c1cdcc;" points="1260,528 1260,234 1470,234 1470,528 1260,528"/>
<polygon style="fill:white;stroke:white;" points="1263,249 1263,237 1467,237 1467,249 1263,249"/>
<text text-anchor="middle" style="font-size:6.00;" x="1365" y="245">binarypackagerelease</text>
<polygon style="fill:none;stroke:black;" points="1263,249 1263,237 1467,237 1467,249 1263,249"/>
<text text-anchor="middle" style="font-size:6.00;" x="1268" y="258">id</text>
<text text-anchor="middle" style="font-size:6.00;" x="1329" y="258">serial</text>
<text text-anchor="middle" style="font-size:6.00;" x="1372" y="258"> PRIMARY KEY </text>
<text text-anchor="middle" style="font-size:6.00;" x="1290" y="270">binarypackagename</text>
<text text-anchor="middle" style="font-size:6.00;" x="1331" y="270">integer</text>
<text text-anchor="middle" style="font-size:6.00;" x="1407" y="270"> REFERENCES binarypackagename UNIQUE </text>
<text text-anchor="middle" style="font-size:6.00;" x="1275" y="282">version</text>
<text text-anchor="middle" style="font-size:6.00;" x="1328" y="282">text</text>
<text text-anchor="middle" style="font-size:6.00;" x="1363" y="282"> UNIQUE </text>
<text text-anchor="middle" style="font-size:6.00;" x="1277" y="294">summary</text>
<text text-anchor="middle" style="font-size:6.00;" x="1328" y="294">text</text>
<text text-anchor="middle" style="font-size:6.00;" x="1280" y="306">description</text>
<text text-anchor="middle" style="font-size:6.00;" x="1328" y="306">text</text>
<text text-anchor="middle" style="font-size:6.00;" x="1272" y="318">build</text>
<text text-anchor="middle" style="font-size:6.00;" x="1331" y="318">integer</text>
<text text-anchor="middle" style="font-size:6.00;" x="1390" y="318"> UNIQUE REFERENCES build </text>
<text text-anchor="middle" style="font-size:6.00;" x="1288" y="330">binpackageformat</text>
<text text-anchor="middle" style="font-size:6.00;" x="1331" y="330">integer</text>
<text text-anchor="middle" style="font-size:6.00;" x="1280" y="342">component</text>
<text text-anchor="middle" style="font-size:6.00;" x="1331" y="342">integer</text>
<text text-anchor="middle" style="font-size:6.00;" x="1385" y="342"> REFERENCES component </text>
<text text-anchor="middle" style="font-size:6.00;" x="1274" y="354">section</text>
<text text-anchor="middle" style="font-size:6.00;" x="1331" y="354">integer</text>
<text text-anchor="middle" style="font-size:6.00;" x="1380" y="354"> REFERENCES section </text>
<text text-anchor="middle" style="font-size:6.00;" x="1275" y="366">priority</text>
<text text-anchor="middle" style="font-size:6.00;" x="1331" y="366">integer</text>
<text text-anchor="middle" style="font-size:6.00;" x="1277" y="378">shlibdeps</text>
<text text-anchor="middle" style="font-size:6.00;" x="1328" y="378">text</text>
<text text-anchor="middle" style="font-size:6.00;" x="1276" y="390">depends</text>
<text text-anchor="middle" style="font-size:6.00;" x="1328" y="390">text</text>
<text text-anchor="middle" style="font-size:6.00;" x="1281" y="402">recommends</text>
<text text-anchor="middle" style="font-size:6.00;" x="1328" y="402">text</text>
<text text-anchor="middle" style="font-size:6.00;" x="1276" y="414">suggests</text>
<text text-anchor="middle" style="font-size:6.00;" x="1328" y="414">text</text>
<text text-anchor="middle" style="font-size:6.00;" x="1277" y="426">conflicts</text>
<text text-anchor="middle" style="font-size:6.00;" x="1328" y="426">text</text>
<text text-anchor="middle" style="font-size:6.00;" x="1276" y="438">replaces</text>
<text text-anchor="middle" style="font-size:6.00;" x="1328" y="438">text</text>
<text text-anchor="middle" style="font-size:6.00;" x="1277" y="450">provides</text>
<text text-anchor="middle" style="font-size:6.00;" x="1328" y="450">text</text>
<text text-anchor="middle" style="font-size:6.00;" x="1277" y="462">essential</text>
<text text-anchor="middle" style="font-size:6.00;" x="1333" y="462">boolean</text>
<text text-anchor="middle" style="font-size:6.00;" x="1281" y="474">installedsize</text>
<text text-anchor="middle" style="font-size:6.00;" x="1331" y="474">integer</text>
<text text-anchor="middle" style="font-size:6.00;" x="1278" y="486">copyright</text>
<text text-anchor="middle" style="font-size:6.00;" x="1328" y="486">text</text>
<text text-anchor="middle" style="font-size:6.00;" x="1275" y="498">licence</text>
<text text-anchor="middle" style="font-size:6.00;" x="1328" y="498">text</text>
<text text-anchor="middle" style="font-size:6.00;" x="1290" y="510">architecturespecific</text>
<text text-anchor="middle" style="font-size:6.00;" x="1333" y="510">boolean</text>
<text text-anchor="middle" style="font-size:6.00;" x="1269" y="522">fti</text>
<text text-anchor="middle" style="font-size:6.00;" x="1333" y="522">tsvector</text>
<polygon style="fill:none;stroke:black;" points="1260,528 1260,234 1470,234 1470,528 1260,528"/>
</g>
<g id="node2" class="node"><title>build</title>
<polygon style="fill:#c1cdcc;stroke:#c1cdcc;" points="882,889 882,727 1080,727 1080,889 882,889"/>
<polygon style="fill:white;stroke:white;" points="885,742 885,730 1077,730 1077,742 885,742"/>
<text text-anchor="middle" style="font-size:6.00;" x="981" y="738">build</text>
<polygon style="fill:none;stroke:black;" points="885,742 885,730 1077,730 1077,742 885,742"/>
<text text-anchor="middle" style="font-size:6.00;" x="890" y="751">id</text>
<text text-anchor="middle" style="font-size:6.00;" x="953" y="751">serial</text>
<text text-anchor="middle" style="font-size:6.00;" x="1002" y="751"> PRIMARY KEY </text>
<text text-anchor="middle" style="font-size:6.00;" x="902" y="763">datecreated</text>
<text text-anchor="middle" style="font-size:6.00;" x="960" y="763">timestamp</text>
<text text-anchor="middle" style="font-size:6.00;" x="900" y="775">processor</text>
<text text-anchor="middle" style="font-size:6.00;" x="955" y="775">integer</text>
<text text-anchor="middle" style="font-size:6.00;" x="1013" y="775"> REFERENCES processor </text>
<text text-anchor="middle" style="font-size:6.00;" x="908" y="787">distroarchrelease</text>
<text text-anchor="middle" style="font-size:6.00;" x="955" y="787">integer</text>
<text text-anchor="middle" style="font-size:6.00;" x="1021" y="787"> REFERENCES distroarchrelease </text>
<text text-anchor="middle" style="font-size:6.00;" x="900" y="799">buildstate</text>
<text text-anchor="middle" style="font-size:6.00;" x="955" y="799">integer</text>
<text text-anchor="middle" style="font-size:6.00;" x="899" y="811">datebuilt</text>
<text text-anchor="middle" style="font-size:6.00;" x="960" y="811">timestamp</text>
<text text-anchor="middle" style="font-size:6.00;" x="905" y="823">buildduration</text>
<text text-anchor="middle" style="font-size:6.00;" x="956" y="823">interval</text>
<text text-anchor="middle" style="font-size:6.00;" x="898" y="835">buildlog</text>
<text text-anchor="middle" style="font-size:6.00;" x="955" y="835">integer</text>
<text text-anchor="middle" style="font-size:6.00;" x="1019" y="835"> REFERENCES libraryfilealias </text>
<text text-anchor="middle" style="font-size:6.00;" x="897" y="847">builder</text>
<text text-anchor="middle" style="font-size:6.00;" x="955" y="847">integer</text>
<text text-anchor="middle" style="font-size:6.00;" x="1010" y="847"> REFERENCES builder </text>
<text text-anchor="middle" style="font-size:6.00;" x="906" y="859">gpgsigningkey</text>
<text text-anchor="middle" style="font-size:6.00;" x="955" y="859">integer</text>
<text text-anchor="middle" style="font-size:6.00;" x="1010" y="859"> REFERENCES gpgkey </text>
<text text-anchor="middle" style="font-size:6.00;" x="898" y="871">changes</text>
<text text-anchor="middle" style="font-size:6.00;" x="952" y="871">text</text>
<text text-anchor="middle" style="font-size:6.00;" x="914" y="883">sourcepackagerelease</text>
<text text-anchor="middle" style="font-size:6.00;" x="955" y="883">integer</text>
<text text-anchor="middle" style="font-size:6.00;" x="1027" y="883"> REFERENCES sourcepackagerelease </text>
<polygon style="fill:none;stroke:black;" points="882,889 882,727 1080,727 1080,889 882,889"/>
</g>
<g id="edge4" class="edge"><title>binarypackagerelease&#45;&gt;build</title>
<path style="fill:none;stroke:black;" d="M1252,507C1193,574 1120,654 1065,715"/>
<polygon style="fill:black;stroke:black;" points="1067,718 1058,723 1062,713 1067,718"/>
</g>
<g id="node13" class="node"><title>fake_binarypackagename_14</title>
<ellipse cx="1699" cy="310" rx="36" ry="18" style="fill:none;stroke:red;"/>
<text text-anchor="middle" style="font-size:6.00;" x="1699" y="312">binarypackagename</text>
</g>
<g id="edge2" class="edge"><title>binarypackagerelease&#45;&gt;fake_binarypackagename_14</title>
<path style="fill:none;stroke:black;" d="M1478,357C1539,344 1611,328 1656,319"/>
<polygon style="fill:black;stroke:black;" points="1656,316 1666,317 1657,322 1656,316"/>
</g>
<g id="node16" class="node"><title>fake_component_17</title>
<ellipse cx="1584" cy="137" rx="27" ry="18" style="fill:none;stroke:red;"/>
<text text-anchor="middle" style="font-size:6.00;" x="1584" y="139">component</text>
</g>
<g id="edge6" class="edge"><title>binarypackagerelease&#45;&gt;fake_component_17</title>
<path style="fill:none;stroke:black;" d="M1478,255C1511,218 1543,183 1563,161"/>
<polygon style="fill:black;stroke:black;" points="1561,158 1570,153 1566,163 1561,158"/>
</g>
<g id="node18" class="node"><title>fake_section_19</title>
<ellipse cx="1398" cy="51" rx="27" ry="18" style="fill:none;stroke:red;"/>
<text text-anchor="middle" style="font-size:6.00;" x="1398" y="53">section</text>
</g>
<g id="edge8" class="edge"><title>binarypackagerelease&#45;&gt;fake_section_19</title>
<path style="fill:none;stroke:black;" d="M1380,230C1386,172 1392,113 1395,79"/>
<polygon style="fill:black;stroke:black;" points="1392,79 1396,69 1398,79 1392,79"/>
</g>
<g id="node3" class="node"><title>builder</title>
<polygon style="fill:#c1cdcc;stroke:#c1cdcc;" points="683,520 683,370 823,370 823,520 683,520"/>
<polygon style="fill:white;stroke:white;" points="686,385 686,373 820,373 820,385 686,385"/>
<text text-anchor="middle" style="font-size:6.00;" x="753" y="381">builder</text>
<polygon style="fill:none;stroke:black;" points="686,385 686,373 820,373 820,385 686,385"/>
<text text-anchor="middle" style="font-size:6.00;" x="691" y="394">id</text>
<text text-anchor="middle" style="font-size:6.00;" x="731" y="394">serial</text>
<text text-anchor="middle" style="font-size:6.00;" x="774" y="394"> PRIMARY KEY </text>
<text text-anchor="middle" style="font-size:6.00;" x="701" y="406">processor</text>
<text text-anchor="middle" style="font-size:6.00;" x="733" y="406">integer</text>
<text text-anchor="middle" style="font-size:6.00;" x="785" y="406"> REFERENCES processor </text>
<text text-anchor="middle" style="font-size:6.00;" x="696" y="418">name</text>
<text text-anchor="middle" style="font-size:6.00;" x="730" y="418">text</text>
<text text-anchor="middle" style="font-size:6.00;" x="694" y="430">title</text>
<text text-anchor="middle" style="font-size:6.00;" x="730" y="430">text</text>
<text text-anchor="middle" style="font-size:6.00;" x="703" y="442">description</text>
<text text-anchor="middle" style="font-size:6.00;" x="730" y="442">text</text>
<text text-anchor="middle" style="font-size:6.00;" x="697" y="454">owner</text>
<text text-anchor="middle" style="font-size:6.00;" x="733" y="454">integer</text>
<text text-anchor="middle" style="font-size:6.00;" x="781" y="454"> REFERENCES person </text>
<text text-anchor="middle" style="font-size:6.00;" x="702" y="466">speedindex</text>
<text text-anchor="middle" style="font-size:6.00;" x="733" y="466">integer</text>
<text text-anchor="middle" style="font-size:6.00;" x="701" y="478">builderok</text>
<text text-anchor="middle" style="font-size:6.00;" x="735" y="478">boolean</text>
<text text-anchor="middle" style="font-size:6.00;" x="699" y="490">failnotes</text>
<text text-anchor="middle" style="font-size:6.00;" x="730" y="490">text</text>
<text text-anchor="middle" style="font-size:6.00;" x="697" y="502">trusted</text>
<text text-anchor="middle" style="font-size:6.00;" x="735" y="502">boolean</text>
<text text-anchor="middle" style="font-size:6.00;" x="692" y="514">url</text>
<text text-anchor="middle" style="font-size:6.00;" x="730" y="514">text</text>
<text text-anchor="middle" style="font-size:6.00;" x="765" y="514"> UNIQUE </text>
<polygon style="fill:none;stroke:black;" points="683,520 683,370 823,370 823,520 683,520"/>
</g>
<g id="edge16" class="edge"><title>build&#45;&gt;builder</title>
<path style="fill:none;stroke:black;" d="M928,723C892,666 845,591 809,533"/>
<polygon style="fill:black;stroke:black;" points="806,534 803,524 811,530 806,534"/>
</g>
<g id="node5" class="node"><title>distroarchrelease</title>
<polygon style="fill:#c1cdcc;stroke:#c1cdcc;" points="565,1244 565,1166 769,1166 769,1244 565,1244"/>
<polygon style="fill:white;stroke:white;" points="568,1181 568,1169 766,1169 766,1181 568,1181"/>
<text text-anchor="middle" style="font-size:6.00;" x="667" y="1177">distroarchrelease</text>
<polygon style="fill:none;stroke:black;" points="568,1181 568,1169 766,1169 766,1181 568,1181"/>
<text text-anchor="middle" style="font-size:6.00;" x="573" y="1190">id</text>
<text text-anchor="middle" style="font-size:6.00;" x="624" y="1190">serial</text>
<text text-anchor="middle" style="font-size:6.00;" x="664" y="1190"> PRIMARY KEY </text>
<text text-anchor="middle" style="font-size:6.00;" x="586" y="1202">distrorelease</text>
<text text-anchor="middle" style="font-size:6.00;" x="626" y="1202">integer</text>
<text text-anchor="middle" style="font-size:6.00;" x="703" y="1202"> REFERENCES distrorelease UNIQUE UNIQUE </text>
<text text-anchor="middle" style="font-size:6.00;" x="590" y="1214">processorfamily</text>
<text text-anchor="middle" style="font-size:6.00;" x="626" y="1214">integer</text>
<text text-anchor="middle" style="font-size:6.00;" x="694" y="1214"> REFERENCES processorfamily UNIQUE </text>
<text text-anchor="middle" style="font-size:6.00;" x="589" y="1226">architecturetag</text>
<text text-anchor="middle" style="font-size:6.00;" x="623" y="1226">text</text>
<text text-anchor="middle" style="font-size:6.00;" x="655" y="1226"> UNIQUE </text>
<text text-anchor="middle" style="font-size:6.00;" x="579" y="1238">owner</text>
<text text-anchor="middle" style="font-size:6.00;" x="626" y="1238">integer</text>
<text text-anchor="middle" style="font-size:6.00;" x="671" y="1238"> REFERENCES person </text>
<polygon style="fill:none;stroke:black;" points="565,1244 565,1166 769,1166 769,1244 565,1244"/>
</g>
<g id="edge12" class="edge"><title>build&#45;&gt;distroarchrelease</title>
<path style="fill:none;stroke:black;" d="M914,893C851,973 760,1088 707,1154"/>
<polygon style="fill:black;stroke:black;" points="710,1156 701,1162 704,1152 710,1156"/>
</g>
<g id="node11" class="node"><title>processor</title>
<polygon style="fill:#c1cdcc;stroke:#c1cdcc;" points="550,765 550,687 702,687 702,765 550,765"/>
<polygon style="fill:white;stroke:white;" points="553,702 553,690 699,690 699,702 553,702"/>
<text text-anchor="middle" style="font-size:6.00;" x="626" y="698">processor</text>
<polygon style="fill:none;stroke:black;" points="553,702 553,690 699,690 699,702 553,702"/>
<text text-anchor="middle" style="font-size:6.00;" x="558" y="711">id</text>
<text text-anchor="middle" style="font-size:6.00;" x="598" y="711">serial</text>
<text text-anchor="middle" style="font-size:6.00;" x="638" y="711"> PRIMARY KEY </text>
<text text-anchor="middle" style="font-size:6.00;" x="564" y="723">family</text>
<text text-anchor="middle" style="font-size:6.00;" x="600" y="723">integer</text>
<text text-anchor="middle" style="font-size:6.00;" x="656" y="723"> REFERENCES processorfamily </text>
<text text-anchor="middle" style="font-size:6.00;" x="563" y="735">name</text>
<text text-anchor="middle" style="font-size:6.00;" x="597" y="735">text</text>
<text text-anchor="middle" style="font-size:6.00;" x="629" y="735"> UNIQUE </text>
<text text-anchor="middle" style="font-size:6.00;" x="561" y="747">title</text>
<text text-anchor="middle" style="font-size:6.00;" x="597" y="747">text</text>
<text text-anchor="middle" style="font-size:6.00;" x="570" y="759">description</text>
<text text-anchor="middle" style="font-size:6.00;" x="597" y="759">text</text>
<polygon style="fill:none;stroke:black;" points="550,765 550,687 702,687 702,765 550,765"/>
</g>
<g id="edge10" class="edge"><title>build&#45;&gt;processor</title>
<path style="fill:none;stroke:black;" d="M874,783C825,772 767,759 720,747"/>
<polygon style="fill:black;stroke:black;" points="719,750 710,745 720,744 719,750"/>
</g>
<g id="node22" class="node"><title>fake_libraryfilealias_80</title>
<ellipse cx="1249" cy="902" rx="29" ry="18" style="fill:none;stroke:red;"/>
<text text-anchor="middle" style="font-size:6.00;" x="1249" y="904">libraryfilealias</text>
</g>
<g id="edge14" class="edge"><title>build&#45;&gt;fake_libraryfilealias_80</title>
<path style="fill:none;stroke:black;" d="M1088,846C1133,861 1182,878 1214,890"/>
<polygon style="fill:black;stroke:black;" points="1215,887 1224,893 1213,893 1215,887"/>
</g>
<g id="node25" class="node"><title>fake_gpgkey_83</title>
<ellipse cx="1234" cy="704" rx="27" ry="18" style="fill:none;stroke:red;"/>
<text text-anchor="middle" style="font-size:6.00;" x="1234" y="706">gpgkey</text>
</g>
<g id="edge18" class="edge"><title>build&#45;&gt;fake_gpgkey_83</title>
<path style="fill:none;stroke:black;" d="M1088,764C1129,748 1173,729 1201,718"/>
<polygon style="fill:black;stroke:black;" points="1200,714 1211,714 1203,721 1200,714"/>
</g>
<g id="node27" class="node"><title>fake_sourcepackagerelease_85</title>
<ellipse cx="1054" cy="535" rx="37" ry="18" style="fill:none;stroke:red;"/>
<text text-anchor="middle" style="font-size:6.00;" x="1054" y="537">sourcepackagerelease</text>
</g>
<g id="edge20" class="edge"><title>build&#45;&gt;fake_sourcepackagerelease_85</title>
<path style="fill:none;stroke:black;" d="M1004,723C1019,668 1036,601 1046,563"/>
<polygon style="fill:black;stroke:black;" points="1043,562 1049,553 1049,564 1043,562"/>
</g>
<g id="edge22" class="edge"><title>builder&#45;&gt;processor</title>
<path style="fill:none;stroke:black;" d="M717,524C696,571 669,632 650,674"/>
<polygon style="fill:black;stroke:black;" points="653,675 646,683 647,672 653,675"/>
</g>
<g id="node30" class="node"><title>fake_person_88</title>
<ellipse cx="641" cy="233" rx="27" ry="18" style="fill:none;stroke:red;"/>
<text text-anchor="middle" style="font-size:6.00;" x="641" y="235">person</text>
</g>
<g id="edge24" class="edge"><title>builder&#45;&gt;fake_person_88</title>
<path style="fill:none;stroke:black;" d="M711,366C691,329 669,286 655,259"/>
<polygon style="fill:black;stroke:black;" points="652,260 650,250 658,257 652,260"/>
</g>
<g id="node4" class="node"><title>buildqueue</title>
<polygon style="fill:#c1cdcc;stroke:#c1cdcc;" points="643,648 643,546 779,546 779,648 643,648"/>
<polygon style="fill:white;stroke:white;" points="646,561 646,549 776,549 776,561 646,561"/>
<text text-anchor="middle" style="font-size:6.00;" x="711" y="557">buildqueue</text>
<polygon style="fill:none;stroke:black;" points="646,561 646,549 776,549 776,561 646,561"/>
<text text-anchor="middle" style="font-size:6.00;" x="651" y="570">id</text>
<text text-anchor="middle" style="font-size:6.00;" x="687" y="570">serial</text>
<text text-anchor="middle" style="font-size:6.00;" x="736" y="570"> PRIMARY KEY </text>
<text text-anchor="middle" style="font-size:6.00;" x="655" y="582">build</text>
<text text-anchor="middle" style="font-size:6.00;" x="689" y="582">integer</text>
<text text-anchor="middle" style="font-size:6.00;" x="741" y="582"> REFERENCES build </text>
<text text-anchor="middle" style="font-size:6.00;" x="658" y="594">builder</text>
<text text-anchor="middle" style="font-size:6.00;" x="689" y="594">integer</text>
<text text-anchor="middle" style="font-size:6.00;" x="744" y="594"> REFERENCES builder </text>
<text text-anchor="middle" style="font-size:6.00;" x="657" y="606">logtail</text>
<text text-anchor="middle" style="font-size:6.00;" x="686" y="606">text</text>
<text text-anchor="middle" style="font-size:6.00;" x="658" y="618">created</text>
<text text-anchor="middle" style="font-size:6.00;" x="694" y="618">timestamp</text>
<text text-anchor="middle" style="font-size:6.00;" x="661" y="630">buildstart</text>
<text text-anchor="middle" style="font-size:6.00;" x="694" y="630">timestamp</text>
<text text-anchor="middle" style="font-size:6.00;" x="660" y="642">lastscore</text>
<text text-anchor="middle" style="font-size:6.00;" x="689" y="642">integer</text>
<polygon style="fill:none;stroke:black;" points="643,648 643,546 779,546 779,648 643,648"/>
</g>
<g id="edge26" class="edge"><title>buildqueue&#45;&gt;build</title>
<path style="fill:none;stroke:black;" d="M782,652C808,672 837,696 866,718"/>
<polygon style="fill:black;stroke:black;" points="868,715 874,724 864,721 868,715"/>
</g>
<g id="edge28" class="edge"><title>buildqueue&#45;&gt;builder</title>
<path style="fill:none;stroke:black;" d="M726,542C727,539 728,537 728,534"/>
<polygon style="fill:black;stroke:black;" points="725,533 731,524 731,535 725,533"/>
</g>
<g id="node6" class="node"><title>distrorelease</title>
<polygon style="fill:#c1cdcc;stroke:#c1cdcc;" points="655,1801 655,1579 867,1579 867,1801 655,1801"/>
<polygon style="fill:white;stroke:white;" points="658,1594 658,1582 864,1582 864,1594 658,1594"/>
<text text-anchor="middle" style="font-size:6.00;" x="761" y="1590">distrorelease</text>
<polygon style="fill:none;stroke:black;" points="658,1594 658,1582 864,1582 864,1594 658,1594"/>
<text text-anchor="middle" style="font-size:6.00;" x="663" y="1603">id</text>
<text text-anchor="middle" style="font-size:6.00;" x="715" y="1603">serial</text>
<text text-anchor="middle" style="font-size:6.00;" x="776" y="1603"> UNIQUE PRIMARY KEY </text>
<text text-anchor="middle" style="font-size:6.00;" x="675" y="1615">distribution</text>
<text text-anchor="middle" style="font-size:6.00;" x="717" y="1615">integer</text>
<text text-anchor="middle" style="font-size:6.00;" x="802" y="1615"> REFERENCES distribution UNIQUE UNIQUE </text>
<text text-anchor="middle" style="font-size:6.00;" x="668" y="1627">name</text>
<text text-anchor="middle" style="font-size:6.00;" x="714" y="1627">text</text>
<text text-anchor="middle" style="font-size:6.00;" x="755" y="1627"> UNIQUE </text>
<text text-anchor="middle" style="font-size:6.00;" x="666" y="1639">title</text>
<text text-anchor="middle" style="font-size:6.00;" x="714" y="1639">text</text>
<text text-anchor="middle" style="font-size:6.00;" x="675" y="1651">description</text>
<text text-anchor="middle" style="font-size:6.00;" x="714" y="1651">text</text>
<text text-anchor="middle" style="font-size:6.00;" x="670" y="1663">version</text>
<text text-anchor="middle" style="font-size:6.00;" x="714" y="1663">text</text>
<text text-anchor="middle" style="font-size:6.00;" x="676" y="1675">components</text>
<text text-anchor="middle" style="font-size:6.00;" x="717" y="1675">integer</text>
<text text-anchor="middle" style="font-size:6.00;" x="772" y="1675"> REFERENCES schema </text>
<text text-anchor="middle" style="font-size:6.00;" x="670" y="1687">sections</text>
<text text-anchor="middle" style="font-size:6.00;" x="717" y="1687">integer</text>
<text text-anchor="middle" style="font-size:6.00;" x="772" y="1687"> REFERENCES schema </text>
<text text-anchor="middle" style="font-size:6.00;" x="676" y="1699">releasestatus</text>
<text text-anchor="middle" style="font-size:6.00;" x="717" y="1699">integer</text>
<text text-anchor="middle" style="font-size:6.00;" x="676" y="1711">datereleased</text>
<text text-anchor="middle" style="font-size:6.00;" x="722" y="1711">timestamp</text>
<text text-anchor="middle" style="font-size:6.00;" x="677" y="1723">parentrelease</text>
<text text-anchor="middle" style="font-size:6.00;" x="717" y="1723">integer</text>
<text text-anchor="middle" style="font-size:6.00;" x="778" y="1723"> REFERENCES distrorelease </text>
<text text-anchor="middle" style="font-size:6.00;" x="669" y="1735">owner</text>
<text text-anchor="middle" style="font-size:6.00;" x="717" y="1735">integer</text>
<text text-anchor="middle" style="font-size:6.00;" x="771" y="1735"> REFERENCES person </text>
<text text-anchor="middle" style="font-size:6.00;" x="676" y="1747">lucilleconfig</text>
<text text-anchor="middle" style="font-size:6.00;" x="714" y="1747">text</text>
<text text-anchor="middle" style="font-size:6.00;" x="672" y="1759">summary</text>
<text text-anchor="middle" style="font-size:6.00;" x="714" y="1759">text</text>
<text text-anchor="middle" style="font-size:6.00;" x="676" y="1771">displayname</text>
<text text-anchor="middle" style="font-size:6.00;" x="714" y="1771">text</text>
<text text-anchor="middle" style="font-size:6.00;" x="681" y="1783">datelastlangpack</text>
<text text-anchor="middle" style="font-size:6.00;" x="722" y="1783">timestamp</text>
<text text-anchor="middle" style="font-size:6.00;" x="678" y="1795">messagecount</text>
<text text-anchor="middle" style="font-size:6.00;" x="717" y="1795">integer</text>
<polygon style="fill:none;stroke:black;" points="655,1801 655,1579 867,1579 867,1801 655,1801"/>
</g>
<g id="edge30" class="edge"><title>distroarchrelease&#45;&gt;distrorelease</title>
<path style="fill:none;stroke:black;" d="M675,1248C689,1319 716,1461 737,1565"/>
<polygon style="fill:black;stroke:black;" points="740,1565 739,1575 734,1566 740,1565"/>
</g>
<g id="node12" class="node"><title>processorfamily</title>
<polygon style="fill:#c1cdcc;stroke:#c1cdcc;" points="453,982 453,916 563,916 563,982 453,982"/>
<polygon style="fill:white;stroke:white;" points="456,931 456,919 560,919 560,931 456,931"/>
<text text-anchor="middle" style="font-size:6.00;" x="508" y="927">processorfamily</text>
<polygon style="fill:none;stroke:black;" points="456,931 456,919 560,919 560,931 456,931"/>
<text text-anchor="middle" style="font-size:6.00;" x="461" y="940">id</text>
<text text-anchor="middle" style="font-size:6.00;" x="500" y="940">serial</text>
<text text-anchor="middle" style="font-size:6.00;" x="536" y="940"> PRIMARY KEY </text>
<text text-anchor="middle" style="font-size:6.00;" x="466" y="952">name</text>
<text text-anchor="middle" style="font-size:6.00;" x="499" y="952">text</text>
<text text-anchor="middle" style="font-size:6.00;" x="527" y="952"> UNIQUE </text>
<text text-anchor="middle" style="font-size:6.00;" x="464" y="964">title</text>
<text text-anchor="middle" style="font-size:6.00;" x="499" y="964">text</text>
<text text-anchor="middle" style="font-size:6.00;" x="473" y="976">description</text>
<text text-anchor="middle" style="font-size:6.00;" x="499" y="976">text</text>
<polygon style="fill:none;stroke:black;" points="453,982 453,916 563,916 563,982 453,982"/>
</g>
<g id="edge32" class="edge"><title>distroarchrelease&#45;&gt;processorfamily</title>
<path style="fill:none;stroke:black;" d="M640,1162C612,1116 566,1042 536,995"/>
<polygon style="fill:black;stroke:black;" points="533,996 531,986 539,993 533,996"/>
</g>
<g id="node36" class="node"><title>fake_person_115</title>
<ellipse cx="476" cy="1353" rx="27" ry="18" style="fill:none;stroke:red;"/>
<text text-anchor="middle" style="font-size:6.00;" x="476" y="1355">person</text>
</g>
<g id="edge34" class="edge"><title>distroarchrelease&#45;&gt;fake_person_115</title>
<path style="fill:none;stroke:black;" d="M611,1248C575,1276 529,1312 502,1333"/>
<polygon style="fill:black;stroke:black;" points="504,1336 494,1339 500,1330 504,1336"/>
</g>
<g id="edge42" class="edge"><title>distrorelease&#45;&gt;distrorelease</title>
<path style="fill:none;stroke:black;" d="M875,1760C886,1746 893,1722 893,1690 893,1664 888,1643 881,1629"/>
<polygon style="fill:black;stroke:black;" points="878,1630 875,1620 883,1626 878,1630"/>
</g>
<g id="node38" class="node"><title>fake_distribution_119</title>
<ellipse cx="605" cy="1969" rx="27" ry="18" style="fill:none;stroke:red;"/>
<text text-anchor="middle" style="font-size:6.00;" x="605" y="1971">distribution</text>
</g>
<g id="edge36" class="edge"><title>distrorelease&#45;&gt;fake_distribution_119</title>
<path style="fill:none;stroke:black;" d="M697,1805C669,1856 638,1911 620,1943"/>
<polygon style="fill:black;stroke:black;" points="623,1945 615,1952 617,1942 623,1945"/>
</g>
<g id="node40" class="node"><title>fake_schema_121</title>
<ellipse cx="762" cy="2010" rx="27" ry="18" style="fill:none;stroke:red;"/>
<text text-anchor="middle" style="font-size:6.00;" x="762" y="2012">schema</text>
</g>
<g id="edge38" class="edge"><title>distrorelease&#45;&gt;fake_schema_121</title>
<path style="fill:none;stroke:black;" d="M761,1805C762,1869 762,1942 762,1982"/>
<polygon style="fill:black;stroke:black;" points="766,1982 762,1992 759,1982 766,1982"/>
</g>
<g id="node42" class="node"><title>fake_schema_123</title>
<ellipse cx="485" cy="1845" rx="27" ry="18" style="fill:none;stroke:red;"/>
<text text-anchor="middle" style="font-size:6.00;" x="485" y="1847">schema</text>
</g>
<g id="edge40" class="edge"><title>distrorelease&#45;&gt;fake_schema_123</title>
<path style="fill:none;stroke:black;" d="M647,1754C599,1781 547,1811 515,1828"/>
<polygon style="fill:black;stroke:black;" points="516,1831 506,1833 513,1825 516,1831"/>
</g>
<g id="node45" class="node"><title>fake_person_126</title>
<ellipse cx="929" cy="1959" rx="27" ry="18" style="fill:none;stroke:red;"/>
<text text-anchor="middle" style="font-size:6.00;" x="929" y="1961">person</text>
</g>
<g id="edge44" class="edge"><title>distrorelease&#45;&gt;fake_person_126</title>
<path style="fill:none;stroke:black;" d="M833,1805C863,1853 895,1904 913,1933"/>
<polygon style="fill:black;stroke:black;" points="916,1932 919,1942 911,1936 916,1932"/>
</g>
<g id="node7" class="node"><title>distroreleasequeue</title>
<polygon style="fill:#c1cdcc;stroke:#c1cdcc;" points="1077,1587 1077,1533 1223,1533 1223,1587 1077,1587"/>
<polygon style="fill:white;stroke:white;" points="1080,1548 1080,1536 1220,1536 1220,1548 1080,1548"/>
<text text-anchor="middle" style="font-size:6.00;" x="1150" y="1544">distroreleasequeue</text>
<polygon style="fill:none;stroke:black;" points="1080,1548 1080,1536 1220,1536 1220,1548 1080,1548"/>
<text text-anchor="middle" style="font-size:6.00;" x="1085" y="1557">id</text>
<text text-anchor="middle" style="font-size:6.00;" x="1127" y="1557">serial</text>
<text text-anchor="middle" style="font-size:6.00;" x="1167" y="1557"> PRIMARY KEY </text>
<text text-anchor="middle" style="font-size:6.00;" x="1090" y="1569">status</text>
<text text-anchor="middle" style="font-size:6.00;" x="1129" y="1569">integer</text>
<text text-anchor="middle" style="font-size:6.00;" x="1098" y="1581">distrorelease</text>
<text text-anchor="middle" style="font-size:6.00;" x="1129" y="1581">integer</text>
<text text-anchor="middle" style="font-size:6.00;" x="1181" y="1581"> REFERENCES distrorelease </text>
<polygon style="fill:none;stroke:black;" points="1077,1587 1077,1533 1223,1533 1223,1587 1077,1587"/>
</g>
<g id="edge46" class="edge"><title>distroreleasequeue&#45;&gt;distrorelease</title>
<path style="fill:none;stroke:black;" d="M1069,1587C1016,1605 945,1628 885,1649"/>
<polygon style="fill:black;stroke:black;" points="886,1652 875,1652 884,1646 886,1652"/>
</g>
<g id="node8" class="node"><title>distroreleasequeuebuild</title>
<polygon style="fill:#c1cdcc;stroke:#c1cdcc;" points="1029,1237 1029,1183 1205,1183 1205,1237 1029,1237"/>
<polygon style="fill:white;stroke:white;" points="1032,1198 1032,1186 1202,1186 1202,1198 1032,1198"/>
<text text-anchor="middle" style="font-size:6.00;" x="1117" y="1194">distroreleasequeuebuild</text>
<polygon style="fill:none;stroke:black;" points="1032,1198 1032,1186 1202,1186 1202,1198 1032,1198"/>
<text text-anchor="middle" style="font-size:6.00;" x="1037" y="1207">id</text>
<text text-anchor="middle" style="font-size:6.00;" x="1094" y="1207">serial</text>
<text text-anchor="middle" style="font-size:6.00;" x="1134" y="1207"> PRIMARY KEY </text>
<text text-anchor="middle" style="font-size:6.00;" x="1058" y="1219">distroreleasequeue</text>
<text text-anchor="middle" style="font-size:6.00;" x="1096" y="1219">integer</text>
<text text-anchor="middle" style="font-size:6.00;" x="1156" y="1219"> REFERENCES distroreleasequeue </text>
<text text-anchor="middle" style="font-size:6.00;" x="1041" y="1231">build</text>
<text text-anchor="middle" style="font-size:6.00;" x="1096" y="1231">integer</text>
<text text-anchor="middle" style="font-size:6.00;" x="1139" y="1231"> REFERENCES build </text>
<polygon style="fill:none;stroke:black;" points="1029,1237 1029,1183 1205,1183 1205,1237 1029,1237"/>
</g>
<g id="edge50" class="edge"><title>distroreleasequeuebuild&#45;&gt;build</title>
<path style="fill:none;stroke:black;" d="M1106,1179C1086,1120 1043,992 1013,903"/>
<polygon style="fill:black;stroke:black;" points="1010,904 1010,893 1016,902 1010,904"/>
</g>
<g id="edge48" class="edge"><title>distroreleasequeuebuild&#45;&gt;distroreleasequeue</title>
<path style="fill:none;stroke:black;" d="M1120,1241C1126,1305 1140,1448 1146,1519"/>
<polygon style="fill:black;stroke:black;" points="1149,1519 1147,1529 1143,1519 1149,1519"/>
</g>
<g id="node9" class="node"><title>distroreleasequeuesource</title>
<polygon style="fill:#c1cdcc;stroke:#c1cdcc;" points="1312,1789 1312,1735 1502,1735 1502,1789 1312,1789"/>
<polygon style="fill:white;stroke:white;" points="1315,1750 1315,1738 1499,1738 1499,1750 1315,1750"/>
<text text-anchor="middle" style="font-size:6.00;" x="1407" y="1746">distroreleasequeuesource</text>
<polygon style="fill:none;stroke:black;" points="1315,1750 1315,1738 1499,1738 1499,1750 1315,1750"/>
<text text-anchor="middle" style="font-size:6.00;" x="1320" y="1759">id</text>
<text text-anchor="middle" style="font-size:6.00;" x="1384" y="1759">serial</text>
<text text-anchor="middle" style="font-size:6.00;" x="1424" y="1759"> PRIMARY KEY </text>
<text text-anchor="middle" style="font-size:6.00;" x="1341" y="1771">distroreleasequeue</text>
<text text-anchor="middle" style="font-size:6.00;" x="1386" y="1771">integer</text>
<text text-anchor="middle" style="font-size:6.00;" x="1446" y="1771"> REFERENCES distroreleasequeue </text>
<text text-anchor="middle" style="font-size:6.00;" x="1344" y="1783">sourcepackagerelease</text>
<text text-anchor="middle" style="font-size:6.00;" x="1386" y="1783">integer</text>
<text text-anchor="middle" style="font-size:6.00;" x="1449" y="1783"> REFERENCES sourcepackagerelease </text>
<polygon style="fill:none;stroke:black;" points="1312,1789 1312,1735 1502,1735 1502,1789 1312,1789"/>
</g>
<g id="edge52" class="edge"><title>distroreleasequeuesource&#45;&gt;distroreleasequeue</title>
<path style="fill:none;stroke:black;" d="M1367,1731C1322,1695 1246,1636 1198,1597"/>
<polygon style="fill:black;stroke:black;" points="1196,1600 1190,1591 1200,1594 1196,1600"/>
</g>
<g id="node51" class="node"><title>fake_sourcepackagerelease_134</title>
<ellipse cx="1587" cy="1918" rx="37" ry="18" style="fill:none;stroke:red;"/>
<text text-anchor="middle" style="font-size:6.00;" x="1587" y="1920">sourcepackagerelease</text>
</g>
<g id="edge54" class="edge"><title>distroreleasequeuesource&#45;&gt;fake_sourcepackagerelease_134</title>
<path style="fill:none;stroke:black;" d="M1443,1793C1478,1823 1530,1869 1561,1895"/>
<polygon style="fill:black;stroke:black;" points="1564,1893 1569,1902 1559,1898 1564,1893"/>
</g>
<g id="node10" class="node"><title>pocketchroot</title>
<polygon style="fill:#c1cdcc;stroke:#c1cdcc;" points="175,1267 175,1201 367,1201 367,1267 175,1267"/>
<polygon style="fill:white;stroke:white;" points="178,1216 178,1204 364,1204 364,1216 178,1216"/>
<text text-anchor="middle" style="font-size:6.00;" x="271" y="1212">pocketchroot</text>
<polygon style="fill:none;stroke:black;" points="178,1216 178,1204 364,1204 364,1216 178,1216"/>
<text text-anchor="middle" style="font-size:6.00;" x="183" y="1225">id</text>
<text text-anchor="middle" style="font-size:6.00;" x="236" y="1225">serial</text>
<text text-anchor="middle" style="font-size:6.00;" x="276" y="1225"> PRIMARY KEY </text>
<text text-anchor="middle" style="font-size:6.00;" x="201" y="1237">distroarchrelease</text>
<text text-anchor="middle" style="font-size:6.00;" x="238" y="1237">integer</text>
<text text-anchor="middle" style="font-size:6.00;" x="308" y="1237"> REFERENCES distroarchrelease UNIQUE </text>
<text text-anchor="middle" style="font-size:6.00;" x="189" y="1249">pocket</text>
<text text-anchor="middle" style="font-size:6.00;" x="238" y="1249">integer</text>
<text text-anchor="middle" style="font-size:6.00;" x="267" y="1249"> UNIQUE </text>
<text text-anchor="middle" style="font-size:6.00;" x="189" y="1261">chroot</text>
<text text-anchor="middle" style="font-size:6.00;" x="238" y="1261">integer</text>
<text text-anchor="middle" style="font-size:6.00;" x="305" y="1261"> REFERENCES libraryfilealias UNIQUE </text>
<polygon style="fill:none;stroke:black;" points="175,1267 175,1201 367,1201 367,1267 175,1267"/>
</g>
<g id="edge56" class="edge"><title>pocketchroot&#45;&gt;distroarchrelease</title>
<path style="fill:none;stroke:black;" d="M375,1226C428,1222 492,1218 547,1214"/>
<polygon style="fill:black;stroke:black;" points="547,1211 557,1213 547,1217 547,1211"/>
</g>
<g id="node54" class="node"><title>fake_libraryfilealias_192</title>
<ellipse cx="35" cy="1259" rx="29" ry="18" style="fill:none;stroke:red;"/>
<text text-anchor="middle" style="font-size:6.00;" x="35" y="1261">libraryfilealias</text>
</g>
<g id="edge58" class="edge"><title>pocketchroot&#45;&gt;fake_libraryfilealias_192</title>
<path style="fill:none;stroke:black;" d="M167,1245C134,1249 99,1252 74,1255"/>
<polygon style="fill:black;stroke:black;" points="74,1258 64,1256 74,1252 74,1258"/>
</g>
<g id="edge60" class="edge"><title>processor&#45;&gt;processorfamily</title>
<path style="fill:none;stroke:black;" d="M603,769C583,808 554,863 533,903"/>
<polygon style="fill:black;stroke:black;" points="536,905 528,912 530,902 536,905"/>
</g>
</g>
</svg>
