<?xml version="1.0" encoding="UTF-8" standalone="no"?>
<!DOCTYPE svg PUBLIC "-//W3C//DTD SVG 1.0//EN"
 "http://www.w3.org/TR/2001/REC-SVG-20010904/DTD/svg10.dtd">
<!-- Generated by fdp version 2.2.1 (Tue Oct 11 01:38:21 UTC 2005)
     For user: (stub) Stuart Bishop,,,   Title: g    Pages: 1 -->
<svg width="2329px" height="2423px"
 viewBox = "-1 -1 2328 2422"
 xmlns="http://www.w3.org/2000/svg">
<g id="graph0" class="graph" style="font-family:Times-Roman;font-size:14.00;">
<title>g</title>
<text text-anchor="middle" style="font-size:22.00;" x="1163" y="2405">Build</text>
<g id="node1" class="node"><title>binarypackagerelease</title>
<polygon style="fill:#c1cdcc;stroke:#c1cdcc;" points="294,1602 294,1246 604,1246 604,1602 294,1602"/>
<polygon style="fill:white;stroke:white;" points="297,1263 297,1249 601,1249 601,1263 297,1263"/>
<text text-anchor="middle" style="font-size:8.00;" x="449" y="1259">binarypackagerelease</text>
<polygon style="fill:none;stroke:black;" points="297,1263 297,1249 601,1249 601,1263 297,1263"/>
<text text-anchor="middle" style="font-size:8.00;" x="303" y="1274">id</text>
<text text-anchor="middle" style="font-size:8.00;" x="380" y="1274">serial</text>
<text text-anchor="middle" style="font-size:8.00;" x="442" y="1274"> PRIMARY KEY </text>
<text text-anchor="middle" style="font-size:8.00;" x="332" y="1288">binarypackagename</text>
<text text-anchor="middle" style="font-size:8.00;" x="383" y="1288">integer</text>
<text text-anchor="middle" style="font-size:8.00;" x="506" y="1288"> REFERENCES binarypackagename UNIQUE UNIQUE </text>
<text text-anchor="middle" style="font-size:8.00;" x="312" y="1302">version</text>
<text text-anchor="middle" style="font-size:8.00;" x="378" y="1302">text</text>
<text text-anchor="middle" style="font-size:8.00;" x="430" y="1302"> UNIQUE </text>
<text text-anchor="middle" style="font-size:8.00;" x="315" y="1316">summary</text>
<text text-anchor="middle" style="font-size:8.00;" x="378" y="1316">text</text>
<text text-anchor="middle" style="font-size:8.00;" x="317" y="1330">description</text>
<text text-anchor="middle" style="font-size:8.00;" x="378" y="1330">text</text>
<text text-anchor="middle" style="font-size:8.00;" x="308" y="1344">build</text>
<text text-anchor="middle" style="font-size:8.00;" x="383" y="1344">integer</text>
<text text-anchor="middle" style="font-size:8.00;" x="482" y="1344"> UNIQUE REFERENCES build UNIQUE </text>
<text text-anchor="middle" style="font-size:8.00;" x="329" y="1358">binpackageformat</text>
<text text-anchor="middle" style="font-size:8.00;" x="383" y="1358">integer</text>
<text text-anchor="middle" style="font-size:8.00;" x="318" y="1372">component</text>
<text text-anchor="middle" style="font-size:8.00;" x="383" y="1372">integer</text>
<text text-anchor="middle" style="font-size:8.00;" x="459" y="1372"> REFERENCES component </text>
<text text-anchor="middle" style="font-size:8.00;" x="311" y="1386">section</text>
<text text-anchor="middle" style="font-size:8.00;" x="383" y="1386">integer</text>
<text text-anchor="middle" style="font-size:8.00;" x="452" y="1386"> REFERENCES section </text>
<text text-anchor="middle" style="font-size:8.00;" x="312" y="1400">priority</text>
<text text-anchor="middle" style="font-size:8.00;" x="383" y="1400">integer</text>
<text text-anchor="middle" style="font-size:8.00;" x="315" y="1414">shlibdeps</text>
<text text-anchor="middle" style="font-size:8.00;" x="378" y="1414">text</text>
<text text-anchor="middle" style="font-size:8.00;" x="313" y="1428">depends</text>
<text text-anchor="middle" style="font-size:8.00;" x="378" y="1428">text</text>
<text text-anchor="middle" style="font-size:8.00;" x="321" y="1442">recommends</text>
<text text-anchor="middle" style="font-size:8.00;" x="378" y="1442">text</text>
<text text-anchor="middle" style="font-size:8.00;" x="313" y="1456">suggests</text>
<text text-anchor="middle" style="font-size:8.00;" x="378" y="1456">text</text>
<text text-anchor="middle" style="font-size:8.00;" x="313" y="1470">conflicts</text>
<text text-anchor="middle" style="font-size:8.00;" x="378" y="1470">text</text>
<text text-anchor="middle" style="font-size:8.00;" x="313" y="1484">replaces</text>
<text text-anchor="middle" style="font-size:8.00;" x="378" y="1484">text</text>
<text text-anchor="middle" style="font-size:8.00;" x="314" y="1498">provides</text>
<text text-anchor="middle" style="font-size:8.00;" x="378" y="1498">text</text>
<text text-anchor="middle" style="font-size:8.00;" x="314" y="1512">essential</text>
<text text-anchor="middle" style="font-size:8.00;" x="385" y="1512">boolean</text>
<text text-anchor="middle" style="font-size:8.00;" x="320" y="1526">installedsize</text>
<text text-anchor="middle" style="font-size:8.00;" x="383" y="1526">integer</text>
<text text-anchor="middle" style="font-size:8.00;" x="315" y="1540">copyright</text>
<text text-anchor="middle" style="font-size:8.00;" x="378" y="1540">text</text>
<text text-anchor="middle" style="font-size:8.00;" x="311" y="1554">licence</text>
<text text-anchor="middle" style="font-size:8.00;" x="378" y="1554">text</text>
<text text-anchor="middle" style="font-size:8.00;" x="331" y="1568">architecturespecific</text>
<text text-anchor="middle" style="font-size:8.00;" x="385" y="1568">boolean</text>
<text text-anchor="middle" style="font-size:8.00;" x="304" y="1582">fti</text>
<text text-anchor="middle" style="font-size:8.00;" x="385" y="1582">tsvector</text>
<text text-anchor="middle" style="font-size:8.00;" x="318" y="1596">datecreated</text>
<text text-anchor="middle" style="font-size:8.00;" x="389" y="1596">timestamp</text>
<polygon style="fill:none;stroke:black;" points="294,1602 294,1246 604,1246 604,1602 294,1602"/>
</g>
<g id="node2" class="node"><title>build</title>
<polygon style="fill:#c1cdcc;stroke:#c1cdcc;" points="682,1061 682,873 938,873 938,1061 682,1061"/>
<polygon style="fill:white;stroke:white;" points="685,890 685,876 935,876 935,890 685,890"/>
<text text-anchor="middle" style="font-size:8.00;" x="810" y="886">build</text>
<polygon style="fill:none;stroke:black;" points="685,890 685,876 935,876 935,890 685,890"/>
<text text-anchor="middle" style="font-size:8.00;" x="691" y="901">id</text>
<text text-anchor="middle" style="font-size:8.00;" x="774" y="901">serial</text>
<text text-anchor="middle" style="font-size:8.00;" x="836" y="901"> PRIMARY KEY </text>
<text text-anchor="middle" style="font-size:8.00;" x="706" y="915">datecreated</text>
<text text-anchor="middle" style="font-size:8.00;" x="783" y="915">timestamp</text>
<text text-anchor="middle" style="font-size:8.00;" x="704" y="929">processor</text>
<text text-anchor="middle" style="font-size:8.00;" x="777" y="929">integer</text>
<text text-anchor="middle" style="font-size:8.00;" x="850" y="929"> REFERENCES processor </text>
<text text-anchor="middle" style="font-size:8.00;" x="715" y="943">distroarchrelease</text>
<text text-anchor="middle" style="font-size:8.00;" x="777" y="943">integer</text>
<text text-anchor="middle" style="font-size:8.00;" x="862" y="943"> REFERENCES distroarchrelease </text>
<text text-anchor="middle" style="font-size:8.00;" x="704" y="957">buildstate</text>
<text text-anchor="middle" style="font-size:8.00;" x="777" y="957">integer</text>
<text text-anchor="middle" style="font-size:8.00;" x="702" y="971">datebuilt</text>
<text text-anchor="middle" style="font-size:8.00;" x="783" y="971">timestamp</text>
<text text-anchor="middle" style="font-size:8.00;" x="710" y="985">buildduration</text>
<text text-anchor="middle" style="font-size:8.00;" x="778" y="985">interval</text>
<text text-anchor="middle" style="font-size:8.00;" x="702" y="999">buildlog</text>
<text text-anchor="middle" style="font-size:8.00;" x="777" y="999">integer</text>
<text text-anchor="middle" style="font-size:8.00;" x="858" y="999"> REFERENCES libraryfilealias </text>
<text text-anchor="middle" style="font-size:8.00;" x="699" y="1013">builder</text>
<text text-anchor="middle" style="font-size:8.00;" x="777" y="1013">integer</text>
<text text-anchor="middle" style="font-size:8.00;" x="846" y="1013"> REFERENCES builder </text>
<text text-anchor="middle" style="font-size:8.00;" x="723" y="1027">sourcepackagerelease</text>
<text text-anchor="middle" style="font-size:8.00;" x="777" y="1027">integer</text>
<text text-anchor="middle" style="font-size:8.00;" x="870" y="1027"> REFERENCES sourcepackagerelease </text>
<text text-anchor="middle" style="font-size:8.00;" x="699" y="1041">pocket</text>
<text text-anchor="middle" style="font-size:8.00;" x="777" y="1041">integer</text>
<text text-anchor="middle" style="font-size:8.00;" x="709" y="1055">dependencies</text>
<text text-anchor="middle" style="font-size:8.00;" x="772" y="1055">text</text>
<polygon style="fill:none;stroke:black;" points="682,1061 682,873 938,873 938,1061 682,1061"/>
</g>
<g id="edge4" class="edge"><title>binarypackagerelease&#45;&gt;build</title>
<path style="fill:none;stroke:black;" d="M593,1242C639,1184 687,1123 726,1073"/>
<polygon style="fill:black;stroke:black;" points="723,1071 732,1065 729,1075 723,1071"/>
</g>
<g id="node5" class="node"><title>component</title>
<polygon style="fill:#c1cdcc;stroke:#c1cdcc;" points="609,1838 609,1790 729,1790 729,1838 609,1838"/>
<polygon style="fill:white;stroke:white;" points="612,1807 612,1793 726,1793 726,1807 612,1807"/>
<text text-anchor="middle" style="font-size:8.00;" x="669" y="1803">component</text>
<polygon style="fill:none;stroke:black;" points="612,1807 612,1793 726,1793 726,1807 612,1807"/>
<text text-anchor="middle" style="font-size:8.00;" x="618" y="1818">id</text>
<text text-anchor="middle" style="font-size:8.00;" x="649" y="1818">serial</text>
<text text-anchor="middle" style="font-size:8.00;" x="694" y="1818"> PRIMARY KEY </text>
<text text-anchor="middle" style="font-size:8.00;" x="624" y="1832">name</text>
<text text-anchor="middle" style="font-size:8.00;" x="647" y="1832">text</text>
<text text-anchor="middle" style="font-size:8.00;" x="682" y="1832"> UNIQUE </text>
<polygon style="fill:none;stroke:black;" points="609,1838 609,1790 729,1790 729,1838 609,1838"/>
</g>
<g id="edge6" class="edge"><title>binarypackagerelease&#45;&gt;component</title>
<path style="fill:none;stroke:black;" d="M552,1606C588,1671 626,1738 648,1777"/>
<polygon style="fill:black;stroke:black;" points="651,1776 653,1786 645,1779 651,1776"/>
</g>
<g id="node15" class="node"><title>section</title>
<polygon style="fill:#c1cdcc;stroke:#c1cdcc;" points="643,1660 643,1612 763,1612 763,1660 643,1660"/>
<polygon style="fill:white;stroke:white;" points="646,1629 646,1615 760,1615 760,1629 646,1629"/>
<text text-anchor="middle" style="font-size:8.00;" x="703" y="1625">section</text>
<polygon style="fill:none;stroke:black;" points="646,1629 646,1615 760,1615 760,1629 646,1629"/>
<text text-anchor="middle" style="font-size:8.00;" x="652" y="1640">id</text>
<text text-anchor="middle" style="font-size:8.00;" x="683" y="1640">serial</text>
<text text-anchor="middle" style="font-size:8.00;" x="728" y="1640"> PRIMARY KEY </text>
<text text-anchor="middle" style="font-size:8.00;" x="658" y="1654">name</text>
<text text-anchor="middle" style="font-size:8.00;" x="681" y="1654">text</text>
<text text-anchor="middle" style="font-size:8.00;" x="716" y="1654"> UNIQUE </text>
<polygon style="fill:none;stroke:black;" points="643,1660 643,1612 763,1612 763,1660 643,1660"/>
</g>
<g id="edge8" class="edge"><title>binarypackagerelease&#45;&gt;section</title>
<path style="fill:none;stroke:black;" d="M612,1560C630,1575 647,1589 661,1601"/>
<polygon style="fill:black;stroke:black;" points="664,1599 669,1608 659,1604 664,1599"/>
</g>
<g id="node17" class="node"><title>fake_binarypackagename_7</title>
<ellipse cx="50" cy="1521" rx="44" ry="18" style="fill:none;stroke:red;"/>
<text text-anchor="middle" style="font-size:8.00;" x="50" y="1524">binarypackagename</text>
</g>
<g id="edge2" class="edge"><title>binarypackagerelease&#45;&gt;fake_binarypackagename_7</title>
<path style="fill:none;stroke:black;" d="M286,1464C218,1480 145,1498 98,1510"/>
<polygon style="fill:black;stroke:black;" points="98,1513 88,1512 97,1507 98,1513"/>
</g>
<g id="node3" class="node"><title>builder</title>
<polygon style="fill:#c1cdcc;stroke:#c1cdcc;" points="400,775 400,587 574,587 574,775 400,775"/>
<polygon style="fill:white;stroke:white;" points="403,604 403,590 571,590 571,604 403,604"/>
<text text-anchor="middle" style="font-size:8.00;" x="487" y="600">builder</text>
<polygon style="fill:none;stroke:black;" points="403,604 403,590 571,590 571,604 403,604"/>
<text text-anchor="middle" style="font-size:8.00;" x="409" y="615">id</text>
<text text-anchor="middle" style="font-size:8.00;" x="457" y="615">serial</text>
<text text-anchor="middle" style="font-size:8.00;" x="511" y="615"> PRIMARY KEY </text>
<text text-anchor="middle" style="font-size:8.00;" x="422" y="629">processor</text>
<text text-anchor="middle" style="font-size:8.00;" x="460" y="629">integer</text>
<text text-anchor="middle" style="font-size:8.00;" x="525" y="629"> REFERENCES processor </text>
<text text-anchor="middle" style="font-size:8.00;" x="415" y="643">name</text>
<text text-anchor="middle" style="font-size:8.00;" x="455" y="643">text</text>
<text text-anchor="middle" style="font-size:8.00;" x="412" y="657">title</text>
<text text-anchor="middle" style="font-size:8.00;" x="455" y="657">text</text>
<text text-anchor="middle" style="font-size:8.00;" x="423" y="671">description</text>
<text text-anchor="middle" style="font-size:8.00;" x="455" y="671">text</text>
<text text-anchor="middle" style="font-size:8.00;" x="416" y="685">owner</text>
<text text-anchor="middle" style="font-size:8.00;" x="460" y="685">integer</text>
<text text-anchor="middle" style="font-size:8.00;" x="521" y="685"> REFERENCES person </text>
<text text-anchor="middle" style="font-size:8.00;" x="424" y="699">speedindex</text>
<text text-anchor="middle" style="font-size:8.00;" x="460" y="699">integer</text>
<text text-anchor="middle" style="font-size:8.00;" x="422" y="713">builderok</text>
<text text-anchor="middle" style="font-size:8.00;" x="462" y="713">boolean</text>
<text text-anchor="middle" style="font-size:8.00;" x="420" y="727">failnotes</text>
<text text-anchor="middle" style="font-size:8.00;" x="455" y="727">text</text>
<text text-anchor="middle" style="font-size:8.00;" x="417" y="741">trusted</text>
<text text-anchor="middle" style="font-size:8.00;" x="462" y="741">boolean</text>
<text text-anchor="middle" style="font-size:8.00;" x="411" y="755">url</text>
<text text-anchor="middle" style="font-size:8.00;" x="455" y="755">text</text>
<text text-anchor="middle" style="font-size:8.00;" x="499" y="755"> UNIQUE </text>
<text text-anchor="middle" style="font-size:8.00;" x="418" y="769">manual</text>
<text text-anchor="middle" style="font-size:8.00;" x="462" y="769">boolean</text>
<polygon style="fill:none;stroke:black;" points="400,775 400,587 574,587 574,775 400,775"/>
</g>
<g id="edge16" class="edge"><title>build&#45;&gt;builder</title>
<path style="fill:none;stroke:black;" d="M699,869C664,837 625,803 590,772"/>
<polygon style="fill:black;stroke:black;" points="587,774 582,765 592,769 587,774"/>
</g>
<g id="node6" class="node"><title>distroarchrelease</title>
<polygon style="fill:#c1cdcc;stroke:#c1cdcc;" points="539,474 539,356 805,356 805,474 539,474"/>
<polygon style="fill:white;stroke:white;" points="542,373 542,359 802,359 802,373 542,373"/>
<text text-anchor="middle" style="font-size:8.00;" x="672" y="369">distroarchrelease</text>
<polygon style="fill:none;stroke:black;" points="542,373 542,359 802,359 802,373 542,373"/>
<text text-anchor="middle" style="font-size:8.00;" x="548" y="384">id</text>
<text text-anchor="middle" style="font-size:8.00;" x="613" y="384">serial</text>
<text text-anchor="middle" style="font-size:8.00;" x="667" y="384"> PRIMARY KEY </text>
<text text-anchor="middle" style="font-size:8.00;" x="565" y="398">distrorelease</text>
<text text-anchor="middle" style="font-size:8.00;" x="616" y="398">integer</text>
<text text-anchor="middle" style="font-size:8.00;" x="719" y="398"> REFERENCES distrorelease UNIQUE UNIQUE </text>
<text text-anchor="middle" style="font-size:8.00;" x="571" y="412">processorfamily</text>
<text text-anchor="middle" style="font-size:8.00;" x="616" y="412">integer</text>
<text text-anchor="middle" style="font-size:8.00;" x="708" y="412"> REFERENCES processorfamily UNIQUE </text>
<text text-anchor="middle" style="font-size:8.00;" x="568" y="426">architecturetag</text>
<text text-anchor="middle" style="font-size:8.00;" x="611" y="426">text</text>
<text text-anchor="middle" style="font-size:8.00;" x="655" y="426"> UNIQUE </text>
<text text-anchor="middle" style="font-size:8.00;" x="555" y="440">owner</text>
<text text-anchor="middle" style="font-size:8.00;" x="616" y="440">integer</text>
<text text-anchor="middle" style="font-size:8.00;" x="677" y="440"> REFERENCES person </text>
<text text-anchor="middle" style="font-size:8.00;" x="556" y="454">official</text>
<text text-anchor="middle" style="font-size:8.00;" x="618" y="454">boolean</text>
<text text-anchor="middle" style="font-size:8.00;" x="569" y="468">package_count</text>
<text text-anchor="middle" style="font-size:8.00;" x="616" y="468">integer</text>
<polygon style="fill:none;stroke:black;" points="539,474 539,356 805,356 805,474 539,474"/>
</g>
<g id="edge12" class="edge"><title>build&#45;&gt;distroarchrelease</title>
<path style="fill:none;stroke:black;" d="M779,869C759,802 732,710 713,628 702,582 692,530 684,488"/>
<polygon style="fill:black;stroke:black;" points="681,488 682,478 687,487 681,488"/>
</g>
<g id="node13" class="node"><title>processor</title>
<polygon style="fill:#c1cdcc;stroke:#c1cdcc;" points="726,622 726,532 918,532 918,622 726,622"/>
<polygon style="fill:white;stroke:white;" points="729,549 729,535 915,535 915,549 729,549"/>
<text text-anchor="middle" style="font-size:8.00;" x="822" y="545">processor</text>
<polygon style="fill:none;stroke:black;" points="729,549 729,535 915,535 915,549 729,549"/>
<text text-anchor="middle" style="font-size:8.00;" x="735" y="560">id</text>
<text text-anchor="middle" style="font-size:8.00;" x="783" y="560">serial</text>
<text text-anchor="middle" style="font-size:8.00;" x="834" y="560"> PRIMARY KEY </text>
<text text-anchor="middle" style="font-size:8.00;" x="743" y="574">family</text>
<text text-anchor="middle" style="font-size:8.00;" x="786" y="574">integer</text>
<text text-anchor="middle" style="font-size:8.00;" x="859" y="574"> REFERENCES processorfamily </text>
<text text-anchor="middle" style="font-size:8.00;" x="741" y="588">name</text>
<text text-anchor="middle" style="font-size:8.00;" x="781" y="588">text</text>
<text text-anchor="middle" style="font-size:8.00;" x="822" y="588"> UNIQUE </text>
<text text-anchor="middle" style="font-size:8.00;" x="738" y="602">title</text>
<text text-anchor="middle" style="font-size:8.00;" x="781" y="602">text</text>
<text text-anchor="middle" style="font-size:8.00;" x="749" y="616">description</text>
<text text-anchor="middle" style="font-size:8.00;" x="781" y="616">text</text>
<polygon style="fill:none;stroke:black;" points="726,622 726,532 918,532 918,622 726,622"/>
</g>
<g id="edge10" class="edge"><title>build&#45;&gt;processor</title>
<path style="fill:none;stroke:black;" d="M813,869C816,795 819,698 821,636"/>
<polygon style="fill:black;stroke:black;" points="818,636 821,626 825,636 818,636"/>
</g>
<g id="node16" class="node"><title>sourcepackagerelease</title>
<polygon style="fill:#c1cdcc;stroke:#c1cdcc;" points="920,1682 920,1410 1166,1410 1166,1682 920,1682"/>
<polygon style="fill:white;stroke:white;" points="923,1427 923,1413 1163,1413 1163,1427 923,1427"/>
<text text-anchor="middle" style="font-size:8.00;" x="1043" y="1423">sourcepackagerelease</text>
<polygon style="fill:none;stroke:black;" points="923,1427 923,1413 1163,1413 1163,1427 923,1427"/>
<text text-anchor="middle" style="font-size:8.00;" x="929" y="1438">id</text>
<text text-anchor="middle" style="font-size:8.00;" x="1006" y="1438">serial</text>
<text text-anchor="middle" style="font-size:8.00;" x="1068" y="1438"> PRIMARY KEY </text>
<text text-anchor="middle" style="font-size:8.00;" x="937" y="1452">creator</text>
<text text-anchor="middle" style="font-size:8.00;" x="1009" y="1452">integer</text>
<text text-anchor="middle" style="font-size:8.00;" x="1078" y="1452"> REFERENCES person </text>
<text text-anchor="middle" style="font-size:8.00;" x="938" y="1466">version</text>
<text text-anchor="middle" style="font-size:8.00;" x="1004" y="1466">text</text>
<text text-anchor="middle" style="font-size:8.00;" x="947" y="1480">dateuploaded</text>
<text text-anchor="middle" style="font-size:8.00;" x="1015" y="1480">timestamp</text>
<text text-anchor="middle" style="font-size:8.00;" x="939" y="1494">urgency</text>
<text text-anchor="middle" style="font-size:8.00;" x="1009" y="1494">integer</text>
<text text-anchor="middle" style="font-size:8.00;" x="949" y="1508">dscsigningkey</text>
<text text-anchor="middle" style="font-size:8.00;" x="1009" y="1508">integer</text>
<text text-anchor="middle" style="font-size:8.00;" x="1079" y="1508"> REFERENCES gpgkey </text>
<text text-anchor="middle" style="font-size:8.00;" x="944" y="1522">component</text>
<text text-anchor="middle" style="font-size:8.00;" x="1009" y="1522">integer</text>
<text text-anchor="middle" style="font-size:8.00;" x="1085" y="1522"> REFERENCES component </text>
<text text-anchor="middle" style="font-size:8.00;" x="942" y="1536">changelog</text>
<text text-anchor="middle" style="font-size:8.00;" x="1004" y="1536">text</text>
<text text-anchor="middle" style="font-size:8.00;" x="948" y="1550">builddepends</text>
<text text-anchor="middle" style="font-size:8.00;" x="1004" y="1550">text</text>
<text text-anchor="middle" style="font-size:8.00;" x="957" y="1564">builddependsindep</text>
<text text-anchor="middle" style="font-size:8.00;" x="1004" y="1564">text</text>
<text text-anchor="middle" style="font-size:8.00;" x="956" y="1578">architecturehintlist</text>
<text text-anchor="middle" style="font-size:8.00;" x="1004" y="1578">text</text>
<text text-anchor="middle" style="font-size:8.00;" x="931" y="1592">dsc</text>
<text text-anchor="middle" style="font-size:8.00;" x="1004" y="1592">text</text>
<text text-anchor="middle" style="font-size:8.00;" x="937" y="1606">section</text>
<text text-anchor="middle" style="font-size:8.00;" x="1009" y="1606">integer</text>
<text text-anchor="middle" style="font-size:8.00;" x="1078" y="1606"> REFERENCES section </text>
<text text-anchor="middle" style="font-size:8.00;" x="940" y="1620">manifest</text>
<text text-anchor="middle" style="font-size:8.00;" x="1009" y="1620">integer</text>
<text text-anchor="middle" style="font-size:8.00;" x="1097" y="1620"> REFERENCES manifest UNIQUE </text>
<text text-anchor="middle" style="font-size:8.00;" x="943" y="1634">maintainer</text>
<text text-anchor="middle" style="font-size:8.00;" x="1009" y="1634">integer</text>
<text text-anchor="middle" style="font-size:8.00;" x="1078" y="1634"> REFERENCES person </text>
<text text-anchor="middle" style="font-size:8.00;" x="958" y="1648">sourcepackagename</text>
<text text-anchor="middle" style="font-size:8.00;" x="1009" y="1648">integer</text>
<text text-anchor="middle" style="font-size:8.00;" x="1100" y="1648"> REFERENCES sourcepackagename </text>
<text text-anchor="middle" style="font-size:8.00;" x="957" y="1662">uploaddistrorelease</text>
<text text-anchor="middle" style="font-size:8.00;" x="1009" y="1662">integer</text>
<text text-anchor="middle" style="font-size:8.00;" x="1087" y="1662"> REFERENCES distrorelease </text>
<text text-anchor="middle" style="font-size:8.00;" x="937" y="1676">format</text>
<text text-anchor="middle" style="font-size:8.00;" x="1009" y="1676">integer</text>
<polygon style="fill:none;stroke:black;" points="920,1682 920,1410 1166,1410 1166,1682 920,1682"/>
</g>
<g id="edge18" class="edge"><title>build&#45;&gt;sourcepackagerelease</title>
<path style="fill:none;stroke:black;" d="M850,1065C886,1155 941,1292 983,1397"/>
<polygon style="fill:black;stroke:black;" points="986,1395 987,1406 980,1398 986,1395"/>
</g>
<g id="node24" class="node"><title>fake_libraryfilealias_81</title>
<ellipse cx="550" cy="1057" rx="35" ry="18" style="fill:none;stroke:red;"/>
<text text-anchor="middle" style="font-size:8.00;" x="550" y="1060">libraryfilealias</text>
</g>
<g id="edge14" class="edge"><title>build&#45;&gt;fake_libraryfilealias_81</title>
<path style="fill:none;stroke:black;" d="M674,1014C643,1025 612,1036 588,1044"/>
<polygon style="fill:black;stroke:black;" points="590,1047 579,1047 587,1041 590,1047"/>
</g>
<g id="edge20" class="edge"><title>builder&#45;&gt;processor</title>
<path style="fill:none;stroke:black;" d="M582,651C621,639 667,625 708,612"/>
<polygon style="fill:black;stroke:black;" points="707,609 718,609 709,615 707,609"/>
</g>
<g id="node29" class="node"><title>fake_person_86</title>
<ellipse cx="236" cy="594" rx="27" ry="18" style="fill:none;stroke:red;"/>
<text text-anchor="middle" style="font-size:8.00;" x="236" y="597">person</text>
</g>
<g id="edge22" class="edge"><title>builder&#45;&gt;fake_person_86</title>
<path style="fill:none;stroke:black;" d="M392,648C349,633 301,617 270,605"/>
<polygon style="fill:black;stroke:black;" points="269,608 260,602 271,602 269,608"/>
</g>
<g id="node4" class="node"><title>buildqueue</title>
<polygon style="fill:#c1cdcc;stroke:#c1cdcc;" points="352,940 352,808 522,808 522,940 352,940"/>
<polygon style="fill:white;stroke:white;" points="355,825 355,811 519,811 519,825 355,825"/>
<text text-anchor="middle" style="font-size:8.00;" x="437" y="821">buildqueue</text>
<polygon style="fill:none;stroke:black;" points="355,825 355,811 519,811 519,825 355,825"/>
<text text-anchor="middle" style="font-size:8.00;" x="361" y="836">id</text>
<text text-anchor="middle" style="font-size:8.00;" x="405" y="836">serial</text>
<text text-anchor="middle" style="font-size:8.00;" x="467" y="836"> PRIMARY KEY </text>
<text text-anchor="middle" style="font-size:8.00;" x="366" y="850">build</text>
<text text-anchor="middle" style="font-size:8.00;" x="408" y="850">integer</text>
<text text-anchor="middle" style="font-size:8.00;" x="474" y="850"> REFERENCES build </text>
<text text-anchor="middle" style="font-size:8.00;" x="369" y="864">builder</text>
<text text-anchor="middle" style="font-size:8.00;" x="408" y="864">integer</text>
<text text-anchor="middle" style="font-size:8.00;" x="477" y="864"> REFERENCES builder </text>
<text text-anchor="middle" style="font-size:8.00;" x="368" y="878">logtail</text>
<text text-anchor="middle" style="font-size:8.00;" x="403" y="878">text</text>
<text text-anchor="middle" style="font-size:8.00;" x="369" y="892">created</text>
<text text-anchor="middle" style="font-size:8.00;" x="414" y="892">timestamp</text>
<text text-anchor="middle" style="font-size:8.00;" x="373" y="906">buildstart</text>
<text text-anchor="middle" style="font-size:8.00;" x="414" y="906">timestamp</text>
<text text-anchor="middle" style="font-size:8.00;" x="372" y="920">lastscore</text>
<text text-anchor="middle" style="font-size:8.00;" x="408" y="920">integer</text>
<text text-anchor="middle" style="font-size:8.00;" x="370" y="934">manual</text>
<text text-anchor="middle" style="font-size:8.00;" x="410" y="934">boolean</text>
<polygon style="fill:none;stroke:black;" points="352,940 352,808 522,808 522,940 352,940"/>
</g>
<g id="edge24" class="edge"><title>buildqueue&#45;&gt;build</title>
<path style="fill:none;stroke:black;" d="M530,897C571,907 619,919 664,931"/>
<polygon style="fill:black;stroke:black;" points="665,928 674,933 664,934 665,928"/>
</g>
<g id="edge26" class="edge"><title>buildqueue&#45;&gt;builder</title>
<path style="fill:none;stroke:black;" d="M455,804C456,799 458,794 459,789"/>
<polygon style="fill:black;stroke:black;" points="456,788 461,779 462,789 456,788"/>
</g>
<g id="node14" class="node"><title>processorfamily</title>
<polygon style="fill:#c1cdcc;stroke:#c1cdcc;" points="887,362 887,286 1023,286 1023,362 887,362"/>
<polygon style="fill:white;stroke:white;" points="890,303 890,289 1020,289 1020,303 890,303"/>
<text text-anchor="middle" style="font-size:8.00;" x="955" y="299">processorfamily</text>
<polygon style="fill:none;stroke:black;" points="890,303 890,289 1020,289 1020,303 890,303"/>
<text text-anchor="middle" style="font-size:8.00;" x="896" y="314">id</text>
<text text-anchor="middle" style="font-size:8.00;" x="943" y="314">serial</text>
<text text-anchor="middle" style="font-size:8.00;" x="988" y="314"> PRIMARY KEY </text>
<text text-anchor="middle" style="font-size:8.00;" x="902" y="328">name</text>
<text text-anchor="middle" style="font-size:8.00;" x="941" y="328">text</text>
<text text-anchor="middle" style="font-size:8.00;" x="976" y="328"> UNIQUE </text>
<text text-anchor="middle" style="font-size:8.00;" x="899" y="342">title</text>
<text text-anchor="middle" style="font-size:8.00;" x="941" y="342">text</text>
<text text-anchor="middle" style="font-size:8.00;" x="910" y="356">description</text>
<text text-anchor="middle" style="font-size:8.00;" x="941" y="356">text</text>
<polygon style="fill:none;stroke:black;" points="887,362 887,286 1023,286 1023,362 887,362"/>
</g>
<g id="edge30" class="edge"><title>distroarchrelease&#45;&gt;processorfamily</title>
<path style="fill:none;stroke:black;" d="M813,370C832,364 851,357 869,352"/>
<polygon style="fill:black;stroke:black;" points="868,349 879,349 870,355 868,349"/>
</g>
<g id="node33" class="node"><title>fake_distrorelease_113</title>
<ellipse cx="740" cy="127" rx="32" ry="18" style="fill:none;stroke:red;"/>
<text text-anchor="middle" style="font-size:8.00;" x="740" y="130">distrorelease</text>
</g>
<g id="edge28" class="edge"><title>distroarchrelease&#45;&gt;fake_distrorelease_113</title>
<path style="fill:none;stroke:black;" d="M751,352C756,345 761,338 764,330 790,271 767,194 752,154"/>
<polygon style="fill:black;stroke:black;" points="748,155 748,144 755,152 748,155"/>
</g>
<g id="node36" class="node"><title>fake_person_116</title>
<ellipse cx="439" cy="241" rx="27" ry="18" style="fill:none;stroke:red;"/>
<text text-anchor="middle" style="font-size:8.00;" x="439" y="244">person</text>
</g>
<g id="edge32" class="edge"><title>distroarchrelease&#45;&gt;fake_person_116</title>
<path style="fill:none;stroke:black;" d="M531,361C515,352 501,342 488,330 470,313 457,287 449,269"/>
<polygon style="fill:black;stroke:black;" points="445,270 445,259 452,267 445,270"/>
</g>
<g id="node7" class="node"><title>distrocomponentuploader</title>
<polygon style="fill:#c1cdcc;stroke:#c1cdcc;" points="405,2155 405,2079 617,2079 617,2155 405,2155"/>
<polygon style="fill:white;stroke:white;" points="408,2096 408,2082 614,2082 614,2096 408,2096"/>
<text text-anchor="middle" style="font-size:8.00;" x="511" y="2092">distrocomponentuploader</text>
<polygon style="fill:none;stroke:black;" points="408,2096 408,2082 614,2082 614,2096 408,2096"/>
<text text-anchor="middle" style="font-size:8.00;" x="414" y="2107">id</text>
<text text-anchor="middle" style="font-size:8.00;" x="464" y="2107">serial</text>
<text text-anchor="middle" style="font-size:8.00;" x="515" y="2107"> PRIMARY KEY </text>
<text text-anchor="middle" style="font-size:8.00;" x="429" y="2121">distribution</text>
<text text-anchor="middle" style="font-size:8.00;" x="467" y="2121">integer</text>
<text text-anchor="middle" style="font-size:8.00;" x="549" y="2121"> REFERENCES distribution UNIQUE </text>
<text text-anchor="middle" style="font-size:8.00;" x="429" y="2135">component</text>
<text text-anchor="middle" style="font-size:8.00;" x="467" y="2135">integer</text>
<text text-anchor="middle" style="font-size:8.00;" x="548" y="2135"> REFERENCES component UNIQUE </text>
<text text-anchor="middle" style="font-size:8.00;" x="425" y="2149">uploader</text>
<text text-anchor="middle" style="font-size:8.00;" x="467" y="2149">integer</text>
<text text-anchor="middle" style="font-size:8.00;" x="525" y="2149"> REFERENCES person </text>
<polygon style="fill:none;stroke:black;" points="405,2155 405,2079 617,2079 617,2155 405,2155"/>
</g>
<g id="edge36" class="edge"><title>distrocomponentuploader&#45;&gt;component</title>
<path style="fill:none;stroke:black;" d="M533,2075C563,2015 620,1908 649,1851"/>
<polygon style="fill:black;stroke:black;" points="646,1849 654,1842 652,1852 646,1849"/>
</g>
<g id="node38" class="node"><title>fake_distribution_118</title>
<ellipse cx="493" cy="2362" rx="30" ry="18" style="fill:none;stroke:red;"/>
<text text-anchor="middle" style="font-size:8.00;" x="493" y="2365">distribution</text>
</g>
<g id="edge34" class="edge"><title>distrocomponentuploader&#45;&gt;fake_distribution_118</title>
<path style="fill:none;stroke:black;" d="M508,2159C504,2209 498,2291 495,2334"/>
<polygon style="fill:black;stroke:black;" points="498,2334 494,2344 492,2334 498,2334"/>
</g>
<g id="node41" class="node"><title>fake_person_121</title>
<ellipse cx="327" cy="2270" rx="27" ry="18" style="fill:none;stroke:red;"/>
<text text-anchor="middle" style="font-size:8.00;" x="327" y="2273">person</text>
</g>
<g id="edge38" class="edge"><title>distrocomponentuploader&#45;&gt;fake_person_121</title>
<path style="fill:none;stroke:black;" d="M460,2159C425,2189 380,2227 352,2250"/>
<polygon style="fill:black;stroke:black;" points="354,2253 344,2256 350,2247 354,2253"/>
</g>
<g id="node8" class="node"><title>distroreleasequeue</title>
<polygon style="fill:#c1cdcc;stroke:#c1cdcc;" points="1582,992 1582,902 1774,902 1774,992 1582,992"/>
<polygon style="fill:white;stroke:white;" points="1585,919 1585,905 1771,905 1771,919 1585,919"/>
<text text-anchor="middle" style="font-size:8.00;" x="1678" y="915">distroreleasequeue</text>
<polygon style="fill:none;stroke:black;" points="1585,919 1585,905 1771,905 1771,919 1585,919"/>
<text text-anchor="middle" style="font-size:8.00;" x="1591" y="930">id</text>
<text text-anchor="middle" style="font-size:8.00;" x="1644" y="930">serial</text>
<text text-anchor="middle" style="font-size:8.00;" x="1695" y="930"> PRIMARY KEY </text>
<text text-anchor="middle" style="font-size:8.00;" x="1597" y="944">status</text>
<text text-anchor="middle" style="font-size:8.00;" x="1647" y="944">integer</text>
<text text-anchor="middle" style="font-size:8.00;" x="1608" y="958">distrorelease</text>
<text text-anchor="middle" style="font-size:8.00;" x="1647" y="958">integer</text>
<text text-anchor="middle" style="font-size:8.00;" x="1714" y="958"> REFERENCES distrorelease </text>
<text text-anchor="middle" style="font-size:8.00;" x="1599" y="972">pocket</text>
<text text-anchor="middle" style="font-size:8.00;" x="1647" y="972">integer</text>
<text text-anchor="middle" style="font-size:8.00;" x="1606" y="986">changesfile</text>
<text text-anchor="middle" style="font-size:8.00;" x="1647" y="986">integer</text>
<text text-anchor="middle" style="font-size:8.00;" x="1717" y="986"> REFERENCES libraryfilealias </text>
<polygon style="fill:none;stroke:black;" points="1582,992 1582,902 1774,902 1774,992 1582,992"/>
</g>
<g id="node43" class="node"><title>fake_distrorelease_131</title>
<ellipse cx="1912" cy="1023" rx="32" ry="18" style="fill:none;stroke:red;"/>
<text text-anchor="middle" style="font-size:8.00;" x="1912" y="1026">distrorelease</text>
</g>
<g id="edge40" class="edge"><title>distroreleasequeue&#45;&gt;fake_distrorelease_131</title>
<path style="fill:none;stroke:black;" d="M1782,981C1815,992 1850,1003 1874,1011"/>
<polygon style="fill:black;stroke:black;" points="1875,1008 1884,1014 1873,1014 1875,1008"/>
</g>
<g id="node45" class="node"><title>fake_libraryfilealias_133</title>
<ellipse cx="1833" cy="756" rx="35" ry="18" style="fill:none;stroke:red;"/>
<text text-anchor="middle" style="font-size:8.00;" x="1833" y="759">libraryfilealias</text>
</g>
<g id="edge42" class="edge"><title>distroreleasequeue&#45;&gt;fake_libraryfilealias_133</title>
<path style="fill:none;stroke:black;" d="M1718,898C1748,861 1789,810 1813,781"/>
<polygon style="fill:black;stroke:black;" points="1810,779 1819,773 1816,783 1810,779"/>
</g>
<g id="node9" class="node"><title>distroreleasequeuebuild</title>
<polygon style="fill:#c1cdcc;stroke:#c1cdcc;" points="1178,949 1178,887 1402,887 1402,949 1178,949"/>
<polygon style="fill:white;stroke:white;" points="1181,904 1181,890 1399,890 1399,904 1181,904"/>
<text text-anchor="middle" style="font-size:8.00;" x="1290" y="900">distroreleasequeuebuild</text>
<polygon style="fill:none;stroke:black;" points="1181,904 1181,890 1399,890 1399,904 1181,904"/>
<text text-anchor="middle" style="font-size:8.00;" x="1187" y="915">id</text>
<text text-anchor="middle" style="font-size:8.00;" x="1259" y="915">serial</text>
<text text-anchor="middle" style="font-size:8.00;" x="1310" y="915"> PRIMARY KEY </text>
<text text-anchor="middle" style="font-size:8.00;" x="1214" y="929">distroreleasequeue</text>
<text text-anchor="middle" style="font-size:8.00;" x="1262" y="929">integer</text>
<text text-anchor="middle" style="font-size:8.00;" x="1339" y="929"> REFERENCES distroreleasequeue </text>
<text text-anchor="middle" style="font-size:8.00;" x="1192" y="943">build</text>
<text text-anchor="middle" style="font-size:8.00;" x="1262" y="943">integer</text>
<text text-anchor="middle" style="font-size:8.00;" x="1317" y="943"> REFERENCES build </text>
<polygon style="fill:none;stroke:black;" points="1178,949 1178,887 1402,887 1402,949 1178,949"/>
</g>
<g id="edge46" class="edge"><title>distroreleasequeuebuild&#45;&gt;build</title>
<path style="fill:none;stroke:black;" d="M1170,930C1105,937 1025,945 956,952"/>
<polygon style="fill:black;stroke:black;" points="956,955 946,953 956,949 956,955"/>
</g>
<g id="edge44" class="edge"><title>distroreleasequeuebuild&#45;&gt;distroreleasequeue</title>
<path style="fill:none;stroke:black;" d="M1410,927C1459,931 1515,934 1564,938"/>
<polygon style="fill:black;stroke:black;" points="1564,935 1574,939 1564,941 1564,935"/>
</g>
<g id="node10" class="node"><title>distroreleasequeuecustom</title>
<polygon style="fill:#c1cdcc;stroke:#c1cdcc;" points="1940,886 1940,810 2164,810 2164,886 1940,886"/>
<polygon style="fill:white;stroke:white;" points="1943,827 1943,813 2161,813 2161,827 1943,827"/>
<text text-anchor="middle" style="font-size:8.00;" x="2052" y="823">distroreleasequeuecustom</text>
<polygon style="fill:none;stroke:black;" points="1943,827 1943,813 2161,813 2161,827 1943,827"/>
<text text-anchor="middle" style="font-size:8.00;" x="1949" y="838">id</text>
<text text-anchor="middle" style="font-size:8.00;" x="2021" y="838">serial</text>
<text text-anchor="middle" style="font-size:8.00;" x="2072" y="838"> PRIMARY KEY </text>
<text text-anchor="middle" style="font-size:8.00;" x="1976" y="852">distroreleasequeue</text>
<text text-anchor="middle" style="font-size:8.00;" x="2024" y="852">integer</text>
<text text-anchor="middle" style="font-size:8.00;" x="2101" y="852"> REFERENCES distroreleasequeue </text>
<text text-anchor="middle" style="font-size:8.00;" x="1968" y="866">customformat</text>
<text text-anchor="middle" style="font-size:8.00;" x="2024" y="866">integer</text>
<text text-anchor="middle" style="font-size:8.00;" x="1969" y="880">libraryfilealias</text>
<text text-anchor="middle" style="font-size:8.00;" x="2024" y="880">integer</text>
<text text-anchor="middle" style="font-size:8.00;" x="2094" y="880"> REFERENCES libraryfilealias </text>
<polygon style="fill:none;stroke:black;" points="1940,886 1940,810 2164,810 2164,886 1940,886"/>
</g>
<g id="edge48" class="edge"><title>distroreleasequeuecustom&#45;&gt;distroreleasequeue</title>
<path style="fill:none;stroke:black;" d="M1932,880C1887,892 1836,905 1792,917"/>
<polygon style="fill:black;stroke:black;" points="1793,920 1782,920 1791,914 1793,920"/>
</g>
<g id="node50" class="node"><title>fake_libraryfilealias_138</title>
<ellipse cx="2286" cy="788" rx="35" ry="18" style="fill:none;stroke:red;"/>
<text text-anchor="middle" style="font-size:8.00;" x="2286" y="791">libraryfilealias</text>
</g>
<g id="edge50" class="edge"><title>distroreleasequeuecustom&#45;&gt;fake_libraryfilealias_138</title>
<path style="fill:none;stroke:black;" d="M2172,817C2198,810 2224,803 2244,798"/>
<polygon style="fill:black;stroke:black;" points="2244,795 2254,796 2245,801 2244,795"/>
</g>
<g id="node11" class="node"><title>distroreleasequeuesource</title>
<polygon style="fill:#c1cdcc;stroke:#c1cdcc;" points="1311,1274 1311,1212 1555,1212 1555,1274 1311,1274"/>
<polygon style="fill:white;stroke:white;" points="1314,1229 1314,1215 1552,1215 1552,1229 1314,1229"/>
<text text-anchor="middle" style="font-size:8.00;" x="1433" y="1225">distroreleasequeuesource</text>
<polygon style="fill:none;stroke:black;" points="1314,1229 1314,1215 1552,1215 1552,1229 1314,1229"/>
<text text-anchor="middle" style="font-size:8.00;" x="1320" y="1240">id</text>
<text text-anchor="middle" style="font-size:8.00;" x="1402" y="1240">serial</text>
<text text-anchor="middle" style="font-size:8.00;" x="1453" y="1240"> PRIMARY KEY </text>
<text text-anchor="middle" style="font-size:8.00;" x="1347" y="1254">distroreleasequeue</text>
<text text-anchor="middle" style="font-size:8.00;" x="1405" y="1254">integer</text>
<text text-anchor="middle" style="font-size:8.00;" x="1482" y="1254"> REFERENCES distroreleasequeue </text>
<text text-anchor="middle" style="font-size:8.00;" x="1352" y="1268">sourcepackagerelease</text>
<text text-anchor="middle" style="font-size:8.00;" x="1405" y="1268">integer</text>
<text text-anchor="middle" style="font-size:8.00;" x="1487" y="1268"> REFERENCES sourcepackagerelease </text>
<polygon style="fill:none;stroke:black;" points="1311,1274 1311,1212 1555,1212 1555,1274 1311,1274"/>
</g>
<g id="edge52" class="edge"><title>distroreleasequeuesource&#45;&gt;distroreleasequeue</title>
<path style="fill:none;stroke:black;" d="M1462,1208C1504,1157 1581,1064 1631,1004"/>
<polygon style="fill:black;stroke:black;" points="1628,1002 1637,996 1634,1006 1628,1002"/>
</g>
<g id="edge54" class="edge"><title>distroreleasequeuesource&#45;&gt;sourcepackagerelease</title>
<path style="fill:none;stroke:black;" d="M1388,1278C1338,1317 1254,1382 1182,1438"/>
<polygon style="fill:black;stroke:black;" points="1184,1441 1174,1444 1180,1435 1184,1441"/>
</g>
<g id="node12" class="node"><title>pocketchroot</title>
<polygon style="fill:#c1cdcc;stroke:#c1cdcc;" points="503,324 503,248 749,248 749,324 503,324"/>
<polygon style="fill:white;stroke:white;" points="506,265 506,251 746,251 746,265 506,265"/>
<text text-anchor="middle" style="font-size:8.00;" x="626" y="261">pocketchroot</text>
<polygon style="fill:none;stroke:black;" points="506,265 506,251 746,251 746,265 506,265"/>
<text text-anchor="middle" style="font-size:8.00;" x="512" y="276">id</text>
<text text-anchor="middle" style="font-size:8.00;" x="579" y="276">serial</text>
<text text-anchor="middle" style="font-size:8.00;" x="630" y="276"> PRIMARY KEY </text>
<text text-anchor="middle" style="font-size:8.00;" x="536" y="290">distroarchrelease</text>
<text text-anchor="middle" style="font-size:8.00;" x="582" y="290">integer</text>
<text text-anchor="middle" style="font-size:8.00;" x="672" y="290"> REFERENCES distroarchrelease UNIQUE </text>
<text text-anchor="middle" style="font-size:8.00;" x="520" y="304">pocket</text>
<text text-anchor="middle" style="font-size:8.00;" x="582" y="304">integer</text>
<text text-anchor="middle" style="font-size:8.00;" x="618" y="304"> UNIQUE </text>
<text text-anchor="middle" style="font-size:8.00;" x="519" y="318">chroot</text>
<text text-anchor="middle" style="font-size:8.00;" x="582" y="318">integer</text>
<text text-anchor="middle" style="font-size:8.00;" x="668" y="318"> REFERENCES libraryfilealias UNIQUE </text>
<polygon style="fill:none;stroke:black;" points="503,324 503,248 749,248 749,324 503,324"/>
</g>
<g id="edge56" class="edge"><title>pocketchroot&#45;&gt;distroarchrelease</title>
<path style="fill:none;stroke:black;" d="M641,328C643,333 644,337 646,342"/>
<polygon style="fill:black;stroke:black;" points="649,341 649,352 643,343 649,341"/>
</g>
<g id="node55" class="node"><title>fake_libraryfilealias_216</title>
<ellipse cx="534" cy="23" rx="35" ry="18" style="fill:none;stroke:red;"/>
<text text-anchor="middle" style="font-size:8.00;" x="534" y="26">libraryfilealias</text>
</g>
<g id="edge58" class="edge"><title>pocketchroot&#45;&gt;fake_libraryfilealias_216</title>
<path style="fill:none;stroke:black;" d="M611,244C592,189 560,96 543,51"/>
<polygon style="fill:black;stroke:black;" points="540,52 540,41 546,50 540,52"/>
</g>
<g id="edge60" class="edge"><title>processor&#45;&gt;processorfamily</title>
<path style="fill:none;stroke:black;" d="M848,528C870,484 904,420 928,375"/>
<polygon style="fill:black;stroke:black;" points="925,373 933,366 931,376 925,373"/>
</g>
<g id="edge66" class="edge"><title>sourcepackagerelease&#45;&gt;component</title>
<path style="fill:none;stroke:black;" d="M912,1640C844,1688 765,1744 716,1780"/>
<polygon style="fill:black;stroke:black;" points="718,1783 708,1786 714,1777 718,1783"/>
</g>
<g id="edge68" class="edge"><title>sourcepackagerelease&#45;&gt;section</title>
<path style="fill:none;stroke:black;" d="M912,1581C868,1593 820,1605 781,1615"/>
<polygon style="fill:black;stroke:black;" points="782,1618 771,1618 780,1612 782,1618"/>
</g>
<g id="node58" class="node"><title>fake_person_322</title>
<ellipse cx="1349" cy="1659" rx="27" ry="18" style="fill:none;stroke:red;"/>
<text text-anchor="middle" style="font-size:8.00;" x="1349" y="1662">person</text>
</g>
<g id="edge62" class="edge"><title>sourcepackagerelease&#45;&gt;fake_person_322</title>
<path style="fill:none;stroke:black;" d="M1174,1594C1226,1613 1281,1634 1315,1647"/>
<polygon style="fill:black;stroke:black;" points="1316,1644 1325,1650 1314,1650 1316,1644"/>
</g>
<g id="node60" class="node"><title>fake_gpgkey_324</title>
<ellipse cx="1343" cy="1500" rx="27" ry="18" style="fill:none;stroke:red;"/>
<text text-anchor="middle" style="font-size:8.00;" x="1343" y="1503">gpgkey</text>
</g>
<g id="edge64" class="edge"><title>sourcepackagerelease&#45;&gt;fake_gpgkey_324</title>
<path style="fill:none;stroke:black;" d="M1174,1526C1223,1519 1273,1511 1307,1506"/>
<polygon style="fill:black;stroke:black;" points="1307,1503 1317,1504 1308,1509 1307,1503"/>
</g>
<g id="node64" class="node"><title>fake_manifest_328</title>
<ellipse cx="1281" cy="1776" rx="27" ry="18" style="fill:none;stroke:red;"/>
<text text-anchor="middle" style="font-size:8.00;" x="1281" y="1779">manifest</text>
</g>
<g id="edge70" class="edge"><title>sourcepackagerelease&#45;&gt;fake_manifest_328</title>
<path style="fill:none;stroke:black;" d="M1174,1673C1207,1704 1238,1734 1259,1754"/>
<polygon style="fill:black;stroke:black;" points="1261,1751 1266,1761 1256,1756 1261,1751"/>
</g>
<g id="node66" class="node"><title>fake_person_330</title>
<ellipse cx="909" cy="1838" rx="27" ry="18" style="fill:none;stroke:red;"/>
<text text-anchor="middle" style="font-size:8.00;" x="909" y="1841">person</text>
</g>
<g id="edge72" class="edge"><title>sourcepackagerelease&#45;&gt;fake_person_330</title>
<path style="fill:none;stroke:black;" d="M979,1686C957,1733 934,1782 921,1812"/>
<polygon style="fill:black;stroke:black;" points="924,1813 917,1821 918,1810 924,1813"/>
</g>
<g id="node68" class="node"><title>fake_sourcepackagename_332</title>
<ellipse cx="1192" cy="1877" rx="44" ry="18" style="fill:none;stroke:red;"/>
<text text-anchor="middle" style="font-size:8.00;" x="1192" y="1880">sourcepackagename</text>
</g>
<g id="edge74" class="edge"><title>sourcepackagerelease&#45;&gt;fake_sourcepackagename_332</title>
<path style="fill:none;stroke:black;" d="M1106,1686C1134,1748 1164,1814 1180,1850"/>
<polygon style="fill:black;stroke:black;" points="1183,1848 1184,1859 1177,1851 1183,1848"/>
</g>
<g id="node70" class="node"><title>fake_distrorelease_334</title>
<ellipse cx="1052" cy="1886" rx="32" ry="18" style="fill:none;stroke:red;"/>
<text text-anchor="middle" style="font-size:8.00;" x="1052" y="1889">distrorelease</text>
</g>
<g id="edge76" class="edge"><title>sourcepackagerelease&#45;&gt;fake_distrorelease_334</title>
<path style="fill:none;stroke:black;" d="M1047,1686C1049,1750 1051,1820 1052,1858"/>
<polygon style="fill:black;stroke:black;" points="1056,1858 1052,1868 1049,1858 1056,1858"/>
</g>
</g>
</svg>
