<?xml version="1.0" encoding="UTF-8" standalone="no"?>
<!DOCTYPE svg PUBLIC "-//W3C//DTD SVG 1.0//EN"
 "http://www.w3.org/TR/2001/REC-SVG-20010904/DTD/svg10.dtd">
<!-- Generated by fdp version 2.2 (Sat Feb  5 01:37:52 UTC 2005)
     For user: (stub) Stuart Bishop,,,   Title: g    Pages: 1 -->
<svg width="408px" height="535px"
 viewBox = "-1 -1 407 534"
 xmlns="http://www.w3.org/2000/svg">
<g id="graph0" class="graph" transform = "scale(0.535861)"
 style="font-family:Times-Roman;font-size:14.00;">
<title>g</title>
<text text-anchor="middle" style="font-size:22.00;" x="375" y="978">Build</text>
<g id="node1" class="node"><title>build</title>
<polygon style="fill:#c1cdcc;stroke:#c1cdcc;" points="244,799 244,637 442,637 442,799 244,799"/>
<polygon style="fill:white;stroke:white;" points="247,652 247,640 439,640 439,652 247,652"/>
<text text-anchor="middle" style="font-size:6.00;" x="343" y="648">build</text>
<polygon style="fill:none;stroke:black;" points="247,652 247,640 439,640 439,652 247,652"/>
<text text-anchor="middle" style="font-size:6.00;" x="252" y="661">id</text>
<text text-anchor="middle" style="font-size:6.00;" x="315" y="661">serial</text>
<text text-anchor="middle" style="font-size:6.00;" x="364" y="661"> PRIMARY KEY </text>
<text text-anchor="middle" style="font-size:6.00;" x="264" y="673">datecreated</text>
<text text-anchor="middle" style="font-size:6.00;" x="322" y="673">timestamp</text>
<text text-anchor="middle" style="font-size:6.00;" x="262" y="685">processor</text>
<text text-anchor="middle" style="font-size:6.00;" x="317" y="685">integer</text>
<text text-anchor="middle" style="font-size:6.00;" x="375" y="685"> REFERENCES processor </text>
<text text-anchor="middle" style="font-size:6.00;" x="270" y="697">distroarchrelease</text>
<text text-anchor="middle" style="font-size:6.00;" x="317" y="697">integer</text>
<text text-anchor="middle" style="font-size:6.00;" x="383" y="697"> REFERENCES distroarchrelease </text>
<text text-anchor="middle" style="font-size:6.00;" x="262" y="709">buildstate</text>
<text text-anchor="middle" style="font-size:6.00;" x="317" y="709">integer</text>
<text text-anchor="middle" style="font-size:6.00;" x="261" y="721">datebuilt</text>
<text text-anchor="middle" style="font-size:6.00;" x="322" y="721">timestamp</text>
<text text-anchor="middle" style="font-size:6.00;" x="267" y="733">buildduration</text>
<text text-anchor="middle" style="font-size:6.00;" x="318" y="733">interval</text>
<text text-anchor="middle" style="font-size:6.00;" x="260" y="745">buildlog</text>
<text text-anchor="middle" style="font-size:6.00;" x="317" y="745">integer</text>
<text text-anchor="middle" style="font-size:6.00;" x="381" y="745"> REFERENCES libraryfilealias </text>
<text text-anchor="middle" style="font-size:6.00;" x="259" y="757">builder</text>
<text text-anchor="middle" style="font-size:6.00;" x="317" y="757">integer</text>
<text text-anchor="middle" style="font-size:6.00;" x="372" y="757"> REFERENCES builder </text>
<text text-anchor="middle" style="font-size:6.00;" x="268" y="769">gpgsigningkey</text>
<text text-anchor="middle" style="font-size:6.00;" x="317" y="769">integer</text>
<text text-anchor="middle" style="font-size:6.00;" x="372" y="769"> REFERENCES gpgkey </text>
<text text-anchor="middle" style="font-size:6.00;" x="260" y="781">changes</text>
<text text-anchor="middle" style="font-size:6.00;" x="314" y="781">text</text>
<text text-anchor="middle" style="font-size:6.00;" x="276" y="793">sourcepackagerelease</text>
<text text-anchor="middle" style="font-size:6.00;" x="317" y="793">integer</text>
<text text-anchor="middle" style="font-size:6.00;" x="389" y="793"> REFERENCES sourcepackagerelease </text>
<polygon style="fill:none;stroke:black;" points="244,799 244,637 442,637 442,799 244,799"/>
</g>
<g id="node2" class="node"><title>builder</title>
<polygon style="fill:#c1cdcc;stroke:#c1cdcc;" points="210,593 210,455 350,455 350,593 210,593"/>
<polygon style="fill:white;stroke:white;" points="213,470 213,458 347,458 347,470 213,470"/>
<text text-anchor="middle" style="font-size:6.00;" x="280" y="466">builder</text>
<polygon style="fill:none;stroke:black;" points="213,470 213,458 347,458 347,470 213,470"/>
<text text-anchor="middle" style="font-size:6.00;" x="218" y="479">id</text>
<text text-anchor="middle" style="font-size:6.00;" x="258" y="479">serial</text>
<text text-anchor="middle" style="font-size:6.00;" x="301" y="479"> PRIMARY KEY </text>
<text text-anchor="middle" style="font-size:6.00;" x="228" y="491">processor</text>
<text text-anchor="middle" style="font-size:6.00;" x="260" y="491">integer</text>
<text text-anchor="middle" style="font-size:6.00;" x="312" y="491"> REFERENCES processor </text>
<text text-anchor="middle" style="font-size:6.00;" x="222" y="503">fqdn</text>
<text text-anchor="middle" style="font-size:6.00;" x="257" y="503">text</text>
<text text-anchor="middle" style="font-size:6.00;" x="292" y="503"> UNIQUE </text>
<text text-anchor="middle" style="font-size:6.00;" x="223" y="515">name</text>
<text text-anchor="middle" style="font-size:6.00;" x="257" y="515">text</text>
<text text-anchor="middle" style="font-size:6.00;" x="292" y="515"> UNIQUE </text>
<text text-anchor="middle" style="font-size:6.00;" x="221" y="527">title</text>
<text text-anchor="middle" style="font-size:6.00;" x="257" y="527">text</text>
<text text-anchor="middle" style="font-size:6.00;" x="230" y="539">description</text>
<text text-anchor="middle" style="font-size:6.00;" x="257" y="539">text</text>
<text text-anchor="middle" style="font-size:6.00;" x="224" y="551">owner</text>
<text text-anchor="middle" style="font-size:6.00;" x="260" y="551">integer</text>
<text text-anchor="middle" style="font-size:6.00;" x="308" y="551"> REFERENCES person </text>
<text text-anchor="middle" style="font-size:6.00;" x="229" y="563">speedindex</text>
<text text-anchor="middle" style="font-size:6.00;" x="260" y="563">integer</text>
<text text-anchor="middle" style="font-size:6.00;" x="228" y="575">builderok</text>
<text text-anchor="middle" style="font-size:6.00;" x="262" y="575">boolean</text>
<text text-anchor="middle" style="font-size:6.00;" x="227" y="587">failnotes</text>
<text text-anchor="middle" style="font-size:6.00;" x="257" y="587">text</text>
<polygon style="fill:none;stroke:black;" points="210,593 210,455 350,455 350,593 210,593"/>
</g>
<g id="edge8" class="edge"><title>build&#45;&gt;builder</title>
<path style="fill:none;stroke:black;" d="M315,633C312,624 309,615 306,607"/>
<polygon style="fill:black;stroke:black;" points="303,608 303,597 309,606 303,608"/>
</g>
<g id="node7" class="node"><title>processor</title>
<polygon style="fill:#c1cdcc;stroke:#c1cdcc;" points="481,590 481,500 633,500 633,590 481,590"/>
<polygon style="fill:white;stroke:white;" points="484,515 484,503 630,503 630,515 484,515"/>
<text text-anchor="middle" style="font-size:6.00;" x="557" y="511">processor</text>
<polygon style="fill:none;stroke:black;" points="484,515 484,503 630,503 630,515 484,515"/>
<text text-anchor="middle" style="font-size:6.00;" x="489" y="524">id</text>
<text text-anchor="middle" style="font-size:6.00;" x="528" y="524">serial</text>
<text text-anchor="middle" style="font-size:6.00;" x="568" y="524"> PRIMARY KEY </text>
<text text-anchor="middle" style="font-size:6.00;" x="495" y="536">family</text>
<text text-anchor="middle" style="font-size:6.00;" x="530" y="536">integer</text>
<text text-anchor="middle" style="font-size:6.00;" x="587" y="536"> REFERENCES processorfamily </text>
<text text-anchor="middle" style="font-size:6.00;" x="494" y="548">name</text>
<text text-anchor="middle" style="font-size:6.00;" x="527" y="548">text</text>
<text text-anchor="middle" style="font-size:6.00;" x="559" y="548"> UNIQUE </text>
<text text-anchor="middle" style="font-size:6.00;" x="492" y="560">title</text>
<text text-anchor="middle" style="font-size:6.00;" x="527" y="560">text</text>
<text text-anchor="middle" style="font-size:6.00;" x="501" y="572">description</text>
<text text-anchor="middle" style="font-size:6.00;" x="527" y="572">text</text>
<text text-anchor="middle" style="font-size:6.00;" x="495" y="584">owner</text>
<text text-anchor="middle" style="font-size:6.00;" x="530" y="584">integer</text>
<text text-anchor="middle" style="font-size:6.00;" x="575" y="584"> REFERENCES person </text>
<polygon style="fill:none;stroke:black;" points="481,590 481,500 633,500 633,590 481,590"/>
</g>
<g id="edge2" class="edge"><title>build&#45;&gt;processor</title>
<path style="fill:none;stroke:black;" d="M448,633C461,622 475,611 488,600"/>
<polygon style="fill:black;stroke:black;" points="486,597 496,594 490,603 486,597"/>
</g>
<g id="node9" class="node"><title>fake_distroarchrelease_71</title>
<ellipse cx="390" cy="935" rx="32" ry="18" style="fill:none;stroke:red;"/>
<text text-anchor="middle" style="font-size:6.00;" x="390" y="937">distroarchrelease</text>
</g>
<g id="edge4" class="edge"><title>build&#45;&gt;fake_distroarchrelease_71</title>
<path style="fill:none;stroke:black;" d="M361,803C370,840 379,881 384,907"/>
<polygon style="fill:black;stroke:black;" points="387,907 386,917 381,908 387,907"/>
</g>
<g id="node11" class="node"><title>fake_libraryfilealias_73</title>
<ellipse cx="160" cy="835" rx="29" ry="18" style="fill:none;stroke:red;"/>
<text text-anchor="middle" style="font-size:6.00;" x="160" y="837">libraryfilealias</text>
</g>
<g id="edge6" class="edge"><title>build&#45;&gt;fake_libraryfilealias_73</title>
<path style="fill:none;stroke:black;" d="M236,787C219,798 202,808 189,817"/>
<polygon style="fill:black;stroke:black;" points="190,820 180,822 187,814 190,820"/>
</g>
<g id="node14" class="node"><title>fake_gpgkey_76</title>
<ellipse cx="262" cy="918" rx="27" ry="18" style="fill:none;stroke:red;"/>
<text text-anchor="middle" style="font-size:6.00;" x="262" y="920">gpgkey</text>
</g>
<g id="edge10" class="edge"><title>build&#45;&gt;fake_gpgkey_76</title>
<path style="fill:none;stroke:black;" d="M309,803C296,835 282,869 273,892"/>
<polygon style="fill:black;stroke:black;" points="276,893 269,901 270,890 276,893"/>
</g>
<g id="node16" class="node"><title>fake_sourcepackagerelease_78</title>
<ellipse cx="513" cy="870" rx="37" ry="18" style="fill:none;stroke:red;"/>
<text text-anchor="middle" style="font-size:6.00;" x="513" y="872">sourcepackagerelease</text>
</g>
<g id="edge12" class="edge"><title>build&#45;&gt;fake_sourcepackagerelease_78</title>
<path style="fill:none;stroke:black;" d="M438,803C456,820 474,835 488,847"/>
<polygon style="fill:black;stroke:black;" points="490,844 495,854 485,849 490,844"/>
</g>
<g id="edge14" class="edge"><title>builder&#45;&gt;processor</title>
<path style="fill:none;stroke:black;" d="M358,530C391,533 429,535 463,538"/>
<polygon style="fill:black;stroke:black;" points="463,535 473,539 463,541 463,535"/>
</g>
<g id="node19" class="node"><title>fake_person_81</title>
<ellipse cx="118" cy="434" rx="27" ry="18" style="fill:none;stroke:red;"/>
<text text-anchor="middle" style="font-size:6.00;" x="118" y="436">person</text>
</g>
<g id="edge16" class="edge"><title>builder&#45;&gt;fake_person_81</title>
<path style="fill:none;stroke:black;" d="M202,481C182,470 163,459 148,451"/>
<polygon style="fill:black;stroke:black;" points="146,454 139,446 149,448 146,454"/>
</g>
<g id="node3" class="node"><title>buildqueue</title>
<polygon style="fill:#c1cdcc;stroke:#c1cdcc;" points="14,699 14,597 150,597 150,699 14,699"/>
<polygon style="fill:white;stroke:white;" points="17,612 17,600 147,600 147,612 17,612"/>
<text text-anchor="middle" style="font-size:6.00;" x="82" y="608">buildqueue</text>
<polygon style="fill:none;stroke:black;" points="17,612 17,600 147,600 147,612 17,612"/>
<text text-anchor="middle" style="font-size:6.00;" x="22" y="621">id</text>
<text text-anchor="middle" style="font-size:6.00;" x="58" y="621">serial</text>
<text text-anchor="middle" style="font-size:6.00;" x="107" y="621"> PRIMARY KEY </text>
<text text-anchor="middle" style="font-size:6.00;" x="26" y="633">build</text>
<text text-anchor="middle" style="font-size:6.00;" x="60" y="633">integer</text>
<text text-anchor="middle" style="font-size:6.00;" x="112" y="633"> REFERENCES build </text>
<text text-anchor="middle" style="font-size:6.00;" x="29" y="645">builder</text>
<text text-anchor="middle" style="font-size:6.00;" x="60" y="645">integer</text>
<text text-anchor="middle" style="font-size:6.00;" x="115" y="645"> REFERENCES builder </text>
<text text-anchor="middle" style="font-size:6.00;" x="28" y="657">logtail</text>
<text text-anchor="middle" style="font-size:6.00;" x="57" y="657">text</text>
<text text-anchor="middle" style="font-size:6.00;" x="29" y="669">created</text>
<text text-anchor="middle" style="font-size:6.00;" x="65" y="669">timestamp</text>
<text text-anchor="middle" style="font-size:6.00;" x="32" y="681">buildstart</text>
<text text-anchor="middle" style="font-size:6.00;" x="65" y="681">timestamp</text>
<text text-anchor="middle" style="font-size:6.00;" x="31" y="693">lastscore</text>
<text text-anchor="middle" style="font-size:6.00;" x="60" y="693">integer</text>
<polygon style="fill:none;stroke:black;" points="14,699 14,597 150,597 150,699 14,699"/>
</g>
<g id="edge18" class="edge"><title>buildqueue&#45;&gt;build</title>
<path style="fill:none;stroke:black;" d="M158,668C179,674 203,680 226,686"/>
<polygon style="fill:black;stroke:black;" points="227,683 236,689 225,689 227,683"/>
</g>
<g id="edge20" class="edge"><title>buildqueue&#45;&gt;builder</title>
<path style="fill:none;stroke:black;" d="M158,600C169,593 181,586 193,578"/>
<polygon style="fill:black;stroke:black;" points="192,575 202,573 195,581 192,575"/>
</g>
<g id="node4" class="node"><title>distroreleasequeue</title>
<polygon style="fill:#c1cdcc;stroke:#c1cdcc;" points="346,334 346,280 492,280 492,334 346,334"/>
<polygon style="fill:white;stroke:white;" points="349,295 349,283 489,283 489,295 349,295"/>
<text text-anchor="middle" style="font-size:6.00;" x="419" y="291">distroreleasequeue</text>
<polygon style="fill:none;stroke:black;" points="349,295 349,283 489,283 489,295 349,295"/>
<text text-anchor="middle" style="font-size:6.00;" x="354" y="304">id</text>
<text text-anchor="middle" style="font-size:6.00;" x="396" y="304">serial</text>
<text text-anchor="middle" style="font-size:6.00;" x="436" y="304"> PRIMARY KEY </text>
<text text-anchor="middle" style="font-size:6.00;" x="359" y="316">status</text>
<text text-anchor="middle" style="font-size:6.00;" x="398" y="316">integer</text>
<text text-anchor="middle" style="font-size:6.00;" x="367" y="328">distrorelease</text>
<text text-anchor="middle" style="font-size:6.00;" x="398" y="328">integer</text>
<text text-anchor="middle" style="font-size:6.00;" x="450" y="328"> REFERENCES distrorelease </text>
<polygon style="fill:none;stroke:black;" points="346,334 346,280 492,280 492,334 346,334"/>
</g>
<g id="node23" class="node"><title>fake_distrorelease_108</title>
<ellipse cx="505" cy="177" rx="27" ry="18" style="fill:none;stroke:red;"/>
<text text-anchor="middle" style="font-size:6.00;" x="505" y="179">distrorelease</text>
</g>
<g id="edge22" class="edge"><title>distroreleasequeue&#45;&gt;fake_distrorelease_108</title>
<path style="fill:none;stroke:black;" d="M440,276C455,253 474,223 488,202"/>
<polygon style="fill:black;stroke:black;" points="485,200 494,194 491,204 485,200"/>
</g>
<g id="node5" class="node"><title>distroreleasequeuebuild</title>
<polygon style="fill:#c1cdcc;stroke:#c1cdcc;" points="317,424 317,370 493,370 493,424 317,424"/>
<polygon style="fill:white;stroke:white;" points="320,385 320,373 490,373 490,385 320,385"/>
<text text-anchor="middle" style="font-size:6.00;" x="405" y="381">distroreleasequeuebuild</text>
<polygon style="fill:none;stroke:black;" points="320,385 320,373 490,373 490,385 320,385"/>
<text text-anchor="middle" style="font-size:6.00;" x="325" y="394">id</text>
<text text-anchor="middle" style="font-size:6.00;" x="382" y="394">serial</text>
<text text-anchor="middle" style="font-size:6.00;" x="422" y="394"> PRIMARY KEY </text>
<text text-anchor="middle" style="font-size:6.00;" x="346" y="406">distroreleasequeue</text>
<text text-anchor="middle" style="font-size:6.00;" x="384" y="406">integer</text>
<text text-anchor="middle" style="font-size:6.00;" x="444" y="406"> REFERENCES distroreleasequeue </text>
<text text-anchor="middle" style="font-size:6.00;" x="329" y="418">build</text>
<text text-anchor="middle" style="font-size:6.00;" x="384" y="418">integer</text>
<text text-anchor="middle" style="font-size:6.00;" x="427" y="418"> REFERENCES build </text>
<polygon style="fill:none;stroke:black;" points="317,424 317,370 493,370 493,424 317,424"/>
</g>
<g id="edge26" class="edge"><title>distroreleasequeuebuild&#45;&gt;build</title>
<path style="fill:none;stroke:black;" d="M399,428C390,473 374,556 361,623"/>
<polygon style="fill:black;stroke:black;" points="364,624 359,633 358,623 364,624"/>
</g>
<g id="edge24" class="edge"><title>distroreleasequeuebuild&#45;&gt;distroreleasequeue</title>
<path style="fill:none;stroke:black;" d="M410,366C411,360 412,354 413,348"/>
<polygon style="fill:black;stroke:black;" points="410,348 414,338 416,348 410,348"/>
</g>
<g id="node6" class="node"><title>distroreleasequeuesource</title>
<polygon style="fill:#c1cdcc;stroke:#c1cdcc;" points="214,128 214,74 404,74 404,128 214,128"/>
<polygon style="fill:white;stroke:white;" points="217,89 217,77 401,77 401,89 217,89"/>
<text text-anchor="middle" style="font-size:6.00;" x="309" y="85">distroreleasequeuesource</text>
<polygon style="fill:none;stroke:black;" points="217,89 217,77 401,77 401,89 217,89"/>
<text text-anchor="middle" style="font-size:6.00;" x="222" y="98">id</text>
<text text-anchor="middle" style="font-size:6.00;" x="286" y="98">serial</text>
<text text-anchor="middle" style="font-size:6.00;" x="326" y="98"> PRIMARY KEY </text>
<text text-anchor="middle" style="font-size:6.00;" x="243" y="110">distroreleasequeue</text>
<text text-anchor="middle" style="font-size:6.00;" x="288" y="110">integer</text>
<text text-anchor="middle" style="font-size:6.00;" x="348" y="110"> REFERENCES distroreleasequeue </text>
<text text-anchor="middle" style="font-size:6.00;" x="246" y="122">sourcepackagerelease</text>
<text text-anchor="middle" style="font-size:6.00;" x="288" y="122">integer</text>
<text text-anchor="middle" style="font-size:6.00;" x="351" y="122"> REFERENCES sourcepackagerelease </text>
<polygon style="fill:none;stroke:black;" points="214,128 214,74 404,74 404,128 214,128"/>
</g>
<g id="edge28" class="edge"><title>distroreleasequeuesource&#45;&gt;distroreleasequeue</title>
<path style="fill:none;stroke:black;" d="M326,132C345,168 376,227 397,267"/>
<polygon style="fill:black;stroke:black;" points="400,266 402,276 394,269 400,266"/>
</g>
<g id="node28" class="node"><title>fake_sourcepackagerelease_113</title>
<ellipse cx="265" cy="31" rx="37" ry="18" style="fill:none;stroke:red;"/>
<text text-anchor="middle" style="font-size:6.00;" x="265" y="33">sourcepackagerelease</text>
</g>
<g id="edge30" class="edge"><title>distroreleasequeuesource&#45;&gt;fake_sourcepackagerelease_113</title>
<path style="fill:none;stroke:black;" d="M289,70C287,66 284,62 281,57"/>
<polygon style="fill:black;stroke:black;" points="278,59 276,49 284,56 278,59"/>
</g>
<g id="node30" class="node"><title>fake_processorfamily_201</title>
<ellipse cx="712" cy="465" rx="31" ry="18" style="fill:none;stroke:red;"/>
<text text-anchor="middle" style="font-size:6.00;" x="712" y="467">processorfamily</text>
</g>
<g id="edge32" class="edge"><title>processor&#45;&gt;fake_processorfamily_201</title>
<path style="fill:none;stroke:black;" d="M641,501C655,494 669,488 680,482"/>
<polygon style="fill:black;stroke:black;" points="679,479 689,477 682,485 679,479"/>
</g>
<g id="node32" class="node"><title>fake_person_203</title>
<ellipse cx="717" cy="599" rx="27" ry="18" style="fill:none;stroke:red;"/>
<text text-anchor="middle" style="font-size:6.00;" x="717" y="601">person</text>
</g>
<g id="edge34" class="edge"><title>processor&#45;&gt;fake_person_203</title>
<path style="fill:none;stroke:black;" d="M641,573C656,578 671,583 684,588"/>
<polygon style="fill:black;stroke:black;" points="685,585 693,591 682,591 685,585"/>
</g>
</g>
</svg>
