<?xml version="1.0" encoding="UTF-8" standalone="no"?>
<!DOCTYPE svg PUBLIC "-//W3C//DTD SVG 1.0//EN"
 "http://www.w3.org/TR/2001/REC-SVG-20010904/DTD/svg10.dtd">
<!-- Generated by fdp version 2.2.1 (Thu Apr 14 05:40:09 UTC 2005)
     For user: (stub) Stuart Bishop,,,   Title: g    Pages: 1 -->
<svg width="681px" height="535px"
 viewBox = "-1 -1 680 534"
 xmlns="http://www.w3.org/2000/svg">
<g id="graph0" class="graph" transform = "scale(0.235268)"
 style="font-family:Times-Roman;font-size:14.00;">
<title>g</title>
<text text-anchor="middle" style="font-size:22.00;" x="1427" y="2249">Buttress</text>
<g id="node1" class="node"><title>archarchive</title>
<polygon style="fill:#c1cdcc;stroke:#c1cdcc;" points="670,634 670,544 802,544 802,634 670,634"/>
<polygon style="fill:white;stroke:white;" points="673,559 673,547 799,547 799,559 673,559"/>
<text text-anchor="middle" style="font-size:6.00;" x="736" y="555">archarchive</text>
<polygon style="fill:none;stroke:black;" points="673,559 673,547 799,547 799,559 673,559"/>
<text text-anchor="middle" style="font-size:6.00;" x="678" y="568">id</text>
<text text-anchor="middle" style="font-size:6.00;" x="717" y="568">serial</text>
<text text-anchor="middle" style="font-size:6.00;" x="760" y="568"> PRIMARY KEY </text>
<text text-anchor="middle" style="font-size:6.00;" x="683" y="580">name</text>
<text text-anchor="middle" style="font-size:6.00;" x="716" y="580">text</text>
<text text-anchor="middle" style="font-size:6.00;" x="751" y="580"> UNIQUE </text>
<text text-anchor="middle" style="font-size:6.00;" x="681" y="592">title</text>
<text text-anchor="middle" style="font-size:6.00;" x="716" y="592">text</text>
<text text-anchor="middle" style="font-size:6.00;" x="690" y="604">description</text>
<text text-anchor="middle" style="font-size:6.00;" x="716" y="604">text</text>
<text text-anchor="middle" style="font-size:6.00;" x="684" y="616">visible</text>
<text text-anchor="middle" style="font-size:6.00;" x="721" y="616">boolean</text>
<text text-anchor="middle" style="font-size:6.00;" x="684" y="628">owner</text>
<text text-anchor="middle" style="font-size:6.00;" x="719" y="628">integer</text>
<text text-anchor="middle" style="font-size:6.00;" x="767" y="628"> REFERENCES person </text>
<polygon style="fill:none;stroke:black;" points="670,634 670,544 802,544 802,634 670,634"/>
</g>
<g id="node19" class="node"><title>fake_person_1</title>
<ellipse cx="690" cy="374" rx="27" ry="18" style="fill:none;stroke:red;"/>
<text text-anchor="middle" style="font-size:6.00;" x="690" y="376">person</text>
</g>
<g id="edge2" class="edge"><title>archarchive&#45;&gt;fake_person_1</title>
<path style="fill:none;stroke:black;" d="M726,540C717,496 704,437 696,402"/>
<polygon style="fill:black;stroke:black;" points="693,402 694,392 699,401 693,402"/>
</g>
<g id="node2" class="node"><title>archarchivelocation</title>
<polygon style="fill:#c1cdcc;stroke:#c1cdcc;" points="374,435 374,357 518,357 518,435 374,435"/>
<polygon style="fill:white;stroke:white;" points="377,372 377,360 515,360 515,372 377,372"/>
<text text-anchor="middle" style="font-size:6.00;" x="446" y="368">archarchivelocation</text>
<polygon style="fill:none;stroke:black;" points="377,372 377,360 515,360 515,372 377,372"/>
<text text-anchor="middle" style="font-size:6.00;" x="382" y="381">id</text>
<text text-anchor="middle" style="font-size:6.00;" x="422" y="381">serial</text>
<text text-anchor="middle" style="font-size:6.00;" x="465" y="381"> PRIMARY KEY </text>
<text text-anchor="middle" style="font-size:6.00;" x="389" y="393">archive</text>
<text text-anchor="middle" style="font-size:6.00;" x="424" y="393">integer</text>
<text text-anchor="middle" style="font-size:6.00;" x="478" y="393"> REFERENCES archarchive </text>
<text text-anchor="middle" style="font-size:6.00;" x="394" y="405">archivetype</text>
<text text-anchor="middle" style="font-size:6.00;" x="424" y="405">integer</text>
<text text-anchor="middle" style="font-size:6.00;" x="383" y="417">url</text>
<text text-anchor="middle" style="font-size:6.00;" x="421" y="417">text</text>
<text text-anchor="middle" style="font-size:6.00;" x="393" y="429">gpgsigned</text>
<text text-anchor="middle" style="font-size:6.00;" x="426" y="429">boolean</text>
<polygon style="fill:none;stroke:black;" points="374,435 374,357 518,357 518,435 374,435"/>
</g>
<g id="edge4" class="edge"><title>archarchivelocation&#45;&gt;archarchive</title>
<path style="fill:none;stroke:black;" d="M511,439C553,467 608,504 654,534"/>
<polygon style="fill:black;stroke:black;" points="656,531 662,540 652,537 656,531"/>
</g>
<g id="node3" class="node"><title>archarchivelocationsigner</title>
<polygon style="fill:#c1cdcc;stroke:#c1cdcc;" points="110,214 110,172 290,172 290,214 110,214"/>
<polygon style="fill:white;stroke:white;" points="113,187 113,175 287,175 287,187 113,187"/>
<text text-anchor="middle" style="font-size:6.00;" x="200" y="183">archarchivelocationsigner</text>
<polygon style="fill:none;stroke:black;" points="113,187 113,175 287,175 287,187 113,187"/>
<text text-anchor="middle" style="font-size:6.00;" x="140" y="196">archarchivelocation</text>
<text text-anchor="middle" style="font-size:6.00;" x="179" y="196">integer</text>
<text text-anchor="middle" style="font-size:6.00;" x="240" y="196"> REFERENCES archarchivelocation </text>
<text text-anchor="middle" style="font-size:6.00;" x="125" y="208">gpgkey</text>
<text text-anchor="middle" style="font-size:6.00;" x="179" y="208">integer</text>
<text text-anchor="middle" style="font-size:6.00;" x="225" y="208"> REFERENCES gpgkey </text>
<polygon style="fill:none;stroke:black;" points="110,214 110,172 290,172 290,214 110,214"/>
</g>
<g id="edge6" class="edge"><title>archarchivelocationsigner&#45;&gt;archarchivelocation</title>
<path style="fill:none;stroke:black;" d="M231,218C270,250 337,306 386,347"/>
<polygon style="fill:black;stroke:black;" points="388,344 394,353 384,350 388,344"/>
</g>
<g id="node23" class="node"><title>fake_gpgkey_5</title>
<ellipse cx="33" cy="55" rx="27" ry="18" style="fill:none;stroke:red;"/>
<text text-anchor="middle" style="font-size:6.00;" x="33" y="57">gpgkey</text>
</g>
<g id="edge8" class="edge"><title>archarchivelocationsigner&#45;&gt;fake_gpgkey_5</title>
<path style="fill:none;stroke:black;" d="M169,168C137,141 87,100 58,75"/>
<polygon style="fill:black;stroke:black;" points="56,78 50,69 60,72 56,78"/>
</g>
<g id="node4" class="node"><title>archconfig</title>
<polygon style="fill:#c1cdcc;stroke:#c1cdcc;" points="858,1985 858,1895 1014,1895 1014,1985 858,1985"/>
<polygon style="fill:white;stroke:white;" points="861,1910 861,1898 1011,1898 1011,1910 861,1910"/>
<text text-anchor="middle" style="font-size:6.00;" x="936" y="1906">archconfig</text>
<polygon style="fill:none;stroke:black;" points="861,1910 861,1898 1011,1898 1011,1910 861,1910"/>
<text text-anchor="middle" style="font-size:6.00;" x="866" y="1919">id</text>
<text text-anchor="middle" style="font-size:6.00;" x="913" y="1919">serial</text>
<text text-anchor="middle" style="font-size:6.00;" x="953" y="1919"> PRIMARY KEY </text>
<text text-anchor="middle" style="font-size:6.00;" x="871" y="1931">name</text>
<text text-anchor="middle" style="font-size:6.00;" x="912" y="1931">text</text>
<text text-anchor="middle" style="font-size:6.00;" x="869" y="1943">title</text>
<text text-anchor="middle" style="font-size:6.00;" x="912" y="1943">text</text>
<text text-anchor="middle" style="font-size:6.00;" x="878" y="1955">description</text>
<text text-anchor="middle" style="font-size:6.00;" x="912" y="1955">text</text>
<text text-anchor="middle" style="font-size:6.00;" x="882" y="1967">productrelease</text>
<text text-anchor="middle" style="font-size:6.00;" x="915" y="1967">integer</text>
<text text-anchor="middle" style="font-size:6.00;" x="970" y="1967"> REFERENCES productrelease </text>
<text text-anchor="middle" style="font-size:6.00;" x="872" y="1979">owner</text>
<text text-anchor="middle" style="font-size:6.00;" x="915" y="1979">integer</text>
<text text-anchor="middle" style="font-size:6.00;" x="960" y="1979"> REFERENCES person </text>
<polygon style="fill:none;stroke:black;" points="858,1985 858,1895 1014,1895 1014,1985 858,1985"/>
</g>
<g id="node25" class="node"><title>fake_productrelease_7</title>
<ellipse cx="708" cy="2049" rx="29" ry="18" style="fill:none;stroke:red;"/>
<text text-anchor="middle" style="font-size:6.00;" x="708" y="2051">productrelease</text>
</g>
<g id="edge10" class="edge"><title>archconfig&#45;&gt;fake_productrelease_7</title>
<path style="fill:none;stroke:black;" d="M850,1981C811,1999 769,2020 740,2034"/>
<polygon style="fill:black;stroke:black;" points="742,2037 731,2038 739,2031 742,2037"/>
</g>
<g id="node27" class="node"><title>fake_person_9</title>
<ellipse cx="874" cy="2177" rx="27" ry="18" style="fill:none;stroke:red;"/>
<text text-anchor="middle" style="font-size:6.00;" x="874" y="2179">person</text>
</g>
<g id="edge12" class="edge"><title>archconfig&#45;&gt;fake_person_9</title>
<path style="fill:none;stroke:black;" d="M923,1989C910,2038 891,2110 881,2149"/>
<polygon style="fill:black;stroke:black;" points="884,2150 879,2159 878,2149 884,2150"/>
</g>
<g id="node5" class="node"><title>archconfigentry</title>
<polygon style="fill:#c1cdcc;stroke:#c1cdcc;" points="1111,1641 1111,1575 1305,1575 1305,1641 1111,1641"/>
<polygon style="fill:white;stroke:white;" points="1114,1590 1114,1578 1302,1578 1302,1590 1114,1590"/>
<text text-anchor="middle" style="font-size:6.00;" x="1208" y="1586">archconfigentry</text>
<polygon style="fill:none;stroke:black;" points="1114,1590 1114,1578 1302,1578 1302,1590 1114,1590"/>
<text text-anchor="middle" style="font-size:6.00;" x="1130" y="1599">archconfig</text>
<text text-anchor="middle" style="font-size:6.00;" x="1160" y="1599">integer</text>
<text text-anchor="middle" style="font-size:6.00;" x="1210" y="1599"> REFERENCES archconfig </text>
<text text-anchor="middle" style="font-size:6.00;" x="1122" y="1611">path</text>
<text text-anchor="middle" style="font-size:6.00;" x="1157" y="1611">text</text>
<text text-anchor="middle" style="font-size:6.00;" x="1125" y="1623">branch</text>
<text text-anchor="middle" style="font-size:6.00;" x="1160" y="1623">integer</text>
<text text-anchor="middle" style="font-size:6.00;" x="1238" y="1623"> REFERENCES branch REFERENCES changeset </text>
<text text-anchor="middle" style="font-size:6.00;" x="1129" y="1635">changeset</text>
<text text-anchor="middle" style="font-size:6.00;" x="1160" y="1635">integer</text>
<text text-anchor="middle" style="font-size:6.00;" x="1209" y="1635"> REFERENCES changeset </text>
<polygon style="fill:none;stroke:black;" points="1111,1641 1111,1575 1305,1575 1305,1641 1111,1641"/>
</g>
<g id="edge14" class="edge"><title>archconfigentry&#45;&gt;archconfig</title>
<path style="fill:none;stroke:black;" d="M1178,1645C1131,1703 1039,1815 983,1883"/>
<polygon style="fill:black;stroke:black;" points="985,1886 976,1891 980,1881 985,1886"/>
</g>
<g id="node8" class="node"><title>branch</title>
<polygon style="fill:#c1cdcc;stroke:#c1cdcc;" points="1269,1220 1269,1130 1427,1130 1427,1220 1269,1220"/>
<polygon style="fill:white;stroke:white;" points="1272,1145 1272,1133 1424,1133 1424,1145 1272,1145"/>
<text text-anchor="middle" style="font-size:6.00;" x="1348" y="1141">branch</text>
<polygon style="fill:none;stroke:black;" points="1272,1145 1272,1133 1424,1133 1424,1145 1272,1145"/>
<text text-anchor="middle" style="font-size:6.00;" x="1277" y="1154">id</text>
<text text-anchor="middle" style="font-size:6.00;" x="1325" y="1154">serial</text>
<text text-anchor="middle" style="font-size:6.00;" x="1365" y="1154"> PRIMARY KEY </text>
<text text-anchor="middle" style="font-size:6.00;" x="1293" y="1166">archnamespace</text>
<text text-anchor="middle" style="font-size:6.00;" x="1327" y="1166">integer</text>
<text text-anchor="middle" style="font-size:6.00;" x="1382" y="1166"> REFERENCES archnamespace </text>
<text text-anchor="middle" style="font-size:6.00;" x="1280" y="1178">title</text>
<text text-anchor="middle" style="font-size:6.00;" x="1324" y="1178">text</text>
<text text-anchor="middle" style="font-size:6.00;" x="1289" y="1190">description</text>
<text text-anchor="middle" style="font-size:6.00;" x="1324" y="1190">text</text>
<text text-anchor="middle" style="font-size:6.00;" x="1283" y="1202">owner</text>
<text text-anchor="middle" style="font-size:6.00;" x="1327" y="1202">integer</text>
<text text-anchor="middle" style="font-size:6.00;" x="1372" y="1202"> REFERENCES person </text>
<text text-anchor="middle" style="font-size:6.00;" x="1284" y="1214">product</text>
<text text-anchor="middle" style="font-size:6.00;" x="1327" y="1214">integer</text>
<text text-anchor="middle" style="font-size:6.00;" x="1373" y="1214"> REFERENCES product </text>
<polygon style="fill:none;stroke:black;" points="1269,1220 1269,1130 1427,1130 1427,1220 1269,1220"/>
</g>
<g id="edge16" class="edge"><title>archconfigentry&#45;&gt;branch</title>
<path style="fill:none;stroke:black;" d="M1220,1571C1244,1496 1300,1325 1329,1234"/>
<polygon style="fill:black;stroke:black;" points="1326,1233 1332,1224 1332,1235 1326,1233"/>
</g>
<g id="node11" class="node"><title>changeset</title>
<polygon style="fill:#c1cdcc;stroke:#c1cdcc;" points="1501,1554 1501,1452 1689,1452 1689,1554 1501,1554"/>
<polygon style="fill:white;stroke:white;" points="1504,1467 1504,1455 1686,1455 1686,1467 1504,1467"/>
<text text-anchor="middle" style="font-size:6.00;" x="1595" y="1463">changeset</text>
<polygon style="fill:none;stroke:black;" points="1504,1467 1504,1455 1686,1455 1686,1467 1504,1467"/>
<text text-anchor="middle" style="font-size:6.00;" x="1509" y="1476">id</text>
<text text-anchor="middle" style="font-size:6.00;" x="1549" y="1476">serial</text>
<text text-anchor="middle" style="font-size:6.00;" x="1622" y="1476"> UNIQUE UNIQUE PRIMARY KEY </text>
<text text-anchor="middle" style="font-size:6.00;" x="1515" y="1488">branch</text>
<text text-anchor="middle" style="font-size:6.00;" x="1551" y="1488">integer</text>
<text text-anchor="middle" style="font-size:6.00;" x="1630" y="1488"> REFERENCES branch UNIQUE UNIQUE </text>
<text text-anchor="middle" style="font-size:6.00;" x="1521" y="1500">datecreated</text>
<text text-anchor="middle" style="font-size:6.00;" x="1556" y="1500">timestamp</text>
<text text-anchor="middle" style="font-size:6.00;" x="1514" y="1512">name</text>
<text text-anchor="middle" style="font-size:6.00;" x="1548" y="1512">text</text>
<text text-anchor="middle" style="font-size:6.00;" x="1521" y="1524">logmessage</text>
<text text-anchor="middle" style="font-size:6.00;" x="1548" y="1524">text</text>
<text text-anchor="middle" style="font-size:6.00;" x="1515" y="1536">archid</text>
<text text-anchor="middle" style="font-size:6.00;" x="1551" y="1536">integer</text>
<text text-anchor="middle" style="font-size:6.00;" x="1610" y="1536"> REFERENCES archuserid </text>
<text text-anchor="middle" style="font-size:6.00;" x="1516" y="1548">gpgkey</text>
<text text-anchor="middle" style="font-size:6.00;" x="1551" y="1548">integer</text>
<text text-anchor="middle" style="font-size:6.00;" x="1606" y="1548"> REFERENCES gpgkey </text>
<polygon style="fill:none;stroke:black;" points="1501,1554 1501,1452 1689,1452 1689,1554 1501,1554"/>
</g>
<g id="edge18" class="edge"><title>archconfigentry&#45;&gt;changeset</title>
<path style="fill:none;stroke:black;" d="M1313,1579C1366,1565 1429,1547 1483,1534"/>
<polygon style="fill:black;stroke:black;" points="1482,1531 1493,1531 1484,1537 1482,1531"/>
</g>
<g id="node6" class="node"><title>archnamespace</title>
<polygon style="fill:#c1cdcc;stroke:#c1cdcc;" points="953,911 953,821 1097,821 1097,911 953,911"/>
<polygon style="fill:white;stroke:white;" points="956,836 956,824 1094,824 1094,836 956,836"/>
<text text-anchor="middle" style="font-size:6.00;" x="1025" y="832">archnamespace</text>
<polygon style="fill:none;stroke:black;" points="956,836 956,824 1094,824 1094,836 956,836"/>
<text text-anchor="middle" style="font-size:6.00;" x="961" y="845">id</text>
<text text-anchor="middle" style="font-size:6.00;" x="1001" y="845">serial</text>
<text text-anchor="middle" style="font-size:6.00;" x="1044" y="845"> PRIMARY KEY </text>
<text text-anchor="middle" style="font-size:6.00;" x="973" y="857">archarchive</text>
<text text-anchor="middle" style="font-size:6.00;" x="1003" y="857">integer</text>
<text text-anchor="middle" style="font-size:6.00;" x="1057" y="857"> REFERENCES archarchive </text>
<text text-anchor="middle" style="font-size:6.00;" x="970" y="869">category</text>
<text text-anchor="middle" style="font-size:6.00;" x="1000" y="869">text</text>
<text text-anchor="middle" style="font-size:6.00;" x="967" y="881">branch</text>
<text text-anchor="middle" style="font-size:6.00;" x="1000" y="881">text</text>
<text text-anchor="middle" style="font-size:6.00;" x="968" y="893">version</text>
<text text-anchor="middle" style="font-size:6.00;" x="1000" y="893">text</text>
<text text-anchor="middle" style="font-size:6.00;" x="967" y="905">visible</text>
<text text-anchor="middle" style="font-size:6.00;" x="1005" y="905">boolean</text>
<polygon style="fill:none;stroke:black;" points="953,911 953,821 1097,821 1097,911 953,911"/>
</g>
<g id="edge20" class="edge"><title>archnamespace&#45;&gt;archarchive</title>
<path style="fill:none;stroke:black;" d="M974,817C923,768 847,696 794,645"/>
<polygon style="fill:black;stroke:black;" points="792,648 787,638 797,643 792,648"/>
</g>
<g id="node7" class="node"><title>archuserid</title>
<polygon style="fill:#c1cdcc;stroke:#c1cdcc;" points="1148,1530 1148,1476 1276,1476 1276,1530 1148,1530"/>
<polygon style="fill:white;stroke:white;" points="1151,1491 1151,1479 1273,1479 1273,1491 1151,1491"/>
<text text-anchor="middle" style="font-size:6.00;" x="1212" y="1487">archuserid</text>
<polygon style="fill:none;stroke:black;" points="1151,1491 1151,1479 1273,1479 1273,1491 1151,1491"/>
<text text-anchor="middle" style="font-size:6.00;" x="1156" y="1500">id</text>
<text text-anchor="middle" style="font-size:6.00;" x="1194" y="1500">serial</text>
<text text-anchor="middle" style="font-size:6.00;" x="1234" y="1500"> PRIMARY KEY </text>
<text text-anchor="middle" style="font-size:6.00;" x="1162" y="1512">person</text>
<text text-anchor="middle" style="font-size:6.00;" x="1196" y="1512">integer</text>
<text text-anchor="middle" style="font-size:6.00;" x="1241" y="1512"> REFERENCES person </text>
<text text-anchor="middle" style="font-size:6.00;" x="1167" y="1524">archuserid</text>
<text text-anchor="middle" style="font-size:6.00;" x="1193" y="1524">text</text>
<text text-anchor="middle" style="font-size:6.00;" x="1225" y="1524"> UNIQUE </text>
<polygon style="fill:none;stroke:black;" points="1148,1530 1148,1476 1276,1476 1276,1530 1148,1530"/>
</g>
<g id="node33" class="node"><title>fake_person_15</title>
<ellipse cx="988" cy="1554" rx="27" ry="18" style="fill:none;stroke:red;"/>
<text text-anchor="middle" style="font-size:6.00;" x="988" y="1556">person</text>
</g>
<g id="edge22" class="edge"><title>archuserid&#45;&gt;fake_person_15</title>
<path style="fill:none;stroke:black;" d="M1140,1519C1100,1528 1054,1539 1024,1546"/>
<polygon style="fill:black;stroke:black;" points="1024,1549 1014,1548 1023,1543 1024,1549"/>
</g>
<g id="edge24" class="edge"><title>branch&#45;&gt;archnamespace</title>
<path style="fill:none;stroke:black;" d="M1296,1126C1238,1070 1144,980 1083,922"/>
<polygon style="fill:black;stroke:black;" points="1081,925 1076,915 1086,920 1081,925"/>
</g>
<g id="node36" class="node"><title>fake_person_31</title>
<ellipse cx="1308" cy="940" rx="27" ry="18" style="fill:none;stroke:red;"/>
<text text-anchor="middle" style="font-size:6.00;" x="1308" y="942">person</text>
</g>
<g id="edge26" class="edge"><title>branch&#45;&gt;fake_person_31</title>
<path style="fill:none;stroke:black;" d="M1340,1126C1332,1078 1319,1007 1313,968"/>
<polygon style="fill:black;stroke:black;" points="1310,968 1311,958 1316,967 1310,968"/>
</g>
<g id="node38" class="node"><title>fake_product_33</title>
<ellipse cx="1120" cy="1113" rx="27" ry="18" style="fill:none;stroke:red;"/>
<text text-anchor="middle" style="font-size:6.00;" x="1120" y="1115">product</text>
</g>
<g id="edge28" class="edge"><title>branch&#45;&gt;fake_product_33</title>
<path style="fill:none;stroke:black;" d="M1261,1151C1224,1141 1183,1131 1155,1123"/>
<polygon style="fill:black;stroke:black;" points="1154,1126 1145,1120 1156,1120 1154,1126"/>
</g>
<g id="node9" class="node"><title>branchlabel</title>
<polygon style="fill:#c1cdcc;stroke:#c1cdcc;" points="1350,1523 1350,1469 1468,1469 1468,1523 1350,1523"/>
<polygon style="fill:white;stroke:white;" points="1353,1484 1353,1472 1465,1472 1465,1484 1353,1484"/>
<text text-anchor="middle" style="font-size:6.00;" x="1409" y="1480">branchlabel</text>
<polygon style="fill:none;stroke:black;" points="1353,1484 1353,1472 1465,1472 1465,1484 1353,1484"/>
<text text-anchor="middle" style="font-size:6.00;" x="1364" y="1493">branch</text>
<text text-anchor="middle" style="font-size:6.00;" x="1388" y="1493">integer</text>
<text text-anchor="middle" style="font-size:6.00;" x="1433" y="1493"> REFERENCES branch </text>
<text text-anchor="middle" style="font-size:6.00;" x="1362" y="1505">label</text>
<text text-anchor="middle" style="font-size:6.00;" x="1388" y="1505">integer</text>
<text text-anchor="middle" style="font-size:6.00;" x="1431" y="1505"> REFERENCES label </text>
<text text-anchor="middle" style="font-size:6.00;" x="1358" y="1517">id</text>
<text text-anchor="middle" style="font-size:6.00;" x="1388" y="1517">integer</text>
<text text-anchor="middle" style="font-size:6.00;" x="1426" y="1517"> PRIMARY KEY </text>
<polygon style="fill:none;stroke:black;" points="1350,1523 1350,1469 1468,1469 1468,1523 1350,1523"/>
</g>
<g id="edge30" class="edge"><title>branchlabel&#45;&gt;branch</title>
<path style="fill:none;stroke:black;" d="M1403,1465C1393,1412 1372,1302 1359,1234"/>
<polygon style="fill:black;stroke:black;" points="1356,1234 1357,1224 1362,1233 1356,1234"/>
</g>
<g id="node41" class="node"><title>fake_label_36</title>
<ellipse cx="1446" cy="1712" rx="27" ry="18" style="fill:none;stroke:red;"/>
<text text-anchor="middle" style="font-size:6.00;" x="1446" y="1714">label</text>
</g>
<g id="edge32" class="edge"><title>branchlabel&#45;&gt;fake_label_36</title>
<path style="fill:none;stroke:black;" d="M1414,1527C1421,1569 1435,1643 1441,1684"/>
<polygon style="fill:black;stroke:black;" points="1444,1684 1443,1694 1438,1685 1444,1684"/>
</g>
<g id="node10" class="node"><title>branchrelationship</title>
<polygon style="fill:#c1cdcc;stroke:#c1cdcc;" points="1432,937 1432,871 1550,871 1550,937 1432,937"/>
<polygon style="fill:white;stroke:white;" points="1435,886 1435,874 1547,874 1547,886 1435,886"/>
<text text-anchor="middle" style="font-size:6.00;" x="1491" y="882">branchrelationship</text>
<polygon style="fill:none;stroke:black;" points="1435,886 1435,874 1547,874 1547,886 1435,886"/>
<text text-anchor="middle" style="font-size:6.00;" x="1446" y="895">subject</text>
<text text-anchor="middle" style="font-size:6.00;" x="1470" y="895">integer</text>
<text text-anchor="middle" style="font-size:6.00;" x="1515" y="895"> REFERENCES branch </text>
<text text-anchor="middle" style="font-size:6.00;" x="1444" y="907">label</text>
<text text-anchor="middle" style="font-size:6.00;" x="1470" y="907">integer</text>
<text text-anchor="middle" style="font-size:6.00;" x="1446" y="919">object</text>
<text text-anchor="middle" style="font-size:6.00;" x="1470" y="919">integer</text>
<text text-anchor="middle" style="font-size:6.00;" x="1515" y="919"> REFERENCES branch </text>
<text text-anchor="middle" style="font-size:6.00;" x="1440" y="931">id</text>
<text text-anchor="middle" style="font-size:6.00;" x="1470" y="931">integer</text>
<text text-anchor="middle" style="font-size:6.00;" x="1508" y="931"> PRIMARY KEY </text>
<polygon style="fill:none;stroke:black;" points="1432,937 1432,871 1550,871 1550,937 1432,937"/>
</g>
<g id="edge34" class="edge"><title>branchrelationship&#45;&gt;branch</title>
<path style="fill:none;stroke:black;" d="M1476,941C1455,986 1415,1064 1385,1117"/>
<polygon style="fill:black;stroke:black;" points="1388,1119 1380,1126 1382,1116 1388,1119"/>
</g>
<g id="edge36" class="edge"><title>branchrelationship&#45;&gt;branch</title>
<path style="fill:none;stroke:black;" d="M1466,941C1440,986 1399,1064 1373,1117"/>
<polygon style="fill:black;stroke:black;" points="1376,1119 1368,1126 1370,1116 1376,1119"/>
</g>
<g id="edge40" class="edge"><title>changeset&#45;&gt;archuserid</title>
<path style="fill:none;stroke:black;" d="M1493,1503C1431,1503 1352,1503 1294,1503"/>
<polygon style="fill:black;stroke:black;" points="1294,1506 1284,1503 1294,1499 1294,1506"/>
</g>
<g id="edge38" class="edge"><title>changeset&#45;&gt;branch</title>
<path style="fill:none;stroke:black;" d="M1553,1448C1508,1388 1437,1293 1391,1232"/>
<polygon style="fill:black;stroke:black;" points="1388,1234 1385,1224 1394,1230 1388,1234"/>
</g>
<g id="node47" class="node"><title>fake_gpgkey_98</title>
<ellipse cx="1846" cy="1586" rx="27" ry="18" style="fill:none;stroke:red;"/>
<text text-anchor="middle" style="font-size:6.00;" x="1846" y="1588">gpgkey</text>
</g>
<g id="edge42" class="edge"><title>changeset&#45;&gt;fake_gpgkey_98</title>
<path style="fill:none;stroke:black;" d="M1697,1537C1738,1550 1782,1565 1812,1575"/>
<polygon style="fill:black;stroke:black;" points="1813,1572 1822,1578 1811,1578 1813,1572"/>
</g>
<g id="node12" class="node"><title>changesetfile</title>
<polygon style="fill:#c1cdcc;stroke:#c1cdcc;" points="1745,1932 1745,1854 1945,1854 1945,1932 1745,1932"/>
<polygon style="fill:white;stroke:white;" points="1748,1869 1748,1857 1942,1857 1942,1869 1748,1869"/>
<text text-anchor="middle" style="font-size:6.00;" x="1845" y="1865">changesetfile</text>
<polygon style="fill:none;stroke:black;" points="1748,1869 1748,1857 1942,1857 1942,1869 1748,1869"/>
<text text-anchor="middle" style="font-size:6.00;" x="1753" y="1878">id</text>
<text text-anchor="middle" style="font-size:6.00;" x="1810" y="1878">serial</text>
<text text-anchor="middle" style="font-size:6.00;" x="1850" y="1878"> PRIMARY KEY </text>
<text text-anchor="middle" style="font-size:6.00;" x="1763" y="1890">changeset</text>
<text text-anchor="middle" style="font-size:6.00;" x="1812" y="1890">integer</text>
<text text-anchor="middle" style="font-size:6.00;" x="1873" y="1890"> REFERENCES changeset UNIQUE </text>
<text text-anchor="middle" style="font-size:6.00;" x="1773" y="1902">changesetfilename</text>
<text text-anchor="middle" style="font-size:6.00;" x="1812" y="1902">integer</text>
<text text-anchor="middle" style="font-size:6.00;" x="1884" y="1902"> REFERENCES changesetfilename UNIQUE </text>
<text text-anchor="middle" style="font-size:6.00;" x="1765" y="1914">filecontents</text>
<text text-anchor="middle" style="font-size:6.00;" x="1811" y="1914">bytea</text>
<text text-anchor="middle" style="font-size:6.00;" x="1760" y="1926">filesize</text>
<text text-anchor="middle" style="font-size:6.00;" x="1812" y="1926">integer</text>
<polygon style="fill:none;stroke:black;" points="1745,1932 1745,1854 1945,1854 1945,1932 1745,1932"/>
</g>
<g id="edge44" class="edge"><title>changesetfile&#45;&gt;changeset</title>
<path style="fill:none;stroke:black;" d="M1817,1850C1773,1781 1687,1647 1636,1567"/>
<polygon style="fill:black;stroke:black;" points="1633,1568 1630,1558 1638,1564 1633,1568"/>
</g>
<g id="node14" class="node"><title>changesetfilename</title>
<polygon style="fill:#c1cdcc;stroke:#c1cdcc;" points="1855,2220 1855,2178 1959,2178 1959,2220 1855,2220"/>
<polygon style="fill:white;stroke:white;" points="1858,2193 1858,2181 1956,2181 1956,2193 1858,2193"/>
<text text-anchor="middle" style="font-size:6.00;" x="1907" y="2189">changesetfilename</text>
<polygon style="fill:none;stroke:black;" points="1858,2193 1858,2181 1956,2181 1956,2193 1858,2193"/>
<text text-anchor="middle" style="font-size:6.00;" x="1863" y="2202">id</text>
<text text-anchor="middle" style="font-size:6.00;" x="1896" y="2202">serial</text>
<text text-anchor="middle" style="font-size:6.00;" x="1932" y="2202"> PRIMARY KEY </text>
<text text-anchor="middle" style="font-size:6.00;" x="1872" y="2214">filename</text>
<text text-anchor="middle" style="font-size:6.00;" x="1895" y="2214">text</text>
<text text-anchor="middle" style="font-size:6.00;" x="1923" y="2214"> UNIQUE </text>
<polygon style="fill:none;stroke:black;" points="1855,2220 1855,2178 1959,2178 1959,2220 1855,2220"/>
</g>
<g id="edge46" class="edge"><title>changesetfile&#45;&gt;changesetfilename</title>
<path style="fill:none;stroke:black;" d="M1854,1936C1866,1997 1888,2108 1900,2164"/>
<polygon style="fill:black;stroke:black;" points="1903,2164 1902,2174 1897,2165 1903,2164"/>
</g>
<g id="node13" class="node"><title>changesetfilehash</title>
<polygon style="fill:#c1cdcc;stroke:#c1cdcc;" points="2043,2145 2043,2079 2217,2079 2217,2145 2043,2145"/>
<polygon style="fill:white;stroke:white;" points="2046,2094 2046,2082 2214,2082 2214,2094 2046,2094"/>
<text text-anchor="middle" style="font-size:6.00;" x="2130" y="2090">changesetfilehash</text>
<polygon style="fill:none;stroke:black;" points="2046,2094 2046,2082 2214,2082 2214,2094 2046,2094"/>
<text text-anchor="middle" style="font-size:6.00;" x="2051" y="2103">id</text>
<text text-anchor="middle" style="font-size:6.00;" x="2095" y="2103">serial</text>
<text text-anchor="middle" style="font-size:6.00;" x="2135" y="2103"> PRIMARY KEY </text>
<text text-anchor="middle" style="font-size:6.00;" x="2065" y="2115">changesetfile</text>
<text text-anchor="middle" style="font-size:6.00;" x="2097" y="2115">integer</text>
<text text-anchor="middle" style="font-size:6.00;" x="2162" y="2115"> REFERENCES changesetfile UNIQUE </text>
<text text-anchor="middle" style="font-size:6.00;" x="2058" y="2127">hashalg</text>
<text text-anchor="middle" style="font-size:6.00;" x="2097" y="2127">integer</text>
<text text-anchor="middle" style="font-size:6.00;" x="2126" y="2127"> UNIQUE </text>
<text text-anchor="middle" style="font-size:6.00;" x="2055" y="2139">hash</text>
<text text-anchor="middle" style="font-size:6.00;" x="2096" y="2139">bytea</text>
<polygon style="fill:none;stroke:black;" points="2043,2145 2043,2079 2217,2079 2217,2145 2043,2145"/>
</g>
<g id="edge48" class="edge"><title>changesetfilehash&#45;&gt;changesetfile</title>
<path style="fill:none;stroke:black;" d="M2082,2075C2035,2038 1962,1982 1909,1942"/>
<polygon style="fill:black;stroke:black;" points="1907,1945 1901,1936 1911,1939 1907,1945"/>
</g>
<g id="node15" class="node"><title>developmentmanifest</title>
<polygon style="fill:#c1cdcc;stroke:#c1cdcc;" points="2446,745 2446,655 2636,655 2636,745 2446,745"/>
<polygon style="fill:white;stroke:white;" points="2449,670 2449,658 2633,658 2633,670 2449,670"/>
<text text-anchor="middle" style="font-size:6.00;" x="2541" y="666">developmentmanifest</text>
<polygon style="fill:none;stroke:black;" points="2449,670 2449,658 2633,658 2633,670 2449,670"/>
<text text-anchor="middle" style="font-size:6.00;" x="2454" y="679">id</text>
<text text-anchor="middle" style="font-size:6.00;" x="2513" y="679">serial</text>
<text text-anchor="middle" style="font-size:6.00;" x="2562" y="679"> PRIMARY KEY </text>
<text text-anchor="middle" style="font-size:6.00;" x="2460" y="691">owner</text>
<text text-anchor="middle" style="font-size:6.00;" x="2515" y="691">integer</text>
<text text-anchor="middle" style="font-size:6.00;" x="2569" y="691"> REFERENCES person </text>
<text text-anchor="middle" style="font-size:6.00;" x="2467" y="703">distrorelease</text>
<text text-anchor="middle" style="font-size:6.00;" x="2515" y="703">integer</text>
<text text-anchor="middle" style="font-size:6.00;" x="2576" y="703"> REFERENCES distrorelease </text>
<text text-anchor="middle" style="font-size:6.00;" x="2476" y="715">sourcepackagename</text>
<text text-anchor="middle" style="font-size:6.00;" x="2515" y="715">integer</text>
<text text-anchor="middle" style="font-size:6.00;" x="2585" y="715"> REFERENCES sourcepackagename </text>
<text text-anchor="middle" style="font-size:6.00;" x="2462" y="727">manifest</text>
<text text-anchor="middle" style="font-size:6.00;" x="2515" y="727">integer</text>
<text text-anchor="middle" style="font-size:6.00;" x="2571" y="727"> REFERENCES manifest </text>
<text text-anchor="middle" style="font-size:6.00;" x="2466" y="739">datecreated</text>
<text text-anchor="middle" style="font-size:6.00;" x="2520" y="739">timestamp</text>
<polygon style="fill:none;stroke:black;" points="2446,745 2446,655 2636,655 2636,745 2446,745"/>
</g>
<g id="node16" class="node"><title>manifest</title>
<polygon style="fill:#c1cdcc;stroke:#c1cdcc;" points="2151,963 2151,909 2275,909 2275,963 2151,963"/>
<polygon style="fill:white;stroke:white;" points="2154,924 2154,912 2272,912 2272,924 2154,924"/>
<text text-anchor="middle" style="font-size:6.00;" x="2213" y="920">manifest</text>
<polygon style="fill:none;stroke:black;" points="2154,924 2154,912 2272,912 2272,924 2154,924"/>
<text text-anchor="middle" style="font-size:6.00;" x="2159" y="933">id</text>
<text text-anchor="middle" style="font-size:6.00;" x="2199" y="933">serial</text>
<text text-anchor="middle" style="font-size:6.00;" x="2248" y="933"> PRIMARY KEY </text>
<text text-anchor="middle" style="font-size:6.00;" x="2171" y="945">datecreated</text>
<text text-anchor="middle" style="font-size:6.00;" x="2206" y="945">timestamp</text>
<text text-anchor="middle" style="font-size:6.00;" x="2163" y="957">uuid</text>
<text text-anchor="middle" style="font-size:6.00;" x="2198" y="957">text</text>
<text text-anchor="middle" style="font-size:6.00;" x="2239" y="957"> UNIQUE </text>
<polygon style="fill:none;stroke:black;" points="2151,963 2151,909 2275,909 2275,963 2151,963"/>
</g>
<g id="edge56" class="edge"><title>developmentmanifest&#45;&gt;manifest</title>
<path style="fill:none;stroke:black;" d="M2473,749C2411,794 2321,858 2264,899"/>
<polygon style="fill:black;stroke:black;" points="2266,902 2256,905 2262,896 2266,902"/>
</g>
<g id="node52" class="node"><title>fake_person_108</title>
<ellipse cx="2600" cy="436" rx="27" ry="18" style="fill:none;stroke:red;"/>
<text text-anchor="middle" style="font-size:6.00;" x="2600" y="438">person</text>
</g>
<g id="edge50" class="edge"><title>developmentmanifest&#45;&gt;fake_person_108</title>
<path style="fill:none;stroke:black;" d="M2552,651C2564,596 2584,508 2594,464"/>
<polygon style="fill:black;stroke:black;" points="2591,463 2596,454 2597,464 2591,463"/>
</g>
<g id="node54" class="node"><title>fake_distrorelease_110</title>
<ellipse cx="2756" cy="560" rx="27" ry="18" style="fill:none;stroke:red;"/>
<text text-anchor="middle" style="font-size:6.00;" x="2756" y="562">distrorelease</text>
</g>
<g id="edge52" class="edge"><title>developmentmanifest&#45;&gt;fake_distrorelease_110</title>
<path style="fill:none;stroke:black;" d="M2616,651C2655,626 2699,596 2727,578"/>
<polygon style="fill:black;stroke:black;" points="2726,575 2736,573 2729,581 2726,575"/>
</g>
<g id="node56" class="node"><title>fake_sourcepackagename_112</title>
<ellipse cx="2814" cy="750" rx="35" ry="18" style="fill:none;stroke:red;"/>
<text text-anchor="middle" style="font-size:6.00;" x="2814" y="752">sourcepackagename</text>
</g>
<g id="edge54" class="edge"><title>developmentmanifest&#45;&gt;fake_sourcepackagename_112</title>
<path style="fill:none;stroke:black;" d="M2644,719C2688,727 2737,736 2771,742"/>
<polygon style="fill:black;stroke:black;" points="2772,739 2781,744 2771,745 2772,739"/>
</g>
<g id="node17" class="node"><title>manifestancestry</title>
<polygon style="fill:#c1cdcc;stroke:#c1cdcc;" points="2406,1034 2406,980 2552,980 2552,1034 2406,1034"/>
<polygon style="fill:white;stroke:white;" points="2409,995 2409,983 2549,983 2549,995 2409,995"/>
<text text-anchor="middle" style="font-size:6.00;" x="2479" y="991">manifestancestry</text>
<polygon style="fill:none;stroke:black;" points="2409,995 2409,983 2549,983 2549,995 2409,995"/>
<text text-anchor="middle" style="font-size:6.00;" x="2414" y="1004">id</text>
<text text-anchor="middle" style="font-size:6.00;" x="2442" y="1004">serial</text>
<text text-anchor="middle" style="font-size:6.00;" x="2482" y="1004"> PRIMARY KEY </text>
<text text-anchor="middle" style="font-size:6.00;" x="2420" y="1016">parent</text>
<text text-anchor="middle" style="font-size:6.00;" x="2444" y="1016">integer</text>
<text text-anchor="middle" style="font-size:6.00;" x="2503" y="1016"> UNIQUE REFERENCES manifest </text>
<text text-anchor="middle" style="font-size:6.00;" x="2418" y="1028">child</text>
<text text-anchor="middle" style="font-size:6.00;" x="2444" y="1028">integer</text>
<text text-anchor="middle" style="font-size:6.00;" x="2503" y="1028"> REFERENCES manifest UNIQUE </text>
<polygon style="fill:none;stroke:black;" points="2406,1034 2406,980 2552,980 2552,1034 2406,1034"/>
</g>
<g id="edge58" class="edge"><title>manifestancestry&#45;&gt;manifest</title>
<path style="fill:none;stroke:black;" d="M2398,992C2364,984 2327,974 2293,965"/>
<polygon style="fill:black;stroke:black;" points="2292,968 2283,962 2294,962 2292,968"/>
</g>
<g id="edge60" class="edge"><title>manifestancestry&#45;&gt;manifest</title>
<path style="fill:none;stroke:black;" d="M2398,980C2364,970 2326,960 2293,952"/>
<polygon style="fill:black;stroke:black;" points="2292,955 2283,949 2294,949 2292,955"/>
</g>
<g id="node18" class="node"><title>manifestentry</title>
<polygon style="fill:#c1cdcc;stroke:#c1cdcc;" points="1701,1203 1701,1065 1899,1065 1899,1203 1701,1203"/>
<polygon style="fill:white;stroke:white;" points="1704,1080 1704,1068 1896,1068 1896,1080 1704,1080"/>
<text text-anchor="middle" style="font-size:6.00;" x="1800" y="1076">manifestentry</text>
<polygon style="fill:none;stroke:black;" points="1704,1080 1704,1068 1896,1068 1896,1080 1704,1080"/>
<text text-anchor="middle" style="font-size:6.00;" x="1709" y="1089">id</text>
<text text-anchor="middle" style="font-size:6.00;" x="1745" y="1089">serial</text>
<text text-anchor="middle" style="font-size:6.00;" x="1785" y="1089"> PRIMARY KEY </text>
<text text-anchor="middle" style="font-size:6.00;" x="1717" y="1101">manifest</text>
<text text-anchor="middle" style="font-size:6.00;" x="1747" y="1101">integer</text>
<text text-anchor="middle" style="font-size:6.00;" x="1819" y="1101"> REFERENCES manifest UNIQUE UNIQUE </text>
<text text-anchor="middle" style="font-size:6.00;" x="1718" y="1113">sequence</text>
<text text-anchor="middle" style="font-size:6.00;" x="1747" y="1113">integer</text>
<text text-anchor="middle" style="font-size:6.00;" x="1776" y="1113"> UNIQUE </text>
<text text-anchor="middle" style="font-size:6.00;" x="1715" y="1125">branch</text>
<text text-anchor="middle" style="font-size:6.00;" x="1747" y="1125">integer</text>
<text text-anchor="middle" style="font-size:6.00;" x="1825" y="1125"> REFERENCES branch REFERENCES changeset </text>
<text text-anchor="middle" style="font-size:6.00;" x="1719" y="1137">changeset</text>
<text text-anchor="middle" style="font-size:6.00;" x="1747" y="1137">integer</text>
<text text-anchor="middle" style="font-size:6.00;" x="1828" y="1137"> REFERENCES changeset REFERENCES changeset </text>
<text text-anchor="middle" style="font-size:6.00;" x="1719" y="1149">entrytype</text>
<text text-anchor="middle" style="font-size:6.00;" x="1747" y="1149">integer</text>
<text text-anchor="middle" style="font-size:6.00;" x="1712" y="1161">path</text>
<text text-anchor="middle" style="font-size:6.00;" x="1744" y="1161">text</text>
<text text-anchor="middle" style="font-size:6.00;" x="1717" y="1173">patchon</text>
<text text-anchor="middle" style="font-size:6.00;" x="1747" y="1173">integer</text>
<text text-anchor="middle" style="font-size:6.00;" x="1801" y="1173"> REFERENCES manifestentry </text>
<text text-anchor="middle" style="font-size:6.00;" x="1717" y="1185">dirname</text>
<text text-anchor="middle" style="font-size:6.00;" x="1744" y="1185">text</text>
<text text-anchor="middle" style="font-size:6.00;" x="1712" y="1197">hint</text>
<text text-anchor="middle" style="font-size:6.00;" x="1747" y="1197">integer</text>
<text text-anchor="middle" style="font-size:6.00;" x="1776" y="1197"> UNIQUE </text>
<polygon style="fill:none;stroke:black;" points="1701,1203 1701,1065 1899,1065 1899,1203 1701,1203"/>
</g>
<g id="edge64" class="edge"><title>manifestentry&#45;&gt;branch</title>
<path style="fill:none;stroke:black;" d="M1693,1144C1618,1151 1518,1160 1445,1166"/>
<polygon style="fill:black;stroke:black;" points="1445,1169 1435,1167 1445,1163 1445,1169"/>
</g>
<g id="edge66" class="edge"><title>manifestentry&#45;&gt;changeset</title>
<path style="fill:none;stroke:black;" d="M1765,1207C1730,1275 1674,1375 1636,1439"/>
<polygon style="fill:black;stroke:black;" points="1639,1441 1631,1448 1633,1438 1639,1441"/>
</g>
<g id="edge68" class="edge"><title>manifestentry&#45;&gt;changeset</title>
<path style="fill:none;stroke:black;" d="M1753,1207C1714,1275 1658,1374 1625,1439"/>
<polygon style="fill:black;stroke:black;" points="1628,1441 1620,1448 1622,1438 1628,1441"/>
</g>
<g id="edge62" class="edge"><title>manifestentry&#45;&gt;manifest</title>
<path style="fill:none;stroke:black;" d="M1907,1083C1980,1048 2075,1002 2139,971"/>
<polygon style="fill:black;stroke:black;" points="2137,968 2148,967 2140,974 2137,968"/>
</g>
</g>
</svg>
