<?xml version="1.0" encoding="UTF-8" standalone="no"?>
<!DOCTYPE svg PUBLIC "-//W3C//DTD SVG 1.0//EN"
 "http://www.w3.org/TR/2001/REC-SVG-20010904/DTD/svg10.dtd">
<!-- Generated by fdp version 2.2.1 (Thu Apr  6 00:32:47 UTC 2006)
     For user: (stub) Stuart Bishop,,,   Title: g    Pages: 1 -->
<svg width="1850px" height="2324px"
 viewBox = "-1 -1 1849 2323"
 xmlns="http://www.w3.org/2000/svg">
<g id="graph0" class="graph" style="font-family:Times-Roman;font-size:14.00;">
<title>g</title>
<text text-anchor="middle" style="font-size:22.00;" x="924" y="2306">Buttress</text>
<g id="node1" class="node"><title>archconfig</title>
<polygon style="fill:#c1cdcc;stroke:#c1cdcc;" points="868,2097 868,1993 1068,1993 1068,2097 868,2097"/>
<polygon style="fill:white;stroke:white;" points="871,2010 871,1996 1065,1996 1065,2010 871,2010"/>
<text text-anchor="middle" style="font-size:8.00;" x="968" y="2006">archconfig</text>
<polygon style="fill:none;stroke:black;" points="871,2010 871,1996 1065,1996 1065,2010 871,2010"/>
<text text-anchor="middle" style="font-size:8.00;" x="877" y="2021">id</text>
<text text-anchor="middle" style="font-size:8.00;" x="938" y="2021">serial</text>
<text text-anchor="middle" style="font-size:8.00;" x="989" y="2021"> PRIMARY KEY </text>
<text text-anchor="middle" style="font-size:8.00;" x="883" y="2035">name</text>
<text text-anchor="middle" style="font-size:8.00;" x="936" y="2035">text</text>
<text text-anchor="middle" style="font-size:8.00;" x="880" y="2049">title</text>
<text text-anchor="middle" style="font-size:8.00;" x="936" y="2049">text</text>
<text text-anchor="middle" style="font-size:8.00;" x="891" y="2063">description</text>
<text text-anchor="middle" style="font-size:8.00;" x="936" y="2063">text</text>
<text text-anchor="middle" style="font-size:8.00;" x="898" y="2077">productrelease</text>
<text text-anchor="middle" style="font-size:8.00;" x="941" y="2077">integer</text>
<text text-anchor="middle" style="font-size:8.00;" x="1011" y="2077"> REFERENCES productrelease </text>
<text text-anchor="middle" style="font-size:8.00;" x="884" y="2091">owner</text>
<text text-anchor="middle" style="font-size:8.00;" x="941" y="2091">integer</text>
<text text-anchor="middle" style="font-size:8.00;" x="999" y="2091"> REFERENCES person </text>
<polygon style="fill:none;stroke:black;" points="868,2097 868,1993 1068,1993 1068,2097 868,2097"/>
</g>
<g id="node15" class="node"><title>fake_productrelease_1</title>
<ellipse cx="921" cy="2263" rx="36" ry="18" style="fill:none;stroke:red;"/>
<text text-anchor="middle" style="font-size:8.00;" x="921" y="2266">productrelease</text>
</g>
<g id="edge2" class="edge"><title>archconfig&#45;&gt;fake_productrelease_1</title>
<path style="fill:none;stroke:black;" d="M956,2101C947,2144 935,2201 927,2235"/>
<polygon style="fill:black;stroke:black;" points="930,2236 925,2245 924,2235 930,2236"/>
</g>
<g id="node17" class="node"><title>fake_person_3</title>
<ellipse cx="1107" cy="2208" rx="27" ry="18" style="fill:none;stroke:red;"/>
<text text-anchor="middle" style="font-size:8.00;" x="1107" y="2211">person</text>
</g>
<g id="edge4" class="edge"><title>archconfig&#45;&gt;fake_person_3</title>
<path style="fill:none;stroke:black;" d="M1016,2101C1040,2129 1069,2162 1087,2184"/>
<polygon style="fill:black;stroke:black;" points="1090,2182 1094,2192 1085,2187 1090,2182"/>
</g>
<g id="node2" class="node"><title>archconfigentry</title>
<polygon style="fill:#c1cdcc;stroke:#c1cdcc;" points="800,1779 800,1703 974,1703 974,1779 800,1779"/>
<polygon style="fill:white;stroke:white;" points="803,1720 803,1706 971,1706 971,1720 803,1720"/>
<text text-anchor="middle" style="font-size:8.00;" x="887" y="1716">archconfigentry</text>
<polygon style="fill:none;stroke:black;" points="803,1720 803,1706 971,1706 971,1720 803,1720"/>
<text text-anchor="middle" style="font-size:8.00;" x="823" y="1731">archconfig</text>
<text text-anchor="middle" style="font-size:8.00;" x="859" y="1731">integer</text>
<text text-anchor="middle" style="font-size:8.00;" x="923" y="1731"> REFERENCES archconfig </text>
<text text-anchor="middle" style="font-size:8.00;" x="813" y="1745">path</text>
<text text-anchor="middle" style="font-size:8.00;" x="854" y="1745">text</text>
<text text-anchor="middle" style="font-size:8.00;" x="817" y="1759">branch</text>
<text text-anchor="middle" style="font-size:8.00;" x="859" y="1759">integer</text>
<text text-anchor="middle" style="font-size:8.00;" x="917" y="1759"> REFERENCES branch </text>
<text text-anchor="middle" style="font-size:8.00;" x="822" y="1773">changeset</text>
<text text-anchor="middle" style="font-size:8.00;" x="859" y="1773">integer</text>
<polygon style="fill:none;stroke:black;" points="800,1779 800,1703 974,1703 974,1779 800,1779"/>
</g>
<g id="edge6" class="edge"><title>archconfigentry&#45;&gt;archconfig</title>
<path style="fill:none;stroke:black;" d="M898,1783C912,1834 934,1919 950,1979"/>
<polygon style="fill:black;stroke:black;" points="953,1978 953,1989 947,1980 953,1978"/>
</g>
<g id="node3" class="node"><title>branch</title>
<polygon style="fill:#c1cdcc;stroke:#c1cdcc;" points="554,1453 554,985 900,985 900,1453 554,1453"/>
<polygon style="fill:white;stroke:white;" points="557,1002 557,988 897,988 897,1002 557,1002"/>
<text text-anchor="middle" style="font-size:8.00;" x="727" y="998">branch</text>
<polygon style="fill:none;stroke:black;" points="557,1002 557,988 897,988 897,1002 557,1002"/>
<text text-anchor="middle" style="font-size:8.00;" x="563" y="1013">id</text>
<text text-anchor="middle" style="font-size:8.00;" x="651" y="1013">serial</text>
<text text-anchor="middle" style="font-size:8.00;" x="766" y="1013"> REFERENCES revisionnumber PRIMARY KEY </text>
<text text-anchor="middle" style="font-size:8.00;" x="566" y="1027">title</text>
<text text-anchor="middle" style="font-size:8.00;" x="649" y="1027">text</text>
<text text-anchor="middle" style="font-size:8.00;" x="575" y="1041">summary</text>
<text text-anchor="middle" style="font-size:8.00;" x="649" y="1041">text</text>
<text text-anchor="middle" style="font-size:8.00;" x="570" y="1055">owner</text>
<text text-anchor="middle" style="font-size:8.00;" x="654" y="1055">integer</text>
<text text-anchor="middle" style="font-size:8.00;" x="723" y="1055"> REFERENCES person </text>
<text text-anchor="middle" style="font-size:8.00;" x="572" y="1069">product</text>
<text text-anchor="middle" style="font-size:8.00;" x="654" y="1069">integer</text>
<text text-anchor="middle" style="font-size:8.00;" x="724" y="1069"> REFERENCES product </text>
<text text-anchor="middle" style="font-size:8.00;" x="570" y="1083">author</text>
<text text-anchor="middle" style="font-size:8.00;" x="654" y="1083">integer</text>
<text text-anchor="middle" style="font-size:8.00;" x="723" y="1083"> REFERENCES person </text>
<text text-anchor="middle" style="font-size:8.00;" x="569" y="1097">name</text>
<text text-anchor="middle" style="font-size:8.00;" x="649" y="1097">text</text>
<text text-anchor="middle" style="font-size:8.00;" x="596" y="1111">branch_product_name</text>
<text text-anchor="middle" style="font-size:8.00;" x="649" y="1111">text</text>
<text text-anchor="middle" style="font-size:8.00;" x="585" y="1125">product_locked</text>
<text text-anchor="middle" style="font-size:8.00;" x="656" y="1125">boolean</text>
<text text-anchor="middle" style="font-size:8.00;" x="579" y="1139">home_page</text>
<text text-anchor="middle" style="font-size:8.00;" x="649" y="1139">text</text>
<text text-anchor="middle" style="font-size:8.00;" x="592" y="1153">branch_home_page</text>
<text text-anchor="middle" style="font-size:8.00;" x="649" y="1153">text</text>
<text text-anchor="middle" style="font-size:8.00;" x="592" y="1167">home_page_locked</text>
<text text-anchor="middle" style="font-size:8.00;" x="656" y="1167">boolean</text>
<text text-anchor="middle" style="font-size:8.00;" x="565" y="1181">url</text>
<text text-anchor="middle" style="font-size:8.00;" x="649" y="1181">text</text>
<text text-anchor="middle" style="font-size:8.00;" x="701" y="1181"> UNIQUE </text>
<text text-anchor="middle" style="font-size:8.00;" x="578" y="1195">whiteboard</text>
<text text-anchor="middle" style="font-size:8.00;" x="649" y="1195">text</text>
<text text-anchor="middle" style="font-size:8.00;" x="585" y="1209">lifecycle_status</text>
<text text-anchor="middle" style="font-size:8.00;" x="654" y="1209">integer</text>
<text text-anchor="middle" style="font-size:8.00;" x="583" y="1223">landing_target</text>
<text text-anchor="middle" style="font-size:8.00;" x="654" y="1223">integer</text>
<text text-anchor="middle" style="font-size:8.00;" x="723" y="1223"> REFERENCES branch </text>
<text text-anchor="middle" style="font-size:8.00;" x="587" y="1237">current_delta_url</text>
<text text-anchor="middle" style="font-size:8.00;" x="649" y="1237">text</text>
<text text-anchor="middle" style="font-size:8.00;" x="593" y="1251">current_conflicts_url</text>
<text text-anchor="middle" style="font-size:8.00;" x="649" y="1251">text</text>
<text text-anchor="middle" style="font-size:8.00;" x="588" y="1265">current_diff_adds</text>
<text text-anchor="middle" style="font-size:8.00;" x="654" y="1265">integer</text>
<text text-anchor="middle" style="font-size:8.00;" x="592" y="1279">current_diff_deletes</text>
<text text-anchor="middle" style="font-size:8.00;" x="654" y="1279">integer</text>
<text text-anchor="middle" style="font-size:8.00;" x="582" y="1293">stats_updated</text>
<text text-anchor="middle" style="font-size:8.00;" x="660" y="1293">timestamp</text>
<text text-anchor="middle" style="font-size:8.00;" x="585" y="1307">current_activity</text>
<text text-anchor="middle" style="font-size:8.00;" x="654" y="1307">integer</text>
<text text-anchor="middle" style="font-size:8.00;" x="582" y="1321">last_mirrored</text>
<text text-anchor="middle" style="font-size:8.00;" x="660" y="1321">timestamp</text>
<text text-anchor="middle" style="font-size:8.00;" x="592" y="1335">last_mirror_attempt</text>
<text text-anchor="middle" style="font-size:8.00;" x="660" y="1335">timestamp</text>
<text text-anchor="middle" style="font-size:8.00;" x="584" y="1349">mirror_failures</text>
<text text-anchor="middle" style="font-size:8.00;" x="654" y="1349">integer</text>
<text text-anchor="middle" style="font-size:8.00;" x="582" y="1363">pull_disabled</text>
<text text-anchor="middle" style="font-size:8.00;" x="656" y="1363">boolean</text>
<text text-anchor="middle" style="font-size:8.00;" x="575" y="1377">cache_url</text>
<text text-anchor="middle" style="font-size:8.00;" x="649" y="1377">text</text>
<text text-anchor="middle" style="font-size:8.00;" x="575" y="1391">started_at</text>
<text text-anchor="middle" style="font-size:8.00;" x="654" y="1391">integer</text>
<text text-anchor="middle" style="font-size:8.00;" x="789" y="1391"> REFERENCES revisionnumber REFERENCES revisionnumber </text>
<text text-anchor="middle" style="font-size:8.00;" x="597" y="1405">mirror_status_message</text>
<text text-anchor="middle" style="font-size:8.00;" x="649" y="1405">text</text>
<text text-anchor="middle" style="font-size:8.00;" x="581" y="1419">last_scanned</text>
<text text-anchor="middle" style="font-size:8.00;" x="660" y="1419">timestamp</text>
<text text-anchor="middle" style="font-size:8.00;" x="586" y="1433">last_scanned_id</text>
<text text-anchor="middle" style="font-size:8.00;" x="649" y="1433">text</text>
<text text-anchor="middle" style="font-size:8.00;" x="587" y="1447">last_mirrored_id</text>
<text text-anchor="middle" style="font-size:8.00;" x="649" y="1447">text</text>
<polygon style="fill:none;stroke:black;" points="554,1453 554,985 900,985 900,1453 554,1453"/>
</g>
<g id="edge8" class="edge"><title>archconfigentry&#45;&gt;branch</title>
<path style="fill:none;stroke:black;" d="M874,1699C859,1647 830,1556 803,1467"/>
<polygon style="fill:black;stroke:black;" points="800,1468 800,1457 806,1466 800,1468"/>
</g>
<g id="edge18" class="edge"><title>branch&#45;&gt;branch</title>
<path style="fill:none;stroke:black;" d="M908,1343C919,1314 926,1272 926,1219 926,1172 920,1133 911,1105"/>
<polygon style="fill:black;stroke:black;" points="908,1106 908,1095 914,1104 908,1106"/>
</g>
<g id="node13" class="node"><title>revisionnumber</title>
<polygon style="fill:#c1cdcc;stroke:#c1cdcc;" points="1076,977 1076,901 1330,901 1330,977 1076,977"/>
<polygon style="fill:white;stroke:white;" points="1079,918 1079,904 1327,904 1327,918 1079,918"/>
<text text-anchor="middle" style="font-size:8.00;" x="1203" y="914">revisionnumber</text>
<polygon style="fill:none;stroke:black;" points="1079,918 1079,904 1327,904 1327,918 1079,918"/>
<text text-anchor="middle" style="font-size:8.00;" x="1085" y="929">id</text>
<text text-anchor="middle" style="font-size:8.00;" x="1127" y="929">serial</text>
<text text-anchor="middle" style="font-size:8.00;" x="1195" y="929"> UNIQUE PRIMARY KEY </text>
<text text-anchor="middle" style="font-size:8.00;" x="1096" y="943">sequence</text>
<text text-anchor="middle" style="font-size:8.00;" x="1130" y="943">integer</text>
<text text-anchor="middle" style="font-size:8.00;" x="1166" y="943"> UNIQUE </text>
<text text-anchor="middle" style="font-size:8.00;" x="1093" y="957">branch</text>
<text text-anchor="middle" style="font-size:8.00;" x="1130" y="957">integer</text>
<text text-anchor="middle" style="font-size:8.00;" x="1237" y="957"> REFERENCES branch UNIQUE UNIQUE UNIQUE </text>
<text text-anchor="middle" style="font-size:8.00;" x="1095" y="971">revision</text>
<text text-anchor="middle" style="font-size:8.00;" x="1130" y="971">integer</text>
<text text-anchor="middle" style="font-size:8.00;" x="1206" y="971"> UNIQUE REFERENCES revision </text>
<polygon style="fill:none;stroke:black;" points="1076,977 1076,901 1330,901 1330,977 1076,977"/>
</g>
<g id="edge10" class="edge"><title>branch&#45;&gt;revisionnumber</title>
<path style="fill:none;stroke:black;" d="M908,1112C982,1068 1064,1021 1122,986"/>
<polygon style="fill:black;stroke:black;" points="1121,983 1131,981 1124,989 1121,983"/>
</g>
<g id="edge20" class="edge"><title>branch&#45;&gt;revisionnumber</title>
<path style="fill:none;stroke:black;" d="M908,1112C982,1068 1064,1021 1122,986"/>
<polygon style="fill:black;stroke:black;" points="1121,983 1131,981 1124,989 1121,983"/>
</g>
<g id="node22" class="node"><title>fake_person_21</title>
<ellipse cx="351" cy="1095" rx="27" ry="18" style="fill:none;stroke:red;"/>
<text text-anchor="middle" style="font-size:8.00;" x="351" y="1098">person</text>
</g>
<g id="edge12" class="edge"><title>branch&#45;&gt;fake_person_21</title>
<path style="fill:none;stroke:black;" d="M546,1159C485,1139 423,1119 385,1106"/>
<polygon style="fill:black;stroke:black;" points="384,1109 375,1103 386,1103 384,1109"/>
</g>
<g id="node24" class="node"><title>fake_product_23</title>
<ellipse cx="1055" cy="1429" rx="27" ry="18" style="fill:none;stroke:red;"/>
<text text-anchor="middle" style="font-size:8.00;" x="1055" y="1432">product</text>
</g>
<g id="edge14" class="edge"><title>branch&#45;&gt;fake_product_23</title>
<path style="fill:none;stroke:black;" d="M908,1335C955,1365 999,1393 1026,1411"/>
<polygon style="fill:black;stroke:black;" points="1028,1408 1035,1416 1025,1414 1028,1408"/>
</g>
<g id="node26" class="node"><title>fake_person_25</title>
<ellipse cx="462" cy="928" rx="27" ry="18" style="fill:none;stroke:red;"/>
<text text-anchor="middle" style="font-size:8.00;" x="462" y="931">person</text>
</g>
<g id="edge16" class="edge"><title>branch&#45;&gt;fake_person_25</title>
<path style="fill:none;stroke:black;" d="M546,1020C521,992 498,968 483,951"/>
<polygon style="fill:black;stroke:black;" points="481,954 476,944 486,949 481,954"/>
</g>
<g id="node4" class="node"><title>branchlabel</title>
<polygon style="fill:#c1cdcc;stroke:#c1cdcc;" points="283,1598 283,1536 433,1536 433,1598 283,1598"/>
<polygon style="fill:white;stroke:white;" points="286,1553 286,1539 430,1539 430,1553 286,1553"/>
<text text-anchor="middle" style="font-size:8.00;" x="358" y="1549">branchlabel</text>
<polygon style="fill:none;stroke:black;" points="286,1553 286,1539 430,1539 430,1553 286,1553"/>
<text text-anchor="middle" style="font-size:8.00;" x="300" y="1564">branch</text>
<text text-anchor="middle" style="font-size:8.00;" x="331" y="1564">integer</text>
<text text-anchor="middle" style="font-size:8.00;" x="389" y="1564"> REFERENCES branch </text>
<text text-anchor="middle" style="font-size:8.00;" x="297" y="1578">label</text>
<text text-anchor="middle" style="font-size:8.00;" x="331" y="1578">integer</text>
<text text-anchor="middle" style="font-size:8.00;" x="386" y="1578"> REFERENCES label </text>
<text text-anchor="middle" style="font-size:8.00;" x="292" y="1592">id</text>
<text text-anchor="middle" style="font-size:8.00;" x="331" y="1592">integer</text>
<text text-anchor="middle" style="font-size:8.00;" x="379" y="1592"> PRIMARY KEY </text>
<polygon style="fill:none;stroke:black;" points="283,1598 283,1536 433,1536 433,1598 283,1598"/>
</g>
<g id="edge22" class="edge"><title>branchlabel&#45;&gt;branch</title>
<path style="fill:none;stroke:black;" d="M395,1532C429,1499 484,1449 539,1397"/>
<polygon style="fill:black;stroke:black;" points="536,1395 546,1390 541,1400 536,1395"/>
</g>
<g id="node31" class="node"><title>fake_label_30</title>
<ellipse cx="233" cy="1685" rx="27" ry="18" style="fill:none;stroke:red;"/>
<text text-anchor="middle" style="font-size:8.00;" x="233" y="1688">label</text>
</g>
<g id="edge24" class="edge"><title>branchlabel&#45;&gt;fake_label_30</title>
<path style="fill:none;stroke:black;" d="M321,1602C300,1622 274,1646 256,1663"/>
<polygon style="fill:black;stroke:black;" points="259,1665 249,1670 254,1660 259,1665"/>
</g>
<g id="node5" class="node"><title>branchmessage</title>
<polygon style="fill:#c1cdcc;stroke:#c1cdcc;" points="130,1297 130,1235 290,1235 290,1297 130,1297"/>
<polygon style="fill:white;stroke:white;" points="133,1252 133,1238 287,1238 287,1252 133,1252"/>
<text text-anchor="middle" style="font-size:8.00;" x="210" y="1248">branchmessage</text>
<polygon style="fill:none;stroke:black;" points="133,1252 133,1238 287,1238 287,1252 133,1252"/>
<text text-anchor="middle" style="font-size:8.00;" x="139" y="1263">id</text>
<text text-anchor="middle" style="font-size:8.00;" x="179" y="1263">serial</text>
<text text-anchor="middle" style="font-size:8.00;" x="230" y="1263"> PRIMARY KEY </text>
<text text-anchor="middle" style="font-size:8.00;" x="147" y="1277">branch</text>
<text text-anchor="middle" style="font-size:8.00;" x="182" y="1277">integer</text>
<text text-anchor="middle" style="font-size:8.00;" x="240" y="1277"> REFERENCES branch </text>
<text text-anchor="middle" style="font-size:8.00;" x="150" y="1291">message</text>
<text text-anchor="middle" style="font-size:8.00;" x="182" y="1291">integer</text>
<text text-anchor="middle" style="font-size:8.00;" x="243" y="1291"> REFERENCES message </text>
<polygon style="fill:none;stroke:black;" points="130,1297 130,1235 290,1235 290,1297 130,1297"/>
</g>
<g id="edge26" class="edge"><title>branchmessage&#45;&gt;branch</title>
<path style="fill:none;stroke:black;" d="M298,1258C363,1252 454,1244 536,1237"/>
<polygon style="fill:black;stroke:black;" points="536,1234 546,1236 536,1240 536,1234"/>
</g>
<g id="node34" class="node"><title>fake_message_33</title>
<ellipse cx="33" cy="1275" rx="27" ry="18" style="fill:none;stroke:red;"/>
<text text-anchor="middle" style="font-size:8.00;" x="33" y="1278">message</text>
</g>
<g id="edge28" class="edge"><title>branchmessage&#45;&gt;fake_message_33</title>
<path style="fill:none;stroke:black;" d="M122,1270C103,1272 85,1273 70,1273"/>
<polygon style="fill:black;stroke:black;" points="70,1276 60,1274 70,1270 70,1276"/>
</g>
<g id="node6" class="node"><title>branchrelationship</title>
<polygon style="fill:#c1cdcc;stroke:#c1cdcc;" points="540,1705 540,1629 688,1629 688,1705 540,1705"/>
<polygon style="fill:white;stroke:white;" points="543,1646 543,1632 685,1632 685,1646 543,1646"/>
<text text-anchor="middle" style="font-size:8.00;" x="614" y="1642">branchrelationship</text>
<polygon style="fill:none;stroke:black;" points="543,1646 543,1632 685,1632 685,1646 543,1646"/>
<text text-anchor="middle" style="font-size:8.00;" x="557" y="1657">subject</text>
<text text-anchor="middle" style="font-size:8.00;" x="586" y="1657">integer</text>
<text text-anchor="middle" style="font-size:8.00;" x="644" y="1657"> REFERENCES branch </text>
<text text-anchor="middle" style="font-size:8.00;" x="554" y="1671">label</text>
<text text-anchor="middle" style="font-size:8.00;" x="586" y="1671">integer</text>
<text text-anchor="middle" style="font-size:8.00;" x="555" y="1685">object</text>
<text text-anchor="middle" style="font-size:8.00;" x="586" y="1685">integer</text>
<text text-anchor="middle" style="font-size:8.00;" x="644" y="1685"> REFERENCES branch </text>
<text text-anchor="middle" style="font-size:8.00;" x="549" y="1699">id</text>
<text text-anchor="middle" style="font-size:8.00;" x="586" y="1699">integer</text>
<text text-anchor="middle" style="font-size:8.00;" x="634" y="1699"> PRIMARY KEY </text>
<polygon style="fill:none;stroke:black;" points="540,1705 540,1629 688,1629 688,1705 540,1705"/>
</g>
<g id="edge30" class="edge"><title>branchrelationship&#45;&gt;branch</title>
<path style="fill:none;stroke:black;" d="M625,1625C634,1587 649,1528 665,1467"/>
<polygon style="fill:black;stroke:black;" points="662,1466 667,1457 668,1467 662,1466"/>
</g>
<g id="edge32" class="edge"><title>branchrelationship&#45;&gt;branch</title>
<path style="fill:none;stroke:black;" d="M625,1625C634,1587 649,1528 665,1467"/>
<polygon style="fill:black;stroke:black;" points="662,1466 667,1457 668,1467 662,1466"/>
</g>
<g id="node7" class="node"><title>developmentmanifest</title>
<polygon style="fill:#c1cdcc;stroke:#c1cdcc;" points="689,314 689,210 935,210 935,314 689,314"/>
<polygon style="fill:white;stroke:white;" points="692,227 692,213 932,213 932,227 692,227"/>
<text text-anchor="middle" style="font-size:8.00;" x="812" y="223">developmentmanifest</text>
<polygon style="fill:none;stroke:black;" points="692,227 692,213 932,213 932,227 692,227"/>
<text text-anchor="middle" style="font-size:8.00;" x="698" y="238">id</text>
<text text-anchor="middle" style="font-size:8.00;" x="775" y="238">serial</text>
<text text-anchor="middle" style="font-size:8.00;" x="837" y="238"> PRIMARY KEY </text>
<text text-anchor="middle" style="font-size:8.00;" x="705" y="252">owner</text>
<text text-anchor="middle" style="font-size:8.00;" x="778" y="252">integer</text>
<text text-anchor="middle" style="font-size:8.00;" x="847" y="252"> REFERENCES person </text>
<text text-anchor="middle" style="font-size:8.00;" x="715" y="266">distrorelease</text>
<text text-anchor="middle" style="font-size:8.00;" x="778" y="266">integer</text>
<text text-anchor="middle" style="font-size:8.00;" x="856" y="266"> REFERENCES distrorelease </text>
<text text-anchor="middle" style="font-size:8.00;" x="727" y="280">sourcepackagename</text>
<text text-anchor="middle" style="font-size:8.00;" x="778" y="280">integer</text>
<text text-anchor="middle" style="font-size:8.00;" x="869" y="280"> REFERENCES sourcepackagename </text>
<text text-anchor="middle" style="font-size:8.00;" x="709" y="294">manifest</text>
<text text-anchor="middle" style="font-size:8.00;" x="778" y="294">integer</text>
<text text-anchor="middle" style="font-size:8.00;" x="850" y="294"> REFERENCES manifest </text>
<text text-anchor="middle" style="font-size:8.00;" x="713" y="308">datecreated</text>
<text text-anchor="middle" style="font-size:8.00;" x="784" y="308">timestamp</text>
<polygon style="fill:none;stroke:black;" points="689,314 689,210 935,210 935,314 689,314"/>
</g>
<g id="node8" class="node"><title>manifest</title>
<polygon style="fill:#c1cdcc;stroke:#c1cdcc;" points="918,526 918,464 1072,464 1072,526 918,526"/>
<polygon style="fill:white;stroke:white;" points="921,481 921,467 1069,467 1069,481 921,481"/>
<text text-anchor="middle" style="font-size:8.00;" x="995" y="477">manifest</text>
<polygon style="fill:none;stroke:black;" points="921,481 921,467 1069,467 1069,481 921,481"/>
<text text-anchor="middle" style="font-size:8.00;" x="927" y="492">id</text>
<text text-anchor="middle" style="font-size:8.00;" x="975" y="492">serial</text>
<text text-anchor="middle" style="font-size:8.00;" x="1037" y="492"> PRIMARY KEY </text>
<text text-anchor="middle" style="font-size:8.00;" x="942" y="506">datecreated</text>
<text text-anchor="middle" style="font-size:8.00;" x="984" y="506">timestamp</text>
<text text-anchor="middle" style="font-size:8.00;" x="931" y="520">uuid</text>
<text text-anchor="middle" style="font-size:8.00;" x="973" y="520">text</text>
<text text-anchor="middle" style="font-size:8.00;" x="1025" y="520"> UNIQUE </text>
<polygon style="fill:none;stroke:black;" points="918,526 918,464 1072,464 1072,526 918,526"/>
</g>
<g id="edge40" class="edge"><title>developmentmanifest&#45;&gt;manifest</title>
<path style="fill:none;stroke:black;" d="M856,318C889,359 931,414 961,452"/>
<polygon style="fill:black;stroke:black;" points="964,450 967,460 958,454 964,450"/>
</g>
<g id="node38" class="node"><title>fake_person_103</title>
<ellipse cx="621" cy="132" rx="27" ry="18" style="fill:none;stroke:red;"/>
<text text-anchor="middle" style="font-size:8.00;" x="621" y="135">person</text>
</g>
<g id="edge34" class="edge"><title>developmentmanifest&#45;&gt;fake_person_103</title>
<path style="fill:none;stroke:black;" d="M730,206C701,187 670,166 648,151"/>
<polygon style="fill:black;stroke:black;" points="646,154 640,145 650,148 646,154"/>
</g>
<g id="node40" class="node"><title>fake_distrorelease_105</title>
<ellipse cx="847" cy="23" rx="32" ry="18" style="fill:none;stroke:red;"/>
<text text-anchor="middle" style="font-size:8.00;" x="847" y="26">distrorelease</text>
</g>
<g id="edge36" class="edge"><title>developmentmanifest&#45;&gt;fake_distrorelease_105</title>
<path style="fill:none;stroke:black;" d="M846,206C851,195 856,183 858,171 866,130 860,81 853,51"/>
<polygon style="fill:black;stroke:black;" points="850,51 851,41 856,50 850,51"/>
</g>
<g id="node42" class="node"><title>fake_sourcepackagename_107</title>
<ellipse cx="812" cy="171" rx="44" ry="18" style="fill:none;stroke:red;"/>
<text text-anchor="middle" style="font-size:8.00;" x="812" y="174">sourcepackagename</text>
</g>
<g id="edge38" class="edge"><title>developmentmanifest&#45;&gt;fake_sourcepackagename_107</title>
<path style="fill:none;stroke:black;" d="M812,206C812,204 812,201 812,199"/>
<polygon style="fill:black;stroke:black;" points="809,199 812,189 816,199 809,199"/>
</g>
<g id="node9" class="node"><title>manifestancestry</title>
<polygon style="fill:#c1cdcc;stroke:#c1cdcc;" points="1030,306 1030,244 1216,244 1216,306 1030,306"/>
<polygon style="fill:white;stroke:white;" points="1033,261 1033,247 1213,247 1213,261 1033,261"/>
<text text-anchor="middle" style="font-size:8.00;" x="1123" y="257">manifestancestry</text>
<polygon style="fill:none;stroke:black;" points="1033,261 1033,247 1213,247 1213,261 1033,261"/>
<text text-anchor="middle" style="font-size:8.00;" x="1039" y="272">id</text>
<text text-anchor="middle" style="font-size:8.00;" x="1073" y="272">serial</text>
<text text-anchor="middle" style="font-size:8.00;" x="1124" y="272"> PRIMARY KEY </text>
<text text-anchor="middle" style="font-size:8.00;" x="1046" y="286">parent</text>
<text text-anchor="middle" style="font-size:8.00;" x="1076" y="286">integer</text>
<text text-anchor="middle" style="font-size:8.00;" x="1153" y="286"> UNIQUE REFERENCES manifest </text>
<text text-anchor="middle" style="font-size:8.00;" x="1044" y="300">child</text>
<text text-anchor="middle" style="font-size:8.00;" x="1076" y="300">integer</text>
<text text-anchor="middle" style="font-size:8.00;" x="1153" y="300"> REFERENCES manifest UNIQUE </text>
<polygon style="fill:none;stroke:black;" points="1030,306 1030,244 1216,244 1216,306 1030,306"/>
</g>
<g id="edge42" class="edge"><title>manifestancestry&#45;&gt;manifest</title>
<path style="fill:none;stroke:black;" d="M1102,310C1080,349 1044,410 1020,451"/>
<polygon style="fill:black;stroke:black;" points="1023,453 1015,460 1017,450 1023,453"/>
</g>
<g id="edge44" class="edge"><title>manifestancestry&#45;&gt;manifest</title>
<path style="fill:none;stroke:black;" d="M1102,310C1080,349 1044,410 1020,451"/>
<polygon style="fill:black;stroke:black;" points="1023,453 1015,460 1017,450 1023,453"/>
</g>
<g id="node10" class="node"><title>manifestentry</title>
<polygon style="fill:#c1cdcc;stroke:#c1cdcc;" points="859,718 859,558 1187,558 1187,718 859,718"/>
<polygon style="fill:white;stroke:white;" points="862,575 862,561 1184,561 1184,575 862,575"/>
<text text-anchor="middle" style="font-size:8.00;" x="1023" y="571">manifestentry</text>
<polygon style="fill:none;stroke:black;" points="862,575 862,561 1184,561 1184,575 862,575"/>
<text text-anchor="middle" style="font-size:8.00;" x="868" y="586">id</text>
<text text-anchor="middle" style="font-size:8.00;" x="913" y="586">serial</text>
<text text-anchor="middle" style="font-size:8.00;" x="964" y="586"> PRIMARY KEY </text>
<text text-anchor="middle" style="font-size:8.00;" x="879" y="600">manifest</text>
<text text-anchor="middle" style="font-size:8.00;" x="916" y="600">integer</text>
<text text-anchor="middle" style="font-size:8.00;" x="1058" y="600"> REFERENCES manifest UNIQUE UNIQUE REFERENCES manifestentry </text>
<text text-anchor="middle" style="font-size:8.00;" x="879" y="614">sequence</text>
<text text-anchor="middle" style="font-size:8.00;" x="916" y="614">integer</text>
<text text-anchor="middle" style="font-size:8.00;" x="952" y="614"> UNIQUE </text>
<text text-anchor="middle" style="font-size:8.00;" x="876" y="628">branch</text>
<text text-anchor="middle" style="font-size:8.00;" x="916" y="628">integer</text>
<text text-anchor="middle" style="font-size:8.00;" x="974" y="628"> REFERENCES branch </text>
<text text-anchor="middle" style="font-size:8.00;" x="881" y="642">changeset</text>
<text text-anchor="middle" style="font-size:8.00;" x="916" y="642">integer</text>
<text text-anchor="middle" style="font-size:8.00;" x="976" y="642"> REFERENCES revision </text>
<text text-anchor="middle" style="font-size:8.00;" x="880" y="656">entrytype</text>
<text text-anchor="middle" style="font-size:8.00;" x="916" y="656">integer</text>
<text text-anchor="middle" style="font-size:8.00;" x="872" y="670">path</text>
<text text-anchor="middle" style="font-size:8.00;" x="911" y="670">text</text>
<text text-anchor="middle" style="font-size:8.00;" x="878" y="684">dirname</text>
<text text-anchor="middle" style="font-size:8.00;" x="911" y="684">text</text>
<text text-anchor="middle" style="font-size:8.00;" x="871" y="698">hint</text>
<text text-anchor="middle" style="font-size:8.00;" x="916" y="698">integer</text>
<text text-anchor="middle" style="font-size:8.00;" x="952" y="698"> UNIQUE </text>
<text text-anchor="middle" style="font-size:8.00;" x="875" y="712">parent</text>
<text text-anchor="middle" style="font-size:8.00;" x="916" y="712">integer</text>
<text text-anchor="middle" style="font-size:8.00;" x="985" y="712"> REFERENCES manifestentry </text>
<polygon style="fill:none;stroke:black;" points="859,718 859,558 1187,558 1187,718 859,718"/>
</g>
<g id="edge50" class="edge"><title>manifestentry&#45;&gt;branch</title>
<path style="fill:none;stroke:black;" d="M980,722C946,788 898,883 853,972"/>
<polygon style="fill:black;stroke:black;" points="856,974 848,981 850,971 856,974"/>
</g>
<g id="edge46" class="edge"><title>manifestentry&#45;&gt;manifest</title>
<path style="fill:none;stroke:black;" d="M1007,554C1006,549 1005,545 1004,540"/>
<polygon style="fill:black;stroke:black;" points="1001,540 1002,530 1007,539 1001,540"/>
</g>
<g id="edge48" class="edge"><title>manifestentry&#45;&gt;manifestentry</title>
<path style="fill:none;stroke:black;" d="M1195,683C1206,672 1213,657 1213,638 1213,623 1209,611 1202,601"/>
<polygon style="fill:black;stroke:black;" points="1199,603 1195,593 1204,598 1199,603"/>
</g>
<g id="node11" class="node"><title>revision</title>
<polygon style="fill:#c1cdcc;stroke:#c1cdcc;" points="1352,744 1352,612 1566,612 1566,744 1352,744"/>
<polygon style="fill:white;stroke:white;" points="1355,629 1355,615 1563,615 1563,629 1355,629"/>
<text text-anchor="middle" style="font-size:8.00;" x="1459" y="625">revision</text>
<polygon style="fill:none;stroke:black;" points="1355,629 1355,615 1563,615 1563,629 1355,629"/>
<text text-anchor="middle" style="font-size:8.00;" x="1361" y="640">id</text>
<text text-anchor="middle" style="font-size:8.00;" x="1425" y="640">serial</text>
<text text-anchor="middle" style="font-size:8.00;" x="1487" y="640"> PRIMARY KEY </text>
<text text-anchor="middle" style="font-size:8.00;" x="1378" y="654">date_created</text>
<text text-anchor="middle" style="font-size:8.00;" x="1434" y="654">timestamp</text>
<text text-anchor="middle" style="font-size:8.00;" x="1373" y="668">log_body</text>
<text text-anchor="middle" style="font-size:8.00;" x="1423" y="668">text</text>
<text text-anchor="middle" style="font-size:8.00;" x="1383" y="682">revision_author</text>
<text text-anchor="middle" style="font-size:8.00;" x="1428" y="682">integer</text>
<text text-anchor="middle" style="font-size:8.00;" x="1509" y="682"> REFERENCES revisionauthor </text>
<text text-anchor="middle" style="font-size:8.00;" x="1370" y="696">gpgkey</text>
<text text-anchor="middle" style="font-size:8.00;" x="1428" y="696">integer</text>
<text text-anchor="middle" style="font-size:8.00;" x="1498" y="696"> REFERENCES gpgkey </text>
<text text-anchor="middle" style="font-size:8.00;" x="1368" y="710">owner</text>
<text text-anchor="middle" style="font-size:8.00;" x="1428" y="710">integer</text>
<text text-anchor="middle" style="font-size:8.00;" x="1497" y="710"> REFERENCES person </text>
<text text-anchor="middle" style="font-size:8.00;" x="1376" y="724">revision_id</text>
<text text-anchor="middle" style="font-size:8.00;" x="1423" y="724">text</text>
<text text-anchor="middle" style="font-size:8.00;" x="1475" y="724"> UNIQUE </text>
<text text-anchor="middle" style="font-size:8.00;" x="1380" y="738">revision_date</text>
<text text-anchor="middle" style="font-size:8.00;" x="1434" y="738">timestamp</text>
<polygon style="fill:none;stroke:black;" points="1352,744 1352,612 1566,612 1566,744 1352,744"/>
</g>
<g id="edge52" class="edge"><title>manifestentry&#45;&gt;revision</title>
<path style="fill:none;stroke:black;" d="M1195,654C1241,659 1290,662 1334,666"/>
<polygon style="fill:black;stroke:black;" points="1334,663 1344,667 1334,669 1334,663"/>
</g>
<g id="node12" class="node"><title>revisionauthor</title>
<polygon style="fill:#c1cdcc;stroke:#c1cdcc;" points="1680,706 1680,658 1800,658 1800,706 1680,706"/>
<polygon style="fill:white;stroke:white;" points="1683,675 1683,661 1797,661 1797,675 1683,675"/>
<text text-anchor="middle" style="font-size:8.00;" x="1740" y="671">revisionauthor</text>
<polygon style="fill:none;stroke:black;" points="1683,675 1683,661 1797,661 1797,675 1683,675"/>
<text text-anchor="middle" style="font-size:8.00;" x="1689" y="686">id</text>
<text text-anchor="middle" style="font-size:8.00;" x="1720" y="686">serial</text>
<text text-anchor="middle" style="font-size:8.00;" x="1765" y="686"> PRIMARY KEY </text>
<text text-anchor="middle" style="font-size:8.00;" x="1695" y="700">name</text>
<text text-anchor="middle" style="font-size:8.00;" x="1718" y="700">text</text>
<text text-anchor="middle" style="font-size:8.00;" x="1753" y="700"> UNIQUE </text>
<polygon style="fill:none;stroke:black;" points="1680,706 1680,658 1800,658 1800,706 1680,706"/>
</g>
<g id="edge54" class="edge"><title>revision&#45;&gt;revisionauthor</title>
<path style="fill:none;stroke:black;" d="M1574,680C1603,680 1635,681 1662,681"/>
<polygon style="fill:black;stroke:black;" points="1662,677 1672,681 1662,684 1662,677"/>
</g>
<g id="node52" class="node"><title>fake_gpgkey_310</title>
<ellipse cx="1561" cy="478" rx="27" ry="18" style="fill:none;stroke:red;"/>
<text text-anchor="middle" style="font-size:8.00;" x="1561" y="481">gpgkey</text>
</g>
<g id="edge56" class="edge"><title>revision&#45;&gt;fake_gpgkey_310</title>
<path style="fill:none;stroke:black;" d="M1495,608C1513,571 1534,530 1547,504"/>
<polygon style="fill:black;stroke:black;" points="1544,502 1552,495 1550,505 1544,502"/>
</g>
<g id="node54" class="node"><title>fake_person_312</title>
<ellipse cx="1636" cy="816" rx="27" ry="18" style="fill:none;stroke:red;"/>
<text text-anchor="middle" style="font-size:8.00;" x="1636" y="819">person</text>
</g>
<g id="edge58" class="edge"><title>revision&#45;&gt;fake_person_312</title>
<path style="fill:none;stroke:black;" d="M1549,748C1572,766 1594,783 1610,795"/>
<polygon style="fill:black;stroke:black;" points="1613,793 1618,802 1608,798 1613,793"/>
</g>
<g id="edge60" class="edge"><title>revisionnumber&#45;&gt;branch</title>
<path style="fill:none;stroke:black;" d="M1131,981C1074,1015 992,1063 917,1107"/>
<polygon style="fill:black;stroke:black;" points="918,1110 908,1112 915,1104 918,1110"/>
</g>
<g id="edge62" class="edge"><title>revisionnumber&#45;&gt;revision</title>
<path style="fill:none;stroke:black;" d="M1244,897C1282,859 1338,802 1383,755"/>
<polygon style="fill:black;stroke:black;" points="1380,753 1390,748 1385,758 1380,753"/>
</g>
<g id="node14" class="node"><title>revisionparent</title>
<polygon style="fill:#c1cdcc;stroke:#c1cdcc;" points="1640,537 1640,461 1834,461 1834,537 1640,537"/>
<polygon style="fill:white;stroke:white;" points="1643,478 1643,464 1831,464 1831,478 1643,478"/>
<text text-anchor="middle" style="font-size:8.00;" x="1737" y="474">revisionparent</text>
<polygon style="fill:none;stroke:black;" points="1643,478 1643,464 1831,464 1831,478 1643,478"/>
<text text-anchor="middle" style="font-size:8.00;" x="1649" y="489">id</text>
<text text-anchor="middle" style="font-size:8.00;" x="1692" y="489">serial</text>
<text text-anchor="middle" style="font-size:8.00;" x="1743" y="489"> PRIMARY KEY </text>
<text text-anchor="middle" style="font-size:8.00;" x="1660" y="503">sequence</text>
<text text-anchor="middle" style="font-size:8.00;" x="1695" y="503">integer</text>
<text text-anchor="middle" style="font-size:8.00;" x="1659" y="517">revision</text>
<text text-anchor="middle" style="font-size:8.00;" x="1695" y="517">integer</text>
<text text-anchor="middle" style="font-size:8.00;" x="1771" y="517"> REFERENCES revision UNIQUE </text>
<text text-anchor="middle" style="font-size:8.00;" x="1661" y="531">parent_id</text>
<text text-anchor="middle" style="font-size:8.00;" x="1690" y="531">text</text>
<text text-anchor="middle" style="font-size:8.00;" x="1731" y="531"> UNIQUE </text>
<polygon style="fill:none;stroke:black;" points="1640,537 1640,461 1834,461 1834,537 1640,537"/>
</g>
<g id="edge64" class="edge"><title>revisionparent&#45;&gt;revision</title>
<path style="fill:none;stroke:black;" d="M1671,541C1643,559 1608,581 1576,602"/>
<polygon style="fill:black;stroke:black;" points="1577,605 1567,608 1573,600 1577,605"/>
</g>
</g>
</svg>
