<?xml version="1.0" encoding="UTF-8" standalone="no"?>
<!DOCTYPE svg PUBLIC "-//W3C//DTD SVG 1.0//EN"
 "http://www.w3.org/TR/2001/REC-SVG-20010904/DTD/svg10.dtd">
<!-- Generated by fdp version 2.2 (Sat Feb  5 01:37:52 UTC 2005)
     For user: (stub) Stuart Bishop,,,   Title: g    Pages: 1 -->
<svg width="326px" height="535px"
 viewBox = "-1 -1 325 534"
 xmlns="http://www.w3.org/2000/svg">
<g id="graph0" class="graph" transform = "scale(0.274541)"
 style="font-family:Times-Roman;font-size:14.00;">
<title>g</title>
<text text-anchor="middle" style="font-size:22.00;" x="577" y="1925">Buttress</text>
<g id="node1" class="node"><title>archarchive</title>
<polygon style="fill:#c1cdcc;stroke:#c1cdcc;" points="506,1422 506,1332 638,1332 638,1422 506,1422"/>
<polygon style="fill:white;stroke:white;" points="509,1347 509,1335 635,1335 635,1347 509,1347"/>
<text text-anchor="middle" style="font-size:6.00;" x="572" y="1343">archarchive</text>
<polygon style="fill:none;stroke:black;" points="509,1347 509,1335 635,1335 635,1347 509,1347"/>
<text text-anchor="middle" style="font-size:6.00;" x="514" y="1356">id</text>
<text text-anchor="middle" style="font-size:6.00;" x="553" y="1356">serial</text>
<text text-anchor="middle" style="font-size:6.00;" x="596" y="1356"> PRIMARY KEY </text>
<text text-anchor="middle" style="font-size:6.00;" x="519" y="1368">name</text>
<text text-anchor="middle" style="font-size:6.00;" x="552" y="1368">text</text>
<text text-anchor="middle" style="font-size:6.00;" x="587" y="1368"> UNIQUE </text>
<text text-anchor="middle" style="font-size:6.00;" x="517" y="1380">title</text>
<text text-anchor="middle" style="font-size:6.00;" x="552" y="1380">text</text>
<text text-anchor="middle" style="font-size:6.00;" x="526" y="1392">description</text>
<text text-anchor="middle" style="font-size:6.00;" x="552" y="1392">text</text>
<text text-anchor="middle" style="font-size:6.00;" x="520" y="1404">visible</text>
<text text-anchor="middle" style="font-size:6.00;" x="557" y="1404">boolean</text>
<text text-anchor="middle" style="font-size:6.00;" x="520" y="1416">owner</text>
<text text-anchor="middle" style="font-size:6.00;" x="555" y="1416">integer</text>
<text text-anchor="middle" style="font-size:6.00;" x="603" y="1416"> REFERENCES person </text>
<polygon style="fill:none;stroke:black;" points="506,1422 506,1332 638,1332 638,1422 506,1422"/>
</g>
<g id="node17" class="node"><title>fake_person_1</title>
<ellipse cx="634" cy="1530" rx="27" ry="18" style="fill:none;stroke:red;"/>
<text text-anchor="middle" style="font-size:6.00;" x="634" y="1532">person</text>
</g>
<g id="edge2" class="edge"><title>archarchive&#45;&gt;fake_person_1</title>
<path style="fill:none;stroke:black;" d="M592,1426C602,1452 614,1482 623,1503"/>
<polygon style="fill:black;stroke:black;" points="626,1501 627,1512 620,1504 626,1501"/>
</g>
<g id="node2" class="node"><title>archarchivelocation</title>
<polygon style="fill:#c1cdcc;stroke:#c1cdcc;" points="344,1620 344,1542 490,1542 490,1620 344,1620"/>
<polygon style="fill:white;stroke:white;" points="347,1557 347,1545 487,1545 487,1557 347,1557"/>
<text text-anchor="middle" style="font-size:6.00;" x="417" y="1553">archarchivelocation</text>
<polygon style="fill:none;stroke:black;" points="347,1557 347,1545 487,1545 487,1557 347,1557"/>
<text text-anchor="middle" style="font-size:6.00;" x="352" y="1566">id</text>
<text text-anchor="middle" style="font-size:6.00;" x="393" y="1566">serial</text>
<text text-anchor="middle" style="font-size:6.00;" x="436" y="1566"> PRIMARY KEY </text>
<text text-anchor="middle" style="font-size:6.00;" x="359" y="1578">archive</text>
<text text-anchor="middle" style="font-size:6.00;" x="395" y="1578">integer</text>
<text text-anchor="middle" style="font-size:6.00;" x="449" y="1578"> REFERENCES archarchive </text>
<text text-anchor="middle" style="font-size:6.00;" x="364" y="1590">archivetype</text>
<text text-anchor="middle" style="font-size:6.00;" x="395" y="1590">integer</text>
<text text-anchor="middle" style="font-size:6.00;" x="353" y="1602">url</text>
<text text-anchor="middle" style="font-size:6.00;" x="392" y="1602">text</text>
<text text-anchor="middle" style="font-size:6.00;" x="363" y="1614">gpgsigned</text>
<text text-anchor="middle" style="font-size:6.00;" x="397" y="1614">boolean</text>
<polygon style="fill:none;stroke:black;" points="344,1620 344,1542 490,1542 490,1620 344,1620"/>
</g>
<g id="edge4" class="edge"><title>archarchivelocation&#45;&gt;archarchive</title>
<path style="fill:none;stroke:black;" d="M450,1538C473,1508 504,1467 529,1434"/>
<polygon style="fill:black;stroke:black;" points="526,1432 535,1426 532,1436 526,1432"/>
</g>
<g id="node3" class="node"><title>archarchivelocationsigner</title>
<polygon style="fill:#c1cdcc;stroke:#c1cdcc;" points="157,1786 157,1744 337,1744 337,1786 157,1786"/>
<polygon style="fill:white;stroke:white;" points="160,1759 160,1747 334,1747 334,1759 160,1759"/>
<text text-anchor="middle" style="font-size:6.00;" x="247" y="1755">archarchivelocationsigner</text>
<polygon style="fill:none;stroke:black;" points="160,1759 160,1747 334,1747 334,1759 160,1759"/>
<text text-anchor="middle" style="font-size:6.00;" x="187" y="1768">archarchivelocation</text>
<text text-anchor="middle" style="font-size:6.00;" x="226" y="1768">integer</text>
<text text-anchor="middle" style="font-size:6.00;" x="287" y="1768"> REFERENCES archarchivelocation </text>
<text text-anchor="middle" style="font-size:6.00;" x="172" y="1780">gpgkey</text>
<text text-anchor="middle" style="font-size:6.00;" x="226" y="1780">integer</text>
<text text-anchor="middle" style="font-size:6.00;" x="272" y="1780"> REFERENCES gpgkey </text>
<polygon style="fill:none;stroke:black;" points="157,1786 157,1744 337,1744 337,1786 157,1786"/>
</g>
<g id="edge6" class="edge"><title>archarchivelocationsigner&#45;&gt;archarchivelocation</title>
<path style="fill:none;stroke:black;" d="M270,1740C296,1712 338,1667 370,1632"/>
<polygon style="fill:black;stroke:black;" points="368,1629 377,1624 373,1634 368,1629"/>
</g>
<g id="node21" class="node"><title>fake_gpgkey_5</title>
<ellipse cx="115" cy="1882" rx="27" ry="18" style="fill:none;stroke:red;"/>
<text text-anchor="middle" style="font-size:6.00;" x="115" y="1884">gpgkey</text>
</g>
<g id="edge8" class="edge"><title>archarchivelocationsigner&#45;&gt;fake_gpgkey_5</title>
<path style="fill:none;stroke:black;" d="M219,1790C195,1811 161,1841 138,1861"/>
<polygon style="fill:black;stroke:black;" points="141,1863 131,1868 136,1858 141,1863"/>
</g>
<g id="node4" class="node"><title>archconfig</title>
<polygon style="fill:#c1cdcc;stroke:#c1cdcc;" points="134,549 134,459 290,459 290,549 134,549"/>
<polygon style="fill:white;stroke:white;" points="137,474 137,462 287,462 287,474 137,474"/>
<text text-anchor="middle" style="font-size:6.00;" x="212" y="470">archconfig</text>
<polygon style="fill:none;stroke:black;" points="137,474 137,462 287,462 287,474 137,474"/>
<text text-anchor="middle" style="font-size:6.00;" x="142" y="483">id</text>
<text text-anchor="middle" style="font-size:6.00;" x="189" y="483">serial</text>
<text text-anchor="middle" style="font-size:6.00;" x="229" y="483"> PRIMARY KEY </text>
<text text-anchor="middle" style="font-size:6.00;" x="147" y="495">name</text>
<text text-anchor="middle" style="font-size:6.00;" x="188" y="495">text</text>
<text text-anchor="middle" style="font-size:6.00;" x="145" y="507">title</text>
<text text-anchor="middle" style="font-size:6.00;" x="188" y="507">text</text>
<text text-anchor="middle" style="font-size:6.00;" x="154" y="519">description</text>
<text text-anchor="middle" style="font-size:6.00;" x="188" y="519">text</text>
<text text-anchor="middle" style="font-size:6.00;" x="158" y="531">productrelease</text>
<text text-anchor="middle" style="font-size:6.00;" x="191" y="531">integer</text>
<text text-anchor="middle" style="font-size:6.00;" x="246" y="531"> REFERENCES productrelease </text>
<text text-anchor="middle" style="font-size:6.00;" x="148" y="543">owner</text>
<text text-anchor="middle" style="font-size:6.00;" x="191" y="543">integer</text>
<text text-anchor="middle" style="font-size:6.00;" x="236" y="543"> REFERENCES person </text>
<polygon style="fill:none;stroke:black;" points="134,549 134,459 290,459 290,549 134,549"/>
</g>
<g id="node23" class="node"><title>fake_productrelease_7</title>
<ellipse cx="35" cy="478" rx="29" ry="18" style="fill:none;stroke:red;"/>
<text text-anchor="middle" style="font-size:6.00;" x="35" y="480">productrelease</text>
</g>
<g id="edge10" class="edge"><title>archconfig&#45;&gt;fake_productrelease_7</title>
<path style="fill:none;stroke:black;" d="M126,491C107,489 89,486 73,484"/>
<polygon style="fill:black;stroke:black;" points="72,487 63,482 73,481 72,487"/>
</g>
<g id="node25" class="node"><title>fake_person_9</title>
<ellipse cx="101" cy="366" rx="27" ry="18" style="fill:none;stroke:red;"/>
<text text-anchor="middle" style="font-size:6.00;" x="101" y="368">person</text>
</g>
<g id="edge12" class="edge"><title>archconfig&#45;&gt;fake_person_9</title>
<path style="fill:none;stroke:black;" d="M173,455C155,433 135,408 120,390"/>
<polygon style="fill:black;stroke:black;" points="117,392 114,382 123,388 117,392"/>
</g>
<g id="node5" class="node"><title>archconfigentry</title>
<polygon style="fill:#c1cdcc;stroke:#c1cdcc;" points="372,705 372,639 566,639 566,705 372,705"/>
<polygon style="fill:white;stroke:white;" points="375,654 375,642 563,642 563,654 375,654"/>
<text text-anchor="middle" style="font-size:6.00;" x="469" y="650">archconfigentry</text>
<polygon style="fill:none;stroke:black;" points="375,654 375,642 563,642 563,654 375,654"/>
<text text-anchor="middle" style="font-size:6.00;" x="391" y="663">archconfig</text>
<text text-anchor="middle" style="font-size:6.00;" x="421" y="663">integer</text>
<text text-anchor="middle" style="font-size:6.00;" x="471" y="663"> REFERENCES archconfig </text>
<text text-anchor="middle" style="font-size:6.00;" x="383" y="675">path</text>
<text text-anchor="middle" style="font-size:6.00;" x="418" y="675">text</text>
<text text-anchor="middle" style="font-size:6.00;" x="386" y="687">branch</text>
<text text-anchor="middle" style="font-size:6.00;" x="421" y="687">integer</text>
<text text-anchor="middle" style="font-size:6.00;" x="499" y="687"> REFERENCES branch REFERENCES changeset </text>
<text text-anchor="middle" style="font-size:6.00;" x="390" y="699">changeset</text>
<text text-anchor="middle" style="font-size:6.00;" x="421" y="699">integer</text>
<text text-anchor="middle" style="font-size:6.00;" x="470" y="699"> REFERENCES changeset </text>
<polygon style="fill:none;stroke:black;" points="372,705 372,639 566,639 566,705 372,705"/>
</g>
<g id="edge14" class="edge"><title>archconfigentry&#45;&gt;archconfig</title>
<path style="fill:none;stroke:black;" d="M412,635C379,613 335,583 297,559"/>
<polygon style="fill:black;stroke:black;" points="294,561 288,553 298,556 294,561"/>
</g>
<g id="node8" class="node"><title>branch</title>
<polygon style="fill:#c1cdcc;stroke:#c1cdcc;" points="640,882 640,792 798,792 798,882 640,882"/>
<polygon style="fill:white;stroke:white;" points="643,807 643,795 795,795 795,807 643,807"/>
<text text-anchor="middle" style="font-size:6.00;" x="719" y="803">branch</text>
<polygon style="fill:none;stroke:black;" points="643,807 643,795 795,795 795,807 643,807"/>
<text text-anchor="middle" style="font-size:6.00;" x="648" y="816">id</text>
<text text-anchor="middle" style="font-size:6.00;" x="696" y="816">serial</text>
<text text-anchor="middle" style="font-size:6.00;" x="736" y="816"> PRIMARY KEY </text>
<text text-anchor="middle" style="font-size:6.00;" x="664" y="828">archnamespace</text>
<text text-anchor="middle" style="font-size:6.00;" x="698" y="828">integer</text>
<text text-anchor="middle" style="font-size:6.00;" x="753" y="828"> REFERENCES archnamespace </text>
<text text-anchor="middle" style="font-size:6.00;" x="651" y="840">title</text>
<text text-anchor="middle" style="font-size:6.00;" x="695" y="840">text</text>
<text text-anchor="middle" style="font-size:6.00;" x="660" y="852">description</text>
<text text-anchor="middle" style="font-size:6.00;" x="695" y="852">text</text>
<text text-anchor="middle" style="font-size:6.00;" x="654" y="864">owner</text>
<text text-anchor="middle" style="font-size:6.00;" x="698" y="864">integer</text>
<text text-anchor="middle" style="font-size:6.00;" x="743" y="864"> REFERENCES person </text>
<text text-anchor="middle" style="font-size:6.00;" x="655" y="876">product</text>
<text text-anchor="middle" style="font-size:6.00;" x="698" y="876">integer</text>
<text text-anchor="middle" style="font-size:6.00;" x="744" y="876"> REFERENCES product </text>
<polygon style="fill:none;stroke:black;" points="640,882 640,792 798,792 798,882 640,882"/>
</g>
<g id="edge16" class="edge"><title>archconfigentry&#45;&gt;branch</title>
<path style="fill:none;stroke:black;" d="M525,709C557,730 599,758 635,782"/>
<polygon style="fill:black;stroke:black;" points="638,780 644,788 634,785 638,780"/>
</g>
<g id="node11" class="node"><title>changeset</title>
<polygon style="fill:#c1cdcc;stroke:#c1cdcc;" points="552,596 552,494 740,494 740,596 552,596"/>
<polygon style="fill:white;stroke:white;" points="555,509 555,497 737,497 737,509 555,509"/>
<text text-anchor="middle" style="font-size:6.00;" x="646" y="505">changeset</text>
<polygon style="fill:none;stroke:black;" points="555,509 555,497 737,497 737,509 555,509"/>
<text text-anchor="middle" style="font-size:6.00;" x="560" y="518">id</text>
<text text-anchor="middle" style="font-size:6.00;" x="600" y="518">serial</text>
<text text-anchor="middle" style="font-size:6.00;" x="673" y="518"> UNIQUE UNIQUE PRIMARY KEY </text>
<text text-anchor="middle" style="font-size:6.00;" x="566" y="530">branch</text>
<text text-anchor="middle" style="font-size:6.00;" x="602" y="530">integer</text>
<text text-anchor="middle" style="font-size:6.00;" x="681" y="530"> REFERENCES branch UNIQUE UNIQUE </text>
<text text-anchor="middle" style="font-size:6.00;" x="572" y="542">datecreated</text>
<text text-anchor="middle" style="font-size:6.00;" x="607" y="542">timestamp</text>
<text text-anchor="middle" style="font-size:6.00;" x="565" y="554">name</text>
<text text-anchor="middle" style="font-size:6.00;" x="599" y="554">text</text>
<text text-anchor="middle" style="font-size:6.00;" x="572" y="566">logmessage</text>
<text text-anchor="middle" style="font-size:6.00;" x="599" y="566">text</text>
<text text-anchor="middle" style="font-size:6.00;" x="566" y="578">archid</text>
<text text-anchor="middle" style="font-size:6.00;" x="602" y="578">integer</text>
<text text-anchor="middle" style="font-size:6.00;" x="661" y="578"> REFERENCES archuserid </text>
<text text-anchor="middle" style="font-size:6.00;" x="567" y="590">gpgkey</text>
<text text-anchor="middle" style="font-size:6.00;" x="602" y="590">integer</text>
<text text-anchor="middle" style="font-size:6.00;" x="657" y="590"> REFERENCES gpgkey </text>
<polygon style="fill:none;stroke:black;" points="552,596 552,494 740,494 740,596 552,596"/>
</g>
<g id="edge18" class="edge"><title>archconfigentry&#45;&gt;changeset</title>
<path style="fill:none;stroke:black;" d="M521,635C533,626 547,616 561,606"/>
<polygon style="fill:black;stroke:black;" points="559,603 569,600 563,609 559,603"/>
</g>
<g id="node6" class="node"><title>archnamespace</title>
<polygon style="fill:#c1cdcc;stroke:#c1cdcc;" points="575,1168 575,1078 721,1078 721,1168 575,1168"/>
<polygon style="fill:white;stroke:white;" points="578,1093 578,1081 718,1081 718,1093 578,1093"/>
<text text-anchor="middle" style="font-size:6.00;" x="648" y="1089">archnamespace</text>
<polygon style="fill:none;stroke:black;" points="578,1093 578,1081 718,1081 718,1093 578,1093"/>
<text text-anchor="middle" style="font-size:6.00;" x="583" y="1102">id</text>
<text text-anchor="middle" style="font-size:6.00;" x="624" y="1102">serial</text>
<text text-anchor="middle" style="font-size:6.00;" x="667" y="1102"> PRIMARY KEY </text>
<text text-anchor="middle" style="font-size:6.00;" x="595" y="1114">archarchive</text>
<text text-anchor="middle" style="font-size:6.00;" x="626" y="1114">integer</text>
<text text-anchor="middle" style="font-size:6.00;" x="680" y="1114"> REFERENCES archarchive </text>
<text text-anchor="middle" style="font-size:6.00;" x="592" y="1126">category</text>
<text text-anchor="middle" style="font-size:6.00;" x="623" y="1126">text</text>
<text text-anchor="middle" style="font-size:6.00;" x="589" y="1138">branch</text>
<text text-anchor="middle" style="font-size:6.00;" x="623" y="1138">text</text>
<text text-anchor="middle" style="font-size:6.00;" x="590" y="1150">version</text>
<text text-anchor="middle" style="font-size:6.00;" x="623" y="1150">text</text>
<text text-anchor="middle" style="font-size:6.00;" x="589" y="1162">visible</text>
<text text-anchor="middle" style="font-size:6.00;" x="628" y="1162">boolean</text>
<polygon style="fill:none;stroke:black;" points="575,1168 575,1078 721,1078 721,1168 575,1168"/>
</g>
<g id="edge20" class="edge"><title>archnamespace&#45;&gt;archarchive</title>
<path style="fill:none;stroke:black;" d="M633,1172C621,1214 603,1274 590,1318"/>
<polygon style="fill:black;stroke:black;" points="593,1319 587,1328 587,1317 593,1319"/>
</g>
<g id="node7" class="node"><title>archuserid</title>
<polygon style="fill:#c1cdcc;stroke:#c1cdcc;" points="323,596 323,542 451,542 451,596 323,596"/>
<polygon style="fill:white;stroke:white;" points="326,557 326,545 448,545 448,557 326,557"/>
<text text-anchor="middle" style="font-size:6.00;" x="387" y="553">archuserid</text>
<polygon style="fill:none;stroke:black;" points="326,557 326,545 448,545 448,557 326,557"/>
<text text-anchor="middle" style="font-size:6.00;" x="331" y="566">id</text>
<text text-anchor="middle" style="font-size:6.00;" x="369" y="566">serial</text>
<text text-anchor="middle" style="font-size:6.00;" x="409" y="566"> PRIMARY KEY </text>
<text text-anchor="middle" style="font-size:6.00;" x="337" y="578">person</text>
<text text-anchor="middle" style="font-size:6.00;" x="371" y="578">integer</text>
<text text-anchor="middle" style="font-size:6.00;" x="416" y="578"> REFERENCES person </text>
<text text-anchor="middle" style="font-size:6.00;" x="342" y="590">archuserid</text>
<text text-anchor="middle" style="font-size:6.00;" x="368" y="590">text</text>
<text text-anchor="middle" style="font-size:6.00;" x="400" y="590"> UNIQUE </text>
<polygon style="fill:none;stroke:black;" points="323,596 323,542 451,542 451,596 323,596"/>
</g>
<g id="node31" class="node"><title>fake_person_15</title>
<ellipse cx="248" cy="628" rx="27" ry="18" style="fill:none;stroke:red;"/>
<text text-anchor="middle" style="font-size:6.00;" x="248" y="630">person</text>
</g>
<g id="edge22" class="edge"><title>archuserid&#45;&gt;fake_person_15</title>
<path style="fill:none;stroke:black;" d="M315,600C303,605 291,610 280,614"/>
<polygon style="fill:black;stroke:black;" points="282,617 271,618 279,611 282,617"/>
</g>
<g id="edge24" class="edge"><title>branch&#45;&gt;archnamespace</title>
<path style="fill:none;stroke:black;" d="M707,886C695,936 676,1011 662,1064"/>
<polygon style="fill:black;stroke:black;" points="665,1065 660,1074 659,1064 665,1065"/>
</g>
<g id="node34" class="node"><title>fake_person_29</title>
<ellipse cx="608" cy="962" rx="27" ry="18" style="fill:none;stroke:red;"/>
<text text-anchor="middle" style="font-size:6.00;" x="608" y="964">person</text>
</g>
<g id="edge26" class="edge"><title>branch&#45;&gt;fake_person_29</title>
<path style="fill:none;stroke:black;" d="M675,886C659,904 642,924 629,938"/>
<polygon style="fill:black;stroke:black;" points="631,941 622,946 626,936 631,941"/>
</g>
<g id="node36" class="node"><title>fake_product_31</title>
<ellipse cx="871" cy="912" rx="27" ry="18" style="fill:none;stroke:red;"/>
<text text-anchor="middle" style="font-size:6.00;" x="871" y="914">product</text>
</g>
<g id="edge28" class="edge"><title>branch&#45;&gt;fake_product_31</title>
<path style="fill:none;stroke:black;" d="M806,880C818,886 830,892 840,896"/>
<polygon style="fill:black;stroke:black;" points="842,893 849,901 839,899 842,893"/>
</g>
<g id="node9" class="node"><title>branchlabel</title>
<polygon style="fill:#c1cdcc;stroke:#c1cdcc;" points="914,874 914,820 1032,820 1032,874 914,874"/>
<polygon style="fill:white;stroke:white;" points="917,835 917,823 1029,823 1029,835 917,835"/>
<text text-anchor="middle" style="font-size:6.00;" x="973" y="831">branchlabel</text>
<polygon style="fill:none;stroke:black;" points="917,835 917,823 1029,823 1029,835 917,835"/>
<text text-anchor="middle" style="font-size:6.00;" x="928" y="844">branch</text>
<text text-anchor="middle" style="font-size:6.00;" x="952" y="844">integer</text>
<text text-anchor="middle" style="font-size:6.00;" x="997" y="844"> REFERENCES branch </text>
<text text-anchor="middle" style="font-size:6.00;" x="926" y="856">label</text>
<text text-anchor="middle" style="font-size:6.00;" x="952" y="856">integer</text>
<text text-anchor="middle" style="font-size:6.00;" x="995" y="856"> REFERENCES label </text>
<text text-anchor="middle" style="font-size:6.00;" x="922" y="868">id</text>
<text text-anchor="middle" style="font-size:6.00;" x="952" y="868">integer</text>
<text text-anchor="middle" style="font-size:6.00;" x="990" y="868"> PRIMARY KEY </text>
<polygon style="fill:none;stroke:black;" points="914,874 914,820 1032,820 1032,874 914,874"/>
</g>
<g id="edge30" class="edge"><title>branchlabel&#45;&gt;branch</title>
<path style="fill:none;stroke:black;" d="M906,844C879,843 846,841 816,840"/>
<polygon style="fill:black;stroke:black;" points="816,843 806,840 816,836 816,843"/>
</g>
<g id="node39" class="node"><title>fake_label_34</title>
<ellipse cx="1121" cy="860" rx="27" ry="18" style="fill:none;stroke:red;"/>
<text text-anchor="middle" style="font-size:6.00;" x="1121" y="862">label</text>
</g>
<g id="edge32" class="edge"><title>branchlabel&#45;&gt;fake_label_34</title>
<path style="fill:none;stroke:black;" d="M1040,853C1055,854 1071,855 1084,857"/>
<polygon style="fill:black;stroke:black;" points="1084,854 1094,858 1084,860 1084,854"/>
</g>
<g id="node10" class="node"><title>branchrelationship</title>
<polygon style="fill:#c1cdcc;stroke:#c1cdcc;" points="789,1062 789,996 907,996 907,1062 789,1062"/>
<polygon style="fill:white;stroke:white;" points="792,1011 792,999 904,999 904,1011 792,1011"/>
<text text-anchor="middle" style="font-size:6.00;" x="848" y="1007">branchrelationship</text>
<polygon style="fill:none;stroke:black;" points="792,1011 792,999 904,999 904,1011 792,1011"/>
<text text-anchor="middle" style="font-size:6.00;" x="803" y="1020">subject</text>
<text text-anchor="middle" style="font-size:6.00;" x="827" y="1020">integer</text>
<text text-anchor="middle" style="font-size:6.00;" x="872" y="1020"> REFERENCES branch </text>
<text text-anchor="middle" style="font-size:6.00;" x="801" y="1032">label</text>
<text text-anchor="middle" style="font-size:6.00;" x="827" y="1032">integer</text>
<text text-anchor="middle" style="font-size:6.00;" x="803" y="1044">object</text>
<text text-anchor="middle" style="font-size:6.00;" x="827" y="1044">integer</text>
<text text-anchor="middle" style="font-size:6.00;" x="872" y="1044"> REFERENCES branch </text>
<text text-anchor="middle" style="font-size:6.00;" x="797" y="1056">id</text>
<text text-anchor="middle" style="font-size:6.00;" x="827" y="1056">integer</text>
<text text-anchor="middle" style="font-size:6.00;" x="865" y="1056"> PRIMARY KEY </text>
<polygon style="fill:none;stroke:black;" points="789,1062 789,996 907,996 907,1062 789,1062"/>
</g>
<g id="edge34" class="edge"><title>branchrelationship&#45;&gt;branch</title>
<path style="fill:none;stroke:black;" d="M815,992C795,965 769,926 749,895"/>
<polygon style="fill:black;stroke:black;" points="746,896 744,886 752,893 746,896"/>
</g>
<g id="edge36" class="edge"><title>branchrelationship&#45;&gt;branch</title>
<path style="fill:none;stroke:black;" d="M828,992C811,964 786,926 764,894"/>
<polygon style="fill:black;stroke:black;" points="761,896 758,886 767,892 761,896"/>
</g>
<g id="edge40" class="edge"><title>changeset&#45;&gt;archuserid</title>
<path style="fill:none;stroke:black;" d="M544,554C519,557 493,559 469,561"/>
<polygon style="fill:black;stroke:black;" points="469,564 459,562 469,558 469,564"/>
</g>
<g id="edge38" class="edge"><title>changeset&#45;&gt;branch</title>
<path style="fill:none;stroke:black;" d="M660,600C672,651 691,726 705,778"/>
<polygon style="fill:black;stroke:black;" points="708,778 707,788 702,779 708,778"/>
</g>
<g id="node45" class="node"><title>fake_gpgkey_91</title>
<ellipse cx="583" cy="359" rx="27" ry="18" style="fill:none;stroke:red;"/>
<text text-anchor="middle" style="font-size:6.00;" x="583" y="361">gpgkey</text>
</g>
<g id="edge42" class="edge"><title>changeset&#45;&gt;fake_gpgkey_91</title>
<path style="fill:none;stroke:black;" d="M627,490C616,456 602,413 592,387"/>
<polygon style="fill:black;stroke:black;" points="589,388 589,377 595,386 589,388"/>
</g>
<g id="node12" class="node"><title>changesetfile</title>
<polygon style="fill:#c1cdcc;stroke:#c1cdcc;" points="712,328 712,250 912,250 912,328 712,328"/>
<polygon style="fill:white;stroke:white;" points="715,265 715,253 909,253 909,265 715,265"/>
<text text-anchor="middle" style="font-size:6.00;" x="812" y="261">changesetfile</text>
<polygon style="fill:none;stroke:black;" points="715,265 715,253 909,253 909,265 715,265"/>
<text text-anchor="middle" style="font-size:6.00;" x="720" y="274">id</text>
<text text-anchor="middle" style="font-size:6.00;" x="777" y="274">serial</text>
<text text-anchor="middle" style="font-size:6.00;" x="817" y="274"> PRIMARY KEY </text>
<text text-anchor="middle" style="font-size:6.00;" x="730" y="286">changeset</text>
<text text-anchor="middle" style="font-size:6.00;" x="779" y="286">integer</text>
<text text-anchor="middle" style="font-size:6.00;" x="840" y="286"> REFERENCES changeset UNIQUE </text>
<text text-anchor="middle" style="font-size:6.00;" x="741" y="298">changesetfilename</text>
<text text-anchor="middle" style="font-size:6.00;" x="779" y="298">integer</text>
<text text-anchor="middle" style="font-size:6.00;" x="851" y="298"> REFERENCES changesetfilename UNIQUE </text>
<text text-anchor="middle" style="font-size:6.00;" x="732" y="310">filecontents</text>
<text text-anchor="middle" style="font-size:6.00;" x="778" y="310">bytea</text>
<text text-anchor="middle" style="font-size:6.00;" x="727" y="322">filesize</text>
<text text-anchor="middle" style="font-size:6.00;" x="779" y="322">integer</text>
<polygon style="fill:none;stroke:black;" points="712,328 712,250 912,250 912,328 712,328"/>
</g>
<g id="edge44" class="edge"><title>changesetfile&#45;&gt;changeset</title>
<path style="fill:none;stroke:black;" d="M784,332C758,372 718,434 688,481"/>
<polygon style="fill:black;stroke:black;" points="690,484 682,490 685,480 690,484"/>
</g>
<g id="node14" class="node"><title>changesetfilename</title>
<polygon style="fill:#c1cdcc;stroke:#c1cdcc;" points="814,225 814,183 920,183 920,225 814,225"/>
<polygon style="fill:white;stroke:white;" points="817,198 817,186 917,186 917,198 817,198"/>
<text text-anchor="middle" style="font-size:6.00;" x="867" y="194">changesetfilename</text>
<polygon style="fill:none;stroke:black;" points="817,198 817,186 917,186 917,198 817,198"/>
<text text-anchor="middle" style="font-size:6.00;" x="822" y="207">id</text>
<text text-anchor="middle" style="font-size:6.00;" x="856" y="207">serial</text>
<text text-anchor="middle" style="font-size:6.00;" x="892" y="207"> PRIMARY KEY </text>
<text text-anchor="middle" style="font-size:6.00;" x="831" y="219">filename</text>
<text text-anchor="middle" style="font-size:6.00;" x="855" y="219">text</text>
<text text-anchor="middle" style="font-size:6.00;" x="883" y="219"> UNIQUE </text>
<polygon style="fill:none;stroke:black;" points="814,225 814,183 920,183 920,225 814,225"/>
</g>
<g id="edge46" class="edge"><title>changesetfile&#45;&gt;changesetfilename</title>
<path style="fill:none;stroke:black;" d="M840,246C842,243 844,240 846,238"/>
<polygon style="fill:black;stroke:black;" points="843,236 851,229 849,239 843,236"/>
</g>
<g id="node13" class="node"><title>changesetfilehash</title>
<polygon style="fill:#c1cdcc;stroke:#c1cdcc;" points="899,101 899,35 1073,35 1073,101 899,101"/>
<polygon style="fill:white;stroke:white;" points="902,50 902,38 1070,38 1070,50 902,50"/>
<text text-anchor="middle" style="font-size:6.00;" x="986" y="46">changesetfilehash</text>
<polygon style="fill:none;stroke:black;" points="902,50 902,38 1070,38 1070,50 902,50"/>
<text text-anchor="middle" style="font-size:6.00;" x="907" y="59">id</text>
<text text-anchor="middle" style="font-size:6.00;" x="951" y="59">serial</text>
<text text-anchor="middle" style="font-size:6.00;" x="991" y="59"> PRIMARY KEY </text>
<text text-anchor="middle" style="font-size:6.00;" x="921" y="71">changesetfile</text>
<text text-anchor="middle" style="font-size:6.00;" x="953" y="71">integer</text>
<text text-anchor="middle" style="font-size:6.00;" x="1018" y="71"> REFERENCES changesetfile UNIQUE </text>
<text text-anchor="middle" style="font-size:6.00;" x="914" y="83">hashalg</text>
<text text-anchor="middle" style="font-size:6.00;" x="953" y="83">integer</text>
<text text-anchor="middle" style="font-size:6.00;" x="982" y="83"> UNIQUE </text>
<text text-anchor="middle" style="font-size:6.00;" x="911" y="95">hash</text>
<text text-anchor="middle" style="font-size:6.00;" x="952" y="95">bytea</text>
<polygon style="fill:none;stroke:black;" points="899,101 899,35 1073,35 1073,101 899,101"/>
</g>
<g id="edge48" class="edge"><title>changesetfilehash&#45;&gt;changesetfile</title>
<path style="fill:none;stroke:black;" d="M956,105C928,142 884,197 852,238"/>
<polygon style="fill:black;stroke:black;" points="855,240 846,246 849,236 855,240"/>
</g>
<g id="node15" class="node"><title>manifest</title>
<polygon style="fill:#c1cdcc;stroke:#c1cdcc;" points="999,452 999,398 1123,398 1123,452 999,452"/>
<polygon style="fill:white;stroke:white;" points="1002,413 1002,401 1120,401 1120,413 1002,413"/>
<text text-anchor="middle" style="font-size:6.00;" x="1061" y="409">manifest</text>
<polygon style="fill:none;stroke:black;" points="1002,413 1002,401 1120,401 1120,413 1002,413"/>
<text text-anchor="middle" style="font-size:6.00;" x="1007" y="422">id</text>
<text text-anchor="middle" style="font-size:6.00;" x="1046" y="422">serial</text>
<text text-anchor="middle" style="font-size:6.00;" x="1095" y="422"> PRIMARY KEY </text>
<text text-anchor="middle" style="font-size:6.00;" x="1019" y="434">datecreated</text>
<text text-anchor="middle" style="font-size:6.00;" x="1053" y="434">timestamp</text>
<text text-anchor="middle" style="font-size:6.00;" x="1011" y="446">uuid</text>
<text text-anchor="middle" style="font-size:6.00;" x="1045" y="446">text</text>
<text text-anchor="middle" style="font-size:6.00;" x="1086" y="446"> UNIQUE </text>
<polygon style="fill:none;stroke:black;" points="999,452 999,398 1123,398 1123,452 999,452"/>
</g>
<g id="node16" class="node"><title>manifestentry</title>
<polygon style="fill:#c1cdcc;stroke:#c1cdcc;" points="804,680 804,554 1002,554 1002,680 804,680"/>
<polygon style="fill:white;stroke:white;" points="807,569 807,557 999,557 999,569 807,569"/>
<text text-anchor="middle" style="font-size:6.00;" x="903" y="565">manifestentry</text>
<polygon style="fill:none;stroke:black;" points="807,569 807,557 999,557 999,569 807,569"/>
<text text-anchor="middle" style="font-size:6.00;" x="812" y="578">id</text>
<text text-anchor="middle" style="font-size:6.00;" x="848" y="578">serial</text>
<text text-anchor="middle" style="font-size:6.00;" x="888" y="578"> PRIMARY KEY </text>
<text text-anchor="middle" style="font-size:6.00;" x="820" y="590">manifest</text>
<text text-anchor="middle" style="font-size:6.00;" x="850" y="590">integer</text>
<text text-anchor="middle" style="font-size:6.00;" x="910" y="590"> REFERENCES manifest UNIQUE </text>
<text text-anchor="middle" style="font-size:6.00;" x="821" y="602">sequence</text>
<text text-anchor="middle" style="font-size:6.00;" x="850" y="602">integer</text>
<text text-anchor="middle" style="font-size:6.00;" x="879" y="602"> UNIQUE </text>
<text text-anchor="middle" style="font-size:6.00;" x="818" y="614">branch</text>
<text text-anchor="middle" style="font-size:6.00;" x="850" y="614">integer</text>
<text text-anchor="middle" style="font-size:6.00;" x="928" y="614"> REFERENCES branch REFERENCES changeset </text>
<text text-anchor="middle" style="font-size:6.00;" x="822" y="626">changeset</text>
<text text-anchor="middle" style="font-size:6.00;" x="850" y="626">integer</text>
<text text-anchor="middle" style="font-size:6.00;" x="931" y="626"> REFERENCES changeset REFERENCES changeset </text>
<text text-anchor="middle" style="font-size:6.00;" x="822" y="638">entrytype</text>
<text text-anchor="middle" style="font-size:6.00;" x="850" y="638">integer</text>
<text text-anchor="middle" style="font-size:6.00;" x="815" y="650">path</text>
<text text-anchor="middle" style="font-size:6.00;" x="847" y="650">text</text>
<text text-anchor="middle" style="font-size:6.00;" x="820" y="662">patchon</text>
<text text-anchor="middle" style="font-size:6.00;" x="850" y="662">integer</text>
<text text-anchor="middle" style="font-size:6.00;" x="904" y="662"> REFERENCES manifestentry </text>
<text text-anchor="middle" style="font-size:6.00;" x="820" y="674">dirname</text>
<text text-anchor="middle" style="font-size:6.00;" x="847" y="674">text</text>
<polygon style="fill:none;stroke:black;" points="804,680 804,554 1002,554 1002,680 804,680"/>
</g>
<g id="edge52" class="edge"><title>manifestentry&#45;&gt;branch</title>
<path style="fill:none;stroke:black;" d="M847,684C821,715 791,751 767,780"/>
<polygon style="fill:black;stroke:black;" points="769,783 760,788 764,778 769,783"/>
</g>
<g id="edge54" class="edge"><title>manifestentry&#45;&gt;changeset</title>
<path style="fill:none;stroke:black;" d="M796,594C783,591 771,587 758,584"/>
<polygon style="fill:black;stroke:black;" points="757,587 748,581 759,581 757,587"/>
</g>
<g id="edge56" class="edge"><title>manifestentry&#45;&gt;changeset</title>
<path style="fill:none;stroke:black;" d="M796,581C783,577 771,574 758,570"/>
<polygon style="fill:black;stroke:black;" points="757,573 748,568 758,567 757,573"/>
</g>
<g id="edge50" class="edge"><title>manifestentry&#45;&gt;manifest</title>
<path style="fill:none;stroke:black;" d="M958,550C981,521 1008,488 1028,464"/>
<polygon style="fill:black;stroke:black;" points="1026,461 1035,456 1031,466 1026,461"/>
</g>
</g>
</svg>
