<?xml version="1.0" encoding="UTF-8" standalone="no"?>
<!DOCTYPE svg PUBLIC "-//W3C//DTD SVG 1.0//EN"
 "http://www.w3.org/TR/2001/REC-SVG-20010904/DTD/svg10.dtd">
<!-- Generated by fdp version 2.2.1 (Tue Oct 11 01:38:21 UTC 2005)
     For user: (stub) Stuart Bishop,,,   Title: g    Pages: 1 -->
<svg width="2004px" height="1873px"
 viewBox = "-1 -1 2003 1872"
 xmlns="http://www.w3.org/2000/svg">
<g id="graph0" class="graph" style="font-family:Times-Roman;font-size:14.00;">
<title>g</title>
<text text-anchor="middle" style="font-size:22.00;" x="1001" y="1855">Buttress</text>
<g id="node1" class="node"><title>archconfig</title>
<polygon style="fill:#c1cdcc;stroke:#c1cdcc;" points="274,1663 274,1559 474,1559 474,1663 274,1663"/>
<polygon style="fill:white;stroke:white;" points="277,1576 277,1562 471,1562 471,1576 277,1576"/>
<text text-anchor="middle" style="font-size:8.00;" x="374" y="1572">archconfig</text>
<polygon style="fill:none;stroke:black;" points="277,1576 277,1562 471,1562 471,1576 277,1576"/>
<text text-anchor="middle" style="font-size:8.00;" x="283" y="1587">id</text>
<text text-anchor="middle" style="font-size:8.00;" x="344" y="1587">serial</text>
<text text-anchor="middle" style="font-size:8.00;" x="395" y="1587"> PRIMARY KEY </text>
<text text-anchor="middle" style="font-size:8.00;" x="289" y="1601">name</text>
<text text-anchor="middle" style="font-size:8.00;" x="342" y="1601">text</text>
<text text-anchor="middle" style="font-size:8.00;" x="286" y="1615">title</text>
<text text-anchor="middle" style="font-size:8.00;" x="342" y="1615">text</text>
<text text-anchor="middle" style="font-size:8.00;" x="297" y="1629">description</text>
<text text-anchor="middle" style="font-size:8.00;" x="342" y="1629">text</text>
<text text-anchor="middle" style="font-size:8.00;" x="304" y="1643">productrelease</text>
<text text-anchor="middle" style="font-size:8.00;" x="347" y="1643">integer</text>
<text text-anchor="middle" style="font-size:8.00;" x="417" y="1643"> REFERENCES productrelease </text>
<text text-anchor="middle" style="font-size:8.00;" x="290" y="1657">owner</text>
<text text-anchor="middle" style="font-size:8.00;" x="347" y="1657">integer</text>
<text text-anchor="middle" style="font-size:8.00;" x="405" y="1657"> REFERENCES person </text>
<polygon style="fill:none;stroke:black;" points="274,1663 274,1559 474,1559 474,1663 274,1663"/>
</g>
<g id="node15" class="node"><title>fake_productrelease_1</title>
<ellipse cx="197" cy="1726" rx="36" ry="18" style="fill:none;stroke:red;"/>
<text text-anchor="middle" style="font-size:8.00;" x="197" y="1729">productrelease</text>
</g>
<g id="edge2" class="edge"><title>archconfig&#45;&gt;fake_productrelease_1</title>
<path style="fill:none;stroke:black;" d="M288,1667C267,1681 245,1695 228,1706"/>
<polygon style="fill:black;stroke:black;" points="229,1709 219,1712 225,1704 229,1709"/>
</g>
<g id="node17" class="node"><title>fake_person_3</title>
<ellipse cx="400" cy="1812" rx="27" ry="18" style="fill:none;stroke:red;"/>
<text text-anchor="middle" style="font-size:8.00;" x="400" y="1815">person</text>
</g>
<g id="edge4" class="edge"><title>archconfig&#45;&gt;fake_person_3</title>
<path style="fill:none;stroke:black;" d="M381,1667C386,1705 392,1754 397,1784"/>
<polygon style="fill:black;stroke:black;" points="400,1784 398,1794 394,1784 400,1784"/>
</g>
<g id="node2" class="node"><title>archconfigentry</title>
<polygon style="fill:#c1cdcc;stroke:#c1cdcc;" points="410,1365 410,1289 584,1289 584,1365 410,1365"/>
<polygon style="fill:white;stroke:white;" points="413,1306 413,1292 581,1292 581,1306 413,1306"/>
<text text-anchor="middle" style="font-size:8.00;" x="497" y="1302">archconfigentry</text>
<polygon style="fill:none;stroke:black;" points="413,1306 413,1292 581,1292 581,1306 413,1306"/>
<text text-anchor="middle" style="font-size:8.00;" x="433" y="1317">archconfig</text>
<text text-anchor="middle" style="font-size:8.00;" x="469" y="1317">integer</text>
<text text-anchor="middle" style="font-size:8.00;" x="533" y="1317"> REFERENCES archconfig </text>
<text text-anchor="middle" style="font-size:8.00;" x="423" y="1331">path</text>
<text text-anchor="middle" style="font-size:8.00;" x="464" y="1331">text</text>
<text text-anchor="middle" style="font-size:8.00;" x="427" y="1345">branch</text>
<text text-anchor="middle" style="font-size:8.00;" x="469" y="1345">integer</text>
<text text-anchor="middle" style="font-size:8.00;" x="527" y="1345"> REFERENCES branch </text>
<text text-anchor="middle" style="font-size:8.00;" x="432" y="1359">changeset</text>
<text text-anchor="middle" style="font-size:8.00;" x="469" y="1359">integer</text>
<polygon style="fill:none;stroke:black;" points="410,1365 410,1289 584,1289 584,1365 410,1365"/>
</g>
<g id="edge6" class="edge"><title>archconfigentry&#45;&gt;archconfig</title>
<path style="fill:none;stroke:black;" d="M479,1369C458,1415 426,1491 402,1546"/>
<polygon style="fill:black;stroke:black;" points="405,1547 398,1555 399,1544 405,1547"/>
</g>
<g id="node3" class="node"><title>branch</title>
<polygon style="fill:#c1cdcc;stroke:#c1cdcc;" points="489,1066 489,654 833,654 833,1066 489,1066"/>
<polygon style="fill:white;stroke:white;" points="492,671 492,657 830,657 830,671 492,671"/>
<text text-anchor="middle" style="font-size:8.00;" x="661" y="667">branch</text>
<polygon style="fill:none;stroke:black;" points="492,671 492,657 830,657 830,671 492,671"/>
<text text-anchor="middle" style="font-size:8.00;" x="498" y="682">id</text>
<text text-anchor="middle" style="font-size:8.00;" x="584" y="682">serial</text>
<text text-anchor="middle" style="font-size:8.00;" x="699" y="682"> REFERENCES revisionnumber PRIMARY KEY </text>
<text text-anchor="middle" style="font-size:8.00;" x="501" y="696">title</text>
<text text-anchor="middle" style="font-size:8.00;" x="582" y="696">text</text>
<text text-anchor="middle" style="font-size:8.00;" x="510" y="710">summary</text>
<text text-anchor="middle" style="font-size:8.00;" x="582" y="710">text</text>
<text text-anchor="middle" style="font-size:8.00;" x="505" y="724">owner</text>
<text text-anchor="middle" style="font-size:8.00;" x="587" y="724">integer</text>
<text text-anchor="middle" style="font-size:8.00;" x="656" y="724"> REFERENCES person </text>
<text text-anchor="middle" style="font-size:8.00;" x="507" y="738">product</text>
<text text-anchor="middle" style="font-size:8.00;" x="587" y="738">integer</text>
<text text-anchor="middle" style="font-size:8.00;" x="657" y="738"> REFERENCES product </text>
<text text-anchor="middle" style="font-size:8.00;" x="505" y="752">author</text>
<text text-anchor="middle" style="font-size:8.00;" x="587" y="752">integer</text>
<text text-anchor="middle" style="font-size:8.00;" x="656" y="752"> REFERENCES person </text>
<text text-anchor="middle" style="font-size:8.00;" x="504" y="766">name</text>
<text text-anchor="middle" style="font-size:8.00;" x="582" y="766">text</text>
<text text-anchor="middle" style="font-size:8.00;" x="531" y="780">branch_product_name</text>
<text text-anchor="middle" style="font-size:8.00;" x="582" y="780">text</text>
<text text-anchor="middle" style="font-size:8.00;" x="520" y="794">product_locked</text>
<text text-anchor="middle" style="font-size:8.00;" x="589" y="794">boolean</text>
<text text-anchor="middle" style="font-size:8.00;" x="514" y="808">home_page</text>
<text text-anchor="middle" style="font-size:8.00;" x="582" y="808">text</text>
<text text-anchor="middle" style="font-size:8.00;" x="527" y="822">branch_home_page</text>
<text text-anchor="middle" style="font-size:8.00;" x="582" y="822">text</text>
<text text-anchor="middle" style="font-size:8.00;" x="527" y="836">home_page_locked</text>
<text text-anchor="middle" style="font-size:8.00;" x="589" y="836">boolean</text>
<text text-anchor="middle" style="font-size:8.00;" x="500" y="850">url</text>
<text text-anchor="middle" style="font-size:8.00;" x="582" y="850">text</text>
<text text-anchor="middle" style="font-size:8.00;" x="513" y="864">whiteboard</text>
<text text-anchor="middle" style="font-size:8.00;" x="582" y="864">text</text>
<text text-anchor="middle" style="font-size:8.00;" x="520" y="878">lifecycle_status</text>
<text text-anchor="middle" style="font-size:8.00;" x="587" y="878">integer</text>
<text text-anchor="middle" style="font-size:8.00;" x="518" y="892">landing_target</text>
<text text-anchor="middle" style="font-size:8.00;" x="587" y="892">integer</text>
<text text-anchor="middle" style="font-size:8.00;" x="656" y="892"> REFERENCES branch </text>
<text text-anchor="middle" style="font-size:8.00;" x="522" y="906">current_delta_url</text>
<text text-anchor="middle" style="font-size:8.00;" x="582" y="906">text</text>
<text text-anchor="middle" style="font-size:8.00;" x="528" y="920">current_conflicts_url</text>
<text text-anchor="middle" style="font-size:8.00;" x="582" y="920">text</text>
<text text-anchor="middle" style="font-size:8.00;" x="523" y="934">current_diff_adds</text>
<text text-anchor="middle" style="font-size:8.00;" x="587" y="934">integer</text>
<text text-anchor="middle" style="font-size:8.00;" x="527" y="948">current_diff_deletes</text>
<text text-anchor="middle" style="font-size:8.00;" x="587" y="948">integer</text>
<text text-anchor="middle" style="font-size:8.00;" x="517" y="962">stats_updated</text>
<text text-anchor="middle" style="font-size:8.00;" x="593" y="962">timestamp</text>
<text text-anchor="middle" style="font-size:8.00;" x="520" y="976">current_activity</text>
<text text-anchor="middle" style="font-size:8.00;" x="587" y="976">integer</text>
<text text-anchor="middle" style="font-size:8.00;" x="517" y="990">last_mirrored</text>
<text text-anchor="middle" style="font-size:8.00;" x="593" y="990">timestamp</text>
<text text-anchor="middle" style="font-size:8.00;" x="527" y="1004">last_mirror_attempt</text>
<text text-anchor="middle" style="font-size:8.00;" x="593" y="1004">timestamp</text>
<text text-anchor="middle" style="font-size:8.00;" x="519" y="1018">mirror_failures</text>
<text text-anchor="middle" style="font-size:8.00;" x="587" y="1018">integer</text>
<text text-anchor="middle" style="font-size:8.00;" x="517" y="1032">pull_disabled</text>
<text text-anchor="middle" style="font-size:8.00;" x="589" y="1032">boolean</text>
<text text-anchor="middle" style="font-size:8.00;" x="510" y="1046">cache_url</text>
<text text-anchor="middle" style="font-size:8.00;" x="582" y="1046">text</text>
<text text-anchor="middle" style="font-size:8.00;" x="510" y="1060">started_at</text>
<text text-anchor="middle" style="font-size:8.00;" x="587" y="1060">integer</text>
<text text-anchor="middle" style="font-size:8.00;" x="722" y="1060"> REFERENCES revisionnumber REFERENCES revisionnumber </text>
<polygon style="fill:none;stroke:black;" points="489,1066 489,654 833,654 833,1066 489,1066"/>
</g>
<g id="edge8" class="edge"><title>archconfigentry&#45;&gt;branch</title>
<path style="fill:none;stroke:black;" d="M512,1285C528,1238 557,1158 584,1080"/>
<polygon style="fill:black;stroke:black;" points="581,1079 587,1070 587,1081 581,1079"/>
</g>
<g id="edge18" class="edge"><title>branch&#45;&gt;branch</title>
<path style="fill:none;stroke:black;" d="M841,970C852,944 859,907 859,860 859,819 854,785 845,760"/>
<polygon style="fill:black;stroke:black;" points="841,761 841,750 848,758 841,761"/>
</g>
<g id="node13" class="node"><title>revisionnumber</title>
<polygon style="fill:#c1cdcc;stroke:#c1cdcc;" points="1084,972 1084,896 1304,896 1304,972 1084,972"/>
<polygon style="fill:white;stroke:white;" points="1087,913 1087,899 1301,899 1301,913 1087,913"/>
<text text-anchor="middle" style="font-size:8.00;" x="1194" y="909">revisionnumber</text>
<polygon style="fill:none;stroke:black;" points="1087,913 1087,899 1301,899 1301,913 1087,913"/>
<text text-anchor="middle" style="font-size:8.00;" x="1093" y="924">id</text>
<text text-anchor="middle" style="font-size:8.00;" x="1134" y="924">serial</text>
<text text-anchor="middle" style="font-size:8.00;" x="1202" y="924"> UNIQUE PRIMARY KEY </text>
<text text-anchor="middle" style="font-size:8.00;" x="1104" y="938">sequence</text>
<text text-anchor="middle" style="font-size:8.00;" x="1137" y="938">integer</text>
<text text-anchor="middle" style="font-size:8.00;" x="1173" y="938"> UNIQUE </text>
<text text-anchor="middle" style="font-size:8.00;" x="1101" y="952">branch</text>
<text text-anchor="middle" style="font-size:8.00;" x="1137" y="952">integer</text>
<text text-anchor="middle" style="font-size:8.00;" x="1227" y="952"> REFERENCES branch UNIQUE UNIQUE </text>
<text text-anchor="middle" style="font-size:8.00;" x="1103" y="966">revision</text>
<text text-anchor="middle" style="font-size:8.00;" x="1137" y="966">integer</text>
<text text-anchor="middle" style="font-size:8.00;" x="1213" y="966"> REFERENCES revision UNIQUE </text>
<polygon style="fill:none;stroke:black;" points="1084,972 1084,896 1304,896 1304,972 1084,972"/>
</g>
<g id="edge10" class="edge"><title>branch&#45;&gt;revisionnumber</title>
<path style="fill:none;stroke:black;" d="M841,885C915,895 998,907 1066,916"/>
<polygon style="fill:black;stroke:black;" points="1066,913 1076,917 1066,919 1066,913"/>
</g>
<g id="edge20" class="edge"><title>branch&#45;&gt;revisionnumber</title>
<path style="fill:none;stroke:black;" d="M841,885C915,895 998,907 1066,916"/>
<polygon style="fill:black;stroke:black;" points="1066,913 1076,917 1066,919 1066,913"/>
</g>
<g id="node22" class="node"><title>fake_person_21</title>
<ellipse cx="380" cy="1088" rx="27" ry="18" style="fill:none;stroke:red;"/>
<text text-anchor="middle" style="font-size:8.00;" x="380" y="1091">person</text>
</g>
<g id="edge12" class="edge"><title>branch&#45;&gt;fake_person_21</title>
<path style="fill:none;stroke:black;" d="M481,1006C451,1030 424,1053 405,1068"/>
<polygon style="fill:black;stroke:black;" points="407,1071 397,1074 403,1065 407,1071"/>
</g>
<g id="node24" class="node"><title>fake_product_23</title>
<ellipse cx="812" cy="1188" rx="27" ry="18" style="fill:none;stroke:red;"/>
<text text-anchor="middle" style="font-size:8.00;" x="812" y="1191">product</text>
</g>
<g id="edge14" class="edge"><title>branch&#45;&gt;fake_product_23</title>
<path style="fill:none;stroke:black;" d="M758,1070C774,1106 789,1140 800,1162"/>
<polygon style="fill:black;stroke:black;" points="803,1160 804,1171 797,1163 803,1160"/>
</g>
<g id="node26" class="node"><title>fake_person_25</title>
<ellipse cx="397" cy="603" rx="27" ry="18" style="fill:none;stroke:red;"/>
<text text-anchor="middle" style="font-size:8.00;" x="397" y="606">person</text>
</g>
<g id="edge16" class="edge"><title>branch&#45;&gt;fake_person_25</title>
<path style="fill:none;stroke:black;" d="M481,685C456,661 435,640 419,625"/>
<polygon style="fill:black;stroke:black;" points="417,628 412,618 422,623 417,628"/>
</g>
<g id="node4" class="node"><title>branchlabel</title>
<polygon style="fill:#c1cdcc;stroke:#c1cdcc;" points="124,742 124,680 274,680 274,742 124,742"/>
<polygon style="fill:white;stroke:white;" points="127,697 127,683 271,683 271,697 127,697"/>
<text text-anchor="middle" style="font-size:8.00;" x="199" y="693">branchlabel</text>
<polygon style="fill:none;stroke:black;" points="127,697 127,683 271,683 271,697 127,697"/>
<text text-anchor="middle" style="font-size:8.00;" x="141" y="708">branch</text>
<text text-anchor="middle" style="font-size:8.00;" x="172" y="708">integer</text>
<text text-anchor="middle" style="font-size:8.00;" x="230" y="708"> REFERENCES branch </text>
<text text-anchor="middle" style="font-size:8.00;" x="138" y="722">label</text>
<text text-anchor="middle" style="font-size:8.00;" x="172" y="722">integer</text>
<text text-anchor="middle" style="font-size:8.00;" x="227" y="722"> REFERENCES label </text>
<text text-anchor="middle" style="font-size:8.00;" x="133" y="736">id</text>
<text text-anchor="middle" style="font-size:8.00;" x="172" y="736">integer</text>
<text text-anchor="middle" style="font-size:8.00;" x="220" y="736"> PRIMARY KEY </text>
<polygon style="fill:none;stroke:black;" points="124,742 124,680 274,680 274,742 124,742"/>
</g>
<g id="edge22" class="edge"><title>branchlabel&#45;&gt;branch</title>
<path style="fill:none;stroke:black;" d="M282,738C334,755 405,778 471,799"/>
<polygon style="fill:black;stroke:black;" points="472,796 481,802 470,802 472,796"/>
</g>
<g id="node31" class="node"><title>fake_label_30</title>
<ellipse cx="33" cy="660" rx="27" ry="18" style="fill:none;stroke:red;"/>
<text text-anchor="middle" style="font-size:8.00;" x="33" y="663">label</text>
</g>
<g id="edge24" class="edge"><title>branchlabel&#45;&gt;fake_label_30</title>
<path style="fill:none;stroke:black;" d="M116,685C99,680 82,675 68,671"/>
<polygon style="fill:black;stroke:black;" points="67,674 58,668 69,668 67,674"/>
</g>
<g id="node5" class="node"><title>branchmessage</title>
<polygon style="fill:#c1cdcc;stroke:#c1cdcc;" points="437,425 437,363 597,363 597,425 437,425"/>
<polygon style="fill:white;stroke:white;" points="440,380 440,366 594,366 594,380 440,380"/>
<text text-anchor="middle" style="font-size:8.00;" x="517" y="376">branchmessage</text>
<polygon style="fill:none;stroke:black;" points="440,380 440,366 594,366 594,380 440,380"/>
<text text-anchor="middle" style="font-size:8.00;" x="446" y="391">id</text>
<text text-anchor="middle" style="font-size:8.00;" x="486" y="391">serial</text>
<text text-anchor="middle" style="font-size:8.00;" x="537" y="391"> PRIMARY KEY </text>
<text text-anchor="middle" style="font-size:8.00;" x="454" y="405">branch</text>
<text text-anchor="middle" style="font-size:8.00;" x="489" y="405">integer</text>
<text text-anchor="middle" style="font-size:8.00;" x="547" y="405"> REFERENCES branch </text>
<text text-anchor="middle" style="font-size:8.00;" x="457" y="419">message</text>
<text text-anchor="middle" style="font-size:8.00;" x="489" y="419">integer</text>
<text text-anchor="middle" style="font-size:8.00;" x="550" y="419"> REFERENCES message </text>
<polygon style="fill:none;stroke:black;" points="437,425 437,363 597,363 597,425 437,425"/>
</g>
<g id="edge26" class="edge"><title>branchmessage&#45;&gt;branch</title>
<path style="fill:none;stroke:black;" d="M528,429C541,474 568,558 593,640"/>
<polygon style="fill:black;stroke:black;" points="596,639 596,650 590,641 596,639"/>
</g>
<g id="node34" class="node"><title>fake_message_33</title>
<ellipse cx="450" cy="231" rx="27" ry="18" style="fill:none;stroke:red;"/>
<text text-anchor="middle" style="font-size:8.00;" x="450" y="234">message</text>
</g>
<g id="edge28" class="edge"><title>branchmessage&#45;&gt;fake_message_33</title>
<path style="fill:none;stroke:black;" d="M502,359C490,329 472,286 461,258"/>
<polygon style="fill:black;stroke:black;" points="458,260 457,249 464,257 458,260"/>
</g>
<g id="node6" class="node"><title>branchrelationship</title>
<polygon style="fill:#c1cdcc;stroke:#c1cdcc;" points="153,994 153,918 301,918 301,994 153,994"/>
<polygon style="fill:white;stroke:white;" points="156,935 156,921 298,921 298,935 156,935"/>
<text text-anchor="middle" style="font-size:8.00;" x="227" y="931">branchrelationship</text>
<polygon style="fill:none;stroke:black;" points="156,935 156,921 298,921 298,935 156,935"/>
<text text-anchor="middle" style="font-size:8.00;" x="170" y="946">subject</text>
<text text-anchor="middle" style="font-size:8.00;" x="199" y="946">integer</text>
<text text-anchor="middle" style="font-size:8.00;" x="257" y="946"> REFERENCES branch </text>
<text text-anchor="middle" style="font-size:8.00;" x="167" y="960">label</text>
<text text-anchor="middle" style="font-size:8.00;" x="199" y="960">integer</text>
<text text-anchor="middle" style="font-size:8.00;" x="168" y="974">object</text>
<text text-anchor="middle" style="font-size:8.00;" x="199" y="974">integer</text>
<text text-anchor="middle" style="font-size:8.00;" x="257" y="974"> REFERENCES branch </text>
<text text-anchor="middle" style="font-size:8.00;" x="162" y="988">id</text>
<text text-anchor="middle" style="font-size:8.00;" x="199" y="988">integer</text>
<text text-anchor="middle" style="font-size:8.00;" x="247" y="988"> PRIMARY KEY </text>
<polygon style="fill:none;stroke:black;" points="153,994 153,918 301,918 301,994 153,994"/>
</g>
<g id="edge30" class="edge"><title>branchrelationship&#45;&gt;branch</title>
<path style="fill:none;stroke:black;" d="M309,938C355,928 414,915 471,902"/>
<polygon style="fill:black;stroke:black;" points="471,899 481,900 472,905 471,899"/>
</g>
<g id="edge32" class="edge"><title>branchrelationship&#45;&gt;branch</title>
<path style="fill:none;stroke:black;" d="M309,938C355,928 414,915 471,902"/>
<polygon style="fill:black;stroke:black;" points="471,899 481,900 472,905 471,899"/>
</g>
<g id="node7" class="node"><title>developmentmanifest</title>
<polygon style="fill:#c1cdcc;stroke:#c1cdcc;" points="1237,315 1237,211 1483,211 1483,315 1237,315"/>
<polygon style="fill:white;stroke:white;" points="1240,228 1240,214 1480,214 1480,228 1240,228"/>
<text text-anchor="middle" style="font-size:8.00;" x="1360" y="224">developmentmanifest</text>
<polygon style="fill:none;stroke:black;" points="1240,228 1240,214 1480,214 1480,228 1240,228"/>
<text text-anchor="middle" style="font-size:8.00;" x="1246" y="239">id</text>
<text text-anchor="middle" style="font-size:8.00;" x="1323" y="239">serial</text>
<text text-anchor="middle" style="font-size:8.00;" x="1385" y="239"> PRIMARY KEY </text>
<text text-anchor="middle" style="font-size:8.00;" x="1253" y="253">owner</text>
<text text-anchor="middle" style="font-size:8.00;" x="1326" y="253">integer</text>
<text text-anchor="middle" style="font-size:8.00;" x="1395" y="253"> REFERENCES person </text>
<text text-anchor="middle" style="font-size:8.00;" x="1263" y="267">distrorelease</text>
<text text-anchor="middle" style="font-size:8.00;" x="1326" y="267">integer</text>
<text text-anchor="middle" style="font-size:8.00;" x="1404" y="267"> REFERENCES distrorelease </text>
<text text-anchor="middle" style="font-size:8.00;" x="1275" y="281">sourcepackagename</text>
<text text-anchor="middle" style="font-size:8.00;" x="1326" y="281">integer</text>
<text text-anchor="middle" style="font-size:8.00;" x="1417" y="281"> REFERENCES sourcepackagename </text>
<text text-anchor="middle" style="font-size:8.00;" x="1257" y="295">manifest</text>
<text text-anchor="middle" style="font-size:8.00;" x="1326" y="295">integer</text>
<text text-anchor="middle" style="font-size:8.00;" x="1398" y="295"> REFERENCES manifest </text>
<text text-anchor="middle" style="font-size:8.00;" x="1261" y="309">datecreated</text>
<text text-anchor="middle" style="font-size:8.00;" x="1332" y="309">timestamp</text>
<polygon style="fill:none;stroke:black;" points="1237,315 1237,211 1483,211 1483,315 1237,315"/>
</g>
<g id="node8" class="node"><title>manifest</title>
<polygon style="fill:#c1cdcc;stroke:#c1cdcc;" points="1300,404 1300,342 1454,342 1454,404 1300,404"/>
<polygon style="fill:white;stroke:white;" points="1303,359 1303,345 1451,345 1451,359 1303,359"/>
<text text-anchor="middle" style="font-size:8.00;" x="1377" y="355">manifest</text>
<polygon style="fill:none;stroke:black;" points="1303,359 1303,345 1451,345 1451,359 1303,359"/>
<text text-anchor="middle" style="font-size:8.00;" x="1309" y="370">id</text>
<text text-anchor="middle" style="font-size:8.00;" x="1357" y="370">serial</text>
<text text-anchor="middle" style="font-size:8.00;" x="1419" y="370"> PRIMARY KEY </text>
<text text-anchor="middle" style="font-size:8.00;" x="1324" y="384">datecreated</text>
<text text-anchor="middle" style="font-size:8.00;" x="1366" y="384">timestamp</text>
<text text-anchor="middle" style="font-size:8.00;" x="1313" y="398">uuid</text>
<text text-anchor="middle" style="font-size:8.00;" x="1355" y="398">text</text>
<text text-anchor="middle" style="font-size:8.00;" x="1407" y="398"> UNIQUE </text>
<polygon style="fill:none;stroke:black;" points="1300,404 1300,342 1454,342 1454,404 1300,404"/>
</g>
<g id="edge40" class="edge"><title>developmentmanifest&#45;&gt;manifest</title>
<path style="fill:none;stroke:black;" d="M1369,319C1369,322 1370,325 1370,328"/>
<polygon style="fill:black;stroke:black;" points="1373,328 1372,338 1367,329 1373,328"/>
</g>
<g id="node38" class="node"><title>fake_person_101</title>
<ellipse cx="1303" cy="23" rx="27" ry="18" style="fill:none;stroke:red;"/>
<text text-anchor="middle" style="font-size:8.00;" x="1303" y="26">person</text>
</g>
<g id="edge34" class="edge"><title>developmentmanifest&#45;&gt;fake_person_101</title>
<path style="fill:none;stroke:black;" d="M1347,207C1335,158 1319,89 1310,51"/>
<polygon style="fill:black;stroke:black;" points="1307,52 1307,41 1313,50 1307,52"/>
</g>
<g id="node40" class="node"><title>fake_distrorelease_103</title>
<ellipse cx="1490" cy="54" rx="32" ry="18" style="fill:none;stroke:red;"/>
<text text-anchor="middle" style="font-size:8.00;" x="1490" y="57">distrorelease</text>
</g>
<g id="edge36" class="edge"><title>developmentmanifest&#45;&gt;fake_distrorelease_103</title>
<path style="fill:none;stroke:black;" d="M1395,207C1420,165 1454,111 1474,80"/>
<polygon style="fill:black;stroke:black;" points="1471,78 1479,71 1477,81 1471,78"/>
</g>
<g id="node42" class="node"><title>fake_sourcepackagename_105</title>
<ellipse cx="1289" cy="168" rx="44" ry="18" style="fill:none;stroke:red;"/>
<text text-anchor="middle" style="font-size:8.00;" x="1289" y="171">sourcepackagename</text>
</g>
<g id="edge38" class="edge"><title>developmentmanifest&#45;&gt;fake_sourcepackagename_105</title>
<path style="fill:none;stroke:black;" d="M1318,207C1314,202 1311,198 1308,193"/>
<polygon style="fill:black;stroke:black;" points="1305,195 1302,185 1311,191 1305,195"/>
</g>
<g id="node9" class="node"><title>manifestancestry</title>
<polygon style="fill:#c1cdcc;stroke:#c1cdcc;" points="1530,318 1530,256 1716,256 1716,318 1530,318"/>
<polygon style="fill:white;stroke:white;" points="1533,273 1533,259 1713,259 1713,273 1533,273"/>
<text text-anchor="middle" style="font-size:8.00;" x="1623" y="269">manifestancestry</text>
<polygon style="fill:none;stroke:black;" points="1533,273 1533,259 1713,259 1713,273 1533,273"/>
<text text-anchor="middle" style="font-size:8.00;" x="1539" y="284">id</text>
<text text-anchor="middle" style="font-size:8.00;" x="1573" y="284">serial</text>
<text text-anchor="middle" style="font-size:8.00;" x="1624" y="284"> PRIMARY KEY </text>
<text text-anchor="middle" style="font-size:8.00;" x="1546" y="298">parent</text>
<text text-anchor="middle" style="font-size:8.00;" x="1576" y="298">integer</text>
<text text-anchor="middle" style="font-size:8.00;" x="1653" y="298"> UNIQUE REFERENCES manifest </text>
<text text-anchor="middle" style="font-size:8.00;" x="1544" y="312">child</text>
<text text-anchor="middle" style="font-size:8.00;" x="1576" y="312">integer</text>
<text text-anchor="middle" style="font-size:8.00;" x="1653" y="312"> REFERENCES manifest UNIQUE </text>
<polygon style="fill:none;stroke:black;" points="1530,318 1530,256 1716,256 1716,318 1530,318"/>
</g>
<g id="edge42" class="edge"><title>manifestancestry&#45;&gt;manifest</title>
<path style="fill:none;stroke:black;" d="M1523,322C1506,328 1489,334 1472,340"/>
<polygon style="fill:black;stroke:black;" points="1473,343 1462,343 1471,337 1473,343"/>
</g>
<g id="edge44" class="edge"><title>manifestancestry&#45;&gt;manifest</title>
<path style="fill:none;stroke:black;" d="M1523,322C1506,328 1489,334 1472,340"/>
<polygon style="fill:black;stroke:black;" points="1473,343 1462,343 1471,337 1473,343"/>
</g>
<g id="node10" class="node"><title>manifestentry</title>
<polygon style="fill:#c1cdcc;stroke:#c1cdcc;" points="1059,784 1059,624 1387,624 1387,784 1059,784"/>
<polygon style="fill:white;stroke:white;" points="1062,641 1062,627 1384,627 1384,641 1062,641"/>
<text text-anchor="middle" style="font-size:8.00;" x="1223" y="637">manifestentry</text>
<polygon style="fill:none;stroke:black;" points="1062,641 1062,627 1384,627 1384,641 1062,641"/>
<text text-anchor="middle" style="font-size:8.00;" x="1068" y="652">id</text>
<text text-anchor="middle" style="font-size:8.00;" x="1113" y="652">serial</text>
<text text-anchor="middle" style="font-size:8.00;" x="1164" y="652"> PRIMARY KEY </text>
<text text-anchor="middle" style="font-size:8.00;" x="1079" y="666">manifest</text>
<text text-anchor="middle" style="font-size:8.00;" x="1116" y="666">integer</text>
<text text-anchor="middle" style="font-size:8.00;" x="1258" y="666"> REFERENCES manifest UNIQUE UNIQUE REFERENCES manifestentry </text>
<text text-anchor="middle" style="font-size:8.00;" x="1079" y="680">sequence</text>
<text text-anchor="middle" style="font-size:8.00;" x="1116" y="680">integer</text>
<text text-anchor="middle" style="font-size:8.00;" x="1152" y="680"> UNIQUE </text>
<text text-anchor="middle" style="font-size:8.00;" x="1076" y="694">branch</text>
<text text-anchor="middle" style="font-size:8.00;" x="1116" y="694">integer</text>
<text text-anchor="middle" style="font-size:8.00;" x="1174" y="694"> REFERENCES branch </text>
<text text-anchor="middle" style="font-size:8.00;" x="1081" y="708">changeset</text>
<text text-anchor="middle" style="font-size:8.00;" x="1116" y="708">integer</text>
<text text-anchor="middle" style="font-size:8.00;" x="1176" y="708"> REFERENCES revision </text>
<text text-anchor="middle" style="font-size:8.00;" x="1080" y="722">entrytype</text>
<text text-anchor="middle" style="font-size:8.00;" x="1116" y="722">integer</text>
<text text-anchor="middle" style="font-size:8.00;" x="1072" y="736">path</text>
<text text-anchor="middle" style="font-size:8.00;" x="1111" y="736">text</text>
<text text-anchor="middle" style="font-size:8.00;" x="1078" y="750">dirname</text>
<text text-anchor="middle" style="font-size:8.00;" x="1111" y="750">text</text>
<text text-anchor="middle" style="font-size:8.00;" x="1071" y="764">hint</text>
<text text-anchor="middle" style="font-size:8.00;" x="1116" y="764">integer</text>
<text text-anchor="middle" style="font-size:8.00;" x="1152" y="764"> UNIQUE </text>
<text text-anchor="middle" style="font-size:8.00;" x="1075" y="778">parent</text>
<text text-anchor="middle" style="font-size:8.00;" x="1116" y="778">integer</text>
<text text-anchor="middle" style="font-size:8.00;" x="1185" y="778"> REFERENCES manifestentry </text>
<polygon style="fill:none;stroke:black;" points="1059,784 1059,624 1387,624 1387,784 1059,784"/>
</g>
<g id="edge50" class="edge"><title>manifestentry&#45;&gt;branch</title>
<path style="fill:none;stroke:black;" d="M1051,752C988,770 916,790 851,807"/>
<polygon style="fill:black;stroke:black;" points="852,810 841,810 850,804 852,810"/>
</g>
<g id="edge46" class="edge"><title>manifestentry&#45;&gt;manifest</title>
<path style="fill:none;stroke:black;" d="M1262,620C1292,556 1332,469 1357,417"/>
<polygon style="fill:black;stroke:black;" points="1354,416 1361,408 1360,419 1354,416"/>
</g>
<g id="edge48" class="edge"><title>manifestentry&#45;&gt;manifestentry</title>
<path style="fill:none;stroke:black;" d="M1395,749C1406,738 1413,723 1413,704 1413,689 1409,677 1402,667"/>
<polygon style="fill:black;stroke:black;" points="1399,669 1395,659 1404,664 1399,669"/>
</g>
<g id="node11" class="node"><title>revision</title>
<polygon style="fill:#c1cdcc;stroke:#c1cdcc;" points="1453,1005 1453,873 1667,873 1667,1005 1453,1005"/>
<polygon style="fill:white;stroke:white;" points="1456,890 1456,876 1664,876 1664,890 1456,890"/>
<text text-anchor="middle" style="font-size:8.00;" x="1560" y="886">revision</text>
<polygon style="fill:none;stroke:black;" points="1456,890 1456,876 1664,876 1664,890 1456,890"/>
<text text-anchor="middle" style="font-size:8.00;" x="1462" y="901">id</text>
<text text-anchor="middle" style="font-size:8.00;" x="1526" y="901">serial</text>
<text text-anchor="middle" style="font-size:8.00;" x="1588" y="901"> PRIMARY KEY </text>
<text text-anchor="middle" style="font-size:8.00;" x="1479" y="915">date_created</text>
<text text-anchor="middle" style="font-size:8.00;" x="1535" y="915">timestamp</text>
<text text-anchor="middle" style="font-size:8.00;" x="1474" y="929">log_body</text>
<text text-anchor="middle" style="font-size:8.00;" x="1524" y="929">text</text>
<text text-anchor="middle" style="font-size:8.00;" x="1484" y="943">revision_author</text>
<text text-anchor="middle" style="font-size:8.00;" x="1529" y="943">integer</text>
<text text-anchor="middle" style="font-size:8.00;" x="1610" y="943"> REFERENCES revisionauthor </text>
<text text-anchor="middle" style="font-size:8.00;" x="1471" y="957">gpgkey</text>
<text text-anchor="middle" style="font-size:8.00;" x="1529" y="957">integer</text>
<text text-anchor="middle" style="font-size:8.00;" x="1599" y="957"> REFERENCES gpgkey </text>
<text text-anchor="middle" style="font-size:8.00;" x="1469" y="971">owner</text>
<text text-anchor="middle" style="font-size:8.00;" x="1529" y="971">integer</text>
<text text-anchor="middle" style="font-size:8.00;" x="1598" y="971"> REFERENCES person </text>
<text text-anchor="middle" style="font-size:8.00;" x="1477" y="985">revision_id</text>
<text text-anchor="middle" style="font-size:8.00;" x="1524" y="985">text</text>
<text text-anchor="middle" style="font-size:8.00;" x="1576" y="985"> UNIQUE </text>
<text text-anchor="middle" style="font-size:8.00;" x="1481" y="999">revision_date</text>
<text text-anchor="middle" style="font-size:8.00;" x="1535" y="999">timestamp</text>
<polygon style="fill:none;stroke:black;" points="1453,1005 1453,873 1667,873 1667,1005 1453,1005"/>
</g>
<g id="edge52" class="edge"><title>manifestentry&#45;&gt;revision</title>
<path style="fill:none;stroke:black;" d="M1344,788C1379,813 1417,839 1450,863"/>
<polygon style="fill:black;stroke:black;" points="1453,861 1459,869 1449,866 1453,861"/>
</g>
<g id="node12" class="node"><title>revisionauthor</title>
<polygon style="fill:#c1cdcc;stroke:#c1cdcc;" points="1734,1116 1734,1068 1854,1068 1854,1116 1734,1116"/>
<polygon style="fill:white;stroke:white;" points="1737,1085 1737,1071 1851,1071 1851,1085 1737,1085"/>
<text text-anchor="middle" style="font-size:8.00;" x="1794" y="1081">revisionauthor</text>
<polygon style="fill:none;stroke:black;" points="1737,1085 1737,1071 1851,1071 1851,1085 1737,1085"/>
<text text-anchor="middle" style="font-size:8.00;" x="1743" y="1096">id</text>
<text text-anchor="middle" style="font-size:8.00;" x="1774" y="1096">serial</text>
<text text-anchor="middle" style="font-size:8.00;" x="1819" y="1096"> PRIMARY KEY </text>
<text text-anchor="middle" style="font-size:8.00;" x="1749" y="1110">name</text>
<text text-anchor="middle" style="font-size:8.00;" x="1772" y="1110">text</text>
<text text-anchor="middle" style="font-size:8.00;" x="1807" y="1110"> UNIQUE </text>
<polygon style="fill:none;stroke:black;" points="1734,1116 1734,1068 1854,1068 1854,1116 1734,1116"/>
</g>
<g id="edge54" class="edge"><title>revision&#45;&gt;revisionauthor</title>
<path style="fill:none;stroke:black;" d="M1667,1009C1693,1026 1721,1043 1743,1058"/>
<polygon style="fill:black;stroke:black;" points="1745,1055 1751,1064 1741,1061 1745,1055"/>
</g>
<g id="node52" class="node"><title>fake_gpgkey_291</title>
<ellipse cx="1758" cy="828" rx="27" ry="18" style="fill:none;stroke:red;"/>
<text text-anchor="middle" style="font-size:8.00;" x="1758" y="831">gpgkey</text>
</g>
<g id="edge56" class="edge"><title>revision&#45;&gt;fake_gpgkey_291</title>
<path style="fill:none;stroke:black;" d="M1675,874C1695,863 1714,853 1728,845"/>
<polygon style="fill:black;stroke:black;" points="1727,842 1737,840 1730,848 1727,842"/>
</g>
<g id="node54" class="node"><title>fake_person_293</title>
<ellipse cx="1634" cy="1148" rx="27" ry="18" style="fill:none;stroke:red;"/>
<text text-anchor="middle" style="font-size:8.00;" x="1634" y="1151">person</text>
</g>
<g id="edge58" class="edge"><title>revision&#45;&gt;fake_person_293</title>
<path style="fill:none;stroke:black;" d="M1585,1009C1598,1047 1614,1093 1624,1121"/>
<polygon style="fill:black;stroke:black;" points="1627,1119 1628,1130 1621,1122 1627,1119"/>
</g>
<g id="edge60" class="edge"><title>revisionnumber&#45;&gt;branch</title>
<path style="fill:none;stroke:black;" d="M1076,918C1010,908 927,897 851,886"/>
<polygon style="fill:black;stroke:black;" points="851,889 841,885 851,883 851,889"/>
</g>
<g id="edge62" class="edge"><title>revisionnumber&#45;&gt;revision</title>
<path style="fill:none;stroke:black;" d="M1312,936C1352,936 1395,937 1435,937"/>
<polygon style="fill:black;stroke:black;" points="1435,933 1445,937 1435,940 1435,933"/>
</g>
<g id="node14" class="node"><title>revisionparent</title>
<polygon style="fill:#c1cdcc;stroke:#c1cdcc;" points="1794,979 1794,903 1988,903 1988,979 1794,979"/>
<polygon style="fill:white;stroke:white;" points="1797,920 1797,906 1985,906 1985,920 1797,920"/>
<text text-anchor="middle" style="font-size:8.00;" x="1891" y="916">revisionparent</text>
<polygon style="fill:none;stroke:black;" points="1797,920 1797,906 1985,906 1985,920 1797,920"/>
<text text-anchor="middle" style="font-size:8.00;" x="1803" y="931">id</text>
<text text-anchor="middle" style="font-size:8.00;" x="1846" y="931">serial</text>
<text text-anchor="middle" style="font-size:8.00;" x="1897" y="931"> PRIMARY KEY </text>
<text text-anchor="middle" style="font-size:8.00;" x="1814" y="945">sequence</text>
<text text-anchor="middle" style="font-size:8.00;" x="1849" y="945">integer</text>
<text text-anchor="middle" style="font-size:8.00;" x="1813" y="959">revision</text>
<text text-anchor="middle" style="font-size:8.00;" x="1849" y="959">integer</text>
<text text-anchor="middle" style="font-size:8.00;" x="1925" y="959"> REFERENCES revision UNIQUE </text>
<text text-anchor="middle" style="font-size:8.00;" x="1815" y="973">parent_id</text>
<text text-anchor="middle" style="font-size:8.00;" x="1844" y="973">text</text>
<text text-anchor="middle" style="font-size:8.00;" x="1885" y="973"> UNIQUE </text>
<polygon style="fill:none;stroke:black;" points="1794,979 1794,903 1988,903 1988,979 1794,979"/>
</g>
<g id="edge64" class="edge"><title>revisionparent&#45;&gt;revision</title>
<path style="fill:none;stroke:black;" d="M1786,940C1754,940 1718,940 1685,940"/>
<polygon style="fill:black;stroke:black;" points="1685,943 1675,940 1685,936 1685,943"/>
</g>
</g>
</svg>
