<?xml version="1.0" encoding="UTF-8" standalone="no"?>
<!DOCTYPE svg PUBLIC "-//W3C//DTD SVG 1.0//EN"
 "http://www.w3.org/TR/2001/REC-SVG-20010904/DTD/svg10.dtd">
<!-- Generated by fdp version 2.2.1 (Tue Oct 11 01:38:21 UTC 2005)
     For user: (stub) Stuart Bishop,,,   Title: g    Pages: 1 -->
<svg width="585px" height="535px"
 viewBox = "-1 -1 584 534"
 xmlns="http://www.w3.org/2000/svg">
<g id="graph0" class="graph" transform = "scale(0.337855)"
 style="font-family:Times-Roman;font-size:14.00;">
<title>g</title>
<text text-anchor="middle" style="font-size:22.00;" x="854" y="1561">Buttress</text>
<g id="node1" class="node"><title>archconfig</title>
<polygon style="fill:#c1cdcc;stroke:#c1cdcc;" points="601,286 601,196 757,196 757,286 601,286"/>
<polygon style="fill:white;stroke:white;" points="604,211 604,199 754,199 754,211 604,211"/>
<text text-anchor="middle" style="font-size:6.00;" x="679" y="207">archconfig</text>
<polygon style="fill:none;stroke:black;" points="604,211 604,199 754,199 754,211 604,211"/>
<text text-anchor="middle" style="font-size:6.00;" x="609" y="220">id</text>
<text text-anchor="middle" style="font-size:6.00;" x="656" y="220">serial</text>
<text text-anchor="middle" style="font-size:6.00;" x="696" y="220"> PRIMARY KEY </text>
<text text-anchor="middle" style="font-size:6.00;" x="614" y="232">name</text>
<text text-anchor="middle" style="font-size:6.00;" x="655" y="232">text</text>
<text text-anchor="middle" style="font-size:6.00;" x="612" y="244">title</text>
<text text-anchor="middle" style="font-size:6.00;" x="655" y="244">text</text>
<text text-anchor="middle" style="font-size:6.00;" x="621" y="256">description</text>
<text text-anchor="middle" style="font-size:6.00;" x="655" y="256">text</text>
<text text-anchor="middle" style="font-size:6.00;" x="625" y="268">productrelease</text>
<text text-anchor="middle" style="font-size:6.00;" x="658" y="268">integer</text>
<text text-anchor="middle" style="font-size:6.00;" x="713" y="268"> REFERENCES productrelease </text>
<text text-anchor="middle" style="font-size:6.00;" x="615" y="280">owner</text>
<text text-anchor="middle" style="font-size:6.00;" x="658" y="280">integer</text>
<text text-anchor="middle" style="font-size:6.00;" x="703" y="280"> REFERENCES person </text>
<polygon style="fill:none;stroke:black;" points="601,286 601,196 757,196 757,286 601,286"/>
</g>
<g id="node14" class="node"><title>fake_productrelease_1</title>
<ellipse cx="536" cy="97" rx="29" ry="18" style="fill:none;stroke:red;"/>
<text text-anchor="middle" style="font-size:6.00;" x="536" y="99">productrelease</text>
</g>
<g id="edge2" class="edge"><title>archconfig&#45;&gt;fake_productrelease_1</title>
<path style="fill:none;stroke:black;" d="M630,192C606,167 578,139 558,120"/>
<polygon style="fill:black;stroke:black;" points="556,123 551,113 561,118 556,123"/>
</g>
<g id="node16" class="node"><title>fake_person_3</title>
<ellipse cx="707" cy="42" rx="27" ry="18" style="fill:none;stroke:red;"/>
<text text-anchor="middle" style="font-size:6.00;" x="707" y="44">person</text>
</g>
<g id="edge4" class="edge"><title>archconfig&#45;&gt;fake_person_3</title>
<path style="fill:none;stroke:black;" d="M686,192C691,153 698,102 703,70"/>
<polygon style="fill:black;stroke:black;" points="700,70 704,60 706,70 700,70"/>
</g>
<g id="node2" class="node"><title>archconfigentry</title>
<polygon style="fill:#c1cdcc;stroke:#c1cdcc;" points="705,554 705,488 843,488 843,554 705,554"/>
<polygon style="fill:white;stroke:white;" points="708,503 708,491 840,491 840,503 708,503"/>
<text text-anchor="middle" style="font-size:6.00;" x="774" y="499">archconfigentry</text>
<polygon style="fill:none;stroke:black;" points="708,503 708,491 840,491 840,503 708,503"/>
<text text-anchor="middle" style="font-size:6.00;" x="724" y="512">archconfig</text>
<text text-anchor="middle" style="font-size:6.00;" x="753" y="512">integer</text>
<text text-anchor="middle" style="font-size:6.00;" x="803" y="512"> REFERENCES archconfig </text>
<text text-anchor="middle" style="font-size:6.00;" x="716" y="524">path</text>
<text text-anchor="middle" style="font-size:6.00;" x="750" y="524">text</text>
<text text-anchor="middle" style="font-size:6.00;" x="719" y="536">branch</text>
<text text-anchor="middle" style="font-size:6.00;" x="753" y="536">integer</text>
<text text-anchor="middle" style="font-size:6.00;" x="798" y="536"> REFERENCES branch </text>
<text text-anchor="middle" style="font-size:6.00;" x="723" y="548">changeset</text>
<text text-anchor="middle" style="font-size:6.00;" x="753" y="548">integer</text>
<polygon style="fill:none;stroke:black;" points="705,554 705,488 843,488 843,554 705,554"/>
</g>
<g id="edge6" class="edge"><title>archconfigentry&#45;&gt;archconfig</title>
<path style="fill:none;stroke:black;" d="M761,484C746,437 718,356 699,300"/>
<polygon style="fill:black;stroke:black;" points="696,301 696,290 702,299 696,301"/>
</g>
<g id="node3" class="node"><title>branch</title>
<polygon style="fill:#c1cdcc;stroke:#c1cdcc;" points="831,1159 831,805 1097,805 1097,1159 831,1159"/>
<polygon style="fill:white;stroke:white;" points="834,820 834,808 1094,808 1094,820 834,820"/>
<text text-anchor="middle" style="font-size:6.00;" x="964" y="816">branch</text>
<polygon style="fill:none;stroke:black;" points="834,820 834,808 1094,808 1094,820 834,820"/>
<text text-anchor="middle" style="font-size:6.00;" x="839" y="829">id</text>
<text text-anchor="middle" style="font-size:6.00;" x="906" y="829">serial</text>
<text text-anchor="middle" style="font-size:6.00;" x="994" y="829"> REFERENCES revisionnumber PRIMARY KEY </text>
<text text-anchor="middle" style="font-size:6.00;" x="842" y="841">title</text>
<text text-anchor="middle" style="font-size:6.00;" x="905" y="841">text</text>
<text text-anchor="middle" style="font-size:6.00;" x="848" y="853">summary</text>
<text text-anchor="middle" style="font-size:6.00;" x="905" y="853">text</text>
<text text-anchor="middle" style="font-size:6.00;" x="845" y="865">owner</text>
<text text-anchor="middle" style="font-size:6.00;" x="908" y="865">integer</text>
<text text-anchor="middle" style="font-size:6.00;" x="962" y="865"> REFERENCES person </text>
<text text-anchor="middle" style="font-size:6.00;" x="846" y="877">product</text>
<text text-anchor="middle" style="font-size:6.00;" x="908" y="877">integer</text>
<text text-anchor="middle" style="font-size:6.00;" x="963" y="877"> REFERENCES product </text>
<text text-anchor="middle" style="font-size:6.00;" x="845" y="889">author</text>
<text text-anchor="middle" style="font-size:6.00;" x="908" y="889">integer</text>
<text text-anchor="middle" style="font-size:6.00;" x="962" y="889"> REFERENCES person </text>
<text text-anchor="middle" style="font-size:6.00;" x="844" y="901">name</text>
<text text-anchor="middle" style="font-size:6.00;" x="905" y="901">text</text>
<text text-anchor="middle" style="font-size:6.00;" x="864" y="913">branch_product_name</text>
<text text-anchor="middle" style="font-size:6.00;" x="905" y="913">text</text>
<text text-anchor="middle" style="font-size:6.00;" x="856" y="925">product_locked</text>
<text text-anchor="middle" style="font-size:6.00;" x="910" y="925">boolean</text>
<text text-anchor="middle" style="font-size:6.00;" x="851" y="937">home_page</text>
<text text-anchor="middle" style="font-size:6.00;" x="905" y="937">text</text>
<text text-anchor="middle" style="font-size:6.00;" x="861" y="949">branch_home_page</text>
<text text-anchor="middle" style="font-size:6.00;" x="905" y="949">text</text>
<text text-anchor="middle" style="font-size:6.00;" x="861" y="961">home_page_locked</text>
<text text-anchor="middle" style="font-size:6.00;" x="910" y="961">boolean</text>
<text text-anchor="middle" style="font-size:6.00;" x="840" y="973">url</text>
<text text-anchor="middle" style="font-size:6.00;" x="905" y="973">text</text>
<text text-anchor="middle" style="font-size:6.00;" x="851" y="985">whiteboard</text>
<text text-anchor="middle" style="font-size:6.00;" x="905" y="985">text</text>
<text text-anchor="middle" style="font-size:6.00;" x="856" y="997">lifecycle_status</text>
<text text-anchor="middle" style="font-size:6.00;" x="908" y="997">integer</text>
<text text-anchor="middle" style="font-size:6.00;" x="855" y="1009">landing_target</text>
<text text-anchor="middle" style="font-size:6.00;" x="908" y="1009">integer</text>
<text text-anchor="middle" style="font-size:6.00;" x="962" y="1009"> REFERENCES branch </text>
<text text-anchor="middle" style="font-size:6.00;" x="858" y="1021">current_delta_url</text>
<text text-anchor="middle" style="font-size:6.00;" x="905" y="1021">text</text>
<text text-anchor="middle" style="font-size:6.00;" x="863" y="1033">current_conflicts_url</text>
<text text-anchor="middle" style="font-size:6.00;" x="905" y="1033">text</text>
<text text-anchor="middle" style="font-size:6.00;" x="859" y="1045">current_diff_adds</text>
<text text-anchor="middle" style="font-size:6.00;" x="908" y="1045">integer</text>
<text text-anchor="middle" style="font-size:6.00;" x="862" y="1057">current_diff_deletes</text>
<text text-anchor="middle" style="font-size:6.00;" x="908" y="1057">integer</text>
<text text-anchor="middle" style="font-size:6.00;" x="853" y="1069">stats_updated</text>
<text text-anchor="middle" style="font-size:6.00;" x="913" y="1069">timestamp</text>
<text text-anchor="middle" style="font-size:6.00;" x="856" y="1081">current_activity</text>
<text text-anchor="middle" style="font-size:6.00;" x="908" y="1081">integer</text>
<text text-anchor="middle" style="font-size:6.00;" x="853" y="1093">last_mirrored</text>
<text text-anchor="middle" style="font-size:6.00;" x="913" y="1093">timestamp</text>
<text text-anchor="middle" style="font-size:6.00;" x="861" y="1105">last_mirror_attempt</text>
<text text-anchor="middle" style="font-size:6.00;" x="913" y="1105">timestamp</text>
<text text-anchor="middle" style="font-size:6.00;" x="855" y="1117">mirror_failures</text>
<text text-anchor="middle" style="font-size:6.00;" x="908" y="1117">integer</text>
<text text-anchor="middle" style="font-size:6.00;" x="854" y="1129">pull_disabled</text>
<text text-anchor="middle" style="font-size:6.00;" x="910" y="1129">boolean</text>
<text text-anchor="middle" style="font-size:6.00;" x="849" y="1141">cache_url</text>
<text text-anchor="middle" style="font-size:6.00;" x="905" y="1141">text</text>
<text text-anchor="middle" style="font-size:6.00;" x="848" y="1153">started_at</text>
<text text-anchor="middle" style="font-size:6.00;" x="908" y="1153">integer</text>
<text text-anchor="middle" style="font-size:6.00;" x="1012" y="1153"> REFERENCES revisionnumber REFERENCES revisionnumber </text>
<polygon style="fill:none;stroke:black;" points="831,1159 831,805 1097,805 1097,1159 831,1159"/>
</g>
<g id="edge8" class="edge"><title>archconfigentry&#45;&gt;branch</title>
<path style="fill:none;stroke:black;" d="M789,558C810,609 850,704 885,791"/>
<polygon style="fill:black;stroke:black;" points="889,790 889,801 882,793 889,790"/>
</g>
<g id="edge18" class="edge"><title>branch&#45;&gt;branch</title>
<path style="fill:none;stroke:black;" d="M1105,1085C1116,1062 1123,1028 1123,982 1123,942 1118,911 1109,888"/>
<polygon style="fill:black;stroke:black;" points="1106,890 1105,879 1112,887 1106,890"/>
</g>
<g id="node12" class="node"><title>revisionnumber</title>
<polygon style="fill:#c1cdcc;stroke:#c1cdcc;" points="1234,797 1234,731 1406,731 1406,797 1234,797"/>
<polygon style="fill:white;stroke:white;" points="1237,746 1237,734 1403,734 1403,746 1237,746"/>
<text text-anchor="middle" style="font-size:6.00;" x="1320" y="742">revisionnumber</text>
<polygon style="fill:none;stroke:black;" points="1237,746 1237,734 1403,734 1403,746 1237,746"/>
<text text-anchor="middle" style="font-size:6.00;" x="1242" y="755">id</text>
<text text-anchor="middle" style="font-size:6.00;" x="1275" y="755">serial</text>
<text text-anchor="middle" style="font-size:6.00;" x="1327" y="755"> UNIQUE PRIMARY KEY </text>
<text text-anchor="middle" style="font-size:6.00;" x="1251" y="767">sequence</text>
<text text-anchor="middle" style="font-size:6.00;" x="1277" y="767">integer</text>
<text text-anchor="middle" style="font-size:6.00;" x="1306" y="767"> UNIQUE </text>
<text text-anchor="middle" style="font-size:6.00;" x="1248" y="779">branch</text>
<text text-anchor="middle" style="font-size:6.00;" x="1277" y="779">integer</text>
<text text-anchor="middle" style="font-size:6.00;" x="1347" y="779"> REFERENCES branch UNIQUE UNIQUE </text>
<text text-anchor="middle" style="font-size:6.00;" x="1250" y="791">revision</text>
<text text-anchor="middle" style="font-size:6.00;" x="1277" y="791">integer</text>
<text text-anchor="middle" style="font-size:6.00;" x="1336" y="791"> REFERENCES revision UNIQUE </text>
<polygon style="fill:none;stroke:black;" points="1234,797 1234,731 1406,731 1406,797 1234,797"/>
</g>
<g id="edge10" class="edge"><title>branch&#45;&gt;revisionnumber</title>
<path style="fill:none;stroke:black;" d="M1105,880C1147,854 1191,827 1228,806"/>
<polygon style="fill:black;stroke:black;" points="1227,803 1237,801 1230,809 1227,803"/>
</g>
<g id="edge20" class="edge"><title>branch&#45;&gt;revisionnumber</title>
<path style="fill:none;stroke:black;" d="M1105,910C1163,876 1226,836 1269,807"/>
<polygon style="fill:black;stroke:black;" points="1267,804 1277,801 1271,810 1267,804"/>
</g>
<g id="node21" class="node"><title>fake_person_21</title>
<ellipse cx="1260" cy="1166" rx="27" ry="18" style="fill:none;stroke:red;"/>
<text text-anchor="middle" style="font-size:6.00;" x="1260" y="1168">person</text>
</g>
<g id="edge12" class="edge"><title>branch&#45;&gt;fake_person_21</title>
<path style="fill:none;stroke:black;" d="M1105,1070C1153,1099 1202,1130 1231,1148"/>
<polygon style="fill:black;stroke:black;" points="1233,1145 1240,1153 1230,1151 1233,1145"/>
</g>
<g id="node23" class="node"><title>fake_product_23</title>
<ellipse cx="972" cy="1331" rx="27" ry="18" style="fill:none;stroke:red;"/>
<text text-anchor="middle" style="font-size:6.00;" x="972" y="1333">product</text>
</g>
<g id="edge14" class="edge"><title>branch&#45;&gt;fake_product_23</title>
<path style="fill:none;stroke:black;" d="M968,1163C969,1218 971,1271 972,1303"/>
<polygon style="fill:black;stroke:black;" points="976,1303 972,1313 969,1303 976,1303"/>
</g>
<g id="node25" class="node"><title>fake_person_25</title>
<ellipse cx="1082" cy="655" rx="27" ry="18" style="fill:none;stroke:red;"/>
<text text-anchor="middle" style="font-size:6.00;" x="1082" y="657">person</text>
</g>
<g id="edge16" class="edge"><title>branch&#45;&gt;fake_person_25</title>
<path style="fill:none;stroke:black;" d="M1029,801C1046,754 1062,709 1072,682"/>
<polygon style="fill:black;stroke:black;" points="1069,681 1076,673 1075,684 1069,681"/>
</g>
<g id="node4" class="node"><title>branchlabel</title>
<polygon style="fill:#c1cdcc;stroke:#c1cdcc;" points="710,1387 710,1333 828,1333 828,1387 710,1387"/>
<polygon style="fill:white;stroke:white;" points="713,1348 713,1336 825,1336 825,1348 713,1348"/>
<text text-anchor="middle" style="font-size:6.00;" x="769" y="1344">branchlabel</text>
<polygon style="fill:none;stroke:black;" points="713,1348 713,1336 825,1336 825,1348 713,1348"/>
<text text-anchor="middle" style="font-size:6.00;" x="724" y="1357">branch</text>
<text text-anchor="middle" style="font-size:6.00;" x="748" y="1357">integer</text>
<text text-anchor="middle" style="font-size:6.00;" x="793" y="1357"> REFERENCES branch </text>
<text text-anchor="middle" style="font-size:6.00;" x="722" y="1369">label</text>
<text text-anchor="middle" style="font-size:6.00;" x="748" y="1369">integer</text>
<text text-anchor="middle" style="font-size:6.00;" x="791" y="1369"> REFERENCES label </text>
<text text-anchor="middle" style="font-size:6.00;" x="718" y="1381">id</text>
<text text-anchor="middle" style="font-size:6.00;" x="748" y="1381">integer</text>
<text text-anchor="middle" style="font-size:6.00;" x="786" y="1381"> PRIMARY KEY </text>
<polygon style="fill:none;stroke:black;" points="710,1387 710,1333 828,1333 828,1387 710,1387"/>
</g>
<g id="edge22" class="edge"><title>branchlabel&#45;&gt;branch</title>
<path style="fill:none;stroke:black;" d="M785,1329C803,1294 835,1233 866,1172"/>
<polygon style="fill:black;stroke:black;" points="863,1170 871,1163 869,1173 863,1170"/>
</g>
<g id="node30" class="node"><title>fake_label_30</title>
<ellipse cx="714" cy="1518" rx="27" ry="18" style="fill:none;stroke:red;"/>
<text text-anchor="middle" style="font-size:6.00;" x="714" y="1520">label</text>
</g>
<g id="edge24" class="edge"><title>branchlabel&#45;&gt;fake_label_30</title>
<path style="fill:none;stroke:black;" d="M758,1391C748,1420 733,1463 723,1490"/>
<polygon style="fill:black;stroke:black;" points="726,1491 720,1500 720,1489 726,1491"/>
</g>
<g id="node5" class="node"><title>branchrelationship</title>
<polygon style="fill:#c1cdcc;stroke:#c1cdcc;" points="1102,1366 1102,1300 1220,1300 1220,1366 1102,1366"/>
<polygon style="fill:white;stroke:white;" points="1105,1315 1105,1303 1217,1303 1217,1315 1105,1315"/>
<text text-anchor="middle" style="font-size:6.00;" x="1161" y="1311">branchrelationship</text>
<polygon style="fill:none;stroke:black;" points="1105,1315 1105,1303 1217,1303 1217,1315 1105,1315"/>
<text text-anchor="middle" style="font-size:6.00;" x="1116" y="1324">subject</text>
<text text-anchor="middle" style="font-size:6.00;" x="1140" y="1324">integer</text>
<text text-anchor="middle" style="font-size:6.00;" x="1185" y="1324"> REFERENCES branch </text>
<text text-anchor="middle" style="font-size:6.00;" x="1114" y="1336">label</text>
<text text-anchor="middle" style="font-size:6.00;" x="1140" y="1336">integer</text>
<text text-anchor="middle" style="font-size:6.00;" x="1116" y="1348">object</text>
<text text-anchor="middle" style="font-size:6.00;" x="1140" y="1348">integer</text>
<text text-anchor="middle" style="font-size:6.00;" x="1185" y="1348"> REFERENCES branch </text>
<text text-anchor="middle" style="font-size:6.00;" x="1110" y="1360">id</text>
<text text-anchor="middle" style="font-size:6.00;" x="1140" y="1360">integer</text>
<text text-anchor="middle" style="font-size:6.00;" x="1178" y="1360"> PRIMARY KEY </text>
<polygon style="fill:none;stroke:black;" points="1102,1366 1102,1300 1220,1300 1220,1366 1102,1366"/>
</g>
<g id="edge26" class="edge"><title>branchrelationship&#45;&gt;branch</title>
<path style="fill:none;stroke:black;" d="M1135,1296C1116,1265 1089,1219 1063,1172"/>
<polygon style="fill:black;stroke:black;" points="1060,1173 1058,1163 1066,1170 1060,1173"/>
</g>
<g id="edge28" class="edge"><title>branchrelationship&#45;&gt;branch</title>
<path style="fill:none;stroke:black;" d="M1144,1296C1129,1265 1103,1220 1077,1172"/>
<polygon style="fill:black;stroke:black;" points="1074,1173 1072,1163 1080,1170 1074,1173"/>
</g>
<g id="node6" class="node"><title>developmentmanifest</title>
<polygon style="fill:#c1cdcc;stroke:#c1cdcc;" points="142,884 142,794 332,794 332,884 142,884"/>
<polygon style="fill:white;stroke:white;" points="145,809 145,797 329,797 329,809 145,809"/>
<text text-anchor="middle" style="font-size:6.00;" x="237" y="805">developmentmanifest</text>
<polygon style="fill:none;stroke:black;" points="145,809 145,797 329,797 329,809 145,809"/>
<text text-anchor="middle" style="font-size:6.00;" x="150" y="818">id</text>
<text text-anchor="middle" style="font-size:6.00;" x="209" y="818">serial</text>
<text text-anchor="middle" style="font-size:6.00;" x="258" y="818"> PRIMARY KEY </text>
<text text-anchor="middle" style="font-size:6.00;" x="156" y="830">owner</text>
<text text-anchor="middle" style="font-size:6.00;" x="211" y="830">integer</text>
<text text-anchor="middle" style="font-size:6.00;" x="265" y="830"> REFERENCES person </text>
<text text-anchor="middle" style="font-size:6.00;" x="163" y="842">distrorelease</text>
<text text-anchor="middle" style="font-size:6.00;" x="211" y="842">integer</text>
<text text-anchor="middle" style="font-size:6.00;" x="272" y="842"> REFERENCES distrorelease </text>
<text text-anchor="middle" style="font-size:6.00;" x="172" y="854">sourcepackagename</text>
<text text-anchor="middle" style="font-size:6.00;" x="211" y="854">integer</text>
<text text-anchor="middle" style="font-size:6.00;" x="281" y="854"> REFERENCES sourcepackagename </text>
<text text-anchor="middle" style="font-size:6.00;" x="158" y="866">manifest</text>
<text text-anchor="middle" style="font-size:6.00;" x="211" y="866">integer</text>
<text text-anchor="middle" style="font-size:6.00;" x="267" y="866"> REFERENCES manifest </text>
<text text-anchor="middle" style="font-size:6.00;" x="162" y="878">datecreated</text>
<text text-anchor="middle" style="font-size:6.00;" x="216" y="878">timestamp</text>
<polygon style="fill:none;stroke:black;" points="142,884 142,794 332,794 332,884 142,884"/>
</g>
<g id="node7" class="node"><title>manifest</title>
<polygon style="fill:#c1cdcc;stroke:#c1cdcc;" points="485,795 485,741 609,741 609,795 485,795"/>
<polygon style="fill:white;stroke:white;" points="488,756 488,744 606,744 606,756 488,756"/>
<text text-anchor="middle" style="font-size:6.00;" x="547" y="752">manifest</text>
<polygon style="fill:none;stroke:black;" points="488,756 488,744 606,744 606,756 488,756"/>
<text text-anchor="middle" style="font-size:6.00;" x="493" y="765">id</text>
<text text-anchor="middle" style="font-size:6.00;" x="533" y="765">serial</text>
<text text-anchor="middle" style="font-size:6.00;" x="582" y="765"> PRIMARY KEY </text>
<text text-anchor="middle" style="font-size:6.00;" x="505" y="777">datecreated</text>
<text text-anchor="middle" style="font-size:6.00;" x="540" y="777">timestamp</text>
<text text-anchor="middle" style="font-size:6.00;" x="497" y="789">uuid</text>
<text text-anchor="middle" style="font-size:6.00;" x="532" y="789">text</text>
<text text-anchor="middle" style="font-size:6.00;" x="573" y="789"> UNIQUE </text>
<polygon style="fill:none;stroke:black;" points="485,795 485,741 609,741 609,795 485,795"/>
</g>
<g id="edge36" class="edge"><title>developmentmanifest&#45;&gt;manifest</title>
<path style="fill:none;stroke:black;" d="M340,815C381,806 428,795 467,786"/>
<polygon style="fill:black;stroke:black;" points="467,783 477,784 468,789 467,783"/>
</g>
<g id="node34" class="node"><title>fake_person_97</title>
<ellipse cx="72" cy="703" rx="27" ry="18" style="fill:none;stroke:red;"/>
<text text-anchor="middle" style="font-size:6.00;" x="72" y="705">person</text>
</g>
<g id="edge30" class="edge"><title>developmentmanifest&#45;&gt;fake_person_97</title>
<path style="fill:none;stroke:black;" d="M177,790C150,767 118,741 97,723"/>
<polygon style="fill:black;stroke:black;" points="95,726 89,717 99,720 95,726"/>
</g>
<g id="node36" class="node"><title>fake_distrorelease_99</title>
<ellipse cx="33" cy="869" rx="27" ry="18" style="fill:none;stroke:red;"/>
<text text-anchor="middle" style="font-size:6.00;" x="33" y="871">distrorelease</text>
</g>
<g id="edge32" class="edge"><title>developmentmanifest&#45;&gt;fake_distrorelease_99</title>
<path style="fill:none;stroke:black;" d="M134,854C111,857 88,861 70,863"/>
<polygon style="fill:black;stroke:black;" points="70,866 60,865 69,860 70,866"/>
</g>
<g id="node38" class="node"><title>fake_sourcepackagename_101</title>
<ellipse cx="96" cy="1026" rx="35" ry="18" style="fill:none;stroke:red;"/>
<text text-anchor="middle" style="font-size:6.00;" x="96" y="1028">sourcepackagename</text>
</g>
<g id="edge34" class="edge"><title>developmentmanifest&#45;&gt;fake_sourcepackagename_101</title>
<path style="fill:none;stroke:black;" d="M200,888C173,924 137,972 115,1001"/>
<polygon style="fill:black;stroke:black;" points="118,1003 109,1009 112,999 118,1003"/>
</g>
<g id="node8" class="node"><title>manifestancestry</title>
<polygon style="fill:#c1cdcc;stroke:#c1cdcc;" points="394,961 394,907 540,907 540,961 394,961"/>
<polygon style="fill:white;stroke:white;" points="397,922 397,910 537,910 537,922 397,922"/>
<text text-anchor="middle" style="font-size:6.00;" x="467" y="918">manifestancestry</text>
<polygon style="fill:none;stroke:black;" points="397,922 397,910 537,910 537,922 397,922"/>
<text text-anchor="middle" style="font-size:6.00;" x="402" y="931">id</text>
<text text-anchor="middle" style="font-size:6.00;" x="430" y="931">serial</text>
<text text-anchor="middle" style="font-size:6.00;" x="470" y="931"> PRIMARY KEY </text>
<text text-anchor="middle" style="font-size:6.00;" x="408" y="943">parent</text>
<text text-anchor="middle" style="font-size:6.00;" x="432" y="943">integer</text>
<text text-anchor="middle" style="font-size:6.00;" x="491" y="943"> UNIQUE REFERENCES manifest </text>
<text text-anchor="middle" style="font-size:6.00;" x="406" y="955">child</text>
<text text-anchor="middle" style="font-size:6.00;" x="432" y="955">integer</text>
<text text-anchor="middle" style="font-size:6.00;" x="491" y="955"> REFERENCES manifest UNIQUE </text>
<polygon style="fill:none;stroke:black;" points="394,961 394,907 540,907 540,961 394,961"/>
</g>
<g id="edge38" class="edge"><title>manifestancestry&#45;&gt;manifest</title>
<path style="fill:none;stroke:black;" d="M476,903C487,876 505,837 520,808"/>
<polygon style="fill:black;stroke:black;" points="517,806 525,799 523,809 517,806"/>
</g>
<g id="edge40" class="edge"><title>manifestancestry&#45;&gt;manifest</title>
<path style="fill:none;stroke:black;" d="M488,903C502,876 521,838 533,809"/>
<polygon style="fill:black;stroke:black;" points="530,807 537,799 537,810 530,807"/>
</g>
<g id="node9" class="node"><title>manifestentry</title>
<polygon style="fill:#c1cdcc;stroke:#c1cdcc;" points="778,765 778,627 1030,627 1030,765 778,765"/>
<polygon style="fill:white;stroke:white;" points="781,642 781,630 1027,630 1027,642 781,642"/>
<text text-anchor="middle" style="font-size:6.00;" x="904" y="638">manifestentry</text>
<polygon style="fill:none;stroke:black;" points="781,642 781,630 1027,630 1027,642 781,642"/>
<text text-anchor="middle" style="font-size:6.00;" x="786" y="651">id</text>
<text text-anchor="middle" style="font-size:6.00;" x="822" y="651">serial</text>
<text text-anchor="middle" style="font-size:6.00;" x="862" y="651"> PRIMARY KEY </text>
<text text-anchor="middle" style="font-size:6.00;" x="794" y="663">manifest</text>
<text text-anchor="middle" style="font-size:6.00;" x="824" y="663">integer</text>
<text text-anchor="middle" style="font-size:6.00;" x="932" y="663"> REFERENCES manifest UNIQUE UNIQUE REFERENCES manifestentry </text>
<text text-anchor="middle" style="font-size:6.00;" x="795" y="675">sequence</text>
<text text-anchor="middle" style="font-size:6.00;" x="824" y="675">integer</text>
<text text-anchor="middle" style="font-size:6.00;" x="853" y="675"> UNIQUE </text>
<text text-anchor="middle" style="font-size:6.00;" x="792" y="687">branch</text>
<text text-anchor="middle" style="font-size:6.00;" x="824" y="687">integer</text>
<text text-anchor="middle" style="font-size:6.00;" x="869" y="687"> REFERENCES branch </text>
<text text-anchor="middle" style="font-size:6.00;" x="796" y="699">changeset</text>
<text text-anchor="middle" style="font-size:6.00;" x="824" y="699">integer</text>
<text text-anchor="middle" style="font-size:6.00;" x="871" y="699"> REFERENCES revision </text>
<text text-anchor="middle" style="font-size:6.00;" x="796" y="711">entrytype</text>
<text text-anchor="middle" style="font-size:6.00;" x="824" y="711">integer</text>
<text text-anchor="middle" style="font-size:6.00;" x="789" y="723">path</text>
<text text-anchor="middle" style="font-size:6.00;" x="821" y="723">text</text>
<text text-anchor="middle" style="font-size:6.00;" x="794" y="735">dirname</text>
<text text-anchor="middle" style="font-size:6.00;" x="821" y="735">text</text>
<text text-anchor="middle" style="font-size:6.00;" x="789" y="747">hint</text>
<text text-anchor="middle" style="font-size:6.00;" x="824" y="747">integer</text>
<text text-anchor="middle" style="font-size:6.00;" x="853" y="747"> UNIQUE </text>
<text text-anchor="middle" style="font-size:6.00;" x="792" y="759">parent</text>
<text text-anchor="middle" style="font-size:6.00;" x="824" y="759">integer</text>
<text text-anchor="middle" style="font-size:6.00;" x="878" y="759"> REFERENCES manifestentry </text>
<polygon style="fill:none;stroke:black;" points="778,765 778,627 1030,627 1030,765 778,765"/>
</g>
<g id="edge46" class="edge"><title>manifestentry&#45;&gt;branch</title>
<path style="fill:none;stroke:black;" d="M919,769C920,776 922,784 924,791"/>
<polygon style="fill:black;stroke:black;" points="927,791 926,801 921,792 927,791"/>
</g>
<g id="edge42" class="edge"><title>manifestentry&#45;&gt;manifest</title>
<path style="fill:none;stroke:black;" d="M770,723C722,732 669,743 627,752"/>
<polygon style="fill:black;stroke:black;" points="627,755 617,754 626,749 627,755"/>
</g>
<g id="edge44" class="edge"><title>manifestentry&#45;&gt;manifestentry</title>
<path style="fill:none;stroke:black;" d="M1038,738C1049,729 1056,715 1056,696 1056,681 1052,670 1045,661"/>
<polygon style="fill:black;stroke:black;" points="1043,664 1038,654 1048,659 1043,664"/>
</g>
<g id="node10" class="node"><title>revision</title>
<polygon style="fill:#c1cdcc;stroke:#c1cdcc;" points="1247,669 1247,555 1415,555 1415,669 1247,669"/>
<polygon style="fill:white;stroke:white;" points="1250,570 1250,558 1412,558 1412,570 1250,570"/>
<text text-anchor="middle" style="font-size:6.00;" x="1331" y="566">revision</text>
<polygon style="fill:none;stroke:black;" points="1250,570 1250,558 1412,558 1412,570 1250,570"/>
<text text-anchor="middle" style="font-size:6.00;" x="1255" y="579">id</text>
<text text-anchor="middle" style="font-size:6.00;" x="1305" y="579">serial</text>
<text text-anchor="middle" style="font-size:6.00;" x="1354" y="579"> PRIMARY KEY </text>
<text text-anchor="middle" style="font-size:6.00;" x="1268" y="591">date_created</text>
<text text-anchor="middle" style="font-size:6.00;" x="1312" y="591">timestamp</text>
<text text-anchor="middle" style="font-size:6.00;" x="1265" y="603">log_body</text>
<text text-anchor="middle" style="font-size:6.00;" x="1304" y="603">text</text>
<text text-anchor="middle" style="font-size:6.00;" x="1272" y="615">revision_author</text>
<text text-anchor="middle" style="font-size:6.00;" x="1307" y="615">integer</text>
<text text-anchor="middle" style="font-size:6.00;" x="1371" y="615"> REFERENCES revisionauthor </text>
<text text-anchor="middle" style="font-size:6.00;" x="1262" y="627">gpgkey</text>
<text text-anchor="middle" style="font-size:6.00;" x="1307" y="627">integer</text>
<text text-anchor="middle" style="font-size:6.00;" x="1362" y="627"> REFERENCES gpgkey </text>
<text text-anchor="middle" style="font-size:6.00;" x="1261" y="639">owner</text>
<text text-anchor="middle" style="font-size:6.00;" x="1307" y="639">integer</text>
<text text-anchor="middle" style="font-size:6.00;" x="1361" y="639"> REFERENCES person </text>
<text text-anchor="middle" style="font-size:6.00;" x="1267" y="651">revision_id</text>
<text text-anchor="middle" style="font-size:6.00;" x="1304" y="651">text</text>
<text text-anchor="middle" style="font-size:6.00;" x="1345" y="651"> UNIQUE </text>
<text text-anchor="middle" style="font-size:6.00;" x="1269" y="663">revision_date</text>
<text text-anchor="middle" style="font-size:6.00;" x="1312" y="663">timestamp</text>
<polygon style="fill:none;stroke:black;" points="1247,669 1247,555 1415,555 1415,669 1247,669"/>
</g>
<g id="edge48" class="edge"><title>manifestentry&#45;&gt;revision</title>
<path style="fill:none;stroke:black;" d="M1038,670C1099,658 1172,644 1229,632"/>
<polygon style="fill:black;stroke:black;" points="1229,629 1239,630 1230,635 1229,629"/>
</g>
<g id="node11" class="node"><title>revisionauthor</title>
<polygon style="fill:#c1cdcc;stroke:#c1cdcc;" points="1514,764 1514,722 1610,722 1610,764 1514,764"/>
<polygon style="fill:white;stroke:white;" points="1517,737 1517,725 1607,725 1607,737 1517,737"/>
<text text-anchor="middle" style="font-size:6.00;" x="1562" y="733">revisionauthor</text>
<polygon style="fill:none;stroke:black;" points="1517,737 1517,725 1607,725 1607,737 1517,737"/>
<text text-anchor="middle" style="font-size:6.00;" x="1522" y="746">id</text>
<text text-anchor="middle" style="font-size:6.00;" x="1547" y="746">serial</text>
<text text-anchor="middle" style="font-size:6.00;" x="1583" y="746"> PRIMARY KEY </text>
<text text-anchor="middle" style="font-size:6.00;" x="1527" y="758">name</text>
<text text-anchor="middle" style="font-size:6.00;" x="1546" y="758">text</text>
<text text-anchor="middle" style="font-size:6.00;" x="1574" y="758"> UNIQUE </text>
<polygon style="fill:none;stroke:black;" points="1514,764 1514,722 1610,722 1610,764 1514,764"/>
</g>
<g id="edge50" class="edge"><title>revision&#45;&gt;revisionauthor</title>
<path style="fill:none;stroke:black;" d="M1423,664C1453,681 1484,699 1509,713"/>
<polygon style="fill:black;stroke:black;" points="1511,710 1518,718 1508,716 1511,710"/>
</g>
<g id="node48" class="node"><title>fake_gpgkey_270</title>
<ellipse cx="1368" cy="391" rx="27" ry="18" style="fill:none;stroke:red;"/>
<text text-anchor="middle" style="font-size:6.00;" x="1368" y="393">gpgkey</text>
</g>
<g id="edge52" class="edge"><title>revision&#45;&gt;fake_gpgkey_270</title>
<path style="fill:none;stroke:black;" d="M1341,551C1348,508 1358,452 1363,419"/>
<polygon style="fill:black;stroke:black;" points="1360,418 1365,409 1366,419 1360,418"/>
</g>
<g id="node50" class="node"><title>fake_person_272</title>
<ellipse cx="1493" cy="479" rx="27" ry="18" style="fill:none;stroke:red;"/>
<text text-anchor="middle" style="font-size:6.00;" x="1493" y="481">person</text>
</g>
<g id="edge54" class="edge"><title>revision&#45;&gt;fake_person_272</title>
<path style="fill:none;stroke:black;" d="M1405,551C1428,532 1451,513 1468,499"/>
<polygon style="fill:black;stroke:black;" points="1466,496 1476,493 1470,502 1466,496"/>
</g>
<g id="edge56" class="edge"><title>revisionnumber&#45;&gt;branch</title>
<path style="fill:none;stroke:black;" d="M1259,801C1219,826 1165,858 1114,890"/>
<polygon style="fill:black;stroke:black;" points="1115,893 1105,895 1112,887 1115,893"/>
</g>
<g id="edge58" class="edge"><title>revisionnumber&#45;&gt;revision</title>
<path style="fill:none;stroke:black;" d="M1323,727C1324,714 1325,698 1326,683"/>
<polygon style="fill:black;stroke:black;" points="1323,683 1327,673 1329,683 1323,683"/>
</g>
<g id="node13" class="node"><title>revisionparent</title>
<polygon style="fill:#c1cdcc;stroke:#c1cdcc;" points="1542,611 1542,545 1694,545 1694,611 1542,611"/>
<polygon style="fill:white;stroke:white;" points="1545,560 1545,548 1691,548 1691,560 1545,560"/>
<text text-anchor="middle" style="font-size:6.00;" x="1618" y="556">revisionparent</text>
<polygon style="fill:none;stroke:black;" points="1545,560 1545,548 1691,548 1691,560 1545,560"/>
<text text-anchor="middle" style="font-size:6.00;" x="1550" y="569">id</text>
<text text-anchor="middle" style="font-size:6.00;" x="1585" y="569">serial</text>
<text text-anchor="middle" style="font-size:6.00;" x="1625" y="569"> PRIMARY KEY </text>
<text text-anchor="middle" style="font-size:6.00;" x="1559" y="581">sequence</text>
<text text-anchor="middle" style="font-size:6.00;" x="1587" y="581">integer</text>
<text text-anchor="middle" style="font-size:6.00;" x="1558" y="593">revision</text>
<text text-anchor="middle" style="font-size:6.00;" x="1587" y="593">integer</text>
<text text-anchor="middle" style="font-size:6.00;" x="1646" y="593"> REFERENCES revision UNIQUE </text>
<text text-anchor="middle" style="font-size:6.00;" x="1560" y="605">parent_id</text>
<text text-anchor="middle" style="font-size:6.00;" x="1584" y="605">text</text>
<text text-anchor="middle" style="font-size:6.00;" x="1616" y="605"> UNIQUE </text>
<polygon style="fill:none;stroke:black;" points="1542,611 1542,545 1694,545 1694,611 1542,611"/>
</g>
<g id="edge60" class="edge"><title>revisionparent&#45;&gt;revision</title>
<path style="fill:none;stroke:black;" d="M1534,588C1502,592 1466,596 1433,600"/>
<polygon style="fill:black;stroke:black;" points="1433,603 1423,601 1433,597 1433,603"/>
</g>
</g>
</svg>
