<?xml version="1.0" encoding="UTF-8" standalone="no"?>
<!DOCTYPE svg PUBLIC "-//W3C//DTD SVG 1.0//EN"
 "http://www.w3.org/TR/2001/REC-SVG-20010904/DTD/svg10.dtd">
<!-- Generated by fdp version 2.2 (Sat Feb  5 01:37:52 UTC 2005)
     For user: (stub) Stuart Bishop,,,   Title: g    Pages: 1 -->
<svg width="311px" height="535px"
 viewBox = "-1 -1 310 534"
 xmlns="http://www.w3.org/2000/svg">
<g id="graph0" class="graph" transform = "scale(0.246698)"
 style="font-family:Times-Roman;font-size:14.00;">
<title>g</title>
<text text-anchor="middle" style="font-size:22.00;" x="612" y="2144">Buttress</text>
<g id="node1" class="node"><title>archarchive</title>
<polygon style="fill:#c1cdcc;stroke:#c1cdcc;" points="553,1539 553,1449 685,1449 685,1539 553,1539"/>
<polygon style="fill:white;stroke:white;" points="556,1464 556,1452 682,1452 682,1464 556,1464"/>
<text text-anchor="middle" style="font-size:6.00;" x="619" y="1460">archarchive</text>
<polygon style="fill:none;stroke:black;" points="556,1464 556,1452 682,1452 682,1464 556,1464"/>
<text text-anchor="middle" style="font-size:6.00;" x="561" y="1473">id</text>
<text text-anchor="middle" style="font-size:6.00;" x="600" y="1473">serial</text>
<text text-anchor="middle" style="font-size:6.00;" x="643" y="1473"> PRIMARY KEY </text>
<text text-anchor="middle" style="font-size:6.00;" x="566" y="1485">name</text>
<text text-anchor="middle" style="font-size:6.00;" x="599" y="1485">text</text>
<text text-anchor="middle" style="font-size:6.00;" x="634" y="1485"> UNIQUE </text>
<text text-anchor="middle" style="font-size:6.00;" x="564" y="1497">title</text>
<text text-anchor="middle" style="font-size:6.00;" x="599" y="1497">text</text>
<text text-anchor="middle" style="font-size:6.00;" x="573" y="1509">description</text>
<text text-anchor="middle" style="font-size:6.00;" x="599" y="1509">text</text>
<text text-anchor="middle" style="font-size:6.00;" x="567" y="1521">visible</text>
<text text-anchor="middle" style="font-size:6.00;" x="604" y="1521">boolean</text>
<text text-anchor="middle" style="font-size:6.00;" x="567" y="1533">owner</text>
<text text-anchor="middle" style="font-size:6.00;" x="602" y="1533">integer</text>
<text text-anchor="middle" style="font-size:6.00;" x="650" y="1533"> REFERENCES person </text>
<polygon style="fill:none;stroke:black;" points="553,1539 553,1449 685,1449 685,1539 553,1539"/>
</g>
<g id="node17" class="node"><title>fake_person_1</title>
<ellipse cx="690" cy="1644" rx="27" ry="18" style="fill:none;stroke:red;"/>
<text text-anchor="middle" style="font-size:6.00;" x="690" y="1646">person</text>
</g>
<g id="edge2" class="edge"><title>archarchive&#45;&gt;fake_person_1</title>
<path style="fill:none;stroke:black;" d="M642,1543C654,1568 668,1597 678,1618"/>
<polygon style="fill:black;stroke:black;" points="681,1616 682,1627 675,1619 681,1616"/>
</g>
<g id="node2" class="node"><title>archarchivelocation</title>
<polygon style="fill:#c1cdcc;stroke:#c1cdcc;" points="432,1762 432,1684 578,1684 578,1762 432,1762"/>
<polygon style="fill:white;stroke:white;" points="435,1699 435,1687 575,1687 575,1699 435,1699"/>
<text text-anchor="middle" style="font-size:6.00;" x="505" y="1695">archarchivelocation</text>
<polygon style="fill:none;stroke:black;" points="435,1699 435,1687 575,1687 575,1699 435,1699"/>
<text text-anchor="middle" style="font-size:6.00;" x="440" y="1708">id</text>
<text text-anchor="middle" style="font-size:6.00;" x="481" y="1708">serial</text>
<text text-anchor="middle" style="font-size:6.00;" x="524" y="1708"> PRIMARY KEY </text>
<text text-anchor="middle" style="font-size:6.00;" x="447" y="1720">archive</text>
<text text-anchor="middle" style="font-size:6.00;" x="483" y="1720">integer</text>
<text text-anchor="middle" style="font-size:6.00;" x="537" y="1720"> REFERENCES archarchive </text>
<text text-anchor="middle" style="font-size:6.00;" x="452" y="1732">archivetype</text>
<text text-anchor="middle" style="font-size:6.00;" x="483" y="1732">integer</text>
<text text-anchor="middle" style="font-size:6.00;" x="441" y="1744">url</text>
<text text-anchor="middle" style="font-size:6.00;" x="480" y="1744">text</text>
<text text-anchor="middle" style="font-size:6.00;" x="451" y="1756">gpgsigned</text>
<text text-anchor="middle" style="font-size:6.00;" x="485" y="1756">boolean</text>
<polygon style="fill:none;stroke:black;" points="432,1762 432,1684 578,1684 578,1762 432,1762"/>
</g>
<g id="edge4" class="edge"><title>archarchivelocation&#45;&gt;archarchive</title>
<path style="fill:none;stroke:black;" d="M526,1680C544,1644 570,1592 590,1552"/>
<polygon style="fill:black;stroke:black;" points="587,1551 594,1543 593,1554 587,1551"/>
</g>
<g id="node3" class="node"><title>archarchivelocationsigner</title>
<polygon style="fill:#c1cdcc;stroke:#c1cdcc;" points="302,1972 302,1930 482,1930 482,1972 302,1972"/>
<polygon style="fill:white;stroke:white;" points="305,1945 305,1933 479,1933 479,1945 305,1945"/>
<text text-anchor="middle" style="font-size:6.00;" x="392" y="1941">archarchivelocationsigner</text>
<polygon style="fill:none;stroke:black;" points="305,1945 305,1933 479,1933 479,1945 305,1945"/>
<text text-anchor="middle" style="font-size:6.00;" x="332" y="1954">archarchivelocation</text>
<text text-anchor="middle" style="font-size:6.00;" x="371" y="1954">integer</text>
<text text-anchor="middle" style="font-size:6.00;" x="432" y="1954"> REFERENCES archarchivelocation </text>
<text text-anchor="middle" style="font-size:6.00;" x="317" y="1966">gpgkey</text>
<text text-anchor="middle" style="font-size:6.00;" x="371" y="1966">integer</text>
<text text-anchor="middle" style="font-size:6.00;" x="417" y="1966"> REFERENCES gpgkey </text>
<polygon style="fill:none;stroke:black;" points="302,1972 302,1930 482,1930 482,1972 302,1972"/>
</g>
<g id="edge6" class="edge"><title>archarchivelocationsigner&#45;&gt;archarchivelocation</title>
<path style="fill:none;stroke:black;" d="M405,1926C423,1889 456,1822 479,1775"/>
<polygon style="fill:black;stroke:black;" points="476,1773 484,1766 482,1776 476,1773"/>
</g>
<g id="node21" class="node"><title>fake_gpgkey_5</title>
<ellipse cx="304" cy="2101" rx="27" ry="18" style="fill:none;stroke:red;"/>
<text text-anchor="middle" style="font-size:6.00;" x="304" y="2103">gpgkey</text>
</g>
<g id="edge8" class="edge"><title>archarchivelocationsigner&#45;&gt;fake_gpgkey_5</title>
<path style="fill:none;stroke:black;" d="M377,1976C361,2004 336,2047 319,2075"/>
<polygon style="fill:black;stroke:black;" points="322,2077 314,2084 316,2074 322,2077"/>
</g>
<g id="node4" class="node"><title>archconfig</title>
<polygon style="fill:#c1cdcc;stroke:#c1cdcc;" points="135,661 135,571 291,571 291,661 135,661"/>
<polygon style="fill:white;stroke:white;" points="138,586 138,574 288,574 288,586 138,586"/>
<text text-anchor="middle" style="font-size:6.00;" x="213" y="582">archconfig</text>
<polygon style="fill:none;stroke:black;" points="138,586 138,574 288,574 288,586 138,586"/>
<text text-anchor="middle" style="font-size:6.00;" x="143" y="595">id</text>
<text text-anchor="middle" style="font-size:6.00;" x="190" y="595">serial</text>
<text text-anchor="middle" style="font-size:6.00;" x="230" y="595"> PRIMARY KEY </text>
<text text-anchor="middle" style="font-size:6.00;" x="148" y="607">name</text>
<text text-anchor="middle" style="font-size:6.00;" x="189" y="607">text</text>
<text text-anchor="middle" style="font-size:6.00;" x="146" y="619">title</text>
<text text-anchor="middle" style="font-size:6.00;" x="189" y="619">text</text>
<text text-anchor="middle" style="font-size:6.00;" x="155" y="631">description</text>
<text text-anchor="middle" style="font-size:6.00;" x="189" y="631">text</text>
<text text-anchor="middle" style="font-size:6.00;" x="159" y="643">productrelease</text>
<text text-anchor="middle" style="font-size:6.00;" x="192" y="643">integer</text>
<text text-anchor="middle" style="font-size:6.00;" x="247" y="643"> REFERENCES productrelease </text>
<text text-anchor="middle" style="font-size:6.00;" x="149" y="655">owner</text>
<text text-anchor="middle" style="font-size:6.00;" x="192" y="655">integer</text>
<text text-anchor="middle" style="font-size:6.00;" x="237" y="655"> REFERENCES person </text>
<polygon style="fill:none;stroke:black;" points="135,661 135,571 291,571 291,661 135,661"/>
</g>
<g id="node23" class="node"><title>fake_productrelease_7</title>
<ellipse cx="35" cy="587" rx="29" ry="18" style="fill:none;stroke:red;"/>
<text text-anchor="middle" style="font-size:6.00;" x="35" y="589">productrelease</text>
</g>
<g id="edge10" class="edge"><title>archconfig&#45;&gt;fake_productrelease_7</title>
<path style="fill:none;stroke:black;" d="M127,602C108,599 89,596 73,594"/>
<polygon style="fill:black;stroke:black;" points="72,597 63,592 73,591 72,597"/>
</g>
<g id="node25" class="node"><title>fake_person_9</title>
<ellipse cx="110" cy="459" rx="27" ry="18" style="fill:none;stroke:red;"/>
<text text-anchor="middle" style="font-size:6.00;" x="110" y="461">person</text>
</g>
<g id="edge12" class="edge"><title>archconfig&#45;&gt;fake_person_9</title>
<path style="fill:none;stroke:black;" d="M181,567C163,540 141,507 127,485"/>
<polygon style="fill:black;stroke:black;" points="124,486 121,476 129,482 124,486"/>
</g>
<g id="node5" class="node"><title>archconfigentry</title>
<polygon style="fill:#c1cdcc;stroke:#c1cdcc;" points="387,799 387,733 581,733 581,799 387,799"/>
<polygon style="fill:white;stroke:white;" points="390,748 390,736 578,736 578,748 390,748"/>
<text text-anchor="middle" style="font-size:6.00;" x="484" y="744">archconfigentry</text>
<polygon style="fill:none;stroke:black;" points="390,748 390,736 578,736 578,748 390,748"/>
<text text-anchor="middle" style="font-size:6.00;" x="406" y="757">archconfig</text>
<text text-anchor="middle" style="font-size:6.00;" x="436" y="757">integer</text>
<text text-anchor="middle" style="font-size:6.00;" x="486" y="757"> REFERENCES archconfig </text>
<text text-anchor="middle" style="font-size:6.00;" x="398" y="769">path</text>
<text text-anchor="middle" style="font-size:6.00;" x="433" y="769">text</text>
<text text-anchor="middle" style="font-size:6.00;" x="401" y="781">branch</text>
<text text-anchor="middle" style="font-size:6.00;" x="436" y="781">integer</text>
<text text-anchor="middle" style="font-size:6.00;" x="514" y="781"> REFERENCES branch REFERENCES changeset </text>
<text text-anchor="middle" style="font-size:6.00;" x="405" y="793">changeset</text>
<text text-anchor="middle" style="font-size:6.00;" x="436" y="793">integer</text>
<text text-anchor="middle" style="font-size:6.00;" x="485" y="793"> REFERENCES changeset </text>
<polygon style="fill:none;stroke:black;" points="387,799 387,733 581,733 581,799 387,799"/>
</g>
<g id="edge14" class="edge"><title>archconfigentry&#45;&gt;archconfig</title>
<path style="fill:none;stroke:black;" d="M417,729C384,711 344,689 308,669"/>
<polygon style="fill:black;stroke:black;" points="306,672 299,664 309,666 306,672"/>
</g>
<g id="node8" class="node"><title>branch</title>
<polygon style="fill:#c1cdcc;stroke:#c1cdcc;" points="691,963 691,873 849,873 849,963 691,963"/>
<polygon style="fill:white;stroke:white;" points="694,888 694,876 846,876 846,888 694,888"/>
<text text-anchor="middle" style="font-size:6.00;" x="770" y="884">branch</text>
<polygon style="fill:none;stroke:black;" points="694,888 694,876 846,876 846,888 694,888"/>
<text text-anchor="middle" style="font-size:6.00;" x="699" y="897">id</text>
<text text-anchor="middle" style="font-size:6.00;" x="747" y="897">serial</text>
<text text-anchor="middle" style="font-size:6.00;" x="787" y="897"> PRIMARY KEY </text>
<text text-anchor="middle" style="font-size:6.00;" x="715" y="909">archnamespace</text>
<text text-anchor="middle" style="font-size:6.00;" x="749" y="909">integer</text>
<text text-anchor="middle" style="font-size:6.00;" x="804" y="909"> REFERENCES archnamespace </text>
<text text-anchor="middle" style="font-size:6.00;" x="702" y="921">title</text>
<text text-anchor="middle" style="font-size:6.00;" x="746" y="921">text</text>
<text text-anchor="middle" style="font-size:6.00;" x="711" y="933">description</text>
<text text-anchor="middle" style="font-size:6.00;" x="746" y="933">text</text>
<text text-anchor="middle" style="font-size:6.00;" x="705" y="945">owner</text>
<text text-anchor="middle" style="font-size:6.00;" x="749" y="945">integer</text>
<text text-anchor="middle" style="font-size:6.00;" x="794" y="945"> REFERENCES person </text>
<text text-anchor="middle" style="font-size:6.00;" x="706" y="957">product</text>
<text text-anchor="middle" style="font-size:6.00;" x="749" y="957">integer</text>
<text text-anchor="middle" style="font-size:6.00;" x="795" y="957"> REFERENCES product </text>
<polygon style="fill:none;stroke:black;" points="691,963 691,873 849,873 849,963 691,963"/>
</g>
<g id="edge16" class="edge"><title>archconfigentry&#45;&gt;branch</title>
<path style="fill:none;stroke:black;" d="M554,803C590,822 635,846 674,867"/>
<polygon style="fill:black;stroke:black;" points="676,864 683,872 673,870 676,864"/>
</g>
<g id="node11" class="node"><title>changeset</title>
<polygon style="fill:#c1cdcc;stroke:#c1cdcc;" points="630,641 630,539 818,539 818,641 630,641"/>
<polygon style="fill:white;stroke:white;" points="633,554 633,542 815,542 815,554 633,554"/>
<text text-anchor="middle" style="font-size:6.00;" x="724" y="550">changeset</text>
<polygon style="fill:none;stroke:black;" points="633,554 633,542 815,542 815,554 633,554"/>
<text text-anchor="middle" style="font-size:6.00;" x="638" y="563">id</text>
<text text-anchor="middle" style="font-size:6.00;" x="678" y="563">serial</text>
<text text-anchor="middle" style="font-size:6.00;" x="751" y="563"> UNIQUE UNIQUE PRIMARY KEY </text>
<text text-anchor="middle" style="font-size:6.00;" x="644" y="575">branch</text>
<text text-anchor="middle" style="font-size:6.00;" x="680" y="575">integer</text>
<text text-anchor="middle" style="font-size:6.00;" x="759" y="575"> REFERENCES branch UNIQUE UNIQUE </text>
<text text-anchor="middle" style="font-size:6.00;" x="650" y="587">datecreated</text>
<text text-anchor="middle" style="font-size:6.00;" x="685" y="587">timestamp</text>
<text text-anchor="middle" style="font-size:6.00;" x="643" y="599">name</text>
<text text-anchor="middle" style="font-size:6.00;" x="677" y="599">text</text>
<text text-anchor="middle" style="font-size:6.00;" x="650" y="611">logmessage</text>
<text text-anchor="middle" style="font-size:6.00;" x="677" y="611">text</text>
<text text-anchor="middle" style="font-size:6.00;" x="644" y="623">archid</text>
<text text-anchor="middle" style="font-size:6.00;" x="680" y="623">integer</text>
<text text-anchor="middle" style="font-size:6.00;" x="739" y="623"> REFERENCES archuserid </text>
<text text-anchor="middle" style="font-size:6.00;" x="645" y="635">gpgkey</text>
<text text-anchor="middle" style="font-size:6.00;" x="680" y="635">integer</text>
<text text-anchor="middle" style="font-size:6.00;" x="735" y="635"> REFERENCES gpgkey </text>
<polygon style="fill:none;stroke:black;" points="630,641 630,539 818,539 818,641 630,641"/>
</g>
<g id="edge18" class="edge"><title>archconfigentry&#45;&gt;changeset</title>
<path style="fill:none;stroke:black;" d="M535,729C566,707 606,677 641,651"/>
<polygon style="fill:black;stroke:black;" points="639,648 649,645 643,654 639,648"/>
</g>
<g id="node6" class="node"><title>archnamespace</title>
<polygon style="fill:#c1cdcc;stroke:#c1cdcc;" points="613,1271 613,1181 759,1181 759,1271 613,1271"/>
<polygon style="fill:white;stroke:white;" points="616,1196 616,1184 756,1184 756,1196 616,1196"/>
<text text-anchor="middle" style="font-size:6.00;" x="686" y="1192">archnamespace</text>
<polygon style="fill:none;stroke:black;" points="616,1196 616,1184 756,1184 756,1196 616,1196"/>
<text text-anchor="middle" style="font-size:6.00;" x="621" y="1205">id</text>
<text text-anchor="middle" style="font-size:6.00;" x="662" y="1205">serial</text>
<text text-anchor="middle" style="font-size:6.00;" x="705" y="1205"> PRIMARY KEY </text>
<text text-anchor="middle" style="font-size:6.00;" x="633" y="1217">archarchive</text>
<text text-anchor="middle" style="font-size:6.00;" x="664" y="1217">integer</text>
<text text-anchor="middle" style="font-size:6.00;" x="718" y="1217"> REFERENCES archarchive </text>
<text text-anchor="middle" style="font-size:6.00;" x="630" y="1229">category</text>
<text text-anchor="middle" style="font-size:6.00;" x="661" y="1229">text</text>
<text text-anchor="middle" style="font-size:6.00;" x="627" y="1241">branch</text>
<text text-anchor="middle" style="font-size:6.00;" x="661" y="1241">text</text>
<text text-anchor="middle" style="font-size:6.00;" x="628" y="1253">version</text>
<text text-anchor="middle" style="font-size:6.00;" x="661" y="1253">text</text>
<text text-anchor="middle" style="font-size:6.00;" x="627" y="1265">visible</text>
<text text-anchor="middle" style="font-size:6.00;" x="666" y="1265">boolean</text>
<polygon style="fill:none;stroke:black;" points="613,1271 613,1181 759,1181 759,1271 613,1271"/>
</g>
<g id="edge20" class="edge"><title>archnamespace&#45;&gt;archarchive</title>
<path style="fill:none;stroke:black;" d="M674,1275C663,1321 645,1387 633,1435"/>
<polygon style="fill:black;stroke:black;" points="636,1436 631,1445 630,1435 636,1436"/>
</g>
<g id="node7" class="node"><title>archuserid</title>
<polygon style="fill:#c1cdcc;stroke:#c1cdcc;" points="413,572 413,518 541,518 541,572 413,572"/>
<polygon style="fill:white;stroke:white;" points="416,533 416,521 538,521 538,533 416,533"/>
<text text-anchor="middle" style="font-size:6.00;" x="477" y="529">archuserid</text>
<polygon style="fill:none;stroke:black;" points="416,533 416,521 538,521 538,533 416,533"/>
<text text-anchor="middle" style="font-size:6.00;" x="421" y="542">id</text>
<text text-anchor="middle" style="font-size:6.00;" x="459" y="542">serial</text>
<text text-anchor="middle" style="font-size:6.00;" x="499" y="542"> PRIMARY KEY </text>
<text text-anchor="middle" style="font-size:6.00;" x="427" y="554">person</text>
<text text-anchor="middle" style="font-size:6.00;" x="461" y="554">integer</text>
<text text-anchor="middle" style="font-size:6.00;" x="506" y="554"> REFERENCES person </text>
<text text-anchor="middle" style="font-size:6.00;" x="432" y="566">archuserid</text>
<text text-anchor="middle" style="font-size:6.00;" x="458" y="566">text</text>
<text text-anchor="middle" style="font-size:6.00;" x="490" y="566"> UNIQUE </text>
<polygon style="fill:none;stroke:black;" points="413,572 413,518 541,518 541,572 413,572"/>
</g>
<g id="node31" class="node"><title>fake_person_15</title>
<ellipse cx="343" cy="623" rx="27" ry="18" style="fill:none;stroke:red;"/>
<text text-anchor="middle" style="font-size:6.00;" x="343" y="625">person</text>
</g>
<g id="edge22" class="edge"><title>archuserid&#45;&gt;fake_person_15</title>
<path style="fill:none;stroke:black;" d="M424,576C407,586 388,597 373,606"/>
<polygon style="fill:black;stroke:black;" points="374,609 364,611 371,603 374,609"/>
</g>
<g id="edge24" class="edge"><title>branch&#45;&gt;archnamespace</title>
<path style="fill:none;stroke:black;" d="M757,967C742,1022 718,1109 702,1167"/>
<polygon style="fill:black;stroke:black;" points="705,1168 699,1177 699,1166 705,1168"/>
</g>
<g id="node34" class="node"><title>fake_person_29</title>
<ellipse cx="701" cy="1083" rx="27" ry="18" style="fill:none;stroke:red;"/>
<text text-anchor="middle" style="font-size:6.00;" x="701" y="1085">person</text>
</g>
<g id="edge26" class="edge"><title>branch&#45;&gt;fake_person_29</title>
<path style="fill:none;stroke:black;" d="M749,967C737,996 722,1032 712,1057"/>
<polygon style="fill:black;stroke:black;" points="715,1058 708,1066 709,1055 715,1058"/>
</g>
<g id="node36" class="node"><title>fake_product_31</title>
<ellipse cx="936" cy="998" rx="27" ry="18" style="fill:none;stroke:red;"/>
<text text-anchor="middle" style="font-size:6.00;" x="936" y="1000">product</text>
</g>
<g id="edge28" class="edge"><title>branch&#45;&gt;fake_product_31</title>
<path style="fill:none;stroke:black;" d="M857,960C874,968 891,976 905,983"/>
<polygon style="fill:black;stroke:black;" points="906,980 914,987 903,986 906,980"/>
</g>
<g id="node9" class="node"><title>branchlabel</title>
<polygon style="fill:#c1cdcc;stroke:#c1cdcc;" points="981,949 981,895 1099,895 1099,949 981,949"/>
<polygon style="fill:white;stroke:white;" points="984,910 984,898 1096,898 1096,910 984,910"/>
<text text-anchor="middle" style="font-size:6.00;" x="1040" y="906">branchlabel</text>
<polygon style="fill:none;stroke:black;" points="984,910 984,898 1096,898 1096,910 984,910"/>
<text text-anchor="middle" style="font-size:6.00;" x="995" y="919">branch</text>
<text text-anchor="middle" style="font-size:6.00;" x="1019" y="919">integer</text>
<text text-anchor="middle" style="font-size:6.00;" x="1064" y="919"> REFERENCES branch </text>
<text text-anchor="middle" style="font-size:6.00;" x="993" y="931">label</text>
<text text-anchor="middle" style="font-size:6.00;" x="1019" y="931">integer</text>
<text text-anchor="middle" style="font-size:6.00;" x="1062" y="931"> REFERENCES label </text>
<text text-anchor="middle" style="font-size:6.00;" x="989" y="943">id</text>
<text text-anchor="middle" style="font-size:6.00;" x="1019" y="943">integer</text>
<text text-anchor="middle" style="font-size:6.00;" x="1057" y="943"> PRIMARY KEY </text>
<polygon style="fill:none;stroke:black;" points="981,949 981,895 1099,895 1099,949 981,949"/>
</g>
<g id="edge30" class="edge"><title>branchlabel&#45;&gt;branch</title>
<path style="fill:none;stroke:black;" d="M973,921C941,921 903,920 867,919"/>
<polygon style="fill:black;stroke:black;" points="867,922 857,919 867,915 867,922"/>
</g>
<g id="node39" class="node"><title>fake_label_34</title>
<ellipse cx="1192" cy="944" rx="27" ry="18" style="fill:none;stroke:red;"/>
<text text-anchor="middle" style="font-size:6.00;" x="1192" y="946">label</text>
</g>
<g id="edge32" class="edge"><title>branchlabel&#45;&gt;fake_label_34</title>
<path style="fill:none;stroke:black;" d="M1107,932C1124,934 1140,937 1155,939"/>
<polygon style="fill:black;stroke:black;" points="1155,936 1165,940 1155,942 1155,936"/>
</g>
<g id="node10" class="node"><title>branchrelationship</title>
<polygon style="fill:#c1cdcc;stroke:#c1cdcc;" points="847,1156 847,1090 965,1090 965,1156 847,1156"/>
<polygon style="fill:white;stroke:white;" points="850,1105 850,1093 962,1093 962,1105 850,1105"/>
<text text-anchor="middle" style="font-size:6.00;" x="906" y="1101">branchrelationship</text>
<polygon style="fill:none;stroke:black;" points="850,1105 850,1093 962,1093 962,1105 850,1105"/>
<text text-anchor="middle" style="font-size:6.00;" x="861" y="1114">subject</text>
<text text-anchor="middle" style="font-size:6.00;" x="885" y="1114">integer</text>
<text text-anchor="middle" style="font-size:6.00;" x="930" y="1114"> REFERENCES branch </text>
<text text-anchor="middle" style="font-size:6.00;" x="859" y="1126">label</text>
<text text-anchor="middle" style="font-size:6.00;" x="885" y="1126">integer</text>
<text text-anchor="middle" style="font-size:6.00;" x="861" y="1138">object</text>
<text text-anchor="middle" style="font-size:6.00;" x="885" y="1138">integer</text>
<text text-anchor="middle" style="font-size:6.00;" x="930" y="1138"> REFERENCES branch </text>
<text text-anchor="middle" style="font-size:6.00;" x="855" y="1150">id</text>
<text text-anchor="middle" style="font-size:6.00;" x="885" y="1150">integer</text>
<text text-anchor="middle" style="font-size:6.00;" x="923" y="1150"> PRIMARY KEY </text>
<polygon style="fill:none;stroke:black;" points="847,1156 847,1090 965,1090 965,1156 847,1156"/>
</g>
<g id="edge34" class="edge"><title>branchrelationship&#45;&gt;branch</title>
<path style="fill:none;stroke:black;" d="M874,1086C852,1055 822,1011 800,976"/>
<polygon style="fill:black;stroke:black;" points="797,977 795,967 803,974 797,977"/>
</g>
<g id="edge36" class="edge"><title>branchrelationship&#45;&gt;branch</title>
<path style="fill:none;stroke:black;" d="M886,1086C867,1055 839,1011 814,975"/>
<polygon style="fill:black;stroke:black;" points="811,977 808,967 817,973 811,977"/>
</g>
<g id="edge40" class="edge"><title>changeset&#45;&gt;archuserid</title>
<path style="fill:none;stroke:black;" d="M622,571C601,568 579,563 559,560"/>
<polygon style="fill:black;stroke:black;" points="558,563 549,558 559,557 558,563"/>
</g>
<g id="edge38" class="edge"><title>changeset&#45;&gt;branch</title>
<path style="fill:none;stroke:black;" d="M732,645C741,705 753,798 762,859"/>
<polygon style="fill:black;stroke:black;" points="765,859 763,869 759,859 765,859"/>
</g>
<g id="node45" class="node"><title>fake_gpgkey_90</title>
<ellipse cx="678" cy="393" rx="27" ry="18" style="fill:none;stroke:red;"/>
<text text-anchor="middle" style="font-size:6.00;" x="678" y="395">gpgkey</text>
</g>
<g id="edge42" class="edge"><title>changeset&#45;&gt;fake_gpgkey_90</title>
<path style="fill:none;stroke:black;" d="M711,535C703,498 692,450 684,421"/>
<polygon style="fill:black;stroke:black;" points="681,421 682,411 687,420 681,421"/>
</g>
<g id="node12" class="node"><title>changesetfile</title>
<polygon style="fill:#c1cdcc;stroke:#c1cdcc;" points="798,345 798,267 998,267 998,345 798,345"/>
<polygon style="fill:white;stroke:white;" points="801,282 801,270 995,270 995,282 801,282"/>
<text text-anchor="middle" style="font-size:6.00;" x="898" y="278">changesetfile</text>
<polygon style="fill:none;stroke:black;" points="801,282 801,270 995,270 995,282 801,282"/>
<text text-anchor="middle" style="font-size:6.00;" x="806" y="291">id</text>
<text text-anchor="middle" style="font-size:6.00;" x="863" y="291">serial</text>
<text text-anchor="middle" style="font-size:6.00;" x="903" y="291"> PRIMARY KEY </text>
<text text-anchor="middle" style="font-size:6.00;" x="816" y="303">changeset</text>
<text text-anchor="middle" style="font-size:6.00;" x="865" y="303">integer</text>
<text text-anchor="middle" style="font-size:6.00;" x="926" y="303"> REFERENCES changeset UNIQUE </text>
<text text-anchor="middle" style="font-size:6.00;" x="827" y="315">changesetfilename</text>
<text text-anchor="middle" style="font-size:6.00;" x="865" y="315">integer</text>
<text text-anchor="middle" style="font-size:6.00;" x="937" y="315"> REFERENCES changesetfilename UNIQUE </text>
<text text-anchor="middle" style="font-size:6.00;" x="818" y="327">filecontents</text>
<text text-anchor="middle" style="font-size:6.00;" x="864" y="327">bytea</text>
<text text-anchor="middle" style="font-size:6.00;" x="813" y="339">filesize</text>
<text text-anchor="middle" style="font-size:6.00;" x="865" y="339">integer</text>
<polygon style="fill:none;stroke:black;" points="798,345 798,267 998,267 998,345 798,345"/>
</g>
<g id="edge44" class="edge"><title>changesetfile&#45;&gt;changeset</title>
<path style="fill:none;stroke:black;" d="M872,349C843,396 796,472 763,526"/>
<polygon style="fill:black;stroke:black;" points="766,528 758,535 760,525 766,528"/>
</g>
<g id="node14" class="node"><title>changesetfilename</title>
<polygon style="fill:#c1cdcc;stroke:#c1cdcc;" points="1049,231 1049,189 1155,189 1155,231 1049,231"/>
<polygon style="fill:white;stroke:white;" points="1052,204 1052,192 1152,192 1152,204 1052,204"/>
<text text-anchor="middle" style="font-size:6.00;" x="1102" y="200">changesetfilename</text>
<polygon style="fill:none;stroke:black;" points="1052,204 1052,192 1152,192 1152,204 1052,204"/>
<text text-anchor="middle" style="font-size:6.00;" x="1057" y="213">id</text>
<text text-anchor="middle" style="font-size:6.00;" x="1091" y="213">serial</text>
<text text-anchor="middle" style="font-size:6.00;" x="1127" y="213"> PRIMARY KEY </text>
<text text-anchor="middle" style="font-size:6.00;" x="1066" y="225">filename</text>
<text text-anchor="middle" style="font-size:6.00;" x="1090" y="225">text</text>
<text text-anchor="middle" style="font-size:6.00;" x="1118" y="225"> UNIQUE </text>
<polygon style="fill:none;stroke:black;" points="1049,231 1049,189 1155,189 1155,231 1049,231"/>
</g>
<g id="edge46" class="edge"><title>changesetfile&#45;&gt;changesetfilename</title>
<path style="fill:none;stroke:black;" d="M990,263C1007,255 1024,247 1040,239"/>
<polygon style="fill:black;stroke:black;" points="1038,236 1049,235 1041,242 1038,236"/>
</g>
<g id="node13" class="node"><title>changesetfilehash</title>
<polygon style="fill:#c1cdcc;stroke:#c1cdcc;" points="957,105 957,39 1131,39 1131,105 957,105"/>
<polygon style="fill:white;stroke:white;" points="960,54 960,42 1128,42 1128,54 960,54"/>
<text text-anchor="middle" style="font-size:6.00;" x="1044" y="50">changesetfilehash</text>
<polygon style="fill:none;stroke:black;" points="960,54 960,42 1128,42 1128,54 960,54"/>
<text text-anchor="middle" style="font-size:6.00;" x="965" y="63">id</text>
<text text-anchor="middle" style="font-size:6.00;" x="1009" y="63">serial</text>
<text text-anchor="middle" style="font-size:6.00;" x="1049" y="63"> PRIMARY KEY </text>
<text text-anchor="middle" style="font-size:6.00;" x="979" y="75">changesetfile</text>
<text text-anchor="middle" style="font-size:6.00;" x="1011" y="75">integer</text>
<text text-anchor="middle" style="font-size:6.00;" x="1076" y="75"> REFERENCES changesetfile UNIQUE </text>
<text text-anchor="middle" style="font-size:6.00;" x="972" y="87">hashalg</text>
<text text-anchor="middle" style="font-size:6.00;" x="1011" y="87">integer</text>
<text text-anchor="middle" style="font-size:6.00;" x="1040" y="87"> UNIQUE </text>
<text text-anchor="middle" style="font-size:6.00;" x="969" y="99">hash</text>
<text text-anchor="middle" style="font-size:6.00;" x="1010" y="99">bytea</text>
<polygon style="fill:none;stroke:black;" points="957,105 957,39 1131,39 1131,105 957,105"/>
</g>
<g id="edge48" class="edge"><title>changesetfilehash&#45;&gt;changesetfile</title>
<path style="fill:none;stroke:black;" d="M1021,109C997,148 958,211 930,254"/>
<polygon style="fill:black;stroke:black;" points="933,256 925,263 927,253 933,256"/>
</g>
<g id="node15" class="node"><title>manifest</title>
<polygon style="fill:#c1cdcc;stroke:#c1cdcc;" points="902,492 902,438 1026,438 1026,492 902,492"/>
<polygon style="fill:white;stroke:white;" points="905,453 905,441 1023,441 1023,453 905,453"/>
<text text-anchor="middle" style="font-size:6.00;" x="964" y="449">manifest</text>
<polygon style="fill:none;stroke:black;" points="905,453 905,441 1023,441 1023,453 905,453"/>
<text text-anchor="middle" style="font-size:6.00;" x="910" y="462">id</text>
<text text-anchor="middle" style="font-size:6.00;" x="949" y="462">serial</text>
<text text-anchor="middle" style="font-size:6.00;" x="998" y="462"> PRIMARY KEY </text>
<text text-anchor="middle" style="font-size:6.00;" x="922" y="474">datecreated</text>
<text text-anchor="middle" style="font-size:6.00;" x="956" y="474">timestamp</text>
<text text-anchor="middle" style="font-size:6.00;" x="914" y="486">uuid</text>
<text text-anchor="middle" style="font-size:6.00;" x="948" y="486">text</text>
<text text-anchor="middle" style="font-size:6.00;" x="989" y="486"> UNIQUE </text>
<polygon style="fill:none;stroke:black;" points="902,492 902,438 1026,438 1026,492 902,492"/>
</g>
<g id="node16" class="node"><title>manifestentry</title>
<polygon style="fill:#c1cdcc;stroke:#c1cdcc;" points="874,758 874,632 1030,632 1030,758 874,758"/>
<polygon style="fill:white;stroke:white;" points="877,647 877,635 1027,635 1027,647 877,647"/>
<text text-anchor="middle" style="font-size:6.00;" x="952" y="643">manifestentry</text>
<polygon style="fill:none;stroke:black;" points="877,647 877,635 1027,635 1027,647 877,647"/>
<text text-anchor="middle" style="font-size:6.00;" x="882" y="656">id</text>
<text text-anchor="middle" style="font-size:6.00;" x="919" y="656">serial</text>
<text text-anchor="middle" style="font-size:6.00;" x="959" y="656"> PRIMARY KEY </text>
<text text-anchor="middle" style="font-size:6.00;" x="890" y="668">manifest</text>
<text text-anchor="middle" style="font-size:6.00;" x="921" y="668">integer</text>
<text text-anchor="middle" style="font-size:6.00;" x="981" y="668"> REFERENCES manifest UNIQUE </text>
<text text-anchor="middle" style="font-size:6.00;" x="891" y="680">sequence</text>
<text text-anchor="middle" style="font-size:6.00;" x="921" y="680">integer</text>
<text text-anchor="middle" style="font-size:6.00;" x="950" y="680"> UNIQUE </text>
<text text-anchor="middle" style="font-size:6.00;" x="888" y="692">branch</text>
<text text-anchor="middle" style="font-size:6.00;" x="921" y="692">integer</text>
<text text-anchor="middle" style="font-size:6.00;" x="966" y="692"> REFERENCES branch </text>
<text text-anchor="middle" style="font-size:6.00;" x="892" y="704">changeset</text>
<text text-anchor="middle" style="font-size:6.00;" x="921" y="704">integer</text>
<text text-anchor="middle" style="font-size:6.00;" x="970" y="704"> REFERENCES changeset </text>
<text text-anchor="middle" style="font-size:6.00;" x="892" y="716">entrytype</text>
<text text-anchor="middle" style="font-size:6.00;" x="921" y="716">integer</text>
<text text-anchor="middle" style="font-size:6.00;" x="885" y="728">path</text>
<text text-anchor="middle" style="font-size:6.00;" x="918" y="728">text</text>
<text text-anchor="middle" style="font-size:6.00;" x="890" y="740">patchon</text>
<text text-anchor="middle" style="font-size:6.00;" x="921" y="740">integer</text>
<text text-anchor="middle" style="font-size:6.00;" x="975" y="740"> REFERENCES manifestentry </text>
<text text-anchor="middle" style="font-size:6.00;" x="890" y="752">dirname</text>
<text text-anchor="middle" style="font-size:6.00;" x="918" y="752">text</text>
<polygon style="fill:none;stroke:black;" points="874,758 874,632 1030,632 1030,758 874,758"/>
</g>
<g id="edge52" class="edge"><title>manifestentry&#45;&gt;branch</title>
<path style="fill:none;stroke:black;" d="M897,762C871,793 841,830 817,861"/>
<polygon style="fill:black;stroke:black;" points="819,864 810,869 814,859 819,864"/>
</g>
<g id="edge54" class="edge"><title>manifestentry&#45;&gt;changeset</title>
<path style="fill:none;stroke:black;" d="M866,655C856,650 846,646 835,641"/>
<polygon style="fill:black;stroke:black;" points="834,644 826,637 837,638 834,644"/>
</g>
<g id="edge50" class="edge"><title>manifestentry&#45;&gt;manifest</title>
<path style="fill:none;stroke:black;" d="M956,628C958,588 960,540 962,506"/>
<polygon style="fill:black;stroke:black;" points="959,506 962,496 966,506 959,506"/>
</g>
</g>
</svg>
