<?xml version="1.0" encoding="UTF-8" standalone="no"?>
<!DOCTYPE svg PUBLIC "-//W3C//DTD SVG 1.0//EN"
 "http://www.w3.org/TR/2001/REC-SVG-20010904/DTD/svg10.dtd">
<!-- Generated by fdp version 2.2.1 (Tue Oct 11 01:38:21 UTC 2005)
     For user: (stub) Stuart Bishop,,,   Title: g    Pages: 1 -->
<svg width="2390px" height="1726px"
 viewBox = "-1 -1 2389 1725"
 xmlns="http://www.w3.org/2000/svg">
<g id="graph0" class="graph" style="font-family:Times-Roman;font-size:14.00;">
<title>g</title>
<text text-anchor="middle" style="font-size:22.00;" x="1194" y="1708">Buttress</text>
<g id="node1" class="node"><title>archconfig</title>
<polygon style="fill:#c1cdcc;stroke:#c1cdcc;" points="153,1182 153,1078 353,1078 353,1182 153,1182"/>
<polygon style="fill:white;stroke:white;" points="156,1095 156,1081 350,1081 350,1095 156,1095"/>
<text text-anchor="middle" style="font-size:8.00;" x="253" y="1091">archconfig</text>
<polygon style="fill:none;stroke:black;" points="156,1095 156,1081 350,1081 350,1095 156,1095"/>
<text text-anchor="middle" style="font-size:8.00;" x="162" y="1106">id</text>
<text text-anchor="middle" style="font-size:8.00;" x="223" y="1106">serial</text>
<text text-anchor="middle" style="font-size:8.00;" x="274" y="1106"> PRIMARY KEY </text>
<text text-anchor="middle" style="font-size:8.00;" x="168" y="1120">name</text>
<text text-anchor="middle" style="font-size:8.00;" x="221" y="1120">text</text>
<text text-anchor="middle" style="font-size:8.00;" x="165" y="1134">title</text>
<text text-anchor="middle" style="font-size:8.00;" x="221" y="1134">text</text>
<text text-anchor="middle" style="font-size:8.00;" x="176" y="1148">description</text>
<text text-anchor="middle" style="font-size:8.00;" x="221" y="1148">text</text>
<text text-anchor="middle" style="font-size:8.00;" x="183" y="1162">productrelease</text>
<text text-anchor="middle" style="font-size:8.00;" x="226" y="1162">integer</text>
<text text-anchor="middle" style="font-size:8.00;" x="296" y="1162"> REFERENCES productrelease </text>
<text text-anchor="middle" style="font-size:8.00;" x="169" y="1176">owner</text>
<text text-anchor="middle" style="font-size:8.00;" x="226" y="1176">integer</text>
<text text-anchor="middle" style="font-size:8.00;" x="284" y="1176"> REFERENCES person </text>
<polygon style="fill:none;stroke:black;" points="153,1182 153,1078 353,1078 353,1182 153,1182"/>
</g>
<g id="node15" class="node"><title>fake_productrelease_1</title>
<ellipse cx="42" cy="1081" rx="36" ry="18" style="fill:none;stroke:red;"/>
<text text-anchor="middle" style="font-size:8.00;" x="42" y="1084">productrelease</text>
</g>
<g id="edge2" class="edge"><title>archconfig&#45;&gt;fake_productrelease_1</title>
<path style="fill:none;stroke:black;" d="M145,1105C123,1100 102,1095 85,1091"/>
<polygon style="fill:black;stroke:black;" points="84,1094 75,1089 85,1088 84,1094"/>
</g>
<g id="node17" class="node"><title>fake_person_3</title>
<ellipse cx="80" cy="1245" rx="27" ry="18" style="fill:none;stroke:red;"/>
<text text-anchor="middle" style="font-size:8.00;" x="80" y="1248">person</text>
</g>
<g id="edge4" class="edge"><title>archconfig&#45;&gt;fake_person_3</title>
<path style="fill:none;stroke:black;" d="M169,1186C147,1200 124,1215 108,1226"/>
<polygon style="fill:black;stroke:black;" points="109,1229 99,1232 105,1224 109,1229"/>
</g>
<g id="node2" class="node"><title>archconfigentry</title>
<polygon style="fill:#c1cdcc;stroke:#c1cdcc;" points="495,1113 495,1037 669,1037 669,1113 495,1113"/>
<polygon style="fill:white;stroke:white;" points="498,1054 498,1040 666,1040 666,1054 498,1054"/>
<text text-anchor="middle" style="font-size:8.00;" x="582" y="1050">archconfigentry</text>
<polygon style="fill:none;stroke:black;" points="498,1054 498,1040 666,1040 666,1054 498,1054"/>
<text text-anchor="middle" style="font-size:8.00;" x="518" y="1065">archconfig</text>
<text text-anchor="middle" style="font-size:8.00;" x="554" y="1065">integer</text>
<text text-anchor="middle" style="font-size:8.00;" x="618" y="1065"> REFERENCES archconfig </text>
<text text-anchor="middle" style="font-size:8.00;" x="508" y="1079">path</text>
<text text-anchor="middle" style="font-size:8.00;" x="549" y="1079">text</text>
<text text-anchor="middle" style="font-size:8.00;" x="512" y="1093">branch</text>
<text text-anchor="middle" style="font-size:8.00;" x="554" y="1093">integer</text>
<text text-anchor="middle" style="font-size:8.00;" x="612" y="1093"> REFERENCES branch </text>
<text text-anchor="middle" style="font-size:8.00;" x="517" y="1107">changeset</text>
<text text-anchor="middle" style="font-size:8.00;" x="554" y="1107">integer</text>
<polygon style="fill:none;stroke:black;" points="495,1113 495,1037 669,1037 669,1113 495,1113"/>
</g>
<g id="edge6" class="edge"><title>archconfigentry&#45;&gt;archconfig</title>
<path style="fill:none;stroke:black;" d="M487,1091C451,1097 409,1104 371,1110"/>
<polygon style="fill:black;stroke:black;" points="371,1113 361,1112 370,1107 371,1113"/>
</g>
<g id="node3" class="node"><title>branch</title>
<polygon style="fill:#c1cdcc;stroke:#c1cdcc;" points="922,1212 922,800 1266,800 1266,1212 922,1212"/>
<polygon style="fill:white;stroke:white;" points="925,817 925,803 1263,803 1263,817 925,817"/>
<text text-anchor="middle" style="font-size:8.00;" x="1094" y="813">branch</text>
<polygon style="fill:none;stroke:black;" points="925,817 925,803 1263,803 1263,817 925,817"/>
<text text-anchor="middle" style="font-size:8.00;" x="931" y="828">id</text>
<text text-anchor="middle" style="font-size:8.00;" x="1017" y="828">serial</text>
<text text-anchor="middle" style="font-size:8.00;" x="1132" y="828"> REFERENCES revisionnumber PRIMARY KEY </text>
<text text-anchor="middle" style="font-size:8.00;" x="934" y="842">title</text>
<text text-anchor="middle" style="font-size:8.00;" x="1015" y="842">text</text>
<text text-anchor="middle" style="font-size:8.00;" x="943" y="856">summary</text>
<text text-anchor="middle" style="font-size:8.00;" x="1015" y="856">text</text>
<text text-anchor="middle" style="font-size:8.00;" x="938" y="870">owner</text>
<text text-anchor="middle" style="font-size:8.00;" x="1020" y="870">integer</text>
<text text-anchor="middle" style="font-size:8.00;" x="1089" y="870"> REFERENCES person </text>
<text text-anchor="middle" style="font-size:8.00;" x="940" y="884">product</text>
<text text-anchor="middle" style="font-size:8.00;" x="1020" y="884">integer</text>
<text text-anchor="middle" style="font-size:8.00;" x="1090" y="884"> REFERENCES product </text>
<text text-anchor="middle" style="font-size:8.00;" x="938" y="898">author</text>
<text text-anchor="middle" style="font-size:8.00;" x="1020" y="898">integer</text>
<text text-anchor="middle" style="font-size:8.00;" x="1089" y="898"> REFERENCES person </text>
<text text-anchor="middle" style="font-size:8.00;" x="937" y="912">name</text>
<text text-anchor="middle" style="font-size:8.00;" x="1015" y="912">text</text>
<text text-anchor="middle" style="font-size:8.00;" x="964" y="926">branch_product_name</text>
<text text-anchor="middle" style="font-size:8.00;" x="1015" y="926">text</text>
<text text-anchor="middle" style="font-size:8.00;" x="953" y="940">product_locked</text>
<text text-anchor="middle" style="font-size:8.00;" x="1022" y="940">boolean</text>
<text text-anchor="middle" style="font-size:8.00;" x="947" y="954">home_page</text>
<text text-anchor="middle" style="font-size:8.00;" x="1015" y="954">text</text>
<text text-anchor="middle" style="font-size:8.00;" x="960" y="968">branch_home_page</text>
<text text-anchor="middle" style="font-size:8.00;" x="1015" y="968">text</text>
<text text-anchor="middle" style="font-size:8.00;" x="960" y="982">home_page_locked</text>
<text text-anchor="middle" style="font-size:8.00;" x="1022" y="982">boolean</text>
<text text-anchor="middle" style="font-size:8.00;" x="933" y="996">url</text>
<text text-anchor="middle" style="font-size:8.00;" x="1015" y="996">text</text>
<text text-anchor="middle" style="font-size:8.00;" x="946" y="1010">whiteboard</text>
<text text-anchor="middle" style="font-size:8.00;" x="1015" y="1010">text</text>
<text text-anchor="middle" style="font-size:8.00;" x="953" y="1024">lifecycle_status</text>
<text text-anchor="middle" style="font-size:8.00;" x="1020" y="1024">integer</text>
<text text-anchor="middle" style="font-size:8.00;" x="951" y="1038">landing_target</text>
<text text-anchor="middle" style="font-size:8.00;" x="1020" y="1038">integer</text>
<text text-anchor="middle" style="font-size:8.00;" x="1089" y="1038"> REFERENCES branch </text>
<text text-anchor="middle" style="font-size:8.00;" x="955" y="1052">current_delta_url</text>
<text text-anchor="middle" style="font-size:8.00;" x="1015" y="1052">text</text>
<text text-anchor="middle" style="font-size:8.00;" x="961" y="1066">current_conflicts_url</text>
<text text-anchor="middle" style="font-size:8.00;" x="1015" y="1066">text</text>
<text text-anchor="middle" style="font-size:8.00;" x="956" y="1080">current_diff_adds</text>
<text text-anchor="middle" style="font-size:8.00;" x="1020" y="1080">integer</text>
<text text-anchor="middle" style="font-size:8.00;" x="960" y="1094">current_diff_deletes</text>
<text text-anchor="middle" style="font-size:8.00;" x="1020" y="1094">integer</text>
<text text-anchor="middle" style="font-size:8.00;" x="950" y="1108">stats_updated</text>
<text text-anchor="middle" style="font-size:8.00;" x="1026" y="1108">timestamp</text>
<text text-anchor="middle" style="font-size:8.00;" x="953" y="1122">current_activity</text>
<text text-anchor="middle" style="font-size:8.00;" x="1020" y="1122">integer</text>
<text text-anchor="middle" style="font-size:8.00;" x="950" y="1136">last_mirrored</text>
<text text-anchor="middle" style="font-size:8.00;" x="1026" y="1136">timestamp</text>
<text text-anchor="middle" style="font-size:8.00;" x="960" y="1150">last_mirror_attempt</text>
<text text-anchor="middle" style="font-size:8.00;" x="1026" y="1150">timestamp</text>
<text text-anchor="middle" style="font-size:8.00;" x="952" y="1164">mirror_failures</text>
<text text-anchor="middle" style="font-size:8.00;" x="1020" y="1164">integer</text>
<text text-anchor="middle" style="font-size:8.00;" x="950" y="1178">pull_disabled</text>
<text text-anchor="middle" style="font-size:8.00;" x="1022" y="1178">boolean</text>
<text text-anchor="middle" style="font-size:8.00;" x="943" y="1192">cache_url</text>
<text text-anchor="middle" style="font-size:8.00;" x="1015" y="1192">text</text>
<text text-anchor="middle" style="font-size:8.00;" x="943" y="1206">started_at</text>
<text text-anchor="middle" style="font-size:8.00;" x="1020" y="1206">integer</text>
<text text-anchor="middle" style="font-size:8.00;" x="1155" y="1206"> REFERENCES revisionnumber REFERENCES revisionnumber </text>
<polygon style="fill:none;stroke:black;" points="922,1212 922,800 1266,800 1266,1212 922,1212"/>
</g>
<g id="edge8" class="edge"><title>archconfigentry&#45;&gt;branch</title>
<path style="fill:none;stroke:black;" d="M677,1062C740,1053 826,1042 904,1031"/>
<polygon style="fill:black;stroke:black;" points="904,1028 914,1030 904,1034 904,1028"/>
</g>
<g id="edge18" class="edge"><title>branch&#45;&gt;branch</title>
<path style="fill:none;stroke:black;" d="M1274,1116C1285,1090 1292,1053 1292,1006 1292,965 1287,931 1278,906"/>
<polygon style="fill:black;stroke:black;" points="1274,907 1274,896 1281,904 1274,907"/>
</g>
<g id="node13" class="node"><title>revisionnumber</title>
<polygon style="fill:#c1cdcc;stroke:#c1cdcc;" points="1507,1085 1507,1009 1727,1009 1727,1085 1507,1085"/>
<polygon style="fill:white;stroke:white;" points="1510,1026 1510,1012 1724,1012 1724,1026 1510,1026"/>
<text text-anchor="middle" style="font-size:8.00;" x="1617" y="1022">revisionnumber</text>
<polygon style="fill:none;stroke:black;" points="1510,1026 1510,1012 1724,1012 1724,1026 1510,1026"/>
<text text-anchor="middle" style="font-size:8.00;" x="1516" y="1037">id</text>
<text text-anchor="middle" style="font-size:8.00;" x="1557" y="1037">serial</text>
<text text-anchor="middle" style="font-size:8.00;" x="1625" y="1037"> UNIQUE PRIMARY KEY </text>
<text text-anchor="middle" style="font-size:8.00;" x="1527" y="1051">sequence</text>
<text text-anchor="middle" style="font-size:8.00;" x="1560" y="1051">integer</text>
<text text-anchor="middle" style="font-size:8.00;" x="1596" y="1051"> UNIQUE </text>
<text text-anchor="middle" style="font-size:8.00;" x="1524" y="1065">branch</text>
<text text-anchor="middle" style="font-size:8.00;" x="1560" y="1065">integer</text>
<text text-anchor="middle" style="font-size:8.00;" x="1650" y="1065"> REFERENCES branch UNIQUE UNIQUE </text>
<text text-anchor="middle" style="font-size:8.00;" x="1526" y="1079">revision</text>
<text text-anchor="middle" style="font-size:8.00;" x="1560" y="1079">integer</text>
<text text-anchor="middle" style="font-size:8.00;" x="1636" y="1079"> REFERENCES revision UNIQUE </text>
<polygon style="fill:none;stroke:black;" points="1507,1085 1507,1009 1727,1009 1727,1085 1507,1085"/>
</g>
<g id="edge10" class="edge"><title>branch&#45;&gt;revisionnumber</title>
<path style="fill:none;stroke:black;" d="M1274,1020C1345,1026 1424,1032 1489,1037"/>
<polygon style="fill:black;stroke:black;" points="1489,1034 1499,1038 1489,1040 1489,1034"/>
</g>
<g id="edge20" class="edge"><title>branch&#45;&gt;revisionnumber</title>
<path style="fill:none;stroke:black;" d="M1274,1020C1345,1026 1424,1032 1489,1037"/>
<polygon style="fill:black;stroke:black;" points="1489,1034 1499,1038 1489,1040 1489,1034"/>
</g>
<g id="node22" class="node"><title>fake_person_21</title>
<ellipse cx="1260" cy="1332" rx="27" ry="18" style="fill:none;stroke:red;"/>
<text text-anchor="middle" style="font-size:8.00;" x="1260" y="1335">person</text>
</g>
<g id="edge12" class="edge"><title>branch&#45;&gt;fake_person_21</title>
<path style="fill:none;stroke:black;" d="M1201,1216C1219,1252 1236,1284 1247,1306"/>
<polygon style="fill:black;stroke:black;" points="1250,1304 1251,1315 1244,1307 1250,1304"/>
</g>
<g id="node24" class="node"><title>fake_product_23</title>
<ellipse cx="751" cy="1072" rx="27" ry="18" style="fill:none;stroke:red;"/>
<text text-anchor="middle" style="font-size:8.00;" x="751" y="1075">product</text>
</g>
<g id="edge14" class="edge"><title>branch&#45;&gt;fake_product_23</title>
<path style="fill:none;stroke:black;" d="M914,1041C865,1050 818,1059 787,1065"/>
<polygon style="fill:black;stroke:black;" points="787,1068 777,1067 786,1062 787,1068"/>
</g>
<g id="node26" class="node"><title>fake_person_25</title>
<ellipse cx="871" cy="1295" rx="27" ry="18" style="fill:none;stroke:red;"/>
<text text-anchor="middle" style="font-size:8.00;" x="871" y="1298">person</text>
</g>
<g id="edge16" class="edge"><title>branch&#45;&gt;fake_person_25</title>
<path style="fill:none;stroke:black;" d="M932,1216C915,1238 900,1257 889,1271"/>
<polygon style="fill:black;stroke:black;" points="892,1273 883,1279 886,1269 892,1273"/>
</g>
<g id="node4" class="node"><title>branchlabel</title>
<polygon style="fill:#c1cdcc;stroke:#c1cdcc;" points="699,693 699,631 849,631 849,693 699,693"/>
<polygon style="fill:white;stroke:white;" points="702,648 702,634 846,634 846,648 702,648"/>
<text text-anchor="middle" style="font-size:8.00;" x="774" y="644">branchlabel</text>
<polygon style="fill:none;stroke:black;" points="702,648 702,634 846,634 846,648 702,648"/>
<text text-anchor="middle" style="font-size:8.00;" x="716" y="659">branch</text>
<text text-anchor="middle" style="font-size:8.00;" x="747" y="659">integer</text>
<text text-anchor="middle" style="font-size:8.00;" x="805" y="659"> REFERENCES branch </text>
<text text-anchor="middle" style="font-size:8.00;" x="713" y="673">label</text>
<text text-anchor="middle" style="font-size:8.00;" x="747" y="673">integer</text>
<text text-anchor="middle" style="font-size:8.00;" x="802" y="673"> REFERENCES label </text>
<text text-anchor="middle" style="font-size:8.00;" x="708" y="687">id</text>
<text text-anchor="middle" style="font-size:8.00;" x="747" y="687">integer</text>
<text text-anchor="middle" style="font-size:8.00;" x="795" y="687"> PRIMARY KEY </text>
<polygon style="fill:none;stroke:black;" points="699,693 699,631 849,631 849,693 699,693"/>
</g>
<g id="edge22" class="edge"><title>branchlabel&#45;&gt;branch</title>
<path style="fill:none;stroke:black;" d="M807,697C832,724 869,763 907,805"/>
<polygon style="fill:black;stroke:black;" points="909,802 914,812 904,807 909,802"/>
</g>
<g id="node31" class="node"><title>fake_label_30</title>
<ellipse cx="652" cy="528" rx="27" ry="18" style="fill:none;stroke:red;"/>
<text text-anchor="middle" style="font-size:8.00;" x="652" y="531">label</text>
</g>
<g id="edge24" class="edge"><title>branchlabel&#45;&gt;fake_label_30</title>
<path style="fill:none;stroke:black;" d="M742,627C721,603 692,572 673,551"/>
<polygon style="fill:black;stroke:black;" points="671,554 666,544 676,549 671,554"/>
</g>
<g id="node5" class="node"><title>branchmessage</title>
<polygon style="fill:#c1cdcc;stroke:#c1cdcc;" points="958,1513 958,1451 1118,1451 1118,1513 958,1513"/>
<polygon style="fill:white;stroke:white;" points="961,1468 961,1454 1115,1454 1115,1468 961,1468"/>
<text text-anchor="middle" style="font-size:8.00;" x="1038" y="1464">branchmessage</text>
<polygon style="fill:none;stroke:black;" points="961,1468 961,1454 1115,1454 1115,1468 961,1468"/>
<text text-anchor="middle" style="font-size:8.00;" x="967" y="1479">id</text>
<text text-anchor="middle" style="font-size:8.00;" x="1007" y="1479">serial</text>
<text text-anchor="middle" style="font-size:8.00;" x="1058" y="1479"> PRIMARY KEY </text>
<text text-anchor="middle" style="font-size:8.00;" x="975" y="1493">branch</text>
<text text-anchor="middle" style="font-size:8.00;" x="1010" y="1493">integer</text>
<text text-anchor="middle" style="font-size:8.00;" x="1068" y="1493"> REFERENCES branch </text>
<text text-anchor="middle" style="font-size:8.00;" x="978" y="1507">message</text>
<text text-anchor="middle" style="font-size:8.00;" x="1010" y="1507">integer</text>
<text text-anchor="middle" style="font-size:8.00;" x="1071" y="1507"> REFERENCES message </text>
<polygon style="fill:none;stroke:black;" points="958,1513 958,1451 1118,1451 1118,1513 958,1513"/>
</g>
<g id="edge26" class="edge"><title>branchmessage&#45;&gt;branch</title>
<path style="fill:none;stroke:black;" d="M1042,1447C1048,1400 1058,1311 1068,1226"/>
<polygon style="fill:black;stroke:black;" points="1065,1226 1069,1216 1071,1226 1065,1226"/>
</g>
<g id="node34" class="node"><title>fake_message_33</title>
<ellipse cx="1014" cy="1665" rx="27" ry="18" style="fill:none;stroke:red;"/>
<text text-anchor="middle" style="font-size:8.00;" x="1014" y="1668">message</text>
</g>
<g id="edge28" class="edge"><title>branchmessage&#45;&gt;fake_message_33</title>
<path style="fill:none;stroke:black;" d="M1033,1517C1029,1552 1022,1605 1017,1637"/>
<polygon style="fill:black;stroke:black;" points="1020,1637 1016,1647 1014,1637 1020,1637"/>
</g>
<g id="node6" class="node"><title>branchrelationship</title>
<polygon style="fill:#c1cdcc;stroke:#c1cdcc;" points="961,610 961,534 1109,534 1109,610 961,610"/>
<polygon style="fill:white;stroke:white;" points="964,551 964,537 1106,537 1106,551 964,551"/>
<text text-anchor="middle" style="font-size:8.00;" x="1035" y="547">branchrelationship</text>
<polygon style="fill:none;stroke:black;" points="964,551 964,537 1106,537 1106,551 964,551"/>
<text text-anchor="middle" style="font-size:8.00;" x="978" y="562">subject</text>
<text text-anchor="middle" style="font-size:8.00;" x="1007" y="562">integer</text>
<text text-anchor="middle" style="font-size:8.00;" x="1065" y="562"> REFERENCES branch </text>
<text text-anchor="middle" style="font-size:8.00;" x="975" y="576">label</text>
<text text-anchor="middle" style="font-size:8.00;" x="1007" y="576">integer</text>
<text text-anchor="middle" style="font-size:8.00;" x="976" y="590">object</text>
<text text-anchor="middle" style="font-size:8.00;" x="1007" y="590">integer</text>
<text text-anchor="middle" style="font-size:8.00;" x="1065" y="590"> REFERENCES branch </text>
<text text-anchor="middle" style="font-size:8.00;" x="970" y="604">id</text>
<text text-anchor="middle" style="font-size:8.00;" x="1007" y="604">integer</text>
<text text-anchor="middle" style="font-size:8.00;" x="1055" y="604"> PRIMARY KEY </text>
<polygon style="fill:none;stroke:black;" points="961,610 961,534 1109,534 1109,610 961,610"/>
</g>
<g id="edge30" class="edge"><title>branchrelationship&#45;&gt;branch</title>
<path style="fill:none;stroke:black;" d="M1041,614C1047,655 1055,720 1065,786"/>
<polygon style="fill:black;stroke:black;" points="1068,786 1066,796 1062,786 1068,786"/>
</g>
<g id="edge32" class="edge"><title>branchrelationship&#45;&gt;branch</title>
<path style="fill:none;stroke:black;" d="M1041,614C1047,655 1055,720 1065,786"/>
<polygon style="fill:black;stroke:black;" points="1068,786 1066,796 1062,786 1068,786"/>
</g>
<g id="node7" class="node"><title>developmentmanifest</title>
<polygon style="fill:#c1cdcc;stroke:#c1cdcc;" points="1934,308 1934,204 2180,204 2180,308 1934,308"/>
<polygon style="fill:white;stroke:white;" points="1937,221 1937,207 2177,207 2177,221 1937,221"/>
<text text-anchor="middle" style="font-size:8.00;" x="2057" y="217">developmentmanifest</text>
<polygon style="fill:none;stroke:black;" points="1937,221 1937,207 2177,207 2177,221 1937,221"/>
<text text-anchor="middle" style="font-size:8.00;" x="1943" y="232">id</text>
<text text-anchor="middle" style="font-size:8.00;" x="2020" y="232">serial</text>
<text text-anchor="middle" style="font-size:8.00;" x="2082" y="232"> PRIMARY KEY </text>
<text text-anchor="middle" style="font-size:8.00;" x="1950" y="246">owner</text>
<text text-anchor="middle" style="font-size:8.00;" x="2023" y="246">integer</text>
<text text-anchor="middle" style="font-size:8.00;" x="2092" y="246"> REFERENCES person </text>
<text text-anchor="middle" style="font-size:8.00;" x="1960" y="260">distrorelease</text>
<text text-anchor="middle" style="font-size:8.00;" x="2023" y="260">integer</text>
<text text-anchor="middle" style="font-size:8.00;" x="2101" y="260"> REFERENCES distrorelease </text>
<text text-anchor="middle" style="font-size:8.00;" x="1972" y="274">sourcepackagename</text>
<text text-anchor="middle" style="font-size:8.00;" x="2023" y="274">integer</text>
<text text-anchor="middle" style="font-size:8.00;" x="2114" y="274"> REFERENCES sourcepackagename </text>
<text text-anchor="middle" style="font-size:8.00;" x="1954" y="288">manifest</text>
<text text-anchor="middle" style="font-size:8.00;" x="2023" y="288">integer</text>
<text text-anchor="middle" style="font-size:8.00;" x="2095" y="288"> REFERENCES manifest </text>
<text text-anchor="middle" style="font-size:8.00;" x="1958" y="302">datecreated</text>
<text text-anchor="middle" style="font-size:8.00;" x="2029" y="302">timestamp</text>
<polygon style="fill:none;stroke:black;" points="1934,308 1934,204 2180,204 2180,308 1934,308"/>
</g>
<g id="node8" class="node"><title>manifest</title>
<polygon style="fill:#c1cdcc;stroke:#c1cdcc;" points="1869,513 1869,451 2023,451 2023,513 1869,513"/>
<polygon style="fill:white;stroke:white;" points="1872,468 1872,454 2020,454 2020,468 1872,468"/>
<text text-anchor="middle" style="font-size:8.00;" x="1946" y="464">manifest</text>
<polygon style="fill:none;stroke:black;" points="1872,468 1872,454 2020,454 2020,468 1872,468"/>
<text text-anchor="middle" style="font-size:8.00;" x="1878" y="479">id</text>
<text text-anchor="middle" style="font-size:8.00;" x="1926" y="479">serial</text>
<text text-anchor="middle" style="font-size:8.00;" x="1988" y="479"> PRIMARY KEY </text>
<text text-anchor="middle" style="font-size:8.00;" x="1893" y="493">datecreated</text>
<text text-anchor="middle" style="font-size:8.00;" x="1935" y="493">timestamp</text>
<text text-anchor="middle" style="font-size:8.00;" x="1882" y="507">uuid</text>
<text text-anchor="middle" style="font-size:8.00;" x="1924" y="507">text</text>
<text text-anchor="middle" style="font-size:8.00;" x="1976" y="507"> UNIQUE </text>
<polygon style="fill:none;stroke:black;" points="1869,513 1869,451 2023,451 2023,513 1869,513"/>
</g>
<g id="edge40" class="edge"><title>developmentmanifest&#45;&gt;manifest</title>
<path style="fill:none;stroke:black;" d="M2029,312C2011,351 1986,402 1968,438"/>
<polygon style="fill:black;stroke:black;" points="1971,440 1963,447 1965,437 1971,440"/>
</g>
<g id="node38" class="node"><title>fake_person_101</title>
<ellipse cx="2047" cy="23" rx="27" ry="18" style="fill:none;stroke:red;"/>
<text text-anchor="middle" style="font-size:8.00;" x="2047" y="26">person</text>
</g>
<g id="edge34" class="edge"><title>developmentmanifest&#45;&gt;fake_person_101</title>
<path style="fill:none;stroke:black;" d="M2055,200C2053,153 2050,88 2048,51"/>
<polygon style="fill:black;stroke:black;" points="2045,51 2048,41 2052,51 2045,51"/>
</g>
<g id="node40" class="node"><title>fake_distrorelease_103</title>
<ellipse cx="1972" cy="166" rx="32" ry="18" style="fill:none;stroke:red;"/>
<text text-anchor="middle" style="font-size:8.00;" x="1972" y="169">distrorelease</text>
</g>
<g id="edge36" class="edge"><title>developmentmanifest&#45;&gt;fake_distrorelease_103</title>
<path style="fill:none;stroke:black;" d="M2004,200C2001,197 1997,193 1994,189"/>
<polygon style="fill:black;stroke:black;" points="1992,192 1987,182 1997,187 1992,192"/>
</g>
<g id="node42" class="node"><title>fake_sourcepackagename_105</title>
<ellipse cx="2244" cy="93" rx="44" ry="18" style="fill:none;stroke:red;"/>
<text text-anchor="middle" style="font-size:8.00;" x="2244" y="96">sourcepackagename</text>
</g>
<g id="edge38" class="edge"><title>developmentmanifest&#45;&gt;fake_sourcepackagename_105</title>
<path style="fill:none;stroke:black;" d="M2121,200C2153,171 2192,138 2217,116"/>
<polygon style="fill:black;stroke:black;" points="2215,113 2225,109 2220,118 2215,113"/>
</g>
<g id="node9" class="node"><title>manifestancestry</title>
<polygon style="fill:#c1cdcc;stroke:#c1cdcc;" points="2111,446 2111,384 2297,384 2297,446 2111,446"/>
<polygon style="fill:white;stroke:white;" points="2114,401 2114,387 2294,387 2294,401 2114,401"/>
<text text-anchor="middle" style="font-size:8.00;" x="2204" y="397">manifestancestry</text>
<polygon style="fill:none;stroke:black;" points="2114,401 2114,387 2294,387 2294,401 2114,401"/>
<text text-anchor="middle" style="font-size:8.00;" x="2120" y="412">id</text>
<text text-anchor="middle" style="font-size:8.00;" x="2154" y="412">serial</text>
<text text-anchor="middle" style="font-size:8.00;" x="2205" y="412"> PRIMARY KEY </text>
<text text-anchor="middle" style="font-size:8.00;" x="2127" y="426">parent</text>
<text text-anchor="middle" style="font-size:8.00;" x="2157" y="426">integer</text>
<text text-anchor="middle" style="font-size:8.00;" x="2234" y="426"> UNIQUE REFERENCES manifest </text>
<text text-anchor="middle" style="font-size:8.00;" x="2125" y="440">child</text>
<text text-anchor="middle" style="font-size:8.00;" x="2157" y="440">integer</text>
<text text-anchor="middle" style="font-size:8.00;" x="2234" y="440"> REFERENCES manifest UNIQUE </text>
<polygon style="fill:none;stroke:black;" points="2111,446 2111,384 2297,384 2297,446 2111,446"/>
</g>
<g id="edge42" class="edge"><title>manifestancestry&#45;&gt;manifest</title>
<path style="fill:none;stroke:black;" d="M2103,441C2082,446 2061,452 2041,457"/>
<polygon style="fill:black;stroke:black;" points="2042,460 2031,460 2040,454 2042,460"/>
</g>
<g id="edge44" class="edge"><title>manifestancestry&#45;&gt;manifest</title>
<path style="fill:none;stroke:black;" d="M2103,441C2082,446 2061,452 2041,457"/>
<polygon style="fill:black;stroke:black;" points="2042,460 2031,460 2040,454 2042,460"/>
</g>
<g id="node10" class="node"><title>manifestentry</title>
<polygon style="fill:#c1cdcc;stroke:#c1cdcc;" points="1501,829 1501,669 1829,669 1829,829 1501,829"/>
<polygon style="fill:white;stroke:white;" points="1504,686 1504,672 1826,672 1826,686 1504,686"/>
<text text-anchor="middle" style="font-size:8.00;" x="1665" y="682">manifestentry</text>
<polygon style="fill:none;stroke:black;" points="1504,686 1504,672 1826,672 1826,686 1504,686"/>
<text text-anchor="middle" style="font-size:8.00;" x="1510" y="697">id</text>
<text text-anchor="middle" style="font-size:8.00;" x="1555" y="697">serial</text>
<text text-anchor="middle" style="font-size:8.00;" x="1606" y="697"> PRIMARY KEY </text>
<text text-anchor="middle" style="font-size:8.00;" x="1521" y="711">manifest</text>
<text text-anchor="middle" style="font-size:8.00;" x="1558" y="711">integer</text>
<text text-anchor="middle" style="font-size:8.00;" x="1700" y="711"> REFERENCES manifest UNIQUE UNIQUE REFERENCES manifestentry </text>
<text text-anchor="middle" style="font-size:8.00;" x="1521" y="725">sequence</text>
<text text-anchor="middle" style="font-size:8.00;" x="1558" y="725">integer</text>
<text text-anchor="middle" style="font-size:8.00;" x="1594" y="725"> UNIQUE </text>
<text text-anchor="middle" style="font-size:8.00;" x="1518" y="739">branch</text>
<text text-anchor="middle" style="font-size:8.00;" x="1558" y="739">integer</text>
<text text-anchor="middle" style="font-size:8.00;" x="1616" y="739"> REFERENCES branch </text>
<text text-anchor="middle" style="font-size:8.00;" x="1523" y="753">changeset</text>
<text text-anchor="middle" style="font-size:8.00;" x="1558" y="753">integer</text>
<text text-anchor="middle" style="font-size:8.00;" x="1618" y="753"> REFERENCES revision </text>
<text text-anchor="middle" style="font-size:8.00;" x="1522" y="767">entrytype</text>
<text text-anchor="middle" style="font-size:8.00;" x="1558" y="767">integer</text>
<text text-anchor="middle" style="font-size:8.00;" x="1514" y="781">path</text>
<text text-anchor="middle" style="font-size:8.00;" x="1553" y="781">text</text>
<text text-anchor="middle" style="font-size:8.00;" x="1520" y="795">dirname</text>
<text text-anchor="middle" style="font-size:8.00;" x="1553" y="795">text</text>
<text text-anchor="middle" style="font-size:8.00;" x="1513" y="809">hint</text>
<text text-anchor="middle" style="font-size:8.00;" x="1558" y="809">integer</text>
<text text-anchor="middle" style="font-size:8.00;" x="1594" y="809"> UNIQUE </text>
<text text-anchor="middle" style="font-size:8.00;" x="1517" y="823">parent</text>
<text text-anchor="middle" style="font-size:8.00;" x="1558" y="823">integer</text>
<text text-anchor="middle" style="font-size:8.00;" x="1627" y="823"> REFERENCES manifestentry </text>
<polygon style="fill:none;stroke:black;" points="1501,829 1501,669 1829,669 1829,829 1501,829"/>
</g>
<g id="edge50" class="edge"><title>manifestentry&#45;&gt;branch</title>
<path style="fill:none;stroke:black;" d="M1493,826C1427,856 1351,890 1283,921"/>
<polygon style="fill:black;stroke:black;" points="1285,924 1274,925 1282,918 1285,924"/>
</g>
<g id="edge46" class="edge"><title>manifestentry&#45;&gt;manifest</title>
<path style="fill:none;stroke:black;" d="M1754,665C1803,618 1862,562 1901,524"/>
<polygon style="fill:black;stroke:black;" points="1899,521 1909,517 1904,526 1899,521"/>
</g>
<g id="edge48" class="edge"><title>manifestentry&#45;&gt;manifestentry</title>
<path style="fill:none;stroke:black;" d="M1837,794C1848,783 1855,768 1855,749 1855,734 1851,722 1844,712"/>
<polygon style="fill:black;stroke:black;" points="1841,714 1837,704 1846,709 1841,714"/>
</g>
<g id="node11" class="node"><title>revision</title>
<polygon style="fill:#c1cdcc;stroke:#c1cdcc;" points="1869,1095 1869,963 2083,963 2083,1095 1869,1095"/>
<polygon style="fill:white;stroke:white;" points="1872,980 1872,966 2080,966 2080,980 1872,980"/>
<text text-anchor="middle" style="font-size:8.00;" x="1976" y="976">revision</text>
<polygon style="fill:none;stroke:black;" points="1872,980 1872,966 2080,966 2080,980 1872,980"/>
<text text-anchor="middle" style="font-size:8.00;" x="1878" y="991">id</text>
<text text-anchor="middle" style="font-size:8.00;" x="1942" y="991">serial</text>
<text text-anchor="middle" style="font-size:8.00;" x="2004" y="991"> PRIMARY KEY </text>
<text text-anchor="middle" style="font-size:8.00;" x="1895" y="1005">date_created</text>
<text text-anchor="middle" style="font-size:8.00;" x="1951" y="1005">timestamp</text>
<text text-anchor="middle" style="font-size:8.00;" x="1890" y="1019">log_body</text>
<text text-anchor="middle" style="font-size:8.00;" x="1940" y="1019">text</text>
<text text-anchor="middle" style="font-size:8.00;" x="1900" y="1033">revision_author</text>
<text text-anchor="middle" style="font-size:8.00;" x="1945" y="1033">integer</text>
<text text-anchor="middle" style="font-size:8.00;" x="2026" y="1033"> REFERENCES revisionauthor </text>
<text text-anchor="middle" style="font-size:8.00;" x="1887" y="1047">gpgkey</text>
<text text-anchor="middle" style="font-size:8.00;" x="1945" y="1047">integer</text>
<text text-anchor="middle" style="font-size:8.00;" x="2015" y="1047"> REFERENCES gpgkey </text>
<text text-anchor="middle" style="font-size:8.00;" x="1885" y="1061">owner</text>
<text text-anchor="middle" style="font-size:8.00;" x="1945" y="1061">integer</text>
<text text-anchor="middle" style="font-size:8.00;" x="2014" y="1061"> REFERENCES person </text>
<text text-anchor="middle" style="font-size:8.00;" x="1893" y="1075">revision_id</text>
<text text-anchor="middle" style="font-size:8.00;" x="1940" y="1075">text</text>
<text text-anchor="middle" style="font-size:8.00;" x="1992" y="1075"> UNIQUE </text>
<text text-anchor="middle" style="font-size:8.00;" x="1897" y="1089">revision_date</text>
<text text-anchor="middle" style="font-size:8.00;" x="1951" y="1089">timestamp</text>
<polygon style="fill:none;stroke:black;" points="1869,1095 1869,963 2083,963 2083,1095 1869,1095"/>
</g>
<g id="edge52" class="edge"><title>manifestentry&#45;&gt;revision</title>
<path style="fill:none;stroke:black;" d="M1758,833C1800,871 1850,915 1891,952"/>
<polygon style="fill:black;stroke:black;" points="1893,949 1898,959 1888,954 1893,949"/>
</g>
<g id="node12" class="node"><title>revisionauthor</title>
<polygon style="fill:#c1cdcc;stroke:#c1cdcc;" points="1937,1168 1937,1120 2057,1120 2057,1168 1937,1168"/>
<polygon style="fill:white;stroke:white;" points="1940,1137 1940,1123 2054,1123 2054,1137 1940,1137"/>
<text text-anchor="middle" style="font-size:8.00;" x="1997" y="1133">revisionauthor</text>
<polygon style="fill:none;stroke:black;" points="1940,1137 1940,1123 2054,1123 2054,1137 1940,1137"/>
<text text-anchor="middle" style="font-size:8.00;" x="1946" y="1148">id</text>
<text text-anchor="middle" style="font-size:8.00;" x="1977" y="1148">serial</text>
<text text-anchor="middle" style="font-size:8.00;" x="2022" y="1148"> PRIMARY KEY </text>
<text text-anchor="middle" style="font-size:8.00;" x="1952" y="1162">name</text>
<text text-anchor="middle" style="font-size:8.00;" x="1975" y="1162">text</text>
<text text-anchor="middle" style="font-size:8.00;" x="2010" y="1162"> UNIQUE </text>
<polygon style="fill:none;stroke:black;" points="1937,1168 1937,1120 2057,1120 2057,1168 1937,1168"/>
</g>
<g id="edge54" class="edge"><title>revision&#45;&gt;revisionauthor</title>
<path style="fill:none;stroke:black;" d="M1989,1099C1989,1101 1990,1104 1990,1106"/>
<polygon style="fill:black;stroke:black;" points="1993,1106 1992,1116 1987,1107 1993,1106"/>
</g>
<g id="node52" class="node"><title>fake_gpgkey_291</title>
<ellipse cx="2191" cy="976" rx="27" ry="18" style="fill:none;stroke:red;"/>
<text text-anchor="middle" style="font-size:8.00;" x="2191" y="979">gpgkey</text>
</g>
<g id="edge56" class="edge"><title>revision&#45;&gt;fake_gpgkey_291</title>
<path style="fill:none;stroke:black;" d="M2091,1001C2115,995 2138,989 2156,985"/>
<polygon style="fill:black;stroke:black;" points="2155,982 2166,982 2157,988 2155,982"/>
</g>
<g id="node54" class="node"><title>fake_person_293</title>
<ellipse cx="2106" cy="1215" rx="27" ry="18" style="fill:none;stroke:red;"/>
<text text-anchor="middle" style="font-size:8.00;" x="2106" y="1218">person</text>
</g>
<g id="edge58" class="edge"><title>revision&#45;&gt;fake_person_293</title>
<path style="fill:none;stroke:black;" d="M2056,1099C2060,1104 2064,1110 2068,1115 2083,1137 2094,1166 2099,1187"/>
<polygon style="fill:black;stroke:black;" points="2102,1186 2102,1197 2096,1188 2102,1186"/>
</g>
<g id="edge60" class="edge"><title>revisionnumber&#45;&gt;branch</title>
<path style="fill:none;stroke:black;" d="M1499,1038C1436,1033 1357,1027 1284,1021"/>
<polygon style="fill:black;stroke:black;" points="1284,1024 1274,1020 1284,1018 1284,1024"/>
</g>
<g id="edge62" class="edge"><title>revisionnumber&#45;&gt;revision</title>
<path style="fill:none;stroke:black;" d="M1735,1041C1772,1039 1813,1037 1851,1036"/>
<polygon style="fill:black;stroke:black;" points="1851,1033 1861,1035 1851,1039 1851,1033"/>
</g>
<g id="node14" class="node"><title>revisionparent</title>
<polygon style="fill:#c1cdcc;stroke:#c1cdcc;" points="2180,1185 2180,1109 2374,1109 2374,1185 2180,1185"/>
<polygon style="fill:white;stroke:white;" points="2183,1126 2183,1112 2371,1112 2371,1126 2183,1126"/>
<text text-anchor="middle" style="font-size:8.00;" x="2277" y="1122">revisionparent</text>
<polygon style="fill:none;stroke:black;" points="2183,1126 2183,1112 2371,1112 2371,1126 2183,1126"/>
<text text-anchor="middle" style="font-size:8.00;" x="2189" y="1137">id</text>
<text text-anchor="middle" style="font-size:8.00;" x="2232" y="1137">serial</text>
<text text-anchor="middle" style="font-size:8.00;" x="2283" y="1137"> PRIMARY KEY </text>
<text text-anchor="middle" style="font-size:8.00;" x="2200" y="1151">sequence</text>
<text text-anchor="middle" style="font-size:8.00;" x="2235" y="1151">integer</text>
<text text-anchor="middle" style="font-size:8.00;" x="2199" y="1165">revision</text>
<text text-anchor="middle" style="font-size:8.00;" x="2235" y="1165">integer</text>
<text text-anchor="middle" style="font-size:8.00;" x="2311" y="1165"> REFERENCES revision UNIQUE </text>
<text text-anchor="middle" style="font-size:8.00;" x="2201" y="1179">parent_id</text>
<text text-anchor="middle" style="font-size:8.00;" x="2230" y="1179">text</text>
<text text-anchor="middle" style="font-size:8.00;" x="2271" y="1179"> UNIQUE </text>
<polygon style="fill:none;stroke:black;" points="2180,1185 2180,1109 2374,1109 2374,1185 2180,1185"/>
</g>
<g id="edge64" class="edge"><title>revisionparent&#45;&gt;revision</title>
<path style="fill:none;stroke:black;" d="M2172,1106C2149,1097 2125,1088 2101,1078"/>
<polygon style="fill:black;stroke:black;" points="2099,1081 2091,1074 2102,1074 2099,1081"/>
</g>
</g>
</svg>
