<?xml version="1.0" encoding="UTF-8" standalone="no"?>
<!DOCTYPE svg PUBLIC "-//W3C//DTD SVG 1.0//EN"
 "http://www.w3.org/TR/2001/REC-SVG-20010904/DTD/svg10.dtd">
<!-- Generated by fdp version 2.2.1 (Tue Oct 11 01:38:21 UTC 2005)
     For user: (stub) Stuart Bishop,,,   Title: g    Pages: 1 -->
<svg width="537px" height="535px"
 viewBox = "-1 -1 536 534"
 xmlns="http://www.w3.org/2000/svg">
<g id="graph0" class="graph" transform = "scale(0.478500)"
 style="font-family:Times-Roman;font-size:14.00;">
<title>g</title>
<text text-anchor="middle" style="font-size:22.00;" x="554" y="1097">Calendar</text>
<g id="node1" class="node"><title>calendar</title>
<polygon style="fill:#c1cdcc;stroke:#c1cdcc;" points="500,360 500,306 606,306 606,360 500,360"/>
<polygon style="fill:white;stroke:white;" points="503,321 503,309 603,309 603,321 503,321"/>
<text text-anchor="middle" style="font-size:6.00;" x="553" y="317">calendar</text>
<polygon style="fill:none;stroke:black;" points="503,321 503,309 603,309 603,321 503,321"/>
<text text-anchor="middle" style="font-size:6.00;" x="508" y="330">id</text>
<text text-anchor="middle" style="font-size:6.00;" x="539" y="330">serial</text>
<text text-anchor="middle" style="font-size:6.00;" x="579" y="330"> PRIMARY KEY </text>
<text text-anchor="middle" style="font-size:6.00;" x="511" y="342">title</text>
<text text-anchor="middle" style="font-size:6.00;" x="538" y="342">text</text>
<text text-anchor="middle" style="font-size:6.00;" x="516" y="354">revision</text>
<text text-anchor="middle" style="font-size:6.00;" x="541" y="354">integer</text>
<polygon style="fill:none;stroke:black;" points="500,360 500,306 606,306 606,360 500,360"/>
</g>
<g id="node2" class="node"><title>calendarevent</title>
<polygon style="fill:#c1cdcc;stroke:#c1cdcc;" points="456,133 456,19 628,19 628,133 456,133"/>
<polygon style="fill:white;stroke:white;" points="459,34 459,22 625,22 625,34 459,34"/>
<text text-anchor="middle" style="font-size:6.00;" x="542" y="30">calendarevent</text>
<polygon style="fill:none;stroke:black;" points="459,34 459,22 625,22 625,34 459,34"/>
<text text-anchor="middle" style="font-size:6.00;" x="464" y="43">id</text>
<text text-anchor="middle" style="font-size:6.00;" x="503" y="43">serial</text>
<text text-anchor="middle" style="font-size:6.00;" x="582" y="43"> PRIMARY KEY </text>
<text text-anchor="middle" style="font-size:6.00;" x="466" y="55">uid</text>
<text text-anchor="middle" style="font-size:6.00;" x="525" y="55">character varying(255)</text>
<text text-anchor="middle" style="font-size:6.00;" x="573" y="55"> UNIQUE </text>
<text text-anchor="middle" style="font-size:6.00;" x="472" y="67">calendar</text>
<text text-anchor="middle" style="font-size:6.00;" x="505" y="67">integer</text>
<text text-anchor="middle" style="font-size:6.00;" x="591" y="67"> REFERENCES calendar </text>
<text text-anchor="middle" style="font-size:6.00;" x="470" y="79">dtstart</text>
<text text-anchor="middle" style="font-size:6.00;" x="510" y="79">timestamp</text>
<text text-anchor="middle" style="font-size:6.00;" x="472" y="91">duration</text>
<text text-anchor="middle" style="font-size:6.00;" x="506" y="91">interval</text>
<text text-anchor="middle" style="font-size:6.00;" x="467" y="103">title</text>
<text text-anchor="middle" style="font-size:6.00;" x="502" y="103">text</text>
<text text-anchor="middle" style="font-size:6.00;" x="476" y="115">description</text>
<text text-anchor="middle" style="font-size:6.00;" x="502" y="115">text</text>
<text text-anchor="middle" style="font-size:6.00;" x="472" y="127">location</text>
<text text-anchor="middle" style="font-size:6.00;" x="502" y="127">text</text>
<polygon style="fill:none;stroke:black;" points="456,133 456,19 628,19 628,133 456,133"/>
</g>
<g id="edge2" class="edge"><title>calendarevent&#45;&gt;calendar</title>
<path style="fill:none;stroke:black;" d="M545,137C547,185 550,250 552,292"/>
<polygon style="fill:black;stroke:black;" points="556,292 552,302 549,292 556,292"/>
</g>
<g id="node3" class="node"><title>calendarsubscription</title>
<polygon style="fill:#c1cdcc;stroke:#c1cdcc;" points="328,517 328,451 474,451 474,517 328,517"/>
<polygon style="fill:white;stroke:white;" points="331,466 331,454 471,454 471,466 331,466"/>
<text text-anchor="middle" style="font-size:6.00;" x="401" y="462">calendarsubscription</text>
<polygon style="fill:none;stroke:black;" points="331,466 331,454 471,454 471,466 331,466"/>
<text text-anchor="middle" style="font-size:6.00;" x="336" y="475">id</text>
<text text-anchor="middle" style="font-size:6.00;" x="364" y="475">serial</text>
<text text-anchor="middle" style="font-size:6.00;" x="404" y="475"> PRIMARY KEY </text>
<text text-anchor="middle" style="font-size:6.00;" x="342" y="487">subject</text>
<text text-anchor="middle" style="font-size:6.00;" x="366" y="487">integer</text>
<text text-anchor="middle" style="font-size:6.00;" x="425" y="487"> REFERENCES calendar UNIQUE </text>
<text text-anchor="middle" style="font-size:6.00;" x="342" y="499">object</text>
<text text-anchor="middle" style="font-size:6.00;" x="366" y="499">integer</text>
<text text-anchor="middle" style="font-size:6.00;" x="425" y="499"> REFERENCES calendar UNIQUE </text>
<text text-anchor="middle" style="font-size:6.00;" x="342" y="511">colour</text>
<text text-anchor="middle" style="font-size:6.00;" x="363" y="511">text</text>
<polygon style="fill:none;stroke:black;" points="328,517 328,451 474,451 474,517 328,517"/>
</g>
<g id="edge4" class="edge"><title>calendarsubscription&#45;&gt;calendar</title>
<path style="fill:none;stroke:black;" d="M430,447C452,424 481,394 506,371"/>
<polygon style="fill:black;stroke:black;" points="503,369 513,364 508,374 503,369"/>
</g>
<g id="edge6" class="edge"><title>calendarsubscription&#45;&gt;calendar</title>
<path style="fill:none;stroke:black;" d="M446,447C470,424 499,395 521,372"/>
<polygon style="fill:black;stroke:black;" points="519,369 528,364 524,374 519,369"/>
</g>
<g id="node4" class="node"><title>person</title>
<polygon style="fill:#c1cdcc;stroke:#c1cdcc;" points="479,913 479,547 681,547 681,913 479,913"/>
<polygon style="fill:white;stroke:white;" points="482,562 482,550 678,550 678,562 482,562"/>
<text text-anchor="middle" style="font-size:6.00;" x="580" y="558">person</text>
<polygon style="fill:none;stroke:black;" points="482,562 482,550 678,550 678,562 482,562"/>
<text text-anchor="middle" style="font-size:6.00;" x="487" y="571">id</text>
<text text-anchor="middle" style="font-size:6.00;" x="562" y="571">serial</text>
<text text-anchor="middle" style="font-size:6.00;" x="611" y="571"> PRIMARY KEY </text>
<text text-anchor="middle" style="font-size:6.00;" x="500" y="583">displayname</text>
<text text-anchor="middle" style="font-size:6.00;" x="561" y="583">text</text>
<text text-anchor="middle" style="font-size:6.00;" x="498" y="595">givenname</text>
<text text-anchor="middle" style="font-size:6.00;" x="561" y="595">text</text>
<text text-anchor="middle" style="font-size:6.00;" x="499" y="607">familyname</text>
<text text-anchor="middle" style="font-size:6.00;" x="561" y="607">text</text>
<text text-anchor="middle" style="font-size:6.00;" x="496" y="619">password</text>
<text text-anchor="middle" style="font-size:6.00;" x="561" y="619">text</text>
<text text-anchor="middle" style="font-size:6.00;" x="498" y="631">teamowner</text>
<text text-anchor="middle" style="font-size:6.00;" x="564" y="631">integer</text>
<text text-anchor="middle" style="font-size:6.00;" x="618" y="631"> REFERENCES person </text>
<text text-anchor="middle" style="font-size:6.00;" x="505" y="643">teamdescription</text>
<text text-anchor="middle" style="font-size:6.00;" x="561" y="643">text</text>
<text text-anchor="middle" style="font-size:6.00;" x="492" y="655">name</text>
<text text-anchor="middle" style="font-size:6.00;" x="561" y="655">text</text>
<text text-anchor="middle" style="font-size:6.00;" x="496" y="667">language</text>
<text text-anchor="middle" style="font-size:6.00;" x="564" y="667">integer</text>
<text text-anchor="middle" style="font-size:6.00;" x="621" y="667"> REFERENCES language </text>
<text text-anchor="middle" style="font-size:6.00;" x="488" y="679">fti</text>
<text text-anchor="middle" style="font-size:6.00;" x="566" y="679">tsvector</text>
<text text-anchor="middle" style="font-size:6.00;" x="516" y="691">defaultmembershipperiod</text>
<text text-anchor="middle" style="font-size:6.00;" x="564" y="691">integer</text>
<text text-anchor="middle" style="font-size:6.00;" x="511" y="703">defaultrenewalperiod</text>
<text text-anchor="middle" style="font-size:6.00;" x="564" y="703">integer</text>
<text text-anchor="middle" style="font-size:6.00;" x="507" y="715">subscriptionpolicy</text>
<text text-anchor="middle" style="font-size:6.00;" x="564" y="715">integer</text>
<text text-anchor="middle" style="font-size:6.00;" x="494" y="727">merged</text>
<text text-anchor="middle" style="font-size:6.00;" x="564" y="727">integer</text>
<text text-anchor="middle" style="font-size:6.00;" x="618" y="727"> REFERENCES person </text>
<text text-anchor="middle" style="font-size:6.00;" x="499" y="739">datecreated</text>
<text text-anchor="middle" style="font-size:6.00;" x="569" y="739">timestamp</text>
<text text-anchor="middle" style="font-size:6.00;" x="495" y="751">calendar</text>
<text text-anchor="middle" style="font-size:6.00;" x="564" y="751">integer</text>
<text text-anchor="middle" style="font-size:6.00;" x="632" y="751"> REFERENCES calendar UNIQUE </text>
<text text-anchor="middle" style="font-size:6.00;" x="496" y="763">timezone</text>
<text text-anchor="middle" style="font-size:6.00;" x="561" y="763">text</text>
<text text-anchor="middle" style="font-size:6.00;" x="493" y="775">karma</text>
<text text-anchor="middle" style="font-size:6.00;" x="564" y="775">integer</text>
<text text-anchor="middle" style="font-size:6.00;" x="500" y="787">addressline1</text>
<text text-anchor="middle" style="font-size:6.00;" x="561" y="787">text</text>
<text text-anchor="middle" style="font-size:6.00;" x="500" y="799">addressline2</text>
<text text-anchor="middle" style="font-size:6.00;" x="561" y="799">text</text>
<text text-anchor="middle" style="font-size:6.00;" x="500" y="811">organization</text>
<text text-anchor="middle" style="font-size:6.00;" x="561" y="811">text</text>
<text text-anchor="middle" style="font-size:6.00;" x="490" y="823">city</text>
<text text-anchor="middle" style="font-size:6.00;" x="561" y="823">text</text>
<text text-anchor="middle" style="font-size:6.00;" x="496" y="835">province</text>
<text text-anchor="middle" style="font-size:6.00;" x="561" y="835">text</text>
<text text-anchor="middle" style="font-size:6.00;" x="495" y="847">country</text>
<text text-anchor="middle" style="font-size:6.00;" x="564" y="847">integer</text>
<text text-anchor="middle" style="font-size:6.00;" x="620" y="847"> REFERENCES country </text>
<text text-anchor="middle" style="font-size:6.00;" x="496" y="859">postcode</text>
<text text-anchor="middle" style="font-size:6.00;" x="561" y="859">text</text>
<text text-anchor="middle" style="font-size:6.00;" x="493" y="871">phone</text>
<text text-anchor="middle" style="font-size:6.00;" x="561" y="871">text</text>
<text text-anchor="middle" style="font-size:6.00;" x="508" y="883">homepage_content</text>
<text text-anchor="middle" style="font-size:6.00;" x="561" y="883">text</text>
<text text-anchor="middle" style="font-size:6.00;" x="495" y="895">emblem</text>
<text text-anchor="middle" style="font-size:6.00;" x="564" y="895">integer</text>
<text text-anchor="middle" style="font-size:6.00;" x="628" y="895"> REFERENCES libraryfilealias </text>
<text text-anchor="middle" style="font-size:6.00;" x="501" y="907">hackergotchi</text>
<text text-anchor="middle" style="font-size:6.00;" x="564" y="907">integer</text>
<text text-anchor="middle" style="font-size:6.00;" x="628" y="907"> REFERENCES libraryfilealias </text>
<polygon style="fill:none;stroke:black;" points="479,913 479,547 681,547 681,913 479,913"/>
</g>
<g id="edge14" class="edge"><title>person&#45;&gt;calendar</title>
<path style="fill:none;stroke:black;" d="M567,543C562,480 559,415 556,374"/>
<polygon style="fill:black;stroke:black;" points="553,374 555,364 559,374 553,374"/>
</g>
<g id="edge8" class="edge"><title>person&#45;&gt;person</title>
<path style="fill:none;stroke:black;" d="M689,787C700,775 707,757 707,730 707,708 703,693 695,681"/>
<polygon style="fill:black;stroke:black;" points="692,683 689,673 698,679 692,683"/>
</g>
<g id="edge12" class="edge"><title>person&#45;&gt;person</title>
<path style="fill:none;stroke:black;" d="M689,863C710,847 725,803 725,730 725,666 713,624 696,604"/>
<polygon style="fill:black;stroke:black;" points="694,607 689,597 699,602 694,607"/>
</g>
<g id="node11" class="node"><title>fake_language_173</title>
<ellipse cx="293" cy="899" rx="27" ry="18" style="fill:none;stroke:red;"/>
<text text-anchor="middle" style="font-size:6.00;" x="293" y="901">language</text>
</g>
<g id="edge10" class="edge"><title>person&#45;&gt;fake_language_173</title>
<path style="fill:none;stroke:black;" d="M471,794C418,825 357,861 323,882"/>
<polygon style="fill:black;stroke:black;" points="324,885 314,887 321,879 324,885"/>
</g>
<g id="node15" class="node"><title>fake_country_177</title>
<ellipse cx="899" cy="833" rx="27" ry="18" style="fill:none;stroke:red;"/>
<text text-anchor="middle" style="font-size:6.00;" x="899" y="835">country</text>
</g>
<g id="edge16" class="edge"><title>person&#45;&gt;fake_country_177</title>
<path style="fill:none;stroke:black;" d="M689,765C751,785 824,808 865,822"/>
<polygon style="fill:black;stroke:black;" points="866,819 875,825 864,825 866,819"/>
</g>
<g id="node17" class="node"><title>fake_libraryfilealias_179</title>
<ellipse cx="486" cy="1054" rx="29" ry="18" style="fill:none;stroke:red;"/>
<text text-anchor="middle" style="font-size:6.00;" x="486" y="1056">libraryfilealias</text>
</g>
<g id="edge18" class="edge"><title>person&#45;&gt;fake_libraryfilealias_179</title>
<path style="fill:none;stroke:black;" d="M526,917C514,960 501,1001 494,1026"/>
<polygon style="fill:black;stroke:black;" points="497,1027 491,1036 491,1025 497,1027"/>
</g>
<g id="node19" class="node"><title>fake_libraryfilealias_181</title>
<ellipse cx="734" cy="1031" rx="29" ry="18" style="fill:none;stroke:red;"/>
<text text-anchor="middle" style="font-size:6.00;" x="734" y="1033">libraryfilealias</text>
</g>
<g id="edge20" class="edge"><title>person&#45;&gt;fake_libraryfilealias_181</title>
<path style="fill:none;stroke:black;" d="M676,917C693,952 710,983 721,1005"/>
<polygon style="fill:black;stroke:black;" points="724,1003 725,1014 718,1006 724,1003"/>
</g>
<g id="node5" class="node"><title>product</title>
<polygon style="fill:#c1cdcc;stroke:#c1cdcc;" points="680,423 680,57 872,57 872,423 680,423"/>
<polygon style="fill:white;stroke:white;" points="683,72 683,60 869,60 869,72 683,72"/>
<text text-anchor="middle" style="font-size:6.00;" x="776" y="68">product</text>
<polygon style="fill:none;stroke:black;" points="683,72 683,60 869,60 869,72 683,72"/>
<text text-anchor="middle" style="font-size:6.00;" x="688" y="81">id</text>
<text text-anchor="middle" style="font-size:6.00;" x="753" y="81">serial</text>
<text text-anchor="middle" style="font-size:6.00;" x="802" y="81"> PRIMARY KEY </text>
<text text-anchor="middle" style="font-size:6.00;" x="694" y="93">project</text>
<text text-anchor="middle" style="font-size:6.00;" x="755" y="93">integer</text>
<text text-anchor="middle" style="font-size:6.00;" x="809" y="93"> REFERENCES project </text>
<text text-anchor="middle" style="font-size:6.00;" x="694" y="105">owner</text>
<text text-anchor="middle" style="font-size:6.00;" x="755" y="105">integer</text>
<text text-anchor="middle" style="font-size:6.00;" x="809" y="105"> REFERENCES person </text>
<text text-anchor="middle" style="font-size:6.00;" x="693" y="117">name</text>
<text text-anchor="middle" style="font-size:6.00;" x="752" y="117">text</text>
<text text-anchor="middle" style="font-size:6.00;" x="793" y="117"> UNIQUE </text>
<text text-anchor="middle" style="font-size:6.00;" x="701" y="129">displayname</text>
<text text-anchor="middle" style="font-size:6.00;" x="752" y="129">text</text>
<text text-anchor="middle" style="font-size:6.00;" x="691" y="141">title</text>
<text text-anchor="middle" style="font-size:6.00;" x="752" y="141">text</text>
<text text-anchor="middle" style="font-size:6.00;" x="697" y="153">summary</text>
<text text-anchor="middle" style="font-size:6.00;" x="752" y="153">text</text>
<text text-anchor="middle" style="font-size:6.00;" x="700" y="165">description</text>
<text text-anchor="middle" style="font-size:6.00;" x="752" y="165">text</text>
<text text-anchor="middle" style="font-size:6.00;" x="700" y="177">datecreated</text>
<text text-anchor="middle" style="font-size:6.00;" x="760" y="177">timestamp</text>
<text text-anchor="middle" style="font-size:6.00;" x="702" y="189">homepageurl</text>
<text text-anchor="middle" style="font-size:6.00;" x="752" y="189">text</text>
<text text-anchor="middle" style="font-size:6.00;" x="703" y="201">screenshotsurl</text>
<text text-anchor="middle" style="font-size:6.00;" x="752" y="201">text</text>
<text text-anchor="middle" style="font-size:6.00;" x="695" y="213">wikiurl</text>
<text text-anchor="middle" style="font-size:6.00;" x="752" y="213">text</text>
<text text-anchor="middle" style="font-size:6.00;" x="693" y="225">listurl</text>
<text text-anchor="middle" style="font-size:6.00;" x="752" y="225">text</text>
<text text-anchor="middle" style="font-size:6.00;" x="708" y="237">programminglang</text>
<text text-anchor="middle" style="font-size:6.00;" x="752" y="237">text</text>
<text text-anchor="middle" style="font-size:6.00;" x="701" y="249">downloadurl</text>
<text text-anchor="middle" style="font-size:6.00;" x="752" y="249">text</text>
<text text-anchor="middle" style="font-size:6.00;" x="696" y="261">lastdoap</text>
<text text-anchor="middle" style="font-size:6.00;" x="752" y="261">text</text>
<text text-anchor="middle" style="font-size:6.00;" x="708" y="273">sourceforgeproject</text>
<text text-anchor="middle" style="font-size:6.00;" x="752" y="273">text</text>
<text text-anchor="middle" style="font-size:6.00;" x="706" y="285">freshmeatproject</text>
<text text-anchor="middle" style="font-size:6.00;" x="752" y="285">text</text>
<text text-anchor="middle" style="font-size:6.00;" x="697" y="297">reviewed</text>
<text text-anchor="middle" style="font-size:6.00;" x="757" y="297">boolean</text>
<text text-anchor="middle" style="font-size:6.00;" x="693" y="309">active</text>
<text text-anchor="middle" style="font-size:6.00;" x="757" y="309">boolean</text>
<text text-anchor="middle" style="font-size:6.00;" x="689" y="321">fti</text>
<text text-anchor="middle" style="font-size:6.00;" x="757" y="321">tsvector</text>
<text text-anchor="middle" style="font-size:6.00;" x="700" y="333">autoupdate</text>
<text text-anchor="middle" style="font-size:6.00;" x="757" y="333">boolean</text>
<text text-anchor="middle" style="font-size:6.00;" x="706" y="345">translationgroup</text>
<text text-anchor="middle" style="font-size:6.00;" x="755" y="345">integer</text>
<text text-anchor="middle" style="font-size:6.00;" x="821" y="345"> REFERENCES translationgroup </text>
<text text-anchor="middle" style="font-size:6.00;" x="712" y="357">translationpermission</text>
<text text-anchor="middle" style="font-size:6.00;" x="755" y="357">integer</text>
<text text-anchor="middle" style="font-size:6.00;" x="699" y="369">releaseroot</text>
<text text-anchor="middle" style="font-size:6.00;" x="752" y="369">text</text>
<text text-anchor="middle" style="font-size:6.00;" x="696" y="381">calendar</text>
<text text-anchor="middle" style="font-size:6.00;" x="755" y="381">integer</text>
<text text-anchor="middle" style="font-size:6.00;" x="823" y="381"> REFERENCES calendar UNIQUE </text>
<text text-anchor="middle" style="font-size:6.00;" x="704" y="393">official_rosetta</text>
<text text-anchor="middle" style="font-size:6.00;" x="757" y="393">boolean</text>
<text text-anchor="middle" style="font-size:6.00;" x="705" y="405">official_malone</text>
<text text-anchor="middle" style="font-size:6.00;" x="757" y="405">boolean</text>
<text text-anchor="middle" style="font-size:6.00;" x="700" y="417">bugcontact</text>
<text text-anchor="middle" style="font-size:6.00;" x="755" y="417">integer</text>
<text text-anchor="middle" style="font-size:6.00;" x="809" y="417"> REFERENCES person </text>
<polygon style="fill:none;stroke:black;" points="680,423 680,57 872,57 872,423 680,423"/>
</g>
<g id="edge28" class="edge"><title>product&#45;&gt;calendar</title>
<path style="fill:none;stroke:black;" d="M672,284C655,291 639,298 623,304"/>
<polygon style="fill:black;stroke:black;" points="625,307 614,308 622,301 625,307"/>
</g>
<g id="edge24" class="edge"><title>product&#45;&gt;person</title>
<path style="fill:none;stroke:black;" d="M708,427C694,462 680,498 666,534"/>
<polygon style="fill:black;stroke:black;" points="669,535 662,543 663,532 669,535"/>
</g>
<g id="edge30" class="edge"><title>product&#45;&gt;person</title>
<path style="fill:none;stroke:black;" d="M695,427C681,462 667,498 653,534"/>
<polygon style="fill:black;stroke:black;" points="656,535 649,543 650,532 656,535"/>
</g>
<g id="node6" class="node"><title>project</title>
<polygon style="fill:#c1cdcc;stroke:#c1cdcc;" points="192,426 192,180 384,180 384,426 192,426"/>
<polygon style="fill:white;stroke:white;" points="195,195 195,183 381,183 381,195 195,195"/>
<text text-anchor="middle" style="font-size:6.00;" x="288" y="191">project</text>
<polygon style="fill:none;stroke:black;" points="195,195 195,183 381,183 381,195 195,195"/>
<text text-anchor="middle" style="font-size:6.00;" x="200" y="204">id</text>
<text text-anchor="middle" style="font-size:6.00;" x="265" y="204">serial</text>
<text text-anchor="middle" style="font-size:6.00;" x="314" y="204"> PRIMARY KEY </text>
<text text-anchor="middle" style="font-size:6.00;" x="206" y="216">owner</text>
<text text-anchor="middle" style="font-size:6.00;" x="267" y="216">integer</text>
<text text-anchor="middle" style="font-size:6.00;" x="321" y="216"> REFERENCES person </text>
<text text-anchor="middle" style="font-size:6.00;" x="205" y="228">name</text>
<text text-anchor="middle" style="font-size:6.00;" x="264" y="228">text</text>
<text text-anchor="middle" style="font-size:6.00;" x="305" y="228"> UNIQUE </text>
<text text-anchor="middle" style="font-size:6.00;" x="213" y="240">displayname</text>
<text text-anchor="middle" style="font-size:6.00;" x="264" y="240">text</text>
<text text-anchor="middle" style="font-size:6.00;" x="203" y="252">title</text>
<text text-anchor="middle" style="font-size:6.00;" x="264" y="252">text</text>
<text text-anchor="middle" style="font-size:6.00;" x="209" y="264">summary</text>
<text text-anchor="middle" style="font-size:6.00;" x="264" y="264">text</text>
<text text-anchor="middle" style="font-size:6.00;" x="212" y="276">description</text>
<text text-anchor="middle" style="font-size:6.00;" x="264" y="276">text</text>
<text text-anchor="middle" style="font-size:6.00;" x="212" y="288">datecreated</text>
<text text-anchor="middle" style="font-size:6.00;" x="272" y="288">timestamp</text>
<text text-anchor="middle" style="font-size:6.00;" x="214" y="300">homepageurl</text>
<text text-anchor="middle" style="font-size:6.00;" x="264" y="300">text</text>
<text text-anchor="middle" style="font-size:6.00;" x="207" y="312">wikiurl</text>
<text text-anchor="middle" style="font-size:6.00;" x="264" y="312">text</text>
<text text-anchor="middle" style="font-size:6.00;" x="208" y="324">lastdoap</text>
<text text-anchor="middle" style="font-size:6.00;" x="264" y="324">text</text>
<text text-anchor="middle" style="font-size:6.00;" x="220" y="336">sourceforgeproject</text>
<text text-anchor="middle" style="font-size:6.00;" x="264" y="336">text</text>
<text text-anchor="middle" style="font-size:6.00;" x="218" y="348">freshmeatproject</text>
<text text-anchor="middle" style="font-size:6.00;" x="264" y="348">text</text>
<text text-anchor="middle" style="font-size:6.00;" x="209" y="360">reviewed</text>
<text text-anchor="middle" style="font-size:6.00;" x="269" y="360">boolean</text>
<text text-anchor="middle" style="font-size:6.00;" x="205" y="372">active</text>
<text text-anchor="middle" style="font-size:6.00;" x="269" y="372">boolean</text>
<text text-anchor="middle" style="font-size:6.00;" x="201" y="384">fti</text>
<text text-anchor="middle" style="font-size:6.00;" x="269" y="384">tsvector</text>
<text text-anchor="middle" style="font-size:6.00;" x="218" y="396">translationgroup</text>
<text text-anchor="middle" style="font-size:6.00;" x="267" y="396">integer</text>
<text text-anchor="middle" style="font-size:6.00;" x="333" y="396"> REFERENCES translationgroup </text>
<text text-anchor="middle" style="font-size:6.00;" x="224" y="408">translationpermission</text>
<text text-anchor="middle" style="font-size:6.00;" x="267" y="408">integer</text>
<text text-anchor="middle" style="font-size:6.00;" x="208" y="420">calendar</text>
<text text-anchor="middle" style="font-size:6.00;" x="267" y="420">integer</text>
<text text-anchor="middle" style="font-size:6.00;" x="335" y="420"> REFERENCES calendar UNIQUE </text>
<polygon style="fill:none;stroke:black;" points="192,426 192,180 384,180 384,426 192,426"/>
</g>
<g id="edge22" class="edge"><title>product&#45;&gt;project</title>
<path style="fill:none;stroke:black;" d="M672,253C593,264 484,278 402,289"/>
<polygon style="fill:black;stroke:black;" points="402,292 392,290 402,286 402,292"/>
</g>
<g id="node23" class="node"><title>fake_translationgroup_235</title>
<ellipse cx="1070" cy="86" rx="32" ry="18" style="fill:none;stroke:red;"/>
<text text-anchor="middle" style="font-size:6.00;" x="1070" y="88">translationgroup</text>
</g>
<g id="edge26" class="edge"><title>product&#45;&gt;fake_translationgroup_235</title>
<path style="fill:none;stroke:black;" d="M880,185C935,156 1000,123 1037,103"/>
<polygon style="fill:black;stroke:black;" points="1036,100 1046,98 1039,106 1036,100"/>
</g>
<g id="edge36" class="edge"><title>project&#45;&gt;calendar</title>
<path style="fill:none;stroke:black;" d="M392,315C422,319 454,322 482,325"/>
<polygon style="fill:black;stroke:black;" points="482,322 492,326 482,328 482,322"/>
</g>
<g id="edge32" class="edge"><title>project&#45;&gt;person</title>
<path style="fill:none;stroke:black;" d="M375,430C403,471 435,518 465,562"/>
<polygon style="fill:black;stroke:black;" points="468,560 471,570 462,564 468,560"/>
</g>
<g id="node28" class="node"><title>fake_translationgroup_255</title>
<ellipse cx="38" cy="178" rx="32" ry="18" style="fill:none;stroke:red;"/>
<text text-anchor="middle" style="font-size:6.00;" x="38" y="180">translationgroup</text>
</g>
<g id="edge34" class="edge"><title>project&#45;&gt;fake_translationgroup_255</title>
<path style="fill:none;stroke:black;" d="M184,251C144,231 100,209 71,195"/>
<polygon style="fill:black;stroke:black;" points="69,198 62,190 72,192 69,198"/>
</g>
</g>
</svg>
