<?xml version="1.0" encoding="UTF-8" standalone="no"?>
<!DOCTYPE svg PUBLIC "-//W3C//DTD SVG 1.0//EN"
 "http://www.w3.org/TR/2001/REC-SVG-20010904/DTD/svg10.dtd">
<!-- Generated by fdp version 2.2 (Sat Feb  5 01:37:52 UTC 2005)
     For user: (stub) Stuart Bishop,,,   Title: g    Pages: 1 -->
<svg width="668px" height="535px"
 viewBox = "-1 -1 667 534"
 xmlns="http://www.w3.org/2000/svg">
<g id="graph0" class="graph" transform = "scale(0.597032)"
 style="font-family:Times-Roman;font-size:14.00;">
<title>g</title>
<text text-anchor="middle" style="font-size:22.00;" x="555" y="876">Calendar</text>
<g id="node1" class="node"><title>calendar</title>
<polygon style="fill:#c1cdcc;stroke:#c1cdcc;" points="520,614 520,560 628,560 628,614 520,614"/>
<polygon style="fill:white;stroke:white;" points="523,575 523,563 625,563 625,575 523,575"/>
<text text-anchor="middle" style="font-size:6.00;" x="574" y="571">calendar</text>
<polygon style="fill:none;stroke:black;" points="523,575 523,563 625,563 625,575 523,575"/>
<text text-anchor="middle" style="font-size:6.00;" x="528" y="584">id</text>
<text text-anchor="middle" style="font-size:6.00;" x="560" y="584">serial</text>
<text text-anchor="middle" style="font-size:6.00;" x="600" y="584"> PRIMARY KEY </text>
<text text-anchor="middle" style="font-size:6.00;" x="531" y="596">title</text>
<text text-anchor="middle" style="font-size:6.00;" x="559" y="596">text</text>
<text text-anchor="middle" style="font-size:6.00;" x="536" y="608">revision</text>
<text text-anchor="middle" style="font-size:6.00;" x="562" y="608">integer</text>
<polygon style="fill:none;stroke:black;" points="520,614 520,560 628,560 628,614 520,614"/>
</g>
<g id="node2" class="node"><title>calendarevent</title>
<polygon style="fill:#c1cdcc;stroke:#c1cdcc;" points="715,757 715,643 887,643 887,757 715,757"/>
<polygon style="fill:white;stroke:white;" points="718,658 718,646 884,646 884,658 718,658"/>
<text text-anchor="middle" style="font-size:6.00;" x="801" y="654">calendarevent</text>
<polygon style="fill:none;stroke:black;" points="718,658 718,646 884,646 884,658 718,658"/>
<text text-anchor="middle" style="font-size:6.00;" x="723" y="667">id</text>
<text text-anchor="middle" style="font-size:6.00;" x="762" y="667">serial</text>
<text text-anchor="middle" style="font-size:6.00;" x="841" y="667"> PRIMARY KEY </text>
<text text-anchor="middle" style="font-size:6.00;" x="725" y="679">uid</text>
<text text-anchor="middle" style="font-size:6.00;" x="784" y="679">character varying(255)</text>
<text text-anchor="middle" style="font-size:6.00;" x="832" y="679"> UNIQUE </text>
<text text-anchor="middle" style="font-size:6.00;" x="731" y="691">calendar</text>
<text text-anchor="middle" style="font-size:6.00;" x="764" y="691">integer</text>
<text text-anchor="middle" style="font-size:6.00;" x="850" y="691"> REFERENCES calendar </text>
<text text-anchor="middle" style="font-size:6.00;" x="729" y="703">dtstart</text>
<text text-anchor="middle" style="font-size:6.00;" x="769" y="703">timestamp</text>
<text text-anchor="middle" style="font-size:6.00;" x="731" y="715">duration</text>
<text text-anchor="middle" style="font-size:6.00;" x="765" y="715">interval</text>
<text text-anchor="middle" style="font-size:6.00;" x="726" y="727">title</text>
<text text-anchor="middle" style="font-size:6.00;" x="761" y="727">text</text>
<text text-anchor="middle" style="font-size:6.00;" x="735" y="739">description</text>
<text text-anchor="middle" style="font-size:6.00;" x="761" y="739">text</text>
<text text-anchor="middle" style="font-size:6.00;" x="731" y="751">location</text>
<text text-anchor="middle" style="font-size:6.00;" x="761" y="751">text</text>
<polygon style="fill:none;stroke:black;" points="715,757 715,643 887,643 887,757 715,757"/>
</g>
<g id="edge2" class="edge"><title>calendarevent&#45;&gt;calendar</title>
<path style="fill:none;stroke:black;" d="M707,653C686,643 665,632 645,623"/>
<polygon style="fill:black;stroke:black;" points="643,626 636,618 646,620 643,626"/>
</g>
<g id="node3" class="node"><title>calendarsubscription</title>
<polygon style="fill:#c1cdcc;stroke:#c1cdcc;" points="484,847 484,781 630,781 630,847 484,847"/>
<polygon style="fill:white;stroke:white;" points="487,796 487,784 627,784 627,796 487,796"/>
<text text-anchor="middle" style="font-size:6.00;" x="557" y="792">calendarsubscription</text>
<polygon style="fill:none;stroke:black;" points="487,796 487,784 627,784 627,796 487,796"/>
<text text-anchor="middle" style="font-size:6.00;" x="492" y="805">id</text>
<text text-anchor="middle" style="font-size:6.00;" x="520" y="805">serial</text>
<text text-anchor="middle" style="font-size:6.00;" x="560" y="805"> PRIMARY KEY </text>
<text text-anchor="middle" style="font-size:6.00;" x="498" y="817">subject</text>
<text text-anchor="middle" style="font-size:6.00;" x="522" y="817">integer</text>
<text text-anchor="middle" style="font-size:6.00;" x="581" y="817"> REFERENCES calendar UNIQUE </text>
<text text-anchor="middle" style="font-size:6.00;" x="498" y="829">object</text>
<text text-anchor="middle" style="font-size:6.00;" x="522" y="829">integer</text>
<text text-anchor="middle" style="font-size:6.00;" x="581" y="829"> REFERENCES calendar UNIQUE </text>
<text text-anchor="middle" style="font-size:6.00;" x="498" y="841">colour</text>
<text text-anchor="middle" style="font-size:6.00;" x="519" y="841">text</text>
<polygon style="fill:none;stroke:black;" points="484,847 484,781 630,781 630,847 484,847"/>
</g>
<g id="edge4" class="edge"><title>calendarsubscription&#45;&gt;calendar</title>
<path style="fill:none;stroke:black;" d="M555,777C556,735 560,671 566,628"/>
<polygon style="fill:black;stroke:black;" points="563,628 567,618 569,628 563,628"/>
</g>
<g id="edge6" class="edge"><title>calendarsubscription&#45;&gt;calendar</title>
<path style="fill:none;stroke:black;" d="M564,777C570,736 574,671 576,628"/>
<polygon style="fill:black;stroke:black;" points="573,628 576,618 580,628 573,628"/>
</g>
<g id="node4" class="node"><title>person</title>
<polygon style="fill:#c1cdcc;stroke:#c1cdcc;" points="345,388 345,166 547,166 547,388 345,388"/>
<polygon style="fill:white;stroke:white;" points="348,181 348,169 544,169 544,181 348,181"/>
<text text-anchor="middle" style="font-size:6.00;" x="446" y="177">person</text>
<polygon style="fill:none;stroke:black;" points="348,181 348,169 544,169 544,181 348,181"/>
<text text-anchor="middle" style="font-size:6.00;" x="353" y="190">id</text>
<text text-anchor="middle" style="font-size:6.00;" x="428" y="190">serial</text>
<text text-anchor="middle" style="font-size:6.00;" x="477" y="190"> PRIMARY KEY </text>
<text text-anchor="middle" style="font-size:6.00;" x="366" y="202">displayname</text>
<text text-anchor="middle" style="font-size:6.00;" x="427" y="202">text</text>
<text text-anchor="middle" style="font-size:6.00;" x="364" y="214">givenname</text>
<text text-anchor="middle" style="font-size:6.00;" x="427" y="214">text</text>
<text text-anchor="middle" style="font-size:6.00;" x="365" y="226">familyname</text>
<text text-anchor="middle" style="font-size:6.00;" x="427" y="226">text</text>
<text text-anchor="middle" style="font-size:6.00;" x="363" y="238">password</text>
<text text-anchor="middle" style="font-size:6.00;" x="427" y="238">text</text>
<text text-anchor="middle" style="font-size:6.00;" x="364" y="250">teamowner</text>
<text text-anchor="middle" style="font-size:6.00;" x="430" y="250">integer</text>
<text text-anchor="middle" style="font-size:6.00;" x="484" y="250"> REFERENCES person </text>
<text text-anchor="middle" style="font-size:6.00;" x="370" y="262">teamdescription</text>
<text text-anchor="middle" style="font-size:6.00;" x="427" y="262">text</text>
<text text-anchor="middle" style="font-size:6.00;" x="358" y="274">name</text>
<text text-anchor="middle" style="font-size:6.00;" x="427" y="274">text</text>
<text text-anchor="middle" style="font-size:6.00;" x="362" y="286">language</text>
<text text-anchor="middle" style="font-size:6.00;" x="430" y="286">integer</text>
<text text-anchor="middle" style="font-size:6.00;" x="487" y="286"> REFERENCES language </text>
<text text-anchor="middle" style="font-size:6.00;" x="354" y="298">fti</text>
<text text-anchor="middle" style="font-size:6.00;" x="432" y="298">tsvector</text>
<text text-anchor="middle" style="font-size:6.00;" x="382" y="310">defaultmembershipperiod</text>
<text text-anchor="middle" style="font-size:6.00;" x="430" y="310">integer</text>
<text text-anchor="middle" style="font-size:6.00;" x="377" y="322">defaultrenewalperiod</text>
<text text-anchor="middle" style="font-size:6.00;" x="430" y="322">integer</text>
<text text-anchor="middle" style="font-size:6.00;" x="373" y="334">subscriptionpolicy</text>
<text text-anchor="middle" style="font-size:6.00;" x="430" y="334">integer</text>
<text text-anchor="middle" style="font-size:6.00;" x="360" y="346">merged</text>
<text text-anchor="middle" style="font-size:6.00;" x="430" y="346">integer</text>
<text text-anchor="middle" style="font-size:6.00;" x="484" y="346"> REFERENCES person </text>
<text text-anchor="middle" style="font-size:6.00;" x="365" y="358">datecreated</text>
<text text-anchor="middle" style="font-size:6.00;" x="435" y="358">timestamp</text>
<text text-anchor="middle" style="font-size:6.00;" x="361" y="370">calendar</text>
<text text-anchor="middle" style="font-size:6.00;" x="430" y="370">integer</text>
<text text-anchor="middle" style="font-size:6.00;" x="498" y="370"> REFERENCES calendar UNIQUE </text>
<text text-anchor="middle" style="font-size:6.00;" x="362" y="382">timezone</text>
<text text-anchor="middle" style="font-size:6.00;" x="427" y="382">text</text>
<polygon style="fill:none;stroke:black;" points="345,388 345,166 547,166 547,388 345,388"/>
</g>
<g id="edge14" class="edge"><title>person&#45;&gt;calendar</title>
<path style="fill:none;stroke:black;" d="M494,392C516,446 541,508 557,547"/>
<polygon style="fill:black;stroke:black;" points="560,545 561,556 554,548 560,545"/>
</g>
<g id="edge8" class="edge"><title>person&#45;&gt;person</title>
<path style="fill:none;stroke:black;" d="M555,312C566,305 573,293 573,277 573,265 569,256 563,249"/>
<polygon style="fill:black;stroke:black;" points="560,251 555,242 565,246 560,251"/>
</g>
<g id="edge12" class="edge"><title>person&#45;&gt;person</title>
<path style="fill:none;stroke:black;" d="M555,358C576,349 591,322 591,277 591,239 580,213 564,201"/>
<polygon style="fill:black;stroke:black;" points="562,204 555,196 565,198 562,204"/>
</g>
<g id="node11" class="node"><title>fake_language_164</title>
<ellipse cx="363" cy="29" rx="27" ry="18" style="fill:none;stroke:red;"/>
<text text-anchor="middle" style="font-size:6.00;" x="363" y="31">language</text>
</g>
<g id="edge10" class="edge"><title>person&#45;&gt;fake_language_164</title>
<path style="fill:none;stroke:black;" d="M407,162C395,122 381,82 372,57"/>
<polygon style="fill:black;stroke:black;" points="369,58 369,47 375,56 369,58"/>
</g>
<g id="node5" class="node"><title>product</title>
<polygon style="fill:#c1cdcc;stroke:#c1cdcc;" points="662,616 662,286 854,286 854,616 662,616"/>
<polygon style="fill:white;stroke:white;" points="665,301 665,289 851,289 851,301 665,301"/>
<text text-anchor="middle" style="font-size:6.00;" x="758" y="297">product</text>
<polygon style="fill:none;stroke:black;" points="665,301 665,289 851,289 851,301 665,301"/>
<text text-anchor="middle" style="font-size:6.00;" x="670" y="310">id</text>
<text text-anchor="middle" style="font-size:6.00;" x="735" y="310">serial</text>
<text text-anchor="middle" style="font-size:6.00;" x="784" y="310"> PRIMARY KEY </text>
<text text-anchor="middle" style="font-size:6.00;" x="676" y="322">project</text>
<text text-anchor="middle" style="font-size:6.00;" x="737" y="322">integer</text>
<text text-anchor="middle" style="font-size:6.00;" x="791" y="322"> REFERENCES project </text>
<text text-anchor="middle" style="font-size:6.00;" x="676" y="334">owner</text>
<text text-anchor="middle" style="font-size:6.00;" x="737" y="334">integer</text>
<text text-anchor="middle" style="font-size:6.00;" x="791" y="334"> REFERENCES person </text>
<text text-anchor="middle" style="font-size:6.00;" x="675" y="346">name</text>
<text text-anchor="middle" style="font-size:6.00;" x="734" y="346">text</text>
<text text-anchor="middle" style="font-size:6.00;" x="775" y="346"> UNIQUE </text>
<text text-anchor="middle" style="font-size:6.00;" x="683" y="358">displayname</text>
<text text-anchor="middle" style="font-size:6.00;" x="734" y="358">text</text>
<text text-anchor="middle" style="font-size:6.00;" x="673" y="370">title</text>
<text text-anchor="middle" style="font-size:6.00;" x="734" y="370">text</text>
<text text-anchor="middle" style="font-size:6.00;" x="679" y="382">summary</text>
<text text-anchor="middle" style="font-size:6.00;" x="734" y="382">text</text>
<text text-anchor="middle" style="font-size:6.00;" x="682" y="394">description</text>
<text text-anchor="middle" style="font-size:6.00;" x="734" y="394">text</text>
<text text-anchor="middle" style="font-size:6.00;" x="682" y="406">datecreated</text>
<text text-anchor="middle" style="font-size:6.00;" x="742" y="406">timestamp</text>
<text text-anchor="middle" style="font-size:6.00;" x="684" y="418">homepageurl</text>
<text text-anchor="middle" style="font-size:6.00;" x="734" y="418">text</text>
<text text-anchor="middle" style="font-size:6.00;" x="685" y="430">screenshotsurl</text>
<text text-anchor="middle" style="font-size:6.00;" x="734" y="430">text</text>
<text text-anchor="middle" style="font-size:6.00;" x="677" y="442">wikiurl</text>
<text text-anchor="middle" style="font-size:6.00;" x="734" y="442">text</text>
<text text-anchor="middle" style="font-size:6.00;" x="675" y="454">listurl</text>
<text text-anchor="middle" style="font-size:6.00;" x="734" y="454">text</text>
<text text-anchor="middle" style="font-size:6.00;" x="690" y="466">programminglang</text>
<text text-anchor="middle" style="font-size:6.00;" x="734" y="466">text</text>
<text text-anchor="middle" style="font-size:6.00;" x="684" y="478">downloadurl</text>
<text text-anchor="middle" style="font-size:6.00;" x="734" y="478">text</text>
<text text-anchor="middle" style="font-size:6.00;" x="678" y="490">lastdoap</text>
<text text-anchor="middle" style="font-size:6.00;" x="734" y="490">text</text>
<text text-anchor="middle" style="font-size:6.00;" x="690" y="502">sourceforgeproject</text>
<text text-anchor="middle" style="font-size:6.00;" x="734" y="502">text</text>
<text text-anchor="middle" style="font-size:6.00;" x="688" y="514">freshmeatproject</text>
<text text-anchor="middle" style="font-size:6.00;" x="734" y="514">text</text>
<text text-anchor="middle" style="font-size:6.00;" x="679" y="526">reviewed</text>
<text text-anchor="middle" style="font-size:6.00;" x="739" y="526">boolean</text>
<text text-anchor="middle" style="font-size:6.00;" x="675" y="538">active</text>
<text text-anchor="middle" style="font-size:6.00;" x="739" y="538">boolean</text>
<text text-anchor="middle" style="font-size:6.00;" x="671" y="550">fti</text>
<text text-anchor="middle" style="font-size:6.00;" x="739" y="550">tsvector</text>
<text text-anchor="middle" style="font-size:6.00;" x="682" y="562">autoupdate</text>
<text text-anchor="middle" style="font-size:6.00;" x="739" y="562">boolean</text>
<text text-anchor="middle" style="font-size:6.00;" x="688" y="574">translationgroup</text>
<text text-anchor="middle" style="font-size:6.00;" x="737" y="574">integer</text>
<text text-anchor="middle" style="font-size:6.00;" x="803" y="574"> REFERENCES translationgroup </text>
<text text-anchor="middle" style="font-size:6.00;" x="694" y="586">translationpermission</text>
<text text-anchor="middle" style="font-size:6.00;" x="737" y="586">integer</text>
<text text-anchor="middle" style="font-size:6.00;" x="681" y="598">releaseroot</text>
<text text-anchor="middle" style="font-size:6.00;" x="734" y="598">text</text>
<text text-anchor="middle" style="font-size:6.00;" x="678" y="610">calendar</text>
<text text-anchor="middle" style="font-size:6.00;" x="737" y="610">integer</text>
<text text-anchor="middle" style="font-size:6.00;" x="805" y="610"> REFERENCES calendar UNIQUE </text>
<polygon style="fill:none;stroke:black;" points="662,616 662,286 854,286 854,616 662,616"/>
</g>
<g id="edge22" class="edge"><title>product&#45;&gt;calendar</title>
<path style="fill:none;stroke:black;" d="M654,528C644,536 634,543 624,550"/>
<polygon style="fill:black;stroke:black;" points="626,553 616,556 622,547 626,553"/>
</g>
<g id="edge18" class="edge"><title>product&#45;&gt;person</title>
<path style="fill:none;stroke:black;" d="M654,393C625,377 594,360 564,343"/>
<polygon style="fill:black;stroke:black;" points="562,346 555,338 565,340 562,346"/>
</g>
<g id="node6" class="node"><title>project</title>
<polygon style="fill:#c1cdcc;stroke:#c1cdcc;" points="199,720 199,474 391,474 391,720 199,720"/>
<polygon style="fill:white;stroke:white;" points="202,489 202,477 388,477 388,489 202,489"/>
<text text-anchor="middle" style="font-size:6.00;" x="295" y="485">project</text>
<polygon style="fill:none;stroke:black;" points="202,489 202,477 388,477 388,489 202,489"/>
<text text-anchor="middle" style="font-size:6.00;" x="207" y="498">id</text>
<text text-anchor="middle" style="font-size:6.00;" x="272" y="498">serial</text>
<text text-anchor="middle" style="font-size:6.00;" x="321" y="498"> PRIMARY KEY </text>
<text text-anchor="middle" style="font-size:6.00;" x="213" y="510">owner</text>
<text text-anchor="middle" style="font-size:6.00;" x="274" y="510">integer</text>
<text text-anchor="middle" style="font-size:6.00;" x="328" y="510"> REFERENCES person </text>
<text text-anchor="middle" style="font-size:6.00;" x="212" y="522">name</text>
<text text-anchor="middle" style="font-size:6.00;" x="271" y="522">text</text>
<text text-anchor="middle" style="font-size:6.00;" x="312" y="522"> UNIQUE </text>
<text text-anchor="middle" style="font-size:6.00;" x="220" y="534">displayname</text>
<text text-anchor="middle" style="font-size:6.00;" x="271" y="534">text</text>
<text text-anchor="middle" style="font-size:6.00;" x="210" y="546">title</text>
<text text-anchor="middle" style="font-size:6.00;" x="271" y="546">text</text>
<text text-anchor="middle" style="font-size:6.00;" x="216" y="558">summary</text>
<text text-anchor="middle" style="font-size:6.00;" x="271" y="558">text</text>
<text text-anchor="middle" style="font-size:6.00;" x="219" y="570">description</text>
<text text-anchor="middle" style="font-size:6.00;" x="271" y="570">text</text>
<text text-anchor="middle" style="font-size:6.00;" x="219" y="582">datecreated</text>
<text text-anchor="middle" style="font-size:6.00;" x="279" y="582">timestamp</text>
<text text-anchor="middle" style="font-size:6.00;" x="221" y="594">homepageurl</text>
<text text-anchor="middle" style="font-size:6.00;" x="271" y="594">text</text>
<text text-anchor="middle" style="font-size:6.00;" x="214" y="606">wikiurl</text>
<text text-anchor="middle" style="font-size:6.00;" x="271" y="606">text</text>
<text text-anchor="middle" style="font-size:6.00;" x="215" y="618">lastdoap</text>
<text text-anchor="middle" style="font-size:6.00;" x="271" y="618">text</text>
<text text-anchor="middle" style="font-size:6.00;" x="227" y="630">sourceforgeproject</text>
<text text-anchor="middle" style="font-size:6.00;" x="271" y="630">text</text>
<text text-anchor="middle" style="font-size:6.00;" x="225" y="642">freshmeatproject</text>
<text text-anchor="middle" style="font-size:6.00;" x="271" y="642">text</text>
<text text-anchor="middle" style="font-size:6.00;" x="216" y="654">reviewed</text>
<text text-anchor="middle" style="font-size:6.00;" x="276" y="654">boolean</text>
<text text-anchor="middle" style="font-size:6.00;" x="212" y="666">active</text>
<text text-anchor="middle" style="font-size:6.00;" x="276" y="666">boolean</text>
<text text-anchor="middle" style="font-size:6.00;" x="208" y="678">fti</text>
<text text-anchor="middle" style="font-size:6.00;" x="276" y="678">tsvector</text>
<text text-anchor="middle" style="font-size:6.00;" x="225" y="690">translationgroup</text>
<text text-anchor="middle" style="font-size:6.00;" x="274" y="690">integer</text>
<text text-anchor="middle" style="font-size:6.00;" x="340" y="690"> REFERENCES translationgroup </text>
<text text-anchor="middle" style="font-size:6.00;" x="231" y="702">translationpermission</text>
<text text-anchor="middle" style="font-size:6.00;" x="274" y="702">integer</text>
<text text-anchor="middle" style="font-size:6.00;" x="215" y="714">calendar</text>
<text text-anchor="middle" style="font-size:6.00;" x="274" y="714">integer</text>
<text text-anchor="middle" style="font-size:6.00;" x="342" y="714"> REFERENCES calendar UNIQUE </text>
<polygon style="fill:none;stroke:black;" points="199,720 199,474 391,474 391,720 199,720"/>
</g>
<g id="edge16" class="edge"><title>product&#45;&gt;project</title>
<path style="fill:none;stroke:black;" d="M654,484C581,507 484,537 409,561"/>
<polygon style="fill:black;stroke:black;" points="410,564 399,564 408,558 410,564"/>
</g>
<g id="node17" class="node"><title>fake_translationgroup_219</title>
<ellipse cx="1072" cy="497" rx="32" ry="18" style="fill:none;stroke:red;"/>
<text text-anchor="middle" style="font-size:6.00;" x="1072" y="499">translationgroup</text>
</g>
<g id="edge20" class="edge"><title>product&#45;&gt;fake_translationgroup_219</title>
<path style="fill:none;stroke:black;" d="M862,466C920,475 989,484 1031,491"/>
<polygon style="fill:black;stroke:black;" points="1031,488 1041,492 1031,494 1031,488"/>
</g>
<g id="edge28" class="edge"><title>project&#45;&gt;calendar</title>
<path style="fill:none;stroke:black;" d="M399,593C433,592 471,590 502,589"/>
<polygon style="fill:black;stroke:black;" points="502,585 512,589 502,592 502,585"/>
</g>
<g id="edge24" class="edge"><title>project&#45;&gt;person</title>
<path style="fill:none;stroke:black;" d="M355,470C366,447 377,424 388,401"/>
<polygon style="fill:black;stroke:black;" points="385,400 392,392 391,403 385,400"/>
</g>
<g id="node21" class="node"><title>fake_translationgroup_239</title>
<ellipse cx="38" cy="694" rx="32" ry="18" style="fill:none;stroke:red;"/>
<text text-anchor="middle" style="font-size:6.00;" x="38" y="696">translationgroup</text>
</g>
<g id="edge26" class="edge"><title>project&#45;&gt;fake_translationgroup_239</title>
<path style="fill:none;stroke:black;" d="M191,636C150,651 105,669 75,680"/>
<polygon style="fill:black;stroke:black;" points="76,684 65,684 73,677 76,684"/>
</g>
</g>
</svg>
