<?xml version="1.0" encoding="UTF-8" standalone="no"?>
<!DOCTYPE svg PUBLIC "-//W3C//DTD SVG 1.0//EN"
 "http://www.w3.org/TR/2001/REC-SVG-20010904/DTD/svg10.dtd">
<!-- Generated by fdp version 2.2.1 (Tue Oct 11 01:38:21 UTC 2005)
     For user: (stub) Stuart Bishop,,,   Title: g    Pages: 1 -->
<svg width="749px" height="868px"
 viewBox = "-1 -1 748 867"
 xmlns="http://www.w3.org/2000/svg">
<g id="graph0" class="graph" style="font-family:Times-Roman;font-size:14.00;">
<title>g</title>
<text text-anchor="middle" style="font-size:22.00;" x="373" y="850">Calendar</text>
<g id="node1" class="node"><title>calendar</title>
<polygon style="fill:#c1cdcc;stroke:#c1cdcc;" points="320,600 320,538 454,538 454,600 320,600"/>
<polygon style="fill:white;stroke:white;" points="323,555 323,541 451,541 451,555 323,555"/>
<text text-anchor="middle" style="font-size:8.00;" x="387" y="551">calendar</text>
<polygon style="fill:none;stroke:black;" points="323,555 323,541 451,541 451,555 323,555"/>
<text text-anchor="middle" style="font-size:8.00;" x="329" y="566">id</text>
<text text-anchor="middle" style="font-size:8.00;" x="368" y="566">serial</text>
<text text-anchor="middle" style="font-size:8.00;" x="419" y="566"> PRIMARY KEY </text>
<text text-anchor="middle" style="font-size:8.00;" x="332" y="580">title</text>
<text text-anchor="middle" style="font-size:8.00;" x="366" y="580">text</text>
<text text-anchor="middle" style="font-size:8.00;" x="339" y="594">revision</text>
<text text-anchor="middle" style="font-size:8.00;" x="371" y="594">integer</text>
<polygon style="fill:none;stroke:black;" points="320,600 320,538 454,538 454,600 320,600"/>
</g>
<g id="node2" class="node"><title>calendarevent</title>
<polygon style="fill:#c1cdcc;stroke:#c1cdcc;" points="515,606 515,474 733,474 733,606 515,606"/>
<polygon style="fill:white;stroke:white;" points="518,491 518,477 730,477 730,491 518,491"/>
<text text-anchor="middle" style="font-size:8.00;" x="624" y="487">calendarevent</text>
<polygon style="fill:none;stroke:black;" points="518,491 518,477 730,477 730,491 518,491"/>
<text text-anchor="middle" style="font-size:8.00;" x="524" y="502">id</text>
<text text-anchor="middle" style="font-size:8.00;" x="572" y="502">serial</text>
<text text-anchor="middle" style="font-size:8.00;" x="673" y="502"> PRIMARY KEY </text>
<text text-anchor="middle" style="font-size:8.00;" x="526" y="516">uid</text>
<text text-anchor="middle" style="font-size:8.00;" x="600" y="516">character varying(255)</text>
<text text-anchor="middle" style="font-size:8.00;" x="661" y="516"> UNIQUE </text>
<text text-anchor="middle" style="font-size:8.00;" x="534" y="530">calendar</text>
<text text-anchor="middle" style="font-size:8.00;" x="575" y="530">integer</text>
<text text-anchor="middle" style="font-size:8.00;" x="686" y="530"> REFERENCES calendar </text>
<text text-anchor="middle" style="font-size:8.00;" x="531" y="544">dtstart</text>
<text text-anchor="middle" style="font-size:8.00;" x="581" y="544">timestamp</text>
<text text-anchor="middle" style="font-size:8.00;" x="534" y="558">duration</text>
<text text-anchor="middle" style="font-size:8.00;" x="576" y="558">interval</text>
<text text-anchor="middle" style="font-size:8.00;" x="527" y="572">title</text>
<text text-anchor="middle" style="font-size:8.00;" x="570" y="572">text</text>
<text text-anchor="middle" style="font-size:8.00;" x="538" y="586">description</text>
<text text-anchor="middle" style="font-size:8.00;" x="570" y="586">text</text>
<text text-anchor="middle" style="font-size:8.00;" x="534" y="600">location</text>
<text text-anchor="middle" style="font-size:8.00;" x="570" y="600">text</text>
<polygon style="fill:none;stroke:black;" points="515,606 515,474 733,474 733,606 515,606"/>
</g>
<g id="edge2" class="edge"><title>calendarevent&#45;&gt;calendar</title>
<path style="fill:none;stroke:black;" d="M507,554C495,556 484,557 472,559"/>
<polygon style="fill:black;stroke:black;" points="472,562 462,560 472,556 472,562"/>
</g>
<g id="node3" class="node"><title>calendarsubscription</title>
<polygon style="fill:#c1cdcc;stroke:#c1cdcc;" points="275,821 275,745 461,745 461,821 275,821"/>
<polygon style="fill:white;stroke:white;" points="278,762 278,748 458,748 458,762 278,762"/>
<text text-anchor="middle" style="font-size:8.00;" x="368" y="758">calendarsubscription</text>
<polygon style="fill:none;stroke:black;" points="278,762 278,748 458,748 458,762 278,762"/>
<text text-anchor="middle" style="font-size:8.00;" x="284" y="773">id</text>
<text text-anchor="middle" style="font-size:8.00;" x="318" y="773">serial</text>
<text text-anchor="middle" style="font-size:8.00;" x="369" y="773"> PRIMARY KEY </text>
<text text-anchor="middle" style="font-size:8.00;" x="292" y="787">subject</text>
<text text-anchor="middle" style="font-size:8.00;" x="321" y="787">integer</text>
<text text-anchor="middle" style="font-size:8.00;" x="398" y="787"> REFERENCES calendar UNIQUE </text>
<text text-anchor="middle" style="font-size:8.00;" x="290" y="801">object</text>
<text text-anchor="middle" style="font-size:8.00;" x="321" y="801">integer</text>
<text text-anchor="middle" style="font-size:8.00;" x="398" y="801"> REFERENCES calendar UNIQUE </text>
<text text-anchor="middle" style="font-size:8.00;" x="291" y="815">colour</text>
<text text-anchor="middle" style="font-size:8.00;" x="316" y="815">text</text>
<polygon style="fill:none;stroke:black;" points="275,821 275,745 461,745 461,821 275,821"/>
</g>
<g id="edge4" class="edge"><title>calendarsubscription&#45;&gt;calendar</title>
<path style="fill:none;stroke:black;" d="M372,741C375,704 379,652 383,614"/>
<polygon style="fill:black;stroke:black;" points="380,614 384,604 386,614 380,614"/>
</g>
<g id="edge6" class="edge"><title>calendarsubscription&#45;&gt;calendar</title>
<path style="fill:none;stroke:black;" d="M372,741C375,704 379,652 383,614"/>
<polygon style="fill:black;stroke:black;" points="380,614 384,604 386,614 380,614"/>
</g>
<g id="node4" class="node"><title>product</title>
<polygon style="fill:#c1cdcc;stroke:#c1cdcc;" points="237,509 237,83 483,83 483,509 237,509"/>
<polygon style="fill:white;stroke:white;" points="240,100 240,86 480,86 480,100 240,100"/>
<text text-anchor="middle" style="font-size:8.00;" x="360" y="96">product</text>
<polygon style="fill:none;stroke:black;" points="240,100 240,86 480,86 480,100 240,100"/>
<text text-anchor="middle" style="font-size:8.00;" x="246" y="111">id</text>
<text text-anchor="middle" style="font-size:8.00;" x="329" y="111">serial</text>
<text text-anchor="middle" style="font-size:8.00;" x="391" y="111"> PRIMARY KEY </text>
<text text-anchor="middle" style="font-size:8.00;" x="254" y="125">project</text>
<text text-anchor="middle" style="font-size:8.00;" x="332" y="125">integer</text>
<text text-anchor="middle" style="font-size:8.00;" x="401" y="125"> REFERENCES project </text>
<text text-anchor="middle" style="font-size:8.00;" x="253" y="139">owner</text>
<text text-anchor="middle" style="font-size:8.00;" x="332" y="139">integer</text>
<text text-anchor="middle" style="font-size:8.00;" x="401" y="139"> REFERENCES person </text>
<text text-anchor="middle" style="font-size:8.00;" x="252" y="153">name</text>
<text text-anchor="middle" style="font-size:8.00;" x="327" y="153">text</text>
<text text-anchor="middle" style="font-size:8.00;" x="379" y="153"> UNIQUE </text>
<text text-anchor="middle" style="font-size:8.00;" x="263" y="167">displayname</text>
<text text-anchor="middle" style="font-size:8.00;" x="327" y="167">text</text>
<text text-anchor="middle" style="font-size:8.00;" x="249" y="181">title</text>
<text text-anchor="middle" style="font-size:8.00;" x="327" y="181">text</text>
<text text-anchor="middle" style="font-size:8.00;" x="258" y="195">summary</text>
<text text-anchor="middle" style="font-size:8.00;" x="327" y="195">text</text>
<text text-anchor="middle" style="font-size:8.00;" x="260" y="209">description</text>
<text text-anchor="middle" style="font-size:8.00;" x="327" y="209">text</text>
<text text-anchor="middle" style="font-size:8.00;" x="261" y="223">datecreated</text>
<text text-anchor="middle" style="font-size:8.00;" x="338" y="223">timestamp</text>
<text text-anchor="middle" style="font-size:8.00;" x="264" y="237">homepageurl</text>
<text text-anchor="middle" style="font-size:8.00;" x="327" y="237">text</text>
<text text-anchor="middle" style="font-size:8.00;" x="266" y="251">screenshotsurl</text>
<text text-anchor="middle" style="font-size:8.00;" x="327" y="251">text</text>
<text text-anchor="middle" style="font-size:8.00;" x="255" y="265">wikiurl</text>
<text text-anchor="middle" style="font-size:8.00;" x="327" y="265">text</text>
<text text-anchor="middle" style="font-size:8.00;" x="252" y="279">listurl</text>
<text text-anchor="middle" style="font-size:8.00;" x="327" y="279">text</text>
<text text-anchor="middle" style="font-size:8.00;" x="272" y="293">programminglang</text>
<text text-anchor="middle" style="font-size:8.00;" x="327" y="293">text</text>
<text text-anchor="middle" style="font-size:8.00;" x="263" y="307">downloadurl</text>
<text text-anchor="middle" style="font-size:8.00;" x="327" y="307">text</text>
<text text-anchor="middle" style="font-size:8.00;" x="257" y="321">lastdoap</text>
<text text-anchor="middle" style="font-size:8.00;" x="327" y="321">text</text>
<text text-anchor="middle" style="font-size:8.00;" x="273" y="335">sourceforgeproject</text>
<text text-anchor="middle" style="font-size:8.00;" x="327" y="335">text</text>
<text text-anchor="middle" style="font-size:8.00;" x="270" y="349">freshmeatproject</text>
<text text-anchor="middle" style="font-size:8.00;" x="327" y="349">text</text>
<text text-anchor="middle" style="font-size:8.00;" x="258" y="363">reviewed</text>
<text text-anchor="middle" style="font-size:8.00;" x="334" y="363">boolean</text>
<text text-anchor="middle" style="font-size:8.00;" x="252" y="377">active</text>
<text text-anchor="middle" style="font-size:8.00;" x="334" y="377">boolean</text>
<text text-anchor="middle" style="font-size:8.00;" x="247" y="391">fti</text>
<text text-anchor="middle" style="font-size:8.00;" x="334" y="391">tsvector</text>
<text text-anchor="middle" style="font-size:8.00;" x="260" y="405">autoupdate</text>
<text text-anchor="middle" style="font-size:8.00;" x="334" y="405">boolean</text>
<text text-anchor="middle" style="font-size:8.00;" x="269" y="419">translationgroup</text>
<text text-anchor="middle" style="font-size:8.00;" x="332" y="419">integer</text>
<text text-anchor="middle" style="font-size:8.00;" x="416" y="419"> REFERENCES translationgroup </text>
<text text-anchor="middle" style="font-size:8.00;" x="278" y="433">translationpermission</text>
<text text-anchor="middle" style="font-size:8.00;" x="332" y="433">integer</text>
<text text-anchor="middle" style="font-size:8.00;" x="261" y="447">releaseroot</text>
<text text-anchor="middle" style="font-size:8.00;" x="327" y="447">text</text>
<text text-anchor="middle" style="font-size:8.00;" x="256" y="461">calendar</text>
<text text-anchor="middle" style="font-size:8.00;" x="332" y="461">integer</text>
<text text-anchor="middle" style="font-size:8.00;" x="420" y="461"> REFERENCES calendar UNIQUE </text>
<text text-anchor="middle" style="font-size:8.00;" x="267" y="475">official_rosetta</text>
<text text-anchor="middle" style="font-size:8.00;" x="334" y="475">boolean</text>
<text text-anchor="middle" style="font-size:8.00;" x="268" y="489">official_malone</text>
<text text-anchor="middle" style="font-size:8.00;" x="334" y="489">boolean</text>
<text text-anchor="middle" style="font-size:8.00;" x="261" y="503">bugcontact</text>
<text text-anchor="middle" style="font-size:8.00;" x="332" y="503">integer</text>
<text text-anchor="middle" style="font-size:8.00;" x="401" y="503"> REFERENCES person </text>
<polygon style="fill:none;stroke:black;" points="237,509 237,83 483,83 483,509 237,509"/>
</g>
<g id="edge14" class="edge"><title>product&#45;&gt;calendar</title>
<path style="fill:none;stroke:black;" d="M381,513C382,517 382,520 382,524"/>
<polygon style="fill:black;stroke:black;" points="385,524 383,534 379,524 385,524"/>
</g>
<g id="node8" class="node"><title>fake_project_249</title>
<ellipse cx="511" cy="23" rx="27" ry="18" style="fill:none;stroke:red;"/>
<text text-anchor="middle" style="font-size:8.00;" x="511" y="26">project</text>
</g>
<g id="edge8" class="edge"><title>product&#45;&gt;fake_project_249</title>
<path style="fill:none;stroke:black;" d="M480,79C486,67 492,58 496,49"/>
<polygon style="fill:black;stroke:black;" points="493,47 501,40 499,50 493,47"/>
</g>
<g id="node10" class="node"><title>fake_person_251</title>
<ellipse cx="185" cy="129" rx="27" ry="18" style="fill:none;stroke:red;"/>
<text text-anchor="middle" style="font-size:8.00;" x="185" y="132">person</text>
</g>
<g id="edge10" class="edge"><title>product&#45;&gt;fake_person_251</title>
<path style="fill:none;stroke:black;" d="M229,171C221,163 214,157 208,151"/>
<polygon style="fill:black;stroke:black;" points="206,154 201,144 211,149 206,154"/>
</g>
<g id="node12" class="node"><title>fake_translationgroup_253</title>
<ellipse cx="44" cy="378" rx="38" ry="18" style="fill:none;stroke:red;"/>
<text text-anchor="middle" style="font-size:8.00;" x="44" y="381">translationgroup</text>
</g>
<g id="edge12" class="edge"><title>product&#45;&gt;fake_translationgroup_253</title>
<path style="fill:none;stroke:black;" d="M229,330C179,344 124,357 88,367"/>
<polygon style="fill:black;stroke:black;" points="88,370 78,369 87,364 88,370"/>
</g>
<g id="node15" class="node"><title>fake_person_256</title>
<ellipse cx="671" cy="316" rx="27" ry="18" style="fill:none;stroke:red;"/>
<text text-anchor="middle" style="font-size:8.00;" x="671" y="319">person</text>
</g>
<g id="edge16" class="edge"><title>product&#45;&gt;fake_person_256</title>
<path style="fill:none;stroke:black;" d="M491,304C543,308 598,311 634,313"/>
<polygon style="fill:black;stroke:black;" points="634,310 644,314 634,316 634,310"/>
</g>
</g>
</svg>
