<?xml version="1.0" encoding="UTF-8" standalone="no"?>
<!DOCTYPE svg PUBLIC "-//W3C//DTD SVG 1.0//EN"
 "http://www.w3.org/TR/2001/REC-SVG-20010904/DTD/svg10.dtd">
<!-- Generated by fdp version 2.2.1 (Thu Apr 14 05:40:09 UTC 2005)
     For user: (stub) Stuart Bishop,,,   Title: g    Pages: 1 -->
<svg width="535px" height="535px"
 viewBox = "-1 -1 534 534"
 xmlns="http://www.w3.org/2000/svg">
<g id="graph0" class="graph" transform = "scale(0.484708)"
 style="font-family:Times-Roman;font-size:14.00;">
<title>g</title>
<text text-anchor="middle" style="font-size:22.00;" x="545" y="1083">Calendar</text>
<g id="node1" class="node"><title>calendar</title>
<polygon style="fill:#c1cdcc;stroke:#c1cdcc;" points="487,361 487,307 593,307 593,361 487,361"/>
<polygon style="fill:white;stroke:white;" points="490,322 490,310 590,310 590,322 490,322"/>
<text text-anchor="middle" style="font-size:6.00;" x="540" y="318">calendar</text>
<polygon style="fill:none;stroke:black;" points="490,322 490,310 590,310 590,322 490,322"/>
<text text-anchor="middle" style="font-size:6.00;" x="495" y="331">id</text>
<text text-anchor="middle" style="font-size:6.00;" x="526" y="331">serial</text>
<text text-anchor="middle" style="font-size:6.00;" x="566" y="331"> PRIMARY KEY </text>
<text text-anchor="middle" style="font-size:6.00;" x="498" y="343">title</text>
<text text-anchor="middle" style="font-size:6.00;" x="525" y="343">text</text>
<text text-anchor="middle" style="font-size:6.00;" x="503" y="355">revision</text>
<text text-anchor="middle" style="font-size:6.00;" x="528" y="355">integer</text>
<polygon style="fill:none;stroke:black;" points="487,361 487,307 593,307 593,361 487,361"/>
</g>
<g id="node2" class="node"><title>calendarevent</title>
<polygon style="fill:#c1cdcc;stroke:#c1cdcc;" points="447,133 447,19 619,19 619,133 447,133"/>
<polygon style="fill:white;stroke:white;" points="450,34 450,22 616,22 616,34 450,34"/>
<text text-anchor="middle" style="font-size:6.00;" x="533" y="30">calendarevent</text>
<polygon style="fill:none;stroke:black;" points="450,34 450,22 616,22 616,34 450,34"/>
<text text-anchor="middle" style="font-size:6.00;" x="455" y="43">id</text>
<text text-anchor="middle" style="font-size:6.00;" x="494" y="43">serial</text>
<text text-anchor="middle" style="font-size:6.00;" x="573" y="43"> PRIMARY KEY </text>
<text text-anchor="middle" style="font-size:6.00;" x="457" y="55">uid</text>
<text text-anchor="middle" style="font-size:6.00;" x="516" y="55">character varying(255)</text>
<text text-anchor="middle" style="font-size:6.00;" x="564" y="55"> UNIQUE </text>
<text text-anchor="middle" style="font-size:6.00;" x="463" y="67">calendar</text>
<text text-anchor="middle" style="font-size:6.00;" x="496" y="67">integer</text>
<text text-anchor="middle" style="font-size:6.00;" x="582" y="67"> REFERENCES calendar </text>
<text text-anchor="middle" style="font-size:6.00;" x="461" y="79">dtstart</text>
<text text-anchor="middle" style="font-size:6.00;" x="501" y="79">timestamp</text>
<text text-anchor="middle" style="font-size:6.00;" x="463" y="91">duration</text>
<text text-anchor="middle" style="font-size:6.00;" x="497" y="91">interval</text>
<text text-anchor="middle" style="font-size:6.00;" x="458" y="103">title</text>
<text text-anchor="middle" style="font-size:6.00;" x="493" y="103">text</text>
<text text-anchor="middle" style="font-size:6.00;" x="467" y="115">description</text>
<text text-anchor="middle" style="font-size:6.00;" x="493" y="115">text</text>
<text text-anchor="middle" style="font-size:6.00;" x="463" y="127">location</text>
<text text-anchor="middle" style="font-size:6.00;" x="493" y="127">text</text>
<polygon style="fill:none;stroke:black;" points="447,133 447,19 619,19 619,133 447,133"/>
</g>
<g id="edge2" class="edge"><title>calendarevent&#45;&gt;calendar</title>
<path style="fill:none;stroke:black;" d="M535,137C536,185 538,251 539,293"/>
<polygon style="fill:black;stroke:black;" points="543,293 539,303 536,293 543,293"/>
</g>
<g id="node3" class="node"><title>calendarsubscription</title>
<polygon style="fill:#c1cdcc;stroke:#c1cdcc;" points="302,507 302,441 448,441 448,507 302,507"/>
<polygon style="fill:white;stroke:white;" points="305,456 305,444 445,444 445,456 305,456"/>
<text text-anchor="middle" style="font-size:6.00;" x="375" y="452">calendarsubscription</text>
<polygon style="fill:none;stroke:black;" points="305,456 305,444 445,444 445,456 305,456"/>
<text text-anchor="middle" style="font-size:6.00;" x="310" y="465">id</text>
<text text-anchor="middle" style="font-size:6.00;" x="338" y="465">serial</text>
<text text-anchor="middle" style="font-size:6.00;" x="378" y="465"> PRIMARY KEY </text>
<text text-anchor="middle" style="font-size:6.00;" x="316" y="477">subject</text>
<text text-anchor="middle" style="font-size:6.00;" x="340" y="477">integer</text>
<text text-anchor="middle" style="font-size:6.00;" x="399" y="477"> REFERENCES calendar UNIQUE </text>
<text text-anchor="middle" style="font-size:6.00;" x="316" y="489">object</text>
<text text-anchor="middle" style="font-size:6.00;" x="340" y="489">integer</text>
<text text-anchor="middle" style="font-size:6.00;" x="399" y="489"> REFERENCES calendar UNIQUE </text>
<text text-anchor="middle" style="font-size:6.00;" x="316" y="501">colour</text>
<text text-anchor="middle" style="font-size:6.00;" x="337" y="501">text</text>
<polygon style="fill:none;stroke:black;" points="302,507 302,441 448,441 448,507 302,507"/>
</g>
<g id="edge4" class="edge"><title>calendarsubscription&#45;&gt;calendar</title>
<path style="fill:none;stroke:black;" d="M410,437C433,417 462,392 486,371"/>
<polygon style="fill:black;stroke:black;" points="484,368 494,365 488,374 484,368"/>
</g>
<g id="edge6" class="edge"><title>calendarsubscription&#45;&gt;calendar</title>
<path style="fill:none;stroke:black;" d="M428,437C452,417 481,392 503,372"/>
<polygon style="fill:black;stroke:black;" points="501,369 511,365 506,374 501,369"/>
</g>
<g id="node4" class="node"><title>person</title>
<polygon style="fill:#c1cdcc;stroke:#c1cdcc;" points="475,903 475,537 677,537 677,903 475,903"/>
<polygon style="fill:white;stroke:white;" points="478,552 478,540 674,540 674,552 478,552"/>
<text text-anchor="middle" style="font-size:6.00;" x="576" y="548">person</text>
<polygon style="fill:none;stroke:black;" points="478,552 478,540 674,540 674,552 478,552"/>
<text text-anchor="middle" style="font-size:6.00;" x="483" y="561">id</text>
<text text-anchor="middle" style="font-size:6.00;" x="558" y="561">serial</text>
<text text-anchor="middle" style="font-size:6.00;" x="607" y="561"> PRIMARY KEY </text>
<text text-anchor="middle" style="font-size:6.00;" x="496" y="573">displayname</text>
<text text-anchor="middle" style="font-size:6.00;" x="557" y="573">text</text>
<text text-anchor="middle" style="font-size:6.00;" x="494" y="585">givenname</text>
<text text-anchor="middle" style="font-size:6.00;" x="557" y="585">text</text>
<text text-anchor="middle" style="font-size:6.00;" x="495" y="597">familyname</text>
<text text-anchor="middle" style="font-size:6.00;" x="557" y="597">text</text>
<text text-anchor="middle" style="font-size:6.00;" x="492" y="609">password</text>
<text text-anchor="middle" style="font-size:6.00;" x="557" y="609">text</text>
<text text-anchor="middle" style="font-size:6.00;" x="494" y="621">teamowner</text>
<text text-anchor="middle" style="font-size:6.00;" x="560" y="621">integer</text>
<text text-anchor="middle" style="font-size:6.00;" x="614" y="621"> REFERENCES person </text>
<text text-anchor="middle" style="font-size:6.00;" x="501" y="633">teamdescription</text>
<text text-anchor="middle" style="font-size:6.00;" x="557" y="633">text</text>
<text text-anchor="middle" style="font-size:6.00;" x="488" y="645">name</text>
<text text-anchor="middle" style="font-size:6.00;" x="557" y="645">text</text>
<text text-anchor="middle" style="font-size:6.00;" x="492" y="657">language</text>
<text text-anchor="middle" style="font-size:6.00;" x="560" y="657">integer</text>
<text text-anchor="middle" style="font-size:6.00;" x="617" y="657"> REFERENCES language </text>
<text text-anchor="middle" style="font-size:6.00;" x="484" y="669">fti</text>
<text text-anchor="middle" style="font-size:6.00;" x="562" y="669">tsvector</text>
<text text-anchor="middle" style="font-size:6.00;" x="512" y="681">defaultmembershipperiod</text>
<text text-anchor="middle" style="font-size:6.00;" x="560" y="681">integer</text>
<text text-anchor="middle" style="font-size:6.00;" x="507" y="693">defaultrenewalperiod</text>
<text text-anchor="middle" style="font-size:6.00;" x="560" y="693">integer</text>
<text text-anchor="middle" style="font-size:6.00;" x="503" y="705">subscriptionpolicy</text>
<text text-anchor="middle" style="font-size:6.00;" x="560" y="705">integer</text>
<text text-anchor="middle" style="font-size:6.00;" x="490" y="717">merged</text>
<text text-anchor="middle" style="font-size:6.00;" x="560" y="717">integer</text>
<text text-anchor="middle" style="font-size:6.00;" x="614" y="717"> REFERENCES person </text>
<text text-anchor="middle" style="font-size:6.00;" x="495" y="729">datecreated</text>
<text text-anchor="middle" style="font-size:6.00;" x="565" y="729">timestamp</text>
<text text-anchor="middle" style="font-size:6.00;" x="491" y="741">calendar</text>
<text text-anchor="middle" style="font-size:6.00;" x="560" y="741">integer</text>
<text text-anchor="middle" style="font-size:6.00;" x="628" y="741"> REFERENCES calendar UNIQUE </text>
<text text-anchor="middle" style="font-size:6.00;" x="492" y="753">timezone</text>
<text text-anchor="middle" style="font-size:6.00;" x="557" y="753">text</text>
<text text-anchor="middle" style="font-size:6.00;" x="489" y="765">karma</text>
<text text-anchor="middle" style="font-size:6.00;" x="560" y="765">integer</text>
<text text-anchor="middle" style="font-size:6.00;" x="496" y="777">addressline1</text>
<text text-anchor="middle" style="font-size:6.00;" x="557" y="777">text</text>
<text text-anchor="middle" style="font-size:6.00;" x="496" y="789">addressline2</text>
<text text-anchor="middle" style="font-size:6.00;" x="557" y="789">text</text>
<text text-anchor="middle" style="font-size:6.00;" x="496" y="801">organization</text>
<text text-anchor="middle" style="font-size:6.00;" x="557" y="801">text</text>
<text text-anchor="middle" style="font-size:6.00;" x="486" y="813">city</text>
<text text-anchor="middle" style="font-size:6.00;" x="557" y="813">text</text>
<text text-anchor="middle" style="font-size:6.00;" x="492" y="825">province</text>
<text text-anchor="middle" style="font-size:6.00;" x="557" y="825">text</text>
<text text-anchor="middle" style="font-size:6.00;" x="491" y="837">country</text>
<text text-anchor="middle" style="font-size:6.00;" x="560" y="837">integer</text>
<text text-anchor="middle" style="font-size:6.00;" x="616" y="837"> REFERENCES country </text>
<text text-anchor="middle" style="font-size:6.00;" x="492" y="849">postcode</text>
<text text-anchor="middle" style="font-size:6.00;" x="557" y="849">text</text>
<text text-anchor="middle" style="font-size:6.00;" x="489" y="861">phone</text>
<text text-anchor="middle" style="font-size:6.00;" x="557" y="861">text</text>
<text text-anchor="middle" style="font-size:6.00;" x="504" y="873">homepage_content</text>
<text text-anchor="middle" style="font-size:6.00;" x="557" y="873">text</text>
<text text-anchor="middle" style="font-size:6.00;" x="491" y="885">emblem</text>
<text text-anchor="middle" style="font-size:6.00;" x="560" y="885">integer</text>
<text text-anchor="middle" style="font-size:6.00;" x="624" y="885"> REFERENCES libraryfilealias </text>
<text text-anchor="middle" style="font-size:6.00;" x="497" y="897">hackergotchi</text>
<text text-anchor="middle" style="font-size:6.00;" x="560" y="897">integer</text>
<text text-anchor="middle" style="font-size:6.00;" x="624" y="897"> REFERENCES libraryfilealias </text>
<polygon style="fill:none;stroke:black;" points="475,903 475,537 677,537 677,903 475,903"/>
</g>
<g id="edge14" class="edge"><title>person&#45;&gt;calendar</title>
<path style="fill:none;stroke:black;" d="M559,533C553,474 547,413 544,375"/>
<polygon style="fill:black;stroke:black;" points="541,375 543,365 547,375 541,375"/>
</g>
<g id="edge8" class="edge"><title>person&#45;&gt;person</title>
<path style="fill:none;stroke:black;" d="M685,777C696,765 703,747 703,720 703,698 699,683 691,671"/>
<polygon style="fill:black;stroke:black;" points="688,673 685,663 694,669 688,673"/>
</g>
<g id="edge12" class="edge"><title>person&#45;&gt;person</title>
<path style="fill:none;stroke:black;" d="M685,853C706,837 721,793 721,720 721,656 709,614 692,594"/>
<polygon style="fill:black;stroke:black;" points="690,597 685,587 695,592 690,597"/>
</g>
<g id="node11" class="node"><title>fake_language_168</title>
<ellipse cx="316" cy="857" rx="27" ry="18" style="fill:none;stroke:red;"/>
<text text-anchor="middle" style="font-size:6.00;" x="316" y="859">language</text>
</g>
<g id="edge10" class="edge"><title>person&#45;&gt;fake_language_168</title>
<path style="fill:none;stroke:black;" d="M467,778C424,801 376,826 347,841"/>
<polygon style="fill:black;stroke:black;" points="348,844 338,846 345,838 348,844"/>
</g>
<g id="node15" class="node"><title>fake_country_172</title>
<ellipse cx="890" cy="826" rx="27" ry="18" style="fill:none;stroke:red;"/>
<text text-anchor="middle" style="font-size:6.00;" x="890" y="828">country</text>
</g>
<g id="edge16" class="edge"><title>person&#45;&gt;fake_country_172</title>
<path style="fill:none;stroke:black;" d="M685,757C745,777 815,801 856,815"/>
<polygon style="fill:black;stroke:black;" points="857,812 866,818 855,818 857,812"/>
</g>
<g id="node17" class="node"><title>fake_libraryfilealias_174</title>
<ellipse cx="452" cy="1040" rx="29" ry="18" style="fill:none;stroke:red;"/>
<text text-anchor="middle" style="font-size:6.00;" x="452" y="1042">libraryfilealias</text>
</g>
<g id="edge18" class="edge"><title>person&#45;&gt;fake_libraryfilealias_174</title>
<path style="fill:none;stroke:black;" d="M504,907C487,949 472,988 463,1012"/>
<polygon style="fill:black;stroke:black;" points="466,1014 459,1022 459,1011 466,1014"/>
</g>
<g id="node19" class="node"><title>fake_libraryfilealias_176</title>
<ellipse cx="711" cy="1029" rx="29" ry="18" style="fill:none;stroke:red;"/>
<text text-anchor="middle" style="font-size:6.00;" x="711" y="1031">libraryfilealias</text>
</g>
<g id="edge20" class="edge"><title>person&#45;&gt;fake_libraryfilealias_176</title>
<path style="fill:none;stroke:black;" d="M658,907C675,944 690,980 699,1003"/>
<polygon style="fill:black;stroke:black;" points="702,1001 703,1012 696,1004 702,1001"/>
</g>
<g id="node5" class="node"><title>product</title>
<polygon style="fill:#c1cdcc;stroke:#c1cdcc;" points="664,423 664,69 856,69 856,423 664,423"/>
<polygon style="fill:white;stroke:white;" points="667,84 667,72 853,72 853,84 667,84"/>
<text text-anchor="middle" style="font-size:6.00;" x="760" y="80">product</text>
<polygon style="fill:none;stroke:black;" points="667,84 667,72 853,72 853,84 667,84"/>
<text text-anchor="middle" style="font-size:6.00;" x="672" y="93">id</text>
<text text-anchor="middle" style="font-size:6.00;" x="737" y="93">serial</text>
<text text-anchor="middle" style="font-size:6.00;" x="786" y="93"> PRIMARY KEY </text>
<text text-anchor="middle" style="font-size:6.00;" x="678" y="105">project</text>
<text text-anchor="middle" style="font-size:6.00;" x="739" y="105">integer</text>
<text text-anchor="middle" style="font-size:6.00;" x="793" y="105"> REFERENCES project </text>
<text text-anchor="middle" style="font-size:6.00;" x="678" y="117">owner</text>
<text text-anchor="middle" style="font-size:6.00;" x="739" y="117">integer</text>
<text text-anchor="middle" style="font-size:6.00;" x="793" y="117"> REFERENCES person </text>
<text text-anchor="middle" style="font-size:6.00;" x="677" y="129">name</text>
<text text-anchor="middle" style="font-size:6.00;" x="736" y="129">text</text>
<text text-anchor="middle" style="font-size:6.00;" x="777" y="129"> UNIQUE </text>
<text text-anchor="middle" style="font-size:6.00;" x="685" y="141">displayname</text>
<text text-anchor="middle" style="font-size:6.00;" x="736" y="141">text</text>
<text text-anchor="middle" style="font-size:6.00;" x="675" y="153">title</text>
<text text-anchor="middle" style="font-size:6.00;" x="736" y="153">text</text>
<text text-anchor="middle" style="font-size:6.00;" x="681" y="165">summary</text>
<text text-anchor="middle" style="font-size:6.00;" x="736" y="165">text</text>
<text text-anchor="middle" style="font-size:6.00;" x="684" y="177">description</text>
<text text-anchor="middle" style="font-size:6.00;" x="736" y="177">text</text>
<text text-anchor="middle" style="font-size:6.00;" x="684" y="189">datecreated</text>
<text text-anchor="middle" style="font-size:6.00;" x="744" y="189">timestamp</text>
<text text-anchor="middle" style="font-size:6.00;" x="686" y="201">homepageurl</text>
<text text-anchor="middle" style="font-size:6.00;" x="736" y="201">text</text>
<text text-anchor="middle" style="font-size:6.00;" x="687" y="213">screenshotsurl</text>
<text text-anchor="middle" style="font-size:6.00;" x="736" y="213">text</text>
<text text-anchor="middle" style="font-size:6.00;" x="679" y="225">wikiurl</text>
<text text-anchor="middle" style="font-size:6.00;" x="736" y="225">text</text>
<text text-anchor="middle" style="font-size:6.00;" x="677" y="237">listurl</text>
<text text-anchor="middle" style="font-size:6.00;" x="736" y="237">text</text>
<text text-anchor="middle" style="font-size:6.00;" x="692" y="249">programminglang</text>
<text text-anchor="middle" style="font-size:6.00;" x="736" y="249">text</text>
<text text-anchor="middle" style="font-size:6.00;" x="685" y="261">downloadurl</text>
<text text-anchor="middle" style="font-size:6.00;" x="736" y="261">text</text>
<text text-anchor="middle" style="font-size:6.00;" x="680" y="273">lastdoap</text>
<text text-anchor="middle" style="font-size:6.00;" x="736" y="273">text</text>
<text text-anchor="middle" style="font-size:6.00;" x="692" y="285">sourceforgeproject</text>
<text text-anchor="middle" style="font-size:6.00;" x="736" y="285">text</text>
<text text-anchor="middle" style="font-size:6.00;" x="690" y="297">freshmeatproject</text>
<text text-anchor="middle" style="font-size:6.00;" x="736" y="297">text</text>
<text text-anchor="middle" style="font-size:6.00;" x="681" y="309">reviewed</text>
<text text-anchor="middle" style="font-size:6.00;" x="741" y="309">boolean</text>
<text text-anchor="middle" style="font-size:6.00;" x="677" y="321">active</text>
<text text-anchor="middle" style="font-size:6.00;" x="741" y="321">boolean</text>
<text text-anchor="middle" style="font-size:6.00;" x="673" y="333">fti</text>
<text text-anchor="middle" style="font-size:6.00;" x="741" y="333">tsvector</text>
<text text-anchor="middle" style="font-size:6.00;" x="684" y="345">autoupdate</text>
<text text-anchor="middle" style="font-size:6.00;" x="741" y="345">boolean</text>
<text text-anchor="middle" style="font-size:6.00;" x="690" y="357">translationgroup</text>
<text text-anchor="middle" style="font-size:6.00;" x="739" y="357">integer</text>
<text text-anchor="middle" style="font-size:6.00;" x="805" y="357"> REFERENCES translationgroup </text>
<text text-anchor="middle" style="font-size:6.00;" x="696" y="369">translationpermission</text>
<text text-anchor="middle" style="font-size:6.00;" x="739" y="369">integer</text>
<text text-anchor="middle" style="font-size:6.00;" x="683" y="381">releaseroot</text>
<text text-anchor="middle" style="font-size:6.00;" x="736" y="381">text</text>
<text text-anchor="middle" style="font-size:6.00;" x="680" y="393">calendar</text>
<text text-anchor="middle" style="font-size:6.00;" x="739" y="393">integer</text>
<text text-anchor="middle" style="font-size:6.00;" x="807" y="393"> REFERENCES calendar UNIQUE </text>
<text text-anchor="middle" style="font-size:6.00;" x="688" y="405">official_rosetta</text>
<text text-anchor="middle" style="font-size:6.00;" x="741" y="405">boolean</text>
<text text-anchor="middle" style="font-size:6.00;" x="689" y="417">official_malone</text>
<text text-anchor="middle" style="font-size:6.00;" x="741" y="417">boolean</text>
<polygon style="fill:none;stroke:black;" points="664,423 664,69 856,69 856,423 664,423"/>
</g>
<g id="edge28" class="edge"><title>product&#45;&gt;calendar</title>
<path style="fill:none;stroke:black;" d="M656,288C640,294 625,300 610,306"/>
<polygon style="fill:black;stroke:black;" points="612,309 601,310 609,303 612,309"/>
</g>
<g id="edge24" class="edge"><title>product&#45;&gt;person</title>
<path style="fill:none;stroke:black;" d="M690,427C678,459 665,492 653,524"/>
<polygon style="fill:black;stroke:black;" points="656,525 649,533 650,522 656,525"/>
</g>
<g id="node6" class="node"><title>project</title>
<polygon style="fill:#c1cdcc;stroke:#c1cdcc;" points="186,417 186,171 378,171 378,417 186,417"/>
<polygon style="fill:white;stroke:white;" points="189,186 189,174 375,174 375,186 189,186"/>
<text text-anchor="middle" style="font-size:6.00;" x="282" y="182">project</text>
<polygon style="fill:none;stroke:black;" points="189,186 189,174 375,174 375,186 189,186"/>
<text text-anchor="middle" style="font-size:6.00;" x="194" y="195">id</text>
<text text-anchor="middle" style="font-size:6.00;" x="259" y="195">serial</text>
<text text-anchor="middle" style="font-size:6.00;" x="308" y="195"> PRIMARY KEY </text>
<text text-anchor="middle" style="font-size:6.00;" x="200" y="207">owner</text>
<text text-anchor="middle" style="font-size:6.00;" x="261" y="207">integer</text>
<text text-anchor="middle" style="font-size:6.00;" x="315" y="207"> REFERENCES person </text>
<text text-anchor="middle" style="font-size:6.00;" x="199" y="219">name</text>
<text text-anchor="middle" style="font-size:6.00;" x="258" y="219">text</text>
<text text-anchor="middle" style="font-size:6.00;" x="299" y="219"> UNIQUE </text>
<text text-anchor="middle" style="font-size:6.00;" x="207" y="231">displayname</text>
<text text-anchor="middle" style="font-size:6.00;" x="258" y="231">text</text>
<text text-anchor="middle" style="font-size:6.00;" x="197" y="243">title</text>
<text text-anchor="middle" style="font-size:6.00;" x="258" y="243">text</text>
<text text-anchor="middle" style="font-size:6.00;" x="203" y="255">summary</text>
<text text-anchor="middle" style="font-size:6.00;" x="258" y="255">text</text>
<text text-anchor="middle" style="font-size:6.00;" x="206" y="267">description</text>
<text text-anchor="middle" style="font-size:6.00;" x="258" y="267">text</text>
<text text-anchor="middle" style="font-size:6.00;" x="206" y="279">datecreated</text>
<text text-anchor="middle" style="font-size:6.00;" x="266" y="279">timestamp</text>
<text text-anchor="middle" style="font-size:6.00;" x="208" y="291">homepageurl</text>
<text text-anchor="middle" style="font-size:6.00;" x="258" y="291">text</text>
<text text-anchor="middle" style="font-size:6.00;" x="201" y="303">wikiurl</text>
<text text-anchor="middle" style="font-size:6.00;" x="258" y="303">text</text>
<text text-anchor="middle" style="font-size:6.00;" x="202" y="315">lastdoap</text>
<text text-anchor="middle" style="font-size:6.00;" x="258" y="315">text</text>
<text text-anchor="middle" style="font-size:6.00;" x="214" y="327">sourceforgeproject</text>
<text text-anchor="middle" style="font-size:6.00;" x="258" y="327">text</text>
<text text-anchor="middle" style="font-size:6.00;" x="212" y="339">freshmeatproject</text>
<text text-anchor="middle" style="font-size:6.00;" x="258" y="339">text</text>
<text text-anchor="middle" style="font-size:6.00;" x="203" y="351">reviewed</text>
<text text-anchor="middle" style="font-size:6.00;" x="263" y="351">boolean</text>
<text text-anchor="middle" style="font-size:6.00;" x="199" y="363">active</text>
<text text-anchor="middle" style="font-size:6.00;" x="263" y="363">boolean</text>
<text text-anchor="middle" style="font-size:6.00;" x="195" y="375">fti</text>
<text text-anchor="middle" style="font-size:6.00;" x="263" y="375">tsvector</text>
<text text-anchor="middle" style="font-size:6.00;" x="212" y="387">translationgroup</text>
<text text-anchor="middle" style="font-size:6.00;" x="261" y="387">integer</text>
<text text-anchor="middle" style="font-size:6.00;" x="327" y="387"> REFERENCES translationgroup </text>
<text text-anchor="middle" style="font-size:6.00;" x="218" y="399">translationpermission</text>
<text text-anchor="middle" style="font-size:6.00;" x="261" y="399">integer</text>
<text text-anchor="middle" style="font-size:6.00;" x="202" y="411">calendar</text>
<text text-anchor="middle" style="font-size:6.00;" x="261" y="411">integer</text>
<text text-anchor="middle" style="font-size:6.00;" x="329" y="411"> REFERENCES calendar UNIQUE </text>
<polygon style="fill:none;stroke:black;" points="186,417 186,171 378,171 378,417 186,417"/>
</g>
<g id="edge22" class="edge"><title>product&#45;&gt;project</title>
<path style="fill:none;stroke:black;" d="M656,256C579,265 475,275 396,283"/>
<polygon style="fill:black;stroke:black;" points="396,286 386,284 396,280 396,286"/>
</g>
<g id="node23" class="node"><title>fake_translationgroup_230</title>
<ellipse cx="1053" cy="110" rx="32" ry="18" style="fill:none;stroke:red;"/>
<text text-anchor="middle" style="font-size:6.00;" x="1053" y="112">translationgroup</text>
</g>
<g id="edge26" class="edge"><title>product&#45;&gt;fake_translationgroup_230</title>
<path style="fill:none;stroke:black;" d="M864,198C918,173 981,143 1018,126"/>
<polygon style="fill:black;stroke:black;" points="1017,122 1028,122 1020,129 1017,122"/>
</g>
<g id="edge34" class="edge"><title>project&#45;&gt;calendar</title>
<path style="fill:none;stroke:black;" d="M386,310C414,314 443,319 469,323"/>
<polygon style="fill:black;stroke:black;" points="469,320 479,324 469,326 469,320"/>
</g>
<g id="edge30" class="edge"><title>project&#45;&gt;person</title>
<path style="fill:none;stroke:black;" d="M370,421C398,462 431,510 461,554"/>
<polygon style="fill:black;stroke:black;" points="464,552 467,562 458,556 464,552"/>
</g>
<g id="node27" class="node"><title>fake_translationgroup_250</title>
<ellipse cx="38" cy="154" rx="32" ry="18" style="fill:none;stroke:red;"/>
<text text-anchor="middle" style="font-size:6.00;" x="38" y="156">translationgroup</text>
</g>
<g id="edge32" class="edge"><title>project&#45;&gt;fake_translationgroup_250</title>
<path style="fill:none;stroke:black;" d="M178,234C139,212 97,188 70,172"/>
<polygon style="fill:black;stroke:black;" points="68,175 61,167 71,169 68,175"/>
</g>
</g>
</svg>
