<?xml version="1.0" encoding="UTF-8" standalone="no"?>
<!DOCTYPE svg PUBLIC "-//W3C//DTD SVG 1.0//EN"
 "http://www.w3.org/TR/2001/REC-SVG-20010904/DTD/svg10.dtd">
<!-- Generated by fdp version 2.2.1 (Tue Oct 11 01:38:21 UTC 2005)
     For user: (stub) Stuart Bishop,,,   Title: g    Pages: 1 -->
<svg width="917px" height="813px"
 viewBox = "-1 -1 916 812"
 xmlns="http://www.w3.org/2000/svg">
<g id="graph0" class="graph" style="font-family:Times-Roman;font-size:14.00;">
<title>g</title>
<text text-anchor="middle" style="font-size:22.00;" x="457" y="795">Calendar</text>
<g id="node1" class="node"><title>calendar</title>
<polygon style="fill:#c1cdcc;stroke:#c1cdcc;" points="486,666 486,604 620,604 620,666 486,666"/>
<polygon style="fill:white;stroke:white;" points="489,621 489,607 617,607 617,621 489,621"/>
<text text-anchor="middle" style="font-size:8.00;" x="553" y="617">calendar</text>
<polygon style="fill:none;stroke:black;" points="489,621 489,607 617,607 617,621 489,621"/>
<text text-anchor="middle" style="font-size:8.00;" x="495" y="632">id</text>
<text text-anchor="middle" style="font-size:8.00;" x="534" y="632">serial</text>
<text text-anchor="middle" style="font-size:8.00;" x="585" y="632"> PRIMARY KEY </text>
<text text-anchor="middle" style="font-size:8.00;" x="498" y="646">title</text>
<text text-anchor="middle" style="font-size:8.00;" x="532" y="646">text</text>
<text text-anchor="middle" style="font-size:8.00;" x="505" y="660">revision</text>
<text text-anchor="middle" style="font-size:8.00;" x="537" y="660">integer</text>
<polygon style="fill:none;stroke:black;" points="486,666 486,604 620,604 620,666 486,666"/>
</g>
<g id="node2" class="node"><title>calendarevent</title>
<polygon style="fill:#c1cdcc;stroke:#c1cdcc;" points="683,758 683,626 901,626 901,758 683,758"/>
<polygon style="fill:white;stroke:white;" points="686,643 686,629 898,629 898,643 686,643"/>
<text text-anchor="middle" style="font-size:8.00;" x="792" y="639">calendarevent</text>
<polygon style="fill:none;stroke:black;" points="686,643 686,629 898,629 898,643 686,643"/>
<text text-anchor="middle" style="font-size:8.00;" x="692" y="654">id</text>
<text text-anchor="middle" style="font-size:8.00;" x="740" y="654">serial</text>
<text text-anchor="middle" style="font-size:8.00;" x="841" y="654"> PRIMARY KEY </text>
<text text-anchor="middle" style="font-size:8.00;" x="694" y="668">uid</text>
<text text-anchor="middle" style="font-size:8.00;" x="768" y="668">character varying(255)</text>
<text text-anchor="middle" style="font-size:8.00;" x="829" y="668"> UNIQUE </text>
<text text-anchor="middle" style="font-size:8.00;" x="702" y="682">calendar</text>
<text text-anchor="middle" style="font-size:8.00;" x="743" y="682">integer</text>
<text text-anchor="middle" style="font-size:8.00;" x="854" y="682"> REFERENCES calendar </text>
<text text-anchor="middle" style="font-size:8.00;" x="699" y="696">dtstart</text>
<text text-anchor="middle" style="font-size:8.00;" x="749" y="696">timestamp</text>
<text text-anchor="middle" style="font-size:8.00;" x="702" y="710">duration</text>
<text text-anchor="middle" style="font-size:8.00;" x="744" y="710">interval</text>
<text text-anchor="middle" style="font-size:8.00;" x="695" y="724">title</text>
<text text-anchor="middle" style="font-size:8.00;" x="738" y="724">text</text>
<text text-anchor="middle" style="font-size:8.00;" x="706" y="738">description</text>
<text text-anchor="middle" style="font-size:8.00;" x="738" y="738">text</text>
<text text-anchor="middle" style="font-size:8.00;" x="702" y="752">location</text>
<text text-anchor="middle" style="font-size:8.00;" x="738" y="752">text</text>
<polygon style="fill:none;stroke:black;" points="683,758 683,626 901,626 901,758 683,758"/>
</g>
<g id="edge2" class="edge"><title>calendarevent&#45;&gt;calendar</title>
<path style="fill:none;stroke:black;" d="M675,664C663,661 650,658 638,656"/>
<polygon style="fill:black;stroke:black;" points="637,659 628,653 639,653 637,659"/>
</g>
<g id="node3" class="node"><title>calendarsubscription</title>
<polygon style="fill:#c1cdcc;stroke:#c1cdcc;" points="465,766 465,690 651,690 651,766 465,766"/>
<polygon style="fill:white;stroke:white;" points="468,707 468,693 648,693 648,707 468,707"/>
<text text-anchor="middle" style="font-size:8.00;" x="558" y="703">calendarsubscription</text>
<polygon style="fill:none;stroke:black;" points="468,707 468,693 648,693 648,707 468,707"/>
<text text-anchor="middle" style="font-size:8.00;" x="474" y="718">id</text>
<text text-anchor="middle" style="font-size:8.00;" x="508" y="718">serial</text>
<text text-anchor="middle" style="font-size:8.00;" x="559" y="718"> PRIMARY KEY </text>
<text text-anchor="middle" style="font-size:8.00;" x="482" y="732">subject</text>
<text text-anchor="middle" style="font-size:8.00;" x="511" y="732">integer</text>
<text text-anchor="middle" style="font-size:8.00;" x="588" y="732"> REFERENCES calendar UNIQUE </text>
<text text-anchor="middle" style="font-size:8.00;" x="480" y="746">object</text>
<text text-anchor="middle" style="font-size:8.00;" x="511" y="746">integer</text>
<text text-anchor="middle" style="font-size:8.00;" x="588" y="746"> REFERENCES calendar UNIQUE </text>
<text text-anchor="middle" style="font-size:8.00;" x="481" y="760">colour</text>
<text text-anchor="middle" style="font-size:8.00;" x="506" y="760">text</text>
<polygon style="fill:none;stroke:black;" points="465,766 465,690 651,690 651,766 465,766"/>
</g>
<g id="edge4" class="edge"><title>calendarsubscription&#45;&gt;calendar</title>
<path style="fill:none;stroke:black;" d="M556,686C556,684 556,682 556,680"/>
<polygon style="fill:black;stroke:black;" points="553,680 555,670 559,680 553,680"/>
</g>
<g id="edge6" class="edge"><title>calendarsubscription&#45;&gt;calendar</title>
<path style="fill:none;stroke:black;" d="M556,686C556,684 556,682 556,680"/>
<polygon style="fill:black;stroke:black;" points="553,680 555,670 559,680 553,680"/>
</g>
<g id="node4" class="node"><title>product</title>
<polygon style="fill:#c1cdcc;stroke:#c1cdcc;" points="195,551 195,125 441,125 441,551 195,551"/>
<polygon style="fill:white;stroke:white;" points="198,142 198,128 438,128 438,142 198,142"/>
<text text-anchor="middle" style="font-size:8.00;" x="318" y="138">product</text>
<polygon style="fill:none;stroke:black;" points="198,142 198,128 438,128 438,142 198,142"/>
<text text-anchor="middle" style="font-size:8.00;" x="204" y="153">id</text>
<text text-anchor="middle" style="font-size:8.00;" x="287" y="153">serial</text>
<text text-anchor="middle" style="font-size:8.00;" x="349" y="153"> PRIMARY KEY </text>
<text text-anchor="middle" style="font-size:8.00;" x="212" y="167">project</text>
<text text-anchor="middle" style="font-size:8.00;" x="290" y="167">integer</text>
<text text-anchor="middle" style="font-size:8.00;" x="359" y="167"> REFERENCES project </text>
<text text-anchor="middle" style="font-size:8.00;" x="211" y="181">owner</text>
<text text-anchor="middle" style="font-size:8.00;" x="290" y="181">integer</text>
<text text-anchor="middle" style="font-size:8.00;" x="359" y="181"> REFERENCES person </text>
<text text-anchor="middle" style="font-size:8.00;" x="210" y="195">name</text>
<text text-anchor="middle" style="font-size:8.00;" x="285" y="195">text</text>
<text text-anchor="middle" style="font-size:8.00;" x="337" y="195"> UNIQUE </text>
<text text-anchor="middle" style="font-size:8.00;" x="221" y="209">displayname</text>
<text text-anchor="middle" style="font-size:8.00;" x="285" y="209">text</text>
<text text-anchor="middle" style="font-size:8.00;" x="207" y="223">title</text>
<text text-anchor="middle" style="font-size:8.00;" x="285" y="223">text</text>
<text text-anchor="middle" style="font-size:8.00;" x="216" y="237">summary</text>
<text text-anchor="middle" style="font-size:8.00;" x="285" y="237">text</text>
<text text-anchor="middle" style="font-size:8.00;" x="218" y="251">description</text>
<text text-anchor="middle" style="font-size:8.00;" x="285" y="251">text</text>
<text text-anchor="middle" style="font-size:8.00;" x="219" y="265">datecreated</text>
<text text-anchor="middle" style="font-size:8.00;" x="296" y="265">timestamp</text>
<text text-anchor="middle" style="font-size:8.00;" x="222" y="279">homepageurl</text>
<text text-anchor="middle" style="font-size:8.00;" x="285" y="279">text</text>
<text text-anchor="middle" style="font-size:8.00;" x="224" y="293">screenshotsurl</text>
<text text-anchor="middle" style="font-size:8.00;" x="285" y="293">text</text>
<text text-anchor="middle" style="font-size:8.00;" x="213" y="307">wikiurl</text>
<text text-anchor="middle" style="font-size:8.00;" x="285" y="307">text</text>
<text text-anchor="middle" style="font-size:8.00;" x="210" y="321">listurl</text>
<text text-anchor="middle" style="font-size:8.00;" x="285" y="321">text</text>
<text text-anchor="middle" style="font-size:8.00;" x="230" y="335">programminglang</text>
<text text-anchor="middle" style="font-size:8.00;" x="285" y="335">text</text>
<text text-anchor="middle" style="font-size:8.00;" x="221" y="349">downloadurl</text>
<text text-anchor="middle" style="font-size:8.00;" x="285" y="349">text</text>
<text text-anchor="middle" style="font-size:8.00;" x="215" y="363">lastdoap</text>
<text text-anchor="middle" style="font-size:8.00;" x="285" y="363">text</text>
<text text-anchor="middle" style="font-size:8.00;" x="231" y="377">sourceforgeproject</text>
<text text-anchor="middle" style="font-size:8.00;" x="285" y="377">text</text>
<text text-anchor="middle" style="font-size:8.00;" x="228" y="391">freshmeatproject</text>
<text text-anchor="middle" style="font-size:8.00;" x="285" y="391">text</text>
<text text-anchor="middle" style="font-size:8.00;" x="216" y="405">reviewed</text>
<text text-anchor="middle" style="font-size:8.00;" x="292" y="405">boolean</text>
<text text-anchor="middle" style="font-size:8.00;" x="210" y="419">active</text>
<text text-anchor="middle" style="font-size:8.00;" x="292" y="419">boolean</text>
<text text-anchor="middle" style="font-size:8.00;" x="205" y="433">fti</text>
<text text-anchor="middle" style="font-size:8.00;" x="292" y="433">tsvector</text>
<text text-anchor="middle" style="font-size:8.00;" x="218" y="447">autoupdate</text>
<text text-anchor="middle" style="font-size:8.00;" x="292" y="447">boolean</text>
<text text-anchor="middle" style="font-size:8.00;" x="227" y="461">translationgroup</text>
<text text-anchor="middle" style="font-size:8.00;" x="290" y="461">integer</text>
<text text-anchor="middle" style="font-size:8.00;" x="374" y="461"> REFERENCES translationgroup </text>
<text text-anchor="middle" style="font-size:8.00;" x="236" y="475">translationpermission</text>
<text text-anchor="middle" style="font-size:8.00;" x="290" y="475">integer</text>
<text text-anchor="middle" style="font-size:8.00;" x="219" y="489">releaseroot</text>
<text text-anchor="middle" style="font-size:8.00;" x="285" y="489">text</text>
<text text-anchor="middle" style="font-size:8.00;" x="214" y="503">calendar</text>
<text text-anchor="middle" style="font-size:8.00;" x="290" y="503">integer</text>
<text text-anchor="middle" style="font-size:8.00;" x="378" y="503"> REFERENCES calendar UNIQUE </text>
<text text-anchor="middle" style="font-size:8.00;" x="225" y="517">official_rosetta</text>
<text text-anchor="middle" style="font-size:8.00;" x="292" y="517">boolean</text>
<text text-anchor="middle" style="font-size:8.00;" x="226" y="531">official_malone</text>
<text text-anchor="middle" style="font-size:8.00;" x="292" y="531">boolean</text>
<text text-anchor="middle" style="font-size:8.00;" x="219" y="545">bugcontact</text>
<text text-anchor="middle" style="font-size:8.00;" x="290" y="545">integer</text>
<text text-anchor="middle" style="font-size:8.00;" x="359" y="545"> REFERENCES person </text>
<polygon style="fill:none;stroke:black;" points="195,551 195,125 441,125 441,551 195,551"/>
</g>
<g id="edge14" class="edge"><title>product&#45;&gt;calendar</title>
<path style="fill:none;stroke:black;" d="M449,504C475,536 500,568 519,592"/>
<polygon style="fill:black;stroke:black;" points="522,590 525,600 516,594 522,590"/>
</g>
<g id="node8" class="node"><title>fake_project_249</title>
<ellipse cx="275" cy="23" rx="27" ry="18" style="fill:none;stroke:red;"/>
<text text-anchor="middle" style="font-size:8.00;" x="275" y="26">project</text>
</g>
<g id="edge8" class="edge"><title>product&#45;&gt;fake_project_249</title>
<path style="fill:none;stroke:black;" d="M288,121C285,94 281,69 279,51"/>
<polygon style="fill:black;stroke:black;" points="276,51 277,41 282,50 276,51"/>
</g>
<g id="node10" class="node"><title>fake_person_251</title>
<ellipse cx="141" cy="266" rx="27" ry="18" style="fill:none;stroke:red;"/>
<text text-anchor="middle" style="font-size:8.00;" x="141" y="269">person</text>
</g>
<g id="edge10" class="edge"><title>product&#45;&gt;fake_person_251</title>
<path style="fill:none;stroke:black;" d="M187,285C183,283 178,281 174,279"/>
<polygon style="fill:black;stroke:black;" points="173,282 164,276 175,276 173,282"/>
</g>
<g id="node12" class="node"><title>fake_translationgroup_253</title>
<ellipse cx="44" cy="509" rx="38" ry="18" style="fill:none;stroke:red;"/>
<text text-anchor="middle" style="font-size:8.00;" x="44" y="512">translationgroup</text>
</g>
<g id="edge12" class="edge"><title>product&#45;&gt;fake_translationgroup_253</title>
<path style="fill:none;stroke:black;" d="M187,420C146,446 104,472 76,489"/>
<polygon style="fill:black;stroke:black;" points="77,492 67,495 73,487 77,492"/>
</g>
<g id="node15" class="node"><title>fake_person_256</title>
<ellipse cx="493" cy="214" rx="27" ry="18" style="fill:none;stroke:red;"/>
<text text-anchor="middle" style="font-size:8.00;" x="493" y="217">person</text>
</g>
<g id="edge16" class="edge"><title>product&#45;&gt;fake_person_256</title>
<path style="fill:none;stroke:black;" d="M449,245C455,241 461,236 466,233"/>
<polygon style="fill:black;stroke:black;" points="464,230 474,227 468,236 464,230"/>
</g>
</g>
</svg>
