<?xml version="1.0" encoding="UTF-8" standalone="no"?>
<!DOCTYPE svg PUBLIC "-//W3C//DTD SVG 1.0//EN"
 "http://www.w3.org/TR/2001/REC-SVG-20010904/DTD/svg10.dtd">
<!-- Generated by fdp version 2.2.1 (Tue Oct 11 01:38:21 UTC 2005)
     For user: (stub) Stuart Bishop,,,   Title: g    Pages: 1 -->
<svg width="1343px" height="1426px"
 viewBox = "-1 -1 1342 1425"
 xmlns="http://www.w3.org/2000/svg">
<g id="graph0" class="graph" style="font-family:Times-Roman;font-size:14.00;">
<title>g</title>
<text text-anchor="middle" style="font-size:22.00;" x="670" y="1408">Calendar</text>
<g id="node1" class="node"><title>calendar</title>
<polygon style="fill:#c1cdcc;stroke:#c1cdcc;" points="427,565 427,503 561,503 561,565 427,565"/>
<polygon style="fill:white;stroke:white;" points="430,520 430,506 558,506 558,520 430,520"/>
<text text-anchor="middle" style="font-size:8.00;" x="494" y="516">calendar</text>
<polygon style="fill:none;stroke:black;" points="430,520 430,506 558,506 558,520 430,520"/>
<text text-anchor="middle" style="font-size:8.00;" x="436" y="531">id</text>
<text text-anchor="middle" style="font-size:8.00;" x="475" y="531">serial</text>
<text text-anchor="middle" style="font-size:8.00;" x="526" y="531"> PRIMARY KEY </text>
<text text-anchor="middle" style="font-size:8.00;" x="439" y="545">title</text>
<text text-anchor="middle" style="font-size:8.00;" x="473" y="545">text</text>
<text text-anchor="middle" style="font-size:8.00;" x="446" y="559">revision</text>
<text text-anchor="middle" style="font-size:8.00;" x="478" y="559">integer</text>
<polygon style="fill:none;stroke:black;" points="427,565 427,503 561,503 561,565 427,565"/>
</g>
<g id="node2" class="node"><title>calendarevent</title>
<polygon style="fill:#c1cdcc;stroke:#c1cdcc;" points="528,299 528,167 746,167 746,299 528,299"/>
<polygon style="fill:white;stroke:white;" points="531,184 531,170 743,170 743,184 531,184"/>
<text text-anchor="middle" style="font-size:8.00;" x="637" y="180">calendarevent</text>
<polygon style="fill:none;stroke:black;" points="531,184 531,170 743,170 743,184 531,184"/>
<text text-anchor="middle" style="font-size:8.00;" x="537" y="195">id</text>
<text text-anchor="middle" style="font-size:8.00;" x="585" y="195">serial</text>
<text text-anchor="middle" style="font-size:8.00;" x="686" y="195"> PRIMARY KEY </text>
<text text-anchor="middle" style="font-size:8.00;" x="539" y="209">uid</text>
<text text-anchor="middle" style="font-size:8.00;" x="613" y="209">character varying(255)</text>
<text text-anchor="middle" style="font-size:8.00;" x="674" y="209"> UNIQUE </text>
<text text-anchor="middle" style="font-size:8.00;" x="547" y="223">calendar</text>
<text text-anchor="middle" style="font-size:8.00;" x="588" y="223">integer</text>
<text text-anchor="middle" style="font-size:8.00;" x="699" y="223"> REFERENCES calendar </text>
<text text-anchor="middle" style="font-size:8.00;" x="544" y="237">dtstart</text>
<text text-anchor="middle" style="font-size:8.00;" x="594" y="237">timestamp</text>
<text text-anchor="middle" style="font-size:8.00;" x="547" y="251">duration</text>
<text text-anchor="middle" style="font-size:8.00;" x="589" y="251">interval</text>
<text text-anchor="middle" style="font-size:8.00;" x="540" y="265">title</text>
<text text-anchor="middle" style="font-size:8.00;" x="583" y="265">text</text>
<text text-anchor="middle" style="font-size:8.00;" x="551" y="279">description</text>
<text text-anchor="middle" style="font-size:8.00;" x="583" y="279">text</text>
<text text-anchor="middle" style="font-size:8.00;" x="547" y="293">location</text>
<text text-anchor="middle" style="font-size:8.00;" x="583" y="293">text</text>
<polygon style="fill:none;stroke:black;" points="528,299 528,167 746,167 746,299 528,299"/>
</g>
<g id="edge2" class="edge"><title>calendarevent&#45;&gt;calendar</title>
<path style="fill:none;stroke:black;" d="M604,303C576,360 538,441 515,490"/>
<polygon style="fill:black;stroke:black;" points="518,491 511,499 512,488 518,491"/>
</g>
<g id="node3" class="node"><title>calendarsubscription</title>
<polygon style="fill:#c1cdcc;stroke:#c1cdcc;" points="100,580 100,504 286,504 286,580 100,580"/>
<polygon style="fill:white;stroke:white;" points="103,521 103,507 283,507 283,521 103,521"/>
<text text-anchor="middle" style="font-size:8.00;" x="193" y="517">calendarsubscription</text>
<polygon style="fill:none;stroke:black;" points="103,521 103,507 283,507 283,521 103,521"/>
<text text-anchor="middle" style="font-size:8.00;" x="109" y="532">id</text>
<text text-anchor="middle" style="font-size:8.00;" x="143" y="532">serial</text>
<text text-anchor="middle" style="font-size:8.00;" x="194" y="532"> PRIMARY KEY </text>
<text text-anchor="middle" style="font-size:8.00;" x="117" y="546">subject</text>
<text text-anchor="middle" style="font-size:8.00;" x="146" y="546">integer</text>
<text text-anchor="middle" style="font-size:8.00;" x="223" y="546"> REFERENCES calendar UNIQUE </text>
<text text-anchor="middle" style="font-size:8.00;" x="115" y="560">object</text>
<text text-anchor="middle" style="font-size:8.00;" x="146" y="560">integer</text>
<text text-anchor="middle" style="font-size:8.00;" x="223" y="560"> REFERENCES calendar UNIQUE </text>
<text text-anchor="middle" style="font-size:8.00;" x="116" y="574">colour</text>
<text text-anchor="middle" style="font-size:8.00;" x="141" y="574">text</text>
<polygon style="fill:none;stroke:black;" points="100,580 100,504 286,504 286,580 100,580"/>
</g>
<g id="edge4" class="edge"><title>calendarsubscription&#45;&gt;calendar</title>
<path style="fill:none;stroke:black;" d="M294,539C331,538 373,537 409,536"/>
<polygon style="fill:black;stroke:black;" points="409,532 419,536 409,539 409,532"/>
</g>
<g id="edge6" class="edge"><title>calendarsubscription&#45;&gt;calendar</title>
<path style="fill:none;stroke:black;" d="M294,539C331,538 373,537 409,536"/>
<polygon style="fill:black;stroke:black;" points="409,532 419,536 409,539 409,532"/>
</g>
<g id="node4" class="node"><title>person</title>
<polygon style="fill:#c1cdcc;stroke:#c1cdcc;" points="288,1164 288,766 546,766 546,1164 288,1164"/>
<polygon style="fill:white;stroke:white;" points="291,783 291,769 543,769 543,783 291,783"/>
<text text-anchor="middle" style="font-size:8.00;" x="417" y="779">person</text>
<polygon style="fill:none;stroke:black;" points="291,783 291,769 543,769 543,783 291,783"/>
<text text-anchor="middle" style="font-size:8.00;" x="297" y="794">id</text>
<text text-anchor="middle" style="font-size:8.00;" x="392" y="794">serial</text>
<text text-anchor="middle" style="font-size:8.00;" x="454" y="794"> PRIMARY KEY </text>
<text text-anchor="middle" style="font-size:8.00;" x="314" y="808">displayname</text>
<text text-anchor="middle" style="font-size:8.00;" x="390" y="808">text</text>
<text text-anchor="middle" style="font-size:8.00;" x="309" y="822">password</text>
<text text-anchor="middle" style="font-size:8.00;" x="390" y="822">text</text>
<text text-anchor="middle" style="font-size:8.00;" x="312" y="836">teamowner</text>
<text text-anchor="middle" style="font-size:8.00;" x="395" y="836">integer</text>
<text text-anchor="middle" style="font-size:8.00;" x="464" y="836"> REFERENCES person </text>
<text text-anchor="middle" style="font-size:8.00;" x="320" y="850">teamdescription</text>
<text text-anchor="middle" style="font-size:8.00;" x="390" y="850">text</text>
<text text-anchor="middle" style="font-size:8.00;" x="303" y="864">name</text>
<text text-anchor="middle" style="font-size:8.00;" x="390" y="864">text</text>
<text text-anchor="middle" style="font-size:8.00;" x="309" y="878">language</text>
<text text-anchor="middle" style="font-size:8.00;" x="395" y="878">integer</text>
<text text-anchor="middle" style="font-size:8.00;" x="468" y="878"> REFERENCES language </text>
<text text-anchor="middle" style="font-size:8.00;" x="298" y="892">fti</text>
<text text-anchor="middle" style="font-size:8.00;" x="397" y="892">tsvector</text>
<text text-anchor="middle" style="font-size:8.00;" x="335" y="906">defaultmembershipperiod</text>
<text text-anchor="middle" style="font-size:8.00;" x="395" y="906">integer</text>
<text text-anchor="middle" style="font-size:8.00;" x="328" y="920">defaultrenewalperiod</text>
<text text-anchor="middle" style="font-size:8.00;" x="395" y="920">integer</text>
<text text-anchor="middle" style="font-size:8.00;" x="323" y="934">subscriptionpolicy</text>
<text text-anchor="middle" style="font-size:8.00;" x="395" y="934">integer</text>
<text text-anchor="middle" style="font-size:8.00;" x="306" y="948">merged</text>
<text text-anchor="middle" style="font-size:8.00;" x="395" y="948">integer</text>
<text text-anchor="middle" style="font-size:8.00;" x="464" y="948"> REFERENCES person </text>
<text text-anchor="middle" style="font-size:8.00;" x="312" y="962">datecreated</text>
<text text-anchor="middle" style="font-size:8.00;" x="401" y="962">timestamp</text>
<text text-anchor="middle" style="font-size:8.00;" x="307" y="976">calendar</text>
<text text-anchor="middle" style="font-size:8.00;" x="395" y="976">integer</text>
<text text-anchor="middle" style="font-size:8.00;" x="483" y="976"> REFERENCES calendar UNIQUE </text>
<text text-anchor="middle" style="font-size:8.00;" x="309" y="990">timezone</text>
<text text-anchor="middle" style="font-size:8.00;" x="390" y="990">text</text>
<text text-anchor="middle" style="font-size:8.00;" x="314" y="1004">addressline1</text>
<text text-anchor="middle" style="font-size:8.00;" x="390" y="1004">text</text>
<text text-anchor="middle" style="font-size:8.00;" x="314" y="1018">addressline2</text>
<text text-anchor="middle" style="font-size:8.00;" x="390" y="1018">text</text>
<text text-anchor="middle" style="font-size:8.00;" x="314" y="1032">organization</text>
<text text-anchor="middle" style="font-size:8.00;" x="390" y="1032">text</text>
<text text-anchor="middle" style="font-size:8.00;" x="300" y="1046">city</text>
<text text-anchor="middle" style="font-size:8.00;" x="390" y="1046">text</text>
<text text-anchor="middle" style="font-size:8.00;" x="308" y="1060">province</text>
<text text-anchor="middle" style="font-size:8.00;" x="390" y="1060">text</text>
<text text-anchor="middle" style="font-size:8.00;" x="306" y="1074">country</text>
<text text-anchor="middle" style="font-size:8.00;" x="395" y="1074">integer</text>
<text text-anchor="middle" style="font-size:8.00;" x="465" y="1074"> REFERENCES country </text>
<text text-anchor="middle" style="font-size:8.00;" x="308" y="1088">postcode</text>
<text text-anchor="middle" style="font-size:8.00;" x="390" y="1088">text</text>
<text text-anchor="middle" style="font-size:8.00;" x="304" y="1102">phone</text>
<text text-anchor="middle" style="font-size:8.00;" x="390" y="1102">text</text>
<text text-anchor="middle" style="font-size:8.00;" x="325" y="1116">homepage_content</text>
<text text-anchor="middle" style="font-size:8.00;" x="390" y="1116">text</text>
<text text-anchor="middle" style="font-size:8.00;" x="307" y="1130">emblem</text>
<text text-anchor="middle" style="font-size:8.00;" x="395" y="1130">integer</text>
<text text-anchor="middle" style="font-size:8.00;" x="476" y="1130"> REFERENCES libraryfilealias </text>
<text text-anchor="middle" style="font-size:8.00;" x="315" y="1144">hackergotchi</text>
<text text-anchor="middle" style="font-size:8.00;" x="395" y="1144">integer</text>
<text text-anchor="middle" style="font-size:8.00;" x="476" y="1144"> REFERENCES libraryfilealias </text>
<text text-anchor="middle" style="font-size:8.00;" x="329" y="1158">hide_email_addresses</text>
<text text-anchor="middle" style="font-size:8.00;" x="397" y="1158">boolean</text>
<polygon style="fill:none;stroke:black;" points="288,1164 288,766 546,766 546,1164 288,1164"/>
</g>
<g id="edge14" class="edge"><title>person&#45;&gt;calendar</title>
<path style="fill:none;stroke:black;" d="M453,762C465,693 478,623 486,579"/>
<polygon style="fill:black;stroke:black;" points="483,578 488,569 489,579 483,578"/>
</g>
<g id="edge8" class="edge"><title>person&#45;&gt;person</title>
<path style="fill:none;stroke:black;" d="M554,1023C565,1010 572,991 572,965 572,944 567,928 560,915"/>
<polygon style="fill:black;stroke:black;" points="557,917 554,907 563,913 557,917"/>
</g>
<g id="edge12" class="edge"><title>person&#45;&gt;person</title>
<path style="fill:none;stroke:black;" d="M554,1103C576,1083 590,1036 590,965 590,902 579,858 561,835"/>
<polygon style="fill:black;stroke:black;" points="558,837 554,827 563,832 558,837"/>
</g>
<g id="node11" class="node"><title>fake_language_187</title>
<ellipse cx="33" cy="1066" rx="27" ry="18" style="fill:none;stroke:red;"/>
<text text-anchor="middle" style="font-size:8.00;" x="33" y="1069">language</text>
</g>
<g id="edge10" class="edge"><title>person&#45;&gt;fake_language_187</title>
<path style="fill:none;stroke:black;" d="M280,1001C205,1021 116,1044 68,1057"/>
<polygon style="fill:black;stroke:black;" points="68,1060 58,1059 67,1054 68,1060"/>
</g>
<g id="node15" class="node"><title>fake_country_191</title>
<ellipse cx="735" cy="1195" rx="27" ry="18" style="fill:none;stroke:red;"/>
<text text-anchor="middle" style="font-size:8.00;" x="735" y="1198">country</text>
</g>
<g id="edge16" class="edge"><title>person&#45;&gt;fake_country_191</title>
<path style="fill:none;stroke:black;" d="M554,1064C612,1105 674,1151 709,1176"/>
<polygon style="fill:black;stroke:black;" points="711,1173 717,1182 707,1179 711,1173"/>
</g>
<g id="node17" class="node"><title>fake_libraryfilealias_193</title>
<ellipse cx="202" cy="1310" rx="35" ry="18" style="fill:none;stroke:red;"/>
<text text-anchor="middle" style="font-size:8.00;" x="202" y="1313">libraryfilealias</text>
</g>
<g id="edge18" class="edge"><title>person&#45;&gt;fake_libraryfilealias_193</title>
<path style="fill:none;stroke:black;" d="M290,1168C261,1215 234,1258 218,1284"/>
<polygon style="fill:black;stroke:black;" points="221,1286 213,1293 215,1283 221,1286"/>
</g>
<g id="node19" class="node"><title>fake_libraryfilealias_195</title>
<ellipse cx="486" cy="1365" rx="35" ry="18" style="fill:none;stroke:red;"/>
<text text-anchor="middle" style="font-size:8.00;" x="486" y="1368">libraryfilealias</text>
</g>
<g id="edge20" class="edge"><title>person&#45;&gt;fake_libraryfilealias_195</title>
<path style="fill:none;stroke:black;" d="M452,1168C464,1234 475,1300 481,1337"/>
<polygon style="fill:black;stroke:black;" points="484,1337 483,1347 478,1338 484,1337"/>
</g>
<g id="node5" class="node"><title>product</title>
<polygon style="fill:#c1cdcc;stroke:#c1cdcc;" points="775,754 775,328 1021,328 1021,754 775,754"/>
<polygon style="fill:white;stroke:white;" points="778,345 778,331 1018,331 1018,345 778,345"/>
<text text-anchor="middle" style="font-size:8.00;" x="898" y="341">product</text>
<polygon style="fill:none;stroke:black;" points="778,345 778,331 1018,331 1018,345 778,345"/>
<text text-anchor="middle" style="font-size:8.00;" x="784" y="356">id</text>
<text text-anchor="middle" style="font-size:8.00;" x="867" y="356">serial</text>
<text text-anchor="middle" style="font-size:8.00;" x="929" y="356"> PRIMARY KEY </text>
<text text-anchor="middle" style="font-size:8.00;" x="792" y="370">project</text>
<text text-anchor="middle" style="font-size:8.00;" x="870" y="370">integer</text>
<text text-anchor="middle" style="font-size:8.00;" x="939" y="370"> REFERENCES project </text>
<text text-anchor="middle" style="font-size:8.00;" x="791" y="384">owner</text>
<text text-anchor="middle" style="font-size:8.00;" x="870" y="384">integer</text>
<text text-anchor="middle" style="font-size:8.00;" x="939" y="384"> REFERENCES person </text>
<text text-anchor="middle" style="font-size:8.00;" x="790" y="398">name</text>
<text text-anchor="middle" style="font-size:8.00;" x="865" y="398">text</text>
<text text-anchor="middle" style="font-size:8.00;" x="917" y="398"> UNIQUE </text>
<text text-anchor="middle" style="font-size:8.00;" x="801" y="412">displayname</text>
<text text-anchor="middle" style="font-size:8.00;" x="865" y="412">text</text>
<text text-anchor="middle" style="font-size:8.00;" x="787" y="426">title</text>
<text text-anchor="middle" style="font-size:8.00;" x="865" y="426">text</text>
<text text-anchor="middle" style="font-size:8.00;" x="796" y="440">summary</text>
<text text-anchor="middle" style="font-size:8.00;" x="865" y="440">text</text>
<text text-anchor="middle" style="font-size:8.00;" x="798" y="454">description</text>
<text text-anchor="middle" style="font-size:8.00;" x="865" y="454">text</text>
<text text-anchor="middle" style="font-size:8.00;" x="799" y="468">datecreated</text>
<text text-anchor="middle" style="font-size:8.00;" x="876" y="468">timestamp</text>
<text text-anchor="middle" style="font-size:8.00;" x="802" y="482">homepageurl</text>
<text text-anchor="middle" style="font-size:8.00;" x="865" y="482">text</text>
<text text-anchor="middle" style="font-size:8.00;" x="804" y="496">screenshotsurl</text>
<text text-anchor="middle" style="font-size:8.00;" x="865" y="496">text</text>
<text text-anchor="middle" style="font-size:8.00;" x="793" y="510">wikiurl</text>
<text text-anchor="middle" style="font-size:8.00;" x="865" y="510">text</text>
<text text-anchor="middle" style="font-size:8.00;" x="790" y="524">listurl</text>
<text text-anchor="middle" style="font-size:8.00;" x="865" y="524">text</text>
<text text-anchor="middle" style="font-size:8.00;" x="810" y="538">programminglang</text>
<text text-anchor="middle" style="font-size:8.00;" x="865" y="538">text</text>
<text text-anchor="middle" style="font-size:8.00;" x="801" y="552">downloadurl</text>
<text text-anchor="middle" style="font-size:8.00;" x="865" y="552">text</text>
<text text-anchor="middle" style="font-size:8.00;" x="795" y="566">lastdoap</text>
<text text-anchor="middle" style="font-size:8.00;" x="865" y="566">text</text>
<text text-anchor="middle" style="font-size:8.00;" x="811" y="580">sourceforgeproject</text>
<text text-anchor="middle" style="font-size:8.00;" x="865" y="580">text</text>
<text text-anchor="middle" style="font-size:8.00;" x="808" y="594">freshmeatproject</text>
<text text-anchor="middle" style="font-size:8.00;" x="865" y="594">text</text>
<text text-anchor="middle" style="font-size:8.00;" x="796" y="608">reviewed</text>
<text text-anchor="middle" style="font-size:8.00;" x="872" y="608">boolean</text>
<text text-anchor="middle" style="font-size:8.00;" x="790" y="622">active</text>
<text text-anchor="middle" style="font-size:8.00;" x="872" y="622">boolean</text>
<text text-anchor="middle" style="font-size:8.00;" x="785" y="636">fti</text>
<text text-anchor="middle" style="font-size:8.00;" x="872" y="636">tsvector</text>
<text text-anchor="middle" style="font-size:8.00;" x="798" y="650">autoupdate</text>
<text text-anchor="middle" style="font-size:8.00;" x="872" y="650">boolean</text>
<text text-anchor="middle" style="font-size:8.00;" x="807" y="664">translationgroup</text>
<text text-anchor="middle" style="font-size:8.00;" x="870" y="664">integer</text>
<text text-anchor="middle" style="font-size:8.00;" x="954" y="664"> REFERENCES translationgroup </text>
<text text-anchor="middle" style="font-size:8.00;" x="816" y="678">translationpermission</text>
<text text-anchor="middle" style="font-size:8.00;" x="870" y="678">integer</text>
<text text-anchor="middle" style="font-size:8.00;" x="799" y="692">releaseroot</text>
<text text-anchor="middle" style="font-size:8.00;" x="865" y="692">text</text>
<text text-anchor="middle" style="font-size:8.00;" x="794" y="706">calendar</text>
<text text-anchor="middle" style="font-size:8.00;" x="870" y="706">integer</text>
<text text-anchor="middle" style="font-size:8.00;" x="958" y="706"> REFERENCES calendar UNIQUE </text>
<text text-anchor="middle" style="font-size:8.00;" x="805" y="720">official_rosetta</text>
<text text-anchor="middle" style="font-size:8.00;" x="872" y="720">boolean</text>
<text text-anchor="middle" style="font-size:8.00;" x="806" y="734">official_malone</text>
<text text-anchor="middle" style="font-size:8.00;" x="872" y="734">boolean</text>
<text text-anchor="middle" style="font-size:8.00;" x="799" y="748">bugcontact</text>
<text text-anchor="middle" style="font-size:8.00;" x="870" y="748">integer</text>
<text text-anchor="middle" style="font-size:8.00;" x="939" y="748"> REFERENCES person </text>
<polygon style="fill:none;stroke:black;" points="775,754 775,328 1021,328 1021,754 775,754"/>
</g>
<g id="edge28" class="edge"><title>product&#45;&gt;calendar</title>
<path style="fill:none;stroke:black;" d="M767,539C706,538 634,536 579,535"/>
<polygon style="fill:black;stroke:black;" points="579,538 569,535 579,531 579,538"/>
</g>
<g id="edge24" class="edge"><title>product&#45;&gt;person</title>
<path style="fill:none;stroke:black;" d="M767,657C703,713 627,780 562,837"/>
<polygon style="fill:black;stroke:black;" points="564,840 554,844 559,835 564,840"/>
</g>
<g id="edge30" class="edge"><title>product&#45;&gt;person</title>
<path style="fill:none;stroke:black;" d="M767,657C703,713 627,780 562,837"/>
<polygon style="fill:black;stroke:black;" points="564,840 554,844 559,835 564,840"/>
</g>
<g id="node6" class="node"><title>project</title>
<polygon style="fill:#c1cdcc;stroke:#c1cdcc;" points="224,477 224,191 470,191 470,477 224,477"/>
<polygon style="fill:white;stroke:white;" points="227,208 227,194 467,194 467,208 227,208"/>
<text text-anchor="middle" style="font-size:8.00;" x="347" y="204">project</text>
<polygon style="fill:none;stroke:black;" points="227,208 227,194 467,194 467,208 227,208"/>
<text text-anchor="middle" style="font-size:8.00;" x="233" y="219">id</text>
<text text-anchor="middle" style="font-size:8.00;" x="316" y="219">serial</text>
<text text-anchor="middle" style="font-size:8.00;" x="378" y="219"> PRIMARY KEY </text>
<text text-anchor="middle" style="font-size:8.00;" x="240" y="233">owner</text>
<text text-anchor="middle" style="font-size:8.00;" x="319" y="233">integer</text>
<text text-anchor="middle" style="font-size:8.00;" x="388" y="233"> REFERENCES person </text>
<text text-anchor="middle" style="font-size:8.00;" x="239" y="247">name</text>
<text text-anchor="middle" style="font-size:8.00;" x="314" y="247">text</text>
<text text-anchor="middle" style="font-size:8.00;" x="366" y="247"> UNIQUE </text>
<text text-anchor="middle" style="font-size:8.00;" x="250" y="261">displayname</text>
<text text-anchor="middle" style="font-size:8.00;" x="314" y="261">text</text>
<text text-anchor="middle" style="font-size:8.00;" x="236" y="275">title</text>
<text text-anchor="middle" style="font-size:8.00;" x="314" y="275">text</text>
<text text-anchor="middle" style="font-size:8.00;" x="245" y="289">summary</text>
<text text-anchor="middle" style="font-size:8.00;" x="314" y="289">text</text>
<text text-anchor="middle" style="font-size:8.00;" x="247" y="303">description</text>
<text text-anchor="middle" style="font-size:8.00;" x="314" y="303">text</text>
<text text-anchor="middle" style="font-size:8.00;" x="248" y="317">datecreated</text>
<text text-anchor="middle" style="font-size:8.00;" x="325" y="317">timestamp</text>
<text text-anchor="middle" style="font-size:8.00;" x="251" y="331">homepageurl</text>
<text text-anchor="middle" style="font-size:8.00;" x="314" y="331">text</text>
<text text-anchor="middle" style="font-size:8.00;" x="242" y="345">wikiurl</text>
<text text-anchor="middle" style="font-size:8.00;" x="314" y="345">text</text>
<text text-anchor="middle" style="font-size:8.00;" x="244" y="359">lastdoap</text>
<text text-anchor="middle" style="font-size:8.00;" x="314" y="359">text</text>
<text text-anchor="middle" style="font-size:8.00;" x="260" y="373">sourceforgeproject</text>
<text text-anchor="middle" style="font-size:8.00;" x="314" y="373">text</text>
<text text-anchor="middle" style="font-size:8.00;" x="257" y="387">freshmeatproject</text>
<text text-anchor="middle" style="font-size:8.00;" x="314" y="387">text</text>
<text text-anchor="middle" style="font-size:8.00;" x="245" y="401">reviewed</text>
<text text-anchor="middle" style="font-size:8.00;" x="321" y="401">boolean</text>
<text text-anchor="middle" style="font-size:8.00;" x="239" y="415">active</text>
<text text-anchor="middle" style="font-size:8.00;" x="321" y="415">boolean</text>
<text text-anchor="middle" style="font-size:8.00;" x="234" y="429">fti</text>
<text text-anchor="middle" style="font-size:8.00;" x="321" y="429">tsvector</text>
<text text-anchor="middle" style="font-size:8.00;" x="256" y="443">translationgroup</text>
<text text-anchor="middle" style="font-size:8.00;" x="319" y="443">integer</text>
<text text-anchor="middle" style="font-size:8.00;" x="403" y="443"> REFERENCES translationgroup </text>
<text text-anchor="middle" style="font-size:8.00;" x="265" y="457">translationpermission</text>
<text text-anchor="middle" style="font-size:8.00;" x="319" y="457">integer</text>
<text text-anchor="middle" style="font-size:8.00;" x="243" y="471">calendar</text>
<text text-anchor="middle" style="font-size:8.00;" x="319" y="471">integer</text>
<text text-anchor="middle" style="font-size:8.00;" x="407" y="471"> REFERENCES calendar UNIQUE </text>
<polygon style="fill:none;stroke:black;" points="224,477 224,191 470,191 470,477 224,477"/>
</g>
<g id="edge22" class="edge"><title>product&#45;&gt;project</title>
<path style="fill:none;stroke:black;" d="M767,492C683,460 574,419 487,387"/>
<polygon style="fill:black;stroke:black;" points="486,390 478,383 489,384 486,390"/>
</g>
<g id="node23" class="node"><title>fake_translationgroup_255</title>
<ellipse cx="1297" cy="442" rx="38" ry="18" style="fill:none;stroke:red;"/>
<text text-anchor="middle" style="font-size:8.00;" x="1297" y="445">translationgroup</text>
</g>
<g id="edge26" class="edge"><title>product&#45;&gt;fake_translationgroup_255</title>
<path style="fill:none;stroke:black;" d="M1029,508C1106,489 1200,466 1253,452"/>
<polygon style="fill:black;stroke:black;" points="1253,449 1263,450 1254,455 1253,449"/>
</g>
<g id="edge36" class="edge"><title>project&#45;&gt;calendar</title>
<path style="fill:none;stroke:black;" d="M455,481C458,484 460,487 462,491"/>
<polygon style="fill:black;stroke:black;" points="465,489 468,499 459,493 465,489"/>
</g>
<g id="edge32" class="edge"><title>project&#45;&gt;person</title>
<path style="fill:none;stroke:black;" d="M363,481C372,562 383,663 393,752"/>
<polygon style="fill:black;stroke:black;" points="396,752 394,762 390,752 396,752"/>
</g>
<g id="node28" class="node"><title>fake_translationgroup_275</title>
<ellipse cx="177" cy="23" rx="38" ry="18" style="fill:none;stroke:red;"/>
<text text-anchor="middle" style="font-size:8.00;" x="177" y="26">translationgroup</text>
</g>
<g id="edge34" class="edge"><title>project&#45;&gt;fake_translationgroup_275</title>
<path style="fill:none;stroke:black;" d="M266,187C238,134 209,81 192,50"/>
<polygon style="fill:black;stroke:black;" points="189,51 187,41 195,48 189,51"/>
</g>
</g>
</svg>
