<?xml version="1.0" encoding="UTF-8" standalone="no"?>
<!DOCTYPE svg PUBLIC "-//W3C//DTD SVG 1.0//EN"
 "http://www.w3.org/TR/2001/REC-SVG-20010904/DTD/svg10.dtd">
<!-- Generated by fdp version 2.2 (Sat Feb  5 01:37:52 UTC 2005)
     For user: (stub) Stuart Bishop,,,   Title: g    Pages: 1 -->
<svg width="229px" height="535px"
 viewBox = "-1 -1 228 534"
 xmlns="http://www.w3.org/2000/svg">
<g id="graph0" class="graph" transform = "scale(0.196839)"
 style="font-family:Times-Roman;font-size:14.00;">
<title>g</title>
<text text-anchor="middle" style="font-size:22.00;" x="558" y="2691">Doap</text>
<g id="node1" class="node"><title>branch</title>
<polygon style="fill:#c1cdcc;stroke:#c1cdcc;" points="478,1381 478,1291 636,1291 636,1381 478,1381"/>
<polygon style="fill:white;stroke:white;" points="481,1306 481,1294 633,1294 633,1306 481,1306"/>
<text text-anchor="middle" style="font-size:6.00;" x="557" y="1302">branch</text>
<polygon style="fill:none;stroke:black;" points="481,1306 481,1294 633,1294 633,1306 481,1306"/>
<text text-anchor="middle" style="font-size:6.00;" x="486" y="1315">id</text>
<text text-anchor="middle" style="font-size:6.00;" x="534" y="1315">serial</text>
<text text-anchor="middle" style="font-size:6.00;" x="574" y="1315"> PRIMARY KEY </text>
<text text-anchor="middle" style="font-size:6.00;" x="502" y="1327">archnamespace</text>
<text text-anchor="middle" style="font-size:6.00;" x="536" y="1327">integer</text>
<text text-anchor="middle" style="font-size:6.00;" x="591" y="1327"> REFERENCES archnamespace </text>
<text text-anchor="middle" style="font-size:6.00;" x="489" y="1339">title</text>
<text text-anchor="middle" style="font-size:6.00;" x="533" y="1339">text</text>
<text text-anchor="middle" style="font-size:6.00;" x="498" y="1351">description</text>
<text text-anchor="middle" style="font-size:6.00;" x="533" y="1351">text</text>
<text text-anchor="middle" style="font-size:6.00;" x="492" y="1363">owner</text>
<text text-anchor="middle" style="font-size:6.00;" x="536" y="1363">integer</text>
<text text-anchor="middle" style="font-size:6.00;" x="581" y="1363"> REFERENCES person </text>
<text text-anchor="middle" style="font-size:6.00;" x="493" y="1375">product</text>
<text text-anchor="middle" style="font-size:6.00;" x="536" y="1375">integer</text>
<text text-anchor="middle" style="font-size:6.00;" x="582" y="1375"> REFERENCES product </text>
<polygon style="fill:none;stroke:black;" points="478,1381 478,1291 636,1291 636,1381 478,1381"/>
</g>
<g id="node3" class="node"><title>product</title>
<polygon style="fill:#c1cdcc;stroke:#c1cdcc;" points="562,1100 562,794 750,794 750,1100 562,1100"/>
<polygon style="fill:white;stroke:white;" points="565,809 565,797 747,797 747,809 565,809"/>
<text text-anchor="middle" style="font-size:6.00;" x="656" y="805">product</text>
<polygon style="fill:none;stroke:black;" points="565,809 565,797 747,797 747,809 565,809"/>
<text text-anchor="middle" style="font-size:6.00;" x="570" y="818">id</text>
<text text-anchor="middle" style="font-size:6.00;" x="635" y="818">serial</text>
<text text-anchor="middle" style="font-size:6.00;" x="684" y="818"> PRIMARY KEY </text>
<text text-anchor="middle" style="font-size:6.00;" x="576" y="830">project</text>
<text text-anchor="middle" style="font-size:6.00;" x="637" y="830">integer</text>
<text text-anchor="middle" style="font-size:6.00;" x="691" y="830"> REFERENCES project </text>
<text text-anchor="middle" style="font-size:6.00;" x="576" y="842">owner</text>
<text text-anchor="middle" style="font-size:6.00;" x="637" y="842">integer</text>
<text text-anchor="middle" style="font-size:6.00;" x="691" y="842"> REFERENCES person </text>
<text text-anchor="middle" style="font-size:6.00;" x="575" y="854">name</text>
<text text-anchor="middle" style="font-size:6.00;" x="634" y="854">text</text>
<text text-anchor="middle" style="font-size:6.00;" x="675" y="854"> UNIQUE </text>
<text text-anchor="middle" style="font-size:6.00;" x="583" y="866">displayname</text>
<text text-anchor="middle" style="font-size:6.00;" x="634" y="866">text</text>
<text text-anchor="middle" style="font-size:6.00;" x="573" y="878">title</text>
<text text-anchor="middle" style="font-size:6.00;" x="634" y="878">text</text>
<text text-anchor="middle" style="font-size:6.00;" x="579" y="890">summary</text>
<text text-anchor="middle" style="font-size:6.00;" x="634" y="890">text</text>
<text text-anchor="middle" style="font-size:6.00;" x="582" y="902">description</text>
<text text-anchor="middle" style="font-size:6.00;" x="634" y="902">text</text>
<text text-anchor="middle" style="font-size:6.00;" x="582" y="914">datecreated</text>
<text text-anchor="middle" style="font-size:6.00;" x="642" y="914">timestamp</text>
<text text-anchor="middle" style="font-size:6.00;" x="584" y="926">homepageurl</text>
<text text-anchor="middle" style="font-size:6.00;" x="634" y="926">text</text>
<text text-anchor="middle" style="font-size:6.00;" x="585" y="938">screenshotsurl</text>
<text text-anchor="middle" style="font-size:6.00;" x="634" y="938">text</text>
<text text-anchor="middle" style="font-size:6.00;" x="577" y="950">wikiurl</text>
<text text-anchor="middle" style="font-size:6.00;" x="634" y="950">text</text>
<text text-anchor="middle" style="font-size:6.00;" x="575" y="962">listurl</text>
<text text-anchor="middle" style="font-size:6.00;" x="634" y="962">text</text>
<text text-anchor="middle" style="font-size:6.00;" x="590" y="974">programminglang</text>
<text text-anchor="middle" style="font-size:6.00;" x="634" y="974">text</text>
<text text-anchor="middle" style="font-size:6.00;" x="584" y="986">downloadurl</text>
<text text-anchor="middle" style="font-size:6.00;" x="634" y="986">text</text>
<text text-anchor="middle" style="font-size:6.00;" x="578" y="998">lastdoap</text>
<text text-anchor="middle" style="font-size:6.00;" x="634" y="998">text</text>
<text text-anchor="middle" style="font-size:6.00;" x="590" y="1010">sourceforgeproject</text>
<text text-anchor="middle" style="font-size:6.00;" x="634" y="1010">text</text>
<text text-anchor="middle" style="font-size:6.00;" x="588" y="1022">freshmeatproject</text>
<text text-anchor="middle" style="font-size:6.00;" x="634" y="1022">text</text>
<text text-anchor="middle" style="font-size:6.00;" x="579" y="1034">reviewed</text>
<text text-anchor="middle" style="font-size:6.00;" x="639" y="1034">boolean</text>
<text text-anchor="middle" style="font-size:6.00;" x="575" y="1046">active</text>
<text text-anchor="middle" style="font-size:6.00;" x="639" y="1046">boolean</text>
<text text-anchor="middle" style="font-size:6.00;" x="571" y="1058">fti</text>
<text text-anchor="middle" style="font-size:6.00;" x="639" y="1058">tsvector</text>
<text text-anchor="middle" style="font-size:6.00;" x="582" y="1070">autoupdate</text>
<text text-anchor="middle" style="font-size:6.00;" x="639" y="1070">boolean</text>
<text text-anchor="middle" style="font-size:6.00;" x="588" y="1082">translationgroup</text>
<text text-anchor="middle" style="font-size:6.00;" x="637" y="1082">integer</text>
<text text-anchor="middle" style="font-size:6.00;" x="703" y="1082"> REFERENCES translationgroup </text>
<text text-anchor="middle" style="font-size:6.00;" x="594" y="1094">translationpermission</text>
<text text-anchor="middle" style="font-size:6.00;" x="637" y="1094">integer</text>
<polygon style="fill:none;stroke:black;" points="562,1100 562,794 750,794 750,1100 562,1100"/>
</g>
<g id="edge6" class="edge"><title>branch&#45;&gt;product</title>
<path style="fill:none;stroke:black;" d="M570,1287C580,1243 597,1177 614,1114"/>
<polygon style="fill:black;stroke:black;" points="611,1113 616,1104 617,1114 611,1113"/>
</g>
<g id="node15" class="node"><title>fake_archnamespace_23</title>
<ellipse cx="352" cy="1399" rx="30" ry="18" style="fill:none;stroke:red;"/>
<text text-anchor="middle" style="font-size:6.00;" x="352" y="1401">archnamespace</text>
</g>
<g id="edge2" class="edge"><title>branch&#45;&gt;fake_archnamespace_23</title>
<path style="fill:none;stroke:black;" d="M470,1363C441,1372 411,1381 389,1388"/>
<polygon style="fill:black;stroke:black;" points="390,1391 379,1391 388,1385 390,1391"/>
</g>
<g id="node17" class="node"><title>fake_person_25</title>
<ellipse cx="673" cy="1512" rx="27" ry="18" style="fill:none;stroke:red;"/>
<text text-anchor="middle" style="font-size:6.00;" x="673" y="1514">person</text>
</g>
<g id="edge4" class="edge"><title>branch&#45;&gt;fake_person_25</title>
<path style="fill:none;stroke:black;" d="M589,1385C611,1418 639,1460 656,1487"/>
<polygon style="fill:black;stroke:black;" points="659,1485 662,1495 653,1489 659,1485"/>
</g>
<g id="node2" class="node"><title>milestone</title>
<polygon style="fill:#c1cdcc;stroke:#c1cdcc;" points="951,855 951,789 1099,789 1099,855 951,855"/>
<polygon style="fill:white;stroke:white;" points="954,804 954,792 1096,792 1096,804 954,804"/>
<text text-anchor="middle" style="font-size:6.00;" x="1025" y="800">milestone</text>
<polygon style="fill:none;stroke:black;" points="954,804 954,792 1096,792 1096,804 954,804"/>
<text text-anchor="middle" style="font-size:6.00;" x="959" y="813">id</text>
<text text-anchor="middle" style="font-size:6.00;" x="990" y="813">serial</text>
<text text-anchor="middle" style="font-size:6.00;" x="1030" y="813"> PRIMARY KEY </text>
<text text-anchor="middle" style="font-size:6.00;" x="966" y="825">product</text>
<text text-anchor="middle" style="font-size:6.00;" x="992" y="825">integer</text>
<text text-anchor="middle" style="font-size:6.00;" x="1051" y="825"> REFERENCES product UNIQUE </text>
<text text-anchor="middle" style="font-size:6.00;" x="964" y="837">name</text>
<text text-anchor="middle" style="font-size:6.00;" x="989" y="837">text</text>
<text text-anchor="middle" style="font-size:6.00;" x="1021" y="837"> UNIQUE </text>
<text text-anchor="middle" style="font-size:6.00;" x="962" y="849">title</text>
<text text-anchor="middle" style="font-size:6.00;" x="989" y="849">text</text>
<polygon style="fill:none;stroke:black;" points="951,855 951,789 1099,789 1099,855 951,855"/>
</g>
<g id="edge8" class="edge"><title>milestone&#45;&gt;product</title>
<path style="fill:none;stroke:black;" d="M943,850C891,868 824,890 768,909"/>
<polygon style="fill:black;stroke:black;" points="769,912 758,912 767,906 769,912"/>
</g>
<g id="node12" class="node"><title>project</title>
<polygon style="fill:#c1cdcc;stroke:#c1cdcc;" points="603,527 603,293 791,293 791,527 603,527"/>
<polygon style="fill:white;stroke:white;" points="606,308 606,296 788,296 788,308 606,308"/>
<text text-anchor="middle" style="font-size:6.00;" x="697" y="304">project</text>
<polygon style="fill:none;stroke:black;" points="606,308 606,296 788,296 788,308 606,308"/>
<text text-anchor="middle" style="font-size:6.00;" x="611" y="317">id</text>
<text text-anchor="middle" style="font-size:6.00;" x="676" y="317">serial</text>
<text text-anchor="middle" style="font-size:6.00;" x="725" y="317"> PRIMARY KEY </text>
<text text-anchor="middle" style="font-size:6.00;" x="617" y="329">owner</text>
<text text-anchor="middle" style="font-size:6.00;" x="678" y="329">integer</text>
<text text-anchor="middle" style="font-size:6.00;" x="732" y="329"> REFERENCES person </text>
<text text-anchor="middle" style="font-size:6.00;" x="616" y="341">name</text>
<text text-anchor="middle" style="font-size:6.00;" x="675" y="341">text</text>
<text text-anchor="middle" style="font-size:6.00;" x="716" y="341"> UNIQUE </text>
<text text-anchor="middle" style="font-size:6.00;" x="624" y="353">displayname</text>
<text text-anchor="middle" style="font-size:6.00;" x="675" y="353">text</text>
<text text-anchor="middle" style="font-size:6.00;" x="614" y="365">title</text>
<text text-anchor="middle" style="font-size:6.00;" x="675" y="365">text</text>
<text text-anchor="middle" style="font-size:6.00;" x="620" y="377">summary</text>
<text text-anchor="middle" style="font-size:6.00;" x="675" y="377">text</text>
<text text-anchor="middle" style="font-size:6.00;" x="623" y="389">description</text>
<text text-anchor="middle" style="font-size:6.00;" x="675" y="389">text</text>
<text text-anchor="middle" style="font-size:6.00;" x="623" y="401">datecreated</text>
<text text-anchor="middle" style="font-size:6.00;" x="683" y="401">timestamp</text>
<text text-anchor="middle" style="font-size:6.00;" x="625" y="413">homepageurl</text>
<text text-anchor="middle" style="font-size:6.00;" x="675" y="413">text</text>
<text text-anchor="middle" style="font-size:6.00;" x="618" y="425">wikiurl</text>
<text text-anchor="middle" style="font-size:6.00;" x="675" y="425">text</text>
<text text-anchor="middle" style="font-size:6.00;" x="619" y="437">lastdoap</text>
<text text-anchor="middle" style="font-size:6.00;" x="675" y="437">text</text>
<text text-anchor="middle" style="font-size:6.00;" x="631" y="449">sourceforgeproject</text>
<text text-anchor="middle" style="font-size:6.00;" x="675" y="449">text</text>
<text text-anchor="middle" style="font-size:6.00;" x="629" y="461">freshmeatproject</text>
<text text-anchor="middle" style="font-size:6.00;" x="675" y="461">text</text>
<text text-anchor="middle" style="font-size:6.00;" x="620" y="473">reviewed</text>
<text text-anchor="middle" style="font-size:6.00;" x="680" y="473">boolean</text>
<text text-anchor="middle" style="font-size:6.00;" x="616" y="485">active</text>
<text text-anchor="middle" style="font-size:6.00;" x="680" y="485">boolean</text>
<text text-anchor="middle" style="font-size:6.00;" x="612" y="497">fti</text>
<text text-anchor="middle" style="font-size:6.00;" x="680" y="497">tsvector</text>
<text text-anchor="middle" style="font-size:6.00;" x="629" y="509">translationgroup</text>
<text text-anchor="middle" style="font-size:6.00;" x="678" y="509">integer</text>
<text text-anchor="middle" style="font-size:6.00;" x="744" y="509"> REFERENCES translationgroup </text>
<text text-anchor="middle" style="font-size:6.00;" x="635" y="521">translationpermission</text>
<text text-anchor="middle" style="font-size:6.00;" x="678" y="521">integer</text>
<polygon style="fill:none;stroke:black;" points="603,527 603,293 791,293 791,527 603,527"/>
</g>
<g id="edge10" class="edge"><title>product&#45;&gt;project</title>
<path style="fill:none;stroke:black;" d="M668,790C674,711 681,616 687,541"/>
<polygon style="fill:black;stroke:black;" points="684,541 688,531 690,541 684,541"/>
</g>
<g id="node14" class="node"><title>translationgroup</title>
<polygon style="fill:#c1cdcc;stroke:#c1cdcc;" points="850,659 850,569 988,569 988,659 850,659"/>
<polygon style="fill:white;stroke:white;" points="853,584 853,572 985,572 985,584 853,584"/>
<text text-anchor="middle" style="font-size:6.00;" x="919" y="580">translationgroup</text>
<polygon style="fill:none;stroke:black;" points="853,584 853,572 985,572 985,584 853,584"/>
<text text-anchor="middle" style="font-size:6.00;" x="858" y="593">id</text>
<text text-anchor="middle" style="font-size:6.00;" x="897" y="593">serial</text>
<text text-anchor="middle" style="font-size:6.00;" x="946" y="593"> PRIMARY KEY </text>
<text text-anchor="middle" style="font-size:6.00;" x="863" y="605">name</text>
<text text-anchor="middle" style="font-size:6.00;" x="896" y="605">text</text>
<text text-anchor="middle" style="font-size:6.00;" x="937" y="605"> UNIQUE </text>
<text text-anchor="middle" style="font-size:6.00;" x="861" y="617">title</text>
<text text-anchor="middle" style="font-size:6.00;" x="896" y="617">text</text>
<text text-anchor="middle" style="font-size:6.00;" x="867" y="629">summary</text>
<text text-anchor="middle" style="font-size:6.00;" x="896" y="629">text</text>
<text text-anchor="middle" style="font-size:6.00;" x="870" y="641">datecreated</text>
<text text-anchor="middle" style="font-size:6.00;" x="904" y="641">timestamp</text>
<text text-anchor="middle" style="font-size:6.00;" x="864" y="653">owner</text>
<text text-anchor="middle" style="font-size:6.00;" x="899" y="653">integer</text>
<text text-anchor="middle" style="font-size:6.00;" x="953" y="653"> REFERENCES person </text>
<polygon style="fill:none;stroke:black;" points="850,659 850,569 988,569 988,659 850,659"/>
</g>
<g id="edge14" class="edge"><title>product&#45;&gt;translationgroup</title>
<path style="fill:none;stroke:black;" d="M758,818C798,767 842,711 874,671"/>
<polygon style="fill:black;stroke:black;" points="871,669 880,663 877,673 871,669"/>
</g>
<g id="node22" class="node"><title>fake_person_209</title>
<ellipse cx="952" cy="959" rx="27" ry="18" style="fill:none;stroke:red;"/>
<text text-anchor="middle" style="font-size:6.00;" x="952" y="961">person</text>
</g>
<g id="edge12" class="edge"><title>product&#45;&gt;fake_person_209</title>
<path style="fill:none;stroke:black;" d="M758,951C812,954 875,956 915,958"/>
<polygon style="fill:black;stroke:black;" points="915,954 925,958 915,961 915,954"/>
</g>
<g id="node4" class="node"><title>productbkbranch</title>
<polygon style="fill:#c1cdcc;stroke:#c1cdcc;" points="301,762 301,696 431,696 431,762 301,762"/>
<polygon style="fill:white;stroke:white;" points="304,711 304,699 428,699 428,711 304,711"/>
<text text-anchor="middle" style="font-size:6.00;" x="366" y="707">productbkbranch</text>
<polygon style="fill:none;stroke:black;" points="304,711 304,699 428,699 428,711 304,711"/>
<text text-anchor="middle" style="font-size:6.00;" x="309" y="720">id</text>
<text text-anchor="middle" style="font-size:6.00;" x="347" y="720">serial</text>
<text text-anchor="middle" style="font-size:6.00;" x="387" y="720"> PRIMARY KEY </text>
<text text-anchor="middle" style="font-size:6.00;" x="316" y="732">product</text>
<text text-anchor="middle" style="font-size:6.00;" x="349" y="732">integer</text>
<text text-anchor="middle" style="font-size:6.00;" x="395" y="732"> REFERENCES product </text>
<text text-anchor="middle" style="font-size:6.00;" x="320" y="744">locationurl</text>
<text text-anchor="middle" style="font-size:6.00;" x="346" y="744">text</text>
<text text-anchor="middle" style="font-size:6.00;" x="315" y="756">weburl</text>
<text text-anchor="middle" style="font-size:6.00;" x="346" y="756">text</text>
<polygon style="fill:none;stroke:black;" points="301,762 301,696 431,696 431,762 301,762"/>
</g>
<g id="edge16" class="edge"><title>productbkbranch&#45;&gt;product</title>
<path style="fill:none;stroke:black;" d="M416,766C451,792 501,830 546,864"/>
<polygon style="fill:black;stroke:black;" points="548,861 554,870 544,867 548,861"/>
</g>
<g id="node5" class="node"><title>productbranchrelationship</title>
<polygon style="fill:#c1cdcc;stroke:#c1cdcc;" points="715,1300 715,1234 837,1234 837,1300 715,1300"/>
<polygon style="fill:white;stroke:white;" points="718,1249 718,1237 834,1237 834,1249 718,1249"/>
<text text-anchor="middle" style="font-size:6.00;" x="776" y="1245">productbranchrelationship</text>
<polygon style="fill:none;stroke:black;" points="718,1249 718,1237 834,1237 834,1249 718,1249"/>
<text text-anchor="middle" style="font-size:6.00;" x="723" y="1258">id</text>
<text text-anchor="middle" style="font-size:6.00;" x="753" y="1258">serial</text>
<text text-anchor="middle" style="font-size:6.00;" x="793" y="1258"> PRIMARY KEY </text>
<text text-anchor="middle" style="font-size:6.00;" x="730" y="1270">product</text>
<text text-anchor="middle" style="font-size:6.00;" x="755" y="1270">integer</text>
<text text-anchor="middle" style="font-size:6.00;" x="801" y="1270"> REFERENCES product </text>
<text text-anchor="middle" style="font-size:6.00;" x="729" y="1282">branch</text>
<text text-anchor="middle" style="font-size:6.00;" x="755" y="1282">integer</text>
<text text-anchor="middle" style="font-size:6.00;" x="800" y="1282"> REFERENCES branch </text>
<text text-anchor="middle" style="font-size:6.00;" x="727" y="1294">label</text>
<text text-anchor="middle" style="font-size:6.00;" x="755" y="1294">integer</text>
<polygon style="fill:none;stroke:black;" points="715,1300 715,1234 837,1234 837,1300 715,1300"/>
</g>
<g id="edge20" class="edge"><title>productbranchrelationship&#45;&gt;branch</title>
<path style="fill:none;stroke:black;" d="M707,1289C690,1294 672,1300 654,1306"/>
<polygon style="fill:black;stroke:black;" points="655,1309 644,1309 653,1303 655,1309"/>
</g>
<g id="edge18" class="edge"><title>productbranchrelationship&#45;&gt;product</title>
<path style="fill:none;stroke:black;" d="M762,1230C751,1201 735,1157 719,1113"/>
<polygon style="fill:black;stroke:black;" points="716,1115 715,1104 722,1112 716,1115"/>
</g>
<g id="node6" class="node"><title>productcvsmodule</title>
<polygon style="fill:#c1cdcc;stroke:#c1cdcc;" points="457,653 457,575 583,575 583,653 457,653"/>
<polygon style="fill:white;stroke:white;" points="460,590 460,578 580,578 580,590 460,590"/>
<text text-anchor="middle" style="font-size:6.00;" x="520" y="586">productcvsmodule</text>
<polygon style="fill:none;stroke:black;" points="460,590 460,578 580,578 580,590 460,590"/>
<text text-anchor="middle" style="font-size:6.00;" x="465" y="599">id</text>
<text text-anchor="middle" style="font-size:6.00;" x="499" y="599">serial</text>
<text text-anchor="middle" style="font-size:6.00;" x="539" y="599"> PRIMARY KEY </text>
<text text-anchor="middle" style="font-size:6.00;" x="472" y="611">product</text>
<text text-anchor="middle" style="font-size:6.00;" x="501" y="611">integer</text>
<text text-anchor="middle" style="font-size:6.00;" x="547" y="611"> REFERENCES product </text>
<text text-anchor="middle" style="font-size:6.00;" x="474" y="623">anonroot</text>
<text text-anchor="middle" style="font-size:6.00;" x="498" y="623">text</text>
<text text-anchor="middle" style="font-size:6.00;" x="472" y="635">module</text>
<text text-anchor="middle" style="font-size:6.00;" x="498" y="635">text</text>
<text text-anchor="middle" style="font-size:6.00;" x="471" y="647">weburl</text>
<text text-anchor="middle" style="font-size:6.00;" x="498" y="647">text</text>
<polygon style="fill:none;stroke:black;" points="457,653 457,575 583,575 583,653 457,653"/>
</g>
<g id="edge22" class="edge"><title>productcvsmodule&#45;&gt;product</title>
<path style="fill:none;stroke:black;" d="M538,657C551,689 569,735 588,781"/>
<polygon style="fill:black;stroke:black;" points="591,779 592,790 585,782 591,779"/>
</g>
<g id="node7" class="node"><title>productlabel</title>
<polygon style="fill:#c1cdcc;stroke:#c1cdcc;" points="162,917 162,863 310,863 310,917 162,917"/>
<polygon style="fill:white;stroke:white;" points="165,878 165,866 307,866 307,878 165,878"/>
<text text-anchor="middle" style="font-size:6.00;" x="236" y="874">productlabel</text>
<polygon style="fill:none;stroke:black;" points="165,878 165,866 307,866 307,878 165,878"/>
<text text-anchor="middle" style="font-size:6.00;" x="170" y="887">id</text>
<text text-anchor="middle" style="font-size:6.00;" x="201" y="887">serial</text>
<text text-anchor="middle" style="font-size:6.00;" x="241" y="887"> PRIMARY KEY </text>
<text text-anchor="middle" style="font-size:6.00;" x="177" y="899">product</text>
<text text-anchor="middle" style="font-size:6.00;" x="203" y="899">integer</text>
<text text-anchor="middle" style="font-size:6.00;" x="262" y="899"> REFERENCES product UNIQUE </text>
<text text-anchor="middle" style="font-size:6.00;" x="174" y="911">label</text>
<text text-anchor="middle" style="font-size:6.00;" x="203" y="911">integer</text>
<text text-anchor="middle" style="font-size:6.00;" x="258" y="911"> REFERENCES label UNIQUE </text>
<polygon style="fill:none;stroke:black;" points="162,917 162,863 310,863 310,917 162,917"/>
</g>
<g id="edge24" class="edge"><title>productlabel&#45;&gt;product</title>
<path style="fill:none;stroke:black;" d="M318,901C382,910 472,922 544,932"/>
<polygon style="fill:black;stroke:black;" points="544,929 554,933 544,935 544,929"/>
</g>
<g id="node30" class="node"><title>fake_label_219</title>
<ellipse cx="33" cy="846" rx="27" ry="18" style="fill:none;stroke:red;"/>
<text text-anchor="middle" style="font-size:6.00;" x="33" y="848">label</text>
</g>
<g id="edge26" class="edge"><title>productlabel&#45;&gt;fake_label_219</title>
<path style="fill:none;stroke:black;" d="M154,872C124,866 92,859 69,854"/>
<polygon style="fill:black;stroke:black;" points="68,857 59,852 69,851 68,857"/>
</g>
<g id="node8" class="node"><title>productrelease</title>
<polygon style="fill:#c1cdcc;stroke:#c1cdcc;" points="307,2184 307,2034 467,2034 467,2184 307,2184"/>
<polygon style="fill:white;stroke:white;" points="310,2049 310,2037 464,2037 464,2049 310,2049"/>
<text text-anchor="middle" style="font-size:6.00;" x="387" y="2045">productrelease</text>
<polygon style="fill:none;stroke:black;" points="310,2049 310,2037 464,2037 464,2049 310,2049"/>
<text text-anchor="middle" style="font-size:6.00;" x="315" y="2058">id</text>
<text text-anchor="middle" style="font-size:6.00;" x="360" y="2058">serial</text>
<text text-anchor="middle" style="font-size:6.00;" x="409" y="2058"> PRIMARY KEY </text>
<text text-anchor="middle" style="font-size:6.00;" x="328" y="2070">datereleased</text>
<text text-anchor="middle" style="font-size:6.00;" x="367" y="2070">timestamp</text>
<text text-anchor="middle" style="font-size:6.00;" x="322" y="2082">version</text>
<text text-anchor="middle" style="font-size:6.00;" x="359" y="2082">text</text>
<text text-anchor="middle" style="font-size:6.00;" x="318" y="2094">title</text>
<text text-anchor="middle" style="font-size:6.00;" x="359" y="2094">text</text>
<text text-anchor="middle" style="font-size:6.00;" x="327" y="2106">description</text>
<text text-anchor="middle" style="font-size:6.00;" x="359" y="2106">text</text>
<text text-anchor="middle" style="font-size:6.00;" x="326" y="2118">changelog</text>
<text text-anchor="middle" style="font-size:6.00;" x="359" y="2118">text</text>
<text text-anchor="middle" style="font-size:6.00;" x="321" y="2130">owner</text>
<text text-anchor="middle" style="font-size:6.00;" x="362" y="2130">integer</text>
<text text-anchor="middle" style="font-size:6.00;" x="416" y="2130"> REFERENCES person </text>
<text text-anchor="middle" style="font-size:6.00;" x="324" y="2142">summary</text>
<text text-anchor="middle" style="font-size:6.00;" x="359" y="2142">text</text>
<text text-anchor="middle" style="font-size:6.00;" x="329" y="2154">productseries</text>
<text text-anchor="middle" style="font-size:6.00;" x="362" y="2154">integer</text>
<text text-anchor="middle" style="font-size:6.00;" x="424" y="2154"> REFERENCES productseries </text>
<text text-anchor="middle" style="font-size:6.00;" x="323" y="2166">manifest</text>
<text text-anchor="middle" style="font-size:6.00;" x="362" y="2166">integer</text>
<text text-anchor="middle" style="font-size:6.00;" x="418" y="2166"> REFERENCES manifest </text>
<text text-anchor="middle" style="font-size:6.00;" x="327" y="2178">datecreated</text>
<text text-anchor="middle" style="font-size:6.00;" x="367" y="2178">timestamp</text>
<polygon style="fill:none;stroke:black;" points="307,2184 307,2034 467,2034 467,2184 307,2184"/>
</g>
<g id="node10" class="node"><title>productseries</title>
<polygon style="fill:#c1cdcc;stroke:#c1cdcc;" points="408,1771 408,1405 598,1405 598,1771 408,1771"/>
<polygon style="fill:white;stroke:white;" points="411,1420 411,1408 595,1408 595,1420 411,1420"/>
<text text-anchor="middle" style="font-size:6.00;" x="503" y="1416">productseries</text>
<polygon style="fill:none;stroke:black;" points="411,1420 411,1408 595,1408 595,1420 411,1420"/>
<text text-anchor="middle" style="font-size:6.00;" x="416" y="1429">id</text>
<text text-anchor="middle" style="font-size:6.00;" x="480" y="1429">serial</text>
<text text-anchor="middle" style="font-size:6.00;" x="529" y="1429"> PRIMARY KEY </text>
<text text-anchor="middle" style="font-size:6.00;" x="423" y="1441">product</text>
<text text-anchor="middle" style="font-size:6.00;" x="482" y="1441">integer</text>
<text text-anchor="middle" style="font-size:6.00;" x="550" y="1441"> REFERENCES product UNIQUE </text>
<text text-anchor="middle" style="font-size:6.00;" x="421" y="1453">name</text>
<text text-anchor="middle" style="font-size:6.00;" x="479" y="1453">text</text>
<text text-anchor="middle" style="font-size:6.00;" x="520" y="1453"> UNIQUE </text>
<text text-anchor="middle" style="font-size:6.00;" x="429" y="1465">displayname</text>
<text text-anchor="middle" style="font-size:6.00;" x="479" y="1465">text</text>
<text text-anchor="middle" style="font-size:6.00;" x="425" y="1477">summary</text>
<text text-anchor="middle" style="font-size:6.00;" x="479" y="1477">text</text>
<text text-anchor="middle" style="font-size:6.00;" x="422" y="1489">branch</text>
<text text-anchor="middle" style="font-size:6.00;" x="482" y="1489">integer</text>
<text text-anchor="middle" style="font-size:6.00;" x="548" y="1489"> REFERENCES branch UNIQUE </text>
<text text-anchor="middle" style="font-size:6.00;" x="429" y="1501">importstatus</text>
<text text-anchor="middle" style="font-size:6.00;" x="482" y="1501">integer</text>
<text text-anchor="middle" style="font-size:6.00;" x="432" y="1513">datelastsynced</text>
<text text-anchor="middle" style="font-size:6.00;" x="487" y="1513">timestamp</text>
<text text-anchor="middle" style="font-size:6.00;" x="428" y="1525">syncinterval</text>
<text text-anchor="middle" style="font-size:6.00;" x="483" y="1525">interval</text>
<text text-anchor="middle" style="font-size:6.00;" x="423" y="1537">rcstype</text>
<text text-anchor="middle" style="font-size:6.00;" x="482" y="1537">integer</text>
<text text-anchor="middle" style="font-size:6.00;" x="423" y="1549">cvsroot</text>
<text text-anchor="middle" style="font-size:6.00;" x="479" y="1549">text</text>
<text text-anchor="middle" style="font-size:6.00;" x="520" y="1549"> UNIQUE </text>
<text text-anchor="middle" style="font-size:6.00;" x="427" y="1561">cvsmodule</text>
<text text-anchor="middle" style="font-size:6.00;" x="479" y="1561">text</text>
<text text-anchor="middle" style="font-size:6.00;" x="520" y="1561"> UNIQUE </text>
<text text-anchor="middle" style="font-size:6.00;" x="426" y="1573">cvsbranch</text>
<text text-anchor="middle" style="font-size:6.00;" x="479" y="1573">text</text>
<text text-anchor="middle" style="font-size:6.00;" x="520" y="1573"> UNIQUE </text>
<text text-anchor="middle" style="font-size:6.00;" x="429" y="1585">cvstarfileurl</text>
<text text-anchor="middle" style="font-size:6.00;" x="479" y="1585">text</text>
<text text-anchor="middle" style="font-size:6.00;" x="430" y="1597">svnrepository</text>
<text text-anchor="middle" style="font-size:6.00;" x="479" y="1597">text</text>
<text text-anchor="middle" style="font-size:6.00;" x="520" y="1597"> UNIQUE </text>
<text text-anchor="middle" style="font-size:6.00;" x="430" y="1609">bkrepository</text>
<text text-anchor="middle" style="font-size:6.00;" x="479" y="1609">text</text>
<text text-anchor="middle" style="font-size:6.00;" x="520" y="1609"> UNIQUE </text>
<text text-anchor="middle" style="font-size:6.00;" x="427" y="1621">releaseroot</text>
<text text-anchor="middle" style="font-size:6.00;" x="479" y="1621">text</text>
<text text-anchor="middle" style="font-size:6.00;" x="432" y="1633">releasefileglob</text>
<text text-anchor="middle" style="font-size:6.00;" x="479" y="1633">text</text>
<text text-anchor="middle" style="font-size:6.00;" x="432" y="1645">releaseverstyle</text>
<text text-anchor="middle" style="font-size:6.00;" x="482" y="1645">integer</text>
<text text-anchor="middle" style="font-size:6.00;" x="435" y="1657">targetarcharchive</text>
<text text-anchor="middle" style="font-size:6.00;" x="479" y="1657">text</text>
<text text-anchor="middle" style="font-size:6.00;" x="520" y="1657"> UNIQUE </text>
<text text-anchor="middle" style="font-size:6.00;" x="437" y="1669">targetarchcategory</text>
<text text-anchor="middle" style="font-size:6.00;" x="479" y="1669">text</text>
<text text-anchor="middle" style="font-size:6.00;" x="520" y="1669"> UNIQUE </text>
<text text-anchor="middle" style="font-size:6.00;" x="434" y="1681">targetarchbranch</text>
<text text-anchor="middle" style="font-size:6.00;" x="479" y="1681">text</text>
<text text-anchor="middle" style="font-size:6.00;" x="520" y="1681"> UNIQUE </text>
<text text-anchor="middle" style="font-size:6.00;" x="435" y="1693">targetarchversion</text>
<text text-anchor="middle" style="font-size:6.00;" x="479" y="1693">text</text>
<text text-anchor="middle" style="font-size:6.00;" x="520" y="1693"> UNIQUE </text>
<text text-anchor="middle" style="font-size:6.00;" x="431" y="1705">dateautotested</text>
<text text-anchor="middle" style="font-size:6.00;" x="487" y="1705">timestamp</text>
<text text-anchor="middle" style="font-size:6.00;" x="440" y="1717">dateprocessapproved</text>
<text text-anchor="middle" style="font-size:6.00;" x="487" y="1717">timestamp</text>
<text text-anchor="middle" style="font-size:6.00;" x="436" y="1729">datesyncapproved</text>
<text text-anchor="middle" style="font-size:6.00;" x="487" y="1729">timestamp</text>
<text text-anchor="middle" style="font-size:6.00;" x="427" y="1741">datestarted</text>
<text text-anchor="middle" style="font-size:6.00;" x="487" y="1741">timestamp</text>
<text text-anchor="middle" style="font-size:6.00;" x="429" y="1753">datefinished</text>
<text text-anchor="middle" style="font-size:6.00;" x="487" y="1753">timestamp</text>
<text text-anchor="middle" style="font-size:6.00;" x="428" y="1765">datecreated</text>
<text text-anchor="middle" style="font-size:6.00;" x="487" y="1765">timestamp</text>
<polygon style="fill:none;stroke:black;" points="408,1771 408,1405 598,1405 598,1771 408,1771"/>
</g>
<g id="edge30" class="edge"><title>productrelease&#45;&gt;productseries</title>
<path style="fill:none;stroke:black;" d="M405,2030C419,1965 440,1870 459,1785"/>
<polygon style="fill:black;stroke:black;" points="456,1784 461,1775 462,1785 456,1784"/>
</g>
<g id="node32" class="node"><title>fake_person_221</title>
<ellipse cx="192" cy="2228" rx="27" ry="18" style="fill:none;stroke:red;"/>
<text text-anchor="middle" style="font-size:6.00;" x="192" y="2230">person</text>
</g>
<g id="edge28" class="edge"><title>productrelease&#45;&gt;fake_person_221</title>
<path style="fill:none;stroke:black;" d="M299,2163C271,2180 242,2198 221,2211"/>
<polygon style="fill:black;stroke:black;" points="222,2214 212,2216 219,2208 222,2214"/>
</g>
<g id="node35" class="node"><title>fake_manifest_224</title>
<ellipse cx="513" cy="2300" rx="27" ry="18" style="fill:none;stroke:red;"/>
<text text-anchor="middle" style="font-size:6.00;" x="513" y="2302">manifest</text>
</g>
<g id="edge32" class="edge"><title>productrelease&#45;&gt;fake_manifest_224</title>
<path style="fill:none;stroke:black;" d="M439,2188C460,2220 482,2253 496,2275"/>
<polygon style="fill:black;stroke:black;" points="499,2273 502,2283 493,2277 499,2273"/>
</g>
<g id="node9" class="node"><title>productreleasefile</title>
<polygon style="fill:#c1cdcc;stroke:#c1cdcc;" points="234,2479 234,2413 390,2413 390,2479 234,2479"/>
<polygon style="fill:white;stroke:white;" points="237,2428 237,2416 387,2416 387,2428 237,2428"/>
<text text-anchor="middle" style="font-size:6.00;" x="312" y="2424">productreleasefile</text>
<polygon style="fill:none;stroke:black;" points="237,2428 237,2416 387,2416 387,2428 237,2428"/>
<text text-anchor="middle" style="font-size:6.00;" x="258" y="2437">productrelease</text>
<text text-anchor="middle" style="font-size:6.00;" x="291" y="2437">integer</text>
<text text-anchor="middle" style="font-size:6.00;" x="346" y="2437"> REFERENCES productrelease </text>
<text text-anchor="middle" style="font-size:6.00;" x="252" y="2449">libraryfile</text>
<text text-anchor="middle" style="font-size:6.00;" x="291" y="2449">integer</text>
<text text-anchor="middle" style="font-size:6.00;" x="346" y="2449"> REFERENCES libraryfilealias </text>
<text text-anchor="middle" style="font-size:6.00;" x="249" y="2461">filetype</text>
<text text-anchor="middle" style="font-size:6.00;" x="291" y="2461">integer</text>
<text text-anchor="middle" style="font-size:6.00;" x="242" y="2473">id</text>
<text text-anchor="middle" style="font-size:6.00;" x="291" y="2473">integer</text>
<text text-anchor="middle" style="font-size:6.00;" x="329" y="2473"> PRIMARY KEY </text>
<polygon style="fill:none;stroke:black;" points="234,2479 234,2413 390,2413 390,2479 234,2479"/>
</g>
<g id="edge34" class="edge"><title>productreleasefile&#45;&gt;productrelease</title>
<path style="fill:none;stroke:black;" d="M320,2409C331,2358 352,2267 367,2198"/>
<polygon style="fill:black;stroke:black;" points="364,2197 369,2188 370,2198 364,2197"/>
</g>
<g id="node38" class="node"><title>fake_libraryfilealias_227</title>
<ellipse cx="267" cy="2648" rx="29" ry="18" style="fill:none;stroke:red;"/>
<text text-anchor="middle" style="font-size:6.00;" x="267" y="2650">libraryfilealias</text>
</g>
<g id="edge36" class="edge"><title>productreleasefile&#45;&gt;fake_libraryfilealias_227</title>
<path style="fill:none;stroke:black;" d="M304,2483C295,2522 281,2584 273,2620"/>
<polygon style="fill:black;stroke:black;" points="276,2621 271,2630 270,2620 276,2621"/>
</g>
<g id="edge40" class="edge"><title>productseries&#45;&gt;branch</title>
<path style="fill:none;stroke:black;" d="M543,1401C543,1399 544,1397 544,1395"/>
<polygon style="fill:black;stroke:black;" points="541,1394 546,1385 547,1395 541,1394"/>
</g>
<g id="edge38" class="edge"><title>productseries&#45;&gt;product</title>
<path style="fill:none;stroke:black;" d="M548,1401C569,1310 595,1202 617,1114"/>
<polygon style="fill:black;stroke:black;" points="614,1113 619,1104 620,1114 614,1113"/>
</g>
<g id="node11" class="node"><title>productsvnmodule</title>
<polygon style="fill:#c1cdcc;stroke:#c1cdcc;" points="932,1154 932,1088 1062,1088 1062,1154 932,1154"/>
<polygon style="fill:white;stroke:white;" points="935,1103 935,1091 1059,1091 1059,1103 935,1103"/>
<text text-anchor="middle" style="font-size:6.00;" x="997" y="1099">productsvnmodule</text>
<polygon style="fill:none;stroke:black;" points="935,1103 935,1091 1059,1091 1059,1103 935,1103"/>
<text text-anchor="middle" style="font-size:6.00;" x="940" y="1112">id</text>
<text text-anchor="middle" style="font-size:6.00;" x="978" y="1112">serial</text>
<text text-anchor="middle" style="font-size:6.00;" x="1018" y="1112"> PRIMARY KEY </text>
<text text-anchor="middle" style="font-size:6.00;" x="947" y="1124">product</text>
<text text-anchor="middle" style="font-size:6.00;" x="980" y="1124">integer</text>
<text text-anchor="middle" style="font-size:6.00;" x="1026" y="1124"> REFERENCES product </text>
<text text-anchor="middle" style="font-size:6.00;" x="951" y="1136">locationurl</text>
<text text-anchor="middle" style="font-size:6.00;" x="977" y="1136">text</text>
<text text-anchor="middle" style="font-size:6.00;" x="946" y="1148">weburl</text>
<text text-anchor="middle" style="font-size:6.00;" x="977" y="1148">text</text>
<polygon style="fill:none;stroke:black;" points="932,1154 932,1088 1062,1088 1062,1154 932,1154"/>
</g>
<g id="edge42" class="edge"><title>productsvnmodule&#45;&gt;product</title>
<path style="fill:none;stroke:black;" d="M924,1084C879,1060 819,1030 767,1004"/>
<polygon style="fill:black;stroke:black;" points="765,1007 758,999 768,1001 765,1007"/>
</g>
<g id="edge46" class="edge"><title>project&#45;&gt;translationgroup</title>
<path style="fill:none;stroke:black;" d="M799,504C819,522 839,541 857,558"/>
<polygon style="fill:black;stroke:black;" points="860,556 865,565 855,561 860,556"/>
</g>
<g id="node43" class="node"><title>fake_person_232</title>
<ellipse cx="600" cy="137" rx="27" ry="18" style="fill:none;stroke:red;"/>
<text text-anchor="middle" style="font-size:6.00;" x="600" y="139">person</text>
</g>
<g id="edge44" class="edge"><title>project&#45;&gt;fake_person_232</title>
<path style="fill:none;stroke:black;" d="M654,289C638,242 620,194 609,164"/>
<polygon style="fill:black;stroke:black;" points="606,166 606,155 612,163 606,166"/>
</g>
<g id="node13" class="node"><title>projectrelationship</title>
<polygon style="fill:#c1cdcc;stroke:#c1cdcc;" points="746,115 746,49 864,49 864,115 746,115"/>
<polygon style="fill:white;stroke:white;" points="749,64 749,52 861,52 861,64 749,64"/>
<text text-anchor="middle" style="font-size:6.00;" x="805" y="60">projectrelationship</text>
<polygon style="fill:none;stroke:black;" points="749,64 749,52 861,52 861,64 749,64"/>
<text text-anchor="middle" style="font-size:6.00;" x="754" y="73">id</text>
<text text-anchor="middle" style="font-size:6.00;" x="782" y="73">serial</text>
<text text-anchor="middle" style="font-size:6.00;" x="822" y="73"> PRIMARY KEY </text>
<text text-anchor="middle" style="font-size:6.00;" x="760" y="85">subject</text>
<text text-anchor="middle" style="font-size:6.00;" x="784" y="85">integer</text>
<text text-anchor="middle" style="font-size:6.00;" x="829" y="85"> REFERENCES project </text>
<text text-anchor="middle" style="font-size:6.00;" x="758" y="97">label</text>
<text text-anchor="middle" style="font-size:6.00;" x="784" y="97">integer</text>
<text text-anchor="middle" style="font-size:6.00;" x="760" y="109">object</text>
<text text-anchor="middle" style="font-size:6.00;" x="784" y="109">integer</text>
<text text-anchor="middle" style="font-size:6.00;" x="829" y="109"> REFERENCES project </text>
<polygon style="fill:none;stroke:black;" points="746,115 746,49 864,49 864,115 746,115"/>
</g>
<g id="edge48" class="edge"><title>projectrelationship&#45;&gt;project</title>
<path style="fill:none;stroke:black;" d="M797,119C787,158 766,222 746,279"/>
<polygon style="fill:black;stroke:black;" points="749,280 743,289 743,278 749,280"/>
</g>
<g id="edge50" class="edge"><title>projectrelationship&#45;&gt;project</title>
<path style="fill:none;stroke:black;" d="M788,119C773,158 751,222 733,279"/>
<polygon style="fill:black;stroke:black;" points="736,280 730,289 730,278 736,280"/>
</g>
<g id="node48" class="node"><title>fake_person_276</title>
<ellipse cx="1084" cy="479" rx="27" ry="18" style="fill:none;stroke:red;"/>
<text text-anchor="middle" style="font-size:6.00;" x="1084" y="481">person</text>
</g>
<g id="edge52" class="edge"><title>translationgroup&#45;&gt;fake_person_276</title>
<path style="fill:none;stroke:black;" d="M979,565C1006,542 1038,517 1059,499"/>
<polygon style="fill:black;stroke:black;" points="1057,496 1067,493 1061,502 1057,496"/>
</g>
</g>
</svg>
