<?xml version="1.0" encoding="UTF-8" standalone="no"?>
<!DOCTYPE svg PUBLIC "-//W3C//DTD SVG 1.0//EN"
 "http://www.w3.org/TR/2001/REC-SVG-20010904/DTD/svg10.dtd">
<!-- Generated by fdp version 2.2 (Sat Feb  5 01:37:52 UTC 2005)
     For user: (stub) Stuart Bishop,,,   Title: g    Pages: 1 -->
<svg width="631px" height="535px"
 viewBox = "-1 -1 630 534"
 xmlns="http://www.w3.org/2000/svg">
<g id="graph0" class="graph" transform = "scale(0.415079)"
 style="font-family:Times-Roman;font-size:14.00;">
<title>g</title>
<text text-anchor="middle" style="font-size:22.00;" x="751" y="1268">Doap</text>
<g id="node1" class="node"><title>branch</title>
<polygon style="fill:#c1cdcc;stroke:#c1cdcc;" points="872,259 872,169 1030,169 1030,259 872,259"/>
<polygon style="fill:white;stroke:white;" points="875,184 875,172 1027,172 1027,184 875,184"/>
<text text-anchor="middle" style="font-size:6.00;" x="951" y="180">branch</text>
<polygon style="fill:none;stroke:black;" points="875,184 875,172 1027,172 1027,184 875,184"/>
<text text-anchor="middle" style="font-size:6.00;" x="880" y="193">id</text>
<text text-anchor="middle" style="font-size:6.00;" x="928" y="193">serial</text>
<text text-anchor="middle" style="font-size:6.00;" x="968" y="193"> PRIMARY KEY </text>
<text text-anchor="middle" style="font-size:6.00;" x="896" y="205">archnamespace</text>
<text text-anchor="middle" style="font-size:6.00;" x="930" y="205">integer</text>
<text text-anchor="middle" style="font-size:6.00;" x="985" y="205"> REFERENCES archnamespace </text>
<text text-anchor="middle" style="font-size:6.00;" x="883" y="217">title</text>
<text text-anchor="middle" style="font-size:6.00;" x="927" y="217">text</text>
<text text-anchor="middle" style="font-size:6.00;" x="892" y="229">description</text>
<text text-anchor="middle" style="font-size:6.00;" x="927" y="229">text</text>
<text text-anchor="middle" style="font-size:6.00;" x="886" y="241">owner</text>
<text text-anchor="middle" style="font-size:6.00;" x="930" y="241">integer</text>
<text text-anchor="middle" style="font-size:6.00;" x="975" y="241"> REFERENCES person </text>
<text text-anchor="middle" style="font-size:6.00;" x="887" y="253">product</text>
<text text-anchor="middle" style="font-size:6.00;" x="930" y="253">integer</text>
<text text-anchor="middle" style="font-size:6.00;" x="976" y="253"> REFERENCES product </text>
<polygon style="fill:none;stroke:black;" points="872,259 872,169 1030,169 1030,259 872,259"/>
</g>
<g id="node3" class="node"><title>product</title>
<polygon style="fill:#c1cdcc;stroke:#c1cdcc;" points="1016,688 1016,406 1172,406 1172,688 1016,688"/>
<polygon style="fill:white;stroke:white;" points="1019,421 1019,409 1169,409 1169,421 1019,421"/>
<text text-anchor="middle" style="font-size:6.00;" x="1094" y="417">product</text>
<polygon style="fill:none;stroke:black;" points="1019,421 1019,409 1169,409 1169,421 1019,421"/>
<text text-anchor="middle" style="font-size:6.00;" x="1024" y="430">id</text>
<text text-anchor="middle" style="font-size:6.00;" x="1081" y="430">serial</text>
<text text-anchor="middle" style="font-size:6.00;" x="1130" y="430"> PRIMARY KEY </text>
<text text-anchor="middle" style="font-size:6.00;" x="1030" y="442">project</text>
<text text-anchor="middle" style="font-size:6.00;" x="1083" y="442">integer</text>
<text text-anchor="middle" style="font-size:6.00;" x="1137" y="442"> REFERENCES project </text>
<text text-anchor="middle" style="font-size:6.00;" x="1030" y="454">owner</text>
<text text-anchor="middle" style="font-size:6.00;" x="1083" y="454">integer</text>
<text text-anchor="middle" style="font-size:6.00;" x="1137" y="454"> REFERENCES person </text>
<text text-anchor="middle" style="font-size:6.00;" x="1029" y="466">name</text>
<text text-anchor="middle" style="font-size:6.00;" x="1080" y="466">text</text>
<text text-anchor="middle" style="font-size:6.00;" x="1121" y="466"> UNIQUE </text>
<text text-anchor="middle" style="font-size:6.00;" x="1037" y="478">displayname</text>
<text text-anchor="middle" style="font-size:6.00;" x="1080" y="478">text</text>
<text text-anchor="middle" style="font-size:6.00;" x="1027" y="490">title</text>
<text text-anchor="middle" style="font-size:6.00;" x="1080" y="490">text</text>
<text text-anchor="middle" style="font-size:6.00;" x="1033" y="502">summary</text>
<text text-anchor="middle" style="font-size:6.00;" x="1080" y="502">text</text>
<text text-anchor="middle" style="font-size:6.00;" x="1036" y="514">description</text>
<text text-anchor="middle" style="font-size:6.00;" x="1080" y="514">text</text>
<text text-anchor="middle" style="font-size:6.00;" x="1036" y="526">datecreated</text>
<text text-anchor="middle" style="font-size:6.00;" x="1088" y="526">timestamp</text>
<text text-anchor="middle" style="font-size:6.00;" x="1038" y="538">homepageurl</text>
<text text-anchor="middle" style="font-size:6.00;" x="1080" y="538">text</text>
<text text-anchor="middle" style="font-size:6.00;" x="1039" y="550">screenshotsurl</text>
<text text-anchor="middle" style="font-size:6.00;" x="1080" y="550">text</text>
<text text-anchor="middle" style="font-size:6.00;" x="1031" y="562">wikiurl</text>
<text text-anchor="middle" style="font-size:6.00;" x="1080" y="562">text</text>
<text text-anchor="middle" style="font-size:6.00;" x="1029" y="574">listurl</text>
<text text-anchor="middle" style="font-size:6.00;" x="1080" y="574">text</text>
<text text-anchor="middle" style="font-size:6.00;" x="1044" y="586">programminglang</text>
<text text-anchor="middle" style="font-size:6.00;" x="1080" y="586">text</text>
<text text-anchor="middle" style="font-size:6.00;" x="1038" y="598">downloadurl</text>
<text text-anchor="middle" style="font-size:6.00;" x="1080" y="598">text</text>
<text text-anchor="middle" style="font-size:6.00;" x="1032" y="610">lastdoap</text>
<text text-anchor="middle" style="font-size:6.00;" x="1080" y="610">text</text>
<text text-anchor="middle" style="font-size:6.00;" x="1044" y="622">sourceforgeproject</text>
<text text-anchor="middle" style="font-size:6.00;" x="1080" y="622">text</text>
<text text-anchor="middle" style="font-size:6.00;" x="1042" y="634">freshmeatproject</text>
<text text-anchor="middle" style="font-size:6.00;" x="1080" y="634">text</text>
<text text-anchor="middle" style="font-size:6.00;" x="1033" y="646">reviewed</text>
<text text-anchor="middle" style="font-size:6.00;" x="1085" y="646">boolean</text>
<text text-anchor="middle" style="font-size:6.00;" x="1029" y="658">active</text>
<text text-anchor="middle" style="font-size:6.00;" x="1085" y="658">boolean</text>
<text text-anchor="middle" style="font-size:6.00;" x="1025" y="670">fti</text>
<text text-anchor="middle" style="font-size:6.00;" x="1085" y="670">tsvector</text>
<text text-anchor="middle" style="font-size:6.00;" x="1036" y="682">autoupdate</text>
<text text-anchor="middle" style="font-size:6.00;" x="1085" y="682">boolean</text>
<polygon style="fill:none;stroke:black;" points="1016,688 1016,406 1172,406 1172,688 1016,688"/>
</g>
<g id="edge6" class="edge"><title>branch&#45;&gt;product</title>
<path style="fill:none;stroke:black;" d="M972,263C987,298 1007,346 1028,393"/>
<polygon style="fill:black;stroke:black;" points="1031,391 1032,402 1025,394 1031,391"/>
</g>
<g id="node14" class="node"><title>fake_archnamespace_23</title>
<ellipse cx="962" cy="37" rx="30" ry="18" style="fill:none;stroke:red;"/>
<text text-anchor="middle" style="font-size:6.00;" x="962" y="39">archnamespace</text>
</g>
<g id="edge2" class="edge"><title>branch&#45;&gt;fake_archnamespace_23</title>
<path style="fill:none;stroke:black;" d="M954,165C956,132 958,92 960,65"/>
<polygon style="fill:black;stroke:black;" points="957,65 961,55 963,65 957,65"/>
</g>
<g id="node16" class="node"><title>fake_person_25</title>
<ellipse cx="837" cy="83" rx="27" ry="18" style="fill:none;stroke:red;"/>
<text text-anchor="middle" style="font-size:6.00;" x="837" y="85">person</text>
</g>
<g id="edge4" class="edge"><title>branch&#45;&gt;fake_person_25</title>
<path style="fill:none;stroke:black;" d="M908,165C891,145 872,123 858,107"/>
<polygon style="fill:black;stroke:black;" points="855,109 851,99 860,104 855,109"/>
</g>
<g id="node2" class="node"><title>milestone</title>
<polygon style="fill:#c1cdcc;stroke:#c1cdcc;" points="1340,537 1340,471 1488,471 1488,537 1340,537"/>
<polygon style="fill:white;stroke:white;" points="1343,486 1343,474 1485,474 1485,486 1343,486"/>
<text text-anchor="middle" style="font-size:6.00;" x="1414" y="482">milestone</text>
<polygon style="fill:none;stroke:black;" points="1343,486 1343,474 1485,474 1485,486 1343,486"/>
<text text-anchor="middle" style="font-size:6.00;" x="1348" y="495">id</text>
<text text-anchor="middle" style="font-size:6.00;" x="1379" y="495">serial</text>
<text text-anchor="middle" style="font-size:6.00;" x="1419" y="495"> PRIMARY KEY </text>
<text text-anchor="middle" style="font-size:6.00;" x="1355" y="507">product</text>
<text text-anchor="middle" style="font-size:6.00;" x="1381" y="507">integer</text>
<text text-anchor="middle" style="font-size:6.00;" x="1440" y="507"> REFERENCES product UNIQUE </text>
<text text-anchor="middle" style="font-size:6.00;" x="1353" y="519">name</text>
<text text-anchor="middle" style="font-size:6.00;" x="1378" y="519">text</text>
<text text-anchor="middle" style="font-size:6.00;" x="1410" y="519"> UNIQUE </text>
<text text-anchor="middle" style="font-size:6.00;" x="1351" y="531">title</text>
<text text-anchor="middle" style="font-size:6.00;" x="1378" y="531">text</text>
<polygon style="fill:none;stroke:black;" points="1340,537 1340,471 1488,471 1488,537 1340,537"/>
</g>
<g id="edge8" class="edge"><title>milestone&#45;&gt;product</title>
<path style="fill:none;stroke:black;" d="M1332,515C1288,521 1235,528 1190,534"/>
<polygon style="fill:black;stroke:black;" points="1190,537 1180,535 1190,531 1190,537"/>
</g>
<g id="node12" class="node"><title>project</title>
<polygon style="fill:#c1cdcc;stroke:#c1cdcc;" points="934,1046 934,836 1090,836 1090,1046 934,1046"/>
<polygon style="fill:white;stroke:white;" points="937,851 937,839 1087,839 1087,851 937,851"/>
<text text-anchor="middle" style="font-size:6.00;" x="1012" y="847">project</text>
<polygon style="fill:none;stroke:black;" points="937,851 937,839 1087,839 1087,851 937,851"/>
<text text-anchor="middle" style="font-size:6.00;" x="942" y="860">id</text>
<text text-anchor="middle" style="font-size:6.00;" x="999" y="860">serial</text>
<text text-anchor="middle" style="font-size:6.00;" x="1048" y="860"> PRIMARY KEY </text>
<text text-anchor="middle" style="font-size:6.00;" x="948" y="872">owner</text>
<text text-anchor="middle" style="font-size:6.00;" x="1001" y="872">integer</text>
<text text-anchor="middle" style="font-size:6.00;" x="1055" y="872"> REFERENCES person </text>
<text text-anchor="middle" style="font-size:6.00;" x="947" y="884">name</text>
<text text-anchor="middle" style="font-size:6.00;" x="998" y="884">text</text>
<text text-anchor="middle" style="font-size:6.00;" x="1039" y="884"> UNIQUE </text>
<text text-anchor="middle" style="font-size:6.00;" x="955" y="896">displayname</text>
<text text-anchor="middle" style="font-size:6.00;" x="998" y="896">text</text>
<text text-anchor="middle" style="font-size:6.00;" x="945" y="908">title</text>
<text text-anchor="middle" style="font-size:6.00;" x="998" y="908">text</text>
<text text-anchor="middle" style="font-size:6.00;" x="951" y="920">summary</text>
<text text-anchor="middle" style="font-size:6.00;" x="998" y="920">text</text>
<text text-anchor="middle" style="font-size:6.00;" x="954" y="932">description</text>
<text text-anchor="middle" style="font-size:6.00;" x="998" y="932">text</text>
<text text-anchor="middle" style="font-size:6.00;" x="954" y="944">datecreated</text>
<text text-anchor="middle" style="font-size:6.00;" x="1006" y="944">timestamp</text>
<text text-anchor="middle" style="font-size:6.00;" x="956" y="956">homepageurl</text>
<text text-anchor="middle" style="font-size:6.00;" x="998" y="956">text</text>
<text text-anchor="middle" style="font-size:6.00;" x="949" y="968">wikiurl</text>
<text text-anchor="middle" style="font-size:6.00;" x="998" y="968">text</text>
<text text-anchor="middle" style="font-size:6.00;" x="950" y="980">lastdoap</text>
<text text-anchor="middle" style="font-size:6.00;" x="998" y="980">text</text>
<text text-anchor="middle" style="font-size:6.00;" x="962" y="992">sourceforgeproject</text>
<text text-anchor="middle" style="font-size:6.00;" x="998" y="992">text</text>
<text text-anchor="middle" style="font-size:6.00;" x="960" y="1004">freshmeatproject</text>
<text text-anchor="middle" style="font-size:6.00;" x="998" y="1004">text</text>
<text text-anchor="middle" style="font-size:6.00;" x="951" y="1016">reviewed</text>
<text text-anchor="middle" style="font-size:6.00;" x="1003" y="1016">boolean</text>
<text text-anchor="middle" style="font-size:6.00;" x="947" y="1028">active</text>
<text text-anchor="middle" style="font-size:6.00;" x="1003" y="1028">boolean</text>
<text text-anchor="middle" style="font-size:6.00;" x="943" y="1040">fti</text>
<text text-anchor="middle" style="font-size:6.00;" x="1003" y="1040">tsvector</text>
<polygon style="fill:none;stroke:black;" points="934,1046 934,836 1090,836 1090,1046 934,1046"/>
</g>
<g id="edge10" class="edge"><title>product&#45;&gt;project</title>
<path style="fill:none;stroke:black;" d="M1064,692C1055,734 1046,781 1037,822"/>
<polygon style="fill:black;stroke:black;" points="1040,823 1035,832 1034,822 1040,823"/>
</g>
<g id="node21" class="node"><title>fake_person_200</title>
<ellipse cx="1273" cy="704" rx="27" ry="18" style="fill:none;stroke:red;"/>
<text text-anchor="middle" style="font-size:6.00;" x="1273" y="706">person</text>
</g>
<g id="edge12" class="edge"><title>product&#45;&gt;fake_person_200</title>
<path style="fill:none;stroke:black;" d="M1180,623C1205,644 1231,667 1248,682"/>
<polygon style="fill:black;stroke:black;" points="1251,680 1256,689 1246,685 1251,680"/>
</g>
<g id="node4" class="node"><title>productbkbranch</title>
<polygon style="fill:#c1cdcc;stroke:#c1cdcc;" points="1299,425 1299,359 1429,359 1429,425 1299,425"/>
<polygon style="fill:white;stroke:white;" points="1302,374 1302,362 1426,362 1426,374 1302,374"/>
<text text-anchor="middle" style="font-size:6.00;" x="1364" y="370">productbkbranch</text>
<polygon style="fill:none;stroke:black;" points="1302,374 1302,362 1426,362 1426,374 1302,374"/>
<text text-anchor="middle" style="font-size:6.00;" x="1307" y="383">id</text>
<text text-anchor="middle" style="font-size:6.00;" x="1345" y="383">serial</text>
<text text-anchor="middle" style="font-size:6.00;" x="1385" y="383"> PRIMARY KEY </text>
<text text-anchor="middle" style="font-size:6.00;" x="1314" y="395">product</text>
<text text-anchor="middle" style="font-size:6.00;" x="1347" y="395">integer</text>
<text text-anchor="middle" style="font-size:6.00;" x="1393" y="395"> REFERENCES product </text>
<text text-anchor="middle" style="font-size:6.00;" x="1318" y="407">locationurl</text>
<text text-anchor="middle" style="font-size:6.00;" x="1344" y="407">text</text>
<text text-anchor="middle" style="font-size:6.00;" x="1313" y="419">weburl</text>
<text text-anchor="middle" style="font-size:6.00;" x="1344" y="419">text</text>
<polygon style="fill:none;stroke:black;" points="1299,425 1299,359 1429,359 1429,425 1299,425"/>
</g>
<g id="edge14" class="edge"><title>productbkbranch&#45;&gt;product</title>
<path style="fill:none;stroke:black;" d="M1299,429C1266,448 1225,471 1189,492"/>
<polygon style="fill:black;stroke:black;" points="1190,495 1180,497 1187,489 1190,495"/>
</g>
<g id="node5" class="node"><title>productbranchrelationship</title>
<polygon style="fill:#c1cdcc;stroke:#c1cdcc;" points="1062,286 1062,220 1184,220 1184,286 1062,286"/>
<polygon style="fill:white;stroke:white;" points="1065,235 1065,223 1181,223 1181,235 1065,235"/>
<text text-anchor="middle" style="font-size:6.00;" x="1123" y="231">productbranchrelationship</text>
<polygon style="fill:none;stroke:black;" points="1065,235 1065,223 1181,223 1181,235 1065,235"/>
<text text-anchor="middle" style="font-size:6.00;" x="1070" y="244">id</text>
<text text-anchor="middle" style="font-size:6.00;" x="1100" y="244">serial</text>
<text text-anchor="middle" style="font-size:6.00;" x="1140" y="244"> PRIMARY KEY </text>
<text text-anchor="middle" style="font-size:6.00;" x="1077" y="256">product</text>
<text text-anchor="middle" style="font-size:6.00;" x="1102" y="256">integer</text>
<text text-anchor="middle" style="font-size:6.00;" x="1148" y="256"> REFERENCES product </text>
<text text-anchor="middle" style="font-size:6.00;" x="1076" y="268">branch</text>
<text text-anchor="middle" style="font-size:6.00;" x="1102" y="268">integer</text>
<text text-anchor="middle" style="font-size:6.00;" x="1147" y="268"> REFERENCES branch </text>
<text text-anchor="middle" style="font-size:6.00;" x="1074" y="280">label</text>
<text text-anchor="middle" style="font-size:6.00;" x="1102" y="280">integer</text>
<polygon style="fill:none;stroke:black;" points="1062,286 1062,220 1184,220 1184,286 1062,286"/>
</g>
<g id="edge18" class="edge"><title>productbranchrelationship&#45;&gt;branch</title>
<path style="fill:none;stroke:black;" d="M1054,237C1052,237 1050,236 1048,236"/>
<polygon style="fill:black;stroke:black;" points="1047,239 1038,233 1049,233 1047,239"/>
</g>
<g id="edge16" class="edge"><title>productbranchrelationship&#45;&gt;product</title>
<path style="fill:none;stroke:black;" d="M1119,290C1116,317 1113,353 1109,392"/>
<polygon style="fill:black;stroke:black;" points="1112,392 1108,402 1106,392 1112,392"/>
</g>
<g id="node6" class="node"><title>productcvsmodule</title>
<polygon style="fill:#c1cdcc;stroke:#c1cdcc;" points="1217,335 1217,257 1343,257 1343,335 1217,335"/>
<polygon style="fill:white;stroke:white;" points="1220,272 1220,260 1340,260 1340,272 1220,272"/>
<text text-anchor="middle" style="font-size:6.00;" x="1280" y="268">productcvsmodule</text>
<polygon style="fill:none;stroke:black;" points="1220,272 1220,260 1340,260 1340,272 1220,272"/>
<text text-anchor="middle" style="font-size:6.00;" x="1225" y="281">id</text>
<text text-anchor="middle" style="font-size:6.00;" x="1259" y="281">serial</text>
<text text-anchor="middle" style="font-size:6.00;" x="1299" y="281"> PRIMARY KEY </text>
<text text-anchor="middle" style="font-size:6.00;" x="1232" y="293">product</text>
<text text-anchor="middle" style="font-size:6.00;" x="1261" y="293">integer</text>
<text text-anchor="middle" style="font-size:6.00;" x="1307" y="293"> REFERENCES product </text>
<text text-anchor="middle" style="font-size:6.00;" x="1234" y="305">anonroot</text>
<text text-anchor="middle" style="font-size:6.00;" x="1258" y="305">text</text>
<text text-anchor="middle" style="font-size:6.00;" x="1232" y="317">module</text>
<text text-anchor="middle" style="font-size:6.00;" x="1258" y="317">text</text>
<text text-anchor="middle" style="font-size:6.00;" x="1231" y="329">weburl</text>
<text text-anchor="middle" style="font-size:6.00;" x="1258" y="329">text</text>
<polygon style="fill:none;stroke:black;" points="1217,335 1217,257 1343,257 1343,335 1217,335"/>
</g>
<g id="edge20" class="edge"><title>productcvsmodule&#45;&gt;product</title>
<path style="fill:none;stroke:black;" d="M1248,339C1231,363 1208,393 1186,423"/>
<polygon style="fill:black;stroke:black;" points="1189,425 1180,431 1183,421 1189,425"/>
</g>
<g id="node7" class="node"><title>productlabel</title>
<polygon style="fill:#c1cdcc;stroke:#c1cdcc;" points="1160,877 1160,823 1308,823 1308,877 1160,877"/>
<polygon style="fill:white;stroke:white;" points="1163,838 1163,826 1305,826 1305,838 1163,838"/>
<text text-anchor="middle" style="font-size:6.00;" x="1234" y="834">productlabel</text>
<polygon style="fill:none;stroke:black;" points="1163,838 1163,826 1305,826 1305,838 1163,838"/>
<text text-anchor="middle" style="font-size:6.00;" x="1168" y="847">id</text>
<text text-anchor="middle" style="font-size:6.00;" x="1199" y="847">serial</text>
<text text-anchor="middle" style="font-size:6.00;" x="1239" y="847"> PRIMARY KEY </text>
<text text-anchor="middle" style="font-size:6.00;" x="1175" y="859">product</text>
<text text-anchor="middle" style="font-size:6.00;" x="1201" y="859">integer</text>
<text text-anchor="middle" style="font-size:6.00;" x="1260" y="859"> REFERENCES product UNIQUE </text>
<text text-anchor="middle" style="font-size:6.00;" x="1172" y="871">label</text>
<text text-anchor="middle" style="font-size:6.00;" x="1201" y="871">integer</text>
<text text-anchor="middle" style="font-size:6.00;" x="1256" y="871"> REFERENCES label UNIQUE </text>
<polygon style="fill:none;stroke:black;" points="1160,877 1160,823 1308,823 1308,877 1160,877"/>
</g>
<g id="edge22" class="edge"><title>productlabel&#45;&gt;product</title>
<path style="fill:none;stroke:black;" d="M1220,819C1207,791 1186,746 1165,701"/>
<polygon style="fill:black;stroke:black;" points="1162,703 1161,692 1168,700 1162,703"/>
</g>
<g id="node28" class="node"><title>fake_label_209</title>
<ellipse cx="1314" cy="991" rx="27" ry="18" style="fill:none;stroke:red;"/>
<text text-anchor="middle" style="font-size:6.00;" x="1314" y="993">label</text>
</g>
<g id="edge24" class="edge"><title>productlabel&#45;&gt;fake_label_209</title>
<path style="fill:none;stroke:black;" d="M1252,881C1266,907 1286,942 1299,965"/>
<polygon style="fill:black;stroke:black;" points="1302,964 1304,974 1296,967 1302,964"/>
</g>
<g id="node8" class="node"><title>productrelease</title>
<polygon style="fill:#c1cdcc;stroke:#c1cdcc;" points="388,659 388,521 548,521 548,659 388,659"/>
<polygon style="fill:white;stroke:white;" points="391,536 391,524 545,524 545,536 391,536"/>
<text text-anchor="middle" style="font-size:6.00;" x="468" y="532">productrelease</text>
<polygon style="fill:none;stroke:black;" points="391,536 391,524 545,524 545,536 391,536"/>
<text text-anchor="middle" style="font-size:6.00;" x="396" y="545">id</text>
<text text-anchor="middle" style="font-size:6.00;" x="441" y="545">serial</text>
<text text-anchor="middle" style="font-size:6.00;" x="490" y="545"> PRIMARY KEY </text>
<text text-anchor="middle" style="font-size:6.00;" x="409" y="557">datereleased</text>
<text text-anchor="middle" style="font-size:6.00;" x="448" y="557">timestamp</text>
<text text-anchor="middle" style="font-size:6.00;" x="403" y="569">version</text>
<text text-anchor="middle" style="font-size:6.00;" x="440" y="569">text</text>
<text text-anchor="middle" style="font-size:6.00;" x="399" y="581">title</text>
<text text-anchor="middle" style="font-size:6.00;" x="440" y="581">text</text>
<text text-anchor="middle" style="font-size:6.00;" x="408" y="593">description</text>
<text text-anchor="middle" style="font-size:6.00;" x="440" y="593">text</text>
<text text-anchor="middle" style="font-size:6.00;" x="407" y="605">changelog</text>
<text text-anchor="middle" style="font-size:6.00;" x="440" y="605">text</text>
<text text-anchor="middle" style="font-size:6.00;" x="402" y="617">owner</text>
<text text-anchor="middle" style="font-size:6.00;" x="443" y="617">integer</text>
<text text-anchor="middle" style="font-size:6.00;" x="497" y="617"> REFERENCES person </text>
<text text-anchor="middle" style="font-size:6.00;" x="405" y="629">summary</text>
<text text-anchor="middle" style="font-size:6.00;" x="440" y="629">text</text>
<text text-anchor="middle" style="font-size:6.00;" x="410" y="641">productseries</text>
<text text-anchor="middle" style="font-size:6.00;" x="443" y="641">integer</text>
<text text-anchor="middle" style="font-size:6.00;" x="505" y="641"> REFERENCES productseries </text>
<text text-anchor="middle" style="font-size:6.00;" x="404" y="653">manifest</text>
<text text-anchor="middle" style="font-size:6.00;" x="443" y="653">integer</text>
<text text-anchor="middle" style="font-size:6.00;" x="499" y="653"> REFERENCES manifest </text>
<polygon style="fill:none;stroke:black;" points="388,659 388,521 548,521 548,659 388,659"/>
</g>
<g id="node10" class="node"><title>productseries</title>
<polygon style="fill:#c1cdcc;stroke:#c1cdcc;" points="794,724 794,370 984,370 984,724 794,724"/>
<polygon style="fill:white;stroke:white;" points="797,385 797,373 981,373 981,385 797,385"/>
<text text-anchor="middle" style="font-size:6.00;" x="889" y="381">productseries</text>
<polygon style="fill:none;stroke:black;" points="797,385 797,373 981,373 981,385 797,385"/>
<text text-anchor="middle" style="font-size:6.00;" x="802" y="394">id</text>
<text text-anchor="middle" style="font-size:6.00;" x="866" y="394">serial</text>
<text text-anchor="middle" style="font-size:6.00;" x="915" y="394"> PRIMARY KEY </text>
<text text-anchor="middle" style="font-size:6.00;" x="809" y="406">product</text>
<text text-anchor="middle" style="font-size:6.00;" x="868" y="406">integer</text>
<text text-anchor="middle" style="font-size:6.00;" x="936" y="406"> REFERENCES product UNIQUE </text>
<text text-anchor="middle" style="font-size:6.00;" x="807" y="418">name</text>
<text text-anchor="middle" style="font-size:6.00;" x="865" y="418">text</text>
<text text-anchor="middle" style="font-size:6.00;" x="906" y="418"> UNIQUE </text>
<text text-anchor="middle" style="font-size:6.00;" x="815" y="430">displayname</text>
<text text-anchor="middle" style="font-size:6.00;" x="865" y="430">text</text>
<text text-anchor="middle" style="font-size:6.00;" x="811" y="442">summary</text>
<text text-anchor="middle" style="font-size:6.00;" x="865" y="442">text</text>
<text text-anchor="middle" style="font-size:6.00;" x="808" y="454">branch</text>
<text text-anchor="middle" style="font-size:6.00;" x="868" y="454">integer</text>
<text text-anchor="middle" style="font-size:6.00;" x="934" y="454"> REFERENCES branch UNIQUE </text>
<text text-anchor="middle" style="font-size:6.00;" x="815" y="466">importstatus</text>
<text text-anchor="middle" style="font-size:6.00;" x="868" y="466">integer</text>
<text text-anchor="middle" style="font-size:6.00;" x="818" y="478">datelastsynced</text>
<text text-anchor="middle" style="font-size:6.00;" x="873" y="478">timestamp</text>
<text text-anchor="middle" style="font-size:6.00;" x="814" y="490">syncinterval</text>
<text text-anchor="middle" style="font-size:6.00;" x="869" y="490">interval</text>
<text text-anchor="middle" style="font-size:6.00;" x="809" y="502">rcstype</text>
<text text-anchor="middle" style="font-size:6.00;" x="868" y="502">integer</text>
<text text-anchor="middle" style="font-size:6.00;" x="809" y="514">cvsroot</text>
<text text-anchor="middle" style="font-size:6.00;" x="865" y="514">text</text>
<text text-anchor="middle" style="font-size:6.00;" x="906" y="514"> UNIQUE </text>
<text text-anchor="middle" style="font-size:6.00;" x="813" y="526">cvsmodule</text>
<text text-anchor="middle" style="font-size:6.00;" x="865" y="526">text</text>
<text text-anchor="middle" style="font-size:6.00;" x="906" y="526"> UNIQUE </text>
<text text-anchor="middle" style="font-size:6.00;" x="812" y="538">cvsbranch</text>
<text text-anchor="middle" style="font-size:6.00;" x="865" y="538">text</text>
<text text-anchor="middle" style="font-size:6.00;" x="906" y="538"> UNIQUE </text>
<text text-anchor="middle" style="font-size:6.00;" x="815" y="550">cvstarfileurl</text>
<text text-anchor="middle" style="font-size:6.00;" x="865" y="550">text</text>
<text text-anchor="middle" style="font-size:6.00;" x="816" y="562">svnrepository</text>
<text text-anchor="middle" style="font-size:6.00;" x="865" y="562">text</text>
<text text-anchor="middle" style="font-size:6.00;" x="906" y="562"> UNIQUE </text>
<text text-anchor="middle" style="font-size:6.00;" x="816" y="574">bkrepository</text>
<text text-anchor="middle" style="font-size:6.00;" x="865" y="574">text</text>
<text text-anchor="middle" style="font-size:6.00;" x="906" y="574"> UNIQUE </text>
<text text-anchor="middle" style="font-size:6.00;" x="813" y="586">releaseroot</text>
<text text-anchor="middle" style="font-size:6.00;" x="865" y="586">text</text>
<text text-anchor="middle" style="font-size:6.00;" x="818" y="598">releasefileglob</text>
<text text-anchor="middle" style="font-size:6.00;" x="865" y="598">text</text>
<text text-anchor="middle" style="font-size:6.00;" x="818" y="610">releaseverstyle</text>
<text text-anchor="middle" style="font-size:6.00;" x="868" y="610">integer</text>
<text text-anchor="middle" style="font-size:6.00;" x="821" y="622">targetarcharchive</text>
<text text-anchor="middle" style="font-size:6.00;" x="865" y="622">text</text>
<text text-anchor="middle" style="font-size:6.00;" x="906" y="622"> UNIQUE </text>
<text text-anchor="middle" style="font-size:6.00;" x="823" y="634">targetarchcategory</text>
<text text-anchor="middle" style="font-size:6.00;" x="865" y="634">text</text>
<text text-anchor="middle" style="font-size:6.00;" x="906" y="634"> UNIQUE </text>
<text text-anchor="middle" style="font-size:6.00;" x="820" y="646">targetarchbranch</text>
<text text-anchor="middle" style="font-size:6.00;" x="865" y="646">text</text>
<text text-anchor="middle" style="font-size:6.00;" x="906" y="646"> UNIQUE </text>
<text text-anchor="middle" style="font-size:6.00;" x="821" y="658">targetarchversion</text>
<text text-anchor="middle" style="font-size:6.00;" x="865" y="658">text</text>
<text text-anchor="middle" style="font-size:6.00;" x="906" y="658"> UNIQUE </text>
<text text-anchor="middle" style="font-size:6.00;" x="817" y="670">dateautotested</text>
<text text-anchor="middle" style="font-size:6.00;" x="873" y="670">timestamp</text>
<text text-anchor="middle" style="font-size:6.00;" x="826" y="682">dateprocessapproved</text>
<text text-anchor="middle" style="font-size:6.00;" x="873" y="682">timestamp</text>
<text text-anchor="middle" style="font-size:6.00;" x="822" y="694">datesyncapproved</text>
<text text-anchor="middle" style="font-size:6.00;" x="873" y="694">timestamp</text>
<text text-anchor="middle" style="font-size:6.00;" x="813" y="706">datestarted</text>
<text text-anchor="middle" style="font-size:6.00;" x="873" y="706">timestamp</text>
<text text-anchor="middle" style="font-size:6.00;" x="815" y="718">datefinished</text>
<text text-anchor="middle" style="font-size:6.00;" x="873" y="718">timestamp</text>
<polygon style="fill:none;stroke:black;" points="794,724 794,370 984,370 984,724 794,724"/>
</g>
<g id="edge28" class="edge"><title>productrelease&#45;&gt;productseries</title>
<path style="fill:none;stroke:black;" d="M556,581C620,574 706,566 776,558"/>
<polygon style="fill:black;stroke:black;" points="776,555 786,557 776,561 776,555"/>
</g>
<g id="node30" class="node"><title>fake_person_211</title>
<ellipse cx="377" cy="434" rx="27" ry="18" style="fill:none;stroke:red;"/>
<text text-anchor="middle" style="font-size:6.00;" x="377" y="436">person</text>
</g>
<g id="edge26" class="edge"><title>productrelease&#45;&gt;fake_person_211</title>
<path style="fill:none;stroke:black;" d="M425,517C413,496 401,476 392,460"/>
<polygon style="fill:black;stroke:black;" points="389,461 387,451 395,458 389,461"/>
</g>
<g id="node33" class="node"><title>fake_manifest_214</title>
<ellipse cx="394" cy="759" rx="27" ry="18" style="fill:none;stroke:red;"/>
<text text-anchor="middle" style="font-size:6.00;" x="394" y="761">manifest</text>
</g>
<g id="edge30" class="edge"><title>productrelease&#45;&gt;fake_manifest_214</title>
<path style="fill:none;stroke:black;" d="M436,663C425,687 414,713 406,732"/>
<polygon style="fill:black;stroke:black;" points="409,733 402,741 403,730 409,733"/>
</g>
<g id="node9" class="node"><title>productreleasefile</title>
<polygon style="fill:#c1cdcc;stroke:#c1cdcc;" points="123,611 123,545 279,545 279,611 123,611"/>
<polygon style="fill:white;stroke:white;" points="126,560 126,548 276,548 276,560 126,560"/>
<text text-anchor="middle" style="font-size:6.00;" x="201" y="556">productreleasefile</text>
<polygon style="fill:none;stroke:black;" points="126,560 126,548 276,548 276,560 126,560"/>
<text text-anchor="middle" style="font-size:6.00;" x="147" y="569">productrelease</text>
<text text-anchor="middle" style="font-size:6.00;" x="180" y="569">integer</text>
<text text-anchor="middle" style="font-size:6.00;" x="235" y="569"> REFERENCES productrelease </text>
<text text-anchor="middle" style="font-size:6.00;" x="141" y="581">libraryfile</text>
<text text-anchor="middle" style="font-size:6.00;" x="180" y="581">integer</text>
<text text-anchor="middle" style="font-size:6.00;" x="235" y="581"> REFERENCES libraryfilealias </text>
<text text-anchor="middle" style="font-size:6.00;" x="138" y="593">filetype</text>
<text text-anchor="middle" style="font-size:6.00;" x="180" y="593">integer</text>
<text text-anchor="middle" style="font-size:6.00;" x="131" y="605">id</text>
<text text-anchor="middle" style="font-size:6.00;" x="180" y="605">integer</text>
<text text-anchor="middle" style="font-size:6.00;" x="218" y="605"> PRIMARY KEY </text>
<polygon style="fill:none;stroke:black;" points="123,611 123,545 279,545 279,611 123,611"/>
</g>
<g id="edge32" class="edge"><title>productreleasefile&#45;&gt;productrelease</title>
<path style="fill:none;stroke:black;" d="M287,582C314,583 343,585 370,586"/>
<polygon style="fill:black;stroke:black;" points="370,582 380,586 370,589 370,582"/>
</g>
<g id="node36" class="node"><title>fake_libraryfilealias_217</title>
<ellipse cx="35" cy="552" rx="29" ry="18" style="fill:none;stroke:red;"/>
<text text-anchor="middle" style="font-size:6.00;" x="35" y="554">libraryfilealias</text>
</g>
<g id="edge34" class="edge"><title>productreleasefile&#45;&gt;fake_libraryfilealias_217</title>
<path style="fill:none;stroke:black;" d="M115,564C100,562 86,559 73,557"/>
<polygon style="fill:black;stroke:black;" points="73,560 63,556 73,554 73,560"/>
</g>
<g id="edge38" class="edge"><title>productseries&#45;&gt;branch</title>
<path style="fill:none;stroke:black;" d="M923,366C929,332 935,299 940,273"/>
<polygon style="fill:black;stroke:black;" points="937,272 942,263 943,273 937,272"/>
</g>
<g id="edge36" class="edge"><title>productseries&#45;&gt;product</title>
<path style="fill:none;stroke:black;" d="M992,547C994,547 996,547 998,547"/>
<polygon style="fill:black;stroke:black;" points="998,543 1008,547 998,550 998,543"/>
</g>
<g id="node11" class="node"><title>productsvnmodule</title>
<polygon style="fill:#c1cdcc;stroke:#c1cdcc;" points="1329,669 1329,603 1459,603 1459,669 1329,669"/>
<polygon style="fill:white;stroke:white;" points="1332,618 1332,606 1456,606 1456,618 1332,618"/>
<text text-anchor="middle" style="font-size:6.00;" x="1394" y="614">productsvnmodule</text>
<polygon style="fill:none;stroke:black;" points="1332,618 1332,606 1456,606 1456,618 1332,618"/>
<text text-anchor="middle" style="font-size:6.00;" x="1337" y="627">id</text>
<text text-anchor="middle" style="font-size:6.00;" x="1375" y="627">serial</text>
<text text-anchor="middle" style="font-size:6.00;" x="1415" y="627"> PRIMARY KEY </text>
<text text-anchor="middle" style="font-size:6.00;" x="1344" y="639">product</text>
<text text-anchor="middle" style="font-size:6.00;" x="1377" y="639">integer</text>
<text text-anchor="middle" style="font-size:6.00;" x="1423" y="639"> REFERENCES product </text>
<text text-anchor="middle" style="font-size:6.00;" x="1348" y="651">locationurl</text>
<text text-anchor="middle" style="font-size:6.00;" x="1374" y="651">text</text>
<text text-anchor="middle" style="font-size:6.00;" x="1343" y="663">weburl</text>
<text text-anchor="middle" style="font-size:6.00;" x="1374" y="663">text</text>
<polygon style="fill:none;stroke:black;" points="1329,669 1329,603 1459,603 1459,669 1329,669"/>
</g>
<g id="edge40" class="edge"><title>productsvnmodule&#45;&gt;product</title>
<path style="fill:none;stroke:black;" d="M1321,614C1281,603 1232,588 1190,576"/>
<polygon style="fill:black;stroke:black;" points="1189,579 1180,573 1191,573 1189,579"/>
</g>
<g id="node41" class="node"><title>fake_person_222</title>
<ellipse cx="899" cy="1129" rx="27" ry="18" style="fill:none;stroke:red;"/>
<text text-anchor="middle" style="font-size:6.00;" x="899" y="1131">person</text>
</g>
<g id="edge42" class="edge"><title>project&#45;&gt;fake_person_222</title>
<path style="fill:none;stroke:black;" d="M946,1050C935,1070 923,1089 915,1103"/>
<polygon style="fill:black;stroke:black;" points="917,1106 909,1112 912,1102 917,1106"/>
</g>
<g id="node13" class="node"><title>projectrelationship</title>
<polygon style="fill:#c1cdcc;stroke:#c1cdcc;" points="1008,1239 1008,1173 1126,1173 1126,1239 1008,1239"/>
<polygon style="fill:white;stroke:white;" points="1011,1188 1011,1176 1123,1176 1123,1188 1011,1188"/>
<text text-anchor="middle" style="font-size:6.00;" x="1067" y="1184">projectrelationship</text>
<polygon style="fill:none;stroke:black;" points="1011,1188 1011,1176 1123,1176 1123,1188 1011,1188"/>
<text text-anchor="middle" style="font-size:6.00;" x="1016" y="1197">id</text>
<text text-anchor="middle" style="font-size:6.00;" x="1044" y="1197">serial</text>
<text text-anchor="middle" style="font-size:6.00;" x="1084" y="1197"> PRIMARY KEY </text>
<text text-anchor="middle" style="font-size:6.00;" x="1022" y="1209">subject</text>
<text text-anchor="middle" style="font-size:6.00;" x="1046" y="1209">integer</text>
<text text-anchor="middle" style="font-size:6.00;" x="1091" y="1209"> REFERENCES project </text>
<text text-anchor="middle" style="font-size:6.00;" x="1020" y="1221">label</text>
<text text-anchor="middle" style="font-size:6.00;" x="1046" y="1221">integer</text>
<text text-anchor="middle" style="font-size:6.00;" x="1022" y="1233">object</text>
<text text-anchor="middle" style="font-size:6.00;" x="1046" y="1233">integer</text>
<text text-anchor="middle" style="font-size:6.00;" x="1091" y="1233"> REFERENCES project </text>
<polygon style="fill:none;stroke:black;" points="1008,1239 1008,1173 1126,1173 1126,1239 1008,1239"/>
</g>
<g id="edge44" class="edge"><title>projectrelationship&#45;&gt;project</title>
<path style="fill:none;stroke:black;" d="M1054,1169C1047,1140 1038,1099 1029,1060"/>
<polygon style="fill:black;stroke:black;" points="1026,1060 1027,1050 1032,1059 1026,1060"/>
</g>
<g id="edge46" class="edge"><title>projectrelationship&#45;&gt;project</title>
<path style="fill:none;stroke:black;" d="M1064,1169C1059,1140 1051,1099 1043,1060"/>
<polygon style="fill:black;stroke:black;" points="1040,1060 1041,1050 1046,1059 1040,1060"/>
</g>
</g>
</svg>
