<?xml version="1.0" encoding="UTF-8" standalone="no"?>
<!DOCTYPE svg PUBLIC "-//W3C//DTD SVG 1.0//EN"
 "http://www.w3.org/TR/2001/REC-SVG-20010904/DTD/svg10.dtd">
<!-- Generated by fdp version 2.2.1 (Tue Oct 11 01:38:21 UTC 2005)
     For user: (stub) Stuart Bishop,,,   Title: g    Pages: 1 -->
<svg width="2096px" height="1695px"
 viewBox = "-1 -1 2095 1694"
 xmlns="http://www.w3.org/2000/svg">
<g id="graph0" class="graph" style="font-family:Times-Roman;font-size:14.00;">
<title>g</title>
<text text-anchor="middle" style="font-size:22.00;" x="1047" y="1677">Foaf</text>
<g id="node1" class="node"><title>calendar</title>
<polygon style="fill:#c1cdcc;stroke:#c1cdcc;" points="1588,1333 1588,1271 1722,1271 1722,1333 1588,1333"/>
<polygon style="fill:white;stroke:white;" points="1591,1288 1591,1274 1719,1274 1719,1288 1591,1288"/>
<text text-anchor="middle" style="font-size:8.00;" x="1655" y="1284">calendar</text>
<polygon style="fill:none;stroke:black;" points="1591,1288 1591,1274 1719,1274 1719,1288 1591,1288"/>
<text text-anchor="middle" style="font-size:8.00;" x="1597" y="1299">id</text>
<text text-anchor="middle" style="font-size:8.00;" x="1636" y="1299">serial</text>
<text text-anchor="middle" style="font-size:8.00;" x="1687" y="1299"> PRIMARY KEY </text>
<text text-anchor="middle" style="font-size:8.00;" x="1600" y="1313">title</text>
<text text-anchor="middle" style="font-size:8.00;" x="1634" y="1313">text</text>
<text text-anchor="middle" style="font-size:8.00;" x="1607" y="1327">revision</text>
<text text-anchor="middle" style="font-size:8.00;" x="1639" y="1327">integer</text>
<polygon style="fill:none;stroke:black;" points="1588,1333 1588,1271 1722,1271 1722,1333 1588,1333"/>
</g>
<g id="node2" class="node"><title>calendarsubscription</title>
<polygon style="fill:#c1cdcc;stroke:#c1cdcc;" points="1697,1648 1697,1572 1883,1572 1883,1648 1697,1648"/>
<polygon style="fill:white;stroke:white;" points="1700,1589 1700,1575 1880,1575 1880,1589 1700,1589"/>
<text text-anchor="middle" style="font-size:8.00;" x="1790" y="1585">calendarsubscription</text>
<polygon style="fill:none;stroke:black;" points="1700,1589 1700,1575 1880,1575 1880,1589 1700,1589"/>
<text text-anchor="middle" style="font-size:8.00;" x="1706" y="1600">id</text>
<text text-anchor="middle" style="font-size:8.00;" x="1740" y="1600">serial</text>
<text text-anchor="middle" style="font-size:8.00;" x="1791" y="1600"> PRIMARY KEY </text>
<text text-anchor="middle" style="font-size:8.00;" x="1714" y="1614">subject</text>
<text text-anchor="middle" style="font-size:8.00;" x="1743" y="1614">integer</text>
<text text-anchor="middle" style="font-size:8.00;" x="1820" y="1614"> REFERENCES calendar UNIQUE </text>
<text text-anchor="middle" style="font-size:8.00;" x="1712" y="1628">object</text>
<text text-anchor="middle" style="font-size:8.00;" x="1743" y="1628">integer</text>
<text text-anchor="middle" style="font-size:8.00;" x="1820" y="1628"> REFERENCES calendar UNIQUE </text>
<text text-anchor="middle" style="font-size:8.00;" x="1713" y="1642">colour</text>
<text text-anchor="middle" style="font-size:8.00;" x="1738" y="1642">text</text>
<polygon style="fill:none;stroke:black;" points="1697,1648 1697,1572 1883,1572 1883,1648 1697,1648"/>
</g>
<g id="edge2" class="edge"><title>calendarsubscription&#45;&gt;calendar</title>
<path style="fill:none;stroke:black;" d="M1772,1568C1746,1509 1701,1406 1675,1346"/>
<polygon style="fill:black;stroke:black;" points="1672,1348 1671,1337 1678,1345 1672,1348"/>
</g>
<g id="edge4" class="edge"><title>calendarsubscription&#45;&gt;calendar</title>
<path style="fill:none;stroke:black;" d="M1772,1568C1746,1509 1701,1406 1675,1346"/>
<polygon style="fill:black;stroke:black;" points="1672,1348 1671,1337 1678,1345 1672,1348"/>
</g>
<g id="node3" class="node"><title>country</title>
<polygon style="fill:#c1cdcc;stroke:#c1cdcc;" points="1672,317 1672,199 1868,199 1868,317 1672,317"/>
<polygon style="fill:white;stroke:white;" points="1675,216 1675,202 1865,202 1865,216 1675,216"/>
<text text-anchor="middle" style="font-size:8.00;" x="1770" y="212">country</text>
<polygon style="fill:none;stroke:black;" points="1675,216 1675,202 1865,202 1865,216 1675,216"/>
<text text-anchor="middle" style="font-size:8.00;" x="1681" y="227">id</text>
<text text-anchor="middle" style="font-size:8.00;" x="1739" y="227">serial</text>
<text text-anchor="middle" style="font-size:8.00;" x="1806" y="227"> PRIMARY KEY </text>
<text text-anchor="middle" style="font-size:8.00;" x="1701" y="241">iso3166code2</text>
<text text-anchor="middle" style="font-size:8.00;" x="1750" y="241">character(2)</text>
<text text-anchor="middle" style="font-size:8.00;" x="1794" y="241"> UNIQUE </text>
<text text-anchor="middle" style="font-size:8.00;" x="1701" y="255">iso3166code3</text>
<text text-anchor="middle" style="font-size:8.00;" x="1750" y="255">character(3)</text>
<text text-anchor="middle" style="font-size:8.00;" x="1794" y="255"> UNIQUE </text>
<text text-anchor="middle" style="font-size:8.00;" x="1687" y="269">name</text>
<text text-anchor="middle" style="font-size:8.00;" x="1737" y="269">text</text>
<text text-anchor="middle" style="font-size:8.00;" x="1794" y="269"> UNIQUE </text>
<text text-anchor="middle" style="font-size:8.00;" x="1684" y="283">title</text>
<text text-anchor="middle" style="font-size:8.00;" x="1737" y="283">text</text>
<text text-anchor="middle" style="font-size:8.00;" x="1695" y="297">description</text>
<text text-anchor="middle" style="font-size:8.00;" x="1737" y="297">text</text>
<text text-anchor="middle" style="font-size:8.00;" x="1693" y="311">continent</text>
<text text-anchor="middle" style="font-size:8.00;" x="1742" y="311">integer</text>
<text text-anchor="middle" style="font-size:8.00;" x="1820" y="311"> REFERENCES continent </text>
<polygon style="fill:none;stroke:black;" points="1672,317 1672,199 1868,199 1868,317 1672,317"/>
</g>
<g id="node25" class="node"><title>fake_continent_92</title>
<ellipse cx="1935" cy="23" rx="27" ry="18" style="fill:none;stroke:red;"/>
<text text-anchor="middle" style="font-size:8.00;" x="1935" y="26">continent</text>
</g>
<g id="edge6" class="edge"><title>country&#45;&gt;fake_continent_92</title>
<path style="fill:none;stroke:black;" d="M1814,195C1848,146 1893,83 1917,48"/>
<polygon style="fill:black;stroke:black;" points="1914,46 1923,40 1920,50 1914,46"/>
</g>
<g id="node4" class="node"><title>emailaddress</title>
<polygon style="fill:#c1cdcc;stroke:#c1cdcc;" points="1119,412 1119,336 1267,336 1267,412 1119,412"/>
<polygon style="fill:white;stroke:white;" points="1122,353 1122,339 1264,339 1264,353 1122,353"/>
<text text-anchor="middle" style="font-size:8.00;" x="1193" y="349">emailaddress</text>
<polygon style="fill:none;stroke:black;" points="1122,353 1122,339 1264,339 1264,353 1122,353"/>
<text text-anchor="middle" style="font-size:8.00;" x="1128" y="364">id</text>
<text text-anchor="middle" style="font-size:8.00;" x="1162" y="364">serial</text>
<text text-anchor="middle" style="font-size:8.00;" x="1213" y="364"> PRIMARY KEY </text>
<text text-anchor="middle" style="font-size:8.00;" x="1134" y="378">email</text>
<text text-anchor="middle" style="font-size:8.00;" x="1160" y="378">text</text>
<text text-anchor="middle" style="font-size:8.00;" x="1136" y="392">person</text>
<text text-anchor="middle" style="font-size:8.00;" x="1165" y="392">integer</text>
<text text-anchor="middle" style="font-size:8.00;" x="1223" y="392"> REFERENCES person </text>
<text text-anchor="middle" style="font-size:8.00;" x="1134" y="406">status</text>
<text text-anchor="middle" style="font-size:8.00;" x="1165" y="406">integer</text>
<polygon style="fill:none;stroke:black;" points="1119,412 1119,336 1267,336 1267,412 1119,412"/>
</g>
<g id="node15" class="node"><title>person</title>
<polygon style="fill:#c1cdcc;stroke:#c1cdcc;" points="1288,976 1288,578 1546,578 1546,976 1288,976"/>
<polygon style="fill:white;stroke:white;" points="1291,595 1291,581 1543,581 1543,595 1291,595"/>
<text text-anchor="middle" style="font-size:8.00;" x="1417" y="591">person</text>
<polygon style="fill:none;stroke:black;" points="1291,595 1291,581 1543,581 1543,595 1291,595"/>
<text text-anchor="middle" style="font-size:8.00;" x="1297" y="606">id</text>
<text text-anchor="middle" style="font-size:8.00;" x="1392" y="606">serial</text>
<text text-anchor="middle" style="font-size:8.00;" x="1454" y="606"> PRIMARY KEY </text>
<text text-anchor="middle" style="font-size:8.00;" x="1314" y="620">displayname</text>
<text text-anchor="middle" style="font-size:8.00;" x="1390" y="620">text</text>
<text text-anchor="middle" style="font-size:8.00;" x="1309" y="634">password</text>
<text text-anchor="middle" style="font-size:8.00;" x="1390" y="634">text</text>
<text text-anchor="middle" style="font-size:8.00;" x="1312" y="648">teamowner</text>
<text text-anchor="middle" style="font-size:8.00;" x="1395" y="648">integer</text>
<text text-anchor="middle" style="font-size:8.00;" x="1464" y="648"> REFERENCES person </text>
<text text-anchor="middle" style="font-size:8.00;" x="1320" y="662">teamdescription</text>
<text text-anchor="middle" style="font-size:8.00;" x="1390" y="662">text</text>
<text text-anchor="middle" style="font-size:8.00;" x="1303" y="676">name</text>
<text text-anchor="middle" style="font-size:8.00;" x="1390" y="676">text</text>
<text text-anchor="middle" style="font-size:8.00;" x="1309" y="690">language</text>
<text text-anchor="middle" style="font-size:8.00;" x="1395" y="690">integer</text>
<text text-anchor="middle" style="font-size:8.00;" x="1468" y="690"> REFERENCES language </text>
<text text-anchor="middle" style="font-size:8.00;" x="1298" y="704">fti</text>
<text text-anchor="middle" style="font-size:8.00;" x="1397" y="704">tsvector</text>
<text text-anchor="middle" style="font-size:8.00;" x="1335" y="718">defaultmembershipperiod</text>
<text text-anchor="middle" style="font-size:8.00;" x="1395" y="718">integer</text>
<text text-anchor="middle" style="font-size:8.00;" x="1328" y="732">defaultrenewalperiod</text>
<text text-anchor="middle" style="font-size:8.00;" x="1395" y="732">integer</text>
<text text-anchor="middle" style="font-size:8.00;" x="1323" y="746">subscriptionpolicy</text>
<text text-anchor="middle" style="font-size:8.00;" x="1395" y="746">integer</text>
<text text-anchor="middle" style="font-size:8.00;" x="1306" y="760">merged</text>
<text text-anchor="middle" style="font-size:8.00;" x="1395" y="760">integer</text>
<text text-anchor="middle" style="font-size:8.00;" x="1464" y="760"> REFERENCES person </text>
<text text-anchor="middle" style="font-size:8.00;" x="1312" y="774">datecreated</text>
<text text-anchor="middle" style="font-size:8.00;" x="1401" y="774">timestamp</text>
<text text-anchor="middle" style="font-size:8.00;" x="1307" y="788">calendar</text>
<text text-anchor="middle" style="font-size:8.00;" x="1395" y="788">integer</text>
<text text-anchor="middle" style="font-size:8.00;" x="1483" y="788"> REFERENCES calendar UNIQUE </text>
<text text-anchor="middle" style="font-size:8.00;" x="1309" y="802">timezone</text>
<text text-anchor="middle" style="font-size:8.00;" x="1390" y="802">text</text>
<text text-anchor="middle" style="font-size:8.00;" x="1314" y="816">addressline1</text>
<text text-anchor="middle" style="font-size:8.00;" x="1390" y="816">text</text>
<text text-anchor="middle" style="font-size:8.00;" x="1314" y="830">addressline2</text>
<text text-anchor="middle" style="font-size:8.00;" x="1390" y="830">text</text>
<text text-anchor="middle" style="font-size:8.00;" x="1314" y="844">organization</text>
<text text-anchor="middle" style="font-size:8.00;" x="1390" y="844">text</text>
<text text-anchor="middle" style="font-size:8.00;" x="1300" y="858">city</text>
<text text-anchor="middle" style="font-size:8.00;" x="1390" y="858">text</text>
<text text-anchor="middle" style="font-size:8.00;" x="1308" y="872">province</text>
<text text-anchor="middle" style="font-size:8.00;" x="1390" y="872">text</text>
<text text-anchor="middle" style="font-size:8.00;" x="1306" y="886">country</text>
<text text-anchor="middle" style="font-size:8.00;" x="1395" y="886">integer</text>
<text text-anchor="middle" style="font-size:8.00;" x="1465" y="886"> REFERENCES country </text>
<text text-anchor="middle" style="font-size:8.00;" x="1308" y="900">postcode</text>
<text text-anchor="middle" style="font-size:8.00;" x="1390" y="900">text</text>
<text text-anchor="middle" style="font-size:8.00;" x="1304" y="914">phone</text>
<text text-anchor="middle" style="font-size:8.00;" x="1390" y="914">text</text>
<text text-anchor="middle" style="font-size:8.00;" x="1325" y="928">homepage_content</text>
<text text-anchor="middle" style="font-size:8.00;" x="1390" y="928">text</text>
<text text-anchor="middle" style="font-size:8.00;" x="1307" y="942">emblem</text>
<text text-anchor="middle" style="font-size:8.00;" x="1395" y="942">integer</text>
<text text-anchor="middle" style="font-size:8.00;" x="1476" y="942"> REFERENCES libraryfilealias </text>
<text text-anchor="middle" style="font-size:8.00;" x="1315" y="956">hackergotchi</text>
<text text-anchor="middle" style="font-size:8.00;" x="1395" y="956">integer</text>
<text text-anchor="middle" style="font-size:8.00;" x="1476" y="956"> REFERENCES libraryfilealias </text>
<text text-anchor="middle" style="font-size:8.00;" x="1329" y="970">hide_email_addresses</text>
<text text-anchor="middle" style="font-size:8.00;" x="1397" y="970">boolean</text>
<polygon style="fill:none;stroke:black;" points="1288,976 1288,578 1546,578 1546,976 1288,976"/>
</g>
<g id="edge8" class="edge"><title>emailaddress&#45;&gt;person</title>
<path style="fill:none;stroke:black;" d="M1217,416C1237,452 1268,508 1299,565"/>
<polygon style="fill:black;stroke:black;" points="1302,564 1304,574 1296,567 1302,564"/>
</g>
<g id="node5" class="node"><title>gpgkey</title>
<polygon style="fill:#c1cdcc;stroke:#c1cdcc;" points="1378,294 1378,162 1578,162 1578,294 1378,294"/>
<polygon style="fill:white;stroke:white;" points="1381,179 1381,165 1575,165 1575,179 1381,179"/>
<text text-anchor="middle" style="font-size:8.00;" x="1478" y="175">gpgkey</text>
<polygon style="fill:none;stroke:black;" points="1381,179 1381,165 1575,165 1575,179 1381,179"/>
<text text-anchor="middle" style="font-size:8.00;" x="1387" y="190">id</text>
<text text-anchor="middle" style="font-size:8.00;" x="1438" y="190">serial</text>
<text text-anchor="middle" style="font-size:8.00;" x="1509" y="190"> UNIQUE PRIMARY KEY </text>
<text text-anchor="middle" style="font-size:8.00;" x="1394" y="204">owner</text>
<text text-anchor="middle" style="font-size:8.00;" x="1441" y="204">integer</text>
<text text-anchor="middle" style="font-size:8.00;" x="1518" y="204"> REFERENCES person UNIQUE </text>
<text text-anchor="middle" style="font-size:8.00;" x="1393" y="218">keyid</text>
<text text-anchor="middle" style="font-size:8.00;" x="1436" y="218">text</text>
<text text-anchor="middle" style="font-size:8.00;" x="1401" y="232">fingerprint</text>
<text text-anchor="middle" style="font-size:8.00;" x="1436" y="232">text</text>
<text text-anchor="middle" style="font-size:8.00;" x="1480" y="232"> UNIQUE </text>
<text text-anchor="middle" style="font-size:8.00;" x="1393" y="246">active</text>
<text text-anchor="middle" style="font-size:8.00;" x="1443" y="246">boolean</text>
<text text-anchor="middle" style="font-size:8.00;" x="1399" y="260">algorithm</text>
<text text-anchor="middle" style="font-size:8.00;" x="1441" y="260">integer</text>
<text text-anchor="middle" style="font-size:8.00;" x="1396" y="274">keysize</text>
<text text-anchor="middle" style="font-size:8.00;" x="1441" y="274">integer</text>
<text text-anchor="middle" style="font-size:8.00;" x="1403" y="288">can_encrypt</text>
<text text-anchor="middle" style="font-size:8.00;" x="1443" y="288">boolean</text>
<polygon style="fill:none;stroke:black;" points="1378,294 1378,162 1578,162 1578,294 1378,294"/>
</g>
<g id="edge10" class="edge"><title>gpgkey&#45;&gt;person</title>
<path style="fill:none;stroke:black;" d="M1470,298C1463,365 1451,470 1441,564"/>
<polygon style="fill:black;stroke:black;" points="1444,564 1440,574 1438,564 1444,564"/>
</g>
<g id="node6" class="node"><title>ircid</title>
<polygon style="fill:#c1cdcc;stroke:#c1cdcc;" points="1046,1228 1046,1152 1204,1152 1204,1228 1046,1228"/>
<polygon style="fill:white;stroke:white;" points="1049,1169 1049,1155 1201,1155 1201,1169 1049,1169"/>
<text text-anchor="middle" style="font-size:8.00;" x="1125" y="1165">ircid</text>
<polygon style="fill:none;stroke:black;" points="1049,1169 1049,1155 1201,1155 1201,1169 1049,1169"/>
<text text-anchor="middle" style="font-size:8.00;" x="1055" y="1180">id</text>
<text text-anchor="middle" style="font-size:8.00;" x="1099" y="1180">serial</text>
<text text-anchor="middle" style="font-size:8.00;" x="1150" y="1180"> PRIMARY KEY </text>
<text text-anchor="middle" style="font-size:8.00;" x="1063" y="1194">person</text>
<text text-anchor="middle" style="font-size:8.00;" x="1102" y="1194">integer</text>
<text text-anchor="middle" style="font-size:8.00;" x="1160" y="1194"> REFERENCES person </text>
<text text-anchor="middle" style="font-size:8.00;" x="1065" y="1208">network</text>
<text text-anchor="middle" style="font-size:8.00;" x="1097" y="1208">text</text>
<text text-anchor="middle" style="font-size:8.00;" x="1068" y="1222">nickname</text>
<text text-anchor="middle" style="font-size:8.00;" x="1097" y="1222">text</text>
<polygon style="fill:none;stroke:black;" points="1046,1228 1046,1152 1204,1152 1204,1228 1046,1228"/>
</g>
<g id="edge12" class="edge"><title>ircid&#45;&gt;person</title>
<path style="fill:none;stroke:black;" d="M1155,1148C1184,1107 1229,1043 1274,980"/>
<polygon style="fill:black;stroke:black;" points="1272,977 1280,971 1277,981 1272,977"/>
</g>
<g id="node7" class="node"><title>jabberid</title>
<polygon style="fill:#c1cdcc;stroke:#c1cdcc;" points="1387,1296 1387,1234 1541,1234 1541,1296 1387,1296"/>
<polygon style="fill:white;stroke:white;" points="1390,1251 1390,1237 1538,1237 1538,1251 1390,1251"/>
<text text-anchor="middle" style="font-size:8.00;" x="1464" y="1247">jabberid</text>
<polygon style="fill:none;stroke:black;" points="1390,1251 1390,1237 1538,1237 1538,1251 1390,1251"/>
<text text-anchor="middle" style="font-size:8.00;" x="1396" y="1262">id</text>
<text text-anchor="middle" style="font-size:8.00;" x="1436" y="1262">serial</text>
<text text-anchor="middle" style="font-size:8.00;" x="1487" y="1262"> PRIMARY KEY </text>
<text text-anchor="middle" style="font-size:8.00;" x="1404" y="1276">person</text>
<text text-anchor="middle" style="font-size:8.00;" x="1439" y="1276">integer</text>
<text text-anchor="middle" style="font-size:8.00;" x="1497" y="1276"> REFERENCES person </text>
<text text-anchor="middle" style="font-size:8.00;" x="1406" y="1290">jabberid</text>
<text text-anchor="middle" style="font-size:8.00;" x="1434" y="1290">text</text>
<text text-anchor="middle" style="font-size:8.00;" x="1475" y="1290"> UNIQUE </text>
<polygon style="fill:none;stroke:black;" points="1387,1296 1387,1234 1541,1234 1541,1296 1387,1296"/>
</g>
<g id="edge14" class="edge"><title>jabberid&#45;&gt;person</title>
<path style="fill:none;stroke:black;" d="M1461,1230C1456,1179 1447,1082 1438,990"/>
<polygon style="fill:black;stroke:black;" points="1435,990 1437,980 1441,990 1435,990"/>
</g>
<g id="node8" class="node"><title>karma</title>
<polygon style="fill:#c1cdcc;stroke:#c1cdcc;" points="700,644 700,568 892,568 892,644 700,644"/>
<polygon style="fill:white;stroke:white;" points="703,585 703,571 889,571 889,585 703,585"/>
<text text-anchor="middle" style="font-size:8.00;" x="796" y="581">karma</text>
<polygon style="fill:none;stroke:black;" points="703,585 703,571 889,571 889,585 703,585"/>
<text text-anchor="middle" style="font-size:8.00;" x="709" y="596">id</text>
<text text-anchor="middle" style="font-size:8.00;" x="758" y="596">serial</text>
<text text-anchor="middle" style="font-size:8.00;" x="820" y="596"> PRIMARY KEY </text>
<text text-anchor="middle" style="font-size:8.00;" x="724" y="610">datecreated</text>
<text text-anchor="middle" style="font-size:8.00;" x="767" y="610">timestamp</text>
<text text-anchor="middle" style="font-size:8.00;" x="717" y="624">person</text>
<text text-anchor="middle" style="font-size:8.00;" x="761" y="624">integer</text>
<text text-anchor="middle" style="font-size:8.00;" x="830" y="624"> REFERENCES person </text>
<text text-anchor="middle" style="font-size:8.00;" x="715" y="638">action</text>
<text text-anchor="middle" style="font-size:8.00;" x="761" y="638">integer</text>
<text text-anchor="middle" style="font-size:8.00;" x="839" y="638"> REFERENCES karmaaction </text>
<polygon style="fill:none;stroke:black;" points="700,644 700,568 892,568 892,644 700,644"/>
</g>
<g id="node9" class="node"><title>karmaaction</title>
<polygon style="fill:#c1cdcc;stroke:#c1cdcc;" points="307,556 307,452 489,452 489,556 307,556"/>
<polygon style="fill:white;stroke:white;" points="310,469 310,455 486,455 486,469 310,469"/>
<text text-anchor="middle" style="font-size:8.00;" x="398" y="465">karmaaction</text>
<polygon style="fill:none;stroke:black;" points="310,469 310,455 486,455 486,469 310,469"/>
<text text-anchor="middle" style="font-size:8.00;" x="316" y="480">id</text>
<text text-anchor="middle" style="font-size:8.00;" x="358" y="480">serial</text>
<text text-anchor="middle" style="font-size:8.00;" x="409" y="480"> PRIMARY KEY </text>
<text text-anchor="middle" style="font-size:8.00;" x="326" y="494">category</text>
<text text-anchor="middle" style="font-size:8.00;" x="361" y="494">integer</text>
<text text-anchor="middle" style="font-size:8.00;" x="432" y="494"> REFERENCES karmacategory </text>
<text text-anchor="middle" style="font-size:8.00;" x="323" y="508">points</text>
<text text-anchor="middle" style="font-size:8.00;" x="361" y="508">integer</text>
<text text-anchor="middle" style="font-size:8.00;" x="322" y="522">name</text>
<text text-anchor="middle" style="font-size:8.00;" x="356" y="522">text</text>
<text text-anchor="middle" style="font-size:8.00;" x="397" y="522"> UNIQUE </text>
<text text-anchor="middle" style="font-size:8.00;" x="319" y="536">title</text>
<text text-anchor="middle" style="font-size:8.00;" x="356" y="536">text</text>
<text text-anchor="middle" style="font-size:8.00;" x="328" y="550">summary</text>
<text text-anchor="middle" style="font-size:8.00;" x="356" y="550">text</text>
<polygon style="fill:none;stroke:black;" points="307,556 307,452 489,452 489,556 307,556"/>
</g>
<g id="edge18" class="edge"><title>karma&#45;&gt;karmaaction</title>
<path style="fill:none;stroke:black;" d="M692,579C635,565 565,547 507,532"/>
<polygon style="fill:black;stroke:black;" points="506,535 497,529 508,529 506,535"/>
</g>
<g id="edge16" class="edge"><title>karma&#45;&gt;person</title>
<path style="fill:none;stroke:black;" d="M900,635C1001,662 1156,705 1270,736"/>
<polygon style="fill:black;stroke:black;" points="1271,733 1280,739 1269,739 1271,733"/>
</g>
<g id="node11" class="node"><title>karmacategory</title>
<polygon style="fill:#c1cdcc;stroke:#c1cdcc;" points="14,461 14,385 146,385 146,461 14,461"/>
<polygon style="fill:white;stroke:white;" points="17,402 17,388 143,388 143,402 17,402"/>
<text text-anchor="middle" style="font-size:8.00;" x="80" y="398">karmacategory</text>
<polygon style="fill:none;stroke:black;" points="17,402 17,388 143,388 143,402 17,402"/>
<text text-anchor="middle" style="font-size:8.00;" x="23" y="413">id</text>
<text text-anchor="middle" style="font-size:8.00;" x="66" y="413">serial</text>
<text text-anchor="middle" style="font-size:8.00;" x="111" y="413"> PRIMARY KEY </text>
<text text-anchor="middle" style="font-size:8.00;" x="29" y="427">name</text>
<text text-anchor="middle" style="font-size:8.00;" x="64" y="427">text</text>
<text text-anchor="middle" style="font-size:8.00;" x="26" y="441">title</text>
<text text-anchor="middle" style="font-size:8.00;" x="64" y="441">text</text>
<text text-anchor="middle" style="font-size:8.00;" x="35" y="455">summary</text>
<text text-anchor="middle" style="font-size:8.00;" x="64" y="455">text</text>
<polygon style="fill:none;stroke:black;" points="14,461 14,385 146,385 146,461 14,461"/>
</g>
<g id="edge20" class="edge"><title>karmaaction&#45;&gt;karmacategory</title>
<path style="fill:none;stroke:black;" d="M299,479C255,468 205,455 164,444"/>
<polygon style="fill:black;stroke:black;" points="163,447 154,442 164,441 163,447"/>
</g>
<g id="node10" class="node"><title>karmacache</title>
<polygon style="fill:#c1cdcc;stroke:#c1cdcc;" points="818,800 818,724 1014,724 1014,800 818,800"/>
<polygon style="fill:white;stroke:white;" points="821,741 821,727 1011,727 1011,741 821,741"/>
<text text-anchor="middle" style="font-size:8.00;" x="916" y="737">karmacache</text>
<polygon style="fill:none;stroke:black;" points="821,741 821,727 1011,727 1011,741 821,741"/>
<text text-anchor="middle" style="font-size:8.00;" x="827" y="752">id</text>
<text text-anchor="middle" style="font-size:8.00;" x="877" y="752">serial</text>
<text text-anchor="middle" style="font-size:8.00;" x="928" y="752"> PRIMARY KEY </text>
<text text-anchor="middle" style="font-size:8.00;" x="835" y="766">person</text>
<text text-anchor="middle" style="font-size:8.00;" x="880" y="766">integer</text>
<text text-anchor="middle" style="font-size:8.00;" x="954" y="766"> UNIQUE REFERENCES person </text>
<text text-anchor="middle" style="font-size:8.00;" x="837" y="780">category</text>
<text text-anchor="middle" style="font-size:8.00;" x="880" y="780">integer</text>
<text text-anchor="middle" style="font-size:8.00;" x="916" y="780"> UNIQUE </text>
<text text-anchor="middle" style="font-size:8.00;" x="843" y="794">karmavalue</text>
<text text-anchor="middle" style="font-size:8.00;" x="880" y="794">integer</text>
<polygon style="fill:none;stroke:black;" points="818,800 818,724 1014,724 1014,800 818,800"/>
</g>
<g id="edge22" class="edge"><title>karmacache&#45;&gt;person</title>
<path style="fill:none;stroke:black;" d="M1022,765C1094,768 1191,771 1270,773"/>
<polygon style="fill:black;stroke:black;" points="1270,769 1280,773 1270,776 1270,769"/>
</g>
<g id="node12" class="node"><title>karmatotalcache</title>
<polygon style="fill:#c1cdcc;stroke:#c1cdcc;" points="1742,509 1742,447 1940,447 1940,509 1742,509"/>
<polygon style="fill:white;stroke:white;" points="1745,464 1745,450 1937,450 1937,464 1745,464"/>
<text text-anchor="middle" style="font-size:8.00;" x="1841" y="460">karmatotalcache</text>
<polygon style="fill:none;stroke:black;" points="1745,464 1745,450 1937,450 1937,464 1745,464"/>
<text text-anchor="middle" style="font-size:8.00;" x="1751" y="475">id</text>
<text text-anchor="middle" style="font-size:8.00;" x="1803" y="475">serial</text>
<text text-anchor="middle" style="font-size:8.00;" x="1854" y="475"> PRIMARY KEY </text>
<text text-anchor="middle" style="font-size:8.00;" x="1759" y="489">person</text>
<text text-anchor="middle" style="font-size:8.00;" x="1806" y="489">integer</text>
<text text-anchor="middle" style="font-size:8.00;" x="1880" y="489"> REFERENCES person UNIQUE </text>
<text text-anchor="middle" style="font-size:8.00;" x="1767" y="503">karma_total</text>
<text text-anchor="middle" style="font-size:8.00;" x="1806" y="503">integer</text>
<polygon style="fill:none;stroke:black;" points="1742,509 1742,447 1940,447 1940,509 1742,509"/>
</g>
<g id="edge24" class="edge"><title>karmatotalcache&#45;&gt;person</title>
<path style="fill:none;stroke:black;" d="M1791,513C1735,553 1642,618 1563,674"/>
<polygon style="fill:black;stroke:black;" points="1564,677 1554,680 1560,672 1564,677"/>
</g>
<g id="node13" class="node"><title>language</title>
<polygon style="fill:#c1cdcc;stroke:#c1cdcc;" points="1861,838 1861,706 2025,706 2025,838 1861,838"/>
<polygon style="fill:white;stroke:white;" points="1864,723 1864,709 2022,709 2022,723 1864,723"/>
<text text-anchor="middle" style="font-size:8.00;" x="1943" y="719">language</text>
<polygon style="fill:none;stroke:black;" points="1864,723 1864,709 2022,709 2022,723 1864,723"/>
<text text-anchor="middle" style="font-size:8.00;" x="1870" y="734">id</text>
<text text-anchor="middle" style="font-size:8.00;" x="1936" y="734">serial</text>
<text text-anchor="middle" style="font-size:8.00;" x="1990" y="734"> PRIMARY KEY </text>
<text text-anchor="middle" style="font-size:8.00;" x="1874" y="748">code</text>
<text text-anchor="middle" style="font-size:8.00;" x="1934" y="748">text</text>
<text text-anchor="middle" style="font-size:8.00;" x="1978" y="748"> UNIQUE </text>
<text text-anchor="middle" style="font-size:8.00;" x="1887" y="762">englishname</text>
<text text-anchor="middle" style="font-size:8.00;" x="1934" y="762">text</text>
<text text-anchor="middle" style="font-size:8.00;" x="1886" y="776">nativename</text>
<text text-anchor="middle" style="font-size:8.00;" x="1934" y="776">text</text>
<text text-anchor="middle" style="font-size:8.00;" x="1886" y="790">pluralforms</text>
<text text-anchor="middle" style="font-size:8.00;" x="1939" y="790">integer</text>
<text text-anchor="middle" style="font-size:8.00;" x="1894" y="804">pluralexpression</text>
<text text-anchor="middle" style="font-size:8.00;" x="1934" y="804">text</text>
<text text-anchor="middle" style="font-size:8.00;" x="1878" y="818">visible</text>
<text text-anchor="middle" style="font-size:8.00;" x="1941" y="818">boolean</text>
<text text-anchor="middle" style="font-size:8.00;" x="1881" y="832">direction</text>
<text text-anchor="middle" style="font-size:8.00;" x="1939" y="832">integer</text>
<polygon style="fill:none;stroke:black;" points="1861,838 1861,706 2025,706 2025,838 1861,838"/>
</g>
<g id="node14" class="node"><title>logintoken</title>
<polygon style="fill:#c1cdcc;stroke:#c1cdcc;" points="901,521 901,375 1087,375 1087,521 901,521"/>
<polygon style="fill:white;stroke:white;" points="904,392 904,378 1084,378 1084,392 904,392"/>
<text text-anchor="middle" style="font-size:8.00;" x="994" y="388">logintoken</text>
<polygon style="fill:none;stroke:black;" points="904,392 904,378 1084,378 1084,392 904,392"/>
<text text-anchor="middle" style="font-size:8.00;" x="910" y="403">id</text>
<text text-anchor="middle" style="font-size:8.00;" x="971" y="403">serial</text>
<text text-anchor="middle" style="font-size:8.00;" x="922" y="417">requester</text>
<text text-anchor="middle" style="font-size:8.00;" x="974" y="417">integer</text>
<text text-anchor="middle" style="font-size:8.00;" x="1043" y="417"> REFERENCES person </text>
<text text-anchor="middle" style="font-size:8.00;" x="931" y="431">requesteremail</text>
<text text-anchor="middle" style="font-size:8.00;" x="969" y="431">text</text>
<text text-anchor="middle" style="font-size:8.00;" x="916" y="445">email</text>
<text text-anchor="middle" style="font-size:8.00;" x="969" y="445">text</text>
<text text-anchor="middle" style="font-size:8.00;" x="918" y="459">created</text>
<text text-anchor="middle" style="font-size:8.00;" x="980" y="459">timestamp</text>
<text text-anchor="middle" style="font-size:8.00;" x="923" y="473">tokentype</text>
<text text-anchor="middle" style="font-size:8.00;" x="974" y="473">integer</text>
<text text-anchor="middle" style="font-size:8.00;" x="916" y="487">token</text>
<text text-anchor="middle" style="font-size:8.00;" x="969" y="487">text</text>
<text text-anchor="middle" style="font-size:8.00;" x="1021" y="487"> UNIQUE </text>
<text text-anchor="middle" style="font-size:8.00;" x="924" y="501">fingerprint</text>
<text text-anchor="middle" style="font-size:8.00;" x="969" y="501">text</text>
<text text-anchor="middle" style="font-size:8.00;" x="931" y="515">redirection_url</text>
<text text-anchor="middle" style="font-size:8.00;" x="969" y="515">text</text>
<polygon style="fill:none;stroke:black;" points="901,521 901,375 1087,375 1087,521 901,521"/>
</g>
<g id="edge26" class="edge"><title>logintoken&#45;&gt;person</title>
<path style="fill:none;stroke:black;" d="M1093,525C1146,566 1213,618 1272,664"/>
<polygon style="fill:black;stroke:black;" points="1274,661 1280,670 1270,667 1274,661"/>
</g>
<g id="edge34" class="edge"><title>person&#45;&gt;calendar</title>
<path style="fill:none;stroke:black;" d="M1509,980C1556,1082 1607,1196 1635,1258"/>
<polygon style="fill:black;stroke:black;" points="1638,1256 1639,1267 1632,1259 1638,1256"/>
</g>
<g id="edge36" class="edge"><title>person&#45;&gt;country</title>
<path style="fill:none;stroke:black;" d="M1554,575C1612,488 1678,393 1721,329"/>
<polygon style="fill:black;stroke:black;" points="1718,327 1727,321 1724,331 1718,327"/>
</g>
<g id="edge30" class="edge"><title>person&#45;&gt;language</title>
<path style="fill:none;stroke:black;" d="M1554,776C1644,775 1761,774 1843,773"/>
<polygon style="fill:black;stroke:black;" points="1843,769 1853,773 1843,776 1843,769"/>
</g>
<g id="edge28" class="edge"><title>person&#45;&gt;person</title>
<path style="fill:none;stroke:black;" d="M1554,835C1565,822 1572,803 1572,777 1572,756 1567,740 1560,727"/>
<polygon style="fill:black;stroke:black;" points="1557,729 1554,719 1563,725 1557,729"/>
</g>
<g id="edge32" class="edge"><title>person&#45;&gt;person</title>
<path style="fill:none;stroke:black;" d="M1554,915C1576,895 1590,848 1590,777 1590,714 1579,670 1561,647"/>
<polygon style="fill:black;stroke:black;" points="1558,649 1554,639 1563,644 1558,649"/>
</g>
<g id="node42" class="node"><title>fake_libraryfilealias_192</title>
<ellipse cx="1560" cy="421" rx="35" ry="18" style="fill:none;stroke:red;"/>
<text text-anchor="middle" style="font-size:8.00;" x="1560" y="424">libraryfilealias</text>
</g>
<g id="edge38" class="edge"><title>person&#45;&gt;fake_libraryfilealias_192</title>
<path style="fill:none;stroke:black;" d="M1499,574C1519,524 1538,477 1549,448"/>
<polygon style="fill:black;stroke:black;" points="1546,447 1553,439 1552,450 1546,447"/>
</g>
<g id="node44" class="node"><title>fake_libraryfilealias_194</title>
<ellipse cx="1637" cy="1083" rx="35" ry="18" style="fill:none;stroke:red;"/>
<text text-anchor="middle" style="font-size:8.00;" x="1637" y="1086">libraryfilealias</text>
</g>
<g id="edge40" class="edge"><title>person&#45;&gt;fake_libraryfilealias_194</title>
<path style="fill:none;stroke:black;" d="M1554,968C1580,1004 1604,1036 1619,1058"/>
<polygon style="fill:black;stroke:black;" points="1622,1056 1625,1066 1616,1060 1622,1056"/>
</g>
<g id="node16" class="node"><title>personlanguage</title>
<polygon style="fill:#c1cdcc;stroke:#c1cdcc;" points="1828,679 1828,617 2024,617 2024,679 1828,679"/>
<polygon style="fill:white;stroke:white;" points="1831,634 1831,620 2021,620 2021,634 1831,634"/>
<text text-anchor="middle" style="font-size:8.00;" x="1926" y="630">personlanguage</text>
<polygon style="fill:none;stroke:black;" points="1831,634 1831,620 2021,620 2021,634 1831,634"/>
<text text-anchor="middle" style="font-size:8.00;" x="1837" y="645">id</text>
<text text-anchor="middle" style="font-size:8.00;" x="1879" y="645">serial</text>
<text text-anchor="middle" style="font-size:8.00;" x="1930" y="645"> PRIMARY KEY </text>
<text text-anchor="middle" style="font-size:8.00;" x="1845" y="659">person</text>
<text text-anchor="middle" style="font-size:8.00;" x="1882" y="659">integer</text>
<text text-anchor="middle" style="font-size:8.00;" x="1956" y="659"> REFERENCES person UNIQUE </text>
<text text-anchor="middle" style="font-size:8.00;" x="1849" y="673">language</text>
<text text-anchor="middle" style="font-size:8.00;" x="1882" y="673">integer</text>
<text text-anchor="middle" style="font-size:8.00;" x="1960" y="673"> REFERENCES language UNIQUE </text>
<polygon style="fill:none;stroke:black;" points="1828,679 1828,617 2024,617 2024,679 1828,679"/>
</g>
<g id="edge44" class="edge"><title>personlanguage&#45;&gt;language</title>
<path style="fill:none;stroke:black;" d="M1931,683C1931,686 1932,689 1932,692"/>
<polygon style="fill:black;stroke:black;" points="1935,692 1934,702 1929,693 1935,692"/>
</g>
<g id="edge42" class="edge"><title>personlanguage&#45;&gt;person</title>
<path style="fill:none;stroke:black;" d="M1820,675C1746,694 1646,719 1564,740"/>
<polygon style="fill:black;stroke:black;" points="1564,743 1554,742 1563,737 1564,743"/>
</g>
<g id="node17" class="node"><title>signedcodeofconduct</title>
<polygon style="fill:#c1cdcc;stroke:#c1cdcc;" points="1080,273 1080,141 1346,141 1346,273 1080,273"/>
<polygon style="fill:white;stroke:white;" points="1083,158 1083,144 1343,144 1343,158 1083,158"/>
<text text-anchor="middle" style="font-size:8.00;" x="1213" y="154">signedcodeofconduct</text>
<polygon style="fill:none;stroke:black;" points="1083,158 1083,144 1343,144 1343,158 1083,158"/>
<text text-anchor="middle" style="font-size:8.00;" x="1089" y="169">id</text>
<text text-anchor="middle" style="font-size:8.00;" x="1152" y="169">serial</text>
<text text-anchor="middle" style="font-size:8.00;" x="1096" y="183">owner</text>
<text text-anchor="middle" style="font-size:8.00;" x="1155" y="183">integer</text>
<text text-anchor="middle" style="font-size:8.00;" x="1263" y="183"> REFERENCES person REFERENCES gpgkey </text>
<text text-anchor="middle" style="font-size:8.00;" x="1103" y="197">signingkey</text>
<text text-anchor="middle" style="font-size:8.00;" x="1155" y="197">integer</text>
<text text-anchor="middle" style="font-size:8.00;" x="1225" y="197"> REFERENCES gpgkey </text>
<text text-anchor="middle" style="font-size:8.00;" x="1104" y="211">datecreated</text>
<text text-anchor="middle" style="font-size:8.00;" x="1161" y="211">timestamp</text>
<text text-anchor="middle" style="font-size:8.00;" x="1104" y="225">signedcode</text>
<text text-anchor="middle" style="font-size:8.00;" x="1150" y="225">text</text>
<text text-anchor="middle" style="font-size:8.00;" x="1100" y="239">recipient</text>
<text text-anchor="middle" style="font-size:8.00;" x="1155" y="239">integer</text>
<text text-anchor="middle" style="font-size:8.00;" x="1095" y="253">active</text>
<text text-anchor="middle" style="font-size:8.00;" x="1157" y="253">boolean</text>
<text text-anchor="middle" style="font-size:8.00;" x="1111" y="267">admincomment</text>
<text text-anchor="middle" style="font-size:8.00;" x="1150" y="267">text</text>
<polygon style="fill:none;stroke:black;" points="1080,273 1080,141 1346,141 1346,273 1080,273"/>
</g>
<g id="edge48" class="edge"><title>signedcodeofconduct&#45;&gt;gpgkey</title>
<path style="fill:none;stroke:black;" d="M1354,218C1356,218 1358,218 1360,218"/>
<polygon style="fill:black;stroke:black;" points="1360,215 1370,219 1360,221 1360,215"/>
</g>
<g id="edge46" class="edge"><title>signedcodeofconduct&#45;&gt;person</title>
<path style="fill:none;stroke:black;" d="M1254,277C1263,294 1272,313 1279,330 1311,405 1338,489 1360,564"/>
<polygon style="fill:black;stroke:black;" points="1363,563 1363,574 1357,565 1363,563"/>
</g>
<g id="node18" class="node"><title>sshkey</title>
<polygon style="fill:#c1cdcc;stroke:#c1cdcc;" points="864,987 864,897 1020,897 1020,987 864,987"/>
<polygon style="fill:white;stroke:white;" points="867,914 867,900 1017,900 1017,914 867,914"/>
<text text-anchor="middle" style="font-size:8.00;" x="942" y="910">sshkey</text>
<polygon style="fill:none;stroke:black;" points="867,914 867,900 1017,900 1017,914 867,914"/>
<text text-anchor="middle" style="font-size:8.00;" x="873" y="925">id</text>
<text text-anchor="middle" style="font-size:8.00;" x="915" y="925">serial</text>
<text text-anchor="middle" style="font-size:8.00;" x="966" y="925"> PRIMARY KEY </text>
<text text-anchor="middle" style="font-size:8.00;" x="881" y="939">person</text>
<text text-anchor="middle" style="font-size:8.00;" x="918" y="939">integer</text>
<text text-anchor="middle" style="font-size:8.00;" x="976" y="939"> REFERENCES person </text>
<text text-anchor="middle" style="font-size:8.00;" x="883" y="953">keytype</text>
<text text-anchor="middle" style="font-size:8.00;" x="918" y="953">integer</text>
<text text-anchor="middle" style="font-size:8.00;" x="882" y="967">keytext</text>
<text text-anchor="middle" style="font-size:8.00;" x="913" y="967">text</text>
<text text-anchor="middle" style="font-size:8.00;" x="885" y="981">comment</text>
<text text-anchor="middle" style="font-size:8.00;" x="913" y="981">text</text>
<polygon style="fill:none;stroke:black;" points="864,987 864,897 1020,897 1020,987 864,987"/>
</g>
<g id="edge50" class="edge"><title>sshkey&#45;&gt;person</title>
<path style="fill:none;stroke:black;" d="M1028,912C1095,889 1191,856 1270,828"/>
<polygon style="fill:black;stroke:black;" points="1269,825 1280,825 1271,831 1269,825"/>
</g>
<g id="node19" class="node"><title>teammembership</title>
<polygon style="fill:#c1cdcc;stroke:#c1cdcc;" points="1852,1027 1852,895 2080,895 2080,1027 1852,1027"/>
<polygon style="fill:white;stroke:white;" points="1855,912 1855,898 2077,898 2077,912 1855,912"/>
<text text-anchor="middle" style="font-size:8.00;" x="1966" y="908">teammembership</text>
<polygon style="fill:none;stroke:black;" points="1855,912 1855,898 2077,898 2077,912 1855,912"/>
<text text-anchor="middle" style="font-size:8.00;" x="1861" y="923">id</text>
<text text-anchor="middle" style="font-size:8.00;" x="1932" y="923">serial</text>
<text text-anchor="middle" style="font-size:8.00;" x="1994" y="923"> PRIMARY KEY </text>
<text text-anchor="middle" style="font-size:8.00;" x="1869" y="937">person</text>
<text text-anchor="middle" style="font-size:8.00;" x="1935" y="937">integer</text>
<text text-anchor="middle" style="font-size:8.00;" x="2020" y="937"> UNIQUE REFERENCES person </text>
<text text-anchor="middle" style="font-size:8.00;" x="1866" y="951">team</text>
<text text-anchor="middle" style="font-size:8.00;" x="1935" y="951">integer</text>
<text text-anchor="middle" style="font-size:8.00;" x="2020" y="951"> UNIQUE REFERENCES person </text>
<text text-anchor="middle" style="font-size:8.00;" x="1867" y="965">status</text>
<text text-anchor="middle" style="font-size:8.00;" x="1935" y="965">integer</text>
<text text-anchor="middle" style="font-size:8.00;" x="1874" y="979">datejoined</text>
<text text-anchor="middle" style="font-size:8.00;" x="1941" y="979">timestamp</text>
<text text-anchor="middle" style="font-size:8.00;" x="1876" y="993">dateexpires</text>
<text text-anchor="middle" style="font-size:8.00;" x="1941" y="993">timestamp</text>
<text text-anchor="middle" style="font-size:8.00;" x="1872" y="1007">reviewer</text>
<text text-anchor="middle" style="font-size:8.00;" x="1935" y="1007">integer</text>
<text text-anchor="middle" style="font-size:8.00;" x="2004" y="1007"> REFERENCES person </text>
<text text-anchor="middle" style="font-size:8.00;" x="1887" y="1021">reviewercomment</text>
<text text-anchor="middle" style="font-size:8.00;" x="1930" y="1021">text</text>
<polygon style="fill:none;stroke:black;" points="1852,1027 1852,895 2080,895 2080,1027 1852,1027"/>
</g>
<g id="edge52" class="edge"><title>teammembership&#45;&gt;person</title>
<path style="fill:none;stroke:black;" d="M1844,920C1761,892 1651,856 1563,826"/>
<polygon style="fill:black;stroke:black;" points="1562,829 1554,823 1565,823 1562,829"/>
</g>
<g id="edge54" class="edge"><title>teammembership&#45;&gt;person</title>
<path style="fill:none;stroke:black;" d="M1844,920C1761,892 1651,856 1563,826"/>
<polygon style="fill:black;stroke:black;" points="1562,829 1554,823 1565,823 1562,829"/>
</g>
<g id="edge56" class="edge"><title>teammembership&#45;&gt;person</title>
<path style="fill:none;stroke:black;" d="M1844,920C1761,892 1651,856 1563,826"/>
<polygon style="fill:black;stroke:black;" points="1562,829 1554,823 1565,823 1562,829"/>
</g>
<g id="node20" class="node"><title>teamparticipation</title>
<polygon style="fill:#c1cdcc;stroke:#c1cdcc;" points="1175,1315 1175,1253 1355,1253 1355,1315 1175,1315"/>
<polygon style="fill:white;stroke:white;" points="1178,1270 1178,1256 1352,1256 1352,1270 1178,1270"/>
<text text-anchor="middle" style="font-size:8.00;" x="1265" y="1266">teamparticipation</text>
<polygon style="fill:none;stroke:black;" points="1178,1270 1178,1256 1352,1256 1352,1270 1178,1270"/>
<text text-anchor="middle" style="font-size:8.00;" x="1184" y="1281">id</text>
<text text-anchor="middle" style="font-size:8.00;" x="1218" y="1281">serial</text>
<text text-anchor="middle" style="font-size:8.00;" x="1269" y="1281"> PRIMARY KEY </text>
<text text-anchor="middle" style="font-size:8.00;" x="1189" y="1295">team</text>
<text text-anchor="middle" style="font-size:8.00;" x="1221" y="1295">integer</text>
<text text-anchor="middle" style="font-size:8.00;" x="1295" y="1295"> REFERENCES person UNIQUE </text>
<text text-anchor="middle" style="font-size:8.00;" x="1192" y="1309">person</text>
<text text-anchor="middle" style="font-size:8.00;" x="1221" y="1309">integer</text>
<text text-anchor="middle" style="font-size:8.00;" x="1295" y="1309"> REFERENCES person UNIQUE </text>
<polygon style="fill:none;stroke:black;" points="1175,1315 1175,1253 1355,1253 1355,1315 1175,1315"/>
</g>
<g id="edge58" class="edge"><title>teamparticipation&#45;&gt;person</title>
<path style="fill:none;stroke:black;" d="M1276,1249C1291,1195 1324,1088 1353,990"/>
<polygon style="fill:black;stroke:black;" points="1350,989 1356,980 1356,991 1350,989"/>
</g>
<g id="edge60" class="edge"><title>teamparticipation&#45;&gt;person</title>
<path style="fill:none;stroke:black;" d="M1276,1249C1291,1195 1324,1088 1353,990"/>
<polygon style="fill:black;stroke:black;" points="1350,989 1356,980 1356,991 1350,989"/>
</g>
<g id="node21" class="node"><title>validpersonorteamcache</title>
<polygon style="fill:#c1cdcc;stroke:#c1cdcc;" points="1736,1108 1736,1074 1926,1074 1926,1108 1736,1108"/>
<polygon style="fill:white;stroke:white;" points="1739,1091 1739,1077 1923,1077 1923,1091 1739,1091"/>
<text text-anchor="middle" style="font-size:8.00;" x="1831" y="1087">validpersonorteamcache</text>
<polygon style="fill:none;stroke:black;" points="1739,1091 1739,1077 1923,1077 1923,1091 1739,1091"/>
<text text-anchor="middle" style="font-size:8.00;" x="1745" y="1102">id</text>
<text text-anchor="middle" style="font-size:8.00;" x="1767" y="1102">integer</text>
<text text-anchor="middle" style="font-size:8.00;" x="1853" y="1102"> REFERENCES person PRIMARY KEY </text>
<polygon style="fill:none;stroke:black;" points="1736,1108 1736,1074 1926,1074 1926,1108 1736,1108"/>
</g>
<g id="edge62" class="edge"><title>validpersonorteamcache&#45;&gt;person</title>
<path style="fill:none;stroke:black;" d="M1803,1070C1755,1033 1650,954 1562,887"/>
<polygon style="fill:black;stroke:black;" points="1560,890 1554,881 1564,884 1560,890"/>
</g>
<g id="node22" class="node"><title>wikiname</title>
<polygon style="fill:#c1cdcc;stroke:#c1cdcc;" points="937,1124 937,1048 1095,1048 1095,1124 937,1124"/>
<polygon style="fill:white;stroke:white;" points="940,1065 940,1051 1092,1051 1092,1065 940,1065"/>
<text text-anchor="middle" style="font-size:8.00;" x="1016" y="1061">wikiname</text>
<polygon style="fill:none;stroke:black;" points="940,1065 940,1051 1092,1051 1092,1065 940,1065"/>
<text text-anchor="middle" style="font-size:8.00;" x="946" y="1076">id</text>
<text text-anchor="middle" style="font-size:8.00;" x="990" y="1076">serial</text>
<text text-anchor="middle" style="font-size:8.00;" x="1041" y="1076"> PRIMARY KEY </text>
<text text-anchor="middle" style="font-size:8.00;" x="954" y="1090">person</text>
<text text-anchor="middle" style="font-size:8.00;" x="993" y="1090">integer</text>
<text text-anchor="middle" style="font-size:8.00;" x="1051" y="1090"> REFERENCES person </text>
<text text-anchor="middle" style="font-size:8.00;" x="950" y="1104">wiki</text>
<text text-anchor="middle" style="font-size:8.00;" x="988" y="1104">text</text>
<text text-anchor="middle" style="font-size:8.00;" x="1029" y="1104"> UNIQUE </text>
<text text-anchor="middle" style="font-size:8.00;" x="959" y="1118">wikiname</text>
<text text-anchor="middle" style="font-size:8.00;" x="988" y="1118">text</text>
<text text-anchor="middle" style="font-size:8.00;" x="1029" y="1118"> UNIQUE </text>
<polygon style="fill:none;stroke:black;" points="937,1124 937,1048 1095,1048 1095,1124 937,1124"/>
</g>
<g id="edge64" class="edge"><title>wikiname&#45;&gt;person</title>
<path style="fill:none;stroke:black;" d="M1071,1044C1123,1005 1202,943 1272,889"/>
<polygon style="fill:black;stroke:black;" points="1270,886 1280,883 1274,892 1270,886"/>
</g>
</g>
</svg>
