<?xml version="1.0" encoding="UTF-8" standalone="no"?>
<!DOCTYPE svg PUBLIC "-//W3C//DTD SVG 1.0//EN"
 "http://www.w3.org/TR/2001/REC-SVG-20010904/DTD/svg10.dtd">
<!-- Generated by fdp version 2.2.1 (Thu Apr  6 00:32:47 UTC 2006)
     For user: (stub) Stuart Bishop,,,   Title: g    Pages: 1 -->
<svg width="2039px" height="2334px"
 viewBox = "-1 -1 2038 2333"
 xmlns="http://www.w3.org/2000/svg">
<g id="graph0" class="graph" style="font-family:Times-Roman;font-size:14.00;">
<title>g</title>
<text text-anchor="middle" style="font-size:22.00;" x="1018" y="2316">Foaf</text>
<g id="node1" class="node"><title>calendar</title>
<polygon style="fill:#c1cdcc;stroke:#c1cdcc;" points="566,474 566,412 700,412 700,474 566,474"/>
<polygon style="fill:white;stroke:white;" points="569,429 569,415 697,415 697,429 569,429"/>
<text text-anchor="middle" style="font-size:8.00;" x="633" y="425">calendar</text>
<polygon style="fill:none;stroke:black;" points="569,429 569,415 697,415 697,429 569,429"/>
<text text-anchor="middle" style="font-size:8.00;" x="575" y="440">id</text>
<text text-anchor="middle" style="font-size:8.00;" x="614" y="440">serial</text>
<text text-anchor="middle" style="font-size:8.00;" x="665" y="440"> PRIMARY KEY </text>
<text text-anchor="middle" style="font-size:8.00;" x="578" y="454">title</text>
<text text-anchor="middle" style="font-size:8.00;" x="612" y="454">text</text>
<text text-anchor="middle" style="font-size:8.00;" x="585" y="468">revision</text>
<text text-anchor="middle" style="font-size:8.00;" x="617" y="468">integer</text>
<polygon style="fill:none;stroke:black;" points="566,474 566,412 700,412 700,474 566,474"/>
</g>
<g id="node2" class="node"><title>calendarsubscription</title>
<polygon style="fill:#c1cdcc;stroke:#c1cdcc;" points="446,85 446,9 632,9 632,85 446,85"/>
<polygon style="fill:white;stroke:white;" points="449,26 449,12 629,12 629,26 449,26"/>
<text text-anchor="middle" style="font-size:8.00;" x="539" y="22">calendarsubscription</text>
<polygon style="fill:none;stroke:black;" points="449,26 449,12 629,12 629,26 449,26"/>
<text text-anchor="middle" style="font-size:8.00;" x="455" y="37">id</text>
<text text-anchor="middle" style="font-size:8.00;" x="489" y="37">serial</text>
<text text-anchor="middle" style="font-size:8.00;" x="540" y="37"> PRIMARY KEY </text>
<text text-anchor="middle" style="font-size:8.00;" x="463" y="51">subject</text>
<text text-anchor="middle" style="font-size:8.00;" x="492" y="51">integer</text>
<text text-anchor="middle" style="font-size:8.00;" x="569" y="51"> REFERENCES calendar UNIQUE </text>
<text text-anchor="middle" style="font-size:8.00;" x="461" y="65">object</text>
<text text-anchor="middle" style="font-size:8.00;" x="492" y="65">integer</text>
<text text-anchor="middle" style="font-size:8.00;" x="569" y="65"> REFERENCES calendar UNIQUE </text>
<text text-anchor="middle" style="font-size:8.00;" x="462" y="79">colour</text>
<text text-anchor="middle" style="font-size:8.00;" x="487" y="79">text</text>
<polygon style="fill:none;stroke:black;" points="446,85 446,9 632,9 632,85 446,85"/>
</g>
<g id="edge2" class="edge"><title>calendarsubscription&#45;&gt;calendar</title>
<path style="fill:none;stroke:black;" d="M549,89C566,164 604,321 623,398"/>
<polygon style="fill:black;stroke:black;" points="626,398 625,408 620,399 626,398"/>
</g>
<g id="edge4" class="edge"><title>calendarsubscription&#45;&gt;calendar</title>
<path style="fill:none;stroke:black;" d="M549,89C566,164 604,321 623,398"/>
<polygon style="fill:black;stroke:black;" points="626,398 625,408 620,399 626,398"/>
</g>
<g id="node3" class="node"><title>country</title>
<polygon style="fill:#c1cdcc;stroke:#c1cdcc;" points="1290,748 1290,630 1486,630 1486,748 1290,748"/>
<polygon style="fill:white;stroke:white;" points="1293,647 1293,633 1483,633 1483,647 1293,647"/>
<text text-anchor="middle" style="font-size:8.00;" x="1388" y="643">country</text>
<polygon style="fill:none;stroke:black;" points="1293,647 1293,633 1483,633 1483,647 1293,647"/>
<text text-anchor="middle" style="font-size:8.00;" x="1299" y="658">id</text>
<text text-anchor="middle" style="font-size:8.00;" x="1357" y="658">serial</text>
<text text-anchor="middle" style="font-size:8.00;" x="1424" y="658"> PRIMARY KEY </text>
<text text-anchor="middle" style="font-size:8.00;" x="1319" y="672">iso3166code2</text>
<text text-anchor="middle" style="font-size:8.00;" x="1368" y="672">character(2)</text>
<text text-anchor="middle" style="font-size:8.00;" x="1412" y="672"> UNIQUE </text>
<text text-anchor="middle" style="font-size:8.00;" x="1319" y="686">iso3166code3</text>
<text text-anchor="middle" style="font-size:8.00;" x="1368" y="686">character(3)</text>
<text text-anchor="middle" style="font-size:8.00;" x="1412" y="686"> UNIQUE </text>
<text text-anchor="middle" style="font-size:8.00;" x="1305" y="700">name</text>
<text text-anchor="middle" style="font-size:8.00;" x="1355" y="700">text</text>
<text text-anchor="middle" style="font-size:8.00;" x="1412" y="700"> UNIQUE </text>
<text text-anchor="middle" style="font-size:8.00;" x="1302" y="714">title</text>
<text text-anchor="middle" style="font-size:8.00;" x="1355" y="714">text</text>
<text text-anchor="middle" style="font-size:8.00;" x="1313" y="728">description</text>
<text text-anchor="middle" style="font-size:8.00;" x="1355" y="728">text</text>
<text text-anchor="middle" style="font-size:8.00;" x="1311" y="742">continent</text>
<text text-anchor="middle" style="font-size:8.00;" x="1360" y="742">integer</text>
<text text-anchor="middle" style="font-size:8.00;" x="1438" y="742"> REFERENCES continent </text>
<polygon style="fill:none;stroke:black;" points="1290,748 1290,630 1486,630 1486,748 1290,748"/>
</g>
<g id="node25" class="node"><title>fake_continent_94</title>
<ellipse cx="1663" cy="488" rx="27" ry="18" style="fill:none;stroke:red;"/>
<text text-anchor="middle" style="font-size:8.00;" x="1663" y="491">continent</text>
</g>
<g id="edge6" class="edge"><title>country&#45;&gt;fake_continent_94</title>
<path style="fill:none;stroke:black;" d="M1474,626C1530,585 1599,535 1637,507"/>
<polygon style="fill:black;stroke:black;" points="1635,504 1645,501 1639,510 1635,504"/>
</g>
<g id="node4" class="node"><title>emailaddress</title>
<polygon style="fill:#c1cdcc;stroke:#c1cdcc;" points="863,602 863,526 1011,526 1011,602 863,602"/>
<polygon style="fill:white;stroke:white;" points="866,543 866,529 1008,529 1008,543 866,543"/>
<text text-anchor="middle" style="font-size:8.00;" x="937" y="539">emailaddress</text>
<polygon style="fill:none;stroke:black;" points="866,543 866,529 1008,529 1008,543 866,543"/>
<text text-anchor="middle" style="font-size:8.00;" x="872" y="554">id</text>
<text text-anchor="middle" style="font-size:8.00;" x="906" y="554">serial</text>
<text text-anchor="middle" style="font-size:8.00;" x="957" y="554"> PRIMARY KEY </text>
<text text-anchor="middle" style="font-size:8.00;" x="878" y="568">email</text>
<text text-anchor="middle" style="font-size:8.00;" x="904" y="568">text</text>
<text text-anchor="middle" style="font-size:8.00;" x="880" y="582">person</text>
<text text-anchor="middle" style="font-size:8.00;" x="909" y="582">integer</text>
<text text-anchor="middle" style="font-size:8.00;" x="967" y="582"> REFERENCES person </text>
<text text-anchor="middle" style="font-size:8.00;" x="878" y="596">status</text>
<text text-anchor="middle" style="font-size:8.00;" x="909" y="596">integer</text>
<polygon style="fill:none;stroke:black;" points="863,602 863,526 1011,526 1011,602 863,602"/>
</g>
<g id="node15" class="node"><title>person</title>
<polygon style="fill:#c1cdcc;stroke:#c1cdcc;" points="636,1302 636,904 894,904 894,1302 636,1302"/>
<polygon style="fill:white;stroke:white;" points="639,921 639,907 891,907 891,921 639,921"/>
<text text-anchor="middle" style="font-size:8.00;" x="765" y="917">person</text>
<polygon style="fill:none;stroke:black;" points="639,921 639,907 891,907 891,921 639,921"/>
<text text-anchor="middle" style="font-size:8.00;" x="645" y="932">id</text>
<text text-anchor="middle" style="font-size:8.00;" x="740" y="932">serial</text>
<text text-anchor="middle" style="font-size:8.00;" x="802" y="932"> PRIMARY KEY </text>
<text text-anchor="middle" style="font-size:8.00;" x="662" y="946">displayname</text>
<text text-anchor="middle" style="font-size:8.00;" x="738" y="946">text</text>
<text text-anchor="middle" style="font-size:8.00;" x="657" y="960">password</text>
<text text-anchor="middle" style="font-size:8.00;" x="738" y="960">text</text>
<text text-anchor="middle" style="font-size:8.00;" x="660" y="974">teamowner</text>
<text text-anchor="middle" style="font-size:8.00;" x="743" y="974">integer</text>
<text text-anchor="middle" style="font-size:8.00;" x="812" y="974"> REFERENCES person </text>
<text text-anchor="middle" style="font-size:8.00;" x="668" y="988">teamdescription</text>
<text text-anchor="middle" style="font-size:8.00;" x="738" y="988">text</text>
<text text-anchor="middle" style="font-size:8.00;" x="651" y="1002">name</text>
<text text-anchor="middle" style="font-size:8.00;" x="738" y="1002">text</text>
<text text-anchor="middle" style="font-size:8.00;" x="657" y="1016">language</text>
<text text-anchor="middle" style="font-size:8.00;" x="743" y="1016">integer</text>
<text text-anchor="middle" style="font-size:8.00;" x="816" y="1016"> REFERENCES language </text>
<text text-anchor="middle" style="font-size:8.00;" x="646" y="1030">fti</text>
<text text-anchor="middle" style="font-size:8.00;" x="745" y="1030">tsvector</text>
<text text-anchor="middle" style="font-size:8.00;" x="683" y="1044">defaultmembershipperiod</text>
<text text-anchor="middle" style="font-size:8.00;" x="743" y="1044">integer</text>
<text text-anchor="middle" style="font-size:8.00;" x="676" y="1058">defaultrenewalperiod</text>
<text text-anchor="middle" style="font-size:8.00;" x="743" y="1058">integer</text>
<text text-anchor="middle" style="font-size:8.00;" x="671" y="1072">subscriptionpolicy</text>
<text text-anchor="middle" style="font-size:8.00;" x="743" y="1072">integer</text>
<text text-anchor="middle" style="font-size:8.00;" x="654" y="1086">merged</text>
<text text-anchor="middle" style="font-size:8.00;" x="743" y="1086">integer</text>
<text text-anchor="middle" style="font-size:8.00;" x="812" y="1086"> REFERENCES person </text>
<text text-anchor="middle" style="font-size:8.00;" x="660" y="1100">datecreated</text>
<text text-anchor="middle" style="font-size:8.00;" x="749" y="1100">timestamp</text>
<text text-anchor="middle" style="font-size:8.00;" x="655" y="1114">calendar</text>
<text text-anchor="middle" style="font-size:8.00;" x="743" y="1114">integer</text>
<text text-anchor="middle" style="font-size:8.00;" x="831" y="1114"> REFERENCES calendar UNIQUE </text>
<text text-anchor="middle" style="font-size:8.00;" x="657" y="1128">timezone</text>
<text text-anchor="middle" style="font-size:8.00;" x="738" y="1128">text</text>
<text text-anchor="middle" style="font-size:8.00;" x="662" y="1142">addressline1</text>
<text text-anchor="middle" style="font-size:8.00;" x="738" y="1142">text</text>
<text text-anchor="middle" style="font-size:8.00;" x="662" y="1156">addressline2</text>
<text text-anchor="middle" style="font-size:8.00;" x="738" y="1156">text</text>
<text text-anchor="middle" style="font-size:8.00;" x="662" y="1170">organization</text>
<text text-anchor="middle" style="font-size:8.00;" x="738" y="1170">text</text>
<text text-anchor="middle" style="font-size:8.00;" x="648" y="1184">city</text>
<text text-anchor="middle" style="font-size:8.00;" x="738" y="1184">text</text>
<text text-anchor="middle" style="font-size:8.00;" x="656" y="1198">province</text>
<text text-anchor="middle" style="font-size:8.00;" x="738" y="1198">text</text>
<text text-anchor="middle" style="font-size:8.00;" x="654" y="1212">country</text>
<text text-anchor="middle" style="font-size:8.00;" x="743" y="1212">integer</text>
<text text-anchor="middle" style="font-size:8.00;" x="813" y="1212"> REFERENCES country </text>
<text text-anchor="middle" style="font-size:8.00;" x="656" y="1226">postcode</text>
<text text-anchor="middle" style="font-size:8.00;" x="738" y="1226">text</text>
<text text-anchor="middle" style="font-size:8.00;" x="652" y="1240">phone</text>
<text text-anchor="middle" style="font-size:8.00;" x="738" y="1240">text</text>
<text text-anchor="middle" style="font-size:8.00;" x="673" y="1254">homepage_content</text>
<text text-anchor="middle" style="font-size:8.00;" x="738" y="1254">text</text>
<text text-anchor="middle" style="font-size:8.00;" x="655" y="1268">emblem</text>
<text text-anchor="middle" style="font-size:8.00;" x="743" y="1268">integer</text>
<text text-anchor="middle" style="font-size:8.00;" x="824" y="1268"> REFERENCES libraryfilealias </text>
<text text-anchor="middle" style="font-size:8.00;" x="663" y="1282">hackergotchi</text>
<text text-anchor="middle" style="font-size:8.00;" x="743" y="1282">integer</text>
<text text-anchor="middle" style="font-size:8.00;" x="824" y="1282"> REFERENCES libraryfilealias </text>
<text text-anchor="middle" style="font-size:8.00;" x="677" y="1296">hide_email_addresses</text>
<text text-anchor="middle" style="font-size:8.00;" x="745" y="1296">boolean</text>
<polygon style="fill:none;stroke:black;" points="636,1302 636,904 894,904 894,1302 636,1302"/>
</g>
<g id="edge8" class="edge"><title>emailaddress&#45;&gt;person</title>
<path style="fill:none;stroke:black;" d="M924,606C905,667 866,785 833,890"/>
<polygon style="fill:black;stroke:black;" points="836,891 830,900 830,889 836,891"/>
</g>
<g id="node5" class="node"><title>gpgkey</title>
<polygon style="fill:#c1cdcc;stroke:#c1cdcc;" points="1054,741 1054,609 1254,609 1254,741 1054,741"/>
<polygon style="fill:white;stroke:white;" points="1057,626 1057,612 1251,612 1251,626 1057,626"/>
<text text-anchor="middle" style="font-size:8.00;" x="1154" y="622">gpgkey</text>
<polygon style="fill:none;stroke:black;" points="1057,626 1057,612 1251,612 1251,626 1057,626"/>
<text text-anchor="middle" style="font-size:8.00;" x="1063" y="637">id</text>
<text text-anchor="middle" style="font-size:8.00;" x="1114" y="637">serial</text>
<text text-anchor="middle" style="font-size:8.00;" x="1185" y="637"> UNIQUE PRIMARY KEY </text>
<text text-anchor="middle" style="font-size:8.00;" x="1070" y="651">owner</text>
<text text-anchor="middle" style="font-size:8.00;" x="1117" y="651">integer</text>
<text text-anchor="middle" style="font-size:8.00;" x="1194" y="651"> REFERENCES person UNIQUE </text>
<text text-anchor="middle" style="font-size:8.00;" x="1069" y="665">keyid</text>
<text text-anchor="middle" style="font-size:8.00;" x="1112" y="665">text</text>
<text text-anchor="middle" style="font-size:8.00;" x="1077" y="679">fingerprint</text>
<text text-anchor="middle" style="font-size:8.00;" x="1112" y="679">text</text>
<text text-anchor="middle" style="font-size:8.00;" x="1156" y="679"> UNIQUE </text>
<text text-anchor="middle" style="font-size:8.00;" x="1069" y="693">active</text>
<text text-anchor="middle" style="font-size:8.00;" x="1119" y="693">boolean</text>
<text text-anchor="middle" style="font-size:8.00;" x="1075" y="707">algorithm</text>
<text text-anchor="middle" style="font-size:8.00;" x="1117" y="707">integer</text>
<text text-anchor="middle" style="font-size:8.00;" x="1072" y="721">keysize</text>
<text text-anchor="middle" style="font-size:8.00;" x="1117" y="721">integer</text>
<text text-anchor="middle" style="font-size:8.00;" x="1079" y="735">can_encrypt</text>
<text text-anchor="middle" style="font-size:8.00;" x="1119" y="735">boolean</text>
<polygon style="fill:none;stroke:black;" points="1054,741 1054,609 1254,609 1254,741 1054,741"/>
</g>
<g id="edge10" class="edge"><title>gpgkey&#45;&gt;person</title>
<path style="fill:none;stroke:black;" d="M1090,745C1041,799 971,876 909,945"/>
<polygon style="fill:black;stroke:black;" points="912,947 902,952 907,942 912,947"/>
</g>
<g id="node6" class="node"><title>ircid</title>
<polygon style="fill:#c1cdcc;stroke:#c1cdcc;" points="175,966 175,890 333,890 333,966 175,966"/>
<polygon style="fill:white;stroke:white;" points="178,907 178,893 330,893 330,907 178,907"/>
<text text-anchor="middle" style="font-size:8.00;" x="254" y="903">ircid</text>
<polygon style="fill:none;stroke:black;" points="178,907 178,893 330,893 330,907 178,907"/>
<text text-anchor="middle" style="font-size:8.00;" x="184" y="918">id</text>
<text text-anchor="middle" style="font-size:8.00;" x="228" y="918">serial</text>
<text text-anchor="middle" style="font-size:8.00;" x="279" y="918"> PRIMARY KEY </text>
<text text-anchor="middle" style="font-size:8.00;" x="192" y="932">person</text>
<text text-anchor="middle" style="font-size:8.00;" x="231" y="932">integer</text>
<text text-anchor="middle" style="font-size:8.00;" x="289" y="932"> REFERENCES person </text>
<text text-anchor="middle" style="font-size:8.00;" x="194" y="946">network</text>
<text text-anchor="middle" style="font-size:8.00;" x="226" y="946">text</text>
<text text-anchor="middle" style="font-size:8.00;" x="197" y="960">nickname</text>
<text text-anchor="middle" style="font-size:8.00;" x="226" y="960">text</text>
<polygon style="fill:none;stroke:black;" points="175,966 175,890 333,890 333,966 175,966"/>
</g>
<g id="edge12" class="edge"><title>ircid&#45;&gt;person</title>
<path style="fill:none;stroke:black;" d="M341,958C417,984 529,1022 618,1053"/>
<polygon style="fill:black;stroke:black;" points="619,1050 628,1056 617,1056 619,1050"/>
</g>
<g id="node7" class="node"><title>jabberid</title>
<polygon style="fill:#c1cdcc;stroke:#c1cdcc;" points="235,1426 235,1364 389,1364 389,1426 235,1426"/>
<polygon style="fill:white;stroke:white;" points="238,1381 238,1367 386,1367 386,1381 238,1381"/>
<text text-anchor="middle" style="font-size:8.00;" x="312" y="1377">jabberid</text>
<polygon style="fill:none;stroke:black;" points="238,1381 238,1367 386,1367 386,1381 238,1381"/>
<text text-anchor="middle" style="font-size:8.00;" x="244" y="1392">id</text>
<text text-anchor="middle" style="font-size:8.00;" x="284" y="1392">serial</text>
<text text-anchor="middle" style="font-size:8.00;" x="335" y="1392"> PRIMARY KEY </text>
<text text-anchor="middle" style="font-size:8.00;" x="252" y="1406">person</text>
<text text-anchor="middle" style="font-size:8.00;" x="287" y="1406">integer</text>
<text text-anchor="middle" style="font-size:8.00;" x="345" y="1406"> REFERENCES person </text>
<text text-anchor="middle" style="font-size:8.00;" x="254" y="1420">jabberid</text>
<text text-anchor="middle" style="font-size:8.00;" x="282" y="1420">text</text>
<text text-anchor="middle" style="font-size:8.00;" x="323" y="1420"> UNIQUE </text>
<polygon style="fill:none;stroke:black;" points="235,1426 235,1364 389,1364 389,1426 235,1426"/>
</g>
<g id="edge14" class="edge"><title>jabberid&#45;&gt;person</title>
<path style="fill:none;stroke:black;" d="M367,1360C429,1319 533,1252 619,1197"/>
<polygon style="fill:black;stroke:black;" points="618,1194 628,1192 621,1200 618,1194"/>
</g>
<g id="node8" class="node"><title>karma</title>
<polygon style="fill:#c1cdcc;stroke:#c1cdcc;" points="1229,1678 1229,1602 1421,1602 1421,1678 1229,1678"/>
<polygon style="fill:white;stroke:white;" points="1232,1619 1232,1605 1418,1605 1418,1619 1232,1619"/>
<text text-anchor="middle" style="font-size:8.00;" x="1325" y="1615">karma</text>
<polygon style="fill:none;stroke:black;" points="1232,1619 1232,1605 1418,1605 1418,1619 1232,1619"/>
<text text-anchor="middle" style="font-size:8.00;" x="1238" y="1630">id</text>
<text text-anchor="middle" style="font-size:8.00;" x="1287" y="1630">serial</text>
<text text-anchor="middle" style="font-size:8.00;" x="1349" y="1630"> PRIMARY KEY </text>
<text text-anchor="middle" style="font-size:8.00;" x="1253" y="1644">datecreated</text>
<text text-anchor="middle" style="font-size:8.00;" x="1296" y="1644">timestamp</text>
<text text-anchor="middle" style="font-size:8.00;" x="1246" y="1658">person</text>
<text text-anchor="middle" style="font-size:8.00;" x="1290" y="1658">integer</text>
<text text-anchor="middle" style="font-size:8.00;" x="1359" y="1658"> REFERENCES person </text>
<text text-anchor="middle" style="font-size:8.00;" x="1244" y="1672">action</text>
<text text-anchor="middle" style="font-size:8.00;" x="1290" y="1672">integer</text>
<text text-anchor="middle" style="font-size:8.00;" x="1368" y="1672"> REFERENCES karmaaction </text>
<polygon style="fill:none;stroke:black;" points="1229,1678 1229,1602 1421,1602 1421,1678 1229,1678"/>
</g>
<g id="node9" class="node"><title>karmaaction</title>
<polygon style="fill:#c1cdcc;stroke:#c1cdcc;" points="1585,2029 1585,1925 1767,1925 1767,2029 1585,2029"/>
<polygon style="fill:white;stroke:white;" points="1588,1942 1588,1928 1764,1928 1764,1942 1588,1942"/>
<text text-anchor="middle" style="font-size:8.00;" x="1676" y="1938">karmaaction</text>
<polygon style="fill:none;stroke:black;" points="1588,1942 1588,1928 1764,1928 1764,1942 1588,1942"/>
<text text-anchor="middle" style="font-size:8.00;" x="1594" y="1953">id</text>
<text text-anchor="middle" style="font-size:8.00;" x="1636" y="1953">serial</text>
<text text-anchor="middle" style="font-size:8.00;" x="1687" y="1953"> PRIMARY KEY </text>
<text text-anchor="middle" style="font-size:8.00;" x="1604" y="1967">category</text>
<text text-anchor="middle" style="font-size:8.00;" x="1639" y="1967">integer</text>
<text text-anchor="middle" style="font-size:8.00;" x="1710" y="1967"> REFERENCES karmacategory </text>
<text text-anchor="middle" style="font-size:8.00;" x="1601" y="1981">points</text>
<text text-anchor="middle" style="font-size:8.00;" x="1639" y="1981">integer</text>
<text text-anchor="middle" style="font-size:8.00;" x="1600" y="1995">name</text>
<text text-anchor="middle" style="font-size:8.00;" x="1634" y="1995">text</text>
<text text-anchor="middle" style="font-size:8.00;" x="1675" y="1995"> UNIQUE </text>
<text text-anchor="middle" style="font-size:8.00;" x="1597" y="2009">title</text>
<text text-anchor="middle" style="font-size:8.00;" x="1634" y="2009">text</text>
<text text-anchor="middle" style="font-size:8.00;" x="1606" y="2023">summary</text>
<text text-anchor="middle" style="font-size:8.00;" x="1634" y="2023">text</text>
<polygon style="fill:none;stroke:black;" points="1585,2029 1585,1925 1767,1925 1767,2029 1585,2029"/>
</g>
<g id="edge18" class="edge"><title>karma&#45;&gt;karmaaction</title>
<path style="fill:none;stroke:black;" d="M1369,1682C1430,1741 1539,1846 1609,1914"/>
<polygon style="fill:black;stroke:black;" points="1612,1912 1617,1921 1607,1917 1612,1912"/>
</g>
<g id="edge16" class="edge"><title>karma&#45;&gt;person</title>
<path style="fill:none;stroke:black;" d="M1281,1598C1202,1522 1033,1359 909,1242"/>
<polygon style="fill:black;stroke:black;" points="907,1245 902,1235 912,1240 907,1245"/>
</g>
<g id="node11" class="node"><title>karmacategory</title>
<polygon style="fill:#c1cdcc;stroke:#c1cdcc;" points="1891,2287 1891,2211 2023,2211 2023,2287 1891,2287"/>
<polygon style="fill:white;stroke:white;" points="1894,2228 1894,2214 2020,2214 2020,2228 1894,2228"/>
<text text-anchor="middle" style="font-size:8.00;" x="1957" y="2224">karmacategory</text>
<polygon style="fill:none;stroke:black;" points="1894,2228 1894,2214 2020,2214 2020,2228 1894,2228"/>
<text text-anchor="middle" style="font-size:8.00;" x="1900" y="2239">id</text>
<text text-anchor="middle" style="font-size:8.00;" x="1943" y="2239">serial</text>
<text text-anchor="middle" style="font-size:8.00;" x="1988" y="2239"> PRIMARY KEY </text>
<text text-anchor="middle" style="font-size:8.00;" x="1906" y="2253">name</text>
<text text-anchor="middle" style="font-size:8.00;" x="1941" y="2253">text</text>
<text text-anchor="middle" style="font-size:8.00;" x="1903" y="2267">title</text>
<text text-anchor="middle" style="font-size:8.00;" x="1941" y="2267">text</text>
<text text-anchor="middle" style="font-size:8.00;" x="1912" y="2281">summary</text>
<text text-anchor="middle" style="font-size:8.00;" x="1941" y="2281">text</text>
<polygon style="fill:none;stroke:black;" points="1891,2287 1891,2211 2023,2211 2023,2287 1891,2287"/>
</g>
<g id="edge20" class="edge"><title>karmaaction&#45;&gt;karmacategory</title>
<path style="fill:none;stroke:black;" d="M1734,2033C1784,2082 1857,2153 1906,2200"/>
<polygon style="fill:black;stroke:black;" points="1908,2197 1913,2207 1903,2202 1908,2197"/>
</g>
<g id="node10" class="node"><title>karmacache</title>
<polygon style="fill:#c1cdcc;stroke:#c1cdcc;" points="545,1761 545,1685 741,1685 741,1761 545,1761"/>
<polygon style="fill:white;stroke:white;" points="548,1702 548,1688 738,1688 738,1702 548,1702"/>
<text text-anchor="middle" style="font-size:8.00;" x="643" y="1698">karmacache</text>
<polygon style="fill:none;stroke:black;" points="548,1702 548,1688 738,1688 738,1702 548,1702"/>
<text text-anchor="middle" style="font-size:8.00;" x="554" y="1713">id</text>
<text text-anchor="middle" style="font-size:8.00;" x="604" y="1713">serial</text>
<text text-anchor="middle" style="font-size:8.00;" x="655" y="1713"> PRIMARY KEY </text>
<text text-anchor="middle" style="font-size:8.00;" x="562" y="1727">person</text>
<text text-anchor="middle" style="font-size:8.00;" x="607" y="1727">integer</text>
<text text-anchor="middle" style="font-size:8.00;" x="681" y="1727"> UNIQUE REFERENCES person </text>
<text text-anchor="middle" style="font-size:8.00;" x="564" y="1741">category</text>
<text text-anchor="middle" style="font-size:8.00;" x="607" y="1741">integer</text>
<text text-anchor="middle" style="font-size:8.00;" x="643" y="1741"> UNIQUE </text>
<text text-anchor="middle" style="font-size:8.00;" x="570" y="1755">karmavalue</text>
<text text-anchor="middle" style="font-size:8.00;" x="607" y="1755">integer</text>
<polygon style="fill:none;stroke:black;" points="545,1761 545,1685 741,1685 741,1761 545,1761"/>
</g>
<g id="edge22" class="edge"><title>karmacache&#45;&gt;person</title>
<path style="fill:none;stroke:black;" d="M651,1681C666,1607 697,1448 723,1316"/>
<polygon style="fill:black;stroke:black;" points="720,1315 725,1306 726,1316 720,1315"/>
</g>
<g id="node12" class="node"><title>karmatotalcache</title>
<polygon style="fill:#c1cdcc;stroke:#c1cdcc;" points="163,774 163,712 361,712 361,774 163,774"/>
<polygon style="fill:white;stroke:white;" points="166,729 166,715 358,715 358,729 166,729"/>
<text text-anchor="middle" style="font-size:8.00;" x="262" y="725">karmatotalcache</text>
<polygon style="fill:none;stroke:black;" points="166,729 166,715 358,715 358,729 166,729"/>
<text text-anchor="middle" style="font-size:8.00;" x="172" y="740">id</text>
<text text-anchor="middle" style="font-size:8.00;" x="224" y="740">serial</text>
<text text-anchor="middle" style="font-size:8.00;" x="275" y="740"> PRIMARY KEY </text>
<text text-anchor="middle" style="font-size:8.00;" x="180" y="754">person</text>
<text text-anchor="middle" style="font-size:8.00;" x="227" y="754">integer</text>
<text text-anchor="middle" style="font-size:8.00;" x="301" y="754"> REFERENCES person UNIQUE </text>
<text text-anchor="middle" style="font-size:8.00;" x="188" y="768">karma_total</text>
<text text-anchor="middle" style="font-size:8.00;" x="227" y="768">integer</text>
<polygon style="fill:none;stroke:black;" points="163,774 163,712 361,712 361,774 163,774"/>
</g>
<g id="edge24" class="edge"><title>karmatotalcache&#45;&gt;person</title>
<path style="fill:none;stroke:black;" d="M311,778C382,829 516,925 620,999"/>
<polygon style="fill:black;stroke:black;" points="622,996 628,1005 618,1002 622,996"/>
</g>
<g id="node13" class="node"><title>language</title>
<polygon style="fill:#c1cdcc;stroke:#c1cdcc;" points="1206,1430 1206,1298 1370,1298 1370,1430 1206,1430"/>
<polygon style="fill:white;stroke:white;" points="1209,1315 1209,1301 1367,1301 1367,1315 1209,1315"/>
<text text-anchor="middle" style="font-size:8.00;" x="1288" y="1311">language</text>
<polygon style="fill:none;stroke:black;" points="1209,1315 1209,1301 1367,1301 1367,1315 1209,1315"/>
<text text-anchor="middle" style="font-size:8.00;" x="1215" y="1326">id</text>
<text text-anchor="middle" style="font-size:8.00;" x="1281" y="1326">serial</text>
<text text-anchor="middle" style="font-size:8.00;" x="1335" y="1326"> PRIMARY KEY </text>
<text text-anchor="middle" style="font-size:8.00;" x="1219" y="1340">code</text>
<text text-anchor="middle" style="font-size:8.00;" x="1279" y="1340">text</text>
<text text-anchor="middle" style="font-size:8.00;" x="1323" y="1340"> UNIQUE </text>
<text text-anchor="middle" style="font-size:8.00;" x="1232" y="1354">englishname</text>
<text text-anchor="middle" style="font-size:8.00;" x="1279" y="1354">text</text>
<text text-anchor="middle" style="font-size:8.00;" x="1231" y="1368">nativename</text>
<text text-anchor="middle" style="font-size:8.00;" x="1279" y="1368">text</text>
<text text-anchor="middle" style="font-size:8.00;" x="1231" y="1382">pluralforms</text>
<text text-anchor="middle" style="font-size:8.00;" x="1284" y="1382">integer</text>
<text text-anchor="middle" style="font-size:8.00;" x="1239" y="1396">pluralexpression</text>
<text text-anchor="middle" style="font-size:8.00;" x="1279" y="1396">text</text>
<text text-anchor="middle" style="font-size:8.00;" x="1223" y="1410">visible</text>
<text text-anchor="middle" style="font-size:8.00;" x="1286" y="1410">boolean</text>
<text text-anchor="middle" style="font-size:8.00;" x="1226" y="1424">direction</text>
<text text-anchor="middle" style="font-size:8.00;" x="1284" y="1424">integer</text>
<polygon style="fill:none;stroke:black;" points="1206,1430 1206,1298 1370,1298 1370,1430 1206,1430"/>
</g>
<g id="node14" class="node"><title>logintoken</title>
<polygon style="fill:#c1cdcc;stroke:#c1cdcc;" points="14,1150 14,990 202,990 202,1150 14,1150"/>
<polygon style="fill:white;stroke:white;" points="17,1007 17,993 199,993 199,1007 17,1007"/>
<text text-anchor="middle" style="font-size:8.00;" x="108" y="1003">logintoken</text>
<polygon style="fill:none;stroke:black;" points="17,1007 17,993 199,993 199,1007 17,1007"/>
<text text-anchor="middle" style="font-size:8.00;" x="23" y="1018">id</text>
<text text-anchor="middle" style="font-size:8.00;" x="86" y="1018">serial</text>
<text text-anchor="middle" style="font-size:8.00;" x="35" y="1032">requester</text>
<text text-anchor="middle" style="font-size:8.00;" x="89" y="1032">integer</text>
<text text-anchor="middle" style="font-size:8.00;" x="158" y="1032"> REFERENCES person </text>
<text text-anchor="middle" style="font-size:8.00;" x="44" y="1046">requesteremail</text>
<text text-anchor="middle" style="font-size:8.00;" x="84" y="1046">text</text>
<text text-anchor="middle" style="font-size:8.00;" x="29" y="1060">email</text>
<text text-anchor="middle" style="font-size:8.00;" x="84" y="1060">text</text>
<text text-anchor="middle" style="font-size:8.00;" x="31" y="1074">created</text>
<text text-anchor="middle" style="font-size:8.00;" x="95" y="1074">timestamp</text>
<text text-anchor="middle" style="font-size:8.00;" x="36" y="1088">tokentype</text>
<text text-anchor="middle" style="font-size:8.00;" x="89" y="1088">integer</text>
<text text-anchor="middle" style="font-size:8.00;" x="29" y="1102">token</text>
<text text-anchor="middle" style="font-size:8.00;" x="84" y="1102">text</text>
<text text-anchor="middle" style="font-size:8.00;" x="136" y="1102"> UNIQUE </text>
<text text-anchor="middle" style="font-size:8.00;" x="37" y="1116">fingerprint</text>
<text text-anchor="middle" style="font-size:8.00;" x="84" y="1116">text</text>
<text text-anchor="middle" style="font-size:8.00;" x="44" y="1130">redirection_url</text>
<text text-anchor="middle" style="font-size:8.00;" x="84" y="1130">text</text>
<text text-anchor="middle" style="font-size:8.00;" x="45" y="1144">date_consumed</text>
<text text-anchor="middle" style="font-size:8.00;" x="95" y="1144">timestamp</text>
<polygon style="fill:none;stroke:black;" points="14,1150 14,990 202,990 202,1150 14,1150"/>
</g>
<g id="edge26" class="edge"><title>logintoken&#45;&gt;person</title>
<path style="fill:none;stroke:black;" d="M210,1075C319,1080 494,1089 618,1096"/>
<polygon style="fill:black;stroke:black;" points="618,1092 628,1096 618,1099 618,1092"/>
</g>
<g id="edge34" class="edge"><title>person&#45;&gt;calendar</title>
<path style="fill:none;stroke:black;" d="M717,900C702,832 686,755 672,685 659,617 647,537 639,488"/>
<polygon style="fill:black;stroke:black;" points="636,488 638,478 642,488 636,488"/>
</g>
<g id="edge36" class="edge"><title>person&#45;&gt;country</title>
<path style="fill:none;stroke:black;" d="M902,1012C1018,935 1180,828 1285,758"/>
<polygon style="fill:black;stroke:black;" points="1283,755 1293,752 1287,761 1283,755"/>
</g>
<g id="edge30" class="edge"><title>person&#45;&gt;language</title>
<path style="fill:none;stroke:black;" d="M902,1171C992,1216 1107,1274 1189,1314"/>
<polygon style="fill:black;stroke:black;" points="1191,1311 1198,1319 1188,1317 1191,1311"/>
</g>
<g id="edge28" class="edge"><title>person&#45;&gt;person</title>
<path style="fill:none;stroke:black;" d="M902,1161C913,1148 920,1129 920,1103 920,1082 915,1066 908,1053"/>
<polygon style="fill:black;stroke:black;" points="905,1055 902,1045 911,1051 905,1055"/>
</g>
<g id="edge32" class="edge"><title>person&#45;&gt;person</title>
<path style="fill:none;stroke:black;" d="M902,1241C924,1221 938,1174 938,1103 938,1040 927,996 909,973"/>
<polygon style="fill:black;stroke:black;" points="906,975 902,965 911,970 906,975"/>
</g>
<g id="node42" class="node"><title>fake_libraryfilealias_206</title>
<ellipse cx="709" cy="685" rx="35" ry="18" style="fill:none;stroke:red;"/>
<text text-anchor="middle" style="font-size:8.00;" x="709" y="688">libraryfilealias</text>
</g>
<g id="edge38" class="edge"><title>person&#45;&gt;fake_libraryfilealias_206</title>
<path style="fill:none;stroke:black;" d="M738,900C728,826 718,752 712,713"/>
<polygon style="fill:black;stroke:black;" points="709,713 711,703 715,713 709,713"/>
</g>
<g id="node44" class="node"><title>fake_libraryfilealias_208</title>
<ellipse cx="1205" cy="1116" rx="35" ry="18" style="fill:none;stroke:red;"/>
<text text-anchor="middle" style="font-size:8.00;" x="1205" y="1119">libraryfilealias</text>
</g>
<g id="edge40" class="edge"><title>person&#45;&gt;fake_libraryfilealias_208</title>
<path style="fill:none;stroke:black;" d="M902,1107C990,1110 1100,1113 1160,1115"/>
<polygon style="fill:black;stroke:black;" points="1160,1111 1170,1115 1160,1118 1160,1111"/>
</g>
<g id="node16" class="node"><title>personlanguage</title>
<polygon style="fill:#c1cdcc;stroke:#c1cdcc;" points="982,1600 982,1538 1178,1538 1178,1600 982,1600"/>
<polygon style="fill:white;stroke:white;" points="985,1555 985,1541 1175,1541 1175,1555 985,1555"/>
<text text-anchor="middle" style="font-size:8.00;" x="1080" y="1551">personlanguage</text>
<polygon style="fill:none;stroke:black;" points="985,1555 985,1541 1175,1541 1175,1555 985,1555"/>
<text text-anchor="middle" style="font-size:8.00;" x="991" y="1566">id</text>
<text text-anchor="middle" style="font-size:8.00;" x="1033" y="1566">serial</text>
<text text-anchor="middle" style="font-size:8.00;" x="1084" y="1566"> PRIMARY KEY </text>
<text text-anchor="middle" style="font-size:8.00;" x="999" y="1580">person</text>
<text text-anchor="middle" style="font-size:8.00;" x="1036" y="1580">integer</text>
<text text-anchor="middle" style="font-size:8.00;" x="1110" y="1580"> REFERENCES person UNIQUE </text>
<text text-anchor="middle" style="font-size:8.00;" x="1003" y="1594">language</text>
<text text-anchor="middle" style="font-size:8.00;" x="1036" y="1594">integer</text>
<text text-anchor="middle" style="font-size:8.00;" x="1114" y="1594"> REFERENCES language UNIQUE </text>
<polygon style="fill:none;stroke:black;" points="982,1600 982,1538 1178,1538 1178,1600 982,1600"/>
</g>
<g id="edge44" class="edge"><title>personlanguage&#45;&gt;language</title>
<path style="fill:none;stroke:black;" d="M1116,1534C1141,1509 1177,1473 1210,1441"/>
<polygon style="fill:black;stroke:black;" points="1207,1439 1217,1434 1212,1444 1207,1439"/>
</g>
<g id="edge42" class="edge"><title>personlanguage&#45;&gt;person</title>
<path style="fill:none;stroke:black;" d="M1056,1534C1024,1487 965,1399 908,1314"/>
<polygon style="fill:black;stroke:black;" points="905,1316 902,1306 911,1312 905,1316"/>
</g>
<g id="node17" class="node"><title>signedcodeofconduct</title>
<polygon style="fill:#c1cdcc;stroke:#c1cdcc;" points="1273,1024 1273,892 1539,892 1539,1024 1273,1024"/>
<polygon style="fill:white;stroke:white;" points="1276,909 1276,895 1536,895 1536,909 1276,909"/>
<text text-anchor="middle" style="font-size:8.00;" x="1406" y="905">signedcodeofconduct</text>
<polygon style="fill:none;stroke:black;" points="1276,909 1276,895 1536,895 1536,909 1276,909"/>
<text text-anchor="middle" style="font-size:8.00;" x="1282" y="920">id</text>
<text text-anchor="middle" style="font-size:8.00;" x="1345" y="920">serial</text>
<text text-anchor="middle" style="font-size:8.00;" x="1289" y="934">owner</text>
<text text-anchor="middle" style="font-size:8.00;" x="1348" y="934">integer</text>
<text text-anchor="middle" style="font-size:8.00;" x="1456" y="934"> REFERENCES person REFERENCES gpgkey </text>
<text text-anchor="middle" style="font-size:8.00;" x="1296" y="948">signingkey</text>
<text text-anchor="middle" style="font-size:8.00;" x="1348" y="948">integer</text>
<text text-anchor="middle" style="font-size:8.00;" x="1418" y="948"> REFERENCES gpgkey </text>
<text text-anchor="middle" style="font-size:8.00;" x="1297" y="962">datecreated</text>
<text text-anchor="middle" style="font-size:8.00;" x="1354" y="962">timestamp</text>
<text text-anchor="middle" style="font-size:8.00;" x="1297" y="976">signedcode</text>
<text text-anchor="middle" style="font-size:8.00;" x="1343" y="976">text</text>
<text text-anchor="middle" style="font-size:8.00;" x="1293" y="990">recipient</text>
<text text-anchor="middle" style="font-size:8.00;" x="1348" y="990">integer</text>
<text text-anchor="middle" style="font-size:8.00;" x="1288" y="1004">active</text>
<text text-anchor="middle" style="font-size:8.00;" x="1350" y="1004">boolean</text>
<text text-anchor="middle" style="font-size:8.00;" x="1304" y="1018">admincomment</text>
<text text-anchor="middle" style="font-size:8.00;" x="1343" y="1018">text</text>
<polygon style="fill:none;stroke:black;" points="1273,1024 1273,892 1539,892 1539,1024 1273,1024"/>
</g>
<g id="edge48" class="edge"><title>signedcodeofconduct&#45;&gt;gpgkey</title>
<path style="fill:none;stroke:black;" d="M1343,888C1307,846 1261,795 1223,753"/>
<polygon style="fill:black;stroke:black;" points="1220,755 1216,745 1225,750 1220,755"/>
</g>
<g id="edge46" class="edge"><title>signedcodeofconduct&#45;&gt;person</title>
<path style="fill:none;stroke:black;" d="M1265,990C1160,1014 1018,1046 912,1070"/>
<polygon style="fill:black;stroke:black;" points="912,1073 902,1072 911,1067 912,1073"/>
</g>
<g id="node18" class="node"><title>sshkey</title>
<polygon style="fill:#c1cdcc;stroke:#c1cdcc;" points="125,1289 125,1199 281,1199 281,1289 125,1289"/>
<polygon style="fill:white;stroke:white;" points="128,1216 128,1202 278,1202 278,1216 128,1216"/>
<text text-anchor="middle" style="font-size:8.00;" x="203" y="1212">sshkey</text>
<polygon style="fill:none;stroke:black;" points="128,1216 128,1202 278,1202 278,1216 128,1216"/>
<text text-anchor="middle" style="font-size:8.00;" x="134" y="1227">id</text>
<text text-anchor="middle" style="font-size:8.00;" x="176" y="1227">serial</text>
<text text-anchor="middle" style="font-size:8.00;" x="227" y="1227"> PRIMARY KEY </text>
<text text-anchor="middle" style="font-size:8.00;" x="142" y="1241">person</text>
<text text-anchor="middle" style="font-size:8.00;" x="179" y="1241">integer</text>
<text text-anchor="middle" style="font-size:8.00;" x="237" y="1241"> REFERENCES person </text>
<text text-anchor="middle" style="font-size:8.00;" x="144" y="1255">keytype</text>
<text text-anchor="middle" style="font-size:8.00;" x="179" y="1255">integer</text>
<text text-anchor="middle" style="font-size:8.00;" x="143" y="1269">keytext</text>
<text text-anchor="middle" style="font-size:8.00;" x="174" y="1269">text</text>
<text text-anchor="middle" style="font-size:8.00;" x="146" y="1283">comment</text>
<text text-anchor="middle" style="font-size:8.00;" x="174" y="1283">text</text>
<polygon style="fill:none;stroke:black;" points="125,1289 125,1199 281,1199 281,1289 125,1289"/>
</g>
<g id="edge50" class="edge"><title>sshkey&#45;&gt;person</title>
<path style="fill:none;stroke:black;" d="M289,1222C376,1201 513,1166 618,1139"/>
<polygon style="fill:black;stroke:black;" points="618,1136 628,1137 619,1142 618,1136"/>
</g>
<g id="node19" class="node"><title>teammembership</title>
<polygon style="fill:#c1cdcc;stroke:#c1cdcc;" points="173,1655 173,1523 401,1523 401,1655 173,1655"/>
<polygon style="fill:white;stroke:white;" points="176,1540 176,1526 398,1526 398,1540 176,1540"/>
<text text-anchor="middle" style="font-size:8.00;" x="287" y="1536">teammembership</text>
<polygon style="fill:none;stroke:black;" points="176,1540 176,1526 398,1526 398,1540 176,1540"/>
<text text-anchor="middle" style="font-size:8.00;" x="182" y="1551">id</text>
<text text-anchor="middle" style="font-size:8.00;" x="253" y="1551">serial</text>
<text text-anchor="middle" style="font-size:8.00;" x="315" y="1551"> PRIMARY KEY </text>
<text text-anchor="middle" style="font-size:8.00;" x="190" y="1565">person</text>
<text text-anchor="middle" style="font-size:8.00;" x="256" y="1565">integer</text>
<text text-anchor="middle" style="font-size:8.00;" x="341" y="1565"> UNIQUE REFERENCES person </text>
<text text-anchor="middle" style="font-size:8.00;" x="187" y="1579">team</text>
<text text-anchor="middle" style="font-size:8.00;" x="256" y="1579">integer</text>
<text text-anchor="middle" style="font-size:8.00;" x="341" y="1579"> UNIQUE REFERENCES person </text>
<text text-anchor="middle" style="font-size:8.00;" x="188" y="1593">status</text>
<text text-anchor="middle" style="font-size:8.00;" x="256" y="1593">integer</text>
<text text-anchor="middle" style="font-size:8.00;" x="195" y="1607">datejoined</text>
<text text-anchor="middle" style="font-size:8.00;" x="262" y="1607">timestamp</text>
<text text-anchor="middle" style="font-size:8.00;" x="197" y="1621">dateexpires</text>
<text text-anchor="middle" style="font-size:8.00;" x="262" y="1621">timestamp</text>
<text text-anchor="middle" style="font-size:8.00;" x="193" y="1635">reviewer</text>
<text text-anchor="middle" style="font-size:8.00;" x="256" y="1635">integer</text>
<text text-anchor="middle" style="font-size:8.00;" x="325" y="1635"> REFERENCES person </text>
<text text-anchor="middle" style="font-size:8.00;" x="208" y="1649">reviewercomment</text>
<text text-anchor="middle" style="font-size:8.00;" x="251" y="1649">text</text>
<polygon style="fill:none;stroke:black;" points="173,1655 173,1523 401,1523 401,1655 173,1655"/>
</g>
<g id="edge52" class="edge"><title>teammembership&#45;&gt;person</title>
<path style="fill:none;stroke:black;" d="M356,1519C425,1449 533,1339 621,1249"/>
<polygon style="fill:black;stroke:black;" points="618,1247 628,1242 623,1252 618,1247"/>
</g>
<g id="edge54" class="edge"><title>teammembership&#45;&gt;person</title>
<path style="fill:none;stroke:black;" d="M356,1519C425,1449 533,1339 621,1249"/>
<polygon style="fill:black;stroke:black;" points="618,1247 628,1242 623,1252 618,1247"/>
</g>
<g id="edge56" class="edge"><title>teammembership&#45;&gt;person</title>
<path style="fill:none;stroke:black;" d="M356,1519C425,1449 533,1339 621,1249"/>
<polygon style="fill:black;stroke:black;" points="618,1247 628,1242 623,1252 618,1247"/>
</g>
<g id="node20" class="node"><title>teamparticipation</title>
<polygon style="fill:#c1cdcc;stroke:#c1cdcc;" points="780,1707 780,1645 960,1645 960,1707 780,1707"/>
<polygon style="fill:white;stroke:white;" points="783,1662 783,1648 957,1648 957,1662 783,1662"/>
<text text-anchor="middle" style="font-size:8.00;" x="870" y="1658">teamparticipation</text>
<polygon style="fill:none;stroke:black;" points="783,1662 783,1648 957,1648 957,1662 783,1662"/>
<text text-anchor="middle" style="font-size:8.00;" x="789" y="1673">id</text>
<text text-anchor="middle" style="font-size:8.00;" x="823" y="1673">serial</text>
<text text-anchor="middle" style="font-size:8.00;" x="874" y="1673"> PRIMARY KEY </text>
<text text-anchor="middle" style="font-size:8.00;" x="794" y="1687">team</text>
<text text-anchor="middle" style="font-size:8.00;" x="826" y="1687">integer</text>
<text text-anchor="middle" style="font-size:8.00;" x="900" y="1687"> REFERENCES person UNIQUE </text>
<text text-anchor="middle" style="font-size:8.00;" x="797" y="1701">person</text>
<text text-anchor="middle" style="font-size:8.00;" x="826" y="1701">integer</text>
<text text-anchor="middle" style="font-size:8.00;" x="900" y="1701"> REFERENCES person UNIQUE </text>
<polygon style="fill:none;stroke:black;" points="780,1707 780,1645 960,1645 960,1707 780,1707"/>
</g>
<g id="edge58" class="edge"><title>teamparticipation&#45;&gt;person</title>
<path style="fill:none;stroke:black;" d="M864,1641C852,1577 826,1437 804,1316"/>
<polygon style="fill:black;stroke:black;" points="801,1316 802,1306 807,1315 801,1316"/>
</g>
<g id="edge60" class="edge"><title>teamparticipation&#45;&gt;person</title>
<path style="fill:none;stroke:black;" d="M864,1641C852,1577 826,1437 804,1316"/>
<polygon style="fill:black;stroke:black;" points="801,1316 802,1306 807,1315 801,1316"/>
</g>
<g id="node21" class="node"><title>validpersonorteamcache</title>
<polygon style="fill:#c1cdcc;stroke:#c1cdcc;" points="339,643 339,609 529,609 529,643 339,643"/>
<polygon style="fill:white;stroke:white;" points="342,626 342,612 526,612 526,626 342,626"/>
<text text-anchor="middle" style="font-size:8.00;" x="434" y="622">validpersonorteamcache</text>
<polygon style="fill:none;stroke:black;" points="342,626 342,612 526,612 526,626 342,626"/>
<text text-anchor="middle" style="font-size:8.00;" x="348" y="637">id</text>
<text text-anchor="middle" style="font-size:8.00;" x="370" y="637">integer</text>
<text text-anchor="middle" style="font-size:8.00;" x="456" y="637"> REFERENCES person PRIMARY KEY </text>
<polygon style="fill:none;stroke:black;" points="339,643 339,609 529,609 529,643 339,643"/>
</g>
<g id="edge62" class="edge"><title>validpersonorteamcache&#45;&gt;person</title>
<path style="fill:none;stroke:black;" d="M449,647C480,691 554,798 622,897"/>
<polygon style="fill:black;stroke:black;" points="625,895 628,905 619,899 625,895"/>
</g>
<g id="node22" class="node"><title>wikiname</title>
<polygon style="fill:#c1cdcc;stroke:#c1cdcc;" points="433,1632 433,1556 591,1556 591,1632 433,1632"/>
<polygon style="fill:white;stroke:white;" points="436,1573 436,1559 588,1559 588,1573 436,1573"/>
<text text-anchor="middle" style="font-size:8.00;" x="512" y="1569">wikiname</text>
<polygon style="fill:none;stroke:black;" points="436,1573 436,1559 588,1559 588,1573 436,1573"/>
<text text-anchor="middle" style="font-size:8.00;" x="442" y="1584">id</text>
<text text-anchor="middle" style="font-size:8.00;" x="486" y="1584">serial</text>
<text text-anchor="middle" style="font-size:8.00;" x="537" y="1584"> PRIMARY KEY </text>
<text text-anchor="middle" style="font-size:8.00;" x="450" y="1598">person</text>
<text text-anchor="middle" style="font-size:8.00;" x="489" y="1598">integer</text>
<text text-anchor="middle" style="font-size:8.00;" x="547" y="1598"> REFERENCES person </text>
<text text-anchor="middle" style="font-size:8.00;" x="446" y="1612">wiki</text>
<text text-anchor="middle" style="font-size:8.00;" x="484" y="1612">text</text>
<text text-anchor="middle" style="font-size:8.00;" x="525" y="1612"> UNIQUE </text>
<text text-anchor="middle" style="font-size:8.00;" x="455" y="1626">wikiname</text>
<text text-anchor="middle" style="font-size:8.00;" x="484" y="1626">text</text>
<text text-anchor="middle" style="font-size:8.00;" x="525" y="1626"> UNIQUE </text>
<polygon style="fill:none;stroke:black;" points="433,1632 433,1556 591,1556 591,1632 433,1632"/>
</g>
<g id="edge64" class="edge"><title>wikiname&#45;&gt;person</title>
<path style="fill:none;stroke:black;" d="M534,1552C561,1499 610,1404 655,1315"/>
<polygon style="fill:black;stroke:black;" points="652,1313 660,1306 658,1316 652,1313"/>
</g>
</g>
</svg>
