<?xml version="1.0" encoding="UTF-8" standalone="no"?>
<!DOCTYPE svg PUBLIC "-//W3C//DTD SVG 1.0//EN"
 "http://www.w3.org/TR/2001/REC-SVG-20010904/DTD/svg10.dtd">
<!-- Generated by fdp version 2.2 (Sat Feb  5 01:37:52 UTC 2005)
     For user: (stub) Stuart Bishop,,,   Title: g    Pages: 1 -->
<svg width="588px" height="535px"
 viewBox = "-1 -1 587 534"
 xmlns="http://www.w3.org/2000/svg">
<g id="graph0" class="graph" transform = "scale(0.641718)"
 style="font-family:Times-Roman;font-size:14.00;">
<title>g</title>
<text text-anchor="middle" style="font-size:22.00;" x="454" y="814">Foaf</text>
<g id="node1" class="node"><title>emailaddress</title>
<polygon style="fill:#c1cdcc;stroke:#c1cdcc;" points="98,608 98,542 216,542 216,608 98,608"/>
<polygon style="fill:white;stroke:white;" points="101,557 101,545 213,545 213,557 101,557"/>
<text text-anchor="middle" style="font-size:6.00;" x="157" y="553">emailaddress</text>
<polygon style="fill:none;stroke:black;" points="101,557 101,545 213,545 213,557 101,557"/>
<text text-anchor="middle" style="font-size:6.00;" x="106" y="566">id</text>
<text text-anchor="middle" style="font-size:6.00;" x="134" y="566">serial</text>
<text text-anchor="middle" style="font-size:6.00;" x="174" y="566"> PRIMARY KEY </text>
<text text-anchor="middle" style="font-size:6.00;" x="111" y="578">email</text>
<text text-anchor="middle" style="font-size:6.00;" x="133" y="578">text</text>
<text text-anchor="middle" style="font-size:6.00;" x="112" y="590">person</text>
<text text-anchor="middle" style="font-size:6.00;" x="136" y="590">integer</text>
<text text-anchor="middle" style="font-size:6.00;" x="181" y="590"> REFERENCES person </text>
<text text-anchor="middle" style="font-size:6.00;" x="111" y="602">status</text>
<text text-anchor="middle" style="font-size:6.00;" x="136" y="602">integer</text>
<polygon style="fill:none;stroke:black;" points="98,608 98,542 216,542 216,608 98,608"/>
</g>
<g id="node8" class="node"><title>person</title>
<polygon style="fill:#c1cdcc;stroke:#c1cdcc;" points="351,503 351,293 531,293 531,503 351,503"/>
<polygon style="fill:white;stroke:white;" points="354,308 354,296 528,296 528,308 354,308"/>
<text text-anchor="middle" style="font-size:6.00;" x="441" y="304">person</text>
<polygon style="fill:none;stroke:black;" points="354,308 354,296 528,296 528,308 354,308"/>
<text text-anchor="middle" style="font-size:6.00;" x="359" y="317">id</text>
<text text-anchor="middle" style="font-size:6.00;" x="434" y="317">serial</text>
<text text-anchor="middle" style="font-size:6.00;" x="483" y="317"> PRIMARY KEY </text>
<text text-anchor="middle" style="font-size:6.00;" x="372" y="329">displayname</text>
<text text-anchor="middle" style="font-size:6.00;" x="433" y="329">text</text>
<text text-anchor="middle" style="font-size:6.00;" x="370" y="341">givenname</text>
<text text-anchor="middle" style="font-size:6.00;" x="433" y="341">text</text>
<text text-anchor="middle" style="font-size:6.00;" x="371" y="353">familyname</text>
<text text-anchor="middle" style="font-size:6.00;" x="433" y="353">text</text>
<text text-anchor="middle" style="font-size:6.00;" x="369" y="365">password</text>
<text text-anchor="middle" style="font-size:6.00;" x="433" y="365">text</text>
<text text-anchor="middle" style="font-size:6.00;" x="370" y="377">teamowner</text>
<text text-anchor="middle" style="font-size:6.00;" x="436" y="377">integer</text>
<text text-anchor="middle" style="font-size:6.00;" x="490" y="377"> REFERENCES person </text>
<text text-anchor="middle" style="font-size:6.00;" x="376" y="389">teamdescription</text>
<text text-anchor="middle" style="font-size:6.00;" x="433" y="389">text</text>
<text text-anchor="middle" style="font-size:6.00;" x="365" y="401">karma</text>
<text text-anchor="middle" style="font-size:6.00;" x="436" y="401">integer</text>
<text text-anchor="middle" style="font-size:6.00;" x="377" y="413">karmatimestamp</text>
<text text-anchor="middle" style="font-size:6.00;" x="441" y="413">timestamp</text>
<text text-anchor="middle" style="font-size:6.00;" x="364" y="425">name</text>
<text text-anchor="middle" style="font-size:6.00;" x="433" y="425">text</text>
<text text-anchor="middle" style="font-size:6.00;" x="368" y="437">language</text>
<text text-anchor="middle" style="font-size:6.00;" x="436" y="437">integer</text>
<text text-anchor="middle" style="font-size:6.00;" x="493" y="437"> REFERENCES language </text>
<text text-anchor="middle" style="font-size:6.00;" x="360" y="449">fti</text>
<text text-anchor="middle" style="font-size:6.00;" x="438" y="449">tsvector</text>
<text text-anchor="middle" style="font-size:6.00;" x="388" y="461">defaultmembershipperiod</text>
<text text-anchor="middle" style="font-size:6.00;" x="436" y="461">integer</text>
<text text-anchor="middle" style="font-size:6.00;" x="383" y="473">defaultrenewalperiod</text>
<text text-anchor="middle" style="font-size:6.00;" x="436" y="473">integer</text>
<text text-anchor="middle" style="font-size:6.00;" x="379" y="485">subscriptionpolicy</text>
<text text-anchor="middle" style="font-size:6.00;" x="436" y="485">integer</text>
<text text-anchor="middle" style="font-size:6.00;" x="366" y="497">merged</text>
<text text-anchor="middle" style="font-size:6.00;" x="436" y="497">integer</text>
<text text-anchor="middle" style="font-size:6.00;" x="490" y="497"> REFERENCES person </text>
<polygon style="fill:none;stroke:black;" points="351,503 351,293 531,293 531,503 351,503"/>
</g>
<g id="edge2" class="edge"><title>emailaddress&#45;&gt;person</title>
<path style="fill:none;stroke:black;" d="M217,538C251,517 294,489 334,464"/>
<polygon style="fill:black;stroke:black;" points="333,461 343,459 336,467 333,461"/>
</g>
<g id="node2" class="node"><title>gpgkey</title>
<polygon style="fill:#c1cdcc;stroke:#c1cdcc;" points="730,525 730,411 886,411 886,525 730,525"/>
<polygon style="fill:white;stroke:white;" points="733,426 733,414 883,414 883,426 733,426"/>
<text text-anchor="middle" style="font-size:6.00;" x="808" y="422">gpgkey</text>
<polygon style="fill:none;stroke:black;" points="733,426 733,414 883,414 883,426 733,426"/>
<text text-anchor="middle" style="font-size:6.00;" x="738" y="435">id</text>
<text text-anchor="middle" style="font-size:6.00;" x="777" y="435">serial</text>
<text text-anchor="middle" style="font-size:6.00;" x="832" y="435"> UNIQUE PRIMARY KEY </text>
<text text-anchor="middle" style="font-size:6.00;" x="744" y="447">owner</text>
<text text-anchor="middle" style="font-size:6.00;" x="779" y="447">integer</text>
<text text-anchor="middle" style="font-size:6.00;" x="839" y="447"> REFERENCES person UNIQUE </text>
<text text-anchor="middle" style="font-size:6.00;" x="743" y="459">keyid</text>
<text text-anchor="middle" style="font-size:6.00;" x="776" y="459">text</text>
<text text-anchor="middle" style="font-size:6.00;" x="749" y="471">fingerprint</text>
<text text-anchor="middle" style="font-size:6.00;" x="776" y="471">text</text>
<text text-anchor="middle" style="font-size:6.00;" x="811" y="471"> UNIQUE </text>
<text text-anchor="middle" style="font-size:6.00;" x="745" y="483">pubkey</text>
<text text-anchor="middle" style="font-size:6.00;" x="776" y="483">text</text>
<text text-anchor="middle" style="font-size:6.00;" x="746" y="495">revoked</text>
<text text-anchor="middle" style="font-size:6.00;" x="781" y="495">boolean</text>
<text text-anchor="middle" style="font-size:6.00;" x="748" y="507">algorithm</text>
<text text-anchor="middle" style="font-size:6.00;" x="779" y="507">integer</text>
<text text-anchor="middle" style="font-size:6.00;" x="745" y="519">keysize</text>
<text text-anchor="middle" style="font-size:6.00;" x="779" y="519">integer</text>
<polygon style="fill:none;stroke:black;" points="730,525 730,411 886,411 886,525 730,525"/>
</g>
<g id="edge4" class="edge"><title>gpgkey&#45;&gt;person</title>
<path style="fill:none;stroke:black;" d="M722,452C670,442 604,430 549,419"/>
<polygon style="fill:black;stroke:black;" points="548,422 539,417 549,416 548,422"/>
</g>
<g id="node3" class="node"><title>ircid</title>
<polygon style="fill:#c1cdcc;stroke:#c1cdcc;" points="526,740 526,674 652,674 652,740 526,740"/>
<polygon style="fill:white;stroke:white;" points="529,689 529,677 649,677 649,689 529,689"/>
<text text-anchor="middle" style="font-size:6.00;" x="589" y="685">ircid</text>
<polygon style="fill:none;stroke:black;" points="529,689 529,677 649,677 649,689 529,689"/>
<text text-anchor="middle" style="font-size:6.00;" x="534" y="698">id</text>
<text text-anchor="middle" style="font-size:6.00;" x="570" y="698">serial</text>
<text text-anchor="middle" style="font-size:6.00;" x="610" y="698"> PRIMARY KEY </text>
<text text-anchor="middle" style="font-size:6.00;" x="540" y="710">person</text>
<text text-anchor="middle" style="font-size:6.00;" x="572" y="710">integer</text>
<text text-anchor="middle" style="font-size:6.00;" x="617" y="710"> REFERENCES person </text>
<text text-anchor="middle" style="font-size:6.00;" x="542" y="722">network</text>
<text text-anchor="middle" style="font-size:6.00;" x="569" y="722">text</text>
<text text-anchor="middle" style="font-size:6.00;" x="544" y="734">nickname</text>
<text text-anchor="middle" style="font-size:6.00;" x="569" y="734">text</text>
<polygon style="fill:none;stroke:black;" points="526,740 526,674 652,674 652,740 526,740"/>
</g>
<g id="edge6" class="edge"><title>ircid&#45;&gt;person</title>
<path style="fill:none;stroke:black;" d="M571,670C553,632 524,571 497,516"/>
<polygon style="fill:black;stroke:black;" points="494,518 493,507 500,515 494,518"/>
</g>
<g id="node4" class="node"><title>jabberid</title>
<polygon style="fill:#c1cdcc;stroke:#c1cdcc;" points="616,184 616,130 738,130 738,184 616,184"/>
<polygon style="fill:white;stroke:white;" points="619,145 619,133 735,133 735,145 619,145"/>
<text text-anchor="middle" style="font-size:6.00;" x="677" y="141">jabberid</text>
<polygon style="fill:none;stroke:black;" points="619,145 619,133 735,133 735,145 619,145"/>
<text text-anchor="middle" style="font-size:6.00;" x="624" y="154">id</text>
<text text-anchor="middle" style="font-size:6.00;" x="656" y="154">serial</text>
<text text-anchor="middle" style="font-size:6.00;" x="696" y="154"> PRIMARY KEY </text>
<text text-anchor="middle" style="font-size:6.00;" x="630" y="166">person</text>
<text text-anchor="middle" style="font-size:6.00;" x="658" y="166">integer</text>
<text text-anchor="middle" style="font-size:6.00;" x="703" y="166"> REFERENCES person </text>
<text text-anchor="middle" style="font-size:6.00;" x="632" y="178">jabberid</text>
<text text-anchor="middle" style="font-size:6.00;" x="655" y="178">text</text>
<text text-anchor="middle" style="font-size:6.00;" x="687" y="178"> UNIQUE </text>
<polygon style="fill:none;stroke:black;" points="616,184 616,130 738,130 738,184 616,184"/>
</g>
<g id="edge8" class="edge"><title>jabberid&#45;&gt;person</title>
<path style="fill:none;stroke:black;" d="M647,188C622,214 583,253 546,290"/>
<polygon style="fill:black;stroke:black;" points="548,293 539,298 543,288 548,293"/>
</g>
<g id="node5" class="node"><title>karma</title>
<polygon style="fill:#c1cdcc;stroke:#c1cdcc;" points="302,92 302,14 440,14 440,92 302,92"/>
<polygon style="fill:white;stroke:white;" points="305,29 305,17 437,17 437,29 305,29"/>
<text text-anchor="middle" style="font-size:6.00;" x="371" y="25">karma</text>
<polygon style="fill:none;stroke:black;" points="305,29 305,17 437,17 437,29 305,29"/>
<text text-anchor="middle" style="font-size:6.00;" x="310" y="38">id</text>
<text text-anchor="middle" style="font-size:6.00;" x="349" y="38">serial</text>
<text text-anchor="middle" style="font-size:6.00;" x="398" y="38"> PRIMARY KEY </text>
<text text-anchor="middle" style="font-size:6.00;" x="321" y="50">karmatype</text>
<text text-anchor="middle" style="font-size:6.00;" x="351" y="50">integer</text>
<text text-anchor="middle" style="font-size:6.00;" x="322" y="62">datecreated</text>
<text text-anchor="middle" style="font-size:6.00;" x="356" y="62">timestamp</text>
<text text-anchor="middle" style="font-size:6.00;" x="316" y="74">person</text>
<text text-anchor="middle" style="font-size:6.00;" x="351" y="74">integer</text>
<text text-anchor="middle" style="font-size:6.00;" x="405" y="74"> REFERENCES person </text>
<text text-anchor="middle" style="font-size:6.00;" x="316" y="86">points</text>
<text text-anchor="middle" style="font-size:6.00;" x="351" y="86">integer</text>
<polygon style="fill:none;stroke:black;" points="302,92 302,14 440,14 440,92 302,92"/>
</g>
<g id="edge10" class="edge"><title>karma&#45;&gt;person</title>
<path style="fill:none;stroke:black;" d="M380,96C389,142 404,216 417,279"/>
<polygon style="fill:black;stroke:black;" points="420,279 419,289 414,280 420,279"/>
</g>
<g id="node6" class="node"><title>language</title>
<polygon style="fill:#c1cdcc;stroke:#c1cdcc;" points="43,339 43,237 175,237 175,339 43,339"/>
<polygon style="fill:white;stroke:white;" points="46,252 46,240 172,240 172,252 46,252"/>
<text text-anchor="middle" style="font-size:6.00;" x="109" y="248">language</text>
<polygon style="fill:none;stroke:black;" points="46,252 46,240 172,240 172,252 46,252"/>
<text text-anchor="middle" style="font-size:6.00;" x="51" y="261">id</text>
<text text-anchor="middle" style="font-size:6.00;" x="104" y="261">serial</text>
<text text-anchor="middle" style="font-size:6.00;" x="147" y="261"> PRIMARY KEY </text>
<text text-anchor="middle" style="font-size:6.00;" x="55" y="273">code</text>
<text text-anchor="middle" style="font-size:6.00;" x="103" y="273">text</text>
<text text-anchor="middle" style="font-size:6.00;" x="138" y="273"> UNIQUE </text>
<text text-anchor="middle" style="font-size:6.00;" x="64" y="285">englishname</text>
<text text-anchor="middle" style="font-size:6.00;" x="103" y="285">text</text>
<text text-anchor="middle" style="font-size:6.00;" x="63" y="297">nativename</text>
<text text-anchor="middle" style="font-size:6.00;" x="103" y="297">text</text>
<text text-anchor="middle" style="font-size:6.00;" x="63" y="309">pluralforms</text>
<text text-anchor="middle" style="font-size:6.00;" x="106" y="309">integer</text>
<text text-anchor="middle" style="font-size:6.00;" x="69" y="321">pluralexpression</text>
<text text-anchor="middle" style="font-size:6.00;" x="103" y="321">text</text>
<text text-anchor="middle" style="font-size:6.00;" x="57" y="333">visible</text>
<text text-anchor="middle" style="font-size:6.00;" x="108" y="333">boolean</text>
<polygon style="fill:none;stroke:black;" points="43,339 43,237 175,237 175,339 43,339"/>
</g>
<g id="node7" class="node"><title>logintoken</title>
<polygon style="fill:#c1cdcc;stroke:#c1cdcc;" points="178,767 178,665 324,665 324,767 178,767"/>
<polygon style="fill:white;stroke:white;" points="181,680 181,668 321,668 321,680 181,680"/>
<text text-anchor="middle" style="font-size:6.00;" x="251" y="676">logintoken</text>
<polygon style="fill:none;stroke:black;" points="181,680 181,668 321,668 321,680 181,680"/>
<text text-anchor="middle" style="font-size:6.00;" x="186" y="689">id</text>
<text text-anchor="middle" style="font-size:6.00;" x="233" y="689">serial</text>
<text text-anchor="middle" style="font-size:6.00;" x="195" y="701">requester</text>
<text text-anchor="middle" style="font-size:6.00;" x="235" y="701">integer</text>
<text text-anchor="middle" style="font-size:6.00;" x="289" y="701"> REFERENCES person </text>
<text text-anchor="middle" style="font-size:6.00;" x="202" y="713">requesteremail</text>
<text text-anchor="middle" style="font-size:6.00;" x="232" y="713">text</text>
<text text-anchor="middle" style="font-size:6.00;" x="191" y="725">email</text>
<text text-anchor="middle" style="font-size:6.00;" x="232" y="725">text</text>
<text text-anchor="middle" style="font-size:6.00;" x="193" y="737">created</text>
<text text-anchor="middle" style="font-size:6.00;" x="240" y="737">timestamp</text>
<text text-anchor="middle" style="font-size:6.00;" x="196" y="749">tokentype</text>
<text text-anchor="middle" style="font-size:6.00;" x="235" y="749">integer</text>
<text text-anchor="middle" style="font-size:6.00;" x="191" y="761">token</text>
<text text-anchor="middle" style="font-size:6.00;" x="232" y="761">text</text>
<text text-anchor="middle" style="font-size:6.00;" x="273" y="761"> UNIQUE </text>
<polygon style="fill:none;stroke:black;" points="178,767 178,665 324,665 324,767 178,767"/>
</g>
<g id="edge12" class="edge"><title>logintoken&#45;&gt;person</title>
<path style="fill:none;stroke:black;" d="M284,661C308,621 341,566 371,516"/>
<polygon style="fill:black;stroke:black;" points="368,514 376,507 374,517 368,514"/>
</g>
<g id="edge16" class="edge"><title>person&#45;&gt;language</title>
<path style="fill:none;stroke:black;" d="M343,365C295,349 238,331 193,315"/>
<polygon style="fill:black;stroke:black;" points="192,318 183,312 194,312 192,318"/>
</g>
<g id="edge14" class="edge"><title>person&#45;&gt;person</title>
<path style="fill:none;stroke:black;" d="M539,432C550,426 557,414 557,398 557,386 553,377 547,370"/>
<polygon style="fill:black;stroke:black;" points="545,373 539,364 549,367 545,373"/>
</g>
<g id="edge18" class="edge"><title>person&#45;&gt;person</title>
<path style="fill:none;stroke:black;" d="M539,476C560,468 575,442 575,398 575,361 564,336 548,325"/>
<polygon style="fill:black;stroke:black;" points="546,328 539,320 549,322 546,328"/>
</g>
<g id="node9" class="node"><title>personlanguage</title>
<polygon style="fill:#c1cdcc;stroke:#c1cdcc;" points="14,432 14,378 168,378 168,432 14,432"/>
<polygon style="fill:white;stroke:white;" points="17,393 17,381 165,381 165,393 17,393"/>
<text text-anchor="middle" style="font-size:6.00;" x="91" y="389">personlanguage</text>
<polygon style="fill:none;stroke:black;" points="17,393 17,381 165,381 165,393 17,393"/>
<text text-anchor="middle" style="font-size:6.00;" x="22" y="402">id</text>
<text text-anchor="middle" style="font-size:6.00;" x="56" y="402">serial</text>
<text text-anchor="middle" style="font-size:6.00;" x="96" y="402"> PRIMARY KEY </text>
<text text-anchor="middle" style="font-size:6.00;" x="28" y="414">person</text>
<text text-anchor="middle" style="font-size:6.00;" x="58" y="414">integer</text>
<text text-anchor="middle" style="font-size:6.00;" x="115" y="414"> REFERENCES person UNIQUE </text>
<text text-anchor="middle" style="font-size:6.00;" x="31" y="426">language</text>
<text text-anchor="middle" style="font-size:6.00;" x="58" y="426">integer</text>
<text text-anchor="middle" style="font-size:6.00;" x="118" y="426"> REFERENCES language UNIQUE </text>
<polygon style="fill:none;stroke:black;" points="14,432 14,378 168,378 168,432 14,432"/>
</g>
<g id="edge22" class="edge"><title>personlanguage&#45;&gt;language</title>
<path style="fill:none;stroke:black;" d="M96,374C97,367 98,360 99,353"/>
<polygon style="fill:black;stroke:black;" points="96,352 101,343 102,353 96,352"/>
</g>
<g id="edge20" class="edge"><title>personlanguage&#45;&gt;person</title>
<path style="fill:none;stroke:black;" d="M176,403C223,402 282,401 333,400"/>
<polygon style="fill:black;stroke:black;" points="333,396 343,400 333,403 333,396"/>
</g>
<g id="node10" class="node"><title>signedcodeofconduct</title>
<polygon style="fill:#c1cdcc;stroke:#c1cdcc;" points="687,669 687,555 895,555 895,669 687,669"/>
<polygon style="fill:white;stroke:white;" points="690,570 690,558 892,558 892,570 690,570"/>
<text text-anchor="middle" style="font-size:6.00;" x="791" y="566">signedcodeofconduct</text>
<polygon style="fill:none;stroke:black;" points="690,570 690,558 892,558 892,570 690,570"/>
<text text-anchor="middle" style="font-size:6.00;" x="695" y="579">id</text>
<text text-anchor="middle" style="font-size:6.00;" x="745" y="579">serial</text>
<text text-anchor="middle" style="font-size:6.00;" x="701" y="591">owner</text>
<text text-anchor="middle" style="font-size:6.00;" x="747" y="591">integer</text>
<text text-anchor="middle" style="font-size:6.00;" x="831" y="591"> REFERENCES person REFERENCES gpgkey </text>
<text text-anchor="middle" style="font-size:6.00;" x="706" y="603">signingkey</text>
<text text-anchor="middle" style="font-size:6.00;" x="747" y="603">integer</text>
<text text-anchor="middle" style="font-size:6.00;" x="802" y="603"> REFERENCES gpgkey </text>
<text text-anchor="middle" style="font-size:6.00;" x="707" y="615">datecreated</text>
<text text-anchor="middle" style="font-size:6.00;" x="752" y="615">timestamp</text>
<text text-anchor="middle" style="font-size:6.00;" x="706" y="627">signedcode</text>
<text text-anchor="middle" style="font-size:6.00;" x="744" y="627">text</text>
<text text-anchor="middle" style="font-size:6.00;" x="704" y="639">recipient</text>
<text text-anchor="middle" style="font-size:6.00;" x="747" y="639">integer</text>
<text text-anchor="middle" style="font-size:6.00;" x="700" y="651">active</text>
<text text-anchor="middle" style="font-size:6.00;" x="749" y="651">boolean</text>
<text text-anchor="middle" style="font-size:6.00;" x="712" y="663">admincomment</text>
<text text-anchor="middle" style="font-size:6.00;" x="744" y="663">text</text>
<polygon style="fill:none;stroke:black;" points="687,669 687,555 895,555 895,669 687,669"/>
</g>
<g id="edge26" class="edge"><title>signedcodeofconduct&#45;&gt;gpgkey</title>
<path style="fill:none;stroke:black;" d="M798,551C799,547 799,543 800,539"/>
<polygon style="fill:black;stroke:black;" points="797,539 801,529 803,539 797,539"/>
</g>
<g id="edge24" class="edge"><title>signedcodeofconduct&#45;&gt;person</title>
<path style="fill:none;stroke:black;" d="M691,551C647,524 594,491 548,463"/>
<polygon style="fill:black;stroke:black;" points="546,466 539,458 549,460 546,466"/>
</g>
<g id="node11" class="node"><title>sshkey</title>
<polygon style="fill:#c1cdcc;stroke:#c1cdcc;" points="361,785 361,707 485,707 485,785 361,785"/>
<polygon style="fill:white;stroke:white;" points="364,722 364,710 482,710 482,722 364,722"/>
<text text-anchor="middle" style="font-size:6.00;" x="423" y="718">sshkey</text>
<polygon style="fill:none;stroke:black;" points="364,722 364,710 482,710 482,722 364,722"/>
<text text-anchor="middle" style="font-size:6.00;" x="369" y="731">id</text>
<text text-anchor="middle" style="font-size:6.00;" x="403" y="731">serial</text>
<text text-anchor="middle" style="font-size:6.00;" x="443" y="731"> PRIMARY KEY </text>
<text text-anchor="middle" style="font-size:6.00;" x="375" y="743">person</text>
<text text-anchor="middle" style="font-size:6.00;" x="405" y="743">integer</text>
<text text-anchor="middle" style="font-size:6.00;" x="450" y="743"> REFERENCES person </text>
<text text-anchor="middle" style="font-size:6.00;" x="377" y="755">keytype</text>
<text text-anchor="middle" style="font-size:6.00;" x="405" y="755">integer</text>
<text text-anchor="middle" style="font-size:6.00;" x="376" y="767">keytext</text>
<text text-anchor="middle" style="font-size:6.00;" x="402" y="767">text</text>
<text text-anchor="middle" style="font-size:6.00;" x="378" y="779">comment</text>
<text text-anchor="middle" style="font-size:6.00;" x="402" y="779">text</text>
<polygon style="fill:none;stroke:black;" points="361,785 361,707 485,707 485,785 361,785"/>
</g>
<g id="edge28" class="edge"><title>sshkey&#45;&gt;person</title>
<path style="fill:none;stroke:black;" d="M425,703C428,657 432,582 435,517"/>
<polygon style="fill:black;stroke:black;" points="432,517 435,507 439,517 432,517"/>
</g>
<g id="node12" class="node"><title>teammembership</title>
<polygon style="fill:#c1cdcc;stroke:#c1cdcc;" points="85,172 85,58 263,58 263,172 85,172"/>
<polygon style="fill:white;stroke:white;" points="88,73 88,61 260,61 260,73 88,73"/>
<text text-anchor="middle" style="font-size:6.00;" x="174" y="69">teammembership</text>
<polygon style="fill:none;stroke:black;" points="88,73 88,61 260,61 260,73 88,73"/>
<text text-anchor="middle" style="font-size:6.00;" x="93" y="82">id</text>
<text text-anchor="middle" style="font-size:6.00;" x="148" y="82">serial</text>
<text text-anchor="middle" style="font-size:6.00;" x="197" y="82"> PRIMARY KEY </text>
<text text-anchor="middle" style="font-size:6.00;" x="99" y="94">person</text>
<text text-anchor="middle" style="font-size:6.00;" x="150" y="94">integer</text>
<text text-anchor="middle" style="font-size:6.00;" x="216" y="94"> REFERENCES person UNIQUE </text>
<text text-anchor="middle" style="font-size:6.00;" x="97" y="106">team</text>
<text text-anchor="middle" style="font-size:6.00;" x="150" y="106">integer</text>
<text text-anchor="middle" style="font-size:6.00;" x="216" y="106"> REFERENCES person UNIQUE </text>
<text text-anchor="middle" style="font-size:6.00;" x="98" y="118">status</text>
<text text-anchor="middle" style="font-size:6.00;" x="150" y="118">integer</text>
<text text-anchor="middle" style="font-size:6.00;" x="104" y="130">datejoined</text>
<text text-anchor="middle" style="font-size:6.00;" x="155" y="130">timestamp</text>
<text text-anchor="middle" style="font-size:6.00;" x="105" y="142">dateexpires</text>
<text text-anchor="middle" style="font-size:6.00;" x="155" y="142">timestamp</text>
<text text-anchor="middle" style="font-size:6.00;" x="102" y="154">reviewer</text>
<text text-anchor="middle" style="font-size:6.00;" x="150" y="154">integer</text>
<text text-anchor="middle" style="font-size:6.00;" x="204" y="154"> REFERENCES person </text>
<text text-anchor="middle" style="font-size:6.00;" x="113" y="166">reviewercomment</text>
<text text-anchor="middle" style="font-size:6.00;" x="147" y="166">text</text>
<polygon style="fill:none;stroke:black;" points="85,172 85,58 263,58 263,172 85,172"/>
</g>
<g id="edge30" class="edge"><title>teammembership&#45;&gt;person</title>
<path style="fill:none;stroke:black;" d="M247,176C279,207 316,245 349,281"/>
<polygon style="fill:black;stroke:black;" points="352,279 356,289 347,284 352,279"/>
</g>
<g id="edge32" class="edge"><title>teammembership&#45;&gt;person</title>
<path style="fill:none;stroke:black;" d="M217,176C249,214 295,262 336,306"/>
<polygon style="fill:black;stroke:black;" points="338,303 343,313 333,308 338,303"/>
</g>
<g id="edge34" class="edge"><title>teammembership&#45;&gt;person</title>
<path style="fill:none;stroke:black;" d="M232,176C262,208 300,249 336,286"/>
<polygon style="fill:black;stroke:black;" points="339,284 343,294 334,289 339,284"/>
</g>
<g id="node13" class="node"><title>teamparticipation</title>
<polygon style="fill:#c1cdcc;stroke:#c1cdcc;" points="704,318 704,264 846,264 846,318 704,318"/>
<polygon style="fill:white;stroke:white;" points="707,279 707,267 843,267 843,279 707,279"/>
<text text-anchor="middle" style="font-size:6.00;" x="775" y="275">teamparticipation</text>
<polygon style="fill:none;stroke:black;" points="707,279 707,267 843,267 843,279 707,279"/>
<text text-anchor="middle" style="font-size:6.00;" x="712" y="288">id</text>
<text text-anchor="middle" style="font-size:6.00;" x="740" y="288">serial</text>
<text text-anchor="middle" style="font-size:6.00;" x="780" y="288"> PRIMARY KEY </text>
<text text-anchor="middle" style="font-size:6.00;" x="716" y="300">team</text>
<text text-anchor="middle" style="font-size:6.00;" x="742" y="300">integer</text>
<text text-anchor="middle" style="font-size:6.00;" x="799" y="300"> REFERENCES person UNIQUE </text>
<text text-anchor="middle" style="font-size:6.00;" x="718" y="312">person</text>
<text text-anchor="middle" style="font-size:6.00;" x="742" y="312">integer</text>
<text text-anchor="middle" style="font-size:6.00;" x="799" y="312"> REFERENCES person UNIQUE </text>
<polygon style="fill:none;stroke:black;" points="704,318 704,264 846,264 846,318 704,318"/>
</g>
<g id="edge36" class="edge"><title>teamparticipation&#45;&gt;person</title>
<path style="fill:none;stroke:black;" d="M698,322C654,337 598,356 549,370"/>
<polygon style="fill:black;stroke:black;" points="550,373 539,373 548,367 550,373"/>
</g>
<g id="edge38" class="edge"><title>teamparticipation&#45;&gt;person</title>
<path style="fill:none;stroke:black;" d="M696,311C652,324 596,341 548,357"/>
<polygon style="fill:black;stroke:black;" points="550,360 539,360 547,354 550,360"/>
</g>
<g id="node14" class="node"><title>wikiname</title>
<polygon style="fill:#c1cdcc;stroke:#c1cdcc;" points="479,102 479,36 605,36 605,102 479,102"/>
<polygon style="fill:white;stroke:white;" points="482,51 482,39 602,39 602,51 482,51"/>
<text text-anchor="middle" style="font-size:6.00;" x="542" y="47">wikiname</text>
<polygon style="fill:none;stroke:black;" points="482,51 482,39 602,39 602,51 482,51"/>
<text text-anchor="middle" style="font-size:6.00;" x="487" y="60">id</text>
<text text-anchor="middle" style="font-size:6.00;" x="523" y="60">serial</text>
<text text-anchor="middle" style="font-size:6.00;" x="563" y="60"> PRIMARY KEY </text>
<text text-anchor="middle" style="font-size:6.00;" x="493" y="72">person</text>
<text text-anchor="middle" style="font-size:6.00;" x="525" y="72">integer</text>
<text text-anchor="middle" style="font-size:6.00;" x="570" y="72"> REFERENCES person </text>
<text text-anchor="middle" style="font-size:6.00;" x="490" y="84">wiki</text>
<text text-anchor="middle" style="font-size:6.00;" x="522" y="84">text</text>
<text text-anchor="middle" style="font-size:6.00;" x="554" y="84"> UNIQUE </text>
<text text-anchor="middle" style="font-size:6.00;" x="497" y="96">wikiname</text>
<text text-anchor="middle" style="font-size:6.00;" x="522" y="96">text</text>
<text text-anchor="middle" style="font-size:6.00;" x="554" y="96"> UNIQUE </text>
<polygon style="fill:none;stroke:black;" points="479,102 479,36 605,36 605,102 479,102"/>
</g>
<g id="edge40" class="edge"><title>wikiname&#45;&gt;person</title>
<path style="fill:none;stroke:black;" d="M531,106C518,148 496,218 477,279"/>
<polygon style="fill:black;stroke:black;" points="480,280 474,289 474,278 480,280"/>
</g>
</g>
</svg>
