<?xml version="1.0" encoding="UTF-8" standalone="no"?>
<!DOCTYPE svg PUBLIC "-//W3C//DTD SVG 1.0//EN"
 "http://www.w3.org/TR/2001/REC-SVG-20010904/DTD/svg10.dtd">
<!-- Generated by fdp version 2.2.1 (Thu Apr 14 05:40:09 UTC 2005)
     For user: (stub) Stuart Bishop,,,   Title: g    Pages: 1 -->
<svg width="534px" height="535px"
 viewBox = "-1 -1 533 534"
 xmlns="http://www.w3.org/2000/svg">
<g id="graph0" class="graph" transform = "scale(0.384559)"
 style="font-family:Times-Roman;font-size:14.00;">
<title>g</title>
<text text-anchor="middle" style="font-size:22.00;" x="684" y="1370">Foaf</text>
<g id="node1" class="node"><title>calendar</title>
<polygon style="fill:#c1cdcc;stroke:#c1cdcc;" points="967,696 967,642 1073,642 1073,696 967,696"/>
<polygon style="fill:white;stroke:white;" points="970,657 970,645 1070,645 1070,657 970,657"/>
<text text-anchor="middle" style="font-size:6.00;" x="1020" y="653">calendar</text>
<polygon style="fill:none;stroke:black;" points="970,657 970,645 1070,645 1070,657 970,657"/>
<text text-anchor="middle" style="font-size:6.00;" x="975" y="666">id</text>
<text text-anchor="middle" style="font-size:6.00;" x="1006" y="666">serial</text>
<text text-anchor="middle" style="font-size:6.00;" x="1046" y="666"> PRIMARY KEY </text>
<text text-anchor="middle" style="font-size:6.00;" x="978" y="678">title</text>
<text text-anchor="middle" style="font-size:6.00;" x="1005" y="678">text</text>
<text text-anchor="middle" style="font-size:6.00;" x="983" y="690">revision</text>
<text text-anchor="middle" style="font-size:6.00;" x="1008" y="690">integer</text>
<polygon style="fill:none;stroke:black;" points="967,696 967,642 1073,642 1073,696 967,696"/>
</g>
<g id="node2" class="node"><title>calendarsubscription</title>
<polygon style="fill:#c1cdcc;stroke:#c1cdcc;" points="1208,748 1208,682 1354,682 1354,748 1208,748"/>
<polygon style="fill:white;stroke:white;" points="1211,697 1211,685 1351,685 1351,697 1211,697"/>
<text text-anchor="middle" style="font-size:6.00;" x="1281" y="693">calendarsubscription</text>
<polygon style="fill:none;stroke:black;" points="1211,697 1211,685 1351,685 1351,697 1211,697"/>
<text text-anchor="middle" style="font-size:6.00;" x="1216" y="706">id</text>
<text text-anchor="middle" style="font-size:6.00;" x="1244" y="706">serial</text>
<text text-anchor="middle" style="font-size:6.00;" x="1284" y="706"> PRIMARY KEY </text>
<text text-anchor="middle" style="font-size:6.00;" x="1222" y="718">subject</text>
<text text-anchor="middle" style="font-size:6.00;" x="1246" y="718">integer</text>
<text text-anchor="middle" style="font-size:6.00;" x="1305" y="718"> REFERENCES calendar UNIQUE </text>
<text text-anchor="middle" style="font-size:6.00;" x="1222" y="730">object</text>
<text text-anchor="middle" style="font-size:6.00;" x="1246" y="730">integer</text>
<text text-anchor="middle" style="font-size:6.00;" x="1305" y="730"> REFERENCES calendar UNIQUE </text>
<text text-anchor="middle" style="font-size:6.00;" x="1222" y="742">colour</text>
<text text-anchor="middle" style="font-size:6.00;" x="1243" y="742">text</text>
<polygon style="fill:none;stroke:black;" points="1208,748 1208,682 1354,682 1354,748 1208,748"/>
</g>
<g id="edge2" class="edge"><title>calendarsubscription&#45;&gt;calendar</title>
<path style="fill:none;stroke:black;" d="M1200,707C1165,702 1125,694 1091,688"/>
<polygon style="fill:black;stroke:black;" points="1090,691 1081,686 1091,685 1090,691"/>
</g>
<g id="edge4" class="edge"><title>calendarsubscription&#45;&gt;calendar</title>
<path style="fill:none;stroke:black;" d="M1200,695C1165,688 1124,681 1091,676"/>
<polygon style="fill:black;stroke:black;" points="1090,679 1081,674 1091,673 1090,679"/>
</g>
<g id="node3" class="node"><title>country</title>
<polygon style="fill:#c1cdcc;stroke:#c1cdcc;" points="137,950 137,860 269,860 269,950 137,950"/>
<polygon style="fill:white;stroke:white;" points="140,875 140,863 266,863 266,875 140,875"/>
<text text-anchor="middle" style="font-size:6.00;" x="203" y="871">country</text>
<polygon style="fill:none;stroke:black;" points="140,875 140,863 266,863 266,875 140,875"/>
<text text-anchor="middle" style="font-size:6.00;" x="145" y="884">id</text>
<text text-anchor="middle" style="font-size:6.00;" x="190" y="884">serial</text>
<text text-anchor="middle" style="font-size:6.00;" x="242" y="884"> PRIMARY KEY </text>
<text text-anchor="middle" style="font-size:6.00;" x="160" y="896">iso3166code2</text>
<text text-anchor="middle" style="font-size:6.00;" x="198" y="896">character(2)</text>
<text text-anchor="middle" style="font-size:6.00;" x="233" y="896"> UNIQUE </text>
<text text-anchor="middle" style="font-size:6.00;" x="160" y="908">iso3166code3</text>
<text text-anchor="middle" style="font-size:6.00;" x="198" y="908">character(3)</text>
<text text-anchor="middle" style="font-size:6.00;" x="233" y="908"> UNIQUE </text>
<text text-anchor="middle" style="font-size:6.00;" x="150" y="920">name</text>
<text text-anchor="middle" style="font-size:6.00;" x="189" y="920">text</text>
<text text-anchor="middle" style="font-size:6.00;" x="233" y="920"> UNIQUE </text>
<text text-anchor="middle" style="font-size:6.00;" x="148" y="932">title</text>
<text text-anchor="middle" style="font-size:6.00;" x="189" y="932">text</text>
<text text-anchor="middle" style="font-size:6.00;" x="157" y="944">description</text>
<text text-anchor="middle" style="font-size:6.00;" x="189" y="944">text</text>
<polygon style="fill:none;stroke:black;" points="137,950 137,860 269,860 269,950 137,950"/>
</g>
<g id="node4" class="node"><title>emailaddress</title>
<polygon style="fill:#c1cdcc;stroke:#c1cdcc;" points="412,129 412,63 530,63 530,129 412,129"/>
<polygon style="fill:white;stroke:white;" points="415,78 415,66 527,66 527,78 415,78"/>
<text text-anchor="middle" style="font-size:6.00;" x="471" y="74">emailaddress</text>
<polygon style="fill:none;stroke:black;" points="415,78 415,66 527,66 527,78 415,78"/>
<text text-anchor="middle" style="font-size:6.00;" x="420" y="87">id</text>
<text text-anchor="middle" style="font-size:6.00;" x="448" y="87">serial</text>
<text text-anchor="middle" style="font-size:6.00;" x="488" y="87"> PRIMARY KEY </text>
<text text-anchor="middle" style="font-size:6.00;" x="425" y="99">email</text>
<text text-anchor="middle" style="font-size:6.00;" x="447" y="99">text</text>
<text text-anchor="middle" style="font-size:6.00;" x="426" y="111">person</text>
<text text-anchor="middle" style="font-size:6.00;" x="450" y="111">integer</text>
<text text-anchor="middle" style="font-size:6.00;" x="495" y="111"> REFERENCES person </text>
<text text-anchor="middle" style="font-size:6.00;" x="425" y="123">status</text>
<text text-anchor="middle" style="font-size:6.00;" x="450" y="123">integer</text>
<polygon style="fill:none;stroke:black;" points="412,129 412,63 530,63 530,129 412,129"/>
</g>
<g id="node13" class="node"><title>person</title>
<polygon style="fill:#c1cdcc;stroke:#c1cdcc;" points="424,743 424,377 626,377 626,743 424,743"/>
<polygon style="fill:white;stroke:white;" points="427,392 427,380 623,380 623,392 427,392"/>
<text text-anchor="middle" style="font-size:6.00;" x="525" y="388">person</text>
<polygon style="fill:none;stroke:black;" points="427,392 427,380 623,380 623,392 427,392"/>
<text text-anchor="middle" style="font-size:6.00;" x="432" y="401">id</text>
<text text-anchor="middle" style="font-size:6.00;" x="507" y="401">serial</text>
<text text-anchor="middle" style="font-size:6.00;" x="556" y="401"> PRIMARY KEY </text>
<text text-anchor="middle" style="font-size:6.00;" x="445" y="413">displayname</text>
<text text-anchor="middle" style="font-size:6.00;" x="506" y="413">text</text>
<text text-anchor="middle" style="font-size:6.00;" x="443" y="425">givenname</text>
<text text-anchor="middle" style="font-size:6.00;" x="506" y="425">text</text>
<text text-anchor="middle" style="font-size:6.00;" x="444" y="437">familyname</text>
<text text-anchor="middle" style="font-size:6.00;" x="506" y="437">text</text>
<text text-anchor="middle" style="font-size:6.00;" x="441" y="449">password</text>
<text text-anchor="middle" style="font-size:6.00;" x="506" y="449">text</text>
<text text-anchor="middle" style="font-size:6.00;" x="443" y="461">teamowner</text>
<text text-anchor="middle" style="font-size:6.00;" x="509" y="461">integer</text>
<text text-anchor="middle" style="font-size:6.00;" x="563" y="461"> REFERENCES person </text>
<text text-anchor="middle" style="font-size:6.00;" x="450" y="473">teamdescription</text>
<text text-anchor="middle" style="font-size:6.00;" x="506" y="473">text</text>
<text text-anchor="middle" style="font-size:6.00;" x="437" y="485">name</text>
<text text-anchor="middle" style="font-size:6.00;" x="506" y="485">text</text>
<text text-anchor="middle" style="font-size:6.00;" x="441" y="497">language</text>
<text text-anchor="middle" style="font-size:6.00;" x="509" y="497">integer</text>
<text text-anchor="middle" style="font-size:6.00;" x="566" y="497"> REFERENCES language </text>
<text text-anchor="middle" style="font-size:6.00;" x="433" y="509">fti</text>
<text text-anchor="middle" style="font-size:6.00;" x="511" y="509">tsvector</text>
<text text-anchor="middle" style="font-size:6.00;" x="461" y="521">defaultmembershipperiod</text>
<text text-anchor="middle" style="font-size:6.00;" x="509" y="521">integer</text>
<text text-anchor="middle" style="font-size:6.00;" x="456" y="533">defaultrenewalperiod</text>
<text text-anchor="middle" style="font-size:6.00;" x="509" y="533">integer</text>
<text text-anchor="middle" style="font-size:6.00;" x="452" y="545">subscriptionpolicy</text>
<text text-anchor="middle" style="font-size:6.00;" x="509" y="545">integer</text>
<text text-anchor="middle" style="font-size:6.00;" x="439" y="557">merged</text>
<text text-anchor="middle" style="font-size:6.00;" x="509" y="557">integer</text>
<text text-anchor="middle" style="font-size:6.00;" x="563" y="557"> REFERENCES person </text>
<text text-anchor="middle" style="font-size:6.00;" x="444" y="569">datecreated</text>
<text text-anchor="middle" style="font-size:6.00;" x="514" y="569">timestamp</text>
<text text-anchor="middle" style="font-size:6.00;" x="440" y="581">calendar</text>
<text text-anchor="middle" style="font-size:6.00;" x="509" y="581">integer</text>
<text text-anchor="middle" style="font-size:6.00;" x="577" y="581"> REFERENCES calendar UNIQUE </text>
<text text-anchor="middle" style="font-size:6.00;" x="441" y="593">timezone</text>
<text text-anchor="middle" style="font-size:6.00;" x="506" y="593">text</text>
<text text-anchor="middle" style="font-size:6.00;" x="438" y="605">karma</text>
<text text-anchor="middle" style="font-size:6.00;" x="509" y="605">integer</text>
<text text-anchor="middle" style="font-size:6.00;" x="445" y="617">addressline1</text>
<text text-anchor="middle" style="font-size:6.00;" x="506" y="617">text</text>
<text text-anchor="middle" style="font-size:6.00;" x="445" y="629">addressline2</text>
<text text-anchor="middle" style="font-size:6.00;" x="506" y="629">text</text>
<text text-anchor="middle" style="font-size:6.00;" x="445" y="641">organization</text>
<text text-anchor="middle" style="font-size:6.00;" x="506" y="641">text</text>
<text text-anchor="middle" style="font-size:6.00;" x="435" y="653">city</text>
<text text-anchor="middle" style="font-size:6.00;" x="506" y="653">text</text>
<text text-anchor="middle" style="font-size:6.00;" x="441" y="665">province</text>
<text text-anchor="middle" style="font-size:6.00;" x="506" y="665">text</text>
<text text-anchor="middle" style="font-size:6.00;" x="440" y="677">country</text>
<text text-anchor="middle" style="font-size:6.00;" x="509" y="677">integer</text>
<text text-anchor="middle" style="font-size:6.00;" x="565" y="677"> REFERENCES country </text>
<text text-anchor="middle" style="font-size:6.00;" x="441" y="689">postcode</text>
<text text-anchor="middle" style="font-size:6.00;" x="506" y="689">text</text>
<text text-anchor="middle" style="font-size:6.00;" x="438" y="701">phone</text>
<text text-anchor="middle" style="font-size:6.00;" x="506" y="701">text</text>
<text text-anchor="middle" style="font-size:6.00;" x="453" y="713">homepage_content</text>
<text text-anchor="middle" style="font-size:6.00;" x="506" y="713">text</text>
<text text-anchor="middle" style="font-size:6.00;" x="440" y="725">emblem</text>
<text text-anchor="middle" style="font-size:6.00;" x="509" y="725">integer</text>
<text text-anchor="middle" style="font-size:6.00;" x="573" y="725"> REFERENCES libraryfilealias </text>
<text text-anchor="middle" style="font-size:6.00;" x="446" y="737">hackergotchi</text>
<text text-anchor="middle" style="font-size:6.00;" x="509" y="737">integer</text>
<text text-anchor="middle" style="font-size:6.00;" x="573" y="737"> REFERENCES libraryfilealias </text>
<polygon style="fill:none;stroke:black;" points="424,743 424,377 626,377 626,743 424,743"/>
</g>
<g id="edge6" class="edge"><title>emailaddress&#45;&gt;person</title>
<path style="fill:none;stroke:black;" d="M475,133C481,183 492,277 502,363"/>
<polygon style="fill:black;stroke:black;" points="505,363 503,373 499,363 505,363"/>
</g>
<g id="node5" class="node"><title>gpgkey</title>
<polygon style="fill:#c1cdcc;stroke:#c1cdcc;" points="566,127 566,25 722,25 722,127 566,127"/>
<polygon style="fill:white;stroke:white;" points="569,40 569,28 719,28 719,40 569,40"/>
<text text-anchor="middle" style="font-size:6.00;" x="644" y="36">gpgkey</text>
<polygon style="fill:none;stroke:black;" points="569,40 569,28 719,28 719,40 569,40"/>
<text text-anchor="middle" style="font-size:6.00;" x="574" y="49">id</text>
<text text-anchor="middle" style="font-size:6.00;" x="613" y="49">serial</text>
<text text-anchor="middle" style="font-size:6.00;" x="668" y="49"> UNIQUE PRIMARY KEY </text>
<text text-anchor="middle" style="font-size:6.00;" x="580" y="61">owner</text>
<text text-anchor="middle" style="font-size:6.00;" x="615" y="61">integer</text>
<text text-anchor="middle" style="font-size:6.00;" x="675" y="61"> REFERENCES person UNIQUE </text>
<text text-anchor="middle" style="font-size:6.00;" x="579" y="73">keyid</text>
<text text-anchor="middle" style="font-size:6.00;" x="612" y="73">text</text>
<text text-anchor="middle" style="font-size:6.00;" x="585" y="85">fingerprint</text>
<text text-anchor="middle" style="font-size:6.00;" x="612" y="85">text</text>
<text text-anchor="middle" style="font-size:6.00;" x="647" y="85"> UNIQUE </text>
<text text-anchor="middle" style="font-size:6.00;" x="579" y="97">active</text>
<text text-anchor="middle" style="font-size:6.00;" x="617" y="97">boolean</text>
<text text-anchor="middle" style="font-size:6.00;" x="584" y="109">algorithm</text>
<text text-anchor="middle" style="font-size:6.00;" x="615" y="109">integer</text>
<text text-anchor="middle" style="font-size:6.00;" x="581" y="121">keysize</text>
<text text-anchor="middle" style="font-size:6.00;" x="615" y="121">integer</text>
<polygon style="fill:none;stroke:black;" points="566,127 566,25 722,25 722,127 566,127"/>
</g>
<g id="edge8" class="edge"><title>gpgkey&#45;&gt;person</title>
<path style="fill:none;stroke:black;" d="M630,131C617,188 594,279 573,363"/>
<polygon style="fill:black;stroke:black;" points="576,364 571,373 570,363 576,364"/>
</g>
<g id="node6" class="node"><title>ircid</title>
<polygon style="fill:#c1cdcc;stroke:#c1cdcc;" points="14,499 14,433 140,433 140,499 14,499"/>
<polygon style="fill:white;stroke:white;" points="17,448 17,436 137,436 137,448 17,448"/>
<text text-anchor="middle" style="font-size:6.00;" x="77" y="444">ircid</text>
<polygon style="fill:none;stroke:black;" points="17,448 17,436 137,436 137,448 17,448"/>
<text text-anchor="middle" style="font-size:6.00;" x="22" y="457">id</text>
<text text-anchor="middle" style="font-size:6.00;" x="58" y="457">serial</text>
<text text-anchor="middle" style="font-size:6.00;" x="98" y="457"> PRIMARY KEY </text>
<text text-anchor="middle" style="font-size:6.00;" x="28" y="469">person</text>
<text text-anchor="middle" style="font-size:6.00;" x="60" y="469">integer</text>
<text text-anchor="middle" style="font-size:6.00;" x="105" y="469"> REFERENCES person </text>
<text text-anchor="middle" style="font-size:6.00;" x="30" y="481">network</text>
<text text-anchor="middle" style="font-size:6.00;" x="57" y="481">text</text>
<text text-anchor="middle" style="font-size:6.00;" x="32" y="493">nickname</text>
<text text-anchor="middle" style="font-size:6.00;" x="57" y="493">text</text>
<polygon style="fill:none;stroke:black;" points="14,499 14,433 140,433 140,499 14,499"/>
</g>
<g id="edge10" class="edge"><title>ircid&#45;&gt;person</title>
<path style="fill:none;stroke:black;" d="M148,481C217,495 323,518 406,535"/>
<polygon style="fill:black;stroke:black;" points="407,532 416,537 406,538 407,532"/>
</g>
<g id="node7" class="node"><title>jabberid</title>
<polygon style="fill:#c1cdcc;stroke:#c1cdcc;" points="15,650 15,596 137,596 137,650 15,650"/>
<polygon style="fill:white;stroke:white;" points="18,611 18,599 134,599 134,611 18,611"/>
<text text-anchor="middle" style="font-size:6.00;" x="76" y="607">jabberid</text>
<polygon style="fill:none;stroke:black;" points="18,611 18,599 134,599 134,611 18,611"/>
<text text-anchor="middle" style="font-size:6.00;" x="23" y="620">id</text>
<text text-anchor="middle" style="font-size:6.00;" x="55" y="620">serial</text>
<text text-anchor="middle" style="font-size:6.00;" x="95" y="620"> PRIMARY KEY </text>
<text text-anchor="middle" style="font-size:6.00;" x="29" y="632">person</text>
<text text-anchor="middle" style="font-size:6.00;" x="57" y="632">integer</text>
<text text-anchor="middle" style="font-size:6.00;" x="102" y="632"> REFERENCES person </text>
<text text-anchor="middle" style="font-size:6.00;" x="31" y="644">jabberid</text>
<text text-anchor="middle" style="font-size:6.00;" x="54" y="644">text</text>
<text text-anchor="middle" style="font-size:6.00;" x="86" y="644"> UNIQUE </text>
<polygon style="fill:none;stroke:black;" points="15,650 15,596 137,596 137,650 15,650"/>
</g>
<g id="edge12" class="edge"><title>jabberid&#45;&gt;person</title>
<path style="fill:none;stroke:black;" d="M145,613C214,603 323,588 406,576"/>
<polygon style="fill:black;stroke:black;" points="406,573 416,575 406,579 406,573"/>
</g>
<g id="node8" class="node"><title>karma</title>
<polygon style="fill:#c1cdcc;stroke:#c1cdcc;" points="656,1089 656,1023 808,1023 808,1089 656,1089"/>
<polygon style="fill:white;stroke:white;" points="659,1038 659,1026 805,1026 805,1038 659,1038"/>
<text text-anchor="middle" style="font-size:6.00;" x="732" y="1034">karma</text>
<polygon style="fill:none;stroke:black;" points="659,1038 659,1026 805,1026 805,1038 659,1038"/>
<text text-anchor="middle" style="font-size:6.00;" x="664" y="1047">id</text>
<text text-anchor="middle" style="font-size:6.00;" x="703" y="1047">serial</text>
<text text-anchor="middle" style="font-size:6.00;" x="752" y="1047"> PRIMARY KEY </text>
<text text-anchor="middle" style="font-size:6.00;" x="676" y="1059">datecreated</text>
<text text-anchor="middle" style="font-size:6.00;" x="710" y="1059">timestamp</text>
<text text-anchor="middle" style="font-size:6.00;" x="670" y="1071">person</text>
<text text-anchor="middle" style="font-size:6.00;" x="705" y="1071">integer</text>
<text text-anchor="middle" style="font-size:6.00;" x="759" y="1071"> REFERENCES person </text>
<text text-anchor="middle" style="font-size:6.00;" x="670" y="1083">action</text>
<text text-anchor="middle" style="font-size:6.00;" x="705" y="1083">integer</text>
<text text-anchor="middle" style="font-size:6.00;" x="766" y="1083"> REFERENCES karmaaction </text>
<polygon style="fill:none;stroke:black;" points="656,1089 656,1023 808,1023 808,1089 656,1089"/>
</g>
<g id="node9" class="node"><title>karmaaction</title>
<polygon style="fill:#c1cdcc;stroke:#c1cdcc;" points="773,1341 773,1275 881,1275 881,1341 773,1341"/>
<polygon style="fill:white;stroke:white;" points="776,1290 776,1278 878,1278 878,1290 776,1290"/>
<text text-anchor="middle" style="font-size:6.00;" x="827" y="1286">karmaaction</text>
<polygon style="fill:none;stroke:black;" points="776,1290 776,1278 878,1278 878,1290 776,1290"/>
<text text-anchor="middle" style="font-size:6.00;" x="781" y="1299">id</text>
<text text-anchor="middle" style="font-size:6.00;" x="814" y="1299">serial</text>
<text text-anchor="middle" style="font-size:6.00;" x="854" y="1299"> PRIMARY KEY </text>
<text text-anchor="middle" style="font-size:6.00;" x="786" y="1311">name</text>
<text text-anchor="middle" style="font-size:6.00;" x="816" y="1311">integer</text>
<text text-anchor="middle" style="font-size:6.00;" x="845" y="1311"> UNIQUE </text>
<text text-anchor="middle" style="font-size:6.00;" x="790" y="1323">category</text>
<text text-anchor="middle" style="font-size:6.00;" x="816" y="1323">integer</text>
<text text-anchor="middle" style="font-size:6.00;" x="787" y="1335">points</text>
<text text-anchor="middle" style="font-size:6.00;" x="816" y="1335">integer</text>
<polygon style="fill:none;stroke:black;" points="773,1341 773,1275 881,1275 881,1341 773,1341"/>
</g>
<g id="edge16" class="edge"><title>karma&#45;&gt;karmaaction</title>
<path style="fill:none;stroke:black;" d="M746,1093C763,1138 791,1213 809,1262"/>
<polygon style="fill:black;stroke:black;" points="812,1260 813,1271 806,1263 812,1260"/>
</g>
<g id="edge14" class="edge"><title>karma&#45;&gt;person</title>
<path style="fill:none;stroke:black;" d="M716,1019C693,963 648,854 607,756"/>
<polygon style="fill:black;stroke:black;" points="604,758 603,747 610,755 604,758"/>
</g>
<g id="node10" class="node"><title>karmacache</title>
<polygon style="fill:#c1cdcc;stroke:#c1cdcc;" points="446,1064 446,998 600,998 600,1064 446,1064"/>
<polygon style="fill:white;stroke:white;" points="449,1013 449,1001 597,1001 597,1013 449,1013"/>
<text text-anchor="middle" style="font-size:6.00;" x="523" y="1009">karmacache</text>
<polygon style="fill:none;stroke:black;" points="449,1013 449,1001 597,1001 597,1013 449,1013"/>
<text text-anchor="middle" style="font-size:6.00;" x="454" y="1022">id</text>
<text text-anchor="middle" style="font-size:6.00;" x="494" y="1022">serial</text>
<text text-anchor="middle" style="font-size:6.00;" x="534" y="1022"> PRIMARY KEY </text>
<text text-anchor="middle" style="font-size:6.00;" x="460" y="1034">person</text>
<text text-anchor="middle" style="font-size:6.00;" x="496" y="1034">integer</text>
<text text-anchor="middle" style="font-size:6.00;" x="553" y="1034"> UNIQUE REFERENCES person </text>
<text text-anchor="middle" style="font-size:6.00;" x="463" y="1046">category</text>
<text text-anchor="middle" style="font-size:6.00;" x="496" y="1046">integer</text>
<text text-anchor="middle" style="font-size:6.00;" x="525" y="1046"> UNIQUE </text>
<text text-anchor="middle" style="font-size:6.00;" x="466" y="1058">karmavalue</text>
<text text-anchor="middle" style="font-size:6.00;" x="496" y="1058">integer</text>
<polygon style="fill:none;stroke:black;" points="446,1064 446,998 600,998 600,1064 446,1064"/>
</g>
<g id="edge18" class="edge"><title>karmacache&#45;&gt;person</title>
<path style="fill:none;stroke:black;" d="M523,994C523,942 524,846 524,757"/>
<polygon style="fill:black;stroke:black;" points="521,757 524,747 528,757 521,757"/>
</g>
<g id="node11" class="node"><title>language</title>
<polygon style="fill:#c1cdcc;stroke:#c1cdcc;" points="862,355 862,253 992,253 992,355 862,355"/>
<polygon style="fill:white;stroke:white;" points="865,268 865,256 989,256 989,268 865,268"/>
<text text-anchor="middle" style="font-size:6.00;" x="927" y="264">language</text>
<polygon style="fill:none;stroke:black;" points="865,268 865,256 989,256 989,268 865,268"/>
<text text-anchor="middle" style="font-size:6.00;" x="870" y="277">id</text>
<text text-anchor="middle" style="font-size:6.00;" x="922" y="277">serial</text>
<text text-anchor="middle" style="font-size:6.00;" x="965" y="277"> PRIMARY KEY </text>
<text text-anchor="middle" style="font-size:6.00;" x="874" y="289">code</text>
<text text-anchor="middle" style="font-size:6.00;" x="921" y="289">text</text>
<text text-anchor="middle" style="font-size:6.00;" x="956" y="289"> UNIQUE </text>
<text text-anchor="middle" style="font-size:6.00;" x="883" y="301">englishname</text>
<text text-anchor="middle" style="font-size:6.00;" x="921" y="301">text</text>
<text text-anchor="middle" style="font-size:6.00;" x="882" y="313">nativename</text>
<text text-anchor="middle" style="font-size:6.00;" x="921" y="313">text</text>
<text text-anchor="middle" style="font-size:6.00;" x="882" y="325">pluralforms</text>
<text text-anchor="middle" style="font-size:6.00;" x="924" y="325">integer</text>
<text text-anchor="middle" style="font-size:6.00;" x="888" y="337">pluralexpression</text>
<text text-anchor="middle" style="font-size:6.00;" x="921" y="337">text</text>
<text text-anchor="middle" style="font-size:6.00;" x="876" y="349">visible</text>
<text text-anchor="middle" style="font-size:6.00;" x="926" y="349">boolean</text>
<polygon style="fill:none;stroke:black;" points="862,355 862,253 992,253 992,355 862,355"/>
</g>
<g id="node12" class="node"><title>logintoken</title>
<polygon style="fill:#c1cdcc;stroke:#c1cdcc;" points="30,360 30,246 176,246 176,360 30,360"/>
<polygon style="fill:white;stroke:white;" points="33,261 33,249 173,249 173,261 33,261"/>
<text text-anchor="middle" style="font-size:6.00;" x="103" y="257">logintoken</text>
<polygon style="fill:none;stroke:black;" points="33,261 33,249 173,249 173,261 33,261"/>
<text text-anchor="middle" style="font-size:6.00;" x="38" y="270">id</text>
<text text-anchor="middle" style="font-size:6.00;" x="85" y="270">serial</text>
<text text-anchor="middle" style="font-size:6.00;" x="47" y="282">requester</text>
<text text-anchor="middle" style="font-size:6.00;" x="87" y="282">integer</text>
<text text-anchor="middle" style="font-size:6.00;" x="141" y="282"> REFERENCES person </text>
<text text-anchor="middle" style="font-size:6.00;" x="54" y="294">requesteremail</text>
<text text-anchor="middle" style="font-size:6.00;" x="84" y="294">text</text>
<text text-anchor="middle" style="font-size:6.00;" x="43" y="306">email</text>
<text text-anchor="middle" style="font-size:6.00;" x="84" y="306">text</text>
<text text-anchor="middle" style="font-size:6.00;" x="45" y="318">created</text>
<text text-anchor="middle" style="font-size:6.00;" x="92" y="318">timestamp</text>
<text text-anchor="middle" style="font-size:6.00;" x="48" y="330">tokentype</text>
<text text-anchor="middle" style="font-size:6.00;" x="87" y="330">integer</text>
<text text-anchor="middle" style="font-size:6.00;" x="43" y="342">token</text>
<text text-anchor="middle" style="font-size:6.00;" x="84" y="342">text</text>
<text text-anchor="middle" style="font-size:6.00;" x="125" y="342"> UNIQUE </text>
<text text-anchor="middle" style="font-size:6.00;" x="49" y="354">fingerprint</text>
<text text-anchor="middle" style="font-size:6.00;" x="84" y="354">text</text>
<polygon style="fill:none;stroke:black;" points="30,360 30,246 176,246 176,360 30,360"/>
</g>
<g id="edge20" class="edge"><title>logintoken&#45;&gt;person</title>
<path style="fill:none;stroke:black;" d="M184,353C247,391 337,446 407,489"/>
<polygon style="fill:black;stroke:black;" points="409,486 416,494 406,492 409,486"/>
</g>
<g id="edge28" class="edge"><title>person&#45;&gt;calendar</title>
<path style="fill:none;stroke:black;" d="M634,584C730,605 867,636 949,654"/>
<polygon style="fill:black;stroke:black;" points="950,651 959,656 949,657 950,651"/>
</g>
<g id="edge30" class="edge"><title>person&#45;&gt;country</title>
<path style="fill:none;stroke:black;" d="M416,677C362,735 300,802 256,849"/>
<polygon style="fill:black;stroke:black;" points="259,851 249,856 254,846 259,851"/>
</g>
<g id="edge24" class="edge"><title>person&#45;&gt;language</title>
<path style="fill:none;stroke:black;" d="M634,491C701,448 784,395 845,356"/>
<polygon style="fill:black;stroke:black;" points="844,353 854,351 847,359 844,353"/>
</g>
<g id="edge22" class="edge"><title>person&#45;&gt;person</title>
<path style="fill:none;stroke:black;" d="M634,617C645,605 652,587 652,560 652,538 648,523 640,511"/>
<polygon style="fill:black;stroke:black;" points="637,513 634,503 643,509 637,513"/>
</g>
<g id="edge26" class="edge"><title>person&#45;&gt;person</title>
<path style="fill:none;stroke:black;" d="M634,693C655,677 670,633 670,560 670,496 658,454 641,434"/>
<polygon style="fill:black;stroke:black;" points="639,437 634,427 644,432 639,437"/>
</g>
<g id="node35" class="node"><title>fake_libraryfilealias_172</title>
<ellipse cx="388" cy="230" rx="29" ry="18" style="fill:none;stroke:red;"/>
<text text-anchor="middle" style="font-size:6.00;" x="388" y="232">libraryfilealias</text>
</g>
<g id="edge32" class="edge"><title>person&#45;&gt;fake_libraryfilealias_172</title>
<path style="fill:none;stroke:black;" d="M447,373C428,327 411,284 399,257"/>
<polygon style="fill:black;stroke:black;" points="396,259 395,248 402,256 396,259"/>
</g>
<g id="node37" class="node"><title>fake_libraryfilealias_174</title>
<ellipse cx="733" cy="632" rx="29" ry="18" style="fill:none;stroke:red;"/>
<text text-anchor="middle" style="font-size:6.00;" x="733" y="634">libraryfilealias</text>
</g>
<g id="edge34" class="edge"><title>person&#45;&gt;fake_libraryfilealias_174</title>
<path style="fill:none;stroke:black;" d="M634,598C657,606 679,614 697,620"/>
<polygon style="fill:black;stroke:black;" points="698,617 707,623 696,623 698,617"/>
</g>
<g id="node14" class="node"><title>personlanguage</title>
<polygon style="fill:#c1cdcc;stroke:#c1cdcc;" points="912,464 912,410 1066,410 1066,464 912,464"/>
<polygon style="fill:white;stroke:white;" points="915,425 915,413 1063,413 1063,425 915,425"/>
<text text-anchor="middle" style="font-size:6.00;" x="989" y="421">personlanguage</text>
<polygon style="fill:none;stroke:black;" points="915,425 915,413 1063,413 1063,425 915,425"/>
<text text-anchor="middle" style="font-size:6.00;" x="920" y="434">id</text>
<text text-anchor="middle" style="font-size:6.00;" x="954" y="434">serial</text>
<text text-anchor="middle" style="font-size:6.00;" x="994" y="434"> PRIMARY KEY </text>
<text text-anchor="middle" style="font-size:6.00;" x="926" y="446">person</text>
<text text-anchor="middle" style="font-size:6.00;" x="956" y="446">integer</text>
<text text-anchor="middle" style="font-size:6.00;" x="1013" y="446"> REFERENCES person UNIQUE </text>
<text text-anchor="middle" style="font-size:6.00;" x="929" y="458">language</text>
<text text-anchor="middle" style="font-size:6.00;" x="956" y="458">integer</text>
<text text-anchor="middle" style="font-size:6.00;" x="1016" y="458"> REFERENCES language UNIQUE </text>
<polygon style="fill:none;stroke:black;" points="912,464 912,410 1066,410 1066,464 912,464"/>
</g>
<g id="edge38" class="edge"><title>personlanguage&#45;&gt;language</title>
<path style="fill:none;stroke:black;" d="M974,406C969,395 963,381 956,368"/>
<polygon style="fill:black;stroke:black;" points="953,370 952,359 959,367 953,370"/>
</g>
<g id="edge36" class="edge"><title>personlanguage&#45;&gt;person</title>
<path style="fill:none;stroke:black;" d="M904,460C831,479 726,507 644,528"/>
<polygon style="fill:black;stroke:black;" points="645,531 634,531 643,525 645,531"/>
</g>
<g id="node15" class="node"><title>signedcodeofconduct</title>
<polygon style="fill:#c1cdcc;stroke:#c1cdcc;" points="757,197 757,83 965,83 965,197 757,197"/>
<polygon style="fill:white;stroke:white;" points="760,98 760,86 962,86 962,98 760,98"/>
<text text-anchor="middle" style="font-size:6.00;" x="861" y="94">signedcodeofconduct</text>
<polygon style="fill:none;stroke:black;" points="760,98 760,86 962,86 962,98 760,98"/>
<text text-anchor="middle" style="font-size:6.00;" x="765" y="107">id</text>
<text text-anchor="middle" style="font-size:6.00;" x="815" y="107">serial</text>
<text text-anchor="middle" style="font-size:6.00;" x="771" y="119">owner</text>
<text text-anchor="middle" style="font-size:6.00;" x="817" y="119">integer</text>
<text text-anchor="middle" style="font-size:6.00;" x="901" y="119"> REFERENCES person REFERENCES gpgkey </text>
<text text-anchor="middle" style="font-size:6.00;" x="776" y="131">signingkey</text>
<text text-anchor="middle" style="font-size:6.00;" x="817" y="131">integer</text>
<text text-anchor="middle" style="font-size:6.00;" x="872" y="131"> REFERENCES gpgkey </text>
<text text-anchor="middle" style="font-size:6.00;" x="777" y="143">datecreated</text>
<text text-anchor="middle" style="font-size:6.00;" x="822" y="143">timestamp</text>
<text text-anchor="middle" style="font-size:6.00;" x="776" y="155">signedcode</text>
<text text-anchor="middle" style="font-size:6.00;" x="814" y="155">text</text>
<text text-anchor="middle" style="font-size:6.00;" x="774" y="167">recipient</text>
<text text-anchor="middle" style="font-size:6.00;" x="817" y="167">integer</text>
<text text-anchor="middle" style="font-size:6.00;" x="770" y="179">active</text>
<text text-anchor="middle" style="font-size:6.00;" x="819" y="179">boolean</text>
<text text-anchor="middle" style="font-size:6.00;" x="782" y="191">admincomment</text>
<text text-anchor="middle" style="font-size:6.00;" x="814" y="191">text</text>
<polygon style="fill:none;stroke:black;" points="757,197 757,83 965,83 965,197 757,197"/>
</g>
<g id="edge42" class="edge"><title>signedcodeofconduct&#45;&gt;gpgkey</title>
<path style="fill:none;stroke:black;" d="M749,107C746,106 743,105 740,104"/>
<polygon style="fill:black;stroke:black;" points="739,107 730,101 741,101 739,107"/>
</g>
<g id="edge40" class="edge"><title>signedcodeofconduct&#45;&gt;person</title>
<path style="fill:none;stroke:black;" d="M812,201C768,257 699,343 640,415"/>
<polygon style="fill:black;stroke:black;" points="643,417 634,423 637,413 643,417"/>
</g>
<g id="node16" class="node"><title>sshkey</title>
<polygon style="fill:#c1cdcc;stroke:#c1cdcc;" points="813,910 813,832 937,832 937,910 813,910"/>
<polygon style="fill:white;stroke:white;" points="816,847 816,835 934,835 934,847 816,847"/>
<text text-anchor="middle" style="font-size:6.00;" x="875" y="843">sshkey</text>
<polygon style="fill:none;stroke:black;" points="816,847 816,835 934,835 934,847 816,847"/>
<text text-anchor="middle" style="font-size:6.00;" x="821" y="856">id</text>
<text text-anchor="middle" style="font-size:6.00;" x="855" y="856">serial</text>
<text text-anchor="middle" style="font-size:6.00;" x="895" y="856"> PRIMARY KEY </text>
<text text-anchor="middle" style="font-size:6.00;" x="827" y="868">person</text>
<text text-anchor="middle" style="font-size:6.00;" x="857" y="868">integer</text>
<text text-anchor="middle" style="font-size:6.00;" x="902" y="868"> REFERENCES person </text>
<text text-anchor="middle" style="font-size:6.00;" x="829" y="880">keytype</text>
<text text-anchor="middle" style="font-size:6.00;" x="857" y="880">integer</text>
<text text-anchor="middle" style="font-size:6.00;" x="828" y="892">keytext</text>
<text text-anchor="middle" style="font-size:6.00;" x="854" y="892">text</text>
<text text-anchor="middle" style="font-size:6.00;" x="830" y="904">comment</text>
<text text-anchor="middle" style="font-size:6.00;" x="854" y="904">text</text>
<polygon style="fill:none;stroke:black;" points="813,910 813,832 937,832 937,910 813,910"/>
</g>
<g id="edge44" class="edge"><title>sshkey&#45;&gt;person</title>
<path style="fill:none;stroke:black;" d="M826,828C779,786 705,719 642,664"/>
<polygon style="fill:black;stroke:black;" points="639,666 634,657 644,661 639,666"/>
</g>
<g id="node17" class="node"><title>teammembership</title>
<polygon style="fill:#c1cdcc;stroke:#c1cdcc;" points="231,1095 231,981 409,981 409,1095 231,1095"/>
<polygon style="fill:white;stroke:white;" points="234,996 234,984 406,984 406,996 234,996"/>
<text text-anchor="middle" style="font-size:6.00;" x="320" y="992">teammembership</text>
<polygon style="fill:none;stroke:black;" points="234,996 234,984 406,984 406,996 234,996"/>
<text text-anchor="middle" style="font-size:6.00;" x="239" y="1005">id</text>
<text text-anchor="middle" style="font-size:6.00;" x="294" y="1005">serial</text>
<text text-anchor="middle" style="font-size:6.00;" x="343" y="1005"> PRIMARY KEY </text>
<text text-anchor="middle" style="font-size:6.00;" x="245" y="1017">person</text>
<text text-anchor="middle" style="font-size:6.00;" x="296" y="1017">integer</text>
<text text-anchor="middle" style="font-size:6.00;" x="362" y="1017"> REFERENCES person UNIQUE </text>
<text text-anchor="middle" style="font-size:6.00;" x="243" y="1029">team</text>
<text text-anchor="middle" style="font-size:6.00;" x="296" y="1029">integer</text>
<text text-anchor="middle" style="font-size:6.00;" x="362" y="1029"> REFERENCES person UNIQUE </text>
<text text-anchor="middle" style="font-size:6.00;" x="244" y="1041">status</text>
<text text-anchor="middle" style="font-size:6.00;" x="296" y="1041">integer</text>
<text text-anchor="middle" style="font-size:6.00;" x="250" y="1053">datejoined</text>
<text text-anchor="middle" style="font-size:6.00;" x="301" y="1053">timestamp</text>
<text text-anchor="middle" style="font-size:6.00;" x="251" y="1065">dateexpires</text>
<text text-anchor="middle" style="font-size:6.00;" x="301" y="1065">timestamp</text>
<text text-anchor="middle" style="font-size:6.00;" x="247" y="1077">reviewer</text>
<text text-anchor="middle" style="font-size:6.00;" x="296" y="1077">integer</text>
<text text-anchor="middle" style="font-size:6.00;" x="350" y="1077"> REFERENCES person </text>
<text text-anchor="middle" style="font-size:6.00;" x="258" y="1089">reviewercomment</text>
<text text-anchor="middle" style="font-size:6.00;" x="293" y="1089">text</text>
<polygon style="fill:none;stroke:black;" points="231,1095 231,981 409,981 409,1095 231,1095"/>
</g>
<g id="edge46" class="edge"><title>teammembership&#45;&gt;person</title>
<path style="fill:none;stroke:black;" d="M336,977C356,921 391,836 426,757"/>
<polygon style="fill:black;stroke:black;" points="423,755 430,747 430,758 423,755"/>
</g>
<g id="edge48" class="edge"><title>teammembership&#45;&gt;person</title>
<path style="fill:none;stroke:black;" d="M356,977C383,921 421,836 454,757"/>
<polygon style="fill:black;stroke:black;" points="451,755 458,747 458,758 451,755"/>
</g>
<g id="edge50" class="edge"><title>teammembership&#45;&gt;person</title>
<path style="fill:none;stroke:black;" d="M346,977C369,921 406,836 440,757"/>
<polygon style="fill:black;stroke:black;" points="437,755 444,747 444,758 437,755"/>
</g>
<g id="node18" class="node"><title>teamparticipation</title>
<polygon style="fill:#c1cdcc;stroke:#c1cdcc;" points="164,209 164,155 306,155 306,209 164,209"/>
<polygon style="fill:white;stroke:white;" points="167,170 167,158 303,158 303,170 167,170"/>
<text text-anchor="middle" style="font-size:6.00;" x="235" y="166">teamparticipation</text>
<polygon style="fill:none;stroke:black;" points="167,170 167,158 303,158 303,170 167,170"/>
<text text-anchor="middle" style="font-size:6.00;" x="172" y="179">id</text>
<text text-anchor="middle" style="font-size:6.00;" x="200" y="179">serial</text>
<text text-anchor="middle" style="font-size:6.00;" x="240" y="179"> PRIMARY KEY </text>
<text text-anchor="middle" style="font-size:6.00;" x="176" y="191">team</text>
<text text-anchor="middle" style="font-size:6.00;" x="202" y="191">integer</text>
<text text-anchor="middle" style="font-size:6.00;" x="259" y="191"> REFERENCES person UNIQUE </text>
<text text-anchor="middle" style="font-size:6.00;" x="178" y="203">person</text>
<text text-anchor="middle" style="font-size:6.00;" x="202" y="203">integer</text>
<text text-anchor="middle" style="font-size:6.00;" x="259" y="203"> REFERENCES person UNIQUE </text>
<polygon style="fill:none;stroke:black;" points="164,209 164,155 306,155 306,209 164,209"/>
</g>
<g id="edge52" class="edge"><title>teamparticipation&#45;&gt;person</title>
<path style="fill:none;stroke:black;" d="M264,213C298,254 356,329 410,399"/>
<polygon style="fill:black;stroke:black;" points="413,397 416,407 407,401 413,397"/>
</g>
<g id="edge54" class="edge"><title>teamparticipation&#45;&gt;person</title>
<path style="fill:none;stroke:black;" d="M254,213C286,258 351,345 410,420"/>
<polygon style="fill:black;stroke:black;" points="413,418 416,428 407,422 413,418"/>
</g>
<g id="node19" class="node"><title>wikiname</title>
<polygon style="fill:#c1cdcc;stroke:#c1cdcc;" points="52,806 52,740 178,740 178,806 52,806"/>
<polygon style="fill:white;stroke:white;" points="55,755 55,743 175,743 175,755 55,755"/>
<text text-anchor="middle" style="font-size:6.00;" x="115" y="751">wikiname</text>
<polygon style="fill:none;stroke:black;" points="55,755 55,743 175,743 175,755 55,755"/>
<text text-anchor="middle" style="font-size:6.00;" x="60" y="764">id</text>
<text text-anchor="middle" style="font-size:6.00;" x="96" y="764">serial</text>
<text text-anchor="middle" style="font-size:6.00;" x="136" y="764"> PRIMARY KEY </text>
<text text-anchor="middle" style="font-size:6.00;" x="66" y="776">person</text>
<text text-anchor="middle" style="font-size:6.00;" x="98" y="776">integer</text>
<text text-anchor="middle" style="font-size:6.00;" x="143" y="776"> REFERENCES person </text>
<text text-anchor="middle" style="font-size:6.00;" x="63" y="788">wiki</text>
<text text-anchor="middle" style="font-size:6.00;" x="95" y="788">text</text>
<text text-anchor="middle" style="font-size:6.00;" x="127" y="788"> UNIQUE </text>
<text text-anchor="middle" style="font-size:6.00;" x="70" y="800">wikiname</text>
<text text-anchor="middle" style="font-size:6.00;" x="95" y="800">text</text>
<text text-anchor="middle" style="font-size:6.00;" x="127" y="800"> UNIQUE </text>
<polygon style="fill:none;stroke:black;" points="52,806 52,740 178,740 178,806 52,806"/>
</g>
<g id="edge56" class="edge"><title>wikiname&#45;&gt;person</title>
<path style="fill:none;stroke:black;" d="M186,736C247,704 335,659 407,622"/>
<polygon style="fill:black;stroke:black;" points="406,619 416,617 409,625 406,619"/>
</g>
</g>
</svg>
