<?xml version="1.0" encoding="UTF-8" standalone="no"?>
<!DOCTYPE svg PUBLIC "-//W3C//DTD SVG 1.0//EN"
 "http://www.w3.org/TR/2001/REC-SVG-20010904/DTD/svg10.dtd">
<!-- Generated by fdp version 2.2.1 (Tue Oct 11 01:38:21 UTC 2005)
     For user: (stub) Stuart Bishop,,,   Title: g    Pages: 1 -->
<svg width="1544px" height="2477px"
 viewBox = "-1 -1 1543 2476"
 xmlns="http://www.w3.org/2000/svg">
<g id="graph0" class="graph" style="font-family:Times-Roman;font-size:14.00;">
<title>g</title>
<text text-anchor="middle" style="font-size:22.00;" x="771" y="2459">Foaf</text>
<g id="node1" class="node"><title>calendar</title>
<polygon style="fill:#c1cdcc;stroke:#c1cdcc;" points="306,1519 306,1457 440,1457 440,1519 306,1519"/>
<polygon style="fill:white;stroke:white;" points="309,1474 309,1460 437,1460 437,1474 309,1474"/>
<text text-anchor="middle" style="font-size:8.00;" x="373" y="1470">calendar</text>
<polygon style="fill:none;stroke:black;" points="309,1474 309,1460 437,1460 437,1474 309,1474"/>
<text text-anchor="middle" style="font-size:8.00;" x="315" y="1485">id</text>
<text text-anchor="middle" style="font-size:8.00;" x="354" y="1485">serial</text>
<text text-anchor="middle" style="font-size:8.00;" x="405" y="1485"> PRIMARY KEY </text>
<text text-anchor="middle" style="font-size:8.00;" x="318" y="1499">title</text>
<text text-anchor="middle" style="font-size:8.00;" x="352" y="1499">text</text>
<text text-anchor="middle" style="font-size:8.00;" x="325" y="1513">revision</text>
<text text-anchor="middle" style="font-size:8.00;" x="357" y="1513">integer</text>
<polygon style="fill:none;stroke:black;" points="306,1519 306,1457 440,1457 440,1519 306,1519"/>
</g>
<g id="node2" class="node"><title>calendarsubscription</title>
<polygon style="fill:#c1cdcc;stroke:#c1cdcc;" points="14,1777 14,1701 200,1701 200,1777 14,1777"/>
<polygon style="fill:white;stroke:white;" points="17,1718 17,1704 197,1704 197,1718 17,1718"/>
<text text-anchor="middle" style="font-size:8.00;" x="107" y="1714">calendarsubscription</text>
<polygon style="fill:none;stroke:black;" points="17,1718 17,1704 197,1704 197,1718 17,1718"/>
<text text-anchor="middle" style="font-size:8.00;" x="23" y="1729">id</text>
<text text-anchor="middle" style="font-size:8.00;" x="57" y="1729">serial</text>
<text text-anchor="middle" style="font-size:8.00;" x="108" y="1729"> PRIMARY KEY </text>
<text text-anchor="middle" style="font-size:8.00;" x="31" y="1743">subject</text>
<text text-anchor="middle" style="font-size:8.00;" x="60" y="1743">integer</text>
<text text-anchor="middle" style="font-size:8.00;" x="137" y="1743"> REFERENCES calendar UNIQUE </text>
<text text-anchor="middle" style="font-size:8.00;" x="29" y="1757">object</text>
<text text-anchor="middle" style="font-size:8.00;" x="60" y="1757">integer</text>
<text text-anchor="middle" style="font-size:8.00;" x="137" y="1757"> REFERENCES calendar UNIQUE </text>
<text text-anchor="middle" style="font-size:8.00;" x="30" y="1771">colour</text>
<text text-anchor="middle" style="font-size:8.00;" x="55" y="1771">text</text>
<polygon style="fill:none;stroke:black;" points="14,1777 14,1701 200,1701 200,1777 14,1777"/>
</g>
<g id="edge2" class="edge"><title>calendarsubscription&#45;&gt;calendar</title>
<path style="fill:none;stroke:black;" d="M152,1697C201,1651 279,1577 329,1530"/>
<polygon style="fill:black;stroke:black;" points="326,1528 336,1523 331,1533 326,1528"/>
</g>
<g id="edge4" class="edge"><title>calendarsubscription&#45;&gt;calendar</title>
<path style="fill:none;stroke:black;" d="M152,1697C201,1651 279,1577 329,1530"/>
<polygon style="fill:black;stroke:black;" points="326,1528 336,1523 331,1533 326,1528"/>
</g>
<g id="node3" class="node"><title>country</title>
<polygon style="fill:#c1cdcc;stroke:#c1cdcc;" points="648,402 648,284 844,284 844,402 648,402"/>
<polygon style="fill:white;stroke:white;" points="651,301 651,287 841,287 841,301 651,301"/>
<text text-anchor="middle" style="font-size:8.00;" x="746" y="297">country</text>
<polygon style="fill:none;stroke:black;" points="651,301 651,287 841,287 841,301 651,301"/>
<text text-anchor="middle" style="font-size:8.00;" x="657" y="312">id</text>
<text text-anchor="middle" style="font-size:8.00;" x="715" y="312">serial</text>
<text text-anchor="middle" style="font-size:8.00;" x="782" y="312"> PRIMARY KEY </text>
<text text-anchor="middle" style="font-size:8.00;" x="677" y="326">iso3166code2</text>
<text text-anchor="middle" style="font-size:8.00;" x="726" y="326">character(2)</text>
<text text-anchor="middle" style="font-size:8.00;" x="770" y="326"> UNIQUE </text>
<text text-anchor="middle" style="font-size:8.00;" x="677" y="340">iso3166code3</text>
<text text-anchor="middle" style="font-size:8.00;" x="726" y="340">character(3)</text>
<text text-anchor="middle" style="font-size:8.00;" x="770" y="340"> UNIQUE </text>
<text text-anchor="middle" style="font-size:8.00;" x="663" y="354">name</text>
<text text-anchor="middle" style="font-size:8.00;" x="713" y="354">text</text>
<text text-anchor="middle" style="font-size:8.00;" x="770" y="354"> UNIQUE </text>
<text text-anchor="middle" style="font-size:8.00;" x="660" y="368">title</text>
<text text-anchor="middle" style="font-size:8.00;" x="713" y="368">text</text>
<text text-anchor="middle" style="font-size:8.00;" x="671" y="382">description</text>
<text text-anchor="middle" style="font-size:8.00;" x="713" y="382">text</text>
<text text-anchor="middle" style="font-size:8.00;" x="669" y="396">continent</text>
<text text-anchor="middle" style="font-size:8.00;" x="718" y="396">integer</text>
<text text-anchor="middle" style="font-size:8.00;" x="796" y="396"> REFERENCES continent </text>
<polygon style="fill:none;stroke:black;" points="648,402 648,284 844,284 844,402 648,402"/>
</g>
<g id="node25" class="node"><title>fake_continent_92</title>
<ellipse cx="725" cy="23" rx="27" ry="18" style="fill:none;stroke:red;"/>
<text text-anchor="middle" style="font-size:8.00;" x="725" y="26">continent</text>
</g>
<g id="edge6" class="edge"><title>country&#45;&gt;fake_continent_92</title>
<path style="fill:none;stroke:black;" d="M742,280C737,211 730,102 727,51"/>
<polygon style="fill:black;stroke:black;" points="724,51 726,41 730,51 724,51"/>
</g>
<g id="node4" class="node"><title>emailaddress</title>
<polygon style="fill:#c1cdcc;stroke:#c1cdcc;" points="1161,755 1161,679 1309,679 1309,755 1161,755"/>
<polygon style="fill:white;stroke:white;" points="1164,696 1164,682 1306,682 1306,696 1164,696"/>
<text text-anchor="middle" style="font-size:8.00;" x="1235" y="692">emailaddress</text>
<polygon style="fill:none;stroke:black;" points="1164,696 1164,682 1306,682 1306,696 1164,696"/>
<text text-anchor="middle" style="font-size:8.00;" x="1170" y="707">id</text>
<text text-anchor="middle" style="font-size:8.00;" x="1204" y="707">serial</text>
<text text-anchor="middle" style="font-size:8.00;" x="1255" y="707"> PRIMARY KEY </text>
<text text-anchor="middle" style="font-size:8.00;" x="1176" y="721">email</text>
<text text-anchor="middle" style="font-size:8.00;" x="1202" y="721">text</text>
<text text-anchor="middle" style="font-size:8.00;" x="1178" y="735">person</text>
<text text-anchor="middle" style="font-size:8.00;" x="1207" y="735">integer</text>
<text text-anchor="middle" style="font-size:8.00;" x="1265" y="735"> REFERENCES person </text>
<text text-anchor="middle" style="font-size:8.00;" x="1176" y="749">status</text>
<text text-anchor="middle" style="font-size:8.00;" x="1207" y="749">integer</text>
<polygon style="fill:none;stroke:black;" points="1161,755 1161,679 1309,679 1309,755 1161,755"/>
</g>
<g id="node15" class="node"><title>person</title>
<polygon style="fill:#c1cdcc;stroke:#c1cdcc;" points="665,1231 665,833 923,833 923,1231 665,1231"/>
<polygon style="fill:white;stroke:white;" points="668,850 668,836 920,836 920,850 668,850"/>
<text text-anchor="middle" style="font-size:8.00;" x="794" y="846">person</text>
<polygon style="fill:none;stroke:black;" points="668,850 668,836 920,836 920,850 668,850"/>
<text text-anchor="middle" style="font-size:8.00;" x="674" y="861">id</text>
<text text-anchor="middle" style="font-size:8.00;" x="769" y="861">serial</text>
<text text-anchor="middle" style="font-size:8.00;" x="831" y="861"> PRIMARY KEY </text>
<text text-anchor="middle" style="font-size:8.00;" x="691" y="875">displayname</text>
<text text-anchor="middle" style="font-size:8.00;" x="767" y="875">text</text>
<text text-anchor="middle" style="font-size:8.00;" x="686" y="889">password</text>
<text text-anchor="middle" style="font-size:8.00;" x="767" y="889">text</text>
<text text-anchor="middle" style="font-size:8.00;" x="689" y="903">teamowner</text>
<text text-anchor="middle" style="font-size:8.00;" x="772" y="903">integer</text>
<text text-anchor="middle" style="font-size:8.00;" x="841" y="903"> REFERENCES person </text>
<text text-anchor="middle" style="font-size:8.00;" x="697" y="917">teamdescription</text>
<text text-anchor="middle" style="font-size:8.00;" x="767" y="917">text</text>
<text text-anchor="middle" style="font-size:8.00;" x="680" y="931">name</text>
<text text-anchor="middle" style="font-size:8.00;" x="767" y="931">text</text>
<text text-anchor="middle" style="font-size:8.00;" x="686" y="945">language</text>
<text text-anchor="middle" style="font-size:8.00;" x="772" y="945">integer</text>
<text text-anchor="middle" style="font-size:8.00;" x="845" y="945"> REFERENCES language </text>
<text text-anchor="middle" style="font-size:8.00;" x="675" y="959">fti</text>
<text text-anchor="middle" style="font-size:8.00;" x="774" y="959">tsvector</text>
<text text-anchor="middle" style="font-size:8.00;" x="712" y="973">defaultmembershipperiod</text>
<text text-anchor="middle" style="font-size:8.00;" x="772" y="973">integer</text>
<text text-anchor="middle" style="font-size:8.00;" x="705" y="987">defaultrenewalperiod</text>
<text text-anchor="middle" style="font-size:8.00;" x="772" y="987">integer</text>
<text text-anchor="middle" style="font-size:8.00;" x="700" y="1001">subscriptionpolicy</text>
<text text-anchor="middle" style="font-size:8.00;" x="772" y="1001">integer</text>
<text text-anchor="middle" style="font-size:8.00;" x="683" y="1015">merged</text>
<text text-anchor="middle" style="font-size:8.00;" x="772" y="1015">integer</text>
<text text-anchor="middle" style="font-size:8.00;" x="841" y="1015"> REFERENCES person </text>
<text text-anchor="middle" style="font-size:8.00;" x="689" y="1029">datecreated</text>
<text text-anchor="middle" style="font-size:8.00;" x="778" y="1029">timestamp</text>
<text text-anchor="middle" style="font-size:8.00;" x="684" y="1043">calendar</text>
<text text-anchor="middle" style="font-size:8.00;" x="772" y="1043">integer</text>
<text text-anchor="middle" style="font-size:8.00;" x="860" y="1043"> REFERENCES calendar UNIQUE </text>
<text text-anchor="middle" style="font-size:8.00;" x="686" y="1057">timezone</text>
<text text-anchor="middle" style="font-size:8.00;" x="767" y="1057">text</text>
<text text-anchor="middle" style="font-size:8.00;" x="691" y="1071">addressline1</text>
<text text-anchor="middle" style="font-size:8.00;" x="767" y="1071">text</text>
<text text-anchor="middle" style="font-size:8.00;" x="691" y="1085">addressline2</text>
<text text-anchor="middle" style="font-size:8.00;" x="767" y="1085">text</text>
<text text-anchor="middle" style="font-size:8.00;" x="691" y="1099">organization</text>
<text text-anchor="middle" style="font-size:8.00;" x="767" y="1099">text</text>
<text text-anchor="middle" style="font-size:8.00;" x="677" y="1113">city</text>
<text text-anchor="middle" style="font-size:8.00;" x="767" y="1113">text</text>
<text text-anchor="middle" style="font-size:8.00;" x="685" y="1127">province</text>
<text text-anchor="middle" style="font-size:8.00;" x="767" y="1127">text</text>
<text text-anchor="middle" style="font-size:8.00;" x="683" y="1141">country</text>
<text text-anchor="middle" style="font-size:8.00;" x="772" y="1141">integer</text>
<text text-anchor="middle" style="font-size:8.00;" x="842" y="1141"> REFERENCES country </text>
<text text-anchor="middle" style="font-size:8.00;" x="685" y="1155">postcode</text>
<text text-anchor="middle" style="font-size:8.00;" x="767" y="1155">text</text>
<text text-anchor="middle" style="font-size:8.00;" x="681" y="1169">phone</text>
<text text-anchor="middle" style="font-size:8.00;" x="767" y="1169">text</text>
<text text-anchor="middle" style="font-size:8.00;" x="702" y="1183">homepage_content</text>
<text text-anchor="middle" style="font-size:8.00;" x="767" y="1183">text</text>
<text text-anchor="middle" style="font-size:8.00;" x="684" y="1197">emblem</text>
<text text-anchor="middle" style="font-size:8.00;" x="772" y="1197">integer</text>
<text text-anchor="middle" style="font-size:8.00;" x="853" y="1197"> REFERENCES libraryfilealias </text>
<text text-anchor="middle" style="font-size:8.00;" x="692" y="1211">hackergotchi</text>
<text text-anchor="middle" style="font-size:8.00;" x="772" y="1211">integer</text>
<text text-anchor="middle" style="font-size:8.00;" x="853" y="1211"> REFERENCES libraryfilealias </text>
<text text-anchor="middle" style="font-size:8.00;" x="706" y="1225">hide_email_addresses</text>
<text text-anchor="middle" style="font-size:8.00;" x="774" y="1225">boolean</text>
<polygon style="fill:none;stroke:black;" points="665,1231 665,833 923,833 923,1231 665,1231"/>
</g>
<g id="edge8" class="edge"><title>emailaddress&#45;&gt;person</title>
<path style="fill:none;stroke:black;" d="M1176,759C1116,803 1020,870 939,928"/>
<polygon style="fill:black;stroke:black;" points="941,931 931,934 937,925 941,931"/>
</g>
<g id="node5" class="node"><title>gpgkey</title>
<polygon style="fill:#c1cdcc;stroke:#c1cdcc;" points="745,1649 745,1517 945,1517 945,1649 745,1649"/>
<polygon style="fill:white;stroke:white;" points="748,1534 748,1520 942,1520 942,1534 748,1534"/>
<text text-anchor="middle" style="font-size:8.00;" x="845" y="1530">gpgkey</text>
<polygon style="fill:none;stroke:black;" points="748,1534 748,1520 942,1520 942,1534 748,1534"/>
<text text-anchor="middle" style="font-size:8.00;" x="754" y="1545">id</text>
<text text-anchor="middle" style="font-size:8.00;" x="805" y="1545">serial</text>
<text text-anchor="middle" style="font-size:8.00;" x="876" y="1545"> UNIQUE PRIMARY KEY </text>
<text text-anchor="middle" style="font-size:8.00;" x="761" y="1559">owner</text>
<text text-anchor="middle" style="font-size:8.00;" x="808" y="1559">integer</text>
<text text-anchor="middle" style="font-size:8.00;" x="885" y="1559"> REFERENCES person UNIQUE </text>
<text text-anchor="middle" style="font-size:8.00;" x="760" y="1573">keyid</text>
<text text-anchor="middle" style="font-size:8.00;" x="803" y="1573">text</text>
<text text-anchor="middle" style="font-size:8.00;" x="768" y="1587">fingerprint</text>
<text text-anchor="middle" style="font-size:8.00;" x="803" y="1587">text</text>
<text text-anchor="middle" style="font-size:8.00;" x="847" y="1587"> UNIQUE </text>
<text text-anchor="middle" style="font-size:8.00;" x="760" y="1601">active</text>
<text text-anchor="middle" style="font-size:8.00;" x="810" y="1601">boolean</text>
<text text-anchor="middle" style="font-size:8.00;" x="766" y="1615">algorithm</text>
<text text-anchor="middle" style="font-size:8.00;" x="808" y="1615">integer</text>
<text text-anchor="middle" style="font-size:8.00;" x="763" y="1629">keysize</text>
<text text-anchor="middle" style="font-size:8.00;" x="808" y="1629">integer</text>
<text text-anchor="middle" style="font-size:8.00;" x="770" y="1643">can_encrypt</text>
<text text-anchor="middle" style="font-size:8.00;" x="810" y="1643">boolean</text>
<polygon style="fill:none;stroke:black;" points="745,1649 745,1517 945,1517 945,1649 745,1649"/>
</g>
<g id="edge10" class="edge"><title>gpgkey&#45;&gt;person</title>
<path style="fill:none;stroke:black;" d="M839,1513C832,1445 823,1340 814,1245"/>
<polygon style="fill:black;stroke:black;" points="811,1245 813,1235 817,1245 811,1245"/>
</g>
<g id="node6" class="node"><title>ircid</title>
<polygon style="fill:#c1cdcc;stroke:#c1cdcc;" points="854,554 854,478 1012,478 1012,554 854,554"/>
<polygon style="fill:white;stroke:white;" points="857,495 857,481 1009,481 1009,495 857,495"/>
<text text-anchor="middle" style="font-size:8.00;" x="933" y="491">ircid</text>
<polygon style="fill:none;stroke:black;" points="857,495 857,481 1009,481 1009,495 857,495"/>
<text text-anchor="middle" style="font-size:8.00;" x="863" y="506">id</text>
<text text-anchor="middle" style="font-size:8.00;" x="907" y="506">serial</text>
<text text-anchor="middle" style="font-size:8.00;" x="958" y="506"> PRIMARY KEY </text>
<text text-anchor="middle" style="font-size:8.00;" x="871" y="520">person</text>
<text text-anchor="middle" style="font-size:8.00;" x="910" y="520">integer</text>
<text text-anchor="middle" style="font-size:8.00;" x="968" y="520"> REFERENCES person </text>
<text text-anchor="middle" style="font-size:8.00;" x="873" y="534">network</text>
<text text-anchor="middle" style="font-size:8.00;" x="905" y="534">text</text>
<text text-anchor="middle" style="font-size:8.00;" x="876" y="548">nickname</text>
<text text-anchor="middle" style="font-size:8.00;" x="905" y="548">text</text>
<polygon style="fill:none;stroke:black;" points="854,554 854,478 1012,478 1012,554 854,554"/>
</g>
<g id="edge12" class="edge"><title>ircid&#45;&gt;person</title>
<path style="fill:none;stroke:black;" d="M922,558C907,615 877,722 852,819"/>
<polygon style="fill:black;stroke:black;" points="855,820 849,829 849,818 855,820"/>
</g>
<g id="node7" class="node"><title>jabberid</title>
<polygon style="fill:#c1cdcc;stroke:#c1cdcc;" points="186,1012 186,950 340,950 340,1012 186,1012"/>
<polygon style="fill:white;stroke:white;" points="189,967 189,953 337,953 337,967 189,967"/>
<text text-anchor="middle" style="font-size:8.00;" x="263" y="963">jabberid</text>
<polygon style="fill:none;stroke:black;" points="189,967 189,953 337,953 337,967 189,967"/>
<text text-anchor="middle" style="font-size:8.00;" x="195" y="978">id</text>
<text text-anchor="middle" style="font-size:8.00;" x="235" y="978">serial</text>
<text text-anchor="middle" style="font-size:8.00;" x="286" y="978"> PRIMARY KEY </text>
<text text-anchor="middle" style="font-size:8.00;" x="203" y="992">person</text>
<text text-anchor="middle" style="font-size:8.00;" x="238" y="992">integer</text>
<text text-anchor="middle" style="font-size:8.00;" x="296" y="992"> REFERENCES person </text>
<text text-anchor="middle" style="font-size:8.00;" x="205" y="1006">jabberid</text>
<text text-anchor="middle" style="font-size:8.00;" x="233" y="1006">text</text>
<text text-anchor="middle" style="font-size:8.00;" x="274" y="1006"> UNIQUE </text>
<polygon style="fill:none;stroke:black;" points="186,1012 186,950 340,950 340,1012 186,1012"/>
</g>
<g id="edge14" class="edge"><title>jabberid&#45;&gt;person</title>
<path style="fill:none;stroke:black;" d="M348,989C428,997 550,1009 647,1018"/>
<polygon style="fill:black;stroke:black;" points="647,1015 657,1019 647,1021 647,1015"/>
</g>
<g id="node8" class="node"><title>karma</title>
<polygon style="fill:#c1cdcc;stroke:#c1cdcc;" points="1000,1706 1000,1630 1192,1630 1192,1706 1000,1706"/>
<polygon style="fill:white;stroke:white;" points="1003,1647 1003,1633 1189,1633 1189,1647 1003,1647"/>
<text text-anchor="middle" style="font-size:8.00;" x="1096" y="1643">karma</text>
<polygon style="fill:none;stroke:black;" points="1003,1647 1003,1633 1189,1633 1189,1647 1003,1647"/>
<text text-anchor="middle" style="font-size:8.00;" x="1009" y="1658">id</text>
<text text-anchor="middle" style="font-size:8.00;" x="1058" y="1658">serial</text>
<text text-anchor="middle" style="font-size:8.00;" x="1120" y="1658"> PRIMARY KEY </text>
<text text-anchor="middle" style="font-size:8.00;" x="1024" y="1672">datecreated</text>
<text text-anchor="middle" style="font-size:8.00;" x="1067" y="1672">timestamp</text>
<text text-anchor="middle" style="font-size:8.00;" x="1017" y="1686">person</text>
<text text-anchor="middle" style="font-size:8.00;" x="1061" y="1686">integer</text>
<text text-anchor="middle" style="font-size:8.00;" x="1130" y="1686"> REFERENCES person </text>
<text text-anchor="middle" style="font-size:8.00;" x="1015" y="1700">action</text>
<text text-anchor="middle" style="font-size:8.00;" x="1061" y="1700">integer</text>
<text text-anchor="middle" style="font-size:8.00;" x="1139" y="1700"> REFERENCES karmaaction </text>
<polygon style="fill:none;stroke:black;" points="1000,1706 1000,1630 1192,1630 1192,1706 1000,1706"/>
</g>
<g id="node9" class="node"><title>karmaaction</title>
<polygon style="fill:#c1cdcc;stroke:#c1cdcc;" points="1210,2126 1210,2022 1392,2022 1392,2126 1210,2126"/>
<polygon style="fill:white;stroke:white;" points="1213,2039 1213,2025 1389,2025 1389,2039 1213,2039"/>
<text text-anchor="middle" style="font-size:8.00;" x="1301" y="2035">karmaaction</text>
<polygon style="fill:none;stroke:black;" points="1213,2039 1213,2025 1389,2025 1389,2039 1213,2039"/>
<text text-anchor="middle" style="font-size:8.00;" x="1219" y="2050">id</text>
<text text-anchor="middle" style="font-size:8.00;" x="1261" y="2050">serial</text>
<text text-anchor="middle" style="font-size:8.00;" x="1312" y="2050"> PRIMARY KEY </text>
<text text-anchor="middle" style="font-size:8.00;" x="1229" y="2064">category</text>
<text text-anchor="middle" style="font-size:8.00;" x="1264" y="2064">integer</text>
<text text-anchor="middle" style="font-size:8.00;" x="1335" y="2064"> REFERENCES karmacategory </text>
<text text-anchor="middle" style="font-size:8.00;" x="1226" y="2078">points</text>
<text text-anchor="middle" style="font-size:8.00;" x="1264" y="2078">integer</text>
<text text-anchor="middle" style="font-size:8.00;" x="1225" y="2092">name</text>
<text text-anchor="middle" style="font-size:8.00;" x="1259" y="2092">text</text>
<text text-anchor="middle" style="font-size:8.00;" x="1300" y="2092"> UNIQUE </text>
<text text-anchor="middle" style="font-size:8.00;" x="1222" y="2106">title</text>
<text text-anchor="middle" style="font-size:8.00;" x="1259" y="2106">text</text>
<text text-anchor="middle" style="font-size:8.00;" x="1231" y="2120">summary</text>
<text text-anchor="middle" style="font-size:8.00;" x="1259" y="2120">text</text>
<polygon style="fill:none;stroke:black;" points="1210,2126 1210,2022 1392,2022 1392,2126 1210,2126"/>
</g>
<g id="edge18" class="edge"><title>karma&#45;&gt;karmaaction</title>
<path style="fill:none;stroke:black;" d="M1117,1710C1154,1781 1226,1924 1268,2009"/>
<polygon style="fill:black;stroke:black;" points="1271,2008 1273,2018 1265,2011 1271,2008"/>
</g>
<g id="edge16" class="edge"><title>karma&#45;&gt;person</title>
<path style="fill:none;stroke:black;" d="M1076,1626C1040,1550 961,1382 895,1244"/>
<polygon style="fill:black;stroke:black;" points="892,1246 891,1235 898,1243 892,1246"/>
</g>
<g id="node11" class="node"><title>karmacategory</title>
<polygon style="fill:#c1cdcc;stroke:#c1cdcc;" points="1396,2430 1396,2354 1528,2354 1528,2430 1396,2430"/>
<polygon style="fill:white;stroke:white;" points="1399,2371 1399,2357 1525,2357 1525,2371 1399,2371"/>
<text text-anchor="middle" style="font-size:8.00;" x="1462" y="2367">karmacategory</text>
<polygon style="fill:none;stroke:black;" points="1399,2371 1399,2357 1525,2357 1525,2371 1399,2371"/>
<text text-anchor="middle" style="font-size:8.00;" x="1405" y="2382">id</text>
<text text-anchor="middle" style="font-size:8.00;" x="1448" y="2382">serial</text>
<text text-anchor="middle" style="font-size:8.00;" x="1493" y="2382"> PRIMARY KEY </text>
<text text-anchor="middle" style="font-size:8.00;" x="1411" y="2396">name</text>
<text text-anchor="middle" style="font-size:8.00;" x="1446" y="2396">text</text>
<text text-anchor="middle" style="font-size:8.00;" x="1408" y="2410">title</text>
<text text-anchor="middle" style="font-size:8.00;" x="1446" y="2410">text</text>
<text text-anchor="middle" style="font-size:8.00;" x="1417" y="2424">summary</text>
<text text-anchor="middle" style="font-size:8.00;" x="1446" y="2424">text</text>
<polygon style="fill:none;stroke:black;" points="1396,2430 1396,2354 1528,2354 1528,2430 1396,2430"/>
</g>
<g id="edge20" class="edge"><title>karmaaction&#45;&gt;karmacategory</title>
<path style="fill:none;stroke:black;" d="M1329,2130C1359,2190 1407,2283 1436,2341"/>
<polygon style="fill:black;stroke:black;" points="1439,2340 1441,2350 1433,2343 1439,2340"/>
</g>
<g id="node10" class="node"><title>karmacache</title>
<polygon style="fill:#c1cdcc;stroke:#c1cdcc;" points="1270,911 1270,835 1466,835 1466,911 1270,911"/>
<polygon style="fill:white;stroke:white;" points="1273,852 1273,838 1463,838 1463,852 1273,852"/>
<text text-anchor="middle" style="font-size:8.00;" x="1368" y="848">karmacache</text>
<polygon style="fill:none;stroke:black;" points="1273,852 1273,838 1463,838 1463,852 1273,852"/>
<text text-anchor="middle" style="font-size:8.00;" x="1279" y="863">id</text>
<text text-anchor="middle" style="font-size:8.00;" x="1329" y="863">serial</text>
<text text-anchor="middle" style="font-size:8.00;" x="1380" y="863"> PRIMARY KEY </text>
<text text-anchor="middle" style="font-size:8.00;" x="1287" y="877">person</text>
<text text-anchor="middle" style="font-size:8.00;" x="1332" y="877">integer</text>
<text text-anchor="middle" style="font-size:8.00;" x="1406" y="877"> UNIQUE REFERENCES person </text>
<text text-anchor="middle" style="font-size:8.00;" x="1289" y="891">category</text>
<text text-anchor="middle" style="font-size:8.00;" x="1332" y="891">integer</text>
<text text-anchor="middle" style="font-size:8.00;" x="1368" y="891"> UNIQUE </text>
<text text-anchor="middle" style="font-size:8.00;" x="1295" y="905">karmavalue</text>
<text text-anchor="middle" style="font-size:8.00;" x="1332" y="905">integer</text>
<polygon style="fill:none;stroke:black;" points="1270,911 1270,835 1466,835 1466,911 1270,911"/>
</g>
<g id="edge22" class="edge"><title>karmacache&#45;&gt;person</title>
<path style="fill:none;stroke:black;" d="M1262,902C1172,927 1041,964 941,991"/>
<polygon style="fill:black;stroke:black;" points="942,994 931,994 940,988 942,994"/>
</g>
<g id="node12" class="node"><title>karmatotalcache</title>
<polygon style="fill:#c1cdcc;stroke:#c1cdcc;" points="233,1343 233,1281 431,1281 431,1343 233,1343"/>
<polygon style="fill:white;stroke:white;" points="236,1298 236,1284 428,1284 428,1298 236,1298"/>
<text text-anchor="middle" style="font-size:8.00;" x="332" y="1294">karmatotalcache</text>
<polygon style="fill:none;stroke:black;" points="236,1298 236,1284 428,1284 428,1298 236,1298"/>
<text text-anchor="middle" style="font-size:8.00;" x="242" y="1309">id</text>
<text text-anchor="middle" style="font-size:8.00;" x="294" y="1309">serial</text>
<text text-anchor="middle" style="font-size:8.00;" x="345" y="1309"> PRIMARY KEY </text>
<text text-anchor="middle" style="font-size:8.00;" x="250" y="1323">person</text>
<text text-anchor="middle" style="font-size:8.00;" x="297" y="1323">integer</text>
<text text-anchor="middle" style="font-size:8.00;" x="371" y="1323"> REFERENCES person UNIQUE </text>
<text text-anchor="middle" style="font-size:8.00;" x="258" y="1337">karma_total</text>
<text text-anchor="middle" style="font-size:8.00;" x="297" y="1337">integer</text>
<polygon style="fill:none;stroke:black;" points="233,1343 233,1281 431,1281 431,1343 233,1343"/>
</g>
<g id="edge24" class="edge"><title>karmatotalcache&#45;&gt;person</title>
<path style="fill:none;stroke:black;" d="M390,1277C454,1238 561,1173 648,1120"/>
<polygon style="fill:black;stroke:black;" points="647,1117 657,1115 650,1123 647,1117"/>
</g>
<g id="node13" class="node"><title>language</title>
<polygon style="fill:#c1cdcc;stroke:#c1cdcc;" points="1223,1336 1223,1204 1387,1204 1387,1336 1223,1336"/>
<polygon style="fill:white;stroke:white;" points="1226,1221 1226,1207 1384,1207 1384,1221 1226,1221"/>
<text text-anchor="middle" style="font-size:8.00;" x="1305" y="1217">language</text>
<polygon style="fill:none;stroke:black;" points="1226,1221 1226,1207 1384,1207 1384,1221 1226,1221"/>
<text text-anchor="middle" style="font-size:8.00;" x="1232" y="1232">id</text>
<text text-anchor="middle" style="font-size:8.00;" x="1298" y="1232">serial</text>
<text text-anchor="middle" style="font-size:8.00;" x="1352" y="1232"> PRIMARY KEY </text>
<text text-anchor="middle" style="font-size:8.00;" x="1236" y="1246">code</text>
<text text-anchor="middle" style="font-size:8.00;" x="1296" y="1246">text</text>
<text text-anchor="middle" style="font-size:8.00;" x="1340" y="1246"> UNIQUE </text>
<text text-anchor="middle" style="font-size:8.00;" x="1249" y="1260">englishname</text>
<text text-anchor="middle" style="font-size:8.00;" x="1296" y="1260">text</text>
<text text-anchor="middle" style="font-size:8.00;" x="1248" y="1274">nativename</text>
<text text-anchor="middle" style="font-size:8.00;" x="1296" y="1274">text</text>
<text text-anchor="middle" style="font-size:8.00;" x="1248" y="1288">pluralforms</text>
<text text-anchor="middle" style="font-size:8.00;" x="1301" y="1288">integer</text>
<text text-anchor="middle" style="font-size:8.00;" x="1256" y="1302">pluralexpression</text>
<text text-anchor="middle" style="font-size:8.00;" x="1296" y="1302">text</text>
<text text-anchor="middle" style="font-size:8.00;" x="1240" y="1316">visible</text>
<text text-anchor="middle" style="font-size:8.00;" x="1303" y="1316">boolean</text>
<text text-anchor="middle" style="font-size:8.00;" x="1243" y="1330">direction</text>
<text text-anchor="middle" style="font-size:8.00;" x="1301" y="1330">integer</text>
<polygon style="fill:none;stroke:black;" points="1223,1336 1223,1204 1387,1204 1387,1336 1223,1336"/>
</g>
<g id="node14" class="node"><title>logintoken</title>
<polygon style="fill:#c1cdcc;stroke:#c1cdcc;" points="1063,1523 1063,1377 1249,1377 1249,1523 1063,1523"/>
<polygon style="fill:white;stroke:white;" points="1066,1394 1066,1380 1246,1380 1246,1394 1066,1394"/>
<text text-anchor="middle" style="font-size:8.00;" x="1156" y="1390">logintoken</text>
<polygon style="fill:none;stroke:black;" points="1066,1394 1066,1380 1246,1380 1246,1394 1066,1394"/>
<text text-anchor="middle" style="font-size:8.00;" x="1072" y="1405">id</text>
<text text-anchor="middle" style="font-size:8.00;" x="1133" y="1405">serial</text>
<text text-anchor="middle" style="font-size:8.00;" x="1084" y="1419">requester</text>
<text text-anchor="middle" style="font-size:8.00;" x="1136" y="1419">integer</text>
<text text-anchor="middle" style="font-size:8.00;" x="1205" y="1419"> REFERENCES person </text>
<text text-anchor="middle" style="font-size:8.00;" x="1093" y="1433">requesteremail</text>
<text text-anchor="middle" style="font-size:8.00;" x="1131" y="1433">text</text>
<text text-anchor="middle" style="font-size:8.00;" x="1078" y="1447">email</text>
<text text-anchor="middle" style="font-size:8.00;" x="1131" y="1447">text</text>
<text text-anchor="middle" style="font-size:8.00;" x="1080" y="1461">created</text>
<text text-anchor="middle" style="font-size:8.00;" x="1142" y="1461">timestamp</text>
<text text-anchor="middle" style="font-size:8.00;" x="1085" y="1475">tokentype</text>
<text text-anchor="middle" style="font-size:8.00;" x="1136" y="1475">integer</text>
<text text-anchor="middle" style="font-size:8.00;" x="1078" y="1489">token</text>
<text text-anchor="middle" style="font-size:8.00;" x="1131" y="1489">text</text>
<text text-anchor="middle" style="font-size:8.00;" x="1183" y="1489"> UNIQUE </text>
<text text-anchor="middle" style="font-size:8.00;" x="1086" y="1503">fingerprint</text>
<text text-anchor="middle" style="font-size:8.00;" x="1131" y="1503">text</text>
<text text-anchor="middle" style="font-size:8.00;" x="1093" y="1517">redirection_url</text>
<text text-anchor="middle" style="font-size:8.00;" x="1131" y="1517">text</text>
<polygon style="fill:none;stroke:black;" points="1063,1523 1063,1377 1249,1377 1249,1523 1063,1523"/>
</g>
<g id="edge26" class="edge"><title>logintoken&#45;&gt;person</title>
<path style="fill:none;stroke:black;" d="M1089,1373C1047,1324 990,1259 938,1198"/>
<polygon style="fill:black;stroke:black;" points="935,1200 931,1190 940,1195 935,1200"/>
</g>
<g id="edge34" class="edge"><title>person&#45;&gt;calendar</title>
<path style="fill:none;stroke:black;" d="M657,1181C572,1273 468,1385 412,1446"/>
<polygon style="fill:black;stroke:black;" points="415,1448 405,1453 410,1443 415,1448"/>
</g>
<g id="edge36" class="edge"><title>person&#45;&gt;country</title>
<path style="fill:none;stroke:black;" d="M780,829C770,690 758,514 751,416"/>
<polygon style="fill:black;stroke:black;" points="748,416 750,406 754,416 748,416"/>
</g>
<g id="edge30" class="edge"><title>person&#45;&gt;language</title>
<path style="fill:none;stroke:black;" d="M931,1096C1017,1136 1127,1187 1206,1224"/>
<polygon style="fill:black;stroke:black;" points="1207,1221 1215,1228 1204,1227 1207,1221"/>
</g>
<g id="edge28" class="edge"><title>person&#45;&gt;person</title>
<path style="fill:none;stroke:black;" d="M931,1090C942,1077 949,1058 949,1032 949,1011 944,995 937,982"/>
<polygon style="fill:black;stroke:black;" points="934,984 931,974 940,980 934,984"/>
</g>
<g id="edge32" class="edge"><title>person&#45;&gt;person</title>
<path style="fill:none;stroke:black;" d="M931,1170C953,1150 967,1103 967,1032 967,969 956,925 938,902"/>
<polygon style="fill:black;stroke:black;" points="935,904 931,894 940,899 935,904"/>
</g>
<g id="node42" class="node"><title>fake_libraryfilealias_192</title>
<ellipse cx="700" cy="642" rx="35" ry="18" style="fill:none;stroke:red;"/>
<text text-anchor="middle" style="font-size:8.00;" x="700" y="645">libraryfilealias</text>
</g>
<g id="edge38" class="edge"><title>person&#45;&gt;fake_libraryfilealias_192</title>
<path style="fill:none;stroke:black;" d="M745,829C730,766 715,704 707,670"/>
<polygon style="fill:black;stroke:black;" points="704,671 704,660 710,669 704,671"/>
</g>
<g id="node44" class="node"><title>fake_libraryfilealias_194</title>
<ellipse cx="1188" cy="985" rx="35" ry="18" style="fill:none;stroke:red;"/>
<text text-anchor="middle" style="font-size:8.00;" x="1188" y="988">libraryfilealias</text>
</g>
<g id="edge40" class="edge"><title>person&#45;&gt;fake_libraryfilealias_194</title>
<path style="fill:none;stroke:black;" d="M931,1016C1006,1007 1093,996 1144,990"/>
<polygon style="fill:black;stroke:black;" points="1144,987 1154,989 1144,993 1144,987"/>
</g>
<g id="node16" class="node"><title>personlanguage</title>
<polygon style="fill:#c1cdcc;stroke:#c1cdcc;" points="1258,1179 1258,1117 1454,1117 1454,1179 1258,1179"/>
<polygon style="fill:white;stroke:white;" points="1261,1134 1261,1120 1451,1120 1451,1134 1261,1134"/>
<text text-anchor="middle" style="font-size:8.00;" x="1356" y="1130">personlanguage</text>
<polygon style="fill:none;stroke:black;" points="1261,1134 1261,1120 1451,1120 1451,1134 1261,1134"/>
<text text-anchor="middle" style="font-size:8.00;" x="1267" y="1145">id</text>
<text text-anchor="middle" style="font-size:8.00;" x="1309" y="1145">serial</text>
<text text-anchor="middle" style="font-size:8.00;" x="1360" y="1145"> PRIMARY KEY </text>
<text text-anchor="middle" style="font-size:8.00;" x="1275" y="1159">person</text>
<text text-anchor="middle" style="font-size:8.00;" x="1312" y="1159">integer</text>
<text text-anchor="middle" style="font-size:8.00;" x="1386" y="1159"> REFERENCES person UNIQUE </text>
<text text-anchor="middle" style="font-size:8.00;" x="1279" y="1173">language</text>
<text text-anchor="middle" style="font-size:8.00;" x="1312" y="1173">integer</text>
<text text-anchor="middle" style="font-size:8.00;" x="1390" y="1173"> REFERENCES language UNIQUE </text>
<polygon style="fill:none;stroke:black;" points="1258,1179 1258,1117 1454,1117 1454,1179 1258,1179"/>
</g>
<g id="edge44" class="edge"><title>personlanguage&#45;&gt;language</title>
<path style="fill:none;stroke:black;" d="M1341,1183C1340,1185 1339,1188 1338,1191"/>
<polygon style="fill:black;stroke:black;" points="1341,1192 1334,1200 1335,1189 1341,1192"/>
</g>
<g id="edge42" class="edge"><title>personlanguage&#45;&gt;person</title>
<path style="fill:none;stroke:black;" d="M1250,1126C1163,1108 1038,1082 941,1062"/>
<polygon style="fill:black;stroke:black;" points="940,1065 931,1060 941,1059 940,1065"/>
</g>
<g id="node17" class="node"><title>signedcodeofconduct</title>
<polygon style="fill:#c1cdcc;stroke:#c1cdcc;" points="446,1678 446,1546 712,1546 712,1678 446,1678"/>
<polygon style="fill:white;stroke:white;" points="449,1563 449,1549 709,1549 709,1563 449,1563"/>
<text text-anchor="middle" style="font-size:8.00;" x="579" y="1559">signedcodeofconduct</text>
<polygon style="fill:none;stroke:black;" points="449,1563 449,1549 709,1549 709,1563 449,1563"/>
<text text-anchor="middle" style="font-size:8.00;" x="455" y="1574">id</text>
<text text-anchor="middle" style="font-size:8.00;" x="518" y="1574">serial</text>
<text text-anchor="middle" style="font-size:8.00;" x="462" y="1588">owner</text>
<text text-anchor="middle" style="font-size:8.00;" x="521" y="1588">integer</text>
<text text-anchor="middle" style="font-size:8.00;" x="629" y="1588"> REFERENCES person REFERENCES gpgkey </text>
<text text-anchor="middle" style="font-size:8.00;" x="469" y="1602">signingkey</text>
<text text-anchor="middle" style="font-size:8.00;" x="521" y="1602">integer</text>
<text text-anchor="middle" style="font-size:8.00;" x="591" y="1602"> REFERENCES gpgkey </text>
<text text-anchor="middle" style="font-size:8.00;" x="470" y="1616">datecreated</text>
<text text-anchor="middle" style="font-size:8.00;" x="527" y="1616">timestamp</text>
<text text-anchor="middle" style="font-size:8.00;" x="470" y="1630">signedcode</text>
<text text-anchor="middle" style="font-size:8.00;" x="516" y="1630">text</text>
<text text-anchor="middle" style="font-size:8.00;" x="466" y="1644">recipient</text>
<text text-anchor="middle" style="font-size:8.00;" x="521" y="1644">integer</text>
<text text-anchor="middle" style="font-size:8.00;" x="461" y="1658">active</text>
<text text-anchor="middle" style="font-size:8.00;" x="523" y="1658">boolean</text>
<text text-anchor="middle" style="font-size:8.00;" x="477" y="1672">admincomment</text>
<text text-anchor="middle" style="font-size:8.00;" x="516" y="1672">text</text>
<polygon style="fill:none;stroke:black;" points="446,1678 446,1546 712,1546 712,1678 446,1678"/>
</g>
<g id="edge48" class="edge"><title>signedcodeofconduct&#45;&gt;gpgkey</title>
<path style="fill:none;stroke:black;" d="M720,1597C722,1597 725,1596 727,1596"/>
<polygon style="fill:black;stroke:black;" points="727,1593 737,1595 727,1599 727,1593"/>
</g>
<g id="edge46" class="edge"><title>signedcodeofconduct&#45;&gt;person</title>
<path style="fill:none;stroke:black;" d="M605,1542C632,1468 676,1349 715,1244"/>
<polygon style="fill:black;stroke:black;" points="712,1243 719,1235 718,1246 712,1243"/>
</g>
<g id="node18" class="node"><title>sshkey</title>
<polygon style="fill:#c1cdcc;stroke:#c1cdcc;" points="1044,625 1044,535 1200,535 1200,625 1044,625"/>
<polygon style="fill:white;stroke:white;" points="1047,552 1047,538 1197,538 1197,552 1047,552"/>
<text text-anchor="middle" style="font-size:8.00;" x="1122" y="548">sshkey</text>
<polygon style="fill:none;stroke:black;" points="1047,552 1047,538 1197,538 1197,552 1047,552"/>
<text text-anchor="middle" style="font-size:8.00;" x="1053" y="563">id</text>
<text text-anchor="middle" style="font-size:8.00;" x="1095" y="563">serial</text>
<text text-anchor="middle" style="font-size:8.00;" x="1146" y="563"> PRIMARY KEY </text>
<text text-anchor="middle" style="font-size:8.00;" x="1061" y="577">person</text>
<text text-anchor="middle" style="font-size:8.00;" x="1098" y="577">integer</text>
<text text-anchor="middle" style="font-size:8.00;" x="1156" y="577"> REFERENCES person </text>
<text text-anchor="middle" style="font-size:8.00;" x="1063" y="591">keytype</text>
<text text-anchor="middle" style="font-size:8.00;" x="1098" y="591">integer</text>
<text text-anchor="middle" style="font-size:8.00;" x="1062" y="605">keytext</text>
<text text-anchor="middle" style="font-size:8.00;" x="1093" y="605">text</text>
<text text-anchor="middle" style="font-size:8.00;" x="1065" y="619">comment</text>
<text text-anchor="middle" style="font-size:8.00;" x="1093" y="619">text</text>
<polygon style="fill:none;stroke:black;" points="1044,625 1044,535 1200,535 1200,625 1044,625"/>
</g>
<g id="edge50" class="edge"><title>sshkey&#45;&gt;person</title>
<path style="fill:none;stroke:black;" d="M1086,629C1050,678 992,758 937,835"/>
<polygon style="fill:black;stroke:black;" points="940,837 931,843 934,833 940,837"/>
</g>
<g id="node19" class="node"><title>teammembership</title>
<polygon style="fill:#c1cdcc;stroke:#c1cdcc;" points="177,713 177,581 405,581 405,713 177,713"/>
<polygon style="fill:white;stroke:white;" points="180,598 180,584 402,584 402,598 180,598"/>
<text text-anchor="middle" style="font-size:8.00;" x="291" y="594">teammembership</text>
<polygon style="fill:none;stroke:black;" points="180,598 180,584 402,584 402,598 180,598"/>
<text text-anchor="middle" style="font-size:8.00;" x="186" y="609">id</text>
<text text-anchor="middle" style="font-size:8.00;" x="257" y="609">serial</text>
<text text-anchor="middle" style="font-size:8.00;" x="319" y="609"> PRIMARY KEY </text>
<text text-anchor="middle" style="font-size:8.00;" x="194" y="623">person</text>
<text text-anchor="middle" style="font-size:8.00;" x="260" y="623">integer</text>
<text text-anchor="middle" style="font-size:8.00;" x="345" y="623"> UNIQUE REFERENCES person </text>
<text text-anchor="middle" style="font-size:8.00;" x="191" y="637">team</text>
<text text-anchor="middle" style="font-size:8.00;" x="260" y="637">integer</text>
<text text-anchor="middle" style="font-size:8.00;" x="345" y="637"> UNIQUE REFERENCES person </text>
<text text-anchor="middle" style="font-size:8.00;" x="192" y="651">status</text>
<text text-anchor="middle" style="font-size:8.00;" x="260" y="651">integer</text>
<text text-anchor="middle" style="font-size:8.00;" x="199" y="665">datejoined</text>
<text text-anchor="middle" style="font-size:8.00;" x="266" y="665">timestamp</text>
<text text-anchor="middle" style="font-size:8.00;" x="201" y="679">dateexpires</text>
<text text-anchor="middle" style="font-size:8.00;" x="266" y="679">timestamp</text>
<text text-anchor="middle" style="font-size:8.00;" x="197" y="693">reviewer</text>
<text text-anchor="middle" style="font-size:8.00;" x="260" y="693">integer</text>
<text text-anchor="middle" style="font-size:8.00;" x="329" y="693"> REFERENCES person </text>
<text text-anchor="middle" style="font-size:8.00;" x="212" y="707">reviewercomment</text>
<text text-anchor="middle" style="font-size:8.00;" x="255" y="707">text</text>
<polygon style="fill:none;stroke:black;" points="177,713 177,581 405,581 405,713 177,713"/>
</g>
<g id="edge52" class="edge"><title>teammembership&#45;&gt;person</title>
<path style="fill:none;stroke:black;" d="M383,717C457,774 563,855 649,921"/>
<polygon style="fill:black;stroke:black;" points="651,918 657,927 647,924 651,918"/>
</g>
<g id="edge54" class="edge"><title>teammembership&#45;&gt;person</title>
<path style="fill:none;stroke:black;" d="M383,717C457,774 563,855 649,921"/>
<polygon style="fill:black;stroke:black;" points="651,918 657,927 647,924 651,918"/>
</g>
<g id="edge56" class="edge"><title>teammembership&#45;&gt;person</title>
<path style="fill:none;stroke:black;" d="M383,717C457,774 563,855 649,921"/>
<polygon style="fill:black;stroke:black;" points="651,918 657,927 647,924 651,918"/>
</g>
<g id="node20" class="node"><title>teamparticipation</title>
<polygon style="fill:#c1cdcc;stroke:#c1cdcc;" points="437,574 437,512 617,512 617,574 437,574"/>
<polygon style="fill:white;stroke:white;" points="440,529 440,515 614,515 614,529 440,529"/>
<text text-anchor="middle" style="font-size:8.00;" x="527" y="525">teamparticipation</text>
<polygon style="fill:none;stroke:black;" points="440,529 440,515 614,515 614,529 440,529"/>
<text text-anchor="middle" style="font-size:8.00;" x="446" y="540">id</text>
<text text-anchor="middle" style="font-size:8.00;" x="480" y="540">serial</text>
<text text-anchor="middle" style="font-size:8.00;" x="531" y="540"> PRIMARY KEY </text>
<text text-anchor="middle" style="font-size:8.00;" x="451" y="554">team</text>
<text text-anchor="middle" style="font-size:8.00;" x="483" y="554">integer</text>
<text text-anchor="middle" style="font-size:8.00;" x="557" y="554"> REFERENCES person UNIQUE </text>
<text text-anchor="middle" style="font-size:8.00;" x="454" y="568">person</text>
<text text-anchor="middle" style="font-size:8.00;" x="483" y="568">integer</text>
<text text-anchor="middle" style="font-size:8.00;" x="557" y="568"> REFERENCES person UNIQUE </text>
<polygon style="fill:none;stroke:black;" points="437,574 437,512 617,512 617,574 437,574"/>
</g>
<g id="edge58" class="edge"><title>teamparticipation&#45;&gt;person</title>
<path style="fill:none;stroke:black;" d="M546,578C574,629 628,728 678,820"/>
<polygon style="fill:black;stroke:black;" points="681,819 683,829 675,822 681,819"/>
</g>
<g id="edge60" class="edge"><title>teamparticipation&#45;&gt;person</title>
<path style="fill:none;stroke:black;" d="M546,578C574,629 628,728 678,820"/>
<polygon style="fill:black;stroke:black;" points="681,819 683,829 675,822 681,819"/>
</g>
<g id="node21" class="node"><title>validpersonorteamcache</title>
<polygon style="fill:#c1cdcc;stroke:#c1cdcc;" points="198,832 198,798 388,798 388,832 198,832"/>
<polygon style="fill:white;stroke:white;" points="201,815 201,801 385,801 385,815 201,815"/>
<text text-anchor="middle" style="font-size:8.00;" x="293" y="811">validpersonorteamcache</text>
<polygon style="fill:none;stroke:black;" points="201,815 201,801 385,801 385,815 201,815"/>
<text text-anchor="middle" style="font-size:8.00;" x="207" y="826">id</text>
<text text-anchor="middle" style="font-size:8.00;" x="229" y="826">integer</text>
<text text-anchor="middle" style="font-size:8.00;" x="315" y="826"> REFERENCES person PRIMARY KEY </text>
<polygon style="fill:none;stroke:black;" points="198,832 198,798 388,798 388,832 198,832"/>
</g>
<g id="edge62" class="edge"><title>validpersonorteamcache&#45;&gt;person</title>
<path style="fill:none;stroke:black;" d="M341,836C411,866 544,924 648,969"/>
<polygon style="fill:black;stroke:black;" points="649,966 657,973 646,972 649,966"/>
</g>
<g id="node22" class="node"><title>wikiname</title>
<polygon style="fill:#c1cdcc;stroke:#c1cdcc;" points="186,1185 186,1109 344,1109 344,1185 186,1185"/>
<polygon style="fill:white;stroke:white;" points="189,1126 189,1112 341,1112 341,1126 189,1126"/>
<text text-anchor="middle" style="font-size:8.00;" x="265" y="1122">wikiname</text>
<polygon style="fill:none;stroke:black;" points="189,1126 189,1112 341,1112 341,1126 189,1126"/>
<text text-anchor="middle" style="font-size:8.00;" x="195" y="1137">id</text>
<text text-anchor="middle" style="font-size:8.00;" x="239" y="1137">serial</text>
<text text-anchor="middle" style="font-size:8.00;" x="290" y="1137"> PRIMARY KEY </text>
<text text-anchor="middle" style="font-size:8.00;" x="203" y="1151">person</text>
<text text-anchor="middle" style="font-size:8.00;" x="242" y="1151">integer</text>
<text text-anchor="middle" style="font-size:8.00;" x="300" y="1151"> REFERENCES person </text>
<text text-anchor="middle" style="font-size:8.00;" x="199" y="1165">wiki</text>
<text text-anchor="middle" style="font-size:8.00;" x="237" y="1165">text</text>
<text text-anchor="middle" style="font-size:8.00;" x="278" y="1165"> UNIQUE </text>
<text text-anchor="middle" style="font-size:8.00;" x="208" y="1179">wikiname</text>
<text text-anchor="middle" style="font-size:8.00;" x="237" y="1179">text</text>
<text text-anchor="middle" style="font-size:8.00;" x="278" y="1179"> UNIQUE </text>
<polygon style="fill:none;stroke:black;" points="186,1185 186,1109 344,1109 344,1185 186,1185"/>
</g>
<g id="edge64" class="edge"><title>wikiname&#45;&gt;person</title>
<path style="fill:none;stroke:black;" d="M352,1128C432,1111 552,1084 647,1064"/>
<polygon style="fill:black;stroke:black;" points="647,1061 657,1062 648,1067 647,1061"/>
</g>
</g>
</svg>
