<?xml version="1.0" encoding="UTF-8" standalone="no"?>
<!DOCTYPE svg PUBLIC "-//W3C//DTD SVG 1.0//EN"
 "http://www.w3.org/TR/2001/REC-SVG-20010904/DTD/svg10.dtd">
<!-- Generated by fdp version 2.2.1 (Tue Oct 11 01:38:21 UTC 2005)
     For user: (stub) Stuart Bishop,,,   Title: g    Pages: 1 -->
<svg width="312px" height="535px"
 viewBox = "-1 -1 311 534"
 xmlns="http://www.w3.org/2000/svg">
<g id="graph0" class="graph" transform = "scale(0.258911)"
 style="font-family:Times-Roman;font-size:14.00;">
<title>g</title>
<text text-anchor="middle" style="font-size:22.00;" x="586" y="2042">Foaf</text>
<g id="node1" class="node"><title>calendar</title>
<polygon style="fill:#c1cdcc;stroke:#c1cdcc;" points="828,338 828,284 934,284 934,338 828,338"/>
<polygon style="fill:white;stroke:white;" points="831,299 831,287 931,287 931,299 831,299"/>
<text text-anchor="middle" style="font-size:6.00;" x="881" y="295">calendar</text>
<polygon style="fill:none;stroke:black;" points="831,299 831,287 931,287 931,299 831,299"/>
<text text-anchor="middle" style="font-size:6.00;" x="836" y="308">id</text>
<text text-anchor="middle" style="font-size:6.00;" x="867" y="308">serial</text>
<text text-anchor="middle" style="font-size:6.00;" x="907" y="308"> PRIMARY KEY </text>
<text text-anchor="middle" style="font-size:6.00;" x="839" y="320">title</text>
<text text-anchor="middle" style="font-size:6.00;" x="866" y="320">text</text>
<text text-anchor="middle" style="font-size:6.00;" x="844" y="332">revision</text>
<text text-anchor="middle" style="font-size:6.00;" x="869" y="332">integer</text>
<polygon style="fill:none;stroke:black;" points="828,338 828,284 934,284 934,338 828,338"/>
</g>
<g id="node2" class="node"><title>calendarsubscription</title>
<polygon style="fill:#c1cdcc;stroke:#c1cdcc;" points="981,103 981,37 1127,37 1127,103 981,103"/>
<polygon style="fill:white;stroke:white;" points="984,52 984,40 1124,40 1124,52 984,52"/>
<text text-anchor="middle" style="font-size:6.00;" x="1054" y="48">calendarsubscription</text>
<polygon style="fill:none;stroke:black;" points="984,52 984,40 1124,40 1124,52 984,52"/>
<text text-anchor="middle" style="font-size:6.00;" x="989" y="61">id</text>
<text text-anchor="middle" style="font-size:6.00;" x="1017" y="61">serial</text>
<text text-anchor="middle" style="font-size:6.00;" x="1057" y="61"> PRIMARY KEY </text>
<text text-anchor="middle" style="font-size:6.00;" x="995" y="73">subject</text>
<text text-anchor="middle" style="font-size:6.00;" x="1019" y="73">integer</text>
<text text-anchor="middle" style="font-size:6.00;" x="1078" y="73"> REFERENCES calendar UNIQUE </text>
<text text-anchor="middle" style="font-size:6.00;" x="995" y="85">object</text>
<text text-anchor="middle" style="font-size:6.00;" x="1019" y="85">integer</text>
<text text-anchor="middle" style="font-size:6.00;" x="1078" y="85"> REFERENCES calendar UNIQUE </text>
<text text-anchor="middle" style="font-size:6.00;" x="995" y="97">colour</text>
<text text-anchor="middle" style="font-size:6.00;" x="1016" y="97">text</text>
<polygon style="fill:none;stroke:black;" points="981,103 981,37 1127,37 1127,103 981,103"/>
</g>
<g id="edge2" class="edge"><title>calendarsubscription&#45;&gt;calendar</title>
<path style="fill:none;stroke:black;" d="M1034,107C1005,151 951,226 916,272"/>
<polygon style="fill:black;stroke:black;" points="919,274 910,280 913,270 919,274"/>
</g>
<g id="edge4" class="edge"><title>calendarsubscription&#45;&gt;calendar</title>
<path style="fill:none;stroke:black;" d="M1022,107C987,152 934,226 904,272"/>
<polygon style="fill:black;stroke:black;" points="907,274 898,280 901,270 907,274"/>
</g>
<g id="node3" class="node"><title>country</title>
<polygon style="fill:#c1cdcc;stroke:#c1cdcc;" points="318,1236 318,1146 450,1146 450,1236 318,1236"/>
<polygon style="fill:white;stroke:white;" points="321,1161 321,1149 447,1149 447,1161 321,1161"/>
<text text-anchor="middle" style="font-size:6.00;" x="384" y="1157">country</text>
<polygon style="fill:none;stroke:black;" points="321,1161 321,1149 447,1149 447,1161 321,1161"/>
<text text-anchor="middle" style="font-size:6.00;" x="326" y="1170">id</text>
<text text-anchor="middle" style="font-size:6.00;" x="371" y="1170">serial</text>
<text text-anchor="middle" style="font-size:6.00;" x="423" y="1170"> PRIMARY KEY </text>
<text text-anchor="middle" style="font-size:6.00;" x="341" y="1182">iso3166code2</text>
<text text-anchor="middle" style="font-size:6.00;" x="379" y="1182">character(2)</text>
<text text-anchor="middle" style="font-size:6.00;" x="414" y="1182"> UNIQUE </text>
<text text-anchor="middle" style="font-size:6.00;" x="341" y="1194">iso3166code3</text>
<text text-anchor="middle" style="font-size:6.00;" x="379" y="1194">character(3)</text>
<text text-anchor="middle" style="font-size:6.00;" x="414" y="1194"> UNIQUE </text>
<text text-anchor="middle" style="font-size:6.00;" x="331" y="1206">name</text>
<text text-anchor="middle" style="font-size:6.00;" x="370" y="1206">text</text>
<text text-anchor="middle" style="font-size:6.00;" x="414" y="1206"> UNIQUE </text>
<text text-anchor="middle" style="font-size:6.00;" x="329" y="1218">title</text>
<text text-anchor="middle" style="font-size:6.00;" x="370" y="1218">text</text>
<text text-anchor="middle" style="font-size:6.00;" x="338" y="1230">description</text>
<text text-anchor="middle" style="font-size:6.00;" x="370" y="1230">text</text>
<polygon style="fill:none;stroke:black;" points="318,1236 318,1146 450,1146 450,1236 318,1236"/>
</g>
<g id="node4" class="node"><title>emailaddress</title>
<polygon style="fill:#c1cdcc;stroke:#c1cdcc;" points="500,387 500,321 618,321 618,387 500,387"/>
<polygon style="fill:white;stroke:white;" points="503,336 503,324 615,324 615,336 503,336"/>
<text text-anchor="middle" style="font-size:6.00;" x="559" y="332">emailaddress</text>
<polygon style="fill:none;stroke:black;" points="503,336 503,324 615,324 615,336 503,336"/>
<text text-anchor="middle" style="font-size:6.00;" x="508" y="345">id</text>
<text text-anchor="middle" style="font-size:6.00;" x="536" y="345">serial</text>
<text text-anchor="middle" style="font-size:6.00;" x="576" y="345"> PRIMARY KEY </text>
<text text-anchor="middle" style="font-size:6.00;" x="513" y="357">email</text>
<text text-anchor="middle" style="font-size:6.00;" x="535" y="357">text</text>
<text text-anchor="middle" style="font-size:6.00;" x="514" y="369">person</text>
<text text-anchor="middle" style="font-size:6.00;" x="538" y="369">integer</text>
<text text-anchor="middle" style="font-size:6.00;" x="583" y="369"> REFERENCES person </text>
<text text-anchor="middle" style="font-size:6.00;" x="513" y="381">status</text>
<text text-anchor="middle" style="font-size:6.00;" x="538" y="381">integer</text>
<polygon style="fill:none;stroke:black;" points="500,387 500,321 618,321 618,387 500,387"/>
</g>
<g id="node14" class="node"><title>person</title>
<polygon style="fill:#c1cdcc;stroke:#c1cdcc;" points="468,935 468,569 670,569 670,935 468,935"/>
<polygon style="fill:white;stroke:white;" points="471,584 471,572 667,572 667,584 471,584"/>
<text text-anchor="middle" style="font-size:6.00;" x="569" y="580">person</text>
<polygon style="fill:none;stroke:black;" points="471,584 471,572 667,572 667,584 471,584"/>
<text text-anchor="middle" style="font-size:6.00;" x="476" y="593">id</text>
<text text-anchor="middle" style="font-size:6.00;" x="551" y="593">serial</text>
<text text-anchor="middle" style="font-size:6.00;" x="600" y="593"> PRIMARY KEY </text>
<text text-anchor="middle" style="font-size:6.00;" x="489" y="605">displayname</text>
<text text-anchor="middle" style="font-size:6.00;" x="550" y="605">text</text>
<text text-anchor="middle" style="font-size:6.00;" x="487" y="617">givenname</text>
<text text-anchor="middle" style="font-size:6.00;" x="550" y="617">text</text>
<text text-anchor="middle" style="font-size:6.00;" x="488" y="629">familyname</text>
<text text-anchor="middle" style="font-size:6.00;" x="550" y="629">text</text>
<text text-anchor="middle" style="font-size:6.00;" x="485" y="641">password</text>
<text text-anchor="middle" style="font-size:6.00;" x="550" y="641">text</text>
<text text-anchor="middle" style="font-size:6.00;" x="487" y="653">teamowner</text>
<text text-anchor="middle" style="font-size:6.00;" x="553" y="653">integer</text>
<text text-anchor="middle" style="font-size:6.00;" x="607" y="653"> REFERENCES person </text>
<text text-anchor="middle" style="font-size:6.00;" x="494" y="665">teamdescription</text>
<text text-anchor="middle" style="font-size:6.00;" x="550" y="665">text</text>
<text text-anchor="middle" style="font-size:6.00;" x="481" y="677">name</text>
<text text-anchor="middle" style="font-size:6.00;" x="550" y="677">text</text>
<text text-anchor="middle" style="font-size:6.00;" x="485" y="689">language</text>
<text text-anchor="middle" style="font-size:6.00;" x="553" y="689">integer</text>
<text text-anchor="middle" style="font-size:6.00;" x="610" y="689"> REFERENCES language </text>
<text text-anchor="middle" style="font-size:6.00;" x="477" y="701">fti</text>
<text text-anchor="middle" style="font-size:6.00;" x="555" y="701">tsvector</text>
<text text-anchor="middle" style="font-size:6.00;" x="505" y="713">defaultmembershipperiod</text>
<text text-anchor="middle" style="font-size:6.00;" x="553" y="713">integer</text>
<text text-anchor="middle" style="font-size:6.00;" x="500" y="725">defaultrenewalperiod</text>
<text text-anchor="middle" style="font-size:6.00;" x="553" y="725">integer</text>
<text text-anchor="middle" style="font-size:6.00;" x="496" y="737">subscriptionpolicy</text>
<text text-anchor="middle" style="font-size:6.00;" x="553" y="737">integer</text>
<text text-anchor="middle" style="font-size:6.00;" x="483" y="749">merged</text>
<text text-anchor="middle" style="font-size:6.00;" x="553" y="749">integer</text>
<text text-anchor="middle" style="font-size:6.00;" x="607" y="749"> REFERENCES person </text>
<text text-anchor="middle" style="font-size:6.00;" x="488" y="761">datecreated</text>
<text text-anchor="middle" style="font-size:6.00;" x="558" y="761">timestamp</text>
<text text-anchor="middle" style="font-size:6.00;" x="484" y="773">calendar</text>
<text text-anchor="middle" style="font-size:6.00;" x="553" y="773">integer</text>
<text text-anchor="middle" style="font-size:6.00;" x="621" y="773"> REFERENCES calendar UNIQUE </text>
<text text-anchor="middle" style="font-size:6.00;" x="485" y="785">timezone</text>
<text text-anchor="middle" style="font-size:6.00;" x="550" y="785">text</text>
<text text-anchor="middle" style="font-size:6.00;" x="482" y="797">karma</text>
<text text-anchor="middle" style="font-size:6.00;" x="553" y="797">integer</text>
<text text-anchor="middle" style="font-size:6.00;" x="489" y="809">addressline1</text>
<text text-anchor="middle" style="font-size:6.00;" x="550" y="809">text</text>
<text text-anchor="middle" style="font-size:6.00;" x="489" y="821">addressline2</text>
<text text-anchor="middle" style="font-size:6.00;" x="550" y="821">text</text>
<text text-anchor="middle" style="font-size:6.00;" x="489" y="833">organization</text>
<text text-anchor="middle" style="font-size:6.00;" x="550" y="833">text</text>
<text text-anchor="middle" style="font-size:6.00;" x="479" y="845">city</text>
<text text-anchor="middle" style="font-size:6.00;" x="550" y="845">text</text>
<text text-anchor="middle" style="font-size:6.00;" x="485" y="857">province</text>
<text text-anchor="middle" style="font-size:6.00;" x="550" y="857">text</text>
<text text-anchor="middle" style="font-size:6.00;" x="484" y="869">country</text>
<text text-anchor="middle" style="font-size:6.00;" x="553" y="869">integer</text>
<text text-anchor="middle" style="font-size:6.00;" x="609" y="869"> REFERENCES country </text>
<text text-anchor="middle" style="font-size:6.00;" x="485" y="881">postcode</text>
<text text-anchor="middle" style="font-size:6.00;" x="550" y="881">text</text>
<text text-anchor="middle" style="font-size:6.00;" x="482" y="893">phone</text>
<text text-anchor="middle" style="font-size:6.00;" x="550" y="893">text</text>
<text text-anchor="middle" style="font-size:6.00;" x="497" y="905">homepage_content</text>
<text text-anchor="middle" style="font-size:6.00;" x="550" y="905">text</text>
<text text-anchor="middle" style="font-size:6.00;" x="484" y="917">emblem</text>
<text text-anchor="middle" style="font-size:6.00;" x="553" y="917">integer</text>
<text text-anchor="middle" style="font-size:6.00;" x="617" y="917"> REFERENCES libraryfilealias </text>
<text text-anchor="middle" style="font-size:6.00;" x="490" y="929">hackergotchi</text>
<text text-anchor="middle" style="font-size:6.00;" x="553" y="929">integer</text>
<text text-anchor="middle" style="font-size:6.00;" x="617" y="929"> REFERENCES libraryfilealias </text>
<polygon style="fill:none;stroke:black;" points="468,935 468,569 670,569 670,935 468,935"/>
</g>
<g id="edge6" class="edge"><title>emailaddress&#45;&gt;person</title>
<path style="fill:none;stroke:black;" d="M560,391C561,429 562,492 564,555"/>
<polygon style="fill:black;stroke:black;" points="568,555 564,565 561,555 568,555"/>
</g>
<g id="node5" class="node"><title>gpgkey</title>
<polygon style="fill:#c1cdcc;stroke:#c1cdcc;" points="987,896 987,782 1147,782 1147,896 987,896"/>
<polygon style="fill:white;stroke:white;" points="990,797 990,785 1144,785 1144,797 990,797"/>
<text text-anchor="middle" style="font-size:6.00;" x="1067" y="793">gpgkey</text>
<polygon style="fill:none;stroke:black;" points="990,797 990,785 1144,785 1144,797 990,797"/>
<text text-anchor="middle" style="font-size:6.00;" x="995" y="806">id</text>
<text text-anchor="middle" style="font-size:6.00;" x="1038" y="806">serial</text>
<text text-anchor="middle" style="font-size:6.00;" x="1093" y="806"> UNIQUE PRIMARY KEY </text>
<text text-anchor="middle" style="font-size:6.00;" x="1001" y="818">owner</text>
<text text-anchor="middle" style="font-size:6.00;" x="1040" y="818">integer</text>
<text text-anchor="middle" style="font-size:6.00;" x="1100" y="818"> REFERENCES person UNIQUE </text>
<text text-anchor="middle" style="font-size:6.00;" x="1000" y="830">keyid</text>
<text text-anchor="middle" style="font-size:6.00;" x="1037" y="830">text</text>
<text text-anchor="middle" style="font-size:6.00;" x="1006" y="842">fingerprint</text>
<text text-anchor="middle" style="font-size:6.00;" x="1037" y="842">text</text>
<text text-anchor="middle" style="font-size:6.00;" x="1072" y="842"> UNIQUE </text>
<text text-anchor="middle" style="font-size:6.00;" x="1000" y="854">active</text>
<text text-anchor="middle" style="font-size:6.00;" x="1042" y="854">boolean</text>
<text text-anchor="middle" style="font-size:6.00;" x="1005" y="866">algorithm</text>
<text text-anchor="middle" style="font-size:6.00;" x="1040" y="866">integer</text>
<text text-anchor="middle" style="font-size:6.00;" x="1002" y="878">keysize</text>
<text text-anchor="middle" style="font-size:6.00;" x="1040" y="878">integer</text>
<text text-anchor="middle" style="font-size:6.00;" x="1008" y="890">can_encrypt</text>
<text text-anchor="middle" style="font-size:6.00;" x="1042" y="890">boolean</text>
<polygon style="fill:none;stroke:black;" points="987,896 987,782 1147,782 1147,896 987,896"/>
</g>
<g id="edge8" class="edge"><title>gpgkey&#45;&gt;person</title>
<path style="fill:none;stroke:black;" d="M979,824C898,810 777,789 688,773"/>
<polygon style="fill:black;stroke:black;" points="687,776 678,771 688,770 687,776"/>
</g>
<g id="node6" class="node"><title>ircid</title>
<polygon style="fill:#c1cdcc;stroke:#c1cdcc;" points="37,703 37,637 163,637 163,703 37,703"/>
<polygon style="fill:white;stroke:white;" points="40,652 40,640 160,640 160,652 40,652"/>
<text text-anchor="middle" style="font-size:6.00;" x="100" y="648">ircid</text>
<polygon style="fill:none;stroke:black;" points="40,652 40,640 160,640 160,652 40,652"/>
<text text-anchor="middle" style="font-size:6.00;" x="45" y="661">id</text>
<text text-anchor="middle" style="font-size:6.00;" x="81" y="661">serial</text>
<text text-anchor="middle" style="font-size:6.00;" x="121" y="661"> PRIMARY KEY </text>
<text text-anchor="middle" style="font-size:6.00;" x="51" y="673">person</text>
<text text-anchor="middle" style="font-size:6.00;" x="83" y="673">integer</text>
<text text-anchor="middle" style="font-size:6.00;" x="128" y="673"> REFERENCES person </text>
<text text-anchor="middle" style="font-size:6.00;" x="53" y="685">network</text>
<text text-anchor="middle" style="font-size:6.00;" x="80" y="685">text</text>
<text text-anchor="middle" style="font-size:6.00;" x="55" y="697">nickname</text>
<text text-anchor="middle" style="font-size:6.00;" x="80" y="697">text</text>
<polygon style="fill:none;stroke:black;" points="37,703 37,637 163,637 163,703 37,703"/>
</g>
<g id="edge10" class="edge"><title>ircid&#45;&gt;person</title>
<path style="fill:none;stroke:black;" d="M171,682C245,695 362,715 450,731"/>
<polygon style="fill:black;stroke:black;" points="451,728 460,733 450,734 451,728"/>
</g>
<g id="node7" class="node"><title>jabberid</title>
<polygon style="fill:#c1cdcc;stroke:#c1cdcc;" points="167,1101 167,1047 289,1047 289,1101 167,1101"/>
<polygon style="fill:white;stroke:white;" points="170,1062 170,1050 286,1050 286,1062 170,1062"/>
<text text-anchor="middle" style="font-size:6.00;" x="228" y="1058">jabberid</text>
<polygon style="fill:none;stroke:black;" points="170,1062 170,1050 286,1050 286,1062 170,1062"/>
<text text-anchor="middle" style="font-size:6.00;" x="175" y="1071">id</text>
<text text-anchor="middle" style="font-size:6.00;" x="207" y="1071">serial</text>
<text text-anchor="middle" style="font-size:6.00;" x="247" y="1071"> PRIMARY KEY </text>
<text text-anchor="middle" style="font-size:6.00;" x="181" y="1083">person</text>
<text text-anchor="middle" style="font-size:6.00;" x="209" y="1083">integer</text>
<text text-anchor="middle" style="font-size:6.00;" x="254" y="1083"> REFERENCES person </text>
<text text-anchor="middle" style="font-size:6.00;" x="183" y="1095">jabberid</text>
<text text-anchor="middle" style="font-size:6.00;" x="206" y="1095">text</text>
<text text-anchor="middle" style="font-size:6.00;" x="238" y="1095"> UNIQUE </text>
<polygon style="fill:none;stroke:black;" points="167,1101 167,1047 289,1047 289,1101 167,1101"/>
</g>
<g id="edge12" class="edge"><title>jabberid&#45;&gt;person</title>
<path style="fill:none;stroke:black;" d="M261,1043C305,1002 385,926 453,862"/>
<polygon style="fill:black;stroke:black;" points="450,860 460,855 455,865 450,860"/>
</g>
<g id="node8" class="node"><title>karma</title>
<polygon style="fill:#c1cdcc;stroke:#c1cdcc;" points="620,1359 620,1293 772,1293 772,1359 620,1359"/>
<polygon style="fill:white;stroke:white;" points="623,1308 623,1296 769,1296 769,1308 623,1308"/>
<text text-anchor="middle" style="font-size:6.00;" x="696" y="1304">karma</text>
<polygon style="fill:none;stroke:black;" points="623,1308 623,1296 769,1296 769,1308 623,1308"/>
<text text-anchor="middle" style="font-size:6.00;" x="628" y="1317">id</text>
<text text-anchor="middle" style="font-size:6.00;" x="667" y="1317">serial</text>
<text text-anchor="middle" style="font-size:6.00;" x="716" y="1317"> PRIMARY KEY </text>
<text text-anchor="middle" style="font-size:6.00;" x="640" y="1329">datecreated</text>
<text text-anchor="middle" style="font-size:6.00;" x="674" y="1329">timestamp</text>
<text text-anchor="middle" style="font-size:6.00;" x="634" y="1341">person</text>
<text text-anchor="middle" style="font-size:6.00;" x="669" y="1341">integer</text>
<text text-anchor="middle" style="font-size:6.00;" x="723" y="1341"> REFERENCES person </text>
<text text-anchor="middle" style="font-size:6.00;" x="634" y="1353">action</text>
<text text-anchor="middle" style="font-size:6.00;" x="669" y="1353">integer</text>
<text text-anchor="middle" style="font-size:6.00;" x="730" y="1353"> REFERENCES karmaaction </text>
<polygon style="fill:none;stroke:black;" points="620,1359 620,1293 772,1293 772,1359 620,1359"/>
</g>
<g id="node9" class="node"><title>karmaaction</title>
<polygon style="fill:#c1cdcc;stroke:#c1cdcc;" points="705,1742 705,1652 849,1652 849,1742 705,1742"/>
<polygon style="fill:white;stroke:white;" points="708,1667 708,1655 846,1655 846,1667 708,1667"/>
<text text-anchor="middle" style="font-size:6.00;" x="777" y="1663">karmaaction</text>
<polygon style="fill:none;stroke:black;" points="708,1667 708,1655 846,1655 846,1667 708,1667"/>
<text text-anchor="middle" style="font-size:6.00;" x="713" y="1676">id</text>
<text text-anchor="middle" style="font-size:6.00;" x="747" y="1676">serial</text>
<text text-anchor="middle" style="font-size:6.00;" x="787" y="1676"> PRIMARY KEY </text>
<text text-anchor="middle" style="font-size:6.00;" x="722" y="1688">category</text>
<text text-anchor="middle" style="font-size:6.00;" x="749" y="1688">integer</text>
<text text-anchor="middle" style="font-size:6.00;" x="804" y="1688"> REFERENCES karmacategory </text>
<text text-anchor="middle" style="font-size:6.00;" x="719" y="1700">points</text>
<text text-anchor="middle" style="font-size:6.00;" x="749" y="1700">integer</text>
<text text-anchor="middle" style="font-size:6.00;" x="718" y="1712">name</text>
<text text-anchor="middle" style="font-size:6.00;" x="746" y="1712">text</text>
<text text-anchor="middle" style="font-size:6.00;" x="778" y="1712"> UNIQUE </text>
<text text-anchor="middle" style="font-size:6.00;" x="716" y="1724">title</text>
<text text-anchor="middle" style="font-size:6.00;" x="746" y="1724">text</text>
<text text-anchor="middle" style="font-size:6.00;" x="722" y="1736">summary</text>
<text text-anchor="middle" style="font-size:6.00;" x="746" y="1736">text</text>
<polygon style="fill:none;stroke:black;" points="705,1742 705,1652 849,1652 849,1742 705,1742"/>
</g>
<g id="edge16" class="edge"><title>karma&#45;&gt;karmaaction</title>
<path style="fill:none;stroke:black;" d="M704,1363C718,1427 747,1560 764,1638"/>
<polygon style="fill:black;stroke:black;" points="767,1638 766,1648 761,1639 767,1638"/>
</g>
<g id="edge14" class="edge"><title>karma&#45;&gt;person</title>
<path style="fill:none;stroke:black;" d="M688,1289C673,1221 640,1073 613,949"/>
<polygon style="fill:black;stroke:black;" points="610,949 611,939 616,948 610,949"/>
</g>
<g id="node11" class="node"><title>karmacategory</title>
<polygon style="fill:#c1cdcc;stroke:#c1cdcc;" points="787,2013 787,1947 891,1947 891,2013 787,2013"/>
<polygon style="fill:white;stroke:white;" points="790,1962 790,1950 888,1950 888,1962 790,1962"/>
<text text-anchor="middle" style="font-size:6.00;" x="839" y="1958">karmacategory</text>
<polygon style="fill:none;stroke:black;" points="790,1962 790,1950 888,1950 888,1962 790,1962"/>
<text text-anchor="middle" style="font-size:6.00;" x="795" y="1971">id</text>
<text text-anchor="middle" style="font-size:6.00;" x="828" y="1971">serial</text>
<text text-anchor="middle" style="font-size:6.00;" x="864" y="1971"> PRIMARY KEY </text>
<text text-anchor="middle" style="font-size:6.00;" x="800" y="1983">name</text>
<text text-anchor="middle" style="font-size:6.00;" x="827" y="1983">text</text>
<text text-anchor="middle" style="font-size:6.00;" x="798" y="1995">title</text>
<text text-anchor="middle" style="font-size:6.00;" x="827" y="1995">text</text>
<text text-anchor="middle" style="font-size:6.00;" x="804" y="2007">summary</text>
<text text-anchor="middle" style="font-size:6.00;" x="827" y="2007">text</text>
<polygon style="fill:none;stroke:black;" points="787,2013 787,1947 891,1947 891,2013 787,2013"/>
</g>
<g id="edge18" class="edge"><title>karmaaction&#45;&gt;karmacategory</title>
<path style="fill:none;stroke:black;" d="M788,1746C799,1798 818,1881 829,1933"/>
<polygon style="fill:black;stroke:black;" points="832,1933 831,1943 826,1934 832,1933"/>
</g>
<g id="node10" class="node"><title>karmacache</title>
<polygon style="fill:#c1cdcc;stroke:#c1cdcc;" points="798,1139 798,1073 952,1073 952,1139 798,1139"/>
<polygon style="fill:white;stroke:white;" points="801,1088 801,1076 949,1076 949,1088 801,1088"/>
<text text-anchor="middle" style="font-size:6.00;" x="875" y="1084">karmacache</text>
<polygon style="fill:none;stroke:black;" points="801,1088 801,1076 949,1076 949,1088 801,1088"/>
<text text-anchor="middle" style="font-size:6.00;" x="806" y="1097">id</text>
<text text-anchor="middle" style="font-size:6.00;" x="846" y="1097">serial</text>
<text text-anchor="middle" style="font-size:6.00;" x="886" y="1097"> PRIMARY KEY </text>
<text text-anchor="middle" style="font-size:6.00;" x="812" y="1109">person</text>
<text text-anchor="middle" style="font-size:6.00;" x="848" y="1109">integer</text>
<text text-anchor="middle" style="font-size:6.00;" x="905" y="1109"> UNIQUE REFERENCES person </text>
<text text-anchor="middle" style="font-size:6.00;" x="815" y="1121">category</text>
<text text-anchor="middle" style="font-size:6.00;" x="848" y="1121">integer</text>
<text text-anchor="middle" style="font-size:6.00;" x="877" y="1121"> UNIQUE </text>
<text text-anchor="middle" style="font-size:6.00;" x="818" y="1133">karmavalue</text>
<text text-anchor="middle" style="font-size:6.00;" x="848" y="1133">integer</text>
<polygon style="fill:none;stroke:black;" points="798,1139 798,1073 952,1073 952,1139 798,1139"/>
</g>
<g id="edge20" class="edge"><title>karmacache&#45;&gt;person</title>
<path style="fill:none;stroke:black;" d="M843,1069C805,1026 741,952 684,886"/>
<polygon style="fill:black;stroke:black;" points="681,888 678,878 687,884 681,888"/>
</g>
<g id="node12" class="node"><title>language</title>
<polygon style="fill:#c1cdcc;stroke:#c1cdcc;" points="337,332 337,218 467,218 467,332 337,332"/>
<polygon style="fill:white;stroke:white;" points="340,233 340,221 464,221 464,233 340,233"/>
<text text-anchor="middle" style="font-size:6.00;" x="402" y="229">language</text>
<polygon style="fill:none;stroke:black;" points="340,233 340,221 464,221 464,233 340,233"/>
<text text-anchor="middle" style="font-size:6.00;" x="345" y="242">id</text>
<text text-anchor="middle" style="font-size:6.00;" x="397" y="242">serial</text>
<text text-anchor="middle" style="font-size:6.00;" x="440" y="242"> PRIMARY KEY </text>
<text text-anchor="middle" style="font-size:6.00;" x="349" y="254">code</text>
<text text-anchor="middle" style="font-size:6.00;" x="396" y="254">text</text>
<text text-anchor="middle" style="font-size:6.00;" x="431" y="254"> UNIQUE </text>
<text text-anchor="middle" style="font-size:6.00;" x="358" y="266">englishname</text>
<text text-anchor="middle" style="font-size:6.00;" x="396" y="266">text</text>
<text text-anchor="middle" style="font-size:6.00;" x="357" y="278">nativename</text>
<text text-anchor="middle" style="font-size:6.00;" x="396" y="278">text</text>
<text text-anchor="middle" style="font-size:6.00;" x="357" y="290">pluralforms</text>
<text text-anchor="middle" style="font-size:6.00;" x="399" y="290">integer</text>
<text text-anchor="middle" style="font-size:6.00;" x="363" y="302">pluralexpression</text>
<text text-anchor="middle" style="font-size:6.00;" x="396" y="302">text</text>
<text text-anchor="middle" style="font-size:6.00;" x="351" y="314">visible</text>
<text text-anchor="middle" style="font-size:6.00;" x="401" y="314">boolean</text>
<text text-anchor="middle" style="font-size:6.00;" x="354" y="326">direction</text>
<text text-anchor="middle" style="font-size:6.00;" x="399" y="326">integer</text>
<polygon style="fill:none;stroke:black;" points="337,332 337,218 467,218 467,332 337,332"/>
</g>
<g id="node13" class="node"><title>logintoken</title>
<polygon style="fill:#c1cdcc;stroke:#c1cdcc;" points="921,544 921,430 1067,430 1067,544 921,544"/>
<polygon style="fill:white;stroke:white;" points="924,445 924,433 1064,433 1064,445 924,445"/>
<text text-anchor="middle" style="font-size:6.00;" x="994" y="441">logintoken</text>
<polygon style="fill:none;stroke:black;" points="924,445 924,433 1064,433 1064,445 924,445"/>
<text text-anchor="middle" style="font-size:6.00;" x="929" y="454">id</text>
<text text-anchor="middle" style="font-size:6.00;" x="976" y="454">serial</text>
<text text-anchor="middle" style="font-size:6.00;" x="938" y="466">requester</text>
<text text-anchor="middle" style="font-size:6.00;" x="978" y="466">integer</text>
<text text-anchor="middle" style="font-size:6.00;" x="1032" y="466"> REFERENCES person </text>
<text text-anchor="middle" style="font-size:6.00;" x="945" y="478">requesteremail</text>
<text text-anchor="middle" style="font-size:6.00;" x="975" y="478">text</text>
<text text-anchor="middle" style="font-size:6.00;" x="934" y="490">email</text>
<text text-anchor="middle" style="font-size:6.00;" x="975" y="490">text</text>
<text text-anchor="middle" style="font-size:6.00;" x="936" y="502">created</text>
<text text-anchor="middle" style="font-size:6.00;" x="983" y="502">timestamp</text>
<text text-anchor="middle" style="font-size:6.00;" x="939" y="514">tokentype</text>
<text text-anchor="middle" style="font-size:6.00;" x="978" y="514">integer</text>
<text text-anchor="middle" style="font-size:6.00;" x="934" y="526">token</text>
<text text-anchor="middle" style="font-size:6.00;" x="975" y="526">text</text>
<text text-anchor="middle" style="font-size:6.00;" x="1016" y="526"> UNIQUE </text>
<text text-anchor="middle" style="font-size:6.00;" x="940" y="538">fingerprint</text>
<text text-anchor="middle" style="font-size:6.00;" x="975" y="538">text</text>
<polygon style="fill:none;stroke:black;" points="921,544 921,430 1067,430 1067,544 921,544"/>
</g>
<g id="edge22" class="edge"><title>logintoken&#45;&gt;person</title>
<path style="fill:none;stroke:black;" d="M913,538C849,578 758,633 687,679"/>
<polygon style="fill:black;stroke:black;" points="688,682 678,684 685,676 688,682"/>
</g>
<g id="edge30" class="edge"><title>person&#45;&gt;calendar</title>
<path style="fill:none;stroke:black;" d="M678,598C741,510 814,406 853,351"/>
<polygon style="fill:black;stroke:black;" points="851,348 859,342 856,352 851,348"/>
</g>
<g id="edge32" class="edge"><title>person&#45;&gt;country</title>
<path style="fill:none;stroke:black;" d="M490,939C461,1009 430,1083 409,1133"/>
<polygon style="fill:black;stroke:black;" points="412,1134 405,1142 406,1131 412,1134"/>
</g>
<g id="edge26" class="edge"><title>person&#45;&gt;language</title>
<path style="fill:none;stroke:black;" d="M503,565C476,487 447,403 426,345"/>
<polygon style="fill:black;stroke:black;" points="423,347 423,336 429,344 423,347"/>
</g>
<g id="edge24" class="edge"><title>person&#45;&gt;person</title>
<path style="fill:none;stroke:black;" d="M678,809C689,797 696,779 696,752 696,730 692,715 684,703"/>
<polygon style="fill:black;stroke:black;" points="681,705 678,695 687,701 681,705"/>
</g>
<g id="edge28" class="edge"><title>person&#45;&gt;person</title>
<path style="fill:none;stroke:black;" d="M678,885C699,869 714,825 714,752 714,688 702,646 685,626"/>
<polygon style="fill:black;stroke:black;" points="683,629 678,619 688,624 683,629"/>
</g>
<g id="node37" class="node"><title>fake_libraryfilealias_177</title>
<ellipse cx="604" cy="1109" rx="29" ry="18" style="fill:none;stroke:red;"/>
<text text-anchor="middle" style="font-size:6.00;" x="604" y="1111">libraryfilealias</text>
</g>
<g id="edge34" class="edge"><title>person&#45;&gt;fake_libraryfilealias_177</title>
<path style="fill:none;stroke:black;" d="M587,939C592,994 598,1049 601,1081"/>
<polygon style="fill:black;stroke:black;" points="604,1081 602,1091 598,1081 604,1081"/>
</g>
<g id="node39" class="node"><title>fake_libraryfilealias_179</title>
<ellipse cx="244" cy="897" rx="29" ry="18" style="fill:none;stroke:red;"/>
<text text-anchor="middle" style="font-size:6.00;" x="244" y="899">libraryfilealias</text>
</g>
<g id="edge36" class="edge"><title>person&#45;&gt;fake_libraryfilealias_179</title>
<path style="fill:none;stroke:black;" d="M460,801C396,830 320,864 277,882"/>
<polygon style="fill:black;stroke:black;" points="279,885 268,886 276,879 279,885"/>
</g>
<g id="node15" class="node"><title>personlanguage</title>
<polygon style="fill:#c1cdcc;stroke:#c1cdcc;" points="556,273 556,219 710,219 710,273 556,273"/>
<polygon style="fill:white;stroke:white;" points="559,234 559,222 707,222 707,234 559,234"/>
<text text-anchor="middle" style="font-size:6.00;" x="633" y="230">personlanguage</text>
<polygon style="fill:none;stroke:black;" points="559,234 559,222 707,222 707,234 559,234"/>
<text text-anchor="middle" style="font-size:6.00;" x="564" y="243">id</text>
<text text-anchor="middle" style="font-size:6.00;" x="598" y="243">serial</text>
<text text-anchor="middle" style="font-size:6.00;" x="638" y="243"> PRIMARY KEY </text>
<text text-anchor="middle" style="font-size:6.00;" x="570" y="255">person</text>
<text text-anchor="middle" style="font-size:6.00;" x="600" y="255">integer</text>
<text text-anchor="middle" style="font-size:6.00;" x="657" y="255"> REFERENCES person UNIQUE </text>
<text text-anchor="middle" style="font-size:6.00;" x="573" y="267">language</text>
<text text-anchor="middle" style="font-size:6.00;" x="600" y="267">integer</text>
<text text-anchor="middle" style="font-size:6.00;" x="660" y="267"> REFERENCES language UNIQUE </text>
<polygon style="fill:none;stroke:black;" points="556,273 556,219 710,219 710,273 556,273"/>
</g>
<g id="edge40" class="edge"><title>personlanguage&#45;&gt;language</title>
<path style="fill:none;stroke:black;" d="M548,257C527,260 505,262 485,265"/>
<polygon style="fill:black;stroke:black;" points="485,268 475,266 485,262 485,268"/>
</g>
<g id="edge38" class="edge"><title>personlanguage&#45;&gt;person</title>
<path style="fill:none;stroke:black;" d="M629,277C622,332 607,450 594,555"/>
<polygon style="fill:black;stroke:black;" points="597,555 593,565 591,555 597,555"/>
</g>
<g id="node16" class="node"><title>signedcodeofconduct</title>
<polygon style="fill:#c1cdcc;stroke:#c1cdcc;" points="950,1047 950,933 1158,933 1158,1047 950,1047"/>
<polygon style="fill:white;stroke:white;" points="953,948 953,936 1155,936 1155,948 953,948"/>
<text text-anchor="middle" style="font-size:6.00;" x="1054" y="944">signedcodeofconduct</text>
<polygon style="fill:none;stroke:black;" points="953,948 953,936 1155,936 1155,948 953,948"/>
<text text-anchor="middle" style="font-size:6.00;" x="958" y="957">id</text>
<text text-anchor="middle" style="font-size:6.00;" x="1008" y="957">serial</text>
<text text-anchor="middle" style="font-size:6.00;" x="964" y="969">owner</text>
<text text-anchor="middle" style="font-size:6.00;" x="1010" y="969">integer</text>
<text text-anchor="middle" style="font-size:6.00;" x="1094" y="969"> REFERENCES person REFERENCES gpgkey </text>
<text text-anchor="middle" style="font-size:6.00;" x="969" y="981">signingkey</text>
<text text-anchor="middle" style="font-size:6.00;" x="1010" y="981">integer</text>
<text text-anchor="middle" style="font-size:6.00;" x="1065" y="981"> REFERENCES gpgkey </text>
<text text-anchor="middle" style="font-size:6.00;" x="970" y="993">datecreated</text>
<text text-anchor="middle" style="font-size:6.00;" x="1015" y="993">timestamp</text>
<text text-anchor="middle" style="font-size:6.00;" x="969" y="1005">signedcode</text>
<text text-anchor="middle" style="font-size:6.00;" x="1007" y="1005">text</text>
<text text-anchor="middle" style="font-size:6.00;" x="967" y="1017">recipient</text>
<text text-anchor="middle" style="font-size:6.00;" x="1010" y="1017">integer</text>
<text text-anchor="middle" style="font-size:6.00;" x="963" y="1029">active</text>
<text text-anchor="middle" style="font-size:6.00;" x="1012" y="1029">boolean</text>
<text text-anchor="middle" style="font-size:6.00;" x="975" y="1041">admincomment</text>
<text text-anchor="middle" style="font-size:6.00;" x="1007" y="1041">text</text>
<polygon style="fill:none;stroke:black;" points="950,1047 950,933 1158,933 1158,1047 950,1047"/>
</g>
<g id="edge44" class="edge"><title>signedcodeofconduct&#45;&gt;gpgkey</title>
<path style="fill:none;stroke:black;" d="M1059,929C1060,922 1060,916 1061,910"/>
<polygon style="fill:black;stroke:black;" points="1058,910 1062,900 1064,910 1058,910"/>
</g>
<g id="edge42" class="edge"><title>signedcodeofconduct&#45;&gt;person</title>
<path style="fill:none;stroke:black;" d="M942,935C866,898 765,848 687,811"/>
<polygon style="fill:black;stroke:black;" points="685,814 678,806 688,808 685,814"/>
</g>
<g id="node17" class="node"><title>sshkey</title>
<polygon style="fill:#c1cdcc;stroke:#c1cdcc;" points="962,700 962,622 1086,622 1086,700 962,700"/>
<polygon style="fill:white;stroke:white;" points="965,637 965,625 1083,625 1083,637 965,637"/>
<text text-anchor="middle" style="font-size:6.00;" x="1024" y="633">sshkey</text>
<polygon style="fill:none;stroke:black;" points="965,637 965,625 1083,625 1083,637 965,637"/>
<text text-anchor="middle" style="font-size:6.00;" x="970" y="646">id</text>
<text text-anchor="middle" style="font-size:6.00;" x="1004" y="646">serial</text>
<text text-anchor="middle" style="font-size:6.00;" x="1044" y="646"> PRIMARY KEY </text>
<text text-anchor="middle" style="font-size:6.00;" x="976" y="658">person</text>
<text text-anchor="middle" style="font-size:6.00;" x="1006" y="658">integer</text>
<text text-anchor="middle" style="font-size:6.00;" x="1051" y="658"> REFERENCES person </text>
<text text-anchor="middle" style="font-size:6.00;" x="978" y="670">keytype</text>
<text text-anchor="middle" style="font-size:6.00;" x="1006" y="670">integer</text>
<text text-anchor="middle" style="font-size:6.00;" x="977" y="682">keytext</text>
<text text-anchor="middle" style="font-size:6.00;" x="1003" y="682">text</text>
<text text-anchor="middle" style="font-size:6.00;" x="979" y="694">comment</text>
<text text-anchor="middle" style="font-size:6.00;" x="1003" y="694">text</text>
<polygon style="fill:none;stroke:black;" points="962,700 962,622 1086,622 1086,700 962,700"/>
</g>
<g id="edge46" class="edge"><title>sshkey&#45;&gt;person</title>
<path style="fill:none;stroke:black;" d="M954,675C883,689 773,711 688,728"/>
<polygon style="fill:black;stroke:black;" points="688,731 678,730 687,725 688,731"/>
</g>
<g id="node18" class="node"><title>teammembership</title>
<polygon style="fill:#c1cdcc;stroke:#c1cdcc;" points="118,411 118,297 296,297 296,411 118,411"/>
<polygon style="fill:white;stroke:white;" points="121,312 121,300 293,300 293,312 121,312"/>
<text text-anchor="middle" style="font-size:6.00;" x="207" y="308">teammembership</text>
<polygon style="fill:none;stroke:black;" points="121,312 121,300 293,300 293,312 121,312"/>
<text text-anchor="middle" style="font-size:6.00;" x="126" y="321">id</text>
<text text-anchor="middle" style="font-size:6.00;" x="181" y="321">serial</text>
<text text-anchor="middle" style="font-size:6.00;" x="230" y="321"> PRIMARY KEY </text>
<text text-anchor="middle" style="font-size:6.00;" x="132" y="333">person</text>
<text text-anchor="middle" style="font-size:6.00;" x="183" y="333">integer</text>
<text text-anchor="middle" style="font-size:6.00;" x="249" y="333"> REFERENCES person UNIQUE </text>
<text text-anchor="middle" style="font-size:6.00;" x="130" y="345">team</text>
<text text-anchor="middle" style="font-size:6.00;" x="183" y="345">integer</text>
<text text-anchor="middle" style="font-size:6.00;" x="249" y="345"> REFERENCES person UNIQUE </text>
<text text-anchor="middle" style="font-size:6.00;" x="131" y="357">status</text>
<text text-anchor="middle" style="font-size:6.00;" x="183" y="357">integer</text>
<text text-anchor="middle" style="font-size:6.00;" x="137" y="369">datejoined</text>
<text text-anchor="middle" style="font-size:6.00;" x="188" y="369">timestamp</text>
<text text-anchor="middle" style="font-size:6.00;" x="138" y="381">dateexpires</text>
<text text-anchor="middle" style="font-size:6.00;" x="188" y="381">timestamp</text>
<text text-anchor="middle" style="font-size:6.00;" x="134" y="393">reviewer</text>
<text text-anchor="middle" style="font-size:6.00;" x="183" y="393">integer</text>
<text text-anchor="middle" style="font-size:6.00;" x="237" y="393"> REFERENCES person </text>
<text text-anchor="middle" style="font-size:6.00;" x="145" y="405">reviewercomment</text>
<text text-anchor="middle" style="font-size:6.00;" x="180" y="405">text</text>
<polygon style="fill:none;stroke:black;" points="118,411 118,297 296,297 296,411 118,411"/>
</g>
<g id="edge48" class="edge"><title>teammembership&#45;&gt;person</title>
<path style="fill:none;stroke:black;" d="M277,415C327,466 395,539 453,605"/>
<polygon style="fill:black;stroke:black;" points="456,603 460,613 451,608 456,603"/>
</g>
<g id="edge50" class="edge"><title>teammembership&#45;&gt;person</title>
<path style="fill:none;stroke:black;" d="M250,415C299,475 383,569 453,642"/>
<polygon style="fill:black;stroke:black;" points="456,640 460,650 451,645 456,640"/>
</g>
<g id="edge52" class="edge"><title>teammembership&#45;&gt;person</title>
<path style="fill:none;stroke:black;" d="M263,415C313,471 389,555 453,624"/>
<polygon style="fill:black;stroke:black;" points="456,622 460,632 451,627 456,622"/>
</g>
<g id="node19" class="node"><title>teamparticipation</title>
<polygon style="fill:#c1cdcc;stroke:#c1cdcc;" points="14,883 14,829 156,829 156,883 14,883"/>
<polygon style="fill:white;stroke:white;" points="17,844 17,832 153,832 153,844 17,844"/>
<text text-anchor="middle" style="font-size:6.00;" x="85" y="840">teamparticipation</text>
<polygon style="fill:none;stroke:black;" points="17,844 17,832 153,832 153,844 17,844"/>
<text text-anchor="middle" style="font-size:6.00;" x="22" y="853">id</text>
<text text-anchor="middle" style="font-size:6.00;" x="50" y="853">serial</text>
<text text-anchor="middle" style="font-size:6.00;" x="90" y="853"> PRIMARY KEY </text>
<text text-anchor="middle" style="font-size:6.00;" x="26" y="865">team</text>
<text text-anchor="middle" style="font-size:6.00;" x="52" y="865">integer</text>
<text text-anchor="middle" style="font-size:6.00;" x="109" y="865"> REFERENCES person UNIQUE </text>
<text text-anchor="middle" style="font-size:6.00;" x="28" y="877">person</text>
<text text-anchor="middle" style="font-size:6.00;" x="52" y="877">integer</text>
<text text-anchor="middle" style="font-size:6.00;" x="109" y="877"> REFERENCES person UNIQUE </text>
<polygon style="fill:none;stroke:black;" points="14,883 14,829 156,829 156,883 14,883"/>
</g>
<g id="edge54" class="edge"><title>teamparticipation&#45;&gt;person</title>
<path style="fill:none;stroke:black;" d="M164,834C242,816 361,790 450,772"/>
<polygon style="fill:black;stroke:black;" points="450,769 460,770 451,775 450,769"/>
</g>
<g id="edge56" class="edge"><title>teamparticipation&#45;&gt;person</title>
<path style="fill:none;stroke:black;" d="M164,844C242,830 361,804 450,784"/>
<polygon style="fill:black;stroke:black;" points="450,781 460,782 451,787 450,781"/>
</g>
<g id="node20" class="node"><title>wikiname</title>
<polygon style="fill:#c1cdcc;stroke:#c1cdcc;" points="106,552 106,486 232,486 232,552 106,552"/>
<polygon style="fill:white;stroke:white;" points="109,501 109,489 229,489 229,501 109,501"/>
<text text-anchor="middle" style="font-size:6.00;" x="169" y="497">wikiname</text>
<polygon style="fill:none;stroke:black;" points="109,501 109,489 229,489 229,501 109,501"/>
<text text-anchor="middle" style="font-size:6.00;" x="114" y="510">id</text>
<text text-anchor="middle" style="font-size:6.00;" x="150" y="510">serial</text>
<text text-anchor="middle" style="font-size:6.00;" x="190" y="510"> PRIMARY KEY </text>
<text text-anchor="middle" style="font-size:6.00;" x="120" y="522">person</text>
<text text-anchor="middle" style="font-size:6.00;" x="152" y="522">integer</text>
<text text-anchor="middle" style="font-size:6.00;" x="197" y="522"> REFERENCES person </text>
<text text-anchor="middle" style="font-size:6.00;" x="117" y="534">wiki</text>
<text text-anchor="middle" style="font-size:6.00;" x="149" y="534">text</text>
<text text-anchor="middle" style="font-size:6.00;" x="181" y="534"> UNIQUE </text>
<text text-anchor="middle" style="font-size:6.00;" x="124" y="546">wikiname</text>
<text text-anchor="middle" style="font-size:6.00;" x="149" y="546">text</text>
<text text-anchor="middle" style="font-size:6.00;" x="181" y="546"> UNIQUE </text>
<polygon style="fill:none;stroke:black;" points="106,552 106,486 232,486 232,552 106,552"/>
</g>
<g id="edge58" class="edge"><title>wikiname&#45;&gt;person</title>
<path style="fill:none;stroke:black;" d="M233,556C291,591 379,642 451,683"/>
<polygon style="fill:black;stroke:black;" points="453,680 460,688 450,686 453,680"/>
</g>
</g>
</svg>
