<?xml version="1.0" encoding="UTF-8" standalone="no"?>
<!DOCTYPE svg PUBLIC "-//W3C//DTD SVG 1.0//EN"
 "http://www.w3.org/TR/2001/REC-SVG-20010904/DTD/svg10.dtd">
<!-- Generated by fdp version 2.2 (Sat Feb  5 01:37:52 UTC 2005)
     For user: (stub) Stuart Bishop,,,   Title: g    Pages: 1 -->
<svg width="586px" height="535px"
 viewBox = "-1 -1 585 534"
 xmlns="http://www.w3.org/2000/svg">
<g id="graph0" class="graph" transform = "scale(0.641718)"
 style="font-family:Times-Roman;font-size:14.00;">
<title>g</title>
<text text-anchor="middle" style="font-size:22.00;" x="452" y="814">Foaf</text>
<g id="node1" class="node"><title>emailaddress</title>
<polygon style="fill:#c1cdcc;stroke:#c1cdcc;" points="95,611 95,545 213,545 213,611 95,611"/>
<polygon style="fill:white;stroke:white;" points="98,560 98,548 210,548 210,560 98,560"/>
<text text-anchor="middle" style="font-size:6.00;" x="154" y="556">emailaddress</text>
<polygon style="fill:none;stroke:black;" points="98,560 98,548 210,548 210,560 98,560"/>
<text text-anchor="middle" style="font-size:6.00;" x="103" y="569">id</text>
<text text-anchor="middle" style="font-size:6.00;" x="131" y="569">serial</text>
<text text-anchor="middle" style="font-size:6.00;" x="171" y="569"> PRIMARY KEY </text>
<text text-anchor="middle" style="font-size:6.00;" x="108" y="581">email</text>
<text text-anchor="middle" style="font-size:6.00;" x="130" y="581">text</text>
<text text-anchor="middle" style="font-size:6.00;" x="109" y="593">person</text>
<text text-anchor="middle" style="font-size:6.00;" x="133" y="593">integer</text>
<text text-anchor="middle" style="font-size:6.00;" x="178" y="593"> REFERENCES person </text>
<text text-anchor="middle" style="font-size:6.00;" x="108" y="605">status</text>
<text text-anchor="middle" style="font-size:6.00;" x="133" y="605">integer</text>
<polygon style="fill:none;stroke:black;" points="95,611 95,545 213,545 213,611 95,611"/>
</g>
<g id="node8" class="node"><title>person</title>
<polygon style="fill:#c1cdcc;stroke:#c1cdcc;" points="358,518 358,296 538,296 538,518 358,518"/>
<polygon style="fill:white;stroke:white;" points="361,311 361,299 535,299 535,311 361,311"/>
<text text-anchor="middle" style="font-size:6.00;" x="448" y="307">person</text>
<polygon style="fill:none;stroke:black;" points="361,311 361,299 535,299 535,311 361,311"/>
<text text-anchor="middle" style="font-size:6.00;" x="366" y="320">id</text>
<text text-anchor="middle" style="font-size:6.00;" x="441" y="320">serial</text>
<text text-anchor="middle" style="font-size:6.00;" x="490" y="320"> PRIMARY KEY </text>
<text text-anchor="middle" style="font-size:6.00;" x="379" y="332">displayname</text>
<text text-anchor="middle" style="font-size:6.00;" x="440" y="332">text</text>
<text text-anchor="middle" style="font-size:6.00;" x="377" y="344">givenname</text>
<text text-anchor="middle" style="font-size:6.00;" x="440" y="344">text</text>
<text text-anchor="middle" style="font-size:6.00;" x="378" y="356">familyname</text>
<text text-anchor="middle" style="font-size:6.00;" x="440" y="356">text</text>
<text text-anchor="middle" style="font-size:6.00;" x="376" y="368">password</text>
<text text-anchor="middle" style="font-size:6.00;" x="440" y="368">text</text>
<text text-anchor="middle" style="font-size:6.00;" x="377" y="380">teamowner</text>
<text text-anchor="middle" style="font-size:6.00;" x="443" y="380">integer</text>
<text text-anchor="middle" style="font-size:6.00;" x="497" y="380"> REFERENCES person </text>
<text text-anchor="middle" style="font-size:6.00;" x="383" y="392">teamdescription</text>
<text text-anchor="middle" style="font-size:6.00;" x="440" y="392">text</text>
<text text-anchor="middle" style="font-size:6.00;" x="372" y="404">karma</text>
<text text-anchor="middle" style="font-size:6.00;" x="443" y="404">integer</text>
<text text-anchor="middle" style="font-size:6.00;" x="384" y="416">karmatimestamp</text>
<text text-anchor="middle" style="font-size:6.00;" x="448" y="416">timestamp</text>
<text text-anchor="middle" style="font-size:6.00;" x="371" y="428">name</text>
<text text-anchor="middle" style="font-size:6.00;" x="440" y="428">text</text>
<text text-anchor="middle" style="font-size:6.00;" x="375" y="440">language</text>
<text text-anchor="middle" style="font-size:6.00;" x="443" y="440">integer</text>
<text text-anchor="middle" style="font-size:6.00;" x="500" y="440"> REFERENCES language </text>
<text text-anchor="middle" style="font-size:6.00;" x="367" y="452">fti</text>
<text text-anchor="middle" style="font-size:6.00;" x="445" y="452">tsvector</text>
<text text-anchor="middle" style="font-size:6.00;" x="395" y="464">defaultmembershipperiod</text>
<text text-anchor="middle" style="font-size:6.00;" x="443" y="464">integer</text>
<text text-anchor="middle" style="font-size:6.00;" x="390" y="476">defaultrenewalperiod</text>
<text text-anchor="middle" style="font-size:6.00;" x="443" y="476">integer</text>
<text text-anchor="middle" style="font-size:6.00;" x="386" y="488">subscriptionpolicy</text>
<text text-anchor="middle" style="font-size:6.00;" x="443" y="488">integer</text>
<text text-anchor="middle" style="font-size:6.00;" x="373" y="500">merged</text>
<text text-anchor="middle" style="font-size:6.00;" x="443" y="500">integer</text>
<text text-anchor="middle" style="font-size:6.00;" x="497" y="500"> REFERENCES person </text>
<text text-anchor="middle" style="font-size:6.00;" x="378" y="512">datecreated</text>
<text text-anchor="middle" style="font-size:6.00;" x="448" y="512">timestamp</text>
<polygon style="fill:none;stroke:black;" points="358,518 358,296 538,296 538,518 358,518"/>
</g>
<g id="edge2" class="edge"><title>emailaddress&#45;&gt;person</title>
<path style="fill:none;stroke:black;" d="M218,541C253,520 299,494 341,469"/>
<polygon style="fill:black;stroke:black;" points="340,466 350,464 343,472 340,466"/>
</g>
<g id="node2" class="node"><title>gpgkey</title>
<polygon style="fill:#c1cdcc;stroke:#c1cdcc;" points="729,546 729,444 885,444 885,546 729,546"/>
<polygon style="fill:white;stroke:white;" points="732,459 732,447 882,447 882,459 732,459"/>
<text text-anchor="middle" style="font-size:6.00;" x="807" y="455">gpgkey</text>
<polygon style="fill:none;stroke:black;" points="732,459 732,447 882,447 882,459 732,459"/>
<text text-anchor="middle" style="font-size:6.00;" x="737" y="468">id</text>
<text text-anchor="middle" style="font-size:6.00;" x="776" y="468">serial</text>
<text text-anchor="middle" style="font-size:6.00;" x="831" y="468"> UNIQUE PRIMARY KEY </text>
<text text-anchor="middle" style="font-size:6.00;" x="743" y="480">owner</text>
<text text-anchor="middle" style="font-size:6.00;" x="778" y="480">integer</text>
<text text-anchor="middle" style="font-size:6.00;" x="838" y="480"> REFERENCES person UNIQUE </text>
<text text-anchor="middle" style="font-size:6.00;" x="742" y="492">keyid</text>
<text text-anchor="middle" style="font-size:6.00;" x="775" y="492">text</text>
<text text-anchor="middle" style="font-size:6.00;" x="748" y="504">fingerprint</text>
<text text-anchor="middle" style="font-size:6.00;" x="775" y="504">text</text>
<text text-anchor="middle" style="font-size:6.00;" x="810" y="504"> UNIQUE </text>
<text text-anchor="middle" style="font-size:6.00;" x="745" y="516">revoked</text>
<text text-anchor="middle" style="font-size:6.00;" x="780" y="516">boolean</text>
<text text-anchor="middle" style="font-size:6.00;" x="747" y="528">algorithm</text>
<text text-anchor="middle" style="font-size:6.00;" x="778" y="528">integer</text>
<text text-anchor="middle" style="font-size:6.00;" x="744" y="540">keysize</text>
<text text-anchor="middle" style="font-size:6.00;" x="778" y="540">integer</text>
<polygon style="fill:none;stroke:black;" points="729,546 729,444 885,444 885,546 729,546"/>
</g>
<g id="edge4" class="edge"><title>gpgkey&#45;&gt;person</title>
<path style="fill:none;stroke:black;" d="M721,474C671,462 609,447 556,433"/>
<polygon style="fill:black;stroke:black;" points="555,436 546,431 556,430 555,436"/>
</g>
<g id="node3" class="node"><title>ircid</title>
<polygon style="fill:#c1cdcc;stroke:#c1cdcc;" points="358,785 358,719 484,719 484,785 358,785"/>
<polygon style="fill:white;stroke:white;" points="361,734 361,722 481,722 481,734 361,734"/>
<text text-anchor="middle" style="font-size:6.00;" x="421" y="730">ircid</text>
<polygon style="fill:none;stroke:black;" points="361,734 361,722 481,722 481,734 361,734"/>
<text text-anchor="middle" style="font-size:6.00;" x="366" y="743">id</text>
<text text-anchor="middle" style="font-size:6.00;" x="402" y="743">serial</text>
<text text-anchor="middle" style="font-size:6.00;" x="442" y="743"> PRIMARY KEY </text>
<text text-anchor="middle" style="font-size:6.00;" x="372" y="755">person</text>
<text text-anchor="middle" style="font-size:6.00;" x="404" y="755">integer</text>
<text text-anchor="middle" style="font-size:6.00;" x="449" y="755"> REFERENCES person </text>
<text text-anchor="middle" style="font-size:6.00;" x="374" y="767">network</text>
<text text-anchor="middle" style="font-size:6.00;" x="401" y="767">text</text>
<text text-anchor="middle" style="font-size:6.00;" x="376" y="779">nickname</text>
<text text-anchor="middle" style="font-size:6.00;" x="401" y="779">text</text>
<polygon style="fill:none;stroke:black;" points="358,785 358,719 484,719 484,785 358,785"/>
</g>
<g id="edge6" class="edge"><title>ircid&#45;&gt;person</title>
<path style="fill:none;stroke:black;" d="M424,715C428,671 433,597 438,532"/>
<polygon style="fill:black;stroke:black;" points="435,532 439,522 441,532 435,532"/>
</g>
<g id="node4" class="node"><title>jabberid</title>
<polygon style="fill:#c1cdcc;stroke:#c1cdcc;" points="633,197 633,143 755,143 755,197 633,197"/>
<polygon style="fill:white;stroke:white;" points="636,158 636,146 752,146 752,158 636,158"/>
<text text-anchor="middle" style="font-size:6.00;" x="694" y="154">jabberid</text>
<polygon style="fill:none;stroke:black;" points="636,158 636,146 752,146 752,158 636,158"/>
<text text-anchor="middle" style="font-size:6.00;" x="641" y="167">id</text>
<text text-anchor="middle" style="font-size:6.00;" x="673" y="167">serial</text>
<text text-anchor="middle" style="font-size:6.00;" x="713" y="167"> PRIMARY KEY </text>
<text text-anchor="middle" style="font-size:6.00;" x="647" y="179">person</text>
<text text-anchor="middle" style="font-size:6.00;" x="675" y="179">integer</text>
<text text-anchor="middle" style="font-size:6.00;" x="720" y="179"> REFERENCES person </text>
<text text-anchor="middle" style="font-size:6.00;" x="649" y="191">jabberid</text>
<text text-anchor="middle" style="font-size:6.00;" x="672" y="191">text</text>
<text text-anchor="middle" style="font-size:6.00;" x="704" y="191"> UNIQUE </text>
<polygon style="fill:none;stroke:black;" points="633,197 633,143 755,143 755,197 633,197"/>
</g>
<g id="edge8" class="edge"><title>jabberid&#45;&gt;person</title>
<path style="fill:none;stroke:black;" d="M662,201C634,228 592,268 553,306"/>
<polygon style="fill:black;stroke:black;" points="556,308 546,313 551,303 556,308"/>
</g>
<g id="node5" class="node"><title>karma</title>
<polygon style="fill:#c1cdcc;stroke:#c1cdcc;" points="317,92 317,14 455,14 455,92 317,92"/>
<polygon style="fill:white;stroke:white;" points="320,29 320,17 452,17 452,29 320,29"/>
<text text-anchor="middle" style="font-size:6.00;" x="386" y="25">karma</text>
<polygon style="fill:none;stroke:black;" points="320,29 320,17 452,17 452,29 320,29"/>
<text text-anchor="middle" style="font-size:6.00;" x="325" y="38">id</text>
<text text-anchor="middle" style="font-size:6.00;" x="364" y="38">serial</text>
<text text-anchor="middle" style="font-size:6.00;" x="413" y="38"> PRIMARY KEY </text>
<text text-anchor="middle" style="font-size:6.00;" x="336" y="50">karmatype</text>
<text text-anchor="middle" style="font-size:6.00;" x="366" y="50">integer</text>
<text text-anchor="middle" style="font-size:6.00;" x="337" y="62">datecreated</text>
<text text-anchor="middle" style="font-size:6.00;" x="371" y="62">timestamp</text>
<text text-anchor="middle" style="font-size:6.00;" x="331" y="74">person</text>
<text text-anchor="middle" style="font-size:6.00;" x="366" y="74">integer</text>
<text text-anchor="middle" style="font-size:6.00;" x="420" y="74"> REFERENCES person </text>
<text text-anchor="middle" style="font-size:6.00;" x="331" y="86">points</text>
<text text-anchor="middle" style="font-size:6.00;" x="366" y="86">integer</text>
<polygon style="fill:none;stroke:black;" points="317,92 317,14 455,14 455,92 317,92"/>
</g>
<g id="edge10" class="edge"><title>karma&#45;&gt;person</title>
<path style="fill:none;stroke:black;" d="M394,96C402,142 415,217 426,282"/>
<polygon style="fill:black;stroke:black;" points="429,282 428,292 423,283 429,282"/>
</g>
<g id="node6" class="node"><title>language</title>
<polygon style="fill:#c1cdcc;stroke:#c1cdcc;" points="46,338 46,236 178,236 178,338 46,338"/>
<polygon style="fill:white;stroke:white;" points="49,251 49,239 175,239 175,251 49,251"/>
<text text-anchor="middle" style="font-size:6.00;" x="112" y="247">language</text>
<polygon style="fill:none;stroke:black;" points="49,251 49,239 175,239 175,251 49,251"/>
<text text-anchor="middle" style="font-size:6.00;" x="54" y="260">id</text>
<text text-anchor="middle" style="font-size:6.00;" x="107" y="260">serial</text>
<text text-anchor="middle" style="font-size:6.00;" x="150" y="260"> PRIMARY KEY </text>
<text text-anchor="middle" style="font-size:6.00;" x="58" y="272">code</text>
<text text-anchor="middle" style="font-size:6.00;" x="106" y="272">text</text>
<text text-anchor="middle" style="font-size:6.00;" x="141" y="272"> UNIQUE </text>
<text text-anchor="middle" style="font-size:6.00;" x="67" y="284">englishname</text>
<text text-anchor="middle" style="font-size:6.00;" x="106" y="284">text</text>
<text text-anchor="middle" style="font-size:6.00;" x="66" y="296">nativename</text>
<text text-anchor="middle" style="font-size:6.00;" x="106" y="296">text</text>
<text text-anchor="middle" style="font-size:6.00;" x="66" y="308">pluralforms</text>
<text text-anchor="middle" style="font-size:6.00;" x="109" y="308">integer</text>
<text text-anchor="middle" style="font-size:6.00;" x="72" y="320">pluralexpression</text>
<text text-anchor="middle" style="font-size:6.00;" x="106" y="320">text</text>
<text text-anchor="middle" style="font-size:6.00;" x="60" y="332">visible</text>
<text text-anchor="middle" style="font-size:6.00;" x="111" y="332">boolean</text>
<polygon style="fill:none;stroke:black;" points="46,338 46,236 178,236 178,338 46,338"/>
</g>
<g id="node7" class="node"><title>logintoken</title>
<polygon style="fill:#c1cdcc;stroke:#c1cdcc;" points="170,783 170,669 316,669 316,783 170,783"/>
<polygon style="fill:white;stroke:white;" points="173,684 173,672 313,672 313,684 173,684"/>
<text text-anchor="middle" style="font-size:6.00;" x="243" y="680">logintoken</text>
<polygon style="fill:none;stroke:black;" points="173,684 173,672 313,672 313,684 173,684"/>
<text text-anchor="middle" style="font-size:6.00;" x="178" y="693">id</text>
<text text-anchor="middle" style="font-size:6.00;" x="225" y="693">serial</text>
<text text-anchor="middle" style="font-size:6.00;" x="187" y="705">requester</text>
<text text-anchor="middle" style="font-size:6.00;" x="227" y="705">integer</text>
<text text-anchor="middle" style="font-size:6.00;" x="281" y="705"> REFERENCES person </text>
<text text-anchor="middle" style="font-size:6.00;" x="194" y="717">requesteremail</text>
<text text-anchor="middle" style="font-size:6.00;" x="224" y="717">text</text>
<text text-anchor="middle" style="font-size:6.00;" x="183" y="729">email</text>
<text text-anchor="middle" style="font-size:6.00;" x="224" y="729">text</text>
<text text-anchor="middle" style="font-size:6.00;" x="185" y="741">created</text>
<text text-anchor="middle" style="font-size:6.00;" x="232" y="741">timestamp</text>
<text text-anchor="middle" style="font-size:6.00;" x="188" y="753">tokentype</text>
<text text-anchor="middle" style="font-size:6.00;" x="227" y="753">integer</text>
<text text-anchor="middle" style="font-size:6.00;" x="183" y="765">token</text>
<text text-anchor="middle" style="font-size:6.00;" x="224" y="765">text</text>
<text text-anchor="middle" style="font-size:6.00;" x="265" y="765"> UNIQUE </text>
<text text-anchor="middle" style="font-size:6.00;" x="189" y="777">fingerprint</text>
<text text-anchor="middle" style="font-size:6.00;" x="224" y="777">text</text>
<polygon style="fill:none;stroke:black;" points="170,783 170,669 316,669 316,783 170,783"/>
</g>
<g id="edge12" class="edge"><title>logintoken&#45;&gt;person</title>
<path style="fill:none;stroke:black;" d="M282,665C306,626 339,576 369,530"/>
<polygon style="fill:black;stroke:black;" points="366,529 374,522 372,532 366,529"/>
</g>
<g id="edge16" class="edge"><title>person&#45;&gt;language</title>
<path style="fill:none;stroke:black;" d="M350,372C301,355 242,334 195,317"/>
<polygon style="fill:black;stroke:black;" points="194,320 186,314 197,314 194,320"/>
</g>
<g id="edge14" class="edge"><title>person&#45;&gt;person</title>
<path style="fill:none;stroke:black;" d="M546,443C557,436 564,424 564,407 564,395 560,385 554,378"/>
<polygon style="fill:black;stroke:black;" points="551,380 546,371 556,375 551,380"/>
</g>
<g id="edge18" class="edge"><title>person&#45;&gt;person</title>
<path style="fill:none;stroke:black;" d="M546,490C567,481 582,454 582,407 582,367 571,341 555,329"/>
<polygon style="fill:black;stroke:black;" points="553,332 546,324 556,326 553,332"/>
</g>
<g id="node9" class="node"><title>personlanguage</title>
<polygon style="fill:#c1cdcc;stroke:#c1cdcc;" points="14,431 14,377 168,377 168,431 14,431"/>
<polygon style="fill:white;stroke:white;" points="17,392 17,380 165,380 165,392 17,392"/>
<text text-anchor="middle" style="font-size:6.00;" x="91" y="388">personlanguage</text>
<polygon style="fill:none;stroke:black;" points="17,392 17,380 165,380 165,392 17,392"/>
<text text-anchor="middle" style="font-size:6.00;" x="22" y="401">id</text>
<text text-anchor="middle" style="font-size:6.00;" x="56" y="401">serial</text>
<text text-anchor="middle" style="font-size:6.00;" x="96" y="401"> PRIMARY KEY </text>
<text text-anchor="middle" style="font-size:6.00;" x="28" y="413">person</text>
<text text-anchor="middle" style="font-size:6.00;" x="58" y="413">integer</text>
<text text-anchor="middle" style="font-size:6.00;" x="115" y="413"> REFERENCES person UNIQUE </text>
<text text-anchor="middle" style="font-size:6.00;" x="31" y="425">language</text>
<text text-anchor="middle" style="font-size:6.00;" x="58" y="425">integer</text>
<text text-anchor="middle" style="font-size:6.00;" x="118" y="425"> REFERENCES language UNIQUE </text>
<polygon style="fill:none;stroke:black;" points="14,431 14,377 168,377 168,431 14,431"/>
</g>
<g id="edge22" class="edge"><title>personlanguage&#45;&gt;language</title>
<path style="fill:none;stroke:black;" d="M97,373C98,366 100,359 101,352"/>
<polygon style="fill:black;stroke:black;" points="98,352 102,342 104,352 98,352"/>
</g>
<g id="edge20" class="edge"><title>personlanguage&#45;&gt;person</title>
<path style="fill:none;stroke:black;" d="M176,405C225,405 287,406 340,406"/>
<polygon style="fill:black;stroke:black;" points="340,402 350,406 340,409 340,402"/>
</g>
<g id="node10" class="node"><title>signedcodeofconduct</title>
<polygon style="fill:#c1cdcc;stroke:#c1cdcc;" points="683,692 683,578 891,578 891,692 683,692"/>
<polygon style="fill:white;stroke:white;" points="686,593 686,581 888,581 888,593 686,593"/>
<text text-anchor="middle" style="font-size:6.00;" x="787" y="589">signedcodeofconduct</text>
<polygon style="fill:none;stroke:black;" points="686,593 686,581 888,581 888,593 686,593"/>
<text text-anchor="middle" style="font-size:6.00;" x="691" y="602">id</text>
<text text-anchor="middle" style="font-size:6.00;" x="741" y="602">serial</text>
<text text-anchor="middle" style="font-size:6.00;" x="697" y="614">owner</text>
<text text-anchor="middle" style="font-size:6.00;" x="743" y="614">integer</text>
<text text-anchor="middle" style="font-size:6.00;" x="827" y="614"> REFERENCES person REFERENCES gpgkey </text>
<text text-anchor="middle" style="font-size:6.00;" x="702" y="626">signingkey</text>
<text text-anchor="middle" style="font-size:6.00;" x="743" y="626">integer</text>
<text text-anchor="middle" style="font-size:6.00;" x="798" y="626"> REFERENCES gpgkey </text>
<text text-anchor="middle" style="font-size:6.00;" x="703" y="638">datecreated</text>
<text text-anchor="middle" style="font-size:6.00;" x="748" y="638">timestamp</text>
<text text-anchor="middle" style="font-size:6.00;" x="702" y="650">signedcode</text>
<text text-anchor="middle" style="font-size:6.00;" x="740" y="650">text</text>
<text text-anchor="middle" style="font-size:6.00;" x="700" y="662">recipient</text>
<text text-anchor="middle" style="font-size:6.00;" x="743" y="662">integer</text>
<text text-anchor="middle" style="font-size:6.00;" x="696" y="674">active</text>
<text text-anchor="middle" style="font-size:6.00;" x="745" y="674">boolean</text>
<text text-anchor="middle" style="font-size:6.00;" x="708" y="686">admincomment</text>
<text text-anchor="middle" style="font-size:6.00;" x="740" y="686">text</text>
<polygon style="fill:none;stroke:black;" points="683,692 683,578 891,578 891,692 683,692"/>
</g>
<g id="edge26" class="edge"><title>signedcodeofconduct&#45;&gt;gpgkey</title>
<path style="fill:none;stroke:black;" d="M796,574C797,569 797,565 798,560"/>
<polygon style="fill:black;stroke:black;" points="795,560 799,550 801,560 795,560"/>
</g>
<g id="edge24" class="edge"><title>signedcodeofconduct&#45;&gt;person</title>
<path style="fill:none;stroke:black;" d="M696,574C653,545 600,509 554,479"/>
<polygon style="fill:black;stroke:black;" points="552,482 546,473 556,476 552,482"/>
</g>
<g id="node11" class="node"><title>sshkey</title>
<polygon style="fill:#c1cdcc;stroke:#c1cdcc;" points="522,766 522,688 646,688 646,766 522,766"/>
<polygon style="fill:white;stroke:white;" points="525,703 525,691 643,691 643,703 525,703"/>
<text text-anchor="middle" style="font-size:6.00;" x="584" y="699">sshkey</text>
<polygon style="fill:none;stroke:black;" points="525,703 525,691 643,691 643,703 525,703"/>
<text text-anchor="middle" style="font-size:6.00;" x="530" y="712">id</text>
<text text-anchor="middle" style="font-size:6.00;" x="564" y="712">serial</text>
<text text-anchor="middle" style="font-size:6.00;" x="604" y="712"> PRIMARY KEY </text>
<text text-anchor="middle" style="font-size:6.00;" x="536" y="724">person</text>
<text text-anchor="middle" style="font-size:6.00;" x="566" y="724">integer</text>
<text text-anchor="middle" style="font-size:6.00;" x="611" y="724"> REFERENCES person </text>
<text text-anchor="middle" style="font-size:6.00;" x="538" y="736">keytype</text>
<text text-anchor="middle" style="font-size:6.00;" x="566" y="736">integer</text>
<text text-anchor="middle" style="font-size:6.00;" x="537" y="748">keytext</text>
<text text-anchor="middle" style="font-size:6.00;" x="563" y="748">text</text>
<text text-anchor="middle" style="font-size:6.00;" x="539" y="760">comment</text>
<text text-anchor="middle" style="font-size:6.00;" x="563" y="760">text</text>
<polygon style="fill:none;stroke:black;" points="522,766 522,688 646,688 646,766 522,766"/>
</g>
<g id="edge28" class="edge"><title>sshkey&#45;&gt;person</title>
<path style="fill:none;stroke:black;" d="M566,684C550,644 524,585 501,531"/>
<polygon style="fill:black;stroke:black;" points="498,533 497,522 504,530 498,533"/>
</g>
<g id="node12" class="node"><title>teammembership</title>
<polygon style="fill:#c1cdcc;stroke:#c1cdcc;" points="103,162 103,48 281,48 281,162 103,162"/>
<polygon style="fill:white;stroke:white;" points="106,63 106,51 278,51 278,63 106,63"/>
<text text-anchor="middle" style="font-size:6.00;" x="192" y="59">teammembership</text>
<polygon style="fill:none;stroke:black;" points="106,63 106,51 278,51 278,63 106,63"/>
<text text-anchor="middle" style="font-size:6.00;" x="111" y="72">id</text>
<text text-anchor="middle" style="font-size:6.00;" x="166" y="72">serial</text>
<text text-anchor="middle" style="font-size:6.00;" x="215" y="72"> PRIMARY KEY </text>
<text text-anchor="middle" style="font-size:6.00;" x="117" y="84">person</text>
<text text-anchor="middle" style="font-size:6.00;" x="168" y="84">integer</text>
<text text-anchor="middle" style="font-size:6.00;" x="234" y="84"> REFERENCES person UNIQUE </text>
<text text-anchor="middle" style="font-size:6.00;" x="115" y="96">team</text>
<text text-anchor="middle" style="font-size:6.00;" x="168" y="96">integer</text>
<text text-anchor="middle" style="font-size:6.00;" x="234" y="96"> REFERENCES person UNIQUE </text>
<text text-anchor="middle" style="font-size:6.00;" x="116" y="108">status</text>
<text text-anchor="middle" style="font-size:6.00;" x="168" y="108">integer</text>
<text text-anchor="middle" style="font-size:6.00;" x="122" y="120">datejoined</text>
<text text-anchor="middle" style="font-size:6.00;" x="173" y="120">timestamp</text>
<text text-anchor="middle" style="font-size:6.00;" x="123" y="132">dateexpires</text>
<text text-anchor="middle" style="font-size:6.00;" x="173" y="132">timestamp</text>
<text text-anchor="middle" style="font-size:6.00;" x="120" y="144">reviewer</text>
<text text-anchor="middle" style="font-size:6.00;" x="168" y="144">integer</text>
<text text-anchor="middle" style="font-size:6.00;" x="222" y="144"> REFERENCES person </text>
<text text-anchor="middle" style="font-size:6.00;" x="131" y="156">reviewercomment</text>
<text text-anchor="middle" style="font-size:6.00;" x="165" y="156">text</text>
<polygon style="fill:none;stroke:black;" points="103,162 103,48 281,48 281,162 103,162"/>
</g>
<g id="edge30" class="edge"><title>teammembership&#45;&gt;person</title>
<path style="fill:none;stroke:black;" d="M258,166C289,200 327,243 361,284"/>
<polygon style="fill:black;stroke:black;" points="364,282 367,292 358,286 364,282"/>
</g>
<g id="edge32" class="edge"><title>teammembership&#45;&gt;person</title>
<path style="fill:none;stroke:black;" d="M231,166C260,205 303,257 343,302"/>
<polygon style="fill:black;stroke:black;" points="346,300 350,310 341,305 346,300"/>
</g>
<g id="edge34" class="edge"><title>teammembership&#45;&gt;person</title>
<path style="fill:none;stroke:black;" d="M244,166C273,200 309,244 344,284"/>
<polygon style="fill:black;stroke:black;" points="347,282 351,292 342,287 347,282"/>
</g>
<g id="node13" class="node"><title>teamparticipation</title>
<polygon style="fill:#c1cdcc;stroke:#c1cdcc;" points="717,337 717,283 859,283 859,337 717,337"/>
<polygon style="fill:white;stroke:white;" points="720,298 720,286 856,286 856,298 720,298"/>
<text text-anchor="middle" style="font-size:6.00;" x="788" y="294">teamparticipation</text>
<polygon style="fill:none;stroke:black;" points="720,298 720,286 856,286 856,298 720,298"/>
<text text-anchor="middle" style="font-size:6.00;" x="725" y="307">id</text>
<text text-anchor="middle" style="font-size:6.00;" x="753" y="307">serial</text>
<text text-anchor="middle" style="font-size:6.00;" x="793" y="307"> PRIMARY KEY </text>
<text text-anchor="middle" style="font-size:6.00;" x="729" y="319">team</text>
<text text-anchor="middle" style="font-size:6.00;" x="755" y="319">integer</text>
<text text-anchor="middle" style="font-size:6.00;" x="812" y="319"> REFERENCES person UNIQUE </text>
<text text-anchor="middle" style="font-size:6.00;" x="731" y="331">person</text>
<text text-anchor="middle" style="font-size:6.00;" x="755" y="331">integer</text>
<text text-anchor="middle" style="font-size:6.00;" x="812" y="331"> REFERENCES person UNIQUE </text>
<polygon style="fill:none;stroke:black;" points="717,337 717,283 859,283 859,337 717,337"/>
</g>
<g id="edge36" class="edge"><title>teamparticipation&#45;&gt;person</title>
<path style="fill:none;stroke:black;" d="M709,339C663,353 606,370 556,383"/>
<polygon style="fill:black;stroke:black;" points="557,386 546,386 555,380 557,386"/>
</g>
<g id="edge38" class="edge"><title>teamparticipation&#45;&gt;person</title>
<path style="fill:none;stroke:black;" d="M709,327C663,339 606,356 556,370"/>
<polygon style="fill:black;stroke:black;" points="557,373 546,373 555,367 557,373"/>
</g>
<g id="node14" class="node"><title>wikiname</title>
<polygon style="fill:#c1cdcc;stroke:#c1cdcc;" points="498,109 498,43 624,43 624,109 498,109"/>
<polygon style="fill:white;stroke:white;" points="501,58 501,46 621,46 621,58 501,58"/>
<text text-anchor="middle" style="font-size:6.00;" x="561" y="54">wikiname</text>
<polygon style="fill:none;stroke:black;" points="501,58 501,46 621,46 621,58 501,58"/>
<text text-anchor="middle" style="font-size:6.00;" x="506" y="67">id</text>
<text text-anchor="middle" style="font-size:6.00;" x="542" y="67">serial</text>
<text text-anchor="middle" style="font-size:6.00;" x="582" y="67"> PRIMARY KEY </text>
<text text-anchor="middle" style="font-size:6.00;" x="512" y="79">person</text>
<text text-anchor="middle" style="font-size:6.00;" x="544" y="79">integer</text>
<text text-anchor="middle" style="font-size:6.00;" x="589" y="79"> REFERENCES person </text>
<text text-anchor="middle" style="font-size:6.00;" x="509" y="91">wiki</text>
<text text-anchor="middle" style="font-size:6.00;" x="541" y="91">text</text>
<text text-anchor="middle" style="font-size:6.00;" x="573" y="91"> UNIQUE </text>
<text text-anchor="middle" style="font-size:6.00;" x="516" y="103">wikiname</text>
<text text-anchor="middle" style="font-size:6.00;" x="541" y="103">text</text>
<text text-anchor="middle" style="font-size:6.00;" x="573" y="103"> UNIQUE </text>
<polygon style="fill:none;stroke:black;" points="498,109 498,43 624,43 624,109 498,109"/>
</g>
<g id="edge40" class="edge"><title>wikiname&#45;&gt;person</title>
<path style="fill:none;stroke:black;" d="M548,113C535,154 512,222 490,282"/>
<polygon style="fill:black;stroke:black;" points="493,283 487,292 487,281 493,283"/>
</g>
</g>
</svg>
