<?xml version="1.0" encoding="UTF-8" standalone="no"?>
<!DOCTYPE svg PUBLIC "-//W3C//DTD SVG 1.0//EN"
 "http://www.w3.org/TR/2001/REC-SVG-20010904/DTD/svg10.dtd">
<!-- Generated by fdp version 2.2 (Sat Feb  5 01:37:52 UTC 2005)
     For user: (stub) Stuart Bishop,,,   Title: g    Pages: 1 -->
<svg width="333px" height="535px"
 viewBox = "-1 -1 332 534"
 xmlns="http://www.w3.org/2000/svg">
<g id="graph0" class="graph" transform = "scale(0.304601)"
 style="font-family:Times-Roman;font-size:14.00;">
<title>g</title>
<text text-anchor="middle" style="font-size:22.00;" x="533" y="1733">Foaf</text>
<g id="node1" class="node"><title>calendar</title>
<polygon style="fill:#c1cdcc;stroke:#c1cdcc;" points="571,389 571,335 679,335 679,389 571,389"/>
<polygon style="fill:white;stroke:white;" points="574,350 574,338 676,338 676,350 574,350"/>
<text text-anchor="middle" style="font-size:6.00;" x="625" y="346">calendar</text>
<polygon style="fill:none;stroke:black;" points="574,350 574,338 676,338 676,350 574,350"/>
<text text-anchor="middle" style="font-size:6.00;" x="579" y="359">id</text>
<text text-anchor="middle" style="font-size:6.00;" x="611" y="359">serial</text>
<text text-anchor="middle" style="font-size:6.00;" x="651" y="359"> PRIMARY KEY </text>
<text text-anchor="middle" style="font-size:6.00;" x="582" y="371">title</text>
<text text-anchor="middle" style="font-size:6.00;" x="610" y="371">text</text>
<text text-anchor="middle" style="font-size:6.00;" x="587" y="383">revision</text>
<text text-anchor="middle" style="font-size:6.00;" x="613" y="383">integer</text>
<polygon style="fill:none;stroke:black;" points="571,389 571,335 679,335 679,389 571,389"/>
</g>
<g id="node2" class="node"><title>calendarsubscription</title>
<polygon style="fill:#c1cdcc;stroke:#c1cdcc;" points="640,97 640,31 786,31 786,97 640,97"/>
<polygon style="fill:white;stroke:white;" points="643,46 643,34 783,34 783,46 643,46"/>
<text text-anchor="middle" style="font-size:6.00;" x="713" y="42">calendarsubscription</text>
<polygon style="fill:none;stroke:black;" points="643,46 643,34 783,34 783,46 643,46"/>
<text text-anchor="middle" style="font-size:6.00;" x="648" y="55">id</text>
<text text-anchor="middle" style="font-size:6.00;" x="676" y="55">serial</text>
<text text-anchor="middle" style="font-size:6.00;" x="716" y="55"> PRIMARY KEY </text>
<text text-anchor="middle" style="font-size:6.00;" x="654" y="67">subject</text>
<text text-anchor="middle" style="font-size:6.00;" x="678" y="67">integer</text>
<text text-anchor="middle" style="font-size:6.00;" x="737" y="67"> REFERENCES calendar UNIQUE </text>
<text text-anchor="middle" style="font-size:6.00;" x="654" y="79">object</text>
<text text-anchor="middle" style="font-size:6.00;" x="678" y="79">integer</text>
<text text-anchor="middle" style="font-size:6.00;" x="737" y="79"> REFERENCES calendar UNIQUE </text>
<text text-anchor="middle" style="font-size:6.00;" x="654" y="91">colour</text>
<text text-anchor="middle" style="font-size:6.00;" x="675" y="91">text</text>
<polygon style="fill:none;stroke:black;" points="640,97 640,31 786,31 786,97 640,97"/>
</g>
<g id="edge2" class="edge"><title>calendarsubscription&#45;&gt;calendar</title>
<path style="fill:none;stroke:black;" d="M707,101C693,158 662,264 641,321"/>
<polygon style="fill:black;stroke:black;" points="644,322 638,331 638,320 644,322"/>
</g>
<g id="edge4" class="edge"><title>calendarsubscription&#45;&gt;calendar</title>
<path style="fill:none;stroke:black;" d="M697,101C677,157 646,262 632,321"/>
<polygon style="fill:black;stroke:black;" points="635,322 630,331 629,321 635,322"/>
</g>
<g id="node3" class="node"><title>emailaddress</title>
<polygon style="fill:#c1cdcc;stroke:#c1cdcc;" points="31,988 31,922 149,922 149,988 31,988"/>
<polygon style="fill:white;stroke:white;" points="34,937 34,925 146,925 146,937 34,937"/>
<text text-anchor="middle" style="font-size:6.00;" x="90" y="933">emailaddress</text>
<polygon style="fill:none;stroke:black;" points="34,937 34,925 146,925 146,937 34,937"/>
<text text-anchor="middle" style="font-size:6.00;" x="39" y="946">id</text>
<text text-anchor="middle" style="font-size:6.00;" x="67" y="946">serial</text>
<text text-anchor="middle" style="font-size:6.00;" x="107" y="946"> PRIMARY KEY </text>
<text text-anchor="middle" style="font-size:6.00;" x="44" y="958">email</text>
<text text-anchor="middle" style="font-size:6.00;" x="66" y="958">text</text>
<text text-anchor="middle" style="font-size:6.00;" x="45" y="970">person</text>
<text text-anchor="middle" style="font-size:6.00;" x="69" y="970">integer</text>
<text text-anchor="middle" style="font-size:6.00;" x="114" y="970"> REFERENCES person </text>
<text text-anchor="middle" style="font-size:6.00;" x="44" y="982">status</text>
<text text-anchor="middle" style="font-size:6.00;" x="69" y="982">integer</text>
<polygon style="fill:none;stroke:black;" points="31,988 31,922 149,922 149,988 31,988"/>
</g>
<g id="node12" class="node"><title>person</title>
<polygon style="fill:#c1cdcc;stroke:#c1cdcc;" points="411,947 411,725 613,725 613,947 411,947"/>
<polygon style="fill:white;stroke:white;" points="414,740 414,728 610,728 610,740 414,740"/>
<text text-anchor="middle" style="font-size:6.00;" x="512" y="736">person</text>
<polygon style="fill:none;stroke:black;" points="414,740 414,728 610,728 610,740 414,740"/>
<text text-anchor="middle" style="font-size:6.00;" x="419" y="749">id</text>
<text text-anchor="middle" style="font-size:6.00;" x="494" y="749">serial</text>
<text text-anchor="middle" style="font-size:6.00;" x="543" y="749"> PRIMARY KEY </text>
<text text-anchor="middle" style="font-size:6.00;" x="432" y="761">displayname</text>
<text text-anchor="middle" style="font-size:6.00;" x="493" y="761">text</text>
<text text-anchor="middle" style="font-size:6.00;" x="430" y="773">givenname</text>
<text text-anchor="middle" style="font-size:6.00;" x="493" y="773">text</text>
<text text-anchor="middle" style="font-size:6.00;" x="431" y="785">familyname</text>
<text text-anchor="middle" style="font-size:6.00;" x="493" y="785">text</text>
<text text-anchor="middle" style="font-size:6.00;" x="429" y="797">password</text>
<text text-anchor="middle" style="font-size:6.00;" x="493" y="797">text</text>
<text text-anchor="middle" style="font-size:6.00;" x="430" y="809">teamowner</text>
<text text-anchor="middle" style="font-size:6.00;" x="496" y="809">integer</text>
<text text-anchor="middle" style="font-size:6.00;" x="550" y="809"> REFERENCES person </text>
<text text-anchor="middle" style="font-size:6.00;" x="436" y="821">teamdescription</text>
<text text-anchor="middle" style="font-size:6.00;" x="493" y="821">text</text>
<text text-anchor="middle" style="font-size:6.00;" x="424" y="833">name</text>
<text text-anchor="middle" style="font-size:6.00;" x="493" y="833">text</text>
<text text-anchor="middle" style="font-size:6.00;" x="428" y="845">language</text>
<text text-anchor="middle" style="font-size:6.00;" x="496" y="845">integer</text>
<text text-anchor="middle" style="font-size:6.00;" x="553" y="845"> REFERENCES language </text>
<text text-anchor="middle" style="font-size:6.00;" x="420" y="857">fti</text>
<text text-anchor="middle" style="font-size:6.00;" x="498" y="857">tsvector</text>
<text text-anchor="middle" style="font-size:6.00;" x="448" y="869">defaultmembershipperiod</text>
<text text-anchor="middle" style="font-size:6.00;" x="496" y="869">integer</text>
<text text-anchor="middle" style="font-size:6.00;" x="443" y="881">defaultrenewalperiod</text>
<text text-anchor="middle" style="font-size:6.00;" x="496" y="881">integer</text>
<text text-anchor="middle" style="font-size:6.00;" x="439" y="893">subscriptionpolicy</text>
<text text-anchor="middle" style="font-size:6.00;" x="496" y="893">integer</text>
<text text-anchor="middle" style="font-size:6.00;" x="426" y="905">merged</text>
<text text-anchor="middle" style="font-size:6.00;" x="496" y="905">integer</text>
<text text-anchor="middle" style="font-size:6.00;" x="550" y="905"> REFERENCES person </text>
<text text-anchor="middle" style="font-size:6.00;" x="431" y="917">datecreated</text>
<text text-anchor="middle" style="font-size:6.00;" x="501" y="917">timestamp</text>
<text text-anchor="middle" style="font-size:6.00;" x="427" y="929">calendar</text>
<text text-anchor="middle" style="font-size:6.00;" x="496" y="929">integer</text>
<text text-anchor="middle" style="font-size:6.00;" x="564" y="929"> REFERENCES calendar UNIQUE </text>
<text text-anchor="middle" style="font-size:6.00;" x="428" y="941">timezone</text>
<text text-anchor="middle" style="font-size:6.00;" x="493" y="941">text</text>
<polygon style="fill:none;stroke:black;" points="411,947 411,725 613,725 613,947 411,947"/>
</g>
<g id="edge6" class="edge"><title>emailaddress&#45;&gt;person</title>
<path style="fill:none;stroke:black;" d="M157,936C220,918 317,890 393,870"/>
<polygon style="fill:black;stroke:black;" points="392,867 403,867 394,873 392,867"/>
</g>
<g id="node4" class="node"><title>gpgkey</title>
<polygon style="fill:#c1cdcc;stroke:#c1cdcc;" points="119,525 119,423 275,423 275,525 119,525"/>
<polygon style="fill:white;stroke:white;" points="122,438 122,426 272,426 272,438 122,438"/>
<text text-anchor="middle" style="font-size:6.00;" x="197" y="434">gpgkey</text>
<polygon style="fill:none;stroke:black;" points="122,438 122,426 272,426 272,438 122,438"/>
<text text-anchor="middle" style="font-size:6.00;" x="127" y="447">id</text>
<text text-anchor="middle" style="font-size:6.00;" x="166" y="447">serial</text>
<text text-anchor="middle" style="font-size:6.00;" x="221" y="447"> UNIQUE PRIMARY KEY </text>
<text text-anchor="middle" style="font-size:6.00;" x="133" y="459">owner</text>
<text text-anchor="middle" style="font-size:6.00;" x="168" y="459">integer</text>
<text text-anchor="middle" style="font-size:6.00;" x="228" y="459"> REFERENCES person UNIQUE </text>
<text text-anchor="middle" style="font-size:6.00;" x="132" y="471">keyid</text>
<text text-anchor="middle" style="font-size:6.00;" x="165" y="471">text</text>
<text text-anchor="middle" style="font-size:6.00;" x="138" y="483">fingerprint</text>
<text text-anchor="middle" style="font-size:6.00;" x="165" y="483">text</text>
<text text-anchor="middle" style="font-size:6.00;" x="200" y="483"> UNIQUE </text>
<text text-anchor="middle" style="font-size:6.00;" x="132" y="495">active</text>
<text text-anchor="middle" style="font-size:6.00;" x="170" y="495">boolean</text>
<text text-anchor="middle" style="font-size:6.00;" x="137" y="507">algorithm</text>
<text text-anchor="middle" style="font-size:6.00;" x="168" y="507">integer</text>
<text text-anchor="middle" style="font-size:6.00;" x="134" y="519">keysize</text>
<text text-anchor="middle" style="font-size:6.00;" x="168" y="519">integer</text>
<polygon style="fill:none;stroke:black;" points="119,525 119,423 275,423 275,525 119,525"/>
</g>
<g id="edge8" class="edge"><title>gpgkey&#45;&gt;person</title>
<path style="fill:none;stroke:black;" d="M245,529C287,578 351,651 405,713"/>
<polygon style="fill:black;stroke:black;" points="408,711 412,721 403,716 408,711"/>
</g>
<g id="node5" class="node"><title>ircid</title>
<polygon style="fill:#c1cdcc;stroke:#c1cdcc;" points="837,667 837,601 963,601 963,667 837,667"/>
<polygon style="fill:white;stroke:white;" points="840,616 840,604 960,604 960,616 840,616"/>
<text text-anchor="middle" style="font-size:6.00;" x="900" y="612">ircid</text>
<polygon style="fill:none;stroke:black;" points="840,616 840,604 960,604 960,616 840,616"/>
<text text-anchor="middle" style="font-size:6.00;" x="845" y="625">id</text>
<text text-anchor="middle" style="font-size:6.00;" x="881" y="625">serial</text>
<text text-anchor="middle" style="font-size:6.00;" x="921" y="625"> PRIMARY KEY </text>
<text text-anchor="middle" style="font-size:6.00;" x="851" y="637">person</text>
<text text-anchor="middle" style="font-size:6.00;" x="883" y="637">integer</text>
<text text-anchor="middle" style="font-size:6.00;" x="928" y="637"> REFERENCES person </text>
<text text-anchor="middle" style="font-size:6.00;" x="853" y="649">network</text>
<text text-anchor="middle" style="font-size:6.00;" x="880" y="649">text</text>
<text text-anchor="middle" style="font-size:6.00;" x="855" y="661">nickname</text>
<text text-anchor="middle" style="font-size:6.00;" x="880" y="661">text</text>
<polygon style="fill:none;stroke:black;" points="837,667 837,601 963,601 963,667 837,667"/>
</g>
<g id="edge10" class="edge"><title>ircid&#45;&gt;person</title>
<path style="fill:none;stroke:black;" d="M829,671C774,700 695,740 630,774"/>
<polygon style="fill:black;stroke:black;" points="631,777 621,779 628,771 631,777"/>
</g>
<g id="node6" class="node"><title>jabberid</title>
<polygon style="fill:#c1cdcc;stroke:#c1cdcc;" points="14,812 14,758 136,758 136,812 14,812"/>
<polygon style="fill:white;stroke:white;" points="17,773 17,761 133,761 133,773 17,773"/>
<text text-anchor="middle" style="font-size:6.00;" x="75" y="769">jabberid</text>
<polygon style="fill:none;stroke:black;" points="17,773 17,761 133,761 133,773 17,773"/>
<text text-anchor="middle" style="font-size:6.00;" x="22" y="782">id</text>
<text text-anchor="middle" style="font-size:6.00;" x="54" y="782">serial</text>
<text text-anchor="middle" style="font-size:6.00;" x="94" y="782"> PRIMARY KEY </text>
<text text-anchor="middle" style="font-size:6.00;" x="28" y="794">person</text>
<text text-anchor="middle" style="font-size:6.00;" x="56" y="794">integer</text>
<text text-anchor="middle" style="font-size:6.00;" x="101" y="794"> REFERENCES person </text>
<text text-anchor="middle" style="font-size:6.00;" x="30" y="806">jabberid</text>
<text text-anchor="middle" style="font-size:6.00;" x="53" y="806">text</text>
<text text-anchor="middle" style="font-size:6.00;" x="85" y="806"> UNIQUE </text>
<polygon style="fill:none;stroke:black;" points="14,812 14,758 136,758 136,812 14,812"/>
</g>
<g id="edge12" class="edge"><title>jabberid&#45;&gt;person</title>
<path style="fill:none;stroke:black;" d="M144,793C210,801 313,813 393,822"/>
<polygon style="fill:black;stroke:black;" points="393,819 403,823 393,825 393,819"/>
</g>
<g id="node7" class="node"><title>karma</title>
<polygon style="fill:#c1cdcc;stroke:#c1cdcc;" points="418,1378 418,1312 570,1312 570,1378 418,1378"/>
<polygon style="fill:white;stroke:white;" points="421,1327 421,1315 567,1315 567,1327 421,1327"/>
<text text-anchor="middle" style="font-size:6.00;" x="494" y="1323">karma</text>
<polygon style="fill:none;stroke:black;" points="421,1327 421,1315 567,1315 567,1327 421,1327"/>
<text text-anchor="middle" style="font-size:6.00;" x="426" y="1336">id</text>
<text text-anchor="middle" style="font-size:6.00;" x="466" y="1336">serial</text>
<text text-anchor="middle" style="font-size:6.00;" x="515" y="1336"> PRIMARY KEY </text>
<text text-anchor="middle" style="font-size:6.00;" x="438" y="1348">datecreated</text>
<text text-anchor="middle" style="font-size:6.00;" x="473" y="1348">timestamp</text>
<text text-anchor="middle" style="font-size:6.00;" x="432" y="1360">person</text>
<text text-anchor="middle" style="font-size:6.00;" x="468" y="1360">integer</text>
<text text-anchor="middle" style="font-size:6.00;" x="522" y="1360"> REFERENCES person </text>
<text text-anchor="middle" style="font-size:6.00;" x="432" y="1372">action</text>
<text text-anchor="middle" style="font-size:6.00;" x="468" y="1372">integer</text>
<text text-anchor="middle" style="font-size:6.00;" x="529" y="1372"> REFERENCES karmaaction </text>
<polygon style="fill:none;stroke:black;" points="418,1378 418,1312 570,1312 570,1378 418,1378"/>
</g>
<g id="node8" class="node"><title>karmaaction</title>
<polygon style="fill:#c1cdcc;stroke:#c1cdcc;" points="429,1704 429,1638 539,1638 539,1704 429,1704"/>
<polygon style="fill:white;stroke:white;" points="432,1653 432,1641 536,1641 536,1653 432,1653"/>
<text text-anchor="middle" style="font-size:6.00;" x="484" y="1649">karmaaction</text>
<polygon style="fill:none;stroke:black;" points="432,1653 432,1641 536,1641 536,1653 432,1653"/>
<text text-anchor="middle" style="font-size:6.00;" x="437" y="1662">id</text>
<text text-anchor="middle" style="font-size:6.00;" x="471" y="1662">serial</text>
<text text-anchor="middle" style="font-size:6.00;" x="511" y="1662"> PRIMARY KEY </text>
<text text-anchor="middle" style="font-size:6.00;" x="442" y="1674">name</text>
<text text-anchor="middle" style="font-size:6.00;" x="473" y="1674">integer</text>
<text text-anchor="middle" style="font-size:6.00;" x="502" y="1674"> UNIQUE </text>
<text text-anchor="middle" style="font-size:6.00;" x="446" y="1686">category</text>
<text text-anchor="middle" style="font-size:6.00;" x="473" y="1686">integer</text>
<text text-anchor="middle" style="font-size:6.00;" x="443" y="1698">points</text>
<text text-anchor="middle" style="font-size:6.00;" x="473" y="1698">integer</text>
<polygon style="fill:none;stroke:black;" points="429,1704 429,1638 539,1638 539,1704 429,1704"/>
</g>
<g id="edge16" class="edge"><title>karma&#45;&gt;karmaaction</title>
<path style="fill:none;stroke:black;" d="M493,1382C491,1442 487,1558 485,1624"/>
<polygon style="fill:black;stroke:black;" points="489,1624 485,1634 482,1624 489,1624"/>
</g>
<g id="edge14" class="edge"><title>karma&#45;&gt;person</title>
<path style="fill:none;stroke:black;" d="M495,1308C498,1236 504,1075 508,961"/>
<polygon style="fill:black;stroke:black;" points="505,961 508,951 512,961 505,961"/>
</g>
<g id="node9" class="node"><title>karmacache</title>
<polygon style="fill:#c1cdcc;stroke:#c1cdcc;" points="898,833 898,767 1052,767 1052,833 898,833"/>
<polygon style="fill:white;stroke:white;" points="901,782 901,770 1049,770 1049,782 901,782"/>
<text text-anchor="middle" style="font-size:6.00;" x="975" y="778">karmacache</text>
<polygon style="fill:none;stroke:black;" points="901,782 901,770 1049,770 1049,782 901,782"/>
<text text-anchor="middle" style="font-size:6.00;" x="906" y="791">id</text>
<text text-anchor="middle" style="font-size:6.00;" x="946" y="791">serial</text>
<text text-anchor="middle" style="font-size:6.00;" x="986" y="791"> PRIMARY KEY </text>
<text text-anchor="middle" style="font-size:6.00;" x="912" y="803">person</text>
<text text-anchor="middle" style="font-size:6.00;" x="948" y="803">integer</text>
<text text-anchor="middle" style="font-size:6.00;" x="1005" y="803"> UNIQUE REFERENCES person </text>
<text text-anchor="middle" style="font-size:6.00;" x="915" y="815">category</text>
<text text-anchor="middle" style="font-size:6.00;" x="948" y="815">integer</text>
<text text-anchor="middle" style="font-size:6.00;" x="977" y="815"> UNIQUE </text>
<text text-anchor="middle" style="font-size:6.00;" x="918" y="827">karmavalue</text>
<text text-anchor="middle" style="font-size:6.00;" x="948" y="827">integer</text>
<polygon style="fill:none;stroke:black;" points="898,833 898,767 1052,767 1052,833 898,833"/>
</g>
<g id="edge18" class="edge"><title>karmacache&#45;&gt;person</title>
<path style="fill:none;stroke:black;" d="M890,807C817,813 712,820 631,827"/>
<polygon style="fill:black;stroke:black;" points="631,830 621,828 631,824 631,830"/>
</g>
<g id="node10" class="node"><title>language</title>
<polygon style="fill:#c1cdcc;stroke:#c1cdcc;" points="783,1183 783,1081 915,1081 915,1183 783,1183"/>
<polygon style="fill:white;stroke:white;" points="786,1096 786,1084 912,1084 912,1096 786,1096"/>
<text text-anchor="middle" style="font-size:6.00;" x="849" y="1092">language</text>
<polygon style="fill:none;stroke:black;" points="786,1096 786,1084 912,1084 912,1096 786,1096"/>
<text text-anchor="middle" style="font-size:6.00;" x="791" y="1105">id</text>
<text text-anchor="middle" style="font-size:6.00;" x="844" y="1105">serial</text>
<text text-anchor="middle" style="font-size:6.00;" x="887" y="1105"> PRIMARY KEY </text>
<text text-anchor="middle" style="font-size:6.00;" x="795" y="1117">code</text>
<text text-anchor="middle" style="font-size:6.00;" x="843" y="1117">text</text>
<text text-anchor="middle" style="font-size:6.00;" x="878" y="1117"> UNIQUE </text>
<text text-anchor="middle" style="font-size:6.00;" x="804" y="1129">englishname</text>
<text text-anchor="middle" style="font-size:6.00;" x="843" y="1129">text</text>
<text text-anchor="middle" style="font-size:6.00;" x="803" y="1141">nativename</text>
<text text-anchor="middle" style="font-size:6.00;" x="843" y="1141">text</text>
<text text-anchor="middle" style="font-size:6.00;" x="803" y="1153">pluralforms</text>
<text text-anchor="middle" style="font-size:6.00;" x="846" y="1153">integer</text>
<text text-anchor="middle" style="font-size:6.00;" x="809" y="1165">pluralexpression</text>
<text text-anchor="middle" style="font-size:6.00;" x="843" y="1165">text</text>
<text text-anchor="middle" style="font-size:6.00;" x="797" y="1177">visible</text>
<text text-anchor="middle" style="font-size:6.00;" x="848" y="1177">boolean</text>
<polygon style="fill:none;stroke:black;" points="783,1183 783,1081 915,1081 915,1183 783,1183"/>
</g>
<g id="node11" class="node"><title>logintoken</title>
<polygon style="fill:#c1cdcc;stroke:#c1cdcc;" points="225,1301 225,1187 371,1187 371,1301 225,1301"/>
<polygon style="fill:white;stroke:white;" points="228,1202 228,1190 368,1190 368,1202 228,1202"/>
<text text-anchor="middle" style="font-size:6.00;" x="298" y="1198">logintoken</text>
<polygon style="fill:none;stroke:black;" points="228,1202 228,1190 368,1190 368,1202 228,1202"/>
<text text-anchor="middle" style="font-size:6.00;" x="233" y="1211">id</text>
<text text-anchor="middle" style="font-size:6.00;" x="280" y="1211">serial</text>
<text text-anchor="middle" style="font-size:6.00;" x="242" y="1223">requester</text>
<text text-anchor="middle" style="font-size:6.00;" x="282" y="1223">integer</text>
<text text-anchor="middle" style="font-size:6.00;" x="336" y="1223"> REFERENCES person </text>
<text text-anchor="middle" style="font-size:6.00;" x="249" y="1235">requesteremail</text>
<text text-anchor="middle" style="font-size:6.00;" x="279" y="1235">text</text>
<text text-anchor="middle" style="font-size:6.00;" x="238" y="1247">email</text>
<text text-anchor="middle" style="font-size:6.00;" x="279" y="1247">text</text>
<text text-anchor="middle" style="font-size:6.00;" x="240" y="1259">created</text>
<text text-anchor="middle" style="font-size:6.00;" x="287" y="1259">timestamp</text>
<text text-anchor="middle" style="font-size:6.00;" x="243" y="1271">tokentype</text>
<text text-anchor="middle" style="font-size:6.00;" x="282" y="1271">integer</text>
<text text-anchor="middle" style="font-size:6.00;" x="238" y="1283">token</text>
<text text-anchor="middle" style="font-size:6.00;" x="279" y="1283">text</text>
<text text-anchor="middle" style="font-size:6.00;" x="320" y="1283"> UNIQUE </text>
<text text-anchor="middle" style="font-size:6.00;" x="244" y="1295">fingerprint</text>
<text text-anchor="middle" style="font-size:6.00;" x="279" y="1295">text</text>
<polygon style="fill:none;stroke:black;" points="225,1301 225,1187 371,1187 371,1301 225,1301"/>
</g>
<g id="edge20" class="edge"><title>logintoken&#45;&gt;person</title>
<path style="fill:none;stroke:black;" d="M330,1183C361,1124 408,1034 447,960"/>
<polygon style="fill:black;stroke:black;" points="444,958 452,951 450,961 444,958"/>
</g>
<g id="edge28" class="edge"><title>person&#45;&gt;calendar</title>
<path style="fill:none;stroke:black;" d="M539,721C564,618 599,473 616,403"/>
<polygon style="fill:black;stroke:black;" points="613,402 618,393 619,403 613,402"/>
</g>
<g id="edge24" class="edge"><title>person&#45;&gt;language</title>
<path style="fill:none;stroke:black;" d="M621,932C673,977 733,1030 778,1070"/>
<polygon style="fill:black;stroke:black;" points="781,1068 786,1077 776,1073 781,1068"/>
</g>
<g id="edge22" class="edge"><title>person&#45;&gt;person</title>
<path style="fill:none;stroke:black;" d="M621,871C632,864 639,852 639,836 639,824 635,815 629,808"/>
<polygon style="fill:black;stroke:black;" points="626,810 621,801 631,805 626,810"/>
</g>
<g id="edge26" class="edge"><title>person&#45;&gt;person</title>
<path style="fill:none;stroke:black;" d="M621,917C642,908 657,881 657,836 657,798 646,772 630,760"/>
<polygon style="fill:black;stroke:black;" points="628,763 621,755 631,757 628,763"/>
</g>
<g id="node13" class="node"><title>personlanguage</title>
<polygon style="fill:#c1cdcc;stroke:#c1cdcc;" points="865,1007 865,953 1019,953 1019,1007 865,1007"/>
<polygon style="fill:white;stroke:white;" points="868,968 868,956 1016,956 1016,968 868,968"/>
<text text-anchor="middle" style="font-size:6.00;" x="942" y="964">personlanguage</text>
<polygon style="fill:none;stroke:black;" points="868,968 868,956 1016,956 1016,968 868,968"/>
<text text-anchor="middle" style="font-size:6.00;" x="873" y="977">id</text>
<text text-anchor="middle" style="font-size:6.00;" x="907" y="977">serial</text>
<text text-anchor="middle" style="font-size:6.00;" x="947" y="977"> PRIMARY KEY </text>
<text text-anchor="middle" style="font-size:6.00;" x="879" y="989">person</text>
<text text-anchor="middle" style="font-size:6.00;" x="909" y="989">integer</text>
<text text-anchor="middle" style="font-size:6.00;" x="966" y="989"> REFERENCES person UNIQUE </text>
<text text-anchor="middle" style="font-size:6.00;" x="882" y="1001">language</text>
<text text-anchor="middle" style="font-size:6.00;" x="909" y="1001">integer</text>
<text text-anchor="middle" style="font-size:6.00;" x="969" y="1001"> REFERENCES language UNIQUE </text>
<polygon style="fill:none;stroke:black;" points="865,1007 865,953 1019,953 1019,1007 865,1007"/>
</g>
<g id="edge32" class="edge"><title>personlanguage&#45;&gt;language</title>
<path style="fill:none;stroke:black;" d="M923,1011C913,1028 901,1049 888,1068"/>
<polygon style="fill:black;stroke:black;" points="891,1070 883,1077 885,1067 891,1070"/>
</g>
<g id="edge30" class="edge"><title>personlanguage&#45;&gt;person</title>
<path style="fill:none;stroke:black;" d="M857,951C792,929 702,900 631,875"/>
<polygon style="fill:black;stroke:black;" points="630,878 621,872 632,872 630,878"/>
</g>
<g id="node14" class="node"><title>signedcodeofconduct</title>
<polygon style="fill:#c1cdcc;stroke:#c1cdcc;" points="299,399 299,285 507,285 507,399 299,399"/>
<polygon style="fill:white;stroke:white;" points="302,300 302,288 504,288 504,300 302,300"/>
<text text-anchor="middle" style="font-size:6.00;" x="403" y="296">signedcodeofconduct</text>
<polygon style="fill:none;stroke:black;" points="302,300 302,288 504,288 504,300 302,300"/>
<text text-anchor="middle" style="font-size:6.00;" x="307" y="309">id</text>
<text text-anchor="middle" style="font-size:6.00;" x="357" y="309">serial</text>
<text text-anchor="middle" style="font-size:6.00;" x="313" y="321">owner</text>
<text text-anchor="middle" style="font-size:6.00;" x="359" y="321">integer</text>
<text text-anchor="middle" style="font-size:6.00;" x="443" y="321"> REFERENCES person REFERENCES gpgkey </text>
<text text-anchor="middle" style="font-size:6.00;" x="318" y="333">signingkey</text>
<text text-anchor="middle" style="font-size:6.00;" x="359" y="333">integer</text>
<text text-anchor="middle" style="font-size:6.00;" x="414" y="333"> REFERENCES gpgkey </text>
<text text-anchor="middle" style="font-size:6.00;" x="319" y="345">datecreated</text>
<text text-anchor="middle" style="font-size:6.00;" x="364" y="345">timestamp</text>
<text text-anchor="middle" style="font-size:6.00;" x="318" y="357">signedcode</text>
<text text-anchor="middle" style="font-size:6.00;" x="356" y="357">text</text>
<text text-anchor="middle" style="font-size:6.00;" x="316" y="369">recipient</text>
<text text-anchor="middle" style="font-size:6.00;" x="359" y="369">integer</text>
<text text-anchor="middle" style="font-size:6.00;" x="312" y="381">active</text>
<text text-anchor="middle" style="font-size:6.00;" x="361" y="381">boolean</text>
<text text-anchor="middle" style="font-size:6.00;" x="324" y="393">admincomment</text>
<text text-anchor="middle" style="font-size:6.00;" x="356" y="393">text</text>
<polygon style="fill:none;stroke:black;" points="299,399 299,285 507,285 507,399 299,399"/>
</g>
<g id="edge36" class="edge"><title>signedcodeofconduct&#45;&gt;gpgkey</title>
<path style="fill:none;stroke:black;" d="M308,403C303,406 297,410 292,414"/>
<polygon style="fill:black;stroke:black;" points="293,417 283,419 290,411 293,417"/>
</g>
<g id="edge34" class="edge"><title>signedcodeofconduct&#45;&gt;person</title>
<path style="fill:none;stroke:black;" d="M416,403C433,479 463,613 485,711"/>
<polygon style="fill:black;stroke:black;" points="488,711 487,721 482,712 488,711"/>
</g>
<g id="node15" class="node"><title>sshkey</title>
<polygon style="fill:#c1cdcc;stroke:#c1cdcc;" points="712,538 712,460 836,460 836,538 712,538"/>
<polygon style="fill:white;stroke:white;" points="715,475 715,463 833,463 833,475 715,475"/>
<text text-anchor="middle" style="font-size:6.00;" x="774" y="471">sshkey</text>
<polygon style="fill:none;stroke:black;" points="715,475 715,463 833,463 833,475 715,475"/>
<text text-anchor="middle" style="font-size:6.00;" x="720" y="484">id</text>
<text text-anchor="middle" style="font-size:6.00;" x="754" y="484">serial</text>
<text text-anchor="middle" style="font-size:6.00;" x="794" y="484"> PRIMARY KEY </text>
<text text-anchor="middle" style="font-size:6.00;" x="726" y="496">person</text>
<text text-anchor="middle" style="font-size:6.00;" x="756" y="496">integer</text>
<text text-anchor="middle" style="font-size:6.00;" x="801" y="496"> REFERENCES person </text>
<text text-anchor="middle" style="font-size:6.00;" x="728" y="508">keytype</text>
<text text-anchor="middle" style="font-size:6.00;" x="756" y="508">integer</text>
<text text-anchor="middle" style="font-size:6.00;" x="727" y="520">keytext</text>
<text text-anchor="middle" style="font-size:6.00;" x="753" y="520">text</text>
<text text-anchor="middle" style="font-size:6.00;" x="729" y="532">comment</text>
<text text-anchor="middle" style="font-size:6.00;" x="753" y="532">text</text>
<polygon style="fill:none;stroke:black;" points="712,538 712,460 836,460 836,538 712,538"/>
</g>
<g id="edge38" class="edge"><title>sshkey&#45;&gt;person</title>
<path style="fill:none;stroke:black;" d="M741,542C708,585 655,653 608,713"/>
<polygon style="fill:black;stroke:black;" points="611,715 602,721 605,711 611,715"/>
</g>
<g id="node16" class="node"><title>teammembership</title>
<polygon style="fill:#c1cdcc;stroke:#c1cdcc;" points="626,1328 626,1214 804,1214 804,1328 626,1328"/>
<polygon style="fill:white;stroke:white;" points="629,1229 629,1217 801,1217 801,1229 629,1229"/>
<text text-anchor="middle" style="font-size:6.00;" x="715" y="1225">teammembership</text>
<polygon style="fill:none;stroke:black;" points="629,1229 629,1217 801,1217 801,1229 629,1229"/>
<text text-anchor="middle" style="font-size:6.00;" x="634" y="1238">id</text>
<text text-anchor="middle" style="font-size:6.00;" x="689" y="1238">serial</text>
<text text-anchor="middle" style="font-size:6.00;" x="738" y="1238"> PRIMARY KEY </text>
<text text-anchor="middle" style="font-size:6.00;" x="640" y="1250">person</text>
<text text-anchor="middle" style="font-size:6.00;" x="691" y="1250">integer</text>
<text text-anchor="middle" style="font-size:6.00;" x="757" y="1250"> REFERENCES person UNIQUE </text>
<text text-anchor="middle" style="font-size:6.00;" x="638" y="1262">team</text>
<text text-anchor="middle" style="font-size:6.00;" x="691" y="1262">integer</text>
<text text-anchor="middle" style="font-size:6.00;" x="757" y="1262"> REFERENCES person UNIQUE </text>
<text text-anchor="middle" style="font-size:6.00;" x="639" y="1274">status</text>
<text text-anchor="middle" style="font-size:6.00;" x="691" y="1274">integer</text>
<text text-anchor="middle" style="font-size:6.00;" x="645" y="1286">datejoined</text>
<text text-anchor="middle" style="font-size:6.00;" x="696" y="1286">timestamp</text>
<text text-anchor="middle" style="font-size:6.00;" x="646" y="1298">dateexpires</text>
<text text-anchor="middle" style="font-size:6.00;" x="696" y="1298">timestamp</text>
<text text-anchor="middle" style="font-size:6.00;" x="643" y="1310">reviewer</text>
<text text-anchor="middle" style="font-size:6.00;" x="691" y="1310">integer</text>
<text text-anchor="middle" style="font-size:6.00;" x="745" y="1310"> REFERENCES person </text>
<text text-anchor="middle" style="font-size:6.00;" x="654" y="1322">reviewercomment</text>
<text text-anchor="middle" style="font-size:6.00;" x="688" y="1322">text</text>
<polygon style="fill:none;stroke:black;" points="626,1328 626,1214 804,1214 804,1328 626,1328"/>
</g>
<g id="edge40" class="edge"><title>teammembership&#45;&gt;person</title>
<path style="fill:none;stroke:black;" d="M675,1210C640,1145 592,1042 556,960"/>
<polygon style="fill:black;stroke:black;" points="553,962 552,951 559,959 553,962"/>
</g>
<g id="edge42" class="edge"><title>teammembership&#45;&gt;person</title>
<path style="fill:none;stroke:black;" d="M696,1210C670,1145 623,1042 583,960"/>
<polygon style="fill:black;stroke:black;" points="580,961 578,951 586,958 580,961"/>
</g>
<g id="edge44" class="edge"><title>teammembership&#45;&gt;person</title>
<path style="fill:none;stroke:black;" d="M686,1210C655,1145 607,1042 569,960"/>
<polygon style="fill:black;stroke:black;" points="566,962 565,951 572,959 566,962"/>
</g>
<g id="node17" class="node"><title>teamparticipation</title>
<polygon style="fill:#c1cdcc;stroke:#c1cdcc;" points="91,1142 91,1088 233,1088 233,1142 91,1142"/>
<polygon style="fill:white;stroke:white;" points="94,1103 94,1091 230,1091 230,1103 94,1103"/>
<text text-anchor="middle" style="font-size:6.00;" x="162" y="1099">teamparticipation</text>
<polygon style="fill:none;stroke:black;" points="94,1103 94,1091 230,1091 230,1103 94,1103"/>
<text text-anchor="middle" style="font-size:6.00;" x="99" y="1112">id</text>
<text text-anchor="middle" style="font-size:6.00;" x="127" y="1112">serial</text>
<text text-anchor="middle" style="font-size:6.00;" x="167" y="1112"> PRIMARY KEY </text>
<text text-anchor="middle" style="font-size:6.00;" x="103" y="1124">team</text>
<text text-anchor="middle" style="font-size:6.00;" x="129" y="1124">integer</text>
<text text-anchor="middle" style="font-size:6.00;" x="186" y="1124"> REFERENCES person UNIQUE </text>
<text text-anchor="middle" style="font-size:6.00;" x="105" y="1136">person</text>
<text text-anchor="middle" style="font-size:6.00;" x="129" y="1136">integer</text>
<text text-anchor="middle" style="font-size:6.00;" x="186" y="1136"> REFERENCES person UNIQUE </text>
<polygon style="fill:none;stroke:black;" points="91,1142 91,1088 233,1088 233,1142 91,1142"/>
</g>
<g id="edge46" class="edge"><title>teamparticipation&#45;&gt;person</title>
<path style="fill:none;stroke:black;" d="M194,1084C239,1045 324,976 395,921"/>
<polygon style="fill:black;stroke:black;" points="393,918 403,915 397,924 393,918"/>
</g>
<g id="edge48" class="edge"><title>teamparticipation&#45;&gt;person</title>
<path style="fill:none;stroke:black;" d="M208,1084C255,1049 330,989 395,938"/>
<polygon style="fill:black;stroke:black;" points="393,935 403,931 398,940 393,935"/>
</g>
<g id="node18" class="node"><title>wikiname</title>
<polygon style="fill:#c1cdcc;stroke:#c1cdcc;" points="67,657 67,591 193,591 193,657 67,657"/>
<polygon style="fill:white;stroke:white;" points="70,606 70,594 190,594 190,606 70,606"/>
<text text-anchor="middle" style="font-size:6.00;" x="130" y="602">wikiname</text>
<polygon style="fill:none;stroke:black;" points="70,606 70,594 190,594 190,606 70,606"/>
<text text-anchor="middle" style="font-size:6.00;" x="75" y="615">id</text>
<text text-anchor="middle" style="font-size:6.00;" x="111" y="615">serial</text>
<text text-anchor="middle" style="font-size:6.00;" x="151" y="615"> PRIMARY KEY </text>
<text text-anchor="middle" style="font-size:6.00;" x="81" y="627">person</text>
<text text-anchor="middle" style="font-size:6.00;" x="113" y="627">integer</text>
<text text-anchor="middle" style="font-size:6.00;" x="158" y="627"> REFERENCES person </text>
<text text-anchor="middle" style="font-size:6.00;" x="78" y="639">wiki</text>
<text text-anchor="middle" style="font-size:6.00;" x="110" y="639">text</text>
<text text-anchor="middle" style="font-size:6.00;" x="142" y="639"> UNIQUE </text>
<text text-anchor="middle" style="font-size:6.00;" x="85" y="651">wikiname</text>
<text text-anchor="middle" style="font-size:6.00;" x="110" y="651">text</text>
<text text-anchor="middle" style="font-size:6.00;" x="142" y="651"> UNIQUE </text>
<polygon style="fill:none;stroke:black;" points="67,657 67,591 193,591 193,657 67,657"/>
</g>
<g id="edge50" class="edge"><title>wikiname&#45;&gt;person</title>
<path style="fill:none;stroke:black;" d="M197,661C251,692 330,735 394,770"/>
<polygon style="fill:black;stroke:black;" points="396,767 403,775 393,773 396,767"/>
</g>
</g>
</svg>
