<?xml version="1.0" encoding="UTF-8" standalone="no"?>
<!DOCTYPE svg PUBLIC "-//W3C//DTD SVG 1.0//EN"
 "http://www.w3.org/TR/2001/REC-SVG-20010904/DTD/svg10.dtd">
<!-- Generated by fdp version 2.2.1 (Tue Oct 11 01:38:21 UTC 2005)
     For user: (stub) Stuart Bishop,,,   Title: g    Pages: 1 -->
<svg width="1923px" height="1228px"
 viewBox = "-1 -1 1922 1227"
 xmlns="http://www.w3.org/2000/svg">
<g id="graph0" class="graph" style="font-family:Times-Roman;font-size:14.00;">
<title>g</title>
<text text-anchor="middle" style="font-size:22.00;" x="960" y="1210">Mirrors</text>
<g id="node1" class="node"><title>component</title>
<polygon style="fill:#c1cdcc;stroke:#c1cdcc;" points="564,858 564,810 684,810 684,858 564,858"/>
<polygon style="fill:white;stroke:white;" points="567,827 567,813 681,813 681,827 567,827"/>
<text text-anchor="middle" style="font-size:8.00;" x="624" y="823">component</text>
<polygon style="fill:none;stroke:black;" points="567,827 567,813 681,813 681,827 567,827"/>
<text text-anchor="middle" style="font-size:8.00;" x="573" y="838">id</text>
<text text-anchor="middle" style="font-size:8.00;" x="604" y="838">serial</text>
<text text-anchor="middle" style="font-size:8.00;" x="649" y="838"> PRIMARY KEY </text>
<text text-anchor="middle" style="font-size:8.00;" x="579" y="852">name</text>
<text text-anchor="middle" style="font-size:8.00;" x="602" y="852">text</text>
<text text-anchor="middle" style="font-size:8.00;" x="637" y="852"> UNIQUE </text>
<polygon style="fill:none;stroke:black;" points="564,858 564,810 684,810 684,858 564,858"/>
</g>
<g id="node2" class="node"><title>continent</title>
<polygon style="fill:#c1cdcc;stroke:#c1cdcc;" points="717,71 717,9 837,9 837,71 717,71"/>
<polygon style="fill:white;stroke:white;" points="720,26 720,12 834,12 834,26 720,26"/>
<text text-anchor="middle" style="font-size:8.00;" x="777" y="22">continent</text>
<polygon style="fill:none;stroke:black;" points="720,26 720,12 834,12 834,26 720,26"/>
<text text-anchor="middle" style="font-size:8.00;" x="726" y="37">id</text>
<text text-anchor="middle" style="font-size:8.00;" x="757" y="37">serial</text>
<text text-anchor="middle" style="font-size:8.00;" x="802" y="37"> PRIMARY KEY </text>
<text text-anchor="middle" style="font-size:8.00;" x="730" y="51">code</text>
<text text-anchor="middle" style="font-size:8.00;" x="755" y="51">text</text>
<text text-anchor="middle" style="font-size:8.00;" x="790" y="51"> UNIQUE </text>
<text text-anchor="middle" style="font-size:8.00;" x="732" y="65">name</text>
<text text-anchor="middle" style="font-size:8.00;" x="755" y="65">text</text>
<text text-anchor="middle" style="font-size:8.00;" x="790" y="65"> UNIQUE </text>
<polygon style="fill:none;stroke:black;" points="717,71 717,9 837,9 837,71 717,71"/>
</g>
<g id="node3" class="node"><title>country</title>
<polygon style="fill:#c1cdcc;stroke:#c1cdcc;" points="721,387 721,269 917,269 917,387 721,387"/>
<polygon style="fill:white;stroke:white;" points="724,286 724,272 914,272 914,286 724,286"/>
<text text-anchor="middle" style="font-size:8.00;" x="819" y="282">country</text>
<polygon style="fill:none;stroke:black;" points="724,286 724,272 914,272 914,286 724,286"/>
<text text-anchor="middle" style="font-size:8.00;" x="730" y="297">id</text>
<text text-anchor="middle" style="font-size:8.00;" x="788" y="297">serial</text>
<text text-anchor="middle" style="font-size:8.00;" x="855" y="297"> PRIMARY KEY </text>
<text text-anchor="middle" style="font-size:8.00;" x="750" y="311">iso3166code2</text>
<text text-anchor="middle" style="font-size:8.00;" x="799" y="311">character(2)</text>
<text text-anchor="middle" style="font-size:8.00;" x="843" y="311"> UNIQUE </text>
<text text-anchor="middle" style="font-size:8.00;" x="750" y="325">iso3166code3</text>
<text text-anchor="middle" style="font-size:8.00;" x="799" y="325">character(3)</text>
<text text-anchor="middle" style="font-size:8.00;" x="843" y="325"> UNIQUE </text>
<text text-anchor="middle" style="font-size:8.00;" x="736" y="339">name</text>
<text text-anchor="middle" style="font-size:8.00;" x="786" y="339">text</text>
<text text-anchor="middle" style="font-size:8.00;" x="843" y="339"> UNIQUE </text>
<text text-anchor="middle" style="font-size:8.00;" x="733" y="353">title</text>
<text text-anchor="middle" style="font-size:8.00;" x="786" y="353">text</text>
<text text-anchor="middle" style="font-size:8.00;" x="744" y="367">description</text>
<text text-anchor="middle" style="font-size:8.00;" x="786" y="367">text</text>
<text text-anchor="middle" style="font-size:8.00;" x="742" y="381">continent</text>
<text text-anchor="middle" style="font-size:8.00;" x="791" y="381">integer</text>
<text text-anchor="middle" style="font-size:8.00;" x="869" y="381"> REFERENCES continent </text>
<polygon style="fill:none;stroke:black;" points="721,387 721,269 917,269 917,387 721,387"/>
</g>
<g id="edge2" class="edge"><title>country&#45;&gt;continent</title>
<path style="fill:none;stroke:black;" d="M810,265C802,211 791,133 784,85"/>
<polygon style="fill:black;stroke:black;" points="781,85 782,75 787,84 781,85"/>
</g>
<g id="node4" class="node"><title>distributionmirror</title>
<polygon style="fill:#c1cdcc;stroke:#c1cdcc;" points="1140,653 1140,381 1352,381 1352,653 1140,653"/>
<polygon style="fill:white;stroke:white;" points="1143,398 1143,384 1349,384 1349,398 1143,398"/>
<text text-anchor="middle" style="font-size:8.00;" x="1246" y="394">distributionmirror</text>
<polygon style="fill:none;stroke:black;" points="1143,398 1143,384 1349,384 1349,398 1143,398"/>
<text text-anchor="middle" style="font-size:8.00;" x="1149" y="409">id</text>
<text text-anchor="middle" style="font-size:8.00;" x="1219" y="409">serial</text>
<text text-anchor="middle" style="font-size:8.00;" x="1273" y="409"> PRIMARY KEY </text>
<text text-anchor="middle" style="font-size:8.00;" x="1164" y="423">distribution</text>
<text text-anchor="middle" style="font-size:8.00;" x="1222" y="423">integer</text>
<text text-anchor="middle" style="font-size:8.00;" x="1290" y="423"> REFERENCES distribution </text>
<text text-anchor="middle" style="font-size:8.00;" x="1155" y="437">name</text>
<text text-anchor="middle" style="font-size:8.00;" x="1217" y="437">text</text>
<text text-anchor="middle" style="font-size:8.00;" x="1261" y="437"> UNIQUE </text>
<text text-anchor="middle" style="font-size:8.00;" x="1168" y="451">http_base_url</text>
<text text-anchor="middle" style="font-size:8.00;" x="1217" y="451">text</text>
<text text-anchor="middle" style="font-size:8.00;" x="1261" y="451"> UNIQUE </text>
<text text-anchor="middle" style="font-size:8.00;" x="1166" y="465">ftp_base_url</text>
<text text-anchor="middle" style="font-size:8.00;" x="1217" y="465">text</text>
<text text-anchor="middle" style="font-size:8.00;" x="1261" y="465"> UNIQUE </text>
<text text-anchor="middle" style="font-size:8.00;" x="1171" y="479">rsync_base_url</text>
<text text-anchor="middle" style="font-size:8.00;" x="1217" y="479">text</text>
<text text-anchor="middle" style="font-size:8.00;" x="1261" y="479"> UNIQUE </text>
<text text-anchor="middle" style="font-size:8.00;" x="1166" y="493">displayname</text>
<text text-anchor="middle" style="font-size:8.00;" x="1217" y="493">text</text>
<text text-anchor="middle" style="font-size:8.00;" x="1163" y="507">description</text>
<text text-anchor="middle" style="font-size:8.00;" x="1217" y="507">text</text>
<text text-anchor="middle" style="font-size:8.00;" x="1156" y="521">owner</text>
<text text-anchor="middle" style="font-size:8.00;" x="1222" y="521">integer</text>
<text text-anchor="middle" style="font-size:8.00;" x="1283" y="521"> REFERENCES person </text>
<text text-anchor="middle" style="font-size:8.00;" x="1155" y="535">speed</text>
<text text-anchor="middle" style="font-size:8.00;" x="1222" y="535">integer</text>
<text text-anchor="middle" style="font-size:8.00;" x="1158" y="549">country</text>
<text text-anchor="middle" style="font-size:8.00;" x="1222" y="549">integer</text>
<text text-anchor="middle" style="font-size:8.00;" x="1284" y="549"> REFERENCES country </text>
<text text-anchor="middle" style="font-size:8.00;" x="1157" y="563">content</text>
<text text-anchor="middle" style="font-size:8.00;" x="1222" y="563">integer</text>
<text text-anchor="middle" style="font-size:8.00;" x="1158" y="577">file_list</text>
<text text-anchor="middle" style="font-size:8.00;" x="1222" y="577">integer</text>
<text text-anchor="middle" style="font-size:8.00;" x="1295" y="577"> REFERENCES libraryfilealias </text>
<text text-anchor="middle" style="font-size:8.00;" x="1175" y="591">official_candidate</text>
<text text-anchor="middle" style="font-size:8.00;" x="1224" y="591">boolean</text>
<text text-anchor="middle" style="font-size:8.00;" x="1174" y="605">official_approved</text>
<text text-anchor="middle" style="font-size:8.00;" x="1224" y="605">boolean</text>
<text text-anchor="middle" style="font-size:8.00;" x="1159" y="619">enabled</text>
<text text-anchor="middle" style="font-size:8.00;" x="1224" y="619">boolean</text>
<text text-anchor="middle" style="font-size:8.00;" x="1164" y="633">pulse_type</text>
<text text-anchor="middle" style="font-size:8.00;" x="1222" y="633">integer</text>
<text text-anchor="middle" style="font-size:8.00;" x="1167" y="647">pulse_source</text>
<text text-anchor="middle" style="font-size:8.00;" x="1217" y="647">text</text>
<polygon style="fill:none;stroke:black;" points="1140,653 1140,381 1352,381 1352,653 1140,653"/>
</g>
<g id="edge8" class="edge"><title>distributionmirror&#45;&gt;country</title>
<path style="fill:none;stroke:black;" d="M1132,466C1071,439 996,406 934,379"/>
<polygon style="fill:black;stroke:black;" points="933,382 925,375 936,376 933,382"/>
</g>
<g id="node13" class="node"><title>fake_distribution_104</title>
<ellipse cx="1548" cy="501" rx="30" ry="18" style="fill:none;stroke:red;"/>
<text text-anchor="middle" style="font-size:8.00;" x="1548" y="504">distribution</text>
</g>
<g id="edge4" class="edge"><title>distributionmirror&#45;&gt;fake_distribution_104</title>
<path style="fill:none;stroke:black;" d="M1360,511C1412,508 1470,505 1508,503"/>
<polygon style="fill:black;stroke:black;" points="1508,499 1518,503 1508,506 1508,499"/>
</g>
<g id="node15" class="node"><title>fake_person_106</title>
<ellipse cx="1339" cy="231" rx="27" ry="18" style="fill:none;stroke:red;"/>
<text text-anchor="middle" style="font-size:8.00;" x="1339" y="234">person</text>
</g>
<g id="edge6" class="edge"><title>distributionmirror&#45;&gt;fake_person_106</title>
<path style="fill:none;stroke:black;" d="M1292,377C1306,332 1321,287 1330,259"/>
<polygon style="fill:black;stroke:black;" points="1327,258 1333,249 1333,260 1327,258"/>
</g>
<g id="node18" class="node"><title>fake_libraryfilealias_109</title>
<ellipse cx="1503" cy="703" rx="35" ry="18" style="fill:none;stroke:red;"/>
<text text-anchor="middle" style="font-size:8.00;" x="1503" y="706">libraryfilealias</text>
</g>
<g id="edge10" class="edge"><title>distributionmirror&#45;&gt;fake_libraryfilealias_109</title>
<path style="fill:none;stroke:black;" d="M1360,600C1402,630 1446,662 1474,682"/>
<polygon style="fill:black;stroke:black;" points="1476,679 1482,688 1472,685 1476,679"/>
</g>
<g id="node5" class="node"><title>mirror</title>
<polygon style="fill:#c1cdcc;stroke:#c1cdcc;" points="359,549 359,403 551,403 551,549 359,549"/>
<polygon style="fill:white;stroke:white;" points="362,420 362,406 548,406 548,420 362,420"/>
<text text-anchor="middle" style="font-size:8.00;" x="455" y="416">mirror</text>
<polygon style="fill:none;stroke:black;" points="362,420 362,406 548,406 548,420 362,420"/>
<text text-anchor="middle" style="font-size:8.00;" x="368" y="431">id</text>
<text text-anchor="middle" style="font-size:8.00;" x="432" y="431">serial</text>
<text text-anchor="middle" style="font-size:8.00;" x="494" y="431"> PRIMARY KEY </text>
<text text-anchor="middle" style="font-size:8.00;" x="375" y="445">owner</text>
<text text-anchor="middle" style="font-size:8.00;" x="435" y="445">integer</text>
<text text-anchor="middle" style="font-size:8.00;" x="504" y="445"> REFERENCES person </text>
<text text-anchor="middle" style="font-size:8.00;" x="377" y="459">baseurl</text>
<text text-anchor="middle" style="font-size:8.00;" x="430" y="459">text</text>
<text text-anchor="middle" style="font-size:8.00;" x="377" y="473">country</text>
<text text-anchor="middle" style="font-size:8.00;" x="435" y="473">integer</text>
<text text-anchor="middle" style="font-size:8.00;" x="505" y="473"> REFERENCES country </text>
<text text-anchor="middle" style="font-size:8.00;" x="374" y="487">name</text>
<text text-anchor="middle" style="font-size:8.00;" x="430" y="487">text</text>
<text text-anchor="middle" style="font-size:8.00;" x="482" y="487"> UNIQUE </text>
<text text-anchor="middle" style="font-size:8.00;" x="382" y="501">description</text>
<text text-anchor="middle" style="font-size:8.00;" x="430" y="501">text</text>
<text text-anchor="middle" style="font-size:8.00;" x="380" y="515">freshness</text>
<text text-anchor="middle" style="font-size:8.00;" x="435" y="515">integer</text>
<text text-anchor="middle" style="font-size:8.00;" x="391" y="529">lastcheckeddate</text>
<text text-anchor="middle" style="font-size:8.00;" x="441" y="529">timestamp</text>
<text text-anchor="middle" style="font-size:8.00;" x="380" y="543">approved</text>
<text text-anchor="middle" style="font-size:8.00;" x="437" y="543">boolean</text>
<polygon style="fill:none;stroke:black;" points="359,549 359,403 551,403 551,549 359,549"/>
</g>
<g id="edge14" class="edge"><title>mirror&#45;&gt;country</title>
<path style="fill:none;stroke:black;" d="M559,434C604,415 657,394 704,375"/>
<polygon style="fill:black;stroke:black;" points="702,372 713,371 705,378 702,372"/>
</g>
<g id="node20" class="node"><title>fake_person_161</title>
<ellipse cx="274" cy="304" rx="27" ry="18" style="fill:none;stroke:red;"/>
<text text-anchor="middle" style="font-size:8.00;" x="274" y="307">person</text>
</g>
<g id="edge12" class="edge"><title>mirror&#45;&gt;fake_person_161</title>
<path style="fill:none;stroke:black;" d="M374,399C346,373 317,345 297,326"/>
<polygon style="fill:black;stroke:black;" points="295,329 290,319 300,324 295,329"/>
</g>
<g id="node6" class="node"><title>mirrorcontent</title>
<polygon style="fill:#c1cdcc;stroke:#c1cdcc;" points="197,776 197,700 411,700 411,776 197,776"/>
<polygon style="fill:white;stroke:white;" points="200,717 200,703 408,703 408,717 200,717"/>
<text text-anchor="middle" style="font-size:8.00;" x="304" y="713">mirrorcontent</text>
<polygon style="fill:none;stroke:black;" points="200,717 200,703 408,703 408,717 200,717"/>
<text text-anchor="middle" style="font-size:8.00;" x="206" y="728">id</text>
<text text-anchor="middle" style="font-size:8.00;" x="273" y="728">serial</text>
<text text-anchor="middle" style="font-size:8.00;" x="324" y="728"> PRIMARY KEY </text>
<text text-anchor="middle" style="font-size:8.00;" x="213" y="742">mirror</text>
<text text-anchor="middle" style="font-size:8.00;" x="276" y="742">integer</text>
<text text-anchor="middle" style="font-size:8.00;" x="333" y="742"> REFERENCES mirror </text>
<text text-anchor="middle" style="font-size:8.00;" x="230" y="756">distroarchrelease</text>
<text text-anchor="middle" style="font-size:8.00;" x="276" y="756">integer</text>
<text text-anchor="middle" style="font-size:8.00;" x="350" y="756"> REFERENCES distroarchrelease </text>
<text text-anchor="middle" style="font-size:8.00;" x="221" y="770">component</text>
<text text-anchor="middle" style="font-size:8.00;" x="276" y="770">integer</text>
<text text-anchor="middle" style="font-size:8.00;" x="341" y="770"> REFERENCES component </text>
<polygon style="fill:none;stroke:black;" points="197,776 197,700 411,700 411,776 197,776"/>
</g>
<g id="edge20" class="edge"><title>mirrorcontent&#45;&gt;component</title>
<path style="fill:none;stroke:black;" d="M419,773C461,785 508,799 546,811"/>
<polygon style="fill:black;stroke:black;" points="547,808 556,814 545,814 547,808"/>
</g>
<g id="edge16" class="edge"><title>mirrorcontent&#45;&gt;mirror</title>
<path style="fill:none;stroke:black;" d="M328,696C349,660 380,607 406,562"/>
<polygon style="fill:black;stroke:black;" points="403,560 411,553 409,563 403,560"/>
</g>
<g id="node24" class="node"><title>fake_distroarchrelease_165</title>
<ellipse cx="45" cy="746" rx="39" ry="18" style="fill:none;stroke:red;"/>
<text text-anchor="middle" style="font-size:8.00;" x="45" y="749">distroarchrelease</text>
</g>
<g id="edge18" class="edge"><title>mirrorcontent&#45;&gt;fake_distroarchrelease_165</title>
<path style="fill:none;stroke:black;" d="M189,742C155,743 121,744 94,745"/>
<polygon style="fill:black;stroke:black;" points="94,748 84,745 94,741 94,748"/>
</g>
<g id="node7" class="node"><title>mirrordistroarchrelease</title>
<polygon style="fill:#c1cdcc;stroke:#c1cdcc;" points="824,829 824,725 1048,725 1048,829 824,829"/>
<polygon style="fill:white;stroke:white;" points="827,742 827,728 1045,728 1045,742 827,742"/>
<text text-anchor="middle" style="font-size:8.00;" x="936" y="738">mirrordistroarchrelease</text>
<polygon style="fill:none;stroke:black;" points="827,742 827,728 1045,728 1045,742 827,742"/>
<text text-anchor="middle" style="font-size:8.00;" x="833" y="753">id</text>
<text text-anchor="middle" style="font-size:8.00;" x="907" y="753">serial</text>
<text text-anchor="middle" style="font-size:8.00;" x="958" y="753"> PRIMARY KEY </text>
<text text-anchor="middle" style="font-size:8.00;" x="860" y="767">distribution_mirror</text>
<text text-anchor="middle" style="font-size:8.00;" x="910" y="767">integer</text>
<text text-anchor="middle" style="font-size:8.00;" x="986" y="767"> REFERENCES distributionmirror </text>
<text text-anchor="middle" style="font-size:8.00;" x="861" y="781">distro_arch_release</text>
<text text-anchor="middle" style="font-size:8.00;" x="910" y="781">integer</text>
<text text-anchor="middle" style="font-size:8.00;" x="984" y="781"> REFERENCES distroarchrelease </text>
<text text-anchor="middle" style="font-size:8.00;" x="839" y="795">status</text>
<text text-anchor="middle" style="font-size:8.00;" x="910" y="795">integer</text>
<text text-anchor="middle" style="font-size:8.00;" x="841" y="809">pocket</text>
<text text-anchor="middle" style="font-size:8.00;" x="910" y="809">integer</text>
<text text-anchor="middle" style="font-size:8.00;" x="848" y="823">component</text>
<text text-anchor="middle" style="font-size:8.00;" x="910" y="823">integer</text>
<text text-anchor="middle" style="font-size:8.00;" x="975" y="823"> REFERENCES component </text>
<polygon style="fill:none;stroke:black;" points="824,829 824,725 1048,725 1048,829 824,829"/>
</g>
<g id="edge26" class="edge"><title>mirrordistroarchrelease&#45;&gt;component</title>
<path style="fill:none;stroke:black;" d="M816,799C778,806 736,814 702,820"/>
<polygon style="fill:black;stroke:black;" points="702,823 692,822 701,817 702,823"/>
</g>
<g id="edge22" class="edge"><title>mirrordistroarchrelease&#45;&gt;distributionmirror</title>
<path style="fill:none;stroke:black;" d="M1003,721C1039,691 1083,654 1124,619"/>
<polygon style="fill:black;stroke:black;" points="1122,616 1132,612 1127,621 1122,616"/>
</g>
<g id="node28" class="node"><title>fake_distroarchrelease_169</title>
<ellipse cx="1131" cy="971" rx="39" ry="18" style="fill:none;stroke:red;"/>
<text text-anchor="middle" style="font-size:8.00;" x="1131" y="974">distroarchrelease</text>
</g>
<g id="edge24" class="edge"><title>mirrordistroarchrelease&#45;&gt;fake_distroarchrelease_169</title>
<path style="fill:none;stroke:black;" d="M1054,833C1059,838 1064,842 1069,847 1096,874 1114,916 1123,943"/>
<polygon style="fill:black;stroke:black;" points="1126,942 1126,953 1120,944 1126,942"/>
</g>
<g id="node8" class="node"><title>mirrordistroreleasesource</title>
<polygon style="fill:#c1cdcc;stroke:#c1cdcc;" points="831,958 831,854 1055,854 1055,958 831,958"/>
<polygon style="fill:white;stroke:white;" points="834,871 834,857 1052,857 1052,871 834,871"/>
<text text-anchor="middle" style="font-size:8.00;" x="943" y="867">mirrordistroreleasesource</text>
<polygon style="fill:none;stroke:black;" points="834,871 834,857 1052,857 1052,871 834,871"/>
<text text-anchor="middle" style="font-size:8.00;" x="840" y="882">id</text>
<text text-anchor="middle" style="font-size:8.00;" x="914" y="882">serial</text>
<text text-anchor="middle" style="font-size:8.00;" x="965" y="882"> PRIMARY KEY </text>
<text text-anchor="middle" style="font-size:8.00;" x="867" y="896">distribution_mirror</text>
<text text-anchor="middle" style="font-size:8.00;" x="917" y="896">integer</text>
<text text-anchor="middle" style="font-size:8.00;" x="993" y="896"> REFERENCES distributionmirror </text>
<text text-anchor="middle" style="font-size:8.00;" x="859" y="910">distro_release</text>
<text text-anchor="middle" style="font-size:8.00;" x="917" y="910">integer</text>
<text text-anchor="middle" style="font-size:8.00;" x="984" y="910"> REFERENCES distrorelease </text>
<text text-anchor="middle" style="font-size:8.00;" x="846" y="924">status</text>
<text text-anchor="middle" style="font-size:8.00;" x="917" y="924">integer</text>
<text text-anchor="middle" style="font-size:8.00;" x="848" y="938">pocket</text>
<text text-anchor="middle" style="font-size:8.00;" x="917" y="938">integer</text>
<text text-anchor="middle" style="font-size:8.00;" x="855" y="952">component</text>
<text text-anchor="middle" style="font-size:8.00;" x="917" y="952">integer</text>
<text text-anchor="middle" style="font-size:8.00;" x="982" y="952"> REFERENCES component </text>
<polygon style="fill:none;stroke:black;" points="831,958 831,854 1055,854 1055,958 831,958"/>
</g>
<g id="edge32" class="edge"><title>mirrordistroreleasesource&#45;&gt;component</title>
<path style="fill:none;stroke:black;" d="M823,879C783,870 738,860 702,851"/>
<polygon style="fill:black;stroke:black;" points="701,854 692,849 702,848 701,854"/>
</g>
<g id="edge28" class="edge"><title>mirrordistroreleasesource&#45;&gt;distributionmirror</title>
<path style="fill:none;stroke:black;" d="M1046,850C1052,846 1057,841 1062,836 1110,788 1150,724 1180,666"/>
<polygon style="fill:black;stroke:black;" points="1177,664 1185,657 1183,667 1177,664"/>
</g>
<g id="node32" class="node"><title>fake_distrorelease_173</title>
<ellipse cx="966" cy="1167" rx="32" ry="18" style="fill:none;stroke:red;"/>
<text text-anchor="middle" style="font-size:8.00;" x="966" y="1170">distrorelease</text>
</g>
<g id="edge30" class="edge"><title>mirrordistroreleasesource&#45;&gt;fake_distrorelease_173</title>
<path style="fill:none;stroke:black;" d="M948,962C953,1016 960,1097 963,1139"/>
<polygon style="fill:black;stroke:black;" points="966,1139 964,1149 960,1139 966,1139"/>
</g>
<g id="node9" class="node"><title>mirrorproberecord</title>
<polygon style="fill:#c1cdcc;stroke:#c1cdcc;" points="1534,321 1534,245 1768,245 1768,321 1534,321"/>
<polygon style="fill:white;stroke:white;" points="1537,262 1537,248 1765,248 1765,262 1537,262"/>
<text text-anchor="middle" style="font-size:8.00;" x="1651" y="258">mirrorproberecord</text>
<polygon style="fill:none;stroke:black;" points="1537,262 1537,248 1765,248 1765,262 1537,262"/>
<text text-anchor="middle" style="font-size:8.00;" x="1543" y="273">id</text>
<text text-anchor="middle" style="font-size:8.00;" x="1616" y="273">serial</text>
<text text-anchor="middle" style="font-size:8.00;" x="1678" y="273"> PRIMARY KEY </text>
<text text-anchor="middle" style="font-size:8.00;" x="1570" y="287">distribution_mirror</text>
<text text-anchor="middle" style="font-size:8.00;" x="1619" y="287">integer</text>
<text text-anchor="middle" style="font-size:8.00;" x="1706" y="287"> REFERENCES distributionmirror </text>
<text text-anchor="middle" style="font-size:8.00;" x="1553" y="301">log_file</text>
<text text-anchor="middle" style="font-size:8.00;" x="1619" y="301">integer</text>
<text text-anchor="middle" style="font-size:8.00;" x="1700" y="301"> REFERENCES libraryfilealias </text>
<text text-anchor="middle" style="font-size:8.00;" x="1560" y="315">date_created</text>
<text text-anchor="middle" style="font-size:8.00;" x="1625" y="315">timestamp</text>
<polygon style="fill:none;stroke:black;" points="1534,321 1534,245 1768,245 1768,321 1534,321"/>
</g>
<g id="edge34" class="edge"><title>mirrorproberecord&#45;&gt;distributionmirror</title>
<path style="fill:none;stroke:black;" d="M1578,325C1520,359 1437,406 1369,446"/>
<polygon style="fill:black;stroke:black;" points="1370,449 1360,451 1367,443 1370,449"/>
</g>
<g id="node36" class="node"><title>fake_libraryfilealias_177</title>
<ellipse cx="1880" cy="161" rx="35" ry="18" style="fill:none;stroke:red;"/>
<text text-anchor="middle" style="font-size:8.00;" x="1880" y="164">libraryfilealias</text>
</g>
<g id="edge36" class="edge"><title>mirrorproberecord&#45;&gt;fake_libraryfilealias_177</title>
<path style="fill:none;stroke:black;" d="M1730,241C1770,220 1816,195 1847,179"/>
<polygon style="fill:black;stroke:black;" points="1846,176 1856,174 1849,182 1846,176"/>
</g>
<g id="node10" class="node"><title>mirrorsourcecontent</title>
<polygon style="fill:#c1cdcc;stroke:#c1cdcc;" points="279,885 279,809 465,809 465,885 279,885"/>
<polygon style="fill:white;stroke:white;" points="282,826 282,812 462,812 462,826 282,826"/>
<text text-anchor="middle" style="font-size:8.00;" x="372" y="822">mirrorsourcecontent</text>
<polygon style="fill:none;stroke:black;" points="282,826 282,812 462,812 462,826 282,826"/>
<text text-anchor="middle" style="font-size:8.00;" x="288" y="837">id</text>
<text text-anchor="middle" style="font-size:8.00;" x="341" y="837">serial</text>
<text text-anchor="middle" style="font-size:8.00;" x="392" y="837"> PRIMARY KEY </text>
<text text-anchor="middle" style="font-size:8.00;" x="295" y="851">mirror</text>
<text text-anchor="middle" style="font-size:8.00;" x="344" y="851">integer</text>
<text text-anchor="middle" style="font-size:8.00;" x="401" y="851"> REFERENCES mirror </text>
<text text-anchor="middle" style="font-size:8.00;" x="305" y="865">distrorelease</text>
<text text-anchor="middle" style="font-size:8.00;" x="344" y="865">integer</text>
<text text-anchor="middle" style="font-size:8.00;" x="411" y="865"> REFERENCES distrorelease </text>
<text text-anchor="middle" style="font-size:8.00;" x="303" y="879">component</text>
<text text-anchor="middle" style="font-size:8.00;" x="344" y="879">integer</text>
<text text-anchor="middle" style="font-size:8.00;" x="409" y="879"> REFERENCES component </text>
<polygon style="fill:none;stroke:black;" points="279,885 279,809 465,809 465,885 279,885"/>
</g>
<g id="edge42" class="edge"><title>mirrorsourcecontent&#45;&gt;component</title>
<path style="fill:none;stroke:black;" d="M473,842C497,840 523,839 546,838"/>
<polygon style="fill:black;stroke:black;" points="546,835 556,837 546,841 546,835"/>
</g>
<g id="edge38" class="edge"><title>mirrorsourcecontent&#45;&gt;mirror</title>
<path style="fill:none;stroke:black;" d="M412,805C417,798 422,790 425,782 453,713 459,627 460,563"/>
<polygon style="fill:black;stroke:black;" points="457,563 460,553 464,563 457,563"/>
</g>
<g id="node39" class="node"><title>fake_distrorelease_180</title>
<ellipse cx="212" cy="1020" rx="32" ry="18" style="fill:none;stroke:red;"/>
<text text-anchor="middle" style="font-size:8.00;" x="212" y="1023">distrorelease</text>
</g>
<g id="edge40" class="edge"><title>mirrorsourcecontent&#45;&gt;fake_distrorelease_180</title>
<path style="fill:none;stroke:black;" d="M333,889C302,923 260,969 234,996"/>
<polygon style="fill:black;stroke:black;" points="236,999 227,1004 231,994 236,999"/>
</g>
<g id="node11" class="node"><title>pushmirroraccess</title>
<polygon style="fill:#c1cdcc;stroke:#c1cdcc;" points="710,599 710,537 858,537 858,599 710,599"/>
<polygon style="fill:white;stroke:white;" points="713,554 713,540 855,540 855,554 713,554"/>
<text text-anchor="middle" style="font-size:8.00;" x="784" y="550">pushmirroraccess</text>
<polygon style="fill:none;stroke:black;" points="713,554 713,540 855,540 855,554 713,554"/>
<text text-anchor="middle" style="font-size:8.00;" x="719" y="565">id</text>
<text text-anchor="middle" style="font-size:8.00;" x="753" y="565">serial</text>
<text text-anchor="middle" style="font-size:8.00;" x="804" y="565"> PRIMARY KEY </text>
<text text-anchor="middle" style="font-size:8.00;" x="725" y="579">name</text>
<text text-anchor="middle" style="font-size:8.00;" x="751" y="579">text</text>
<text text-anchor="middle" style="font-size:8.00;" x="792" y="579"> UNIQUE </text>
<text text-anchor="middle" style="font-size:8.00;" x="727" y="593">person</text>
<text text-anchor="middle" style="font-size:8.00;" x="756" y="593">integer</text>
<text text-anchor="middle" style="font-size:8.00;" x="814" y="593"> REFERENCES person </text>
<polygon style="fill:none;stroke:black;" points="710,599 710,537 858,537 858,599 710,599"/>
</g>
<g id="node42" class="node"><title>fake_person_287</title>
<ellipse cx="912" cy="587" rx="27" ry="18" style="fill:none;stroke:red;"/>
<text text-anchor="middle" style="font-size:8.00;" x="912" y="590">person</text>
</g>
<g id="edge44" class="edge"><title>pushmirroraccess&#45;&gt;fake_person_287</title>
<path style="fill:none;stroke:black;" d="M866,580C869,580 873,581 876,581"/>
<polygon style="fill:black;stroke:black;" points="877,578 886,583 876,584 877,578"/>
</g>
</g>
</svg>
