<?xml version="1.0" encoding="UTF-8" standalone="no"?>
<!DOCTYPE svg PUBLIC "-//W3C//DTD SVG 1.0//EN"
 "http://www.w3.org/TR/2001/REC-SVG-20010904/DTD/svg10.dtd">
<!-- Generated by fdp version 2.2 (Sat Feb  5 01:37:52 UTC 2005)
     For user: (stub) Stuart Bishop,,,   Title: g    Pages: 1 -->
<svg width="759px" height="501px"
 viewBox = "-1 -1 758 500"
 xmlns="http://www.w3.org/2000/svg">
<g id="graph0" class="graph" style="font-family:Times-Roman;font-size:14.00;">
<title>g</title>
<text text-anchor="middle" style="font-size:22.00;" x="378" y="483">Mirrors</text>
<g id="node1" class="node"><title>component</title>
<polygon style="fill:#c1cdcc;stroke:#c1cdcc;" points="225,373 225,331 323,331 323,373 225,373"/>
<polygon style="fill:white;stroke:white;" points="228,346 228,334 320,334 320,346 228,346"/>
<text text-anchor="middle" style="font-size:6.00;" x="274" y="342">component</text>
<polygon style="fill:none;stroke:black;" points="228,346 228,334 320,334 320,346 228,346"/>
<text text-anchor="middle" style="font-size:6.00;" x="233" y="355">id</text>
<text text-anchor="middle" style="font-size:6.00;" x="259" y="355">serial</text>
<text text-anchor="middle" style="font-size:6.00;" x="295" y="355"> PRIMARY KEY </text>
<text text-anchor="middle" style="font-size:6.00;" x="238" y="367">name</text>
<text text-anchor="middle" style="font-size:6.00;" x="258" y="367">text</text>
<text text-anchor="middle" style="font-size:6.00;" x="286" y="367"> UNIQUE </text>
<polygon style="fill:none;stroke:black;" points="225,373 225,331 323,331 323,373 225,373"/>
</g>
<g id="node2" class="node"><title>country</title>
<polygon style="fill:#c1cdcc;stroke:#c1cdcc;" points="558,164 558,74 692,74 692,164 558,164"/>
<polygon style="fill:white;stroke:white;" points="561,89 561,77 689,77 689,89 561,89"/>
<text text-anchor="middle" style="font-size:6.00;" x="625" y="85">country</text>
<polygon style="fill:none;stroke:black;" points="561,89 561,77 689,77 689,89 561,89"/>
<text text-anchor="middle" style="font-size:6.00;" x="566" y="98">id</text>
<text text-anchor="middle" style="font-size:6.00;" x="612" y="98">serial</text>
<text text-anchor="middle" style="font-size:6.00;" x="664" y="98"> PRIMARY KEY </text>
<text text-anchor="middle" style="font-size:6.00;" x="581" y="110">iso3166code2</text>
<text text-anchor="middle" style="font-size:6.00;" x="620" y="110">character(2)</text>
<text text-anchor="middle" style="font-size:6.00;" x="655" y="110"> UNIQUE </text>
<text text-anchor="middle" style="font-size:6.00;" x="581" y="122">iso3166code3</text>
<text text-anchor="middle" style="font-size:6.00;" x="620" y="122">character(3)</text>
<text text-anchor="middle" style="font-size:6.00;" x="655" y="122"> UNIQUE </text>
<text text-anchor="middle" style="font-size:6.00;" x="571" y="134">name</text>
<text text-anchor="middle" style="font-size:6.00;" x="611" y="134">text</text>
<text text-anchor="middle" style="font-size:6.00;" x="655" y="134"> UNIQUE </text>
<text text-anchor="middle" style="font-size:6.00;" x="569" y="146">title</text>
<text text-anchor="middle" style="font-size:6.00;" x="611" y="146">text</text>
<text text-anchor="middle" style="font-size:6.00;" x="578" y="158">description</text>
<text text-anchor="middle" style="font-size:6.00;" x="611" y="158">text</text>
<polygon style="fill:none;stroke:black;" points="558,164 558,74 692,74 692,164 558,164"/>
</g>
<g id="node3" class="node"><title>mirror</title>
<polygon style="fill:#c1cdcc;stroke:#c1cdcc;" points="343,247 343,121 495,121 495,247 343,247"/>
<polygon style="fill:white;stroke:white;" points="346,136 346,124 492,124 492,136 346,136"/>
<text text-anchor="middle" style="font-size:6.00;" x="419" y="132">mirror</text>
<polygon style="fill:none;stroke:black;" points="346,136 346,124 492,124 492,136 346,136"/>
<text text-anchor="middle" style="font-size:6.00;" x="351" y="145">id</text>
<text text-anchor="middle" style="font-size:6.00;" x="402" y="145">serial</text>
<text text-anchor="middle" style="font-size:6.00;" x="451" y="145"> PRIMARY KEY </text>
<text text-anchor="middle" style="font-size:6.00;" x="357" y="157">owner</text>
<text text-anchor="middle" style="font-size:6.00;" x="404" y="157">integer</text>
<text text-anchor="middle" style="font-size:6.00;" x="458" y="157"> REFERENCES person </text>
<text text-anchor="middle" style="font-size:6.00;" x="358" y="169">baseurl</text>
<text text-anchor="middle" style="font-size:6.00;" x="401" y="169">text</text>
<text text-anchor="middle" style="font-size:6.00;" x="358" y="181">country</text>
<text text-anchor="middle" style="font-size:6.00;" x="404" y="181">integer</text>
<text text-anchor="middle" style="font-size:6.00;" x="459" y="181"> REFERENCES country </text>
<text text-anchor="middle" style="font-size:6.00;" x="356" y="193">name</text>
<text text-anchor="middle" style="font-size:6.00;" x="401" y="193">text</text>
<text text-anchor="middle" style="font-size:6.00;" x="442" y="193"> UNIQUE </text>
<text text-anchor="middle" style="font-size:6.00;" x="363" y="205">description</text>
<text text-anchor="middle" style="font-size:6.00;" x="401" y="205">text</text>
<text text-anchor="middle" style="font-size:6.00;" x="360" y="217">freshness</text>
<text text-anchor="middle" style="font-size:6.00;" x="404" y="217">integer</text>
<text text-anchor="middle" style="font-size:6.00;" x="368" y="229">lastcheckeddate</text>
<text text-anchor="middle" style="font-size:6.00;" x="409" y="229">timestamp</text>
<text text-anchor="middle" style="font-size:6.00;" x="360" y="241">approved</text>
<text text-anchor="middle" style="font-size:6.00;" x="406" y="241">boolean</text>
<polygon style="fill:none;stroke:black;" points="343,247 343,121 495,121 495,247 343,247"/>
</g>
<g id="edge4" class="edge"><title>mirror&#45;&gt;country</title>
<path style="fill:none;stroke:black;" d="M503,157C515,153 528,149 540,145"/>
<polygon style="fill:black;stroke:black;" points="539,142 550,142 541,148 539,142"/>
</g>
<g id="node7" class="node"><title>fake_person_139</title>
<ellipse cx="354" cy="23" rx="27" ry="18" style="fill:none;stroke:red;"/>
<text text-anchor="middle" style="font-size:6.00;" x="354" y="25">person</text>
</g>
<g id="edge2" class="edge"><title>mirror&#45;&gt;fake_person_139</title>
<path style="fill:none;stroke:black;" d="M392,117C383,93 372,68 365,49"/>
<polygon style="fill:black;stroke:black;" points="362,51 361,40 368,48 362,51"/>
</g>
<g id="node4" class="node"><title>mirrorcontent</title>
<polygon style="fill:#c1cdcc;stroke:#c1cdcc;" points="120,301 120,235 286,235 286,301 120,301"/>
<polygon style="fill:white;stroke:white;" points="123,250 123,238 283,238 283,250 123,250"/>
<text text-anchor="middle" style="font-size:6.00;" x="203" y="246">mirrorcontent</text>
<polygon style="fill:none;stroke:black;" points="123,250 123,238 283,238 283,250 123,250"/>
<text text-anchor="middle" style="font-size:6.00;" x="128" y="259">id</text>
<text text-anchor="middle" style="font-size:6.00;" x="180" y="259">serial</text>
<text text-anchor="middle" style="font-size:6.00;" x="220" y="259"> PRIMARY KEY </text>
<text text-anchor="middle" style="font-size:6.00;" x="134" y="271">mirror</text>
<text text-anchor="middle" style="font-size:6.00;" x="182" y="271">integer</text>
<text text-anchor="middle" style="font-size:6.00;" x="227" y="271"> REFERENCES mirror </text>
<text text-anchor="middle" style="font-size:6.00;" x="146" y="283">distroarchrelease</text>
<text text-anchor="middle" style="font-size:6.00;" x="182" y="283">integer</text>
<text text-anchor="middle" style="font-size:6.00;" x="239" y="283"> REFERENCES distroarchrelease </text>
<text text-anchor="middle" style="font-size:6.00;" x="140" y="295">component</text>
<text text-anchor="middle" style="font-size:6.00;" x="182" y="295">integer</text>
<text text-anchor="middle" style="font-size:6.00;" x="233" y="295"> REFERENCES component </text>
<polygon style="fill:none;stroke:black;" points="120,301 120,235 286,235 286,301 120,301"/>
</g>
<g id="edge10" class="edge"><title>mirrorcontent&#45;&gt;component</title>
<path style="fill:none;stroke:black;" d="M234,305C238,309 242,314 246,319"/>
<polygon style="fill:black;stroke:black;" points="249,317 252,327 243,321 249,317"/>
</g>
<g id="edge6" class="edge"><title>mirrorcontent&#45;&gt;mirror</title>
<path style="fill:none;stroke:black;" d="M294,232C304,228 315,224 325,220"/>
<polygon style="fill:black;stroke:black;" points="324,217 335,217 326,223 324,217"/>
</g>
<g id="node11" class="node"><title>fake_distroarchrelease_143</title>
<ellipse cx="38" cy="279" rx="32" ry="18" style="fill:none;stroke:red;"/>
<text text-anchor="middle" style="font-size:6.00;" x="38" y="281">distroarchrelease</text>
</g>
<g id="edge8" class="edge"><title>mirrorcontent&#45;&gt;fake_distroarchrelease_143</title>
<path style="fill:none;stroke:black;" d="M112,274C101,275 90,275 80,276"/>
<polygon style="fill:black;stroke:black;" points="80,279 70,277 80,273 80,279"/>
</g>
<g id="node5" class="node"><title>mirrorsourcecontent</title>
<polygon style="fill:#c1cdcc;stroke:#c1cdcc;" points="376,340 376,274 522,274 522,340 376,340"/>
<polygon style="fill:white;stroke:white;" points="379,289 379,277 519,277 519,289 379,289"/>
<text text-anchor="middle" style="font-size:6.00;" x="449" y="285">mirrorsourcecontent</text>
<polygon style="fill:none;stroke:black;" points="379,289 379,277 519,277 519,289 379,289"/>
<text text-anchor="middle" style="font-size:6.00;" x="384" y="298">id</text>
<text text-anchor="middle" style="font-size:6.00;" x="426" y="298">serial</text>
<text text-anchor="middle" style="font-size:6.00;" x="466" y="298"> PRIMARY KEY </text>
<text text-anchor="middle" style="font-size:6.00;" x="390" y="310">mirror</text>
<text text-anchor="middle" style="font-size:6.00;" x="428" y="310">integer</text>
<text text-anchor="middle" style="font-size:6.00;" x="473" y="310"> REFERENCES mirror </text>
<text text-anchor="middle" style="font-size:6.00;" x="397" y="322">distrorelease</text>
<text text-anchor="middle" style="font-size:6.00;" x="428" y="322">integer</text>
<text text-anchor="middle" style="font-size:6.00;" x="480" y="322"> REFERENCES distrorelease </text>
<text text-anchor="middle" style="font-size:6.00;" x="396" y="334">component</text>
<text text-anchor="middle" style="font-size:6.00;" x="428" y="334">integer</text>
<text text-anchor="middle" style="font-size:6.00;" x="479" y="334"> REFERENCES component </text>
<polygon style="fill:none;stroke:black;" points="376,340 376,274 522,274 522,340 376,340"/>
</g>
<g id="edge16" class="edge"><title>mirrorsourcecontent&#45;&gt;component</title>
<path style="fill:none;stroke:black;" d="M368,328C359,330 350,333 341,335"/>
<polygon style="fill:black;stroke:black;" points="342,338 331,338 340,332 342,338"/>
</g>
<g id="edge12" class="edge"><title>mirrorsourcecontent&#45;&gt;mirror</title>
<path style="fill:none;stroke:black;" d="M440,270C440,267 439,264 438,261"/>
<polygon style="fill:black;stroke:black;" points="435,262 435,251 441,260 435,262"/>
</g>
<g id="node15" class="node"><title>fake_distrorelease_147</title>
<ellipse cx="530" cy="440" rx="27" ry="18" style="fill:none;stroke:red;"/>
<text text-anchor="middle" style="font-size:6.00;" x="530" y="442">distrorelease</text>
</g>
<g id="edge14" class="edge"><title>mirrorsourcecontent&#45;&gt;fake_distrorelease_147</title>
<path style="fill:none;stroke:black;" d="M472,344C486,367 503,394 515,414"/>
<polygon style="fill:black;stroke:black;" points="518,413 520,423 512,416 518,413"/>
</g>
<g id="node6" class="node"><title>pushmirroraccess</title>
<polygon style="fill:#c1cdcc;stroke:#c1cdcc;" points="554,405 554,351 672,351 672,405 554,405"/>
<polygon style="fill:white;stroke:white;" points="557,366 557,354 669,354 669,366 557,366"/>
<text text-anchor="middle" style="font-size:6.00;" x="613" y="362">pushmirroraccess</text>
<polygon style="fill:none;stroke:black;" points="557,366 557,354 669,354 669,366 557,366"/>
<text text-anchor="middle" style="font-size:6.00;" x="562" y="375">id</text>
<text text-anchor="middle" style="font-size:6.00;" x="590" y="375">serial</text>
<text text-anchor="middle" style="font-size:6.00;" x="630" y="375"> PRIMARY KEY </text>
<text text-anchor="middle" style="font-size:6.00;" x="567" y="387">name</text>
<text text-anchor="middle" style="font-size:6.00;" x="589" y="387">text</text>
<text text-anchor="middle" style="font-size:6.00;" x="621" y="387"> UNIQUE </text>
<text text-anchor="middle" style="font-size:6.00;" x="568" y="399">person</text>
<text text-anchor="middle" style="font-size:6.00;" x="592" y="399">integer</text>
<text text-anchor="middle" style="font-size:6.00;" x="637" y="399"> REFERENCES person </text>
<polygon style="fill:none;stroke:black;" points="554,405 554,351 672,351 672,405 554,405"/>
</g>
<g id="node18" class="node"><title>fake_person_248</title>
<ellipse cx="724" cy="395" rx="27" ry="18" style="fill:none;stroke:red;"/>
<text text-anchor="middle" style="font-size:6.00;" x="724" y="397">person</text>
</g>
<g id="edge18" class="edge"><title>pushmirroraccess&#45;&gt;fake_person_248</title>
<path style="fill:none;stroke:black;" d="M680,388C682,388 685,389 687,389"/>
<polygon style="fill:black;stroke:black;" points="688,386 697,391 687,392 688,386"/>
</g>
</g>
</svg>
