<?xml version="1.0" encoding="UTF-8" standalone="no"?>
<!DOCTYPE svg PUBLIC "-//W3C//DTD SVG 1.0//EN"
 "http://www.w3.org/TR/2001/REC-SVG-20010904/DTD/svg10.dtd">
<!-- Generated by fdp version 2.2.1 (Tue Oct 11 01:38:21 UTC 2005)
     For user: (stub) Stuart Bishop,,,   Title: g    Pages: 1 -->
<svg width="759px" height="503px"
 viewBox = "-1 -1 758 502"
 xmlns="http://www.w3.org/2000/svg">
<g id="graph0" class="graph" style="font-family:Times-Roman;font-size:14.00;">
<title>g</title>
<text text-anchor="middle" style="font-size:22.00;" x="378" y="485">Mirrors</text>
<g id="node1" class="node"><title>component</title>
<polygon style="fill:#c1cdcc;stroke:#c1cdcc;" points="226,373 226,331 322,331 322,373 226,373"/>
<polygon style="fill:white;stroke:white;" points="229,346 229,334 319,334 319,346 229,346"/>
<text text-anchor="middle" style="font-size:6.00;" x="274" y="342">component</text>
<polygon style="fill:none;stroke:black;" points="229,346 229,334 319,334 319,346 229,346"/>
<text text-anchor="middle" style="font-size:6.00;" x="234" y="355">id</text>
<text text-anchor="middle" style="font-size:6.00;" x="259" y="355">serial</text>
<text text-anchor="middle" style="font-size:6.00;" x="295" y="355"> PRIMARY KEY </text>
<text text-anchor="middle" style="font-size:6.00;" x="239" y="367">name</text>
<text text-anchor="middle" style="font-size:6.00;" x="258" y="367">text</text>
<text text-anchor="middle" style="font-size:6.00;" x="286" y="367"> UNIQUE </text>
<polygon style="fill:none;stroke:black;" points="226,373 226,331 322,331 322,373 226,373"/>
</g>
<g id="node2" class="node"><title>country</title>
<polygon style="fill:#c1cdcc;stroke:#c1cdcc;" points="559,164 559,74 691,74 691,164 559,164"/>
<polygon style="fill:white;stroke:white;" points="562,89 562,77 688,77 688,89 562,89"/>
<text text-anchor="middle" style="font-size:6.00;" x="625" y="85">country</text>
<polygon style="fill:none;stroke:black;" points="562,89 562,77 688,77 688,89 562,89"/>
<text text-anchor="middle" style="font-size:6.00;" x="567" y="98">id</text>
<text text-anchor="middle" style="font-size:6.00;" x="612" y="98">serial</text>
<text text-anchor="middle" style="font-size:6.00;" x="664" y="98"> PRIMARY KEY </text>
<text text-anchor="middle" style="font-size:6.00;" x="582" y="110">iso3166code2</text>
<text text-anchor="middle" style="font-size:6.00;" x="620" y="110">character(2)</text>
<text text-anchor="middle" style="font-size:6.00;" x="655" y="110"> UNIQUE </text>
<text text-anchor="middle" style="font-size:6.00;" x="582" y="122">iso3166code3</text>
<text text-anchor="middle" style="font-size:6.00;" x="620" y="122">character(3)</text>
<text text-anchor="middle" style="font-size:6.00;" x="655" y="122"> UNIQUE </text>
<text text-anchor="middle" style="font-size:6.00;" x="572" y="134">name</text>
<text text-anchor="middle" style="font-size:6.00;" x="611" y="134">text</text>
<text text-anchor="middle" style="font-size:6.00;" x="655" y="134"> UNIQUE </text>
<text text-anchor="middle" style="font-size:6.00;" x="570" y="146">title</text>
<text text-anchor="middle" style="font-size:6.00;" x="611" y="146">text</text>
<text text-anchor="middle" style="font-size:6.00;" x="579" y="158">description</text>
<text text-anchor="middle" style="font-size:6.00;" x="611" y="158">text</text>
<polygon style="fill:none;stroke:black;" points="559,164 559,74 691,74 691,164 559,164"/>
</g>
<g id="node3" class="node"><title>mirror</title>
<polygon style="fill:#c1cdcc;stroke:#c1cdcc;" points="343,247 343,121 495,121 495,247 343,247"/>
<polygon style="fill:white;stroke:white;" points="346,136 346,124 492,124 492,136 346,136"/>
<text text-anchor="middle" style="font-size:6.00;" x="419" y="132">mirror</text>
<polygon style="fill:none;stroke:black;" points="346,136 346,124 492,124 492,136 346,136"/>
<text text-anchor="middle" style="font-size:6.00;" x="351" y="145">id</text>
<text text-anchor="middle" style="font-size:6.00;" x="401" y="145">serial</text>
<text text-anchor="middle" style="font-size:6.00;" x="450" y="145"> PRIMARY KEY </text>
<text text-anchor="middle" style="font-size:6.00;" x="357" y="157">owner</text>
<text text-anchor="middle" style="font-size:6.00;" x="403" y="157">integer</text>
<text text-anchor="middle" style="font-size:6.00;" x="457" y="157"> REFERENCES person </text>
<text text-anchor="middle" style="font-size:6.00;" x="358" y="169">baseurl</text>
<text text-anchor="middle" style="font-size:6.00;" x="400" y="169">text</text>
<text text-anchor="middle" style="font-size:6.00;" x="359" y="181">country</text>
<text text-anchor="middle" style="font-size:6.00;" x="403" y="181">integer</text>
<text text-anchor="middle" style="font-size:6.00;" x="459" y="181"> REFERENCES country </text>
<text text-anchor="middle" style="font-size:6.00;" x="356" y="193">name</text>
<text text-anchor="middle" style="font-size:6.00;" x="400" y="193">text</text>
<text text-anchor="middle" style="font-size:6.00;" x="441" y="193"> UNIQUE </text>
<text text-anchor="middle" style="font-size:6.00;" x="363" y="205">description</text>
<text text-anchor="middle" style="font-size:6.00;" x="400" y="205">text</text>
<text text-anchor="middle" style="font-size:6.00;" x="360" y="217">freshness</text>
<text text-anchor="middle" style="font-size:6.00;" x="403" y="217">integer</text>
<text text-anchor="middle" style="font-size:6.00;" x="368" y="229">lastcheckeddate</text>
<text text-anchor="middle" style="font-size:6.00;" x="408" y="229">timestamp</text>
<text text-anchor="middle" style="font-size:6.00;" x="360" y="241">approved</text>
<text text-anchor="middle" style="font-size:6.00;" x="405" y="241">boolean</text>
<polygon style="fill:none;stroke:black;" points="343,247 343,121 495,121 495,247 343,247"/>
</g>
<g id="edge4" class="edge"><title>mirror&#45;&gt;country</title>
<path style="fill:none;stroke:black;" d="M503,157C516,153 529,149 541,145"/>
<polygon style="fill:black;stroke:black;" points="540,142 551,142 542,148 540,142"/>
</g>
<g id="node7" class="node"><title>fake_person_152</title>
<ellipse cx="354" cy="23" rx="27" ry="18" style="fill:none;stroke:red;"/>
<text text-anchor="middle" style="font-size:6.00;" x="354" y="25">person</text>
</g>
<g id="edge2" class="edge"><title>mirror&#45;&gt;fake_person_152</title>
<path style="fill:none;stroke:black;" d="M392,117C383,93 372,68 365,49"/>
<polygon style="fill:black;stroke:black;" points="362,51 361,40 368,48 362,51"/>
</g>
<g id="node4" class="node"><title>mirrorcontent</title>
<polygon style="fill:#c1cdcc;stroke:#c1cdcc;" points="119,301 119,235 285,235 285,301 119,301"/>
<polygon style="fill:white;stroke:white;" points="122,250 122,238 282,238 282,250 122,250"/>
<text text-anchor="middle" style="font-size:6.00;" x="202" y="246">mirrorcontent</text>
<polygon style="fill:none;stroke:black;" points="122,250 122,238 282,238 282,250 122,250"/>
<text text-anchor="middle" style="font-size:6.00;" x="127" y="259">id</text>
<text text-anchor="middle" style="font-size:6.00;" x="179" y="259">serial</text>
<text text-anchor="middle" style="font-size:6.00;" x="219" y="259"> PRIMARY KEY </text>
<text text-anchor="middle" style="font-size:6.00;" x="133" y="271">mirror</text>
<text text-anchor="middle" style="font-size:6.00;" x="181" y="271">integer</text>
<text text-anchor="middle" style="font-size:6.00;" x="226" y="271"> REFERENCES mirror </text>
<text text-anchor="middle" style="font-size:6.00;" x="145" y="283">distroarchrelease</text>
<text text-anchor="middle" style="font-size:6.00;" x="181" y="283">integer</text>
<text text-anchor="middle" style="font-size:6.00;" x="238" y="283"> REFERENCES distroarchrelease </text>
<text text-anchor="middle" style="font-size:6.00;" x="139" y="295">component</text>
<text text-anchor="middle" style="font-size:6.00;" x="181" y="295">integer</text>
<text text-anchor="middle" style="font-size:6.00;" x="232" y="295"> REFERENCES component </text>
<polygon style="fill:none;stroke:black;" points="119,301 119,235 285,235 285,301 119,301"/>
</g>
<g id="edge10" class="edge"><title>mirrorcontent&#45;&gt;component</title>
<path style="fill:none;stroke:black;" d="M234,305C238,309 242,314 246,319"/>
<polygon style="fill:black;stroke:black;" points="249,317 252,327 243,321 249,317"/>
</g>
<g id="edge6" class="edge"><title>mirrorcontent&#45;&gt;mirror</title>
<path style="fill:none;stroke:black;" d="M293,233C304,229 315,225 325,221"/>
<polygon style="fill:black;stroke:black;" points="324,217 335,217 327,224 324,217"/>
</g>
<g id="node11" class="node"><title>fake_distroarchrelease_156</title>
<ellipse cx="38" cy="279" rx="32" ry="18" style="fill:none;stroke:red;"/>
<text text-anchor="middle" style="font-size:6.00;" x="38" y="281">distroarchrelease</text>
</g>
<g id="edge8" class="edge"><title>mirrorcontent&#45;&gt;fake_distroarchrelease_156</title>
<path style="fill:none;stroke:black;" d="M111,274C100,275 90,275 80,276"/>
<polygon style="fill:black;stroke:black;" points="80,279 70,277 80,273 80,279"/>
</g>
<g id="node5" class="node"><title>mirrorsourcecontent</title>
<polygon style="fill:#c1cdcc;stroke:#c1cdcc;" points="376,344 376,278 522,278 522,344 376,344"/>
<polygon style="fill:white;stroke:white;" points="379,293 379,281 519,281 519,293 379,293"/>
<text text-anchor="middle" style="font-size:6.00;" x="449" y="289">mirrorsourcecontent</text>
<polygon style="fill:none;stroke:black;" points="379,293 379,281 519,281 519,293 379,293"/>
<text text-anchor="middle" style="font-size:6.00;" x="384" y="302">id</text>
<text text-anchor="middle" style="font-size:6.00;" x="426" y="302">serial</text>
<text text-anchor="middle" style="font-size:6.00;" x="466" y="302"> PRIMARY KEY </text>
<text text-anchor="middle" style="font-size:6.00;" x="390" y="314">mirror</text>
<text text-anchor="middle" style="font-size:6.00;" x="428" y="314">integer</text>
<text text-anchor="middle" style="font-size:6.00;" x="473" y="314"> REFERENCES mirror </text>
<text text-anchor="middle" style="font-size:6.00;" x="397" y="326">distrorelease</text>
<text text-anchor="middle" style="font-size:6.00;" x="428" y="326">integer</text>
<text text-anchor="middle" style="font-size:6.00;" x="480" y="326"> REFERENCES distrorelease </text>
<text text-anchor="middle" style="font-size:6.00;" x="396" y="338">component</text>
<text text-anchor="middle" style="font-size:6.00;" x="428" y="338">integer</text>
<text text-anchor="middle" style="font-size:6.00;" x="479" y="338"> REFERENCES component </text>
<polygon style="fill:none;stroke:black;" points="376,344 376,278 522,278 522,344 376,344"/>
</g>
<g id="edge16" class="edge"><title>mirrorsourcecontent&#45;&gt;component</title>
<path style="fill:none;stroke:black;" d="M368,330C358,332 349,334 340,337"/>
<polygon style="fill:black;stroke:black;" points="340,340 330,339 339,334 340,340"/>
</g>
<g id="edge12" class="edge"><title>mirrorsourcecontent&#45;&gt;mirror</title>
<path style="fill:none;stroke:black;" d="M440,274C439,270 438,266 437,261"/>
<polygon style="fill:black;stroke:black;" points="434,261 435,251 440,260 434,261"/>
</g>
<g id="node15" class="node"><title>fake_distrorelease_160</title>
<ellipse cx="532" cy="442" rx="27" ry="18" style="fill:none;stroke:red;"/>
<text text-anchor="middle" style="font-size:6.00;" x="532" y="444">distrorelease</text>
</g>
<g id="edge14" class="edge"><title>mirrorsourcecontent&#45;&gt;fake_distrorelease_160</title>
<path style="fill:none;stroke:black;" d="M473,348C487,370 504,397 516,417"/>
<polygon style="fill:black;stroke:black;" points="519,415 521,425 513,418 519,415"/>
</g>
<g id="node6" class="node"><title>pushmirroraccess</title>
<polygon style="fill:#c1cdcc;stroke:#c1cdcc;" points="554,407 554,353 672,353 672,407 554,407"/>
<polygon style="fill:white;stroke:white;" points="557,368 557,356 669,356 669,368 557,368"/>
<text text-anchor="middle" style="font-size:6.00;" x="613" y="364">pushmirroraccess</text>
<polygon style="fill:none;stroke:black;" points="557,368 557,356 669,356 669,368 557,368"/>
<text text-anchor="middle" style="font-size:6.00;" x="562" y="377">id</text>
<text text-anchor="middle" style="font-size:6.00;" x="590" y="377">serial</text>
<text text-anchor="middle" style="font-size:6.00;" x="630" y="377"> PRIMARY KEY </text>
<text text-anchor="middle" style="font-size:6.00;" x="567" y="389">name</text>
<text text-anchor="middle" style="font-size:6.00;" x="589" y="389">text</text>
<text text-anchor="middle" style="font-size:6.00;" x="621" y="389"> UNIQUE </text>
<text text-anchor="middle" style="font-size:6.00;" x="568" y="401">person</text>
<text text-anchor="middle" style="font-size:6.00;" x="592" y="401">integer</text>
<text text-anchor="middle" style="font-size:6.00;" x="637" y="401"> REFERENCES person </text>
<polygon style="fill:none;stroke:black;" points="554,407 554,353 672,353 672,407 554,407"/>
</g>
<g id="node18" class="node"><title>fake_person_261</title>
<ellipse cx="724" cy="397" rx="27" ry="18" style="fill:none;stroke:red;"/>
<text text-anchor="middle" style="font-size:6.00;" x="724" y="399">person</text>
</g>
<g id="edge18" class="edge"><title>pushmirroraccess&#45;&gt;fake_person_261</title>
<path style="fill:none;stroke:black;" d="M680,390C682,390 685,391 687,391"/>
<polygon style="fill:black;stroke:black;" points="688,388 697,393 687,394 688,388"/>
</g>
</g>
</svg>
