<?xml version="1.0" encoding="UTF-8" standalone="no"?>
<!DOCTYPE svg PUBLIC "-//W3C//DTD SVG 1.0//EN"
 "http://www.w3.org/TR/2001/REC-SVG-20010904/DTD/svg10.dtd">
<!-- Generated by fdp version 2.2.1 (Thu Apr  6 00:32:47 UTC 2006)
     For user: (stub) Stuart Bishop,,,   Title: g    Pages: 1 -->
<svg width="2194px" height="1361px"
 viewBox = "-1 -1 2193 1360"
 xmlns="http://www.w3.org/2000/svg">
<g id="graph0" class="graph" style="font-family:Times-Roman;font-size:14.00;">
<title>g</title>
<text text-anchor="middle" style="font-size:22.00;" x="1096" y="1343">Mirrors</text>
<g id="node1" class="node"><title>component</title>
<polygon style="fill:#c1cdcc;stroke:#c1cdcc;" points="603,926 603,878 723,878 723,926 603,926"/>
<polygon style="fill:white;stroke:white;" points="606,895 606,881 720,881 720,895 606,895"/>
<text text-anchor="middle" style="font-size:8.00;" x="663" y="891">component</text>
<polygon style="fill:none;stroke:black;" points="606,895 606,881 720,881 720,895 606,895"/>
<text text-anchor="middle" style="font-size:8.00;" x="612" y="906">id</text>
<text text-anchor="middle" style="font-size:8.00;" x="643" y="906">serial</text>
<text text-anchor="middle" style="font-size:8.00;" x="688" y="906"> PRIMARY KEY </text>
<text text-anchor="middle" style="font-size:8.00;" x="618" y="920">name</text>
<text text-anchor="middle" style="font-size:8.00;" x="641" y="920">text</text>
<text text-anchor="middle" style="font-size:8.00;" x="676" y="920"> UNIQUE </text>
<polygon style="fill:none;stroke:black;" points="603,926 603,878 723,878 723,926 603,926"/>
</g>
<g id="node2" class="node"><title>continent</title>
<polygon style="fill:#c1cdcc;stroke:#c1cdcc;" points="909,71 909,9 1029,9 1029,71 909,71"/>
<polygon style="fill:white;stroke:white;" points="912,26 912,12 1026,12 1026,26 912,26"/>
<text text-anchor="middle" style="font-size:8.00;" x="969" y="22">continent</text>
<polygon style="fill:none;stroke:black;" points="912,26 912,12 1026,12 1026,26 912,26"/>
<text text-anchor="middle" style="font-size:8.00;" x="918" y="37">id</text>
<text text-anchor="middle" style="font-size:8.00;" x="949" y="37">serial</text>
<text text-anchor="middle" style="font-size:8.00;" x="994" y="37"> PRIMARY KEY </text>
<text text-anchor="middle" style="font-size:8.00;" x="922" y="51">code</text>
<text text-anchor="middle" style="font-size:8.00;" x="947" y="51">text</text>
<text text-anchor="middle" style="font-size:8.00;" x="982" y="51"> UNIQUE </text>
<text text-anchor="middle" style="font-size:8.00;" x="924" y="65">name</text>
<text text-anchor="middle" style="font-size:8.00;" x="947" y="65">text</text>
<text text-anchor="middle" style="font-size:8.00;" x="982" y="65"> UNIQUE </text>
<polygon style="fill:none;stroke:black;" points="909,71 909,9 1029,9 1029,71 909,71"/>
</g>
<g id="node3" class="node"><title>country</title>
<polygon style="fill:#c1cdcc;stroke:#c1cdcc;" points="864,417 864,299 1060,299 1060,417 864,417"/>
<polygon style="fill:white;stroke:white;" points="867,316 867,302 1057,302 1057,316 867,316"/>
<text text-anchor="middle" style="font-size:8.00;" x="962" y="312">country</text>
<polygon style="fill:none;stroke:black;" points="867,316 867,302 1057,302 1057,316 867,316"/>
<text text-anchor="middle" style="font-size:8.00;" x="873" y="327">id</text>
<text text-anchor="middle" style="font-size:8.00;" x="931" y="327">serial</text>
<text text-anchor="middle" style="font-size:8.00;" x="998" y="327"> PRIMARY KEY </text>
<text text-anchor="middle" style="font-size:8.00;" x="893" y="341">iso3166code2</text>
<text text-anchor="middle" style="font-size:8.00;" x="942" y="341">character(2)</text>
<text text-anchor="middle" style="font-size:8.00;" x="986" y="341"> UNIQUE </text>
<text text-anchor="middle" style="font-size:8.00;" x="893" y="355">iso3166code3</text>
<text text-anchor="middle" style="font-size:8.00;" x="942" y="355">character(3)</text>
<text text-anchor="middle" style="font-size:8.00;" x="986" y="355"> UNIQUE </text>
<text text-anchor="middle" style="font-size:8.00;" x="879" y="369">name</text>
<text text-anchor="middle" style="font-size:8.00;" x="929" y="369">text</text>
<text text-anchor="middle" style="font-size:8.00;" x="986" y="369"> UNIQUE </text>
<text text-anchor="middle" style="font-size:8.00;" x="876" y="383">title</text>
<text text-anchor="middle" style="font-size:8.00;" x="929" y="383">text</text>
<text text-anchor="middle" style="font-size:8.00;" x="887" y="397">description</text>
<text text-anchor="middle" style="font-size:8.00;" x="929" y="397">text</text>
<text text-anchor="middle" style="font-size:8.00;" x="885" y="411">continent</text>
<text text-anchor="middle" style="font-size:8.00;" x="934" y="411">integer</text>
<text text-anchor="middle" style="font-size:8.00;" x="1012" y="411"> REFERENCES continent </text>
<polygon style="fill:none;stroke:black;" points="864,417 864,299 1060,299 1060,417 864,417"/>
</g>
<g id="edge2" class="edge"><title>country&#45;&gt;continent</title>
<path style="fill:none;stroke:black;" d="M963,295C964,233 967,140 968,85"/>
<polygon style="fill:black;stroke:black;" points="965,85 968,75 972,85 965,85"/>
</g>
<g id="node4" class="node"><title>distributionmirror</title>
<polygon style="fill:#c1cdcc;stroke:#c1cdcc;" points="1278,786 1278,514 1490,514 1490,786 1278,786"/>
<polygon style="fill:white;stroke:white;" points="1281,531 1281,517 1487,517 1487,531 1281,531"/>
<text text-anchor="middle" style="font-size:8.00;" x="1384" y="527">distributionmirror</text>
<polygon style="fill:none;stroke:black;" points="1281,531 1281,517 1487,517 1487,531 1281,531"/>
<text text-anchor="middle" style="font-size:8.00;" x="1287" y="542">id</text>
<text text-anchor="middle" style="font-size:8.00;" x="1357" y="542">serial</text>
<text text-anchor="middle" style="font-size:8.00;" x="1411" y="542"> PRIMARY KEY </text>
<text text-anchor="middle" style="font-size:8.00;" x="1302" y="556">distribution</text>
<text text-anchor="middle" style="font-size:8.00;" x="1360" y="556">integer</text>
<text text-anchor="middle" style="font-size:8.00;" x="1428" y="556"> REFERENCES distribution </text>
<text text-anchor="middle" style="font-size:8.00;" x="1293" y="570">name</text>
<text text-anchor="middle" style="font-size:8.00;" x="1355" y="570">text</text>
<text text-anchor="middle" style="font-size:8.00;" x="1399" y="570"> UNIQUE </text>
<text text-anchor="middle" style="font-size:8.00;" x="1306" y="584">http_base_url</text>
<text text-anchor="middle" style="font-size:8.00;" x="1355" y="584">text</text>
<text text-anchor="middle" style="font-size:8.00;" x="1399" y="584"> UNIQUE </text>
<text text-anchor="middle" style="font-size:8.00;" x="1304" y="598">ftp_base_url</text>
<text text-anchor="middle" style="font-size:8.00;" x="1355" y="598">text</text>
<text text-anchor="middle" style="font-size:8.00;" x="1399" y="598"> UNIQUE </text>
<text text-anchor="middle" style="font-size:8.00;" x="1309" y="612">rsync_base_url</text>
<text text-anchor="middle" style="font-size:8.00;" x="1355" y="612">text</text>
<text text-anchor="middle" style="font-size:8.00;" x="1399" y="612"> UNIQUE </text>
<text text-anchor="middle" style="font-size:8.00;" x="1304" y="626">displayname</text>
<text text-anchor="middle" style="font-size:8.00;" x="1355" y="626">text</text>
<text text-anchor="middle" style="font-size:8.00;" x="1301" y="640">description</text>
<text text-anchor="middle" style="font-size:8.00;" x="1355" y="640">text</text>
<text text-anchor="middle" style="font-size:8.00;" x="1294" y="654">owner</text>
<text text-anchor="middle" style="font-size:8.00;" x="1360" y="654">integer</text>
<text text-anchor="middle" style="font-size:8.00;" x="1421" y="654"> REFERENCES person </text>
<text text-anchor="middle" style="font-size:8.00;" x="1293" y="668">speed</text>
<text text-anchor="middle" style="font-size:8.00;" x="1360" y="668">integer</text>
<text text-anchor="middle" style="font-size:8.00;" x="1296" y="682">country</text>
<text text-anchor="middle" style="font-size:8.00;" x="1360" y="682">integer</text>
<text text-anchor="middle" style="font-size:8.00;" x="1422" y="682"> REFERENCES country </text>
<text text-anchor="middle" style="font-size:8.00;" x="1295" y="696">content</text>
<text text-anchor="middle" style="font-size:8.00;" x="1360" y="696">integer</text>
<text text-anchor="middle" style="font-size:8.00;" x="1296" y="710">file_list</text>
<text text-anchor="middle" style="font-size:8.00;" x="1360" y="710">integer</text>
<text text-anchor="middle" style="font-size:8.00;" x="1433" y="710"> REFERENCES libraryfilealias </text>
<text text-anchor="middle" style="font-size:8.00;" x="1313" y="724">official_candidate</text>
<text text-anchor="middle" style="font-size:8.00;" x="1362" y="724">boolean</text>
<text text-anchor="middle" style="font-size:8.00;" x="1312" y="738">official_approved</text>
<text text-anchor="middle" style="font-size:8.00;" x="1362" y="738">boolean</text>
<text text-anchor="middle" style="font-size:8.00;" x="1297" y="752">enabled</text>
<text text-anchor="middle" style="font-size:8.00;" x="1362" y="752">boolean</text>
<text text-anchor="middle" style="font-size:8.00;" x="1302" y="766">pulse_type</text>
<text text-anchor="middle" style="font-size:8.00;" x="1360" y="766">integer</text>
<text text-anchor="middle" style="font-size:8.00;" x="1305" y="780">pulse_source</text>
<text text-anchor="middle" style="font-size:8.00;" x="1355" y="780">text</text>
<polygon style="fill:none;stroke:black;" points="1278,786 1278,514 1490,514 1490,786 1278,786"/>
</g>
<g id="edge8" class="edge"><title>distributionmirror&#45;&gt;country</title>
<path style="fill:none;stroke:black;" d="M1270,571C1205,526 1124,470 1061,427"/>
<polygon style="fill:black;stroke:black;" points="1059,430 1053,421 1063,424 1059,430"/>
</g>
<g id="node13" class="node"><title>fake_distribution_111</title>
<ellipse cx="1719" cy="688" rx="30" ry="18" style="fill:none;stroke:red;"/>
<text text-anchor="middle" style="font-size:8.00;" x="1719" y="691">distribution</text>
</g>
<g id="edge4" class="edge"><title>distributionmirror&#45;&gt;fake_distribution_111</title>
<path style="fill:none;stroke:black;" d="M1498,663C1561,670 1635,679 1679,684"/>
<polygon style="fill:black;stroke:black;" points="1679,681 1689,685 1679,687 1679,681"/>
</g>
<g id="node15" class="node"><title>fake_person_113</title>
<ellipse cx="1622" cy="897" rx="27" ry="18" style="fill:none;stroke:red;"/>
<text text-anchor="middle" style="font-size:8.00;" x="1622" y="900">person</text>
</g>
<g id="edge6" class="edge"><title>distributionmirror&#45;&gt;fake_person_113</title>
<path style="fill:none;stroke:black;" d="M1498,768C1537,809 1576,849 1600,874"/>
<polygon style="fill:black;stroke:black;" points="1603,872 1607,882 1598,877 1603,872"/>
</g>
<g id="node18" class="node"><title>fake_libraryfilealias_116</title>
<ellipse cx="1548" cy="346" rx="35" ry="18" style="fill:none;stroke:red;"/>
<text text-anchor="middle" style="font-size:8.00;" x="1548" y="349">libraryfilealias</text>
</g>
<g id="edge10" class="edge"><title>distributionmirror&#45;&gt;fake_libraryfilealias_116</title>
<path style="fill:none;stroke:black;" d="M1460,510C1488,458 1517,404 1534,373"/>
<polygon style="fill:black;stroke:black;" points="1531,371 1539,364 1537,374 1531,371"/>
</g>
<g id="node5" class="node"><title>mirror</title>
<polygon style="fill:#c1cdcc;stroke:#c1cdcc;" points="435,528 435,382 627,382 627,528 435,528"/>
<polygon style="fill:white;stroke:white;" points="438,399 438,385 624,385 624,399 438,399"/>
<text text-anchor="middle" style="font-size:8.00;" x="531" y="395">mirror</text>
<polygon style="fill:none;stroke:black;" points="438,399 438,385 624,385 624,399 438,399"/>
<text text-anchor="middle" style="font-size:8.00;" x="444" y="410">id</text>
<text text-anchor="middle" style="font-size:8.00;" x="508" y="410">serial</text>
<text text-anchor="middle" style="font-size:8.00;" x="570" y="410"> PRIMARY KEY </text>
<text text-anchor="middle" style="font-size:8.00;" x="451" y="424">owner</text>
<text text-anchor="middle" style="font-size:8.00;" x="511" y="424">integer</text>
<text text-anchor="middle" style="font-size:8.00;" x="580" y="424"> REFERENCES person </text>
<text text-anchor="middle" style="font-size:8.00;" x="453" y="438">baseurl</text>
<text text-anchor="middle" style="font-size:8.00;" x="506" y="438">text</text>
<text text-anchor="middle" style="font-size:8.00;" x="453" y="452">country</text>
<text text-anchor="middle" style="font-size:8.00;" x="511" y="452">integer</text>
<text text-anchor="middle" style="font-size:8.00;" x="581" y="452"> REFERENCES country </text>
<text text-anchor="middle" style="font-size:8.00;" x="450" y="466">name</text>
<text text-anchor="middle" style="font-size:8.00;" x="506" y="466">text</text>
<text text-anchor="middle" style="font-size:8.00;" x="558" y="466"> UNIQUE </text>
<text text-anchor="middle" style="font-size:8.00;" x="458" y="480">description</text>
<text text-anchor="middle" style="font-size:8.00;" x="506" y="480">text</text>
<text text-anchor="middle" style="font-size:8.00;" x="456" y="494">freshness</text>
<text text-anchor="middle" style="font-size:8.00;" x="511" y="494">integer</text>
<text text-anchor="middle" style="font-size:8.00;" x="467" y="508">lastcheckeddate</text>
<text text-anchor="middle" style="font-size:8.00;" x="517" y="508">timestamp</text>
<text text-anchor="middle" style="font-size:8.00;" x="456" y="522">approved</text>
<text text-anchor="middle" style="font-size:8.00;" x="513" y="522">boolean</text>
<polygon style="fill:none;stroke:black;" points="435,528 435,382 627,382 627,528 435,528"/>
</g>
<g id="edge14" class="edge"><title>mirror&#45;&gt;country</title>
<path style="fill:none;stroke:black;" d="M635,432C699,418 780,399 846,384"/>
<polygon style="fill:black;stroke:black;" points="846,381 856,382 847,387 846,381"/>
</g>
<g id="node20" class="node"><title>fake_person_173</title>
<ellipse cx="366" cy="232" rx="27" ry="18" style="fill:none;stroke:red;"/>
<text text-anchor="middle" style="font-size:8.00;" x="366" y="235">person</text>
</g>
<g id="edge12" class="edge"><title>mirror&#45;&gt;fake_person_173</title>
<path style="fill:none;stroke:black;" d="M474,378C442,335 406,285 384,256"/>
<polygon style="fill:black;stroke:black;" points="381,258 378,248 387,254 381,258"/>
</g>
<g id="node6" class="node"><title>mirrorcontent</title>
<polygon style="fill:#c1cdcc;stroke:#c1cdcc;" points="224,761 224,685 438,685 438,761 224,761"/>
<polygon style="fill:white;stroke:white;" points="227,702 227,688 435,688 435,702 227,702"/>
<text text-anchor="middle" style="font-size:8.00;" x="331" y="698">mirrorcontent</text>
<polygon style="fill:none;stroke:black;" points="227,702 227,688 435,688 435,702 227,702"/>
<text text-anchor="middle" style="font-size:8.00;" x="233" y="713">id</text>
<text text-anchor="middle" style="font-size:8.00;" x="300" y="713">serial</text>
<text text-anchor="middle" style="font-size:8.00;" x="351" y="713"> PRIMARY KEY </text>
<text text-anchor="middle" style="font-size:8.00;" x="240" y="727">mirror</text>
<text text-anchor="middle" style="font-size:8.00;" x="303" y="727">integer</text>
<text text-anchor="middle" style="font-size:8.00;" x="360" y="727"> REFERENCES mirror </text>
<text text-anchor="middle" style="font-size:8.00;" x="257" y="741">distroarchrelease</text>
<text text-anchor="middle" style="font-size:8.00;" x="303" y="741">integer</text>
<text text-anchor="middle" style="font-size:8.00;" x="377" y="741"> REFERENCES distroarchrelease </text>
<text text-anchor="middle" style="font-size:8.00;" x="248" y="755">component</text>
<text text-anchor="middle" style="font-size:8.00;" x="303" y="755">integer</text>
<text text-anchor="middle" style="font-size:8.00;" x="368" y="755"> REFERENCES component </text>
<polygon style="fill:none;stroke:black;" points="224,761 224,685 438,685 438,761 224,761"/>
</g>
<g id="edge20" class="edge"><title>mirrorcontent&#45;&gt;component</title>
<path style="fill:none;stroke:black;" d="M415,765C438,777 462,789 484,801 525,823 571,849 606,869"/>
<polygon style="fill:black;stroke:black;" points="608,866 615,874 605,872 608,866"/>
</g>
<g id="edge16" class="edge"><title>mirrorcontent&#45;&gt;mirror</title>
<path style="fill:none;stroke:black;" d="M362,681C390,643 432,587 467,540"/>
<polygon style="fill:black;stroke:black;" points="464,538 473,532 470,542 464,538"/>
</g>
<g id="node24" class="node"><title>fake_distroarchrelease_179</title>
<ellipse cx="45" cy="683" rx="39" ry="18" style="fill:none;stroke:red;"/>
<text text-anchor="middle" style="font-size:8.00;" x="45" y="686">distroarchrelease</text>
</g>
<g id="edge18" class="edge"><title>mirrorcontent&#45;&gt;fake_distroarchrelease_179</title>
<path style="fill:none;stroke:black;" d="M216,707C173,701 126,694 93,690"/>
<polygon style="fill:black;stroke:black;" points="92,693 83,688 93,687 92,693"/>
</g>
<g id="node7" class="node"><title>mirrordistroarchrelease</title>
<polygon style="fill:#c1cdcc;stroke:#c1cdcc;" points="934,1074 934,970 1158,970 1158,1074 934,1074"/>
<polygon style="fill:white;stroke:white;" points="937,987 937,973 1155,973 1155,987 937,987"/>
<text text-anchor="middle" style="font-size:8.00;" x="1046" y="983">mirrordistroarchrelease</text>
<polygon style="fill:none;stroke:black;" points="937,987 937,973 1155,973 1155,987 937,987"/>
<text text-anchor="middle" style="font-size:8.00;" x="943" y="998">id</text>
<text text-anchor="middle" style="font-size:8.00;" x="1017" y="998">serial</text>
<text text-anchor="middle" style="font-size:8.00;" x="1068" y="998"> PRIMARY KEY </text>
<text text-anchor="middle" style="font-size:8.00;" x="970" y="1012">distribution_mirror</text>
<text text-anchor="middle" style="font-size:8.00;" x="1020" y="1012">integer</text>
<text text-anchor="middle" style="font-size:8.00;" x="1096" y="1012"> REFERENCES distributionmirror </text>
<text text-anchor="middle" style="font-size:8.00;" x="971" y="1026">distro_arch_release</text>
<text text-anchor="middle" style="font-size:8.00;" x="1020" y="1026">integer</text>
<text text-anchor="middle" style="font-size:8.00;" x="1094" y="1026"> REFERENCES distroarchrelease </text>
<text text-anchor="middle" style="font-size:8.00;" x="949" y="1040">status</text>
<text text-anchor="middle" style="font-size:8.00;" x="1020" y="1040">integer</text>
<text text-anchor="middle" style="font-size:8.00;" x="951" y="1054">pocket</text>
<text text-anchor="middle" style="font-size:8.00;" x="1020" y="1054">integer</text>
<text text-anchor="middle" style="font-size:8.00;" x="958" y="1068">component</text>
<text text-anchor="middle" style="font-size:8.00;" x="1020" y="1068">integer</text>
<text text-anchor="middle" style="font-size:8.00;" x="1085" y="1068"> REFERENCES component </text>
<polygon style="fill:none;stroke:black;" points="934,1074 934,970 1158,970 1158,1074 934,1074"/>
</g>
<g id="edge26" class="edge"><title>mirrordistroarchrelease&#45;&gt;component</title>
<path style="fill:none;stroke:black;" d="M926,984C866,965 794,943 741,926"/>
<polygon style="fill:black;stroke:black;" points="740,929 731,923 742,923 740,929"/>
</g>
<g id="edge22" class="edge"><title>mirrordistroarchrelease&#45;&gt;distributionmirror</title>
<path style="fill:none;stroke:black;" d="M1097,966C1140,918 1206,846 1263,784"/>
<polygon style="fill:black;stroke:black;" points="1261,781 1270,776 1266,786 1261,781"/>
</g>
<g id="node28" class="node"><title>fake_distroarchrelease_183</title>
<ellipse cx="1155" cy="1300" rx="39" ry="18" style="fill:none;stroke:red;"/>
<text text-anchor="middle" style="font-size:8.00;" x="1155" y="1303">distroarchrelease</text>
</g>
<g id="edge24" class="edge"><title>mirrordistroarchrelease&#45;&gt;fake_distroarchrelease_183</title>
<path style="fill:none;stroke:black;" d="M1068,1078C1091,1137 1127,1228 1144,1273"/>
<polygon style="fill:black;stroke:black;" points="1147,1271 1148,1282 1141,1274 1147,1271"/>
</g>
<g id="node8" class="node"><title>mirrordistroreleasesource</title>
<polygon style="fill:#c1cdcc;stroke:#c1cdcc;" points="859,943 859,839 1083,839 1083,943 859,943"/>
<polygon style="fill:white;stroke:white;" points="862,856 862,842 1080,842 1080,856 862,856"/>
<text text-anchor="middle" style="font-size:8.00;" x="971" y="852">mirrordistroreleasesource</text>
<polygon style="fill:none;stroke:black;" points="862,856 862,842 1080,842 1080,856 862,856"/>
<text text-anchor="middle" style="font-size:8.00;" x="868" y="867">id</text>
<text text-anchor="middle" style="font-size:8.00;" x="942" y="867">serial</text>
<text text-anchor="middle" style="font-size:8.00;" x="993" y="867"> PRIMARY KEY </text>
<text text-anchor="middle" style="font-size:8.00;" x="895" y="881">distribution_mirror</text>
<text text-anchor="middle" style="font-size:8.00;" x="945" y="881">integer</text>
<text text-anchor="middle" style="font-size:8.00;" x="1021" y="881"> REFERENCES distributionmirror </text>
<text text-anchor="middle" style="font-size:8.00;" x="885" y="895">distrorelease</text>
<text text-anchor="middle" style="font-size:8.00;" x="945" y="895">integer</text>
<text text-anchor="middle" style="font-size:8.00;" x="1012" y="895"> REFERENCES distrorelease </text>
<text text-anchor="middle" style="font-size:8.00;" x="874" y="909">status</text>
<text text-anchor="middle" style="font-size:8.00;" x="945" y="909">integer</text>
<text text-anchor="middle" style="font-size:8.00;" x="876" y="923">pocket</text>
<text text-anchor="middle" style="font-size:8.00;" x="945" y="923">integer</text>
<text text-anchor="middle" style="font-size:8.00;" x="883" y="937">component</text>
<text text-anchor="middle" style="font-size:8.00;" x="945" y="937">integer</text>
<text text-anchor="middle" style="font-size:8.00;" x="1010" y="937"> REFERENCES component </text>
<polygon style="fill:none;stroke:black;" points="859,943 859,839 1083,839 1083,943 859,943"/>
</g>
<g id="edge32" class="edge"><title>mirrordistroreleasesource&#45;&gt;component</title>
<path style="fill:none;stroke:black;" d="M851,895C814,896 774,898 741,899"/>
<polygon style="fill:black;stroke:black;" points="741,902 731,899 741,895 741,902"/>
</g>
<g id="edge28" class="edge"><title>mirrordistroreleasesource&#45;&gt;distributionmirror</title>
<path style="fill:none;stroke:black;" d="M1067,835C1125,802 1199,758 1261,722"/>
<polygon style="fill:black;stroke:black;" points="1260,719 1270,717 1263,725 1260,719"/>
</g>
<g id="node32" class="node"><title>fake_distrorelease_187</title>
<ellipse cx="895" cy="1185" rx="32" ry="18" style="fill:none;stroke:red;"/>
<text text-anchor="middle" style="font-size:8.00;" x="895" y="1188">distrorelease</text>
</g>
<g id="edge30" class="edge"><title>mirrordistroreleasesource&#45;&gt;fake_distrorelease_187</title>
<path style="fill:none;stroke:black;" d="M927,947C925,952 922,958 920,963 895,1029 893,1114 894,1157"/>
<polygon style="fill:black;stroke:black;" points="898,1157 894,1167 891,1157 898,1157"/>
</g>
<g id="node9" class="node"><title>mirrorproberecord</title>
<polygon style="fill:#c1cdcc;stroke:#c1cdcc;" points="1760,513 1760,437 1994,437 1994,513 1760,513"/>
<polygon style="fill:white;stroke:white;" points="1763,454 1763,440 1991,440 1991,454 1763,454"/>
<text text-anchor="middle" style="font-size:8.00;" x="1877" y="450">mirrorproberecord</text>
<polygon style="fill:none;stroke:black;" points="1763,454 1763,440 1991,440 1991,454 1763,454"/>
<text text-anchor="middle" style="font-size:8.00;" x="1769" y="465">id</text>
<text text-anchor="middle" style="font-size:8.00;" x="1842" y="465">serial</text>
<text text-anchor="middle" style="font-size:8.00;" x="1904" y="465"> PRIMARY KEY </text>
<text text-anchor="middle" style="font-size:8.00;" x="1796" y="479">distribution_mirror</text>
<text text-anchor="middle" style="font-size:8.00;" x="1845" y="479">integer</text>
<text text-anchor="middle" style="font-size:8.00;" x="1932" y="479"> REFERENCES distributionmirror </text>
<text text-anchor="middle" style="font-size:8.00;" x="1779" y="493">log_file</text>
<text text-anchor="middle" style="font-size:8.00;" x="1845" y="493">integer</text>
<text text-anchor="middle" style="font-size:8.00;" x="1926" y="493"> REFERENCES libraryfilealias </text>
<text text-anchor="middle" style="font-size:8.00;" x="1786" y="507">date_created</text>
<text text-anchor="middle" style="font-size:8.00;" x="1851" y="507">timestamp</text>
<polygon style="fill:none;stroke:black;" points="1760,513 1760,437 1994,437 1994,513 1760,513"/>
</g>
<g id="edge34" class="edge"><title>mirrorproberecord&#45;&gt;distributionmirror</title>
<path style="fill:none;stroke:black;" d="M1759,517C1683,544 1584,579 1508,607"/>
<polygon style="fill:black;stroke:black;" points="1509,610 1498,610 1507,604 1509,610"/>
</g>
<g id="node36" class="node"><title>fake_libraryfilealias_191</title>
<ellipse cx="2151" cy="388" rx="35" ry="18" style="fill:none;stroke:red;"/>
<text text-anchor="middle" style="font-size:8.00;" x="2151" y="391">libraryfilealias</text>
</g>
<g id="edge36" class="edge"><title>mirrorproberecord&#45;&gt;fake_libraryfilealias_191</title>
<path style="fill:none;stroke:black;" d="M2002,435C2041,422 2082,410 2111,400"/>
<polygon style="fill:black;stroke:black;" points="2110,397 2121,397 2112,403 2110,397"/>
</g>
<g id="node10" class="node"><title>mirrorsourcecontent</title>
<polygon style="fill:#c1cdcc;stroke:#c1cdcc;" points="285,883 285,807 471,807 471,883 285,883"/>
<polygon style="fill:white;stroke:white;" points="288,824 288,810 468,810 468,824 288,824"/>
<text text-anchor="middle" style="font-size:8.00;" x="378" y="820">mirrorsourcecontent</text>
<polygon style="fill:none;stroke:black;" points="288,824 288,810 468,810 468,824 288,824"/>
<text text-anchor="middle" style="font-size:8.00;" x="294" y="835">id</text>
<text text-anchor="middle" style="font-size:8.00;" x="347" y="835">serial</text>
<text text-anchor="middle" style="font-size:8.00;" x="398" y="835"> PRIMARY KEY </text>
<text text-anchor="middle" style="font-size:8.00;" x="301" y="849">mirror</text>
<text text-anchor="middle" style="font-size:8.00;" x="350" y="849">integer</text>
<text text-anchor="middle" style="font-size:8.00;" x="407" y="849"> REFERENCES mirror </text>
<text text-anchor="middle" style="font-size:8.00;" x="311" y="863">distrorelease</text>
<text text-anchor="middle" style="font-size:8.00;" x="350" y="863">integer</text>
<text text-anchor="middle" style="font-size:8.00;" x="417" y="863"> REFERENCES distrorelease </text>
<text text-anchor="middle" style="font-size:8.00;" x="309" y="877">component</text>
<text text-anchor="middle" style="font-size:8.00;" x="350" y="877">integer</text>
<text text-anchor="middle" style="font-size:8.00;" x="415" y="877"> REFERENCES component </text>
<polygon style="fill:none;stroke:black;" points="285,883 285,807 471,807 471,883 285,883"/>
</g>
<g id="edge42" class="edge"><title>mirrorsourcecontent&#45;&gt;component</title>
<path style="fill:none;stroke:black;" d="M479,865C513,872 552,880 585,887"/>
<polygon style="fill:black;stroke:black;" points="586,884 595,889 585,890 586,884"/>
</g>
<g id="edge38" class="edge"><title>mirrorsourcecontent&#45;&gt;mirror</title>
<path style="fill:none;stroke:black;" d="M425,803C435,792 445,780 452,767 491,697 511,608 521,542"/>
<polygon style="fill:black;stroke:black;" points="518,541 523,532 524,542 518,541"/>
</g>
<g id="node39" class="node"><title>fake_distrorelease_194</title>
<ellipse cx="167" cy="1005" rx="32" ry="18" style="fill:none;stroke:red;"/>
<text text-anchor="middle" style="font-size:8.00;" x="167" y="1008">distrorelease</text>
</g>
<g id="edge40" class="edge"><title>mirrorsourcecontent&#45;&gt;fake_distrorelease_194</title>
<path style="fill:none;stroke:black;" d="M323,887C282,918 227,960 194,984"/>
<polygon style="fill:black;stroke:black;" points="196,987 186,990 192,981 196,987"/>
</g>
<g id="node11" class="node"><title>pushmirroraccess</title>
<polygon style="fill:#c1cdcc;stroke:#c1cdcc;" points="931,657 931,595 1079,595 1079,657 931,657"/>
<polygon style="fill:white;stroke:white;" points="934,612 934,598 1076,598 1076,612 934,612"/>
<text text-anchor="middle" style="font-size:8.00;" x="1005" y="608">pushmirroraccess</text>
<polygon style="fill:none;stroke:black;" points="934,612 934,598 1076,598 1076,612 934,612"/>
<text text-anchor="middle" style="font-size:8.00;" x="940" y="623">id</text>
<text text-anchor="middle" style="font-size:8.00;" x="974" y="623">serial</text>
<text text-anchor="middle" style="font-size:8.00;" x="1025" y="623"> PRIMARY KEY </text>
<text text-anchor="middle" style="font-size:8.00;" x="946" y="637">name</text>
<text text-anchor="middle" style="font-size:8.00;" x="972" y="637">text</text>
<text text-anchor="middle" style="font-size:8.00;" x="1013" y="637"> UNIQUE </text>
<text text-anchor="middle" style="font-size:8.00;" x="948" y="651">person</text>
<text text-anchor="middle" style="font-size:8.00;" x="977" y="651">integer</text>
<text text-anchor="middle" style="font-size:8.00;" x="1035" y="651"> REFERENCES person </text>
<polygon style="fill:none;stroke:black;" points="931,657 931,595 1079,595 1079,657 931,657"/>
</g>
<g id="node42" class="node"><title>fake_person_306</title>
<ellipse cx="1134" cy="645" rx="27" ry="18" style="fill:none;stroke:red;"/>
<text text-anchor="middle" style="font-size:8.00;" x="1134" y="648">person</text>
</g>
<g id="edge44" class="edge"><title>pushmirroraccess&#45;&gt;fake_person_306</title>
<path style="fill:none;stroke:black;" d="M1087,638C1090,638 1094,639 1097,639"/>
<polygon style="fill:black;stroke:black;" points="1098,636 1107,641 1097,642 1098,636"/>
</g>
</g>
</svg>
