<?xml version="1.0" encoding="UTF-8" standalone="no"?>
<!DOCTYPE svg PUBLIC "-//W3C//DTD SVG 1.0//EN"
 "http://www.w3.org/TR/2001/REC-SVG-20010904/DTD/svg10.dtd">
<!-- Generated by fdp version 2.2.1 (Thu Apr  6 00:32:47 UTC 2006)
     For user: (stub) Stuart Bishop,,,   Title: g    Pages: 1 -->
<svg width="991px" height="730px"
 viewBox = "-1 -1 990 729"
 xmlns="http://www.w3.org/2000/svg">
<g id="graph0" class="graph" style="font-family:Times-Roman;font-size:14.00;">
<title>g</title>
<text text-anchor="middle" style="font-size:22.00;" x="494" y="712">Misc</text>
<g id="node1" class="node"><title>fticache</title>
<polygon style="fill:#c1cdcc;stroke:#c1cdcc;" points="354,139 354,77 490,77 490,139 354,139"/>
<polygon style="fill:white;stroke:white;" points="357,94 357,80 487,80 487,94 357,94"/>
<text text-anchor="middle" style="font-size:8.00;" x="422" y="90">fticache</text>
<polygon style="fill:none;stroke:black;" points="357,94 357,80 487,80 487,94 357,94"/>
<text text-anchor="middle" style="font-size:8.00;" x="363" y="105">id</text>
<text text-anchor="middle" style="font-size:8.00;" x="410" y="105">serial</text>
<text text-anchor="middle" style="font-size:8.00;" x="455" y="105"> PRIMARY KEY </text>
<text text-anchor="middle" style="font-size:8.00;" x="377" y="119">tablename</text>
<text text-anchor="middle" style="font-size:8.00;" x="408" y="119">text</text>
<text text-anchor="middle" style="font-size:8.00;" x="443" y="119"> UNIQUE </text>
<text text-anchor="middle" style="font-size:8.00;" x="373" y="133">columns</text>
<text text-anchor="middle" style="font-size:8.00;" x="408" y="133">text</text>
<polygon style="fill:none;stroke:black;" points="354,139 354,77 490,77 490,139 354,139"/>
</g>
<g id="node2" class="node"><title>label</title>
<polygon style="fill:#c1cdcc;stroke:#c1cdcc;" points="14,489 14,399 210,399 210,489 14,489"/>
<polygon style="fill:white;stroke:white;" points="17,416 17,402 207,402 207,416 17,416"/>
<text text-anchor="middle" style="font-size:8.00;" x="112" y="412">label</text>
<polygon style="fill:none;stroke:black;" points="17,416 17,402 207,402 207,416 17,416"/>
<text text-anchor="middle" style="font-size:8.00;" x="23" y="427">id</text>
<text text-anchor="middle" style="font-size:8.00;" x="70" y="427">serial</text>
<text text-anchor="middle" style="font-size:8.00;" x="121" y="427"> PRIMARY KEY </text>
<text text-anchor="middle" style="font-size:8.00;" x="32" y="441">schema</text>
<text text-anchor="middle" style="font-size:8.00;" x="73" y="441">integer</text>
<text text-anchor="middle" style="font-size:8.00;" x="148" y="441"> REFERENCES schema UNIQUE </text>
<text text-anchor="middle" style="font-size:8.00;" x="29" y="455">name</text>
<text text-anchor="middle" style="font-size:8.00;" x="68" y="455">text</text>
<text text-anchor="middle" style="font-size:8.00;" x="109" y="455"> UNIQUE </text>
<text text-anchor="middle" style="font-size:8.00;" x="26" y="469">title</text>
<text text-anchor="middle" style="font-size:8.00;" x="68" y="469">text</text>
<text text-anchor="middle" style="font-size:8.00;" x="37" y="483">description</text>
<text text-anchor="middle" style="font-size:8.00;" x="68" y="483">text</text>
<polygon style="fill:none;stroke:black;" points="14,489 14,399 210,399 210,489 14,489"/>
</g>
<g id="node11" class="node"><title>schema</title>
<polygon style="fill:#c1cdcc;stroke:#c1cdcc;" points="76,373 76,269 240,269 240,373 76,373"/>
<polygon style="fill:white;stroke:white;" points="79,286 79,272 237,272 237,286 79,286"/>
<text text-anchor="middle" style="font-size:8.00;" x="158" y="282">schema</text>
<polygon style="fill:none;stroke:black;" points="79,286 79,272 237,272 237,286 79,286"/>
<text text-anchor="middle" style="font-size:8.00;" x="85" y="297">id</text>
<text text-anchor="middle" style="font-size:8.00;" x="132" y="297">serial</text>
<text text-anchor="middle" style="font-size:8.00;" x="186" y="297"> PRIMARY KEY </text>
<text text-anchor="middle" style="font-size:8.00;" x="91" y="311">name</text>
<text text-anchor="middle" style="font-size:8.00;" x="130" y="311">text</text>
<text text-anchor="middle" style="font-size:8.00;" x="88" y="325">title</text>
<text text-anchor="middle" style="font-size:8.00;" x="130" y="325">text</text>
<text text-anchor="middle" style="font-size:8.00;" x="99" y="339">description</text>
<text text-anchor="middle" style="font-size:8.00;" x="130" y="339">text</text>
<text text-anchor="middle" style="font-size:8.00;" x="92" y="353">owner</text>
<text text-anchor="middle" style="font-size:8.00;" x="135" y="353">integer</text>
<text text-anchor="middle" style="font-size:8.00;" x="196" y="353"> REFERENCES person </text>
<text text-anchor="middle" style="font-size:8.00;" x="98" y="367">extensible</text>
<text text-anchor="middle" style="font-size:8.00;" x="137" y="367">boolean</text>
<polygon style="fill:none;stroke:black;" points="76,373 76,269 240,269 240,373 76,373"/>
</g>
<g id="edge2" class="edge"><title>label&#45;&gt;schema</title>
<path style="fill:none;stroke:black;" d="M130,395C131,392 132,389 133,386"/>
<polygon style="fill:black;stroke:black;" points="130,385 137,377 136,388 130,385"/>
</g>
<g id="node3" class="node"><title>launchpaddatabaserevision</title>
<polygon style="fill:#c1cdcc;stroke:#c1cdcc;" points="626,71 626,9 754,9 754,71 626,71"/>
<polygon style="fill:white;stroke:white;" points="629,26 629,12 751,12 751,26 629,26"/>
<text text-anchor="middle" style="font-size:8.00;" x="690" y="22">launchpaddatabaserevision</text>
<polygon style="fill:none;stroke:black;" points="629,26 629,12 751,12 751,26 629,26"/>
<text text-anchor="middle" style="font-size:8.00;" x="641" y="37">major</text>
<text text-anchor="middle" style="font-size:8.00;" x="671" y="37">integer</text>
<text text-anchor="middle" style="font-size:8.00;" x="719" y="37"> PRIMARY KEY </text>
<text text-anchor="middle" style="font-size:8.00;" x="642" y="51">minor</text>
<text text-anchor="middle" style="font-size:8.00;" x="671" y="51">integer</text>
<text text-anchor="middle" style="font-size:8.00;" x="719" y="51"> PRIMARY KEY </text>
<text text-anchor="middle" style="font-size:8.00;" x="641" y="65">patch</text>
<text text-anchor="middle" style="font-size:8.00;" x="671" y="65">integer</text>
<text text-anchor="middle" style="font-size:8.00;" x="719" y="65"> PRIMARY KEY </text>
<polygon style="fill:none;stroke:black;" points="626,71 626,9 754,9 754,71 626,71"/>
</g>
<g id="node4" class="node"><title>launchpadstatistic</title>
<polygon style="fill:#c1cdcc;stroke:#c1cdcc;" points="626,173 626,97 784,97 784,173 626,173"/>
<polygon style="fill:white;stroke:white;" points="629,114 629,100 781,100 781,114 629,114"/>
<text text-anchor="middle" style="font-size:8.00;" x="705" y="110">launchpadstatistic</text>
<polygon style="fill:none;stroke:black;" points="629,114 629,100 781,100 781,114 629,114"/>
<text text-anchor="middle" style="font-size:8.00;" x="635" y="125">id</text>
<text text-anchor="middle" style="font-size:8.00;" x="687" y="125">serial</text>
<text text-anchor="middle" style="font-size:8.00;" x="749" y="125"> PRIMARY KEY </text>
<text text-anchor="middle" style="font-size:8.00;" x="641" y="139">name</text>
<text text-anchor="middle" style="font-size:8.00;" x="685" y="139">text</text>
<text text-anchor="middle" style="font-size:8.00;" x="737" y="139"> UNIQUE </text>
<text text-anchor="middle" style="font-size:8.00;" x="641" y="153">value</text>
<text text-anchor="middle" style="font-size:8.00;" x="690" y="153">integer</text>
<text text-anchor="middle" style="font-size:8.00;" x="651" y="167">dateupdated</text>
<text text-anchor="middle" style="font-size:8.00;" x="696" y="167">timestamp</text>
<polygon style="fill:none;stroke:black;" points="626,173 626,97 784,97 784,173 626,173"/>
</g>
<g id="node5" class="node"><title>libraryfilealias</title>
<polygon style="fill:#c1cdcc;stroke:#c1cdcc;" points="558,303 558,199 774,199 774,303 558,303"/>
<polygon style="fill:white;stroke:white;" points="561,216 561,202 771,202 771,216 561,216"/>
<text text-anchor="middle" style="font-size:8.00;" x="666" y="212">libraryfilealias</text>
<polygon style="fill:none;stroke:black;" points="561,216 561,202 771,202 771,216 561,216"/>
<text text-anchor="middle" style="font-size:8.00;" x="567" y="227">id</text>
<text text-anchor="middle" style="font-size:8.00;" x="624" y="227">serial</text>
<text text-anchor="middle" style="font-size:8.00;" x="686" y="227"> PRIMARY KEY </text>
<text text-anchor="middle" style="font-size:8.00;" x="575" y="241">content</text>
<text text-anchor="middle" style="font-size:8.00;" x="627" y="241">integer</text>
<text text-anchor="middle" style="font-size:8.00;" x="713" y="241"> REFERENCES libraryfilecontent </text>
<text text-anchor="middle" style="font-size:8.00;" x="578" y="255">filename</text>
<text text-anchor="middle" style="font-size:8.00;" x="622" y="255">text</text>
<text text-anchor="middle" style="font-size:8.00;" x="580" y="269">mimetype</text>
<text text-anchor="middle" style="font-size:8.00;" x="622" y="269">text</text>
<text text-anchor="middle" style="font-size:8.00;" x="576" y="283">expires</text>
<text text-anchor="middle" style="font-size:8.00;" x="633" y="283">timestamp</text>
<text text-anchor="middle" style="font-size:8.00;" x="586" y="297">last_accessed</text>
<text text-anchor="middle" style="font-size:8.00;" x="633" y="297">timestamp</text>
<polygon style="fill:none;stroke:black;" points="558,303 558,199 774,199 774,303 558,303"/>
</g>
<g id="node6" class="node"><title>libraryfilecontent</title>
<polygon style="fill:#c1cdcc;stroke:#c1cdcc;" points="807,343 807,225 975,225 975,343 807,343"/>
<polygon style="fill:white;stroke:white;" points="810,242 810,228 972,228 972,242 810,242"/>
<text text-anchor="middle" style="font-size:8.00;" x="891" y="238">libraryfilecontent</text>
<polygon style="fill:none;stroke:black;" points="810,242 810,228 972,228 972,242 810,242"/>
<text text-anchor="middle" style="font-size:8.00;" x="816" y="253">id</text>
<text text-anchor="middle" style="font-size:8.00;" x="869" y="253">serial</text>
<text text-anchor="middle" style="font-size:8.00;" x="940" y="253"> PRIMARY KEY </text>
<text text-anchor="middle" style="font-size:8.00;" x="831" y="267">datecreated</text>
<text text-anchor="middle" style="font-size:8.00;" x="878" y="267">timestamp</text>
<text text-anchor="middle" style="font-size:8.00;" x="833" y="281">datemirrored</text>
<text text-anchor="middle" style="font-size:8.00;" x="878" y="281">timestamp</text>
<text text-anchor="middle" style="font-size:8.00;" x="825" y="295">filesize</text>
<text text-anchor="middle" style="font-size:8.00;" x="872" y="295">integer</text>
<text text-anchor="middle" style="font-size:8.00;" x="820" y="309">sha1</text>
<text text-anchor="middle" style="font-size:8.00;" x="882" y="309">character(40)</text>
<text text-anchor="middle" style="font-size:8.00;" x="824" y="323">deleted</text>
<text text-anchor="middle" style="font-size:8.00;" x="874" y="323">boolean</text>
<text text-anchor="middle" style="font-size:8.00;" x="820" y="337">md5</text>
<text text-anchor="middle" style="font-size:8.00;" x="882" y="337">character(32)</text>
<polygon style="fill:none;stroke:black;" points="807,343 807,225 975,225 975,343 807,343"/>
</g>
<g id="edge4" class="edge"><title>libraryfilealias&#45;&gt;libraryfilecontent</title>
<path style="fill:none;stroke:black;" d="M782,268C784,268 787,269 789,269"/>
<polygon style="fill:black;stroke:black;" points="789,266 799,270 789,272 789,266"/>
</g>
<g id="node7" class="node"><title>person</title>
<polygon style="fill:#c1cdcc;stroke:#c1cdcc;" points="274,561 274,163 532,163 532,561 274,561"/>
<polygon style="fill:white;stroke:white;" points="277,180 277,166 529,166 529,180 277,180"/>
<text text-anchor="middle" style="font-size:8.00;" x="403" y="176">person</text>
<polygon style="fill:none;stroke:black;" points="277,180 277,166 529,166 529,180 277,180"/>
<text text-anchor="middle" style="font-size:8.00;" x="283" y="191">id</text>
<text text-anchor="middle" style="font-size:8.00;" x="378" y="191">serial</text>
<text text-anchor="middle" style="font-size:8.00;" x="440" y="191"> PRIMARY KEY </text>
<text text-anchor="middle" style="font-size:8.00;" x="300" y="205">displayname</text>
<text text-anchor="middle" style="font-size:8.00;" x="376" y="205">text</text>
<text text-anchor="middle" style="font-size:8.00;" x="295" y="219">password</text>
<text text-anchor="middle" style="font-size:8.00;" x="376" y="219">text</text>
<text text-anchor="middle" style="font-size:8.00;" x="298" y="233">teamowner</text>
<text text-anchor="middle" style="font-size:8.00;" x="381" y="233">integer</text>
<text text-anchor="middle" style="font-size:8.00;" x="450" y="233"> REFERENCES person </text>
<text text-anchor="middle" style="font-size:8.00;" x="306" y="247">teamdescription</text>
<text text-anchor="middle" style="font-size:8.00;" x="376" y="247">text</text>
<text text-anchor="middle" style="font-size:8.00;" x="289" y="261">name</text>
<text text-anchor="middle" style="font-size:8.00;" x="376" y="261">text</text>
<text text-anchor="middle" style="font-size:8.00;" x="295" y="275">language</text>
<text text-anchor="middle" style="font-size:8.00;" x="381" y="275">integer</text>
<text text-anchor="middle" style="font-size:8.00;" x="454" y="275"> REFERENCES language </text>
<text text-anchor="middle" style="font-size:8.00;" x="284" y="289">fti</text>
<text text-anchor="middle" style="font-size:8.00;" x="383" y="289">tsvector</text>
<text text-anchor="middle" style="font-size:8.00;" x="321" y="303">defaultmembershipperiod</text>
<text text-anchor="middle" style="font-size:8.00;" x="381" y="303">integer</text>
<text text-anchor="middle" style="font-size:8.00;" x="314" y="317">defaultrenewalperiod</text>
<text text-anchor="middle" style="font-size:8.00;" x="381" y="317">integer</text>
<text text-anchor="middle" style="font-size:8.00;" x="309" y="331">subscriptionpolicy</text>
<text text-anchor="middle" style="font-size:8.00;" x="381" y="331">integer</text>
<text text-anchor="middle" style="font-size:8.00;" x="292" y="345">merged</text>
<text text-anchor="middle" style="font-size:8.00;" x="381" y="345">integer</text>
<text text-anchor="middle" style="font-size:8.00;" x="450" y="345"> REFERENCES person </text>
<text text-anchor="middle" style="font-size:8.00;" x="298" y="359">datecreated</text>
<text text-anchor="middle" style="font-size:8.00;" x="387" y="359">timestamp</text>
<text text-anchor="middle" style="font-size:8.00;" x="293" y="373">calendar</text>
<text text-anchor="middle" style="font-size:8.00;" x="381" y="373">integer</text>
<text text-anchor="middle" style="font-size:8.00;" x="469" y="373"> REFERENCES calendar UNIQUE </text>
<text text-anchor="middle" style="font-size:8.00;" x="295" y="387">timezone</text>
<text text-anchor="middle" style="font-size:8.00;" x="376" y="387">text</text>
<text text-anchor="middle" style="font-size:8.00;" x="300" y="401">addressline1</text>
<text text-anchor="middle" style="font-size:8.00;" x="376" y="401">text</text>
<text text-anchor="middle" style="font-size:8.00;" x="300" y="415">addressline2</text>
<text text-anchor="middle" style="font-size:8.00;" x="376" y="415">text</text>
<text text-anchor="middle" style="font-size:8.00;" x="300" y="429">organization</text>
<text text-anchor="middle" style="font-size:8.00;" x="376" y="429">text</text>
<text text-anchor="middle" style="font-size:8.00;" x="286" y="443">city</text>
<text text-anchor="middle" style="font-size:8.00;" x="376" y="443">text</text>
<text text-anchor="middle" style="font-size:8.00;" x="294" y="457">province</text>
<text text-anchor="middle" style="font-size:8.00;" x="376" y="457">text</text>
<text text-anchor="middle" style="font-size:8.00;" x="292" y="471">country</text>
<text text-anchor="middle" style="font-size:8.00;" x="381" y="471">integer</text>
<text text-anchor="middle" style="font-size:8.00;" x="451" y="471"> REFERENCES country </text>
<text text-anchor="middle" style="font-size:8.00;" x="294" y="485">postcode</text>
<text text-anchor="middle" style="font-size:8.00;" x="376" y="485">text</text>
<text text-anchor="middle" style="font-size:8.00;" x="290" y="499">phone</text>
<text text-anchor="middle" style="font-size:8.00;" x="376" y="499">text</text>
<text text-anchor="middle" style="font-size:8.00;" x="311" y="513">homepage_content</text>
<text text-anchor="middle" style="font-size:8.00;" x="376" y="513">text</text>
<text text-anchor="middle" style="font-size:8.00;" x="293" y="527">emblem</text>
<text text-anchor="middle" style="font-size:8.00;" x="381" y="527">integer</text>
<text text-anchor="middle" style="font-size:8.00;" x="462" y="527"> REFERENCES libraryfilealias </text>
<text text-anchor="middle" style="font-size:8.00;" x="301" y="541">hackergotchi</text>
<text text-anchor="middle" style="font-size:8.00;" x="381" y="541">integer</text>
<text text-anchor="middle" style="font-size:8.00;" x="462" y="541"> REFERENCES libraryfilealias </text>
<text text-anchor="middle" style="font-size:8.00;" x="315" y="555">hide_email_addresses</text>
<text text-anchor="middle" style="font-size:8.00;" x="383" y="555">boolean</text>
<polygon style="fill:none;stroke:black;" points="274,561 274,163 532,163 532,561 274,561"/>
</g>
<g id="edge6" class="edge"><title>person&#45;&gt;person</title>
<path style="fill:none;stroke:black;" d="M540,420C551,407 558,388 558,362 558,341 553,325 546,312"/>
<polygon style="fill:black;stroke:black;" points="543,314 540,304 549,310 543,314"/>
</g>
<g id="edge10" class="edge"><title>person&#45;&gt;person</title>
<path style="fill:none;stroke:black;" d="M540,500C562,480 576,433 576,362 576,299 565,255 547,232"/>
<polygon style="fill:black;stroke:black;" points="544,234 540,224 549,229 544,234"/>
</g>
<g id="node15" class="node"><title>fake_language_201</title>
<ellipse cx="584" cy="351" rx="27" ry="18" style="fill:none;stroke:red;"/>
<text text-anchor="middle" style="font-size:8.00;" x="584" y="354">language</text>
</g>
<g id="edge8" class="edge"><title>person&#45;&gt;fake_language_201</title>
<path style="fill:none;stroke:black;" d="M540,354C542,354 545,354 547,354"/>
<polygon style="fill:black;stroke:black;" points="547,351 557,353 547,357 547,351"/>
</g>
<g id="node18" class="node"><title>fake_calendar_204</title>
<ellipse cx="559" cy="95" rx="27" ry="18" style="fill:none;stroke:red;"/>
<text text-anchor="middle" style="font-size:8.00;" x="559" y="98">calendar</text>
</g>
<g id="edge12" class="edge"><title>person&#45;&gt;fake_calendar_204</title>
<path style="fill:none;stroke:black;" d="M522,159C530,144 538,131 544,121"/>
<polygon style="fill:black;stroke:black;" points="541,119 549,112 547,122 541,119"/>
</g>
<g id="node20" class="node"><title>fake_country_206</title>
<ellipse cx="395" cy="669" rx="27" ry="18" style="fill:none;stroke:red;"/>
<text text-anchor="middle" style="font-size:8.00;" x="395" y="672">country</text>
</g>
<g id="edge14" class="edge"><title>person&#45;&gt;fake_country_206</title>
<path style="fill:none;stroke:black;" d="M398,565C397,594 396,622 395,641"/>
<polygon style="fill:black;stroke:black;" points="399,641 395,651 392,641 399,641"/>
</g>
<g id="node22" class="node"><title>fake_libraryfilealias_208</title>
<ellipse cx="625" cy="586" rx="35" ry="18" style="fill:none;stroke:red;"/>
<text text-anchor="middle" style="font-size:8.00;" x="625" y="589">libraryfilealias</text>
</g>
<g id="edge16" class="edge"><title>person&#45;&gt;fake_libraryfilealias_208</title>
<path style="fill:none;stroke:black;" d="M540,500C564,524 586,547 602,563"/>
<polygon style="fill:black;stroke:black;" points="604,560 609,570 599,565 604,560"/>
</g>
<g id="node24" class="node"><title>fake_libraryfilealias_210</title>
<ellipse cx="283" cy="68" rx="35" ry="18" style="fill:none;stroke:red;"/>
<text text-anchor="middle" style="font-size:8.00;" x="283" y="71">libraryfilealias</text>
</g>
<g id="edge18" class="edge"><title>person&#45;&gt;fake_libraryfilealias_210</title>
<path style="fill:none;stroke:black;" d="M320,159C310,134 301,112 294,96"/>
<polygon style="fill:black;stroke:black;" points="290,97 290,86 297,94 290,97"/>
</g>
<g id="node8" class="node"><title>personlabel</title>
<polygon style="fill:#c1cdcc;stroke:#c1cdcc;" points="92,562 92,514 240,514 240,562 92,562"/>
<polygon style="fill:white;stroke:white;" points="95,531 95,517 237,517 237,531 95,531"/>
<text text-anchor="middle" style="font-size:8.00;" x="166" y="527">personlabel</text>
<polygon style="fill:none;stroke:black;" points="95,531 95,517 237,517 237,531 95,531"/>
<text text-anchor="middle" style="font-size:8.00;" x="109" y="542">person</text>
<text text-anchor="middle" style="font-size:8.00;" x="138" y="542">integer</text>
<text text-anchor="middle" style="font-size:8.00;" x="196" y="542"> REFERENCES person </text>
<text text-anchor="middle" style="font-size:8.00;" x="106" y="556">label</text>
<text text-anchor="middle" style="font-size:8.00;" x="138" y="556">integer</text>
<text text-anchor="middle" style="font-size:8.00;" x="193" y="556"> REFERENCES label </text>
<polygon style="fill:none;stroke:black;" points="92,562 92,514 240,514 240,562 92,562"/>
</g>
<g id="edge22" class="edge"><title>personlabel&#45;&gt;label</title>
<path style="fill:none;stroke:black;" d="M150,510C148,507 147,505 145,502"/>
<polygon style="fill:black;stroke:black;" points="142,503 140,493 148,500 142,503"/>
</g>
<g id="edge20" class="edge"><title>personlabel&#45;&gt;person</title>
<path style="fill:none;stroke:black;" d="M204,510C219,499 238,485 258,470"/>
<polygon style="fill:black;stroke:black;" points="256,467 266,464 260,473 256,467"/>
</g>
<g id="node9" class="node"><title>processor</title>
<polygon style="fill:#c1cdcc;stroke:#c1cdcc;" points="592,491 592,401 784,401 784,491 592,491"/>
<polygon style="fill:white;stroke:white;" points="595,418 595,404 781,404 781,418 595,418"/>
<text text-anchor="middle" style="font-size:8.00;" x="688" y="414">processor</text>
<polygon style="fill:none;stroke:black;" points="595,418 595,404 781,404 781,418 595,418"/>
<text text-anchor="middle" style="font-size:8.00;" x="601" y="429">id</text>
<text text-anchor="middle" style="font-size:8.00;" x="649" y="429">serial</text>
<text text-anchor="middle" style="font-size:8.00;" x="700" y="429"> PRIMARY KEY </text>
<text text-anchor="middle" style="font-size:8.00;" x="609" y="443">family</text>
<text text-anchor="middle" style="font-size:8.00;" x="652" y="443">integer</text>
<text text-anchor="middle" style="font-size:8.00;" x="725" y="443"> REFERENCES processorfamily </text>
<text text-anchor="middle" style="font-size:8.00;" x="607" y="457">name</text>
<text text-anchor="middle" style="font-size:8.00;" x="647" y="457">text</text>
<text text-anchor="middle" style="font-size:8.00;" x="688" y="457"> UNIQUE </text>
<text text-anchor="middle" style="font-size:8.00;" x="604" y="471">title</text>
<text text-anchor="middle" style="font-size:8.00;" x="647" y="471">text</text>
<text text-anchor="middle" style="font-size:8.00;" x="615" y="485">description</text>
<text text-anchor="middle" style="font-size:8.00;" x="647" y="485">text</text>
<polygon style="fill:none;stroke:black;" points="592,491 592,401 784,401 784,491 592,491"/>
</g>
<g id="node10" class="node"><title>processorfamily</title>
<polygon style="fill:#c1cdcc;stroke:#c1cdcc;" points="817,513 817,437 953,437 953,513 817,513"/>
<polygon style="fill:white;stroke:white;" points="820,454 820,440 950,440 950,454 820,454"/>
<text text-anchor="middle" style="font-size:8.00;" x="885" y="450">processorfamily</text>
<polygon style="fill:none;stroke:black;" points="820,454 820,440 950,440 950,454 820,454"/>
<text text-anchor="middle" style="font-size:8.00;" x="826" y="465">id</text>
<text text-anchor="middle" style="font-size:8.00;" x="873" y="465">serial</text>
<text text-anchor="middle" style="font-size:8.00;" x="918" y="465"> PRIMARY KEY </text>
<text text-anchor="middle" style="font-size:8.00;" x="832" y="479">name</text>
<text text-anchor="middle" style="font-size:8.00;" x="871" y="479">text</text>
<text text-anchor="middle" style="font-size:8.00;" x="906" y="479"> UNIQUE </text>
<text text-anchor="middle" style="font-size:8.00;" x="829" y="493">title</text>
<text text-anchor="middle" style="font-size:8.00;" x="871" y="493">text</text>
<text text-anchor="middle" style="font-size:8.00;" x="840" y="507">description</text>
<text text-anchor="middle" style="font-size:8.00;" x="871" y="507">text</text>
<polygon style="fill:none;stroke:black;" points="817,513 817,437 953,437 953,513 817,513"/>
</g>
<g id="edge24" class="edge"><title>processor&#45;&gt;processorfamily</title>
<path style="fill:none;stroke:black;" d="M792,461C794,461 797,462 799,462"/>
<polygon style="fill:black;stroke:black;" points="799,459 809,463 799,465 799,459"/>
</g>
<g id="edge26" class="edge"><title>schema&#45;&gt;person</title>
<path style="fill:none;stroke:black;" d="M248,336C251,336 253,337 256,337"/>
<polygon style="fill:black;stroke:black;" points="257,334 266,339 256,340 257,334"/>
</g>
</g>
</svg>
