<?xml version="1.0" encoding="UTF-8" standalone="no"?>
<!DOCTYPE svg PUBLIC "-//W3C//DTD SVG 1.0//EN"
 "http://www.w3.org/TR/2001/REC-SVG-20010904/DTD/svg10.dtd">
<!-- Generated by fdp version 2.2.1 (Tue Oct 11 01:38:21 UTC 2005)
     For user: (stub) Stuart Bishop,,,   Title: g    Pages: 1 -->
<svg width="756px" height="535px"
 viewBox = "-1 -1 755 534"
 xmlns="http://www.w3.org/2000/svg">
<g id="graph0" class="graph" transform = "scale(0.767988)"
 style="font-family:Times-Roman;font-size:14.00;">
<title>g</title>
<text text-anchor="middle" style="font-size:22.00;" x="489" y="678">Misc</text>
<g id="node1" class="node"><title>label</title>
<polygon style="fill:#c1cdcc;stroke:#c1cdcc;" points="14,498 14,420 170,420 170,498 14,498"/>
<polygon style="fill:white;stroke:white;" points="17,435 17,423 167,423 167,435 17,435"/>
<text text-anchor="middle" style="font-size:6.00;" x="92" y="431">label</text>
<polygon style="fill:none;stroke:black;" points="17,435 17,423 167,423 167,435 17,435"/>
<text text-anchor="middle" style="font-size:6.00;" x="22" y="444">id</text>
<text text-anchor="middle" style="font-size:6.00;" x="62" y="444">serial</text>
<text text-anchor="middle" style="font-size:6.00;" x="102" y="444"> PRIMARY KEY </text>
<text text-anchor="middle" style="font-size:6.00;" x="29" y="456">schema</text>
<text text-anchor="middle" style="font-size:6.00;" x="64" y="456">integer</text>
<text text-anchor="middle" style="font-size:6.00;" x="122" y="456"> REFERENCES schema UNIQUE </text>
<text text-anchor="middle" style="font-size:6.00;" x="27" y="468">name</text>
<text text-anchor="middle" style="font-size:6.00;" x="61" y="468">text</text>
<text text-anchor="middle" style="font-size:6.00;" x="93" y="468"> UNIQUE </text>
<text text-anchor="middle" style="font-size:6.00;" x="25" y="480">title</text>
<text text-anchor="middle" style="font-size:6.00;" x="61" y="480">text</text>
<text text-anchor="middle" style="font-size:6.00;" x="34" y="492">description</text>
<text text-anchor="middle" style="font-size:6.00;" x="61" y="492">text</text>
<polygon style="fill:none;stroke:black;" points="14,498 14,420 170,420 170,498 14,498"/>
</g>
<g id="node10" class="node"><title>schema</title>
<polygon style="fill:#c1cdcc;stroke:#c1cdcc;" points="211,393 211,303 343,303 343,393 211,393"/>
<polygon style="fill:white;stroke:white;" points="214,318 214,306 340,306 340,318 214,318"/>
<text text-anchor="middle" style="font-size:6.00;" x="277" y="314">schema</text>
<polygon style="fill:none;stroke:black;" points="214,318 214,306 340,306 340,318 214,318"/>
<text text-anchor="middle" style="font-size:6.00;" x="219" y="327">id</text>
<text text-anchor="middle" style="font-size:6.00;" x="258" y="327">serial</text>
<text text-anchor="middle" style="font-size:6.00;" x="301" y="327"> PRIMARY KEY </text>
<text text-anchor="middle" style="font-size:6.00;" x="224" y="339">name</text>
<text text-anchor="middle" style="font-size:6.00;" x="257" y="339">text</text>
<text text-anchor="middle" style="font-size:6.00;" x="222" y="351">title</text>
<text text-anchor="middle" style="font-size:6.00;" x="257" y="351">text</text>
<text text-anchor="middle" style="font-size:6.00;" x="231" y="363">description</text>
<text text-anchor="middle" style="font-size:6.00;" x="257" y="363">text</text>
<text text-anchor="middle" style="font-size:6.00;" x="225" y="375">owner</text>
<text text-anchor="middle" style="font-size:6.00;" x="260" y="375">integer</text>
<text text-anchor="middle" style="font-size:6.00;" x="308" y="375"> REFERENCES person </text>
<text text-anchor="middle" style="font-size:6.00;" x="229" y="387">extensible</text>
<text text-anchor="middle" style="font-size:6.00;" x="262" y="387">boolean</text>
<polygon style="fill:none;stroke:black;" points="211,393 211,303 343,303 343,393 211,393"/>
</g>
<g id="edge2" class="edge"><title>label&#45;&gt;schema</title>
<path style="fill:none;stroke:black;" d="M164,416C174,410 184,404 194,398"/>
<polygon style="fill:black;stroke:black;" points="193,395 203,393 196,401 193,395"/>
</g>
<g id="node2" class="node"><title>launchpaddatabaserevision</title>
<polygon style="fill:#c1cdcc;stroke:#c1cdcc;" points="374,145 374,91 476,91 476,145 374,145"/>
<polygon style="fill:white;stroke:white;" points="377,106 377,94 473,94 473,106 377,106"/>
<text text-anchor="middle" style="font-size:6.00;" x="425" y="102">launchpaddatabaserevision</text>
<polygon style="fill:none;stroke:black;" points="377,106 377,94 473,94 473,106 377,106"/>
<text text-anchor="middle" style="font-size:6.00;" x="387" y="115">major</text>
<text text-anchor="middle" style="font-size:6.00;" x="411" y="115">integer</text>
<text text-anchor="middle" style="font-size:6.00;" x="449" y="115"> PRIMARY KEY </text>
<text text-anchor="middle" style="font-size:6.00;" x="387" y="127">minor</text>
<text text-anchor="middle" style="font-size:6.00;" x="411" y="127">integer</text>
<text text-anchor="middle" style="font-size:6.00;" x="449" y="127"> PRIMARY KEY </text>
<text text-anchor="middle" style="font-size:6.00;" x="387" y="139">patch</text>
<text text-anchor="middle" style="font-size:6.00;" x="411" y="139">integer</text>
<text text-anchor="middle" style="font-size:6.00;" x="449" y="139"> PRIMARY KEY </text>
<polygon style="fill:none;stroke:black;" points="374,145 374,91 476,91 476,145 374,145"/>
</g>
<g id="node3" class="node"><title>launchpadstatistic</title>
<polygon style="fill:#c1cdcc;stroke:#c1cdcc;" points="194,289 194,223 320,223 320,289 194,289"/>
<polygon style="fill:white;stroke:white;" points="197,238 197,226 317,226 317,238 197,238"/>
<text text-anchor="middle" style="font-size:6.00;" x="257" y="234">launchpadstatistic</text>
<polygon style="fill:none;stroke:black;" points="197,238 197,226 317,226 317,238 197,238"/>
<text text-anchor="middle" style="font-size:6.00;" x="202" y="247">id</text>
<text text-anchor="middle" style="font-size:6.00;" x="244" y="247">serial</text>
<text text-anchor="middle" style="font-size:6.00;" x="293" y="247"> PRIMARY KEY </text>
<text text-anchor="middle" style="font-size:6.00;" x="207" y="259">name</text>
<text text-anchor="middle" style="font-size:6.00;" x="243" y="259">text</text>
<text text-anchor="middle" style="font-size:6.00;" x="284" y="259"> UNIQUE </text>
<text text-anchor="middle" style="font-size:6.00;" x="207" y="271">value</text>
<text text-anchor="middle" style="font-size:6.00;" x="246" y="271">integer</text>
<text text-anchor="middle" style="font-size:6.00;" x="215" y="283">dateupdated</text>
<text text-anchor="middle" style="font-size:6.00;" x="251" y="283">timestamp</text>
<polygon style="fill:none;stroke:black;" points="194,289 194,223 320,223 320,289 194,289"/>
</g>
<g id="node4" class="node"><title>libraryfilealias</title>
<polygon style="fill:#c1cdcc;stroke:#c1cdcc;" points="626,225 626,135 796,135 796,225 626,225"/>
<polygon style="fill:white;stroke:white;" points="629,150 629,138 793,138 793,150 629,150"/>
<text text-anchor="middle" style="font-size:6.00;" x="711" y="146">libraryfilealias</text>
<polygon style="fill:none;stroke:black;" points="629,150 629,138 793,138 793,150 629,150"/>
<text text-anchor="middle" style="font-size:6.00;" x="634" y="159">id</text>
<text text-anchor="middle" style="font-size:6.00;" x="679" y="159">serial</text>
<text text-anchor="middle" style="font-size:6.00;" x="728" y="159"> PRIMARY KEY </text>
<text text-anchor="middle" style="font-size:6.00;" x="641" y="171">content</text>
<text text-anchor="middle" style="font-size:6.00;" x="681" y="171">integer</text>
<text text-anchor="middle" style="font-size:6.00;" x="748" y="171"> REFERENCES libraryfilecontent </text>
<text text-anchor="middle" style="font-size:6.00;" x="643" y="183">filename</text>
<text text-anchor="middle" style="font-size:6.00;" x="678" y="183">text</text>
<text text-anchor="middle" style="font-size:6.00;" x="644" y="195">mimetype</text>
<text text-anchor="middle" style="font-size:6.00;" x="678" y="195">text</text>
<text text-anchor="middle" style="font-size:6.00;" x="641" y="207">expires</text>
<text text-anchor="middle" style="font-size:6.00;" x="686" y="207">timestamp</text>
<text text-anchor="middle" style="font-size:6.00;" x="648" y="219">last_accessed</text>
<text text-anchor="middle" style="font-size:6.00;" x="686" y="219">timestamp</text>
<polygon style="fill:none;stroke:black;" points="626,225 626,135 796,135 796,225 626,225"/>
</g>
<g id="node5" class="node"><title>libraryfilecontent</title>
<polygon style="fill:#c1cdcc;stroke:#c1cdcc;" points="831,253 831,163 965,163 965,253 831,253"/>
<polygon style="fill:white;stroke:white;" points="834,178 834,166 962,166 962,178 834,178"/>
<text text-anchor="middle" style="font-size:6.00;" x="898" y="174">libraryfilecontent</text>
<polygon style="fill:none;stroke:black;" points="834,178 834,166 962,166 962,178 834,178"/>
<text text-anchor="middle" style="font-size:6.00;" x="839" y="187">id</text>
<text text-anchor="middle" style="font-size:6.00;" x="882" y="187">serial</text>
<text text-anchor="middle" style="font-size:6.00;" x="938" y="187"> PRIMARY KEY </text>
<text text-anchor="middle" style="font-size:6.00;" x="851" y="199">datecreated</text>
<text text-anchor="middle" style="font-size:6.00;" x="889" y="199">timestamp</text>
<text text-anchor="middle" style="font-size:6.00;" x="853" y="211">datemirrored</text>
<text text-anchor="middle" style="font-size:6.00;" x="889" y="211">timestamp</text>
<text text-anchor="middle" style="font-size:6.00;" x="846" y="223">filesize</text>
<text text-anchor="middle" style="font-size:6.00;" x="884" y="223">integer</text>
<text text-anchor="middle" style="font-size:6.00;" x="842" y="235">sha1</text>
<text text-anchor="middle" style="font-size:6.00;" x="892" y="235">character(40)</text>
<text text-anchor="middle" style="font-size:6.00;" x="846" y="247">deleted</text>
<text text-anchor="middle" style="font-size:6.00;" x="886" y="247">boolean</text>
<polygon style="fill:none;stroke:black;" points="831,253 831,163 965,163 965,253 831,253"/>
</g>
<g id="edge4" class="edge"><title>libraryfilealias&#45;&gt;libraryfilecontent</title>
<path style="fill:none;stroke:black;" d="M804,194C807,194 810,195 813,195"/>
<polygon style="fill:black;stroke:black;" points="814,192 823,197 813,198 814,192"/>
</g>
<g id="node6" class="node"><title>person</title>
<polygon style="fill:#c1cdcc;stroke:#c1cdcc;" points="379,531 379,165 581,165 581,531 379,531"/>
<polygon style="fill:white;stroke:white;" points="382,180 382,168 578,168 578,180 382,180"/>
<text text-anchor="middle" style="font-size:6.00;" x="480" y="176">person</text>
<polygon style="fill:none;stroke:black;" points="382,180 382,168 578,168 578,180 382,180"/>
<text text-anchor="middle" style="font-size:6.00;" x="387" y="189">id</text>
<text text-anchor="middle" style="font-size:6.00;" x="462" y="189">serial</text>
<text text-anchor="middle" style="font-size:6.00;" x="511" y="189"> PRIMARY KEY </text>
<text text-anchor="middle" style="font-size:6.00;" x="400" y="201">displayname</text>
<text text-anchor="middle" style="font-size:6.00;" x="461" y="201">text</text>
<text text-anchor="middle" style="font-size:6.00;" x="398" y="213">givenname</text>
<text text-anchor="middle" style="font-size:6.00;" x="461" y="213">text</text>
<text text-anchor="middle" style="font-size:6.00;" x="399" y="225">familyname</text>
<text text-anchor="middle" style="font-size:6.00;" x="461" y="225">text</text>
<text text-anchor="middle" style="font-size:6.00;" x="396" y="237">password</text>
<text text-anchor="middle" style="font-size:6.00;" x="461" y="237">text</text>
<text text-anchor="middle" style="font-size:6.00;" x="398" y="249">teamowner</text>
<text text-anchor="middle" style="font-size:6.00;" x="464" y="249">integer</text>
<text text-anchor="middle" style="font-size:6.00;" x="518" y="249"> REFERENCES person </text>
<text text-anchor="middle" style="font-size:6.00;" x="405" y="261">teamdescription</text>
<text text-anchor="middle" style="font-size:6.00;" x="461" y="261">text</text>
<text text-anchor="middle" style="font-size:6.00;" x="392" y="273">name</text>
<text text-anchor="middle" style="font-size:6.00;" x="461" y="273">text</text>
<text text-anchor="middle" style="font-size:6.00;" x="396" y="285">language</text>
<text text-anchor="middle" style="font-size:6.00;" x="464" y="285">integer</text>
<text text-anchor="middle" style="font-size:6.00;" x="521" y="285"> REFERENCES language </text>
<text text-anchor="middle" style="font-size:6.00;" x="388" y="297">fti</text>
<text text-anchor="middle" style="font-size:6.00;" x="466" y="297">tsvector</text>
<text text-anchor="middle" style="font-size:6.00;" x="416" y="309">defaultmembershipperiod</text>
<text text-anchor="middle" style="font-size:6.00;" x="464" y="309">integer</text>
<text text-anchor="middle" style="font-size:6.00;" x="411" y="321">defaultrenewalperiod</text>
<text text-anchor="middle" style="font-size:6.00;" x="464" y="321">integer</text>
<text text-anchor="middle" style="font-size:6.00;" x="407" y="333">subscriptionpolicy</text>
<text text-anchor="middle" style="font-size:6.00;" x="464" y="333">integer</text>
<text text-anchor="middle" style="font-size:6.00;" x="394" y="345">merged</text>
<text text-anchor="middle" style="font-size:6.00;" x="464" y="345">integer</text>
<text text-anchor="middle" style="font-size:6.00;" x="518" y="345"> REFERENCES person </text>
<text text-anchor="middle" style="font-size:6.00;" x="399" y="357">datecreated</text>
<text text-anchor="middle" style="font-size:6.00;" x="469" y="357">timestamp</text>
<text text-anchor="middle" style="font-size:6.00;" x="395" y="369">calendar</text>
<text text-anchor="middle" style="font-size:6.00;" x="464" y="369">integer</text>
<text text-anchor="middle" style="font-size:6.00;" x="532" y="369"> REFERENCES calendar UNIQUE </text>
<text text-anchor="middle" style="font-size:6.00;" x="396" y="381">timezone</text>
<text text-anchor="middle" style="font-size:6.00;" x="461" y="381">text</text>
<text text-anchor="middle" style="font-size:6.00;" x="393" y="393">karma</text>
<text text-anchor="middle" style="font-size:6.00;" x="464" y="393">integer</text>
<text text-anchor="middle" style="font-size:6.00;" x="400" y="405">addressline1</text>
<text text-anchor="middle" style="font-size:6.00;" x="461" y="405">text</text>
<text text-anchor="middle" style="font-size:6.00;" x="400" y="417">addressline2</text>
<text text-anchor="middle" style="font-size:6.00;" x="461" y="417">text</text>
<text text-anchor="middle" style="font-size:6.00;" x="400" y="429">organization</text>
<text text-anchor="middle" style="font-size:6.00;" x="461" y="429">text</text>
<text text-anchor="middle" style="font-size:6.00;" x="390" y="441">city</text>
<text text-anchor="middle" style="font-size:6.00;" x="461" y="441">text</text>
<text text-anchor="middle" style="font-size:6.00;" x="396" y="453">province</text>
<text text-anchor="middle" style="font-size:6.00;" x="461" y="453">text</text>
<text text-anchor="middle" style="font-size:6.00;" x="395" y="465">country</text>
<text text-anchor="middle" style="font-size:6.00;" x="464" y="465">integer</text>
<text text-anchor="middle" style="font-size:6.00;" x="520" y="465"> REFERENCES country </text>
<text text-anchor="middle" style="font-size:6.00;" x="396" y="477">postcode</text>
<text text-anchor="middle" style="font-size:6.00;" x="461" y="477">text</text>
<text text-anchor="middle" style="font-size:6.00;" x="393" y="489">phone</text>
<text text-anchor="middle" style="font-size:6.00;" x="461" y="489">text</text>
<text text-anchor="middle" style="font-size:6.00;" x="408" y="501">homepage_content</text>
<text text-anchor="middle" style="font-size:6.00;" x="461" y="501">text</text>
<text text-anchor="middle" style="font-size:6.00;" x="395" y="513">emblem</text>
<text text-anchor="middle" style="font-size:6.00;" x="464" y="513">integer</text>
<text text-anchor="middle" style="font-size:6.00;" x="528" y="513"> REFERENCES libraryfilealias </text>
<text text-anchor="middle" style="font-size:6.00;" x="401" y="525">hackergotchi</text>
<text text-anchor="middle" style="font-size:6.00;" x="464" y="525">integer</text>
<text text-anchor="middle" style="font-size:6.00;" x="528" y="525"> REFERENCES libraryfilealias </text>
<polygon style="fill:none;stroke:black;" points="379,531 379,165 581,165 581,531 379,531"/>
</g>
<g id="edge6" class="edge"><title>person&#45;&gt;person</title>
<path style="fill:none;stroke:black;" d="M589,405C600,393 607,375 607,348 607,326 603,311 595,299"/>
<polygon style="fill:black;stroke:black;" points="592,301 589,291 598,297 592,301"/>
</g>
<g id="edge10" class="edge"><title>person&#45;&gt;person</title>
<path style="fill:none;stroke:black;" d="M589,481C610,465 625,421 625,348 625,284 613,242 596,222"/>
<polygon style="fill:black;stroke:black;" points="594,225 589,215 599,220 594,225"/>
</g>
<g id="node14" class="node"><title>fake_language_173</title>
<ellipse cx="635" cy="308" rx="27" ry="18" style="fill:none;stroke:red;"/>
<text text-anchor="middle" style="font-size:6.00;" x="635" y="310">language</text>
</g>
<g id="edge8" class="edge"><title>person&#45;&gt;fake_language_173</title>
<path style="fill:none;stroke:black;" d="M589,320C593,319 597,318 600,317"/>
<polygon style="fill:black;stroke:black;" points="600,314 610,315 601,320 600,314"/>
</g>
<g id="node17" class="node"><title>fake_calendar_176</title>
<ellipse cx="551" cy="59" rx="27" ry="18" style="fill:none;stroke:red;"/>
<text text-anchor="middle" style="font-size:6.00;" x="551" y="61">calendar</text>
</g>
<g id="edge12" class="edge"><title>person&#45;&gt;fake_calendar_176</title>
<path style="fill:none;stroke:black;" d="M526,161C534,132 540,105 544,87"/>
<polygon style="fill:black;stroke:black;" points="541,86 547,77 547,88 541,86"/>
</g>
<g id="node19" class="node"><title>fake_country_178</title>
<ellipse cx="520" cy="635" rx="27" ry="18" style="fill:none;stroke:red;"/>
<text text-anchor="middle" style="font-size:6.00;" x="520" y="637">country</text>
</g>
<g id="edge14" class="edge"><title>person&#45;&gt;fake_country_178</title>
<path style="fill:none;stroke:black;" d="M506,535C510,563 514,589 516,607"/>
<polygon style="fill:black;stroke:black;" points="519,607 518,617 513,608 519,607"/>
</g>
<g id="node21" class="node"><title>fake_libraryfilealias_180</title>
<ellipse cx="720" cy="520" rx="29" ry="18" style="fill:none;stroke:red;"/>
<text text-anchor="middle" style="font-size:6.00;" x="720" y="522">libraryfilealias</text>
</g>
<g id="edge16" class="edge"><title>person&#45;&gt;fake_libraryfilealias_180</title>
<path style="fill:none;stroke:black;" d="M589,426C627,454 667,482 692,500"/>
<polygon style="fill:black;stroke:black;" points="695,498 701,506 691,503 695,498"/>
</g>
<g id="node23" class="node"><title>fake_libraryfilealias_182</title>
<ellipse cx="310" cy="101" rx="29" ry="18" style="fill:none;stroke:red;"/>
<text text-anchor="middle" style="font-size:6.00;" x="310" y="103">libraryfilealias</text>
</g>
<g id="edge18" class="edge"><title>person&#45;&gt;fake_libraryfilealias_182</title>
<path style="fill:none;stroke:black;" d="M371,189C354,165 339,143 328,127"/>
<polygon style="fill:black;stroke:black;" points="325,128 322,118 330,124 325,128"/>
</g>
<g id="node7" class="node"><title>personlabel</title>
<polygon style="fill:#c1cdcc;stroke:#c1cdcc;" points="182,601 182,559 300,559 300,601 182,601"/>
<polygon style="fill:white;stroke:white;" points="185,574 185,562 297,562 297,574 185,574"/>
<text text-anchor="middle" style="font-size:6.00;" x="241" y="570">personlabel</text>
<polygon style="fill:none;stroke:black;" points="185,574 185,562 297,562 297,574 185,574"/>
<text text-anchor="middle" style="font-size:6.00;" x="196" y="583">person</text>
<text text-anchor="middle" style="font-size:6.00;" x="220" y="583">integer</text>
<text text-anchor="middle" style="font-size:6.00;" x="265" y="583"> REFERENCES person </text>
<text text-anchor="middle" style="font-size:6.00;" x="194" y="595">label</text>
<text text-anchor="middle" style="font-size:6.00;" x="220" y="595">integer</text>
<text text-anchor="middle" style="font-size:6.00;" x="263" y="595"> REFERENCES label </text>
<polygon style="fill:none;stroke:black;" points="182,601 182,559 300,559 300,601 182,601"/>
</g>
<g id="edge22" class="edge"><title>personlabel&#45;&gt;label</title>
<path style="fill:none;stroke:black;" d="M210,555C193,542 173,525 153,508"/>
<polygon style="fill:black;stroke:black;" points="151,511 145,502 155,505 151,511"/>
</g>
<g id="edge20" class="edge"><title>personlabel&#45;&gt;person</title>
<path style="fill:none;stroke:black;" d="M267,555C290,532 327,497 364,461"/>
<polygon style="fill:black;stroke:black;" points="361,459 371,454 366,464 361,459"/>
</g>
<g id="node8" class="node"><title>processor</title>
<polygon style="fill:#c1cdcc;stroke:#c1cdcc;" points="626,90 626,12 778,12 778,90 626,90"/>
<polygon style="fill:white;stroke:white;" points="629,27 629,15 775,15 775,27 629,27"/>
<text text-anchor="middle" style="font-size:6.00;" x="702" y="23">processor</text>
<polygon style="fill:none;stroke:black;" points="629,27 629,15 775,15 775,27 629,27"/>
<text text-anchor="middle" style="font-size:6.00;" x="634" y="36">id</text>
<text text-anchor="middle" style="font-size:6.00;" x="674" y="36">serial</text>
<text text-anchor="middle" style="font-size:6.00;" x="714" y="36"> PRIMARY KEY </text>
<text text-anchor="middle" style="font-size:6.00;" x="640" y="48">family</text>
<text text-anchor="middle" style="font-size:6.00;" x="676" y="48">integer</text>
<text text-anchor="middle" style="font-size:6.00;" x="732" y="48"> REFERENCES processorfamily </text>
<text text-anchor="middle" style="font-size:6.00;" x="639" y="60">name</text>
<text text-anchor="middle" style="font-size:6.00;" x="673" y="60">text</text>
<text text-anchor="middle" style="font-size:6.00;" x="705" y="60"> UNIQUE </text>
<text text-anchor="middle" style="font-size:6.00;" x="637" y="72">title</text>
<text text-anchor="middle" style="font-size:6.00;" x="673" y="72">text</text>
<text text-anchor="middle" style="font-size:6.00;" x="646" y="84">description</text>
<text text-anchor="middle" style="font-size:6.00;" x="673" y="84">text</text>
<polygon style="fill:none;stroke:black;" points="626,90 626,12 778,12 778,90 626,90"/>
</g>
<g id="node9" class="node"><title>processorfamily</title>
<polygon style="fill:#c1cdcc;stroke:#c1cdcc;" points="812,109 812,43 922,43 922,109 812,109"/>
<polygon style="fill:white;stroke:white;" points="815,58 815,46 919,46 919,58 815,58"/>
<text text-anchor="middle" style="font-size:6.00;" x="867" y="54">processorfamily</text>
<polygon style="fill:none;stroke:black;" points="815,58 815,46 919,46 919,58 815,58"/>
<text text-anchor="middle" style="font-size:6.00;" x="820" y="67">id</text>
<text text-anchor="middle" style="font-size:6.00;" x="859" y="67">serial</text>
<text text-anchor="middle" style="font-size:6.00;" x="895" y="67"> PRIMARY KEY </text>
<text text-anchor="middle" style="font-size:6.00;" x="825" y="79">name</text>
<text text-anchor="middle" style="font-size:6.00;" x="858" y="79">text</text>
<text text-anchor="middle" style="font-size:6.00;" x="886" y="79"> UNIQUE </text>
<text text-anchor="middle" style="font-size:6.00;" x="823" y="91">title</text>
<text text-anchor="middle" style="font-size:6.00;" x="858" y="91">text</text>
<text text-anchor="middle" style="font-size:6.00;" x="832" y="103">description</text>
<text text-anchor="middle" style="font-size:6.00;" x="858" y="103">text</text>
<polygon style="fill:none;stroke:black;" points="812,109 812,43 922,43 922,109 812,109"/>
</g>
<g id="edge24" class="edge"><title>processor&#45;&gt;processorfamily</title>
<path style="fill:none;stroke:black;" d="M786,64C789,64 791,65 794,65"/>
<polygon style="fill:black;stroke:black;" points="795,62 804,67 794,68 795,62"/>
</g>
<g id="edge26" class="edge"><title>schema&#45;&gt;person</title>
<path style="fill:none;stroke:black;" d="M351,348C354,348 357,348 361,348"/>
<polygon style="fill:black;stroke:black;" points="361,344 371,348 361,351 361,344"/>
</g>
</g>
</svg>
