<?xml version="1.0" encoding="UTF-8" standalone="no"?>
<!DOCTYPE svg PUBLIC "-//W3C//DTD SVG 1.0//EN"
 "http://www.w3.org/TR/2001/REC-SVG-20010904/DTD/svg10.dtd">
<!-- Generated by fdp version 2.2 (Sat Feb  5 01:37:52 UTC 2005)
     For user: (stub) Stuart Bishop,,,   Title: g    Pages: 1 -->
<svg width="782px" height="413px"
 viewBox = "-1 -1 781 412"
 xmlns="http://www.w3.org/2000/svg">
<g id="graph0" class="graph" transform = "scale(0.824411)"
 style="font-family:Times-Roman;font-size:14.00;">
<title>g</title>
<text text-anchor="middle" style="font-size:22.00;" x="472" y="482">Misc</text>
<g id="node1" class="node"><title>label</title>
<polygon style="fill:#c1cdcc;stroke:#c1cdcc;" points="75,283 75,205 231,205 231,283 75,283"/>
<polygon style="fill:white;stroke:white;" points="78,220 78,208 228,208 228,220 78,220"/>
<text text-anchor="middle" style="font-size:6.00;" x="153" y="216">label</text>
<polygon style="fill:none;stroke:black;" points="78,220 78,208 228,208 228,220 78,220"/>
<text text-anchor="middle" style="font-size:6.00;" x="83" y="229">id</text>
<text text-anchor="middle" style="font-size:6.00;" x="123" y="229">serial</text>
<text text-anchor="middle" style="font-size:6.00;" x="163" y="229"> PRIMARY KEY </text>
<text text-anchor="middle" style="font-size:6.00;" x="90" y="241">schema</text>
<text text-anchor="middle" style="font-size:6.00;" x="125" y="241">integer</text>
<text text-anchor="middle" style="font-size:6.00;" x="183" y="241"> REFERENCES schema UNIQUE </text>
<text text-anchor="middle" style="font-size:6.00;" x="88" y="253">name</text>
<text text-anchor="middle" style="font-size:6.00;" x="122" y="253">text</text>
<text text-anchor="middle" style="font-size:6.00;" x="154" y="253"> UNIQUE </text>
<text text-anchor="middle" style="font-size:6.00;" x="86" y="265">title</text>
<text text-anchor="middle" style="font-size:6.00;" x="122" y="265">text</text>
<text text-anchor="middle" style="font-size:6.00;" x="95" y="277">description</text>
<text text-anchor="middle" style="font-size:6.00;" x="122" y="277">text</text>
<polygon style="fill:none;stroke:black;" points="75,283 75,205 231,205 231,283 75,283"/>
</g>
<g id="node9" class="node"><title>fake_schema_113</title>
<ellipse cx="33" cy="144" rx="27" ry="18" style="fill:none;stroke:red;"/>
<text text-anchor="middle" style="font-size:6.00;" x="33" y="146">schema</text>
</g>
<g id="edge2" class="edge"><title>label&#45;&gt;fake_schema_113</title>
<path style="fill:none;stroke:black;" d="M101,201C86,189 70,175 58,164"/>
<polygon style="fill:black;stroke:black;" points="56,167 50,158 60,161 56,167"/>
</g>
<g id="node2" class="node"><title>launchpaddatabaserevision</title>
<polygon style="fill:#c1cdcc;stroke:#c1cdcc;" points="599,258 599,204 701,204 701,258 599,258"/>
<polygon style="fill:white;stroke:white;" points="602,219 602,207 698,207 698,219 602,219"/>
<text text-anchor="middle" style="font-size:6.00;" x="650" y="215">launchpaddatabaserevision</text>
<polygon style="fill:none;stroke:black;" points="602,219 602,207 698,207 698,219 602,219"/>
<text text-anchor="middle" style="font-size:6.00;" x="612" y="228">major</text>
<text text-anchor="middle" style="font-size:6.00;" x="635" y="228">integer</text>
<text text-anchor="middle" style="font-size:6.00;" x="673" y="228"> PRIMARY KEY </text>
<text text-anchor="middle" style="font-size:6.00;" x="612" y="240">minor</text>
<text text-anchor="middle" style="font-size:6.00;" x="635" y="240">integer</text>
<text text-anchor="middle" style="font-size:6.00;" x="673" y="240"> PRIMARY KEY </text>
<text text-anchor="middle" style="font-size:6.00;" x="612" y="252">patch</text>
<text text-anchor="middle" style="font-size:6.00;" x="635" y="252">integer</text>
<text text-anchor="middle" style="font-size:6.00;" x="673" y="252"> PRIMARY KEY </text>
<polygon style="fill:none;stroke:black;" points="599,258 599,204 701,204 701,258 599,258"/>
</g>
<g id="node3" class="node"><title>libraryfilealias</title>
<polygon style="fill:#c1cdcc;stroke:#c1cdcc;" points="599,387 599,309 761,309 761,387 599,387"/>
<polygon style="fill:white;stroke:white;" points="602,324 602,312 758,312 758,324 602,324"/>
<text text-anchor="middle" style="font-size:6.00;" x="680" y="320">libraryfilealias</text>
<polygon style="fill:none;stroke:black;" points="602,324 602,312 758,312 758,324 602,324"/>
<text text-anchor="middle" style="font-size:6.00;" x="607" y="333">id</text>
<text text-anchor="middle" style="font-size:6.00;" x="644" y="333">serial</text>
<text text-anchor="middle" style="font-size:6.00;" x="693" y="333"> PRIMARY KEY </text>
<text text-anchor="middle" style="font-size:6.00;" x="614" y="345">content</text>
<text text-anchor="middle" style="font-size:6.00;" x="646" y="345">integer</text>
<text text-anchor="middle" style="font-size:6.00;" x="713" y="345"> REFERENCES libraryfilecontent </text>
<text text-anchor="middle" style="font-size:6.00;" x="616" y="357">filename</text>
<text text-anchor="middle" style="font-size:6.00;" x="643" y="357">text</text>
<text text-anchor="middle" style="font-size:6.00;" x="617" y="369">mimetype</text>
<text text-anchor="middle" style="font-size:6.00;" x="643" y="369">text</text>
<text text-anchor="middle" style="font-size:6.00;" x="614" y="381">expires</text>
<text text-anchor="middle" style="font-size:6.00;" x="651" y="381">timestamp</text>
<polygon style="fill:none;stroke:black;" points="599,387 599,309 761,309 761,387 599,387"/>
</g>
<g id="node4" class="node"><title>libraryfilecontent</title>
<polygon style="fill:#c1cdcc;stroke:#c1cdcc;" points="794,414 794,336 930,336 930,414 794,414"/>
<polygon style="fill:white;stroke:white;" points="797,351 797,339 927,339 927,351 797,351"/>
<text text-anchor="middle" style="font-size:6.00;" x="862" y="347">libraryfilecontent</text>
<polygon style="fill:none;stroke:black;" points="797,351 797,339 927,339 927,351 797,351"/>
<text text-anchor="middle" style="font-size:6.00;" x="802" y="360">id</text>
<text text-anchor="middle" style="font-size:6.00;" x="846" y="360">serial</text>
<text text-anchor="middle" style="font-size:6.00;" x="902" y="360"> PRIMARY KEY </text>
<text text-anchor="middle" style="font-size:6.00;" x="814" y="372">datecreated</text>
<text text-anchor="middle" style="font-size:6.00;" x="853" y="372">timestamp</text>
<text text-anchor="middle" style="font-size:6.00;" x="816" y="384">datemirrored</text>
<text text-anchor="middle" style="font-size:6.00;" x="853" y="384">timestamp</text>
<text text-anchor="middle" style="font-size:6.00;" x="809" y="396">filesize</text>
<text text-anchor="middle" style="font-size:6.00;" x="848" y="396">integer</text>
<text text-anchor="middle" style="font-size:6.00;" x="805" y="408">sha1</text>
<text text-anchor="middle" style="font-size:6.00;" x="856" y="408">character(40)</text>
<polygon style="fill:none;stroke:black;" points="794,414 794,336 930,336 930,414 794,414"/>
</g>
<g id="edge4" class="edge"><title>libraryfilealias&#45;&gt;libraryfilecontent</title>
<path style="fill:none;stroke:black;" d="M769,361C771,361 774,362 776,362"/>
<polygon style="fill:black;stroke:black;" points="777,359 786,364 776,365 777,359"/>
</g>
<g id="node5" class="node"><title>person</title>
<polygon style="fill:#c1cdcc;stroke:#c1cdcc;" points="361,341 361,131 541,131 541,341 361,341"/>
<polygon style="fill:white;stroke:white;" points="364,146 364,134 538,134 538,146 364,146"/>
<text text-anchor="middle" style="font-size:6.00;" x="451" y="142">person</text>
<polygon style="fill:none;stroke:black;" points="364,146 364,134 538,134 538,146 364,146"/>
<text text-anchor="middle" style="font-size:6.00;" x="369" y="155">id</text>
<text text-anchor="middle" style="font-size:6.00;" x="444" y="155">serial</text>
<text text-anchor="middle" style="font-size:6.00;" x="493" y="155"> PRIMARY KEY </text>
<text text-anchor="middle" style="font-size:6.00;" x="382" y="167">displayname</text>
<text text-anchor="middle" style="font-size:6.00;" x="443" y="167">text</text>
<text text-anchor="middle" style="font-size:6.00;" x="380" y="179">givenname</text>
<text text-anchor="middle" style="font-size:6.00;" x="443" y="179">text</text>
<text text-anchor="middle" style="font-size:6.00;" x="381" y="191">familyname</text>
<text text-anchor="middle" style="font-size:6.00;" x="443" y="191">text</text>
<text text-anchor="middle" style="font-size:6.00;" x="379" y="203">password</text>
<text text-anchor="middle" style="font-size:6.00;" x="443" y="203">text</text>
<text text-anchor="middle" style="font-size:6.00;" x="380" y="215">teamowner</text>
<text text-anchor="middle" style="font-size:6.00;" x="446" y="215">integer</text>
<text text-anchor="middle" style="font-size:6.00;" x="500" y="215"> REFERENCES person </text>
<text text-anchor="middle" style="font-size:6.00;" x="386" y="227">teamdescription</text>
<text text-anchor="middle" style="font-size:6.00;" x="443" y="227">text</text>
<text text-anchor="middle" style="font-size:6.00;" x="375" y="239">karma</text>
<text text-anchor="middle" style="font-size:6.00;" x="446" y="239">integer</text>
<text text-anchor="middle" style="font-size:6.00;" x="387" y="251">karmatimestamp</text>
<text text-anchor="middle" style="font-size:6.00;" x="451" y="251">timestamp</text>
<text text-anchor="middle" style="font-size:6.00;" x="374" y="263">name</text>
<text text-anchor="middle" style="font-size:6.00;" x="443" y="263">text</text>
<text text-anchor="middle" style="font-size:6.00;" x="378" y="275">language</text>
<text text-anchor="middle" style="font-size:6.00;" x="446" y="275">integer</text>
<text text-anchor="middle" style="font-size:6.00;" x="503" y="275"> REFERENCES language </text>
<text text-anchor="middle" style="font-size:6.00;" x="370" y="287">fti</text>
<text text-anchor="middle" style="font-size:6.00;" x="448" y="287">tsvector</text>
<text text-anchor="middle" style="font-size:6.00;" x="398" y="299">defaultmembershipperiod</text>
<text text-anchor="middle" style="font-size:6.00;" x="446" y="299">integer</text>
<text text-anchor="middle" style="font-size:6.00;" x="393" y="311">defaultrenewalperiod</text>
<text text-anchor="middle" style="font-size:6.00;" x="446" y="311">integer</text>
<text text-anchor="middle" style="font-size:6.00;" x="389" y="323">subscriptionpolicy</text>
<text text-anchor="middle" style="font-size:6.00;" x="446" y="323">integer</text>
<text text-anchor="middle" style="font-size:6.00;" x="376" y="335">merged</text>
<text text-anchor="middle" style="font-size:6.00;" x="446" y="335">integer</text>
<text text-anchor="middle" style="font-size:6.00;" x="500" y="335"> REFERENCES person </text>
<polygon style="fill:none;stroke:black;" points="361,341 361,131 541,131 541,341 361,341"/>
</g>
<g id="edge6" class="edge"><title>person&#45;&gt;person</title>
<path style="fill:none;stroke:black;" d="M549,270C560,264 567,252 567,236 567,224 563,215 557,208"/>
<polygon style="fill:black;stroke:black;" points="555,211 549,202 559,205 555,211"/>
</g>
<g id="edge10" class="edge"><title>person&#45;&gt;person</title>
<path style="fill:none;stroke:black;" d="M549,314C570,306 585,280 585,236 585,199 574,174 558,163"/>
<polygon style="fill:black;stroke:black;" points="556,166 549,158 559,160 556,166"/>
</g>
<g id="node13" class="node"><title>fake_language_154</title>
<ellipse cx="388" cy="439" rx="27" ry="18" style="fill:none;stroke:red;"/>
<text text-anchor="middle" style="font-size:6.00;" x="388" y="441">language</text>
</g>
<g id="edge8" class="edge"><title>person&#45;&gt;fake_language_154</title>
<path style="fill:none;stroke:black;" d="M417,345C409,370 402,394 396,411"/>
<polygon style="fill:black;stroke:black;" points="399,412 393,421 393,410 399,412"/>
</g>
<g id="node6" class="node"><title>personlabel</title>
<polygon style="fill:#c1cdcc;stroke:#c1cdcc;" points="170,355 170,313 288,313 288,355 170,355"/>
<polygon style="fill:white;stroke:white;" points="173,328 173,316 285,316 285,328 173,328"/>
<text text-anchor="middle" style="font-size:6.00;" x="229" y="324">personlabel</text>
<polygon style="fill:none;stroke:black;" points="173,328 173,316 285,316 285,328 173,328"/>
<text text-anchor="middle" style="font-size:6.00;" x="184" y="337">person</text>
<text text-anchor="middle" style="font-size:6.00;" x="208" y="337">integer</text>
<text text-anchor="middle" style="font-size:6.00;" x="253" y="337"> REFERENCES person </text>
<text text-anchor="middle" style="font-size:6.00;" x="182" y="349">label</text>
<text text-anchor="middle" style="font-size:6.00;" x="208" y="349">integer</text>
<text text-anchor="middle" style="font-size:6.00;" x="251" y="349"> REFERENCES label </text>
<polygon style="fill:none;stroke:black;" points="170,355 170,313 288,313 288,355 170,355"/>
</g>
<g id="edge14" class="edge"><title>personlabel&#45;&gt;label</title>
<path style="fill:none;stroke:black;" d="M208,309C204,304 200,300 196,295"/>
<polygon style="fill:black;stroke:black;" points="193,297 189,287 198,292 193,297"/>
</g>
<g id="edge12" class="edge"><title>personlabel&#45;&gt;person</title>
<path style="fill:none;stroke:black;" d="M286,309C303,301 324,293 344,284"/>
<polygon style="fill:black;stroke:black;" points="342,281 353,280 345,287 342,281"/>
</g>
<g id="node7" class="node"><title>processor</title>
<polygon style="fill:#c1cdcc;stroke:#c1cdcc;" points="394,100 394,10 546,10 546,100 394,100"/>
<polygon style="fill:white;stroke:white;" points="397,25 397,13 543,13 543,25 397,25"/>
<text text-anchor="middle" style="font-size:6.00;" x="470" y="21">processor</text>
<polygon style="fill:none;stroke:black;" points="397,25 397,13 543,13 543,25 397,25"/>
<text text-anchor="middle" style="font-size:6.00;" x="402" y="34">id</text>
<text text-anchor="middle" style="font-size:6.00;" x="441" y="34">serial</text>
<text text-anchor="middle" style="font-size:6.00;" x="481" y="34"> PRIMARY KEY </text>
<text text-anchor="middle" style="font-size:6.00;" x="408" y="46">family</text>
<text text-anchor="middle" style="font-size:6.00;" x="443" y="46">integer</text>
<text text-anchor="middle" style="font-size:6.00;" x="500" y="46"> REFERENCES processorfamily </text>
<text text-anchor="middle" style="font-size:6.00;" x="407" y="58">name</text>
<text text-anchor="middle" style="font-size:6.00;" x="440" y="58">text</text>
<text text-anchor="middle" style="font-size:6.00;" x="472" y="58"> UNIQUE </text>
<text text-anchor="middle" style="font-size:6.00;" x="405" y="70">title</text>
<text text-anchor="middle" style="font-size:6.00;" x="440" y="70">text</text>
<text text-anchor="middle" style="font-size:6.00;" x="414" y="82">description</text>
<text text-anchor="middle" style="font-size:6.00;" x="440" y="82">text</text>
<text text-anchor="middle" style="font-size:6.00;" x="408" y="94">owner</text>
<text text-anchor="middle" style="font-size:6.00;" x="443" y="94">integer</text>
<text text-anchor="middle" style="font-size:6.00;" x="488" y="94"> REFERENCES person </text>
<polygon style="fill:none;stroke:black;" points="394,100 394,10 546,10 546,100 394,100"/>
</g>
<g id="edge18" class="edge"><title>processor&#45;&gt;person</title>
<path style="fill:none;stroke:black;" d="M465,104C464,108 464,112 463,117"/>
<polygon style="fill:black;stroke:black;" points="466,117 462,127 460,117 466,117"/>
</g>
<g id="node8" class="node"><title>processorfamily</title>
<polygon style="fill:#c1cdcc;stroke:#c1cdcc;" points="605,127 605,49 735,49 735,127 605,127"/>
<polygon style="fill:white;stroke:white;" points="608,64 608,52 732,52 732,64 608,64"/>
<text text-anchor="middle" style="font-size:6.00;" x="670" y="60">processorfamily</text>
<polygon style="fill:none;stroke:black;" points="608,64 608,52 732,52 732,64 608,64"/>
<text text-anchor="middle" style="font-size:6.00;" x="613" y="73">id</text>
<text text-anchor="middle" style="font-size:6.00;" x="653" y="73">serial</text>
<text text-anchor="middle" style="font-size:6.00;" x="693" y="73"> PRIMARY KEY </text>
<text text-anchor="middle" style="font-size:6.00;" x="618" y="85">name</text>
<text text-anchor="middle" style="font-size:6.00;" x="652" y="85">text</text>
<text text-anchor="middle" style="font-size:6.00;" x="684" y="85"> UNIQUE </text>
<text text-anchor="middle" style="font-size:6.00;" x="616" y="97">title</text>
<text text-anchor="middle" style="font-size:6.00;" x="652" y="97">text</text>
<text text-anchor="middle" style="font-size:6.00;" x="625" y="109">description</text>
<text text-anchor="middle" style="font-size:6.00;" x="652" y="109">text</text>
<text text-anchor="middle" style="font-size:6.00;" x="619" y="121">owner</text>
<text text-anchor="middle" style="font-size:6.00;" x="655" y="121">integer</text>
<text text-anchor="middle" style="font-size:6.00;" x="700" y="121"> REFERENCES person </text>
<polygon style="fill:none;stroke:black;" points="605,127 605,49 735,49 735,127 605,127"/>
</g>
<g id="edge16" class="edge"><title>processor&#45;&gt;processorfamily</title>
<path style="fill:none;stroke:black;" d="M554,69C565,71 576,73 587,74"/>
<polygon style="fill:black;stroke:black;" points="588,71 597,76 587,77 588,71"/>
</g>
<g id="edge20" class="edge"><title>processorfamily&#45;&gt;person</title>
<path style="fill:none;stroke:black;" d="M606,131C591,141 574,153 558,164"/>
<polygon style="fill:black;stroke:black;" points="559,167 549,170 555,162 559,167"/>
</g>
</g>
</svg>
