<?xml version="1.0" encoding="UTF-8" standalone="no"?>
<!DOCTYPE svg PUBLIC "-//W3C//DTD SVG 1.0//EN"
 "http://www.w3.org/TR/2001/REC-SVG-20010904/DTD/svg10.dtd">
<!-- Generated by fdp version 2.2 (Sat Feb  5 01:37:52 UTC 2005)
     For user: (stub) Stuart Bishop,,,   Title: g    Pages: 1 -->
<svg width="782px" height="438px"
 viewBox = "-1 -1 781 437"
 xmlns="http://www.w3.org/2000/svg">
<g id="graph0" class="graph" transform = "scale(0.874007)"
 style="font-family:Times-Roman;font-size:14.00;">
<title>g</title>
<text text-anchor="middle" style="font-size:22.00;" x="445" y="482">Misc</text>
<g id="node1" class="node"><title>label</title>
<polygon style="fill:#c1cdcc;stroke:#c1cdcc;" points="80,278 80,200 236,200 236,278 80,278"/>
<polygon style="fill:white;stroke:white;" points="83,215 83,203 233,203 233,215 83,215"/>
<text text-anchor="middle" style="font-size:6.00;" x="158" y="211">label</text>
<polygon style="fill:none;stroke:black;" points="83,215 83,203 233,203 233,215 83,215"/>
<text text-anchor="middle" style="font-size:6.00;" x="88" y="224">id</text>
<text text-anchor="middle" style="font-size:6.00;" x="128" y="224">serial</text>
<text text-anchor="middle" style="font-size:6.00;" x="168" y="224"> PRIMARY KEY </text>
<text text-anchor="middle" style="font-size:6.00;" x="95" y="236">schema</text>
<text text-anchor="middle" style="font-size:6.00;" x="130" y="236">integer</text>
<text text-anchor="middle" style="font-size:6.00;" x="188" y="236"> REFERENCES schema UNIQUE </text>
<text text-anchor="middle" style="font-size:6.00;" x="93" y="248">name</text>
<text text-anchor="middle" style="font-size:6.00;" x="127" y="248">text</text>
<text text-anchor="middle" style="font-size:6.00;" x="159" y="248"> UNIQUE </text>
<text text-anchor="middle" style="font-size:6.00;" x="91" y="260">title</text>
<text text-anchor="middle" style="font-size:6.00;" x="127" y="260">text</text>
<text text-anchor="middle" style="font-size:6.00;" x="100" y="272">description</text>
<text text-anchor="middle" style="font-size:6.00;" x="127" y="272">text</text>
<polygon style="fill:none;stroke:black;" points="80,278 80,200 236,200 236,278 80,278"/>
</g>
<g id="node9" class="node"><title>fake_schema_114</title>
<ellipse cx="33" cy="140" rx="27" ry="18" style="fill:none;stroke:red;"/>
<text text-anchor="middle" style="font-size:6.00;" x="33" y="142">schema</text>
</g>
<g id="edge2" class="edge"><title>label&#45;&gt;fake_schema_114</title>
<path style="fill:none;stroke:black;" d="M104,196C88,184 72,171 59,160"/>
<polygon style="fill:black;stroke:black;" points="57,163 51,154 61,157 57,163"/>
</g>
<g id="node2" class="node"><title>launchpaddatabaserevision</title>
<polygon style="fill:#c1cdcc;stroke:#c1cdcc;" points="546,263 546,209 648,209 648,263 546,263"/>
<polygon style="fill:white;stroke:white;" points="549,224 549,212 645,212 645,224 549,224"/>
<text text-anchor="middle" style="font-size:6.00;" x="597" y="220">launchpaddatabaserevision</text>
<polygon style="fill:none;stroke:black;" points="549,224 549,212 645,212 645,224 549,224"/>
<text text-anchor="middle" style="font-size:6.00;" x="559" y="233">major</text>
<text text-anchor="middle" style="font-size:6.00;" x="582" y="233">integer</text>
<text text-anchor="middle" style="font-size:6.00;" x="620" y="233"> PRIMARY KEY </text>
<text text-anchor="middle" style="font-size:6.00;" x="559" y="245">minor</text>
<text text-anchor="middle" style="font-size:6.00;" x="582" y="245">integer</text>
<text text-anchor="middle" style="font-size:6.00;" x="620" y="245"> PRIMARY KEY </text>
<text text-anchor="middle" style="font-size:6.00;" x="559" y="257">patch</text>
<text text-anchor="middle" style="font-size:6.00;" x="582" y="257">integer</text>
<text text-anchor="middle" style="font-size:6.00;" x="620" y="257"> PRIMARY KEY </text>
<polygon style="fill:none;stroke:black;" points="546,263 546,209 648,209 648,263 546,263"/>
</g>
<g id="node3" class="node"><title>libraryfilealias</title>
<polygon style="fill:#c1cdcc;stroke:#c1cdcc;" points="546,388 546,310 708,310 708,388 546,388"/>
<polygon style="fill:white;stroke:white;" points="549,325 549,313 705,313 705,325 549,325"/>
<text text-anchor="middle" style="font-size:6.00;" x="627" y="321">libraryfilealias</text>
<polygon style="fill:none;stroke:black;" points="549,325 549,313 705,313 705,325 549,325"/>
<text text-anchor="middle" style="font-size:6.00;" x="554" y="334">id</text>
<text text-anchor="middle" style="font-size:6.00;" x="591" y="334">serial</text>
<text text-anchor="middle" style="font-size:6.00;" x="640" y="334"> PRIMARY KEY </text>
<text text-anchor="middle" style="font-size:6.00;" x="561" y="346">content</text>
<text text-anchor="middle" style="font-size:6.00;" x="593" y="346">integer</text>
<text text-anchor="middle" style="font-size:6.00;" x="660" y="346"> REFERENCES libraryfilecontent </text>
<text text-anchor="middle" style="font-size:6.00;" x="563" y="358">filename</text>
<text text-anchor="middle" style="font-size:6.00;" x="590" y="358">text</text>
<text text-anchor="middle" style="font-size:6.00;" x="564" y="370">mimetype</text>
<text text-anchor="middle" style="font-size:6.00;" x="590" y="370">text</text>
<text text-anchor="middle" style="font-size:6.00;" x="561" y="382">expires</text>
<text text-anchor="middle" style="font-size:6.00;" x="598" y="382">timestamp</text>
<polygon style="fill:none;stroke:black;" points="546,388 546,310 708,310 708,388 546,388"/>
</g>
<g id="node4" class="node"><title>libraryfilecontent</title>
<polygon style="fill:#c1cdcc;stroke:#c1cdcc;" points="741,415 741,337 877,337 877,415 741,415"/>
<polygon style="fill:white;stroke:white;" points="744,352 744,340 874,340 874,352 744,352"/>
<text text-anchor="middle" style="font-size:6.00;" x="809" y="348">libraryfilecontent</text>
<polygon style="fill:none;stroke:black;" points="744,352 744,340 874,340 874,352 744,352"/>
<text text-anchor="middle" style="font-size:6.00;" x="749" y="361">id</text>
<text text-anchor="middle" style="font-size:6.00;" x="793" y="361">serial</text>
<text text-anchor="middle" style="font-size:6.00;" x="849" y="361"> PRIMARY KEY </text>
<text text-anchor="middle" style="font-size:6.00;" x="761" y="373">datecreated</text>
<text text-anchor="middle" style="font-size:6.00;" x="800" y="373">timestamp</text>
<text text-anchor="middle" style="font-size:6.00;" x="763" y="385">datemirrored</text>
<text text-anchor="middle" style="font-size:6.00;" x="800" y="385">timestamp</text>
<text text-anchor="middle" style="font-size:6.00;" x="756" y="397">filesize</text>
<text text-anchor="middle" style="font-size:6.00;" x="795" y="397">integer</text>
<text text-anchor="middle" style="font-size:6.00;" x="752" y="409">sha1</text>
<text text-anchor="middle" style="font-size:6.00;" x="803" y="409">character(40)</text>
<polygon style="fill:none;stroke:black;" points="741,415 741,337 877,337 877,415 741,415"/>
</g>
<g id="edge4" class="edge"><title>libraryfilealias&#45;&gt;libraryfilecontent</title>
<path style="fill:none;stroke:black;" d="M716,362C718,362 721,363 723,363"/>
<polygon style="fill:black;stroke:black;" points="724,360 733,365 723,366 724,360"/>
</g>
<g id="node5" class="node"><title>person</title>
<polygon style="fill:#c1cdcc;stroke:#c1cdcc;" points="317,351 317,129 497,129 497,351 317,351"/>
<polygon style="fill:white;stroke:white;" points="320,144 320,132 494,132 494,144 320,144"/>
<text text-anchor="middle" style="font-size:6.00;" x="407" y="140">person</text>
<polygon style="fill:none;stroke:black;" points="320,144 320,132 494,132 494,144 320,144"/>
<text text-anchor="middle" style="font-size:6.00;" x="325" y="153">id</text>
<text text-anchor="middle" style="font-size:6.00;" x="400" y="153">serial</text>
<text text-anchor="middle" style="font-size:6.00;" x="449" y="153"> PRIMARY KEY </text>
<text text-anchor="middle" style="font-size:6.00;" x="338" y="165">displayname</text>
<text text-anchor="middle" style="font-size:6.00;" x="399" y="165">text</text>
<text text-anchor="middle" style="font-size:6.00;" x="336" y="177">givenname</text>
<text text-anchor="middle" style="font-size:6.00;" x="399" y="177">text</text>
<text text-anchor="middle" style="font-size:6.00;" x="337" y="189">familyname</text>
<text text-anchor="middle" style="font-size:6.00;" x="399" y="189">text</text>
<text text-anchor="middle" style="font-size:6.00;" x="335" y="201">password</text>
<text text-anchor="middle" style="font-size:6.00;" x="399" y="201">text</text>
<text text-anchor="middle" style="font-size:6.00;" x="336" y="213">teamowner</text>
<text text-anchor="middle" style="font-size:6.00;" x="402" y="213">integer</text>
<text text-anchor="middle" style="font-size:6.00;" x="456" y="213"> REFERENCES person </text>
<text text-anchor="middle" style="font-size:6.00;" x="342" y="225">teamdescription</text>
<text text-anchor="middle" style="font-size:6.00;" x="399" y="225">text</text>
<text text-anchor="middle" style="font-size:6.00;" x="331" y="237">karma</text>
<text text-anchor="middle" style="font-size:6.00;" x="402" y="237">integer</text>
<text text-anchor="middle" style="font-size:6.00;" x="343" y="249">karmatimestamp</text>
<text text-anchor="middle" style="font-size:6.00;" x="407" y="249">timestamp</text>
<text text-anchor="middle" style="font-size:6.00;" x="330" y="261">name</text>
<text text-anchor="middle" style="font-size:6.00;" x="399" y="261">text</text>
<text text-anchor="middle" style="font-size:6.00;" x="334" y="273">language</text>
<text text-anchor="middle" style="font-size:6.00;" x="402" y="273">integer</text>
<text text-anchor="middle" style="font-size:6.00;" x="459" y="273"> REFERENCES language </text>
<text text-anchor="middle" style="font-size:6.00;" x="326" y="285">fti</text>
<text text-anchor="middle" style="font-size:6.00;" x="404" y="285">tsvector</text>
<text text-anchor="middle" style="font-size:6.00;" x="354" y="297">defaultmembershipperiod</text>
<text text-anchor="middle" style="font-size:6.00;" x="402" y="297">integer</text>
<text text-anchor="middle" style="font-size:6.00;" x="349" y="309">defaultrenewalperiod</text>
<text text-anchor="middle" style="font-size:6.00;" x="402" y="309">integer</text>
<text text-anchor="middle" style="font-size:6.00;" x="345" y="321">subscriptionpolicy</text>
<text text-anchor="middle" style="font-size:6.00;" x="402" y="321">integer</text>
<text text-anchor="middle" style="font-size:6.00;" x="332" y="333">merged</text>
<text text-anchor="middle" style="font-size:6.00;" x="402" y="333">integer</text>
<text text-anchor="middle" style="font-size:6.00;" x="456" y="333"> REFERENCES person </text>
<text text-anchor="middle" style="font-size:6.00;" x="337" y="345">datecreated</text>
<text text-anchor="middle" style="font-size:6.00;" x="407" y="345">timestamp</text>
<polygon style="fill:none;stroke:black;" points="317,351 317,129 497,129 497,351 317,351"/>
</g>
<g id="edge6" class="edge"><title>person&#45;&gt;person</title>
<path style="fill:none;stroke:black;" d="M505,276C516,269 523,257 523,240 523,228 519,218 513,211"/>
<polygon style="fill:black;stroke:black;" points="510,213 505,204 515,208 510,213"/>
</g>
<g id="edge10" class="edge"><title>person&#45;&gt;person</title>
<path style="fill:none;stroke:black;" d="M505,323C526,314 541,287 541,240 541,200 530,174 514,162"/>
<polygon style="fill:black;stroke:black;" points="512,165 505,157 515,159 512,165"/>
</g>
<g id="node13" class="node"><title>fake_language_156</title>
<ellipse cx="307" cy="439" rx="27" ry="18" style="fill:none;stroke:red;"/>
<text text-anchor="middle" style="font-size:6.00;" x="307" y="441">language</text>
</g>
<g id="edge8" class="edge"><title>person&#45;&gt;fake_language_156</title>
<path style="fill:none;stroke:black;" d="M349,355C338,376 328,397 320,413"/>
<polygon style="fill:black;stroke:black;" points="323,414 316,422 317,411 323,414"/>
</g>
<g id="node6" class="node"><title>personlabel</title>
<polygon style="fill:#c1cdcc;stroke:#c1cdcc;" points="165,348 165,306 283,306 283,348 165,348"/>
<polygon style="fill:white;stroke:white;" points="168,321 168,309 280,309 280,321 168,321"/>
<text text-anchor="middle" style="font-size:6.00;" x="224" y="317">personlabel</text>
<polygon style="fill:none;stroke:black;" points="168,321 168,309 280,309 280,321 168,321"/>
<text text-anchor="middle" style="font-size:6.00;" x="179" y="330">person</text>
<text text-anchor="middle" style="font-size:6.00;" x="203" y="330">integer</text>
<text text-anchor="middle" style="font-size:6.00;" x="248" y="330"> REFERENCES person </text>
<text text-anchor="middle" style="font-size:6.00;" x="177" y="342">label</text>
<text text-anchor="middle" style="font-size:6.00;" x="203" y="342">integer</text>
<text text-anchor="middle" style="font-size:6.00;" x="246" y="342"> REFERENCES label </text>
<polygon style="fill:none;stroke:black;" points="165,348 165,306 283,306 283,348 165,348"/>
</g>
<g id="edge14" class="edge"><title>personlabel&#45;&gt;label</title>
<path style="fill:none;stroke:black;" d="M205,302C202,298 199,294 196,290"/>
<polygon style="fill:black;stroke:black;" points="193,292 190,282 199,288 193,292"/>
</g>
<g id="edge12" class="edge"><title>personlabel&#45;&gt;person</title>
<path style="fill:none;stroke:black;" d="M277,302C284,298 292,295 300,291"/>
<polygon style="fill:black;stroke:black;" points="298,288 309,287 301,294 298,288"/>
</g>
<g id="node7" class="node"><title>processor</title>
<polygon style="fill:#c1cdcc;stroke:#c1cdcc;" points="351,99 351,9 503,9 503,99 351,99"/>
<polygon style="fill:white;stroke:white;" points="354,24 354,12 500,12 500,24 354,24"/>
<text text-anchor="middle" style="font-size:6.00;" x="427" y="20">processor</text>
<polygon style="fill:none;stroke:black;" points="354,24 354,12 500,12 500,24 354,24"/>
<text text-anchor="middle" style="font-size:6.00;" x="359" y="33">id</text>
<text text-anchor="middle" style="font-size:6.00;" x="398" y="33">serial</text>
<text text-anchor="middle" style="font-size:6.00;" x="438" y="33"> PRIMARY KEY </text>
<text text-anchor="middle" style="font-size:6.00;" x="365" y="45">family</text>
<text text-anchor="middle" style="font-size:6.00;" x="400" y="45">integer</text>
<text text-anchor="middle" style="font-size:6.00;" x="457" y="45"> REFERENCES processorfamily </text>
<text text-anchor="middle" style="font-size:6.00;" x="364" y="57">name</text>
<text text-anchor="middle" style="font-size:6.00;" x="397" y="57">text</text>
<text text-anchor="middle" style="font-size:6.00;" x="429" y="57"> UNIQUE </text>
<text text-anchor="middle" style="font-size:6.00;" x="362" y="69">title</text>
<text text-anchor="middle" style="font-size:6.00;" x="397" y="69">text</text>
<text text-anchor="middle" style="font-size:6.00;" x="371" y="81">description</text>
<text text-anchor="middle" style="font-size:6.00;" x="397" y="81">text</text>
<text text-anchor="middle" style="font-size:6.00;" x="365" y="93">owner</text>
<text text-anchor="middle" style="font-size:6.00;" x="400" y="93">integer</text>
<text text-anchor="middle" style="font-size:6.00;" x="445" y="93"> REFERENCES person </text>
<polygon style="fill:none;stroke:black;" points="351,99 351,9 503,9 503,99 351,99"/>
</g>
<g id="edge18" class="edge"><title>processor&#45;&gt;person</title>
<path style="fill:none;stroke:black;" d="M422,103C421,107 421,111 420,115"/>
<polygon style="fill:black;stroke:black;" points="424,115 420,125 417,115 424,115"/>
</g>
<g id="node8" class="node"><title>processorfamily</title>
<polygon style="fill:#c1cdcc;stroke:#c1cdcc;" points="564,134 564,56 694,56 694,134 564,134"/>
<polygon style="fill:white;stroke:white;" points="567,71 567,59 691,59 691,71 567,71"/>
<text text-anchor="middle" style="font-size:6.00;" x="629" y="67">processorfamily</text>
<polygon style="fill:none;stroke:black;" points="567,71 567,59 691,59 691,71 567,71"/>
<text text-anchor="middle" style="font-size:6.00;" x="572" y="80">id</text>
<text text-anchor="middle" style="font-size:6.00;" x="612" y="80">serial</text>
<text text-anchor="middle" style="font-size:6.00;" x="652" y="80"> PRIMARY KEY </text>
<text text-anchor="middle" style="font-size:6.00;" x="577" y="92">name</text>
<text text-anchor="middle" style="font-size:6.00;" x="611" y="92">text</text>
<text text-anchor="middle" style="font-size:6.00;" x="643" y="92"> UNIQUE </text>
<text text-anchor="middle" style="font-size:6.00;" x="575" y="104">title</text>
<text text-anchor="middle" style="font-size:6.00;" x="611" y="104">text</text>
<text text-anchor="middle" style="font-size:6.00;" x="584" y="116">description</text>
<text text-anchor="middle" style="font-size:6.00;" x="611" y="116">text</text>
<text text-anchor="middle" style="font-size:6.00;" x="578" y="128">owner</text>
<text text-anchor="middle" style="font-size:6.00;" x="614" y="128">integer</text>
<text text-anchor="middle" style="font-size:6.00;" x="659" y="128"> REFERENCES person </text>
<polygon style="fill:none;stroke:black;" points="564,134 564,56 694,56 694,134 564,134"/>
</g>
<g id="edge16" class="edge"><title>processor&#45;&gt;processorfamily</title>
<path style="fill:none;stroke:black;" d="M511,71C523,73 534,76 546,78"/>
<polygon style="fill:black;stroke:black;" points="547,75 556,80 546,81 547,75"/>
</g>
<g id="edge20" class="edge"><title>processorfamily&#45;&gt;person</title>
<path style="fill:none;stroke:black;" d="M563,138C548,148 531,159 513,171"/>
<polygon style="fill:black;stroke:black;" points="515,174 505,176 512,168 515,174"/>
</g>
</g>
</svg>
