<?xml version="1.0" encoding="UTF-8" standalone="no"?>
<!DOCTYPE svg PUBLIC "-//W3C//DTD SVG 1.0//EN"
 "http://www.w3.org/TR/2001/REC-SVG-20010904/DTD/svg10.dtd">
<!-- Generated by fdp version 2.2.1 (Thu Apr 14 05:40:09 UTC 2005)
     For user: (stub) Stuart Bishop,,,   Title: g    Pages: 1 -->
<svg width="667px" height="535px"
 viewBox = "-1 -1 666 534"
 xmlns="http://www.w3.org/2000/svg">
<g id="graph0" class="graph" transform = "scale(0.689065)"
 style="font-family:Times-Roman;font-size:14.00;">
<title>g</title>
<text text-anchor="middle" style="font-size:22.00;" x="480" y="757">Misc</text>
<g id="node1" class="node"><title>label</title>
<polygon style="fill:#c1cdcc;stroke:#c1cdcc;" points="14,475 14,397 170,397 170,475 14,475"/>
<polygon style="fill:white;stroke:white;" points="17,412 17,400 167,400 167,412 17,412"/>
<text text-anchor="middle" style="font-size:6.00;" x="92" y="408">label</text>
<polygon style="fill:none;stroke:black;" points="17,412 17,400 167,400 167,412 17,412"/>
<text text-anchor="middle" style="font-size:6.00;" x="22" y="421">id</text>
<text text-anchor="middle" style="font-size:6.00;" x="62" y="421">serial</text>
<text text-anchor="middle" style="font-size:6.00;" x="102" y="421"> PRIMARY KEY </text>
<text text-anchor="middle" style="font-size:6.00;" x="29" y="433">schema</text>
<text text-anchor="middle" style="font-size:6.00;" x="64" y="433">integer</text>
<text text-anchor="middle" style="font-size:6.00;" x="122" y="433"> REFERENCES schema UNIQUE </text>
<text text-anchor="middle" style="font-size:6.00;" x="27" y="445">name</text>
<text text-anchor="middle" style="font-size:6.00;" x="61" y="445">text</text>
<text text-anchor="middle" style="font-size:6.00;" x="93" y="445"> UNIQUE </text>
<text text-anchor="middle" style="font-size:6.00;" x="25" y="457">title</text>
<text text-anchor="middle" style="font-size:6.00;" x="61" y="457">text</text>
<text text-anchor="middle" style="font-size:6.00;" x="34" y="469">description</text>
<text text-anchor="middle" style="font-size:6.00;" x="61" y="469">text</text>
<polygon style="fill:none;stroke:black;" points="14,475 14,397 170,397 170,475 14,475"/>
</g>
<g id="node12" class="node"><title>fake_schema_130</title>
<ellipse cx="72" cy="349" rx="27" ry="18" style="fill:none;stroke:red;"/>
<text text-anchor="middle" style="font-size:6.00;" x="72" y="351">schema</text>
</g>
<g id="edge2" class="edge"><title>label&#45;&gt;fake_schema_130</title>
<path style="fill:none;stroke:black;" d="M82,393C81,388 80,382 78,377"/>
<polygon style="fill:black;stroke:black;" points="75,377 76,367 81,376 75,377"/>
</g>
<g id="node2" class="node"><title>launchpaddatabaserevision</title>
<polygon style="fill:#c1cdcc;stroke:#c1cdcc;" points="194,440 194,386 296,386 296,440 194,440"/>
<polygon style="fill:white;stroke:white;" points="197,401 197,389 293,389 293,401 197,401"/>
<text text-anchor="middle" style="font-size:6.00;" x="245" y="397">launchpaddatabaserevision</text>
<polygon style="fill:none;stroke:black;" points="197,401 197,389 293,389 293,401 197,401"/>
<text text-anchor="middle" style="font-size:6.00;" x="207" y="410">major</text>
<text text-anchor="middle" style="font-size:6.00;" x="231" y="410">integer</text>
<text text-anchor="middle" style="font-size:6.00;" x="269" y="410"> PRIMARY KEY </text>
<text text-anchor="middle" style="font-size:6.00;" x="207" y="422">minor</text>
<text text-anchor="middle" style="font-size:6.00;" x="231" y="422">integer</text>
<text text-anchor="middle" style="font-size:6.00;" x="269" y="422"> PRIMARY KEY </text>
<text text-anchor="middle" style="font-size:6.00;" x="207" y="434">patch</text>
<text text-anchor="middle" style="font-size:6.00;" x="231" y="434">integer</text>
<text text-anchor="middle" style="font-size:6.00;" x="269" y="434"> PRIMARY KEY </text>
<polygon style="fill:none;stroke:black;" points="194,440 194,386 296,386 296,440 194,440"/>
</g>
<g id="node3" class="node"><title>launchpadstatistic</title>
<polygon style="fill:#c1cdcc;stroke:#c1cdcc;" points="158,368 158,302 284,302 284,368 158,368"/>
<polygon style="fill:white;stroke:white;" points="161,317 161,305 281,305 281,317 161,317"/>
<text text-anchor="middle" style="font-size:6.00;" x="221" y="313">launchpadstatistic</text>
<polygon style="fill:none;stroke:black;" points="161,317 161,305 281,305 281,317 161,317"/>
<text text-anchor="middle" style="font-size:6.00;" x="166" y="326">id</text>
<text text-anchor="middle" style="font-size:6.00;" x="208" y="326">serial</text>
<text text-anchor="middle" style="font-size:6.00;" x="257" y="326"> PRIMARY KEY </text>
<text text-anchor="middle" style="font-size:6.00;" x="171" y="338">name</text>
<text text-anchor="middle" style="font-size:6.00;" x="207" y="338">text</text>
<text text-anchor="middle" style="font-size:6.00;" x="248" y="338"> UNIQUE </text>
<text text-anchor="middle" style="font-size:6.00;" x="171" y="350">value</text>
<text text-anchor="middle" style="font-size:6.00;" x="210" y="350">integer</text>
<text text-anchor="middle" style="font-size:6.00;" x="179" y="362">dateupdated</text>
<text text-anchor="middle" style="font-size:6.00;" x="215" y="362">timestamp</text>
<polygon style="fill:none;stroke:black;" points="158,368 158,302 284,302 284,368 158,368"/>
</g>
<g id="node4" class="node"><title>libraryfilealias</title>
<polygon style="fill:#c1cdcc;stroke:#c1cdcc;" points="590,557 590,479 752,479 752,557 590,557"/>
<polygon style="fill:white;stroke:white;" points="593,494 593,482 749,482 749,494 593,494"/>
<text text-anchor="middle" style="font-size:6.00;" x="671" y="490">libraryfilealias</text>
<polygon style="fill:none;stroke:black;" points="593,494 593,482 749,482 749,494 593,494"/>
<text text-anchor="middle" style="font-size:6.00;" x="598" y="503">id</text>
<text text-anchor="middle" style="font-size:6.00;" x="635" y="503">serial</text>
<text text-anchor="middle" style="font-size:6.00;" x="684" y="503"> PRIMARY KEY </text>
<text text-anchor="middle" style="font-size:6.00;" x="605" y="515">content</text>
<text text-anchor="middle" style="font-size:6.00;" x="637" y="515">integer</text>
<text text-anchor="middle" style="font-size:6.00;" x="704" y="515"> REFERENCES libraryfilecontent </text>
<text text-anchor="middle" style="font-size:6.00;" x="607" y="527">filename</text>
<text text-anchor="middle" style="font-size:6.00;" x="634" y="527">text</text>
<text text-anchor="middle" style="font-size:6.00;" x="608" y="539">mimetype</text>
<text text-anchor="middle" style="font-size:6.00;" x="634" y="539">text</text>
<text text-anchor="middle" style="font-size:6.00;" x="605" y="551">expires</text>
<text text-anchor="middle" style="font-size:6.00;" x="642" y="551">timestamp</text>
<polygon style="fill:none;stroke:black;" points="590,557 590,479 752,479 752,557 590,557"/>
</g>
<g id="node5" class="node"><title>libraryfilecontent</title>
<polygon style="fill:#c1cdcc;stroke:#c1cdcc;" points="786,584 786,506 920,506 920,584 786,584"/>
<polygon style="fill:white;stroke:white;" points="789,521 789,509 917,509 917,521 789,521"/>
<text text-anchor="middle" style="font-size:6.00;" x="853" y="517">libraryfilecontent</text>
<polygon style="fill:none;stroke:black;" points="789,521 789,509 917,509 917,521 789,521"/>
<text text-anchor="middle" style="font-size:6.00;" x="794" y="530">id</text>
<text text-anchor="middle" style="font-size:6.00;" x="837" y="530">serial</text>
<text text-anchor="middle" style="font-size:6.00;" x="893" y="530"> PRIMARY KEY </text>
<text text-anchor="middle" style="font-size:6.00;" x="806" y="542">datecreated</text>
<text text-anchor="middle" style="font-size:6.00;" x="844" y="542">timestamp</text>
<text text-anchor="middle" style="font-size:6.00;" x="808" y="554">datemirrored</text>
<text text-anchor="middle" style="font-size:6.00;" x="844" y="554">timestamp</text>
<text text-anchor="middle" style="font-size:6.00;" x="801" y="566">filesize</text>
<text text-anchor="middle" style="font-size:6.00;" x="839" y="566">integer</text>
<text text-anchor="middle" style="font-size:6.00;" x="797" y="578">sha1</text>
<text text-anchor="middle" style="font-size:6.00;" x="847" y="578">character(40)</text>
<polygon style="fill:none;stroke:black;" points="786,584 786,506 920,506 920,584 786,584"/>
</g>
<g id="edge4" class="edge"><title>libraryfilealias&#45;&gt;libraryfilecontent</title>
<path style="fill:none;stroke:black;" d="M760,531C763,531 765,532 768,532"/>
<polygon style="fill:black;stroke:black;" points="769,529 778,534 768,535 769,529"/>
</g>
<g id="node6" class="node"><title>message</title>
<polygon style="fill:#c1cdcc;stroke:#c1cdcc;" points="597,211 597,85 757,85 757,211 597,211"/>
<polygon style="fill:white;stroke:white;" points="600,100 600,88 754,88 754,100 600,100"/>
<text text-anchor="middle" style="font-size:6.00;" x="677" y="96">message</text>
<polygon style="fill:none;stroke:black;" points="600,100 600,88 754,88 754,100 600,100"/>
<text text-anchor="middle" style="font-size:6.00;" x="605" y="109">id</text>
<text text-anchor="middle" style="font-size:6.00;" x="647" y="109">serial</text>
<text text-anchor="middle" style="font-size:6.00;" x="696" y="109"> PRIMARY KEY </text>
<text text-anchor="middle" style="font-size:6.00;" x="617" y="121">datecreated</text>
<text text-anchor="middle" style="font-size:6.00;" x="654" y="121">timestamp</text>
<text text-anchor="middle" style="font-size:6.00;" x="611" y="133">subject</text>
<text text-anchor="middle" style="font-size:6.00;" x="646" y="133">text</text>
<text text-anchor="middle" style="font-size:6.00;" x="611" y="145">owner</text>
<text text-anchor="middle" style="font-size:6.00;" x="649" y="145">integer</text>
<text text-anchor="middle" style="font-size:6.00;" x="703" y="145"> REFERENCES person </text>
<text text-anchor="middle" style="font-size:6.00;" x="611" y="157">parent</text>
<text text-anchor="middle" style="font-size:6.00;" x="649" y="157">integer</text>
<text text-anchor="middle" style="font-size:6.00;" x="705" y="157"> REFERENCES message </text>
<text text-anchor="middle" style="font-size:6.00;" x="617" y="169">distribution</text>
<text text-anchor="middle" style="font-size:6.00;" x="649" y="169">integer</text>
<text text-anchor="middle" style="font-size:6.00;" x="709" y="169"> REFERENCES distribution </text>
<text text-anchor="middle" style="font-size:6.00;" x="618" y="181">rfc822msgid</text>
<text text-anchor="middle" style="font-size:6.00;" x="646" y="181">text</text>
<text text-anchor="middle" style="font-size:6.00;" x="606" y="193">fti</text>
<text text-anchor="middle" style="font-size:6.00;" x="651" y="193">tsvector</text>
<text text-anchor="middle" style="font-size:6.00;" x="607" y="205">raw</text>
<text text-anchor="middle" style="font-size:6.00;" x="649" y="205">integer</text>
<text text-anchor="middle" style="font-size:6.00;" x="713" y="205"> REFERENCES libraryfilealias </text>
<polygon style="fill:none;stroke:black;" points="597,211 597,85 757,85 757,211 597,211"/>
</g>
<g id="edge8" class="edge"><title>message&#45;&gt;message</title>
<path style="fill:none;stroke:black;" d="M765,191C776,184 783,169 783,148 783,132 779,120 772,112"/>
<polygon style="fill:black;stroke:black;" points="770,115 765,105 775,110 770,115"/>
</g>
<g id="node15" class="node"><title>fake_person_143</title>
<ellipse cx="537" cy="184" rx="27" ry="18" style="fill:none;stroke:red;"/>
<text text-anchor="middle" style="font-size:6.00;" x="537" y="186">person</text>
</g>
<g id="edge6" class="edge"><title>message&#45;&gt;fake_person_143</title>
<path style="fill:none;stroke:black;" d="M589,171C583,172 577,174 572,175"/>
<polygon style="fill:black;stroke:black;" points="573,178 562,178 571,172 573,178"/>
</g>
<g id="node18" class="node"><title>fake_distribution_146</title>
<ellipse cx="649" cy="27" rx="27" ry="18" style="fill:none;stroke:red;"/>
<text text-anchor="middle" style="font-size:6.00;" x="649" y="29">distribution</text>
</g>
<g id="edge10" class="edge"><title>message&#45;&gt;fake_distribution_146</title>
<path style="fill:none;stroke:black;" d="M661,81C659,72 657,63 655,55"/>
<polygon style="fill:black;stroke:black;" points="652,55 653,45 658,54 652,55"/>
</g>
<g id="node20" class="node"><title>fake_libraryfilealias_148</title>
<ellipse cx="725" cy="318" rx="29" ry="18" style="fill:none;stroke:red;"/>
<text text-anchor="middle" style="font-size:6.00;" x="725" y="320">libraryfilealias</text>
</g>
<g id="edge12" class="edge"><title>message&#45;&gt;fake_libraryfilealias_148</title>
<path style="fill:none;stroke:black;" d="M696,215C703,241 711,270 717,290"/>
<polygon style="fill:black;stroke:black;" points="720,289 720,300 714,291 720,289"/>
</g>
<g id="node7" class="node"><title>messagechunk</title>
<polygon style="fill:#c1cdcc;stroke:#c1cdcc;" points="793,208 793,118 947,118 947,208 793,208"/>
<polygon style="fill:white;stroke:white;" points="796,133 796,121 944,121 944,133 796,133"/>
<text text-anchor="middle" style="font-size:6.00;" x="870" y="129">messagechunk</text>
<polygon style="fill:none;stroke:black;" points="796,133 796,121 944,121 944,133 796,133"/>
<text text-anchor="middle" style="font-size:6.00;" x="801" y="142">id</text>
<text text-anchor="middle" style="font-size:6.00;" x="834" y="142">serial</text>
<text text-anchor="middle" style="font-size:6.00;" x="877" y="142"> PRIMARY KEY </text>
<text text-anchor="middle" style="font-size:6.00;" x="809" y="154">message</text>
<text text-anchor="middle" style="font-size:6.00;" x="836" y="154">integer</text>
<text text-anchor="middle" style="font-size:6.00;" x="898" y="154"> REFERENCES message UNIQUE </text>
<text text-anchor="middle" style="font-size:6.00;" x="810" y="166">sequence</text>
<text text-anchor="middle" style="font-size:6.00;" x="836" y="166">integer</text>
<text text-anchor="middle" style="font-size:6.00;" x="868" y="166"> UNIQUE </text>
<text text-anchor="middle" style="font-size:6.00;" x="808" y="178">content</text>
<text text-anchor="middle" style="font-size:6.00;" x="833" y="178">text</text>
<text text-anchor="middle" style="font-size:6.00;" x="805" y="190">blob</text>
<text text-anchor="middle" style="font-size:6.00;" x="836" y="190">integer</text>
<text text-anchor="middle" style="font-size:6.00;" x="894" y="190"> REFERENCES libraryfilealias </text>
<text text-anchor="middle" style="font-size:6.00;" x="802" y="202">fti</text>
<text text-anchor="middle" style="font-size:6.00;" x="838" y="202">tsvector</text>
<polygon style="fill:none;stroke:black;" points="793,208 793,118 947,118 947,208 793,208"/>
</g>
<g id="edge14" class="edge"><title>messagechunk&#45;&gt;message</title>
<path style="fill:none;stroke:black;" d="M785,156C782,155 778,155 775,155"/>
<polygon style="fill:black;stroke:black;" points="775,158 765,154 775,152 775,158"/>
</g>
<g id="node23" class="node"><title>fake_libraryfilealias_151</title>
<ellipse cx="870" cy="75" rx="29" ry="18" style="fill:none;stroke:red;"/>
<text text-anchor="middle" style="font-size:6.00;" x="870" y="77">libraryfilealias</text>
</g>
<g id="edge16" class="edge"><title>messagechunk&#45;&gt;fake_libraryfilealias_151</title>
<path style="fill:none;stroke:black;" d="M870,114C870,110 870,107 870,103"/>
<polygon style="fill:black;stroke:black;" points="867,103 870,93 874,103 867,103"/>
</g>
<g id="node8" class="node"><title>person</title>
<polygon style="fill:#c1cdcc;stroke:#c1cdcc;" points="344,604 344,238 546,238 546,604 344,604"/>
<polygon style="fill:white;stroke:white;" points="347,253 347,241 543,241 543,253 347,253"/>
<text text-anchor="middle" style="font-size:6.00;" x="445" y="249">person</text>
<polygon style="fill:none;stroke:black;" points="347,253 347,241 543,241 543,253 347,253"/>
<text text-anchor="middle" style="font-size:6.00;" x="352" y="262">id</text>
<text text-anchor="middle" style="font-size:6.00;" x="427" y="262">serial</text>
<text text-anchor="middle" style="font-size:6.00;" x="476" y="262"> PRIMARY KEY </text>
<text text-anchor="middle" style="font-size:6.00;" x="365" y="274">displayname</text>
<text text-anchor="middle" style="font-size:6.00;" x="426" y="274">text</text>
<text text-anchor="middle" style="font-size:6.00;" x="363" y="286">givenname</text>
<text text-anchor="middle" style="font-size:6.00;" x="426" y="286">text</text>
<text text-anchor="middle" style="font-size:6.00;" x="364" y="298">familyname</text>
<text text-anchor="middle" style="font-size:6.00;" x="426" y="298">text</text>
<text text-anchor="middle" style="font-size:6.00;" x="361" y="310">password</text>
<text text-anchor="middle" style="font-size:6.00;" x="426" y="310">text</text>
<text text-anchor="middle" style="font-size:6.00;" x="363" y="322">teamowner</text>
<text text-anchor="middle" style="font-size:6.00;" x="429" y="322">integer</text>
<text text-anchor="middle" style="font-size:6.00;" x="483" y="322"> REFERENCES person </text>
<text text-anchor="middle" style="font-size:6.00;" x="370" y="334">teamdescription</text>
<text text-anchor="middle" style="font-size:6.00;" x="426" y="334">text</text>
<text text-anchor="middle" style="font-size:6.00;" x="357" y="346">name</text>
<text text-anchor="middle" style="font-size:6.00;" x="426" y="346">text</text>
<text text-anchor="middle" style="font-size:6.00;" x="361" y="358">language</text>
<text text-anchor="middle" style="font-size:6.00;" x="429" y="358">integer</text>
<text text-anchor="middle" style="font-size:6.00;" x="486" y="358"> REFERENCES language </text>
<text text-anchor="middle" style="font-size:6.00;" x="353" y="370">fti</text>
<text text-anchor="middle" style="font-size:6.00;" x="431" y="370">tsvector</text>
<text text-anchor="middle" style="font-size:6.00;" x="381" y="382">defaultmembershipperiod</text>
<text text-anchor="middle" style="font-size:6.00;" x="429" y="382">integer</text>
<text text-anchor="middle" style="font-size:6.00;" x="376" y="394">defaultrenewalperiod</text>
<text text-anchor="middle" style="font-size:6.00;" x="429" y="394">integer</text>
<text text-anchor="middle" style="font-size:6.00;" x="372" y="406">subscriptionpolicy</text>
<text text-anchor="middle" style="font-size:6.00;" x="429" y="406">integer</text>
<text text-anchor="middle" style="font-size:6.00;" x="359" y="418">merged</text>
<text text-anchor="middle" style="font-size:6.00;" x="429" y="418">integer</text>
<text text-anchor="middle" style="font-size:6.00;" x="483" y="418"> REFERENCES person </text>
<text text-anchor="middle" style="font-size:6.00;" x="364" y="430">datecreated</text>
<text text-anchor="middle" style="font-size:6.00;" x="434" y="430">timestamp</text>
<text text-anchor="middle" style="font-size:6.00;" x="360" y="442">calendar</text>
<text text-anchor="middle" style="font-size:6.00;" x="429" y="442">integer</text>
<text text-anchor="middle" style="font-size:6.00;" x="497" y="442"> REFERENCES calendar UNIQUE </text>
<text text-anchor="middle" style="font-size:6.00;" x="361" y="454">timezone</text>
<text text-anchor="middle" style="font-size:6.00;" x="426" y="454">text</text>
<text text-anchor="middle" style="font-size:6.00;" x="358" y="466">karma</text>
<text text-anchor="middle" style="font-size:6.00;" x="429" y="466">integer</text>
<text text-anchor="middle" style="font-size:6.00;" x="365" y="478">addressline1</text>
<text text-anchor="middle" style="font-size:6.00;" x="426" y="478">text</text>
<text text-anchor="middle" style="font-size:6.00;" x="365" y="490">addressline2</text>
<text text-anchor="middle" style="font-size:6.00;" x="426" y="490">text</text>
<text text-anchor="middle" style="font-size:6.00;" x="365" y="502">organization</text>
<text text-anchor="middle" style="font-size:6.00;" x="426" y="502">text</text>
<text text-anchor="middle" style="font-size:6.00;" x="355" y="514">city</text>
<text text-anchor="middle" style="font-size:6.00;" x="426" y="514">text</text>
<text text-anchor="middle" style="font-size:6.00;" x="361" y="526">province</text>
<text text-anchor="middle" style="font-size:6.00;" x="426" y="526">text</text>
<text text-anchor="middle" style="font-size:6.00;" x="360" y="538">country</text>
<text text-anchor="middle" style="font-size:6.00;" x="429" y="538">integer</text>
<text text-anchor="middle" style="font-size:6.00;" x="485" y="538"> REFERENCES country </text>
<text text-anchor="middle" style="font-size:6.00;" x="361" y="550">postcode</text>
<text text-anchor="middle" style="font-size:6.00;" x="426" y="550">text</text>
<text text-anchor="middle" style="font-size:6.00;" x="358" y="562">phone</text>
<text text-anchor="middle" style="font-size:6.00;" x="426" y="562">text</text>
<text text-anchor="middle" style="font-size:6.00;" x="373" y="574">homepage_content</text>
<text text-anchor="middle" style="font-size:6.00;" x="426" y="574">text</text>
<text text-anchor="middle" style="font-size:6.00;" x="360" y="586">emblem</text>
<text text-anchor="middle" style="font-size:6.00;" x="429" y="586">integer</text>
<text text-anchor="middle" style="font-size:6.00;" x="493" y="586"> REFERENCES libraryfilealias </text>
<text text-anchor="middle" style="font-size:6.00;" x="366" y="598">hackergotchi</text>
<text text-anchor="middle" style="font-size:6.00;" x="429" y="598">integer</text>
<text text-anchor="middle" style="font-size:6.00;" x="493" y="598"> REFERENCES libraryfilealias </text>
<polygon style="fill:none;stroke:black;" points="344,604 344,238 546,238 546,604 344,604"/>
</g>
<g id="edge22" class="edge"><title>person&#45;&gt;person</title>
<path style="fill:none;stroke:black;" d="M554,478C565,466 572,448 572,421 572,399 568,384 560,372"/>
<polygon style="fill:black;stroke:black;" points="557,374 554,364 563,370 557,374"/>
</g>
<g id="edge18" class="edge"><title>person&#45;&gt;person</title>
<path style="fill:none;stroke:black;" d="M554,554C575,538 590,494 590,421 590,357 578,315 561,295"/>
<polygon style="fill:black;stroke:black;" points="559,298 554,288 564,293 559,298"/>
</g>
<g id="node26" class="node"><title>fake_language_173</title>
<ellipse cx="638" cy="627" rx="27" ry="18" style="fill:none;stroke:red;"/>
<text text-anchor="middle" style="font-size:6.00;" x="638" y="629">language</text>
</g>
<g id="edge20" class="edge"><title>person&#45;&gt;fake_language_173</title>
<path style="fill:none;stroke:black;" d="M554,538C578,563 601,588 617,605"/>
<polygon style="fill:black;stroke:black;" points="619,602 624,612 614,607 619,602"/>
</g>
<g id="node29" class="node"><title>fake_calendar_176</title>
<ellipse cx="597" cy="355" rx="27" ry="18" style="fill:none;stroke:red;"/>
<text text-anchor="middle" style="font-size:6.00;" x="597" y="357">calendar</text>
</g>
<g id="edge24" class="edge"><title>person&#45;&gt;fake_calendar_176</title>
<path style="fill:none;stroke:black;" d="M554,374C558,372 561,371 565,369"/>
<polygon style="fill:black;stroke:black;" points="563,366 574,365 566,372 563,366"/>
</g>
<g id="node31" class="node"><title>fake_country_178</title>
<ellipse cx="287" cy="175" rx="27" ry="18" style="fill:none;stroke:red;"/>
<text text-anchor="middle" style="font-size:6.00;" x="287" y="177">country</text>
</g>
<g id="edge26" class="edge"><title>person&#45;&gt;fake_country_178</title>
<path style="fill:none;stroke:black;" d="M336,251C324,231 312,214 304,201"/>
<polygon style="fill:black;stroke:black;" points="301,202 298,192 306,198 301,202"/>
</g>
<g id="node33" class="node"><title>fake_libraryfilealias_180</title>
<ellipse cx="385" cy="714" rx="29" ry="18" style="fill:none;stroke:red;"/>
<text text-anchor="middle" style="font-size:6.00;" x="385" y="716">libraryfilealias</text>
</g>
<g id="edge28" class="edge"><title>person&#45;&gt;fake_libraryfilealias_180</title>
<path style="fill:none;stroke:black;" d="M407,608C400,638 395,667 391,686"/>
<polygon style="fill:black;stroke:black;" points="394,687 389,696 388,686 394,687"/>
</g>
<g id="node35" class="node"><title>fake_libraryfilealias_182</title>
<ellipse cx="496" cy="133" rx="29" ry="18" style="fill:none;stroke:red;"/>
<text text-anchor="middle" style="font-size:6.00;" x="496" y="135">libraryfilealias</text>
</g>
<g id="edge30" class="edge"><title>person&#45;&gt;fake_libraryfilealias_182</title>
<path style="fill:none;stroke:black;" d="M478,234C483,205 488,180 491,161"/>
<polygon style="fill:black;stroke:black;" points="488,160 493,151 494,161 488,160"/>
</g>
<g id="node9" class="node"><title>personlabel</title>
<polygon style="fill:#c1cdcc;stroke:#c1cdcc;" points="193,561 193,519 311,519 311,561 193,561"/>
<polygon style="fill:white;stroke:white;" points="196,534 196,522 308,522 308,534 196,534"/>
<text text-anchor="middle" style="font-size:6.00;" x="252" y="530">personlabel</text>
<polygon style="fill:none;stroke:black;" points="196,534 196,522 308,522 308,534 196,534"/>
<text text-anchor="middle" style="font-size:6.00;" x="207" y="543">person</text>
<text text-anchor="middle" style="font-size:6.00;" x="231" y="543">integer</text>
<text text-anchor="middle" style="font-size:6.00;" x="276" y="543"> REFERENCES person </text>
<text text-anchor="middle" style="font-size:6.00;" x="205" y="555">label</text>
<text text-anchor="middle" style="font-size:6.00;" x="231" y="555">integer</text>
<text text-anchor="middle" style="font-size:6.00;" x="274" y="555"> REFERENCES label </text>
<polygon style="fill:none;stroke:black;" points="193,561 193,519 311,519 311,561 193,561"/>
</g>
<g id="edge34" class="edge"><title>personlabel&#45;&gt;label</title>
<path style="fill:none;stroke:black;" d="M213,515C199,506 183,495 167,484"/>
<polygon style="fill:black;stroke:black;" points="165,487 158,479 168,481 165,487"/>
</g>
<g id="edge32" class="edge"><title>personlabel&#45;&gt;person</title>
<path style="fill:none;stroke:black;" d="M293,515C303,509 315,501 327,494"/>
<polygon style="fill:black;stroke:black;" points="326,491 336,489 329,497 326,491"/>
</g>
<g id="node10" class="node"><title>processor</title>
<polygon style="fill:#c1cdcc;stroke:#c1cdcc;" points="122,97 122,19 274,19 274,97 122,97"/>
<polygon style="fill:white;stroke:white;" points="125,34 125,22 271,22 271,34 125,34"/>
<text text-anchor="middle" style="font-size:6.00;" x="198" y="30">processor</text>
<polygon style="fill:none;stroke:black;" points="125,34 125,22 271,22 271,34 125,34"/>
<text text-anchor="middle" style="font-size:6.00;" x="130" y="43">id</text>
<text text-anchor="middle" style="font-size:6.00;" x="170" y="43">serial</text>
<text text-anchor="middle" style="font-size:6.00;" x="210" y="43"> PRIMARY KEY </text>
<text text-anchor="middle" style="font-size:6.00;" x="136" y="55">family</text>
<text text-anchor="middle" style="font-size:6.00;" x="172" y="55">integer</text>
<text text-anchor="middle" style="font-size:6.00;" x="228" y="55"> REFERENCES processorfamily </text>
<text text-anchor="middle" style="font-size:6.00;" x="135" y="67">name</text>
<text text-anchor="middle" style="font-size:6.00;" x="169" y="67">text</text>
<text text-anchor="middle" style="font-size:6.00;" x="201" y="67"> UNIQUE </text>
<text text-anchor="middle" style="font-size:6.00;" x="133" y="79">title</text>
<text text-anchor="middle" style="font-size:6.00;" x="169" y="79">text</text>
<text text-anchor="middle" style="font-size:6.00;" x="142" y="91">description</text>
<text text-anchor="middle" style="font-size:6.00;" x="169" y="91">text</text>
<polygon style="fill:none;stroke:black;" points="122,97 122,19 274,19 274,97 122,97"/>
</g>
<g id="node11" class="node"><title>processorfamily</title>
<polygon style="fill:#c1cdcc;stroke:#c1cdcc;" points="308,116 308,50 418,50 418,116 308,116"/>
<polygon style="fill:white;stroke:white;" points="311,65 311,53 415,53 415,65 311,65"/>
<text text-anchor="middle" style="font-size:6.00;" x="363" y="61">processorfamily</text>
<polygon style="fill:none;stroke:black;" points="311,65 311,53 415,53 415,65 311,65"/>
<text text-anchor="middle" style="font-size:6.00;" x="316" y="74">id</text>
<text text-anchor="middle" style="font-size:6.00;" x="355" y="74">serial</text>
<text text-anchor="middle" style="font-size:6.00;" x="391" y="74"> PRIMARY KEY </text>
<text text-anchor="middle" style="font-size:6.00;" x="321" y="86">name</text>
<text text-anchor="middle" style="font-size:6.00;" x="354" y="86">text</text>
<text text-anchor="middle" style="font-size:6.00;" x="382" y="86"> UNIQUE </text>
<text text-anchor="middle" style="font-size:6.00;" x="319" y="98">title</text>
<text text-anchor="middle" style="font-size:6.00;" x="354" y="98">text</text>
<text text-anchor="middle" style="font-size:6.00;" x="328" y="110">description</text>
<text text-anchor="middle" style="font-size:6.00;" x="354" y="110">text</text>
<polygon style="fill:none;stroke:black;" points="308,116 308,50 418,50 418,116 308,116"/>
</g>
<g id="edge36" class="edge"><title>processor&#45;&gt;processorfamily</title>
<path style="fill:none;stroke:black;" d="M282,71C285,71 287,72 290,72"/>
<polygon style="fill:black;stroke:black;" points="291,69 300,74 290,75 291,69"/>
</g>
</g>
</svg>
