<?xml version="1.0" encoding="UTF-8" standalone="no"?>
<!DOCTYPE svg PUBLIC "-//W3C//DTD SVG 1.0//EN"
 "http://www.w3.org/TR/2001/REC-SVG-20010904/DTD/svg10.dtd">
<!-- Generated by fdp version 2.2.1 (Tue Oct 11 01:38:21 UTC 2005)
     For user: (stub) Stuart Bishop,,,   Title: g    Pages: 1 -->
<svg width="1077px" height="713px"
 viewBox = "-1 -1 1076 712"
 xmlns="http://www.w3.org/2000/svg">
<g id="graph0" class="graph" style="font-family:Times-Roman;font-size:14.00;">
<title>g</title>
<text text-anchor="middle" style="font-size:22.00;" x="537" y="695">Misc</text>
<g id="node1" class="node"><title>fticache</title>
<polygon style="fill:#c1cdcc;stroke:#c1cdcc;" points="364,106 364,44 500,44 500,106 364,106"/>
<polygon style="fill:white;stroke:white;" points="367,61 367,47 497,47 497,61 367,61"/>
<text text-anchor="middle" style="font-size:8.00;" x="432" y="57">fticache</text>
<polygon style="fill:none;stroke:black;" points="367,61 367,47 497,47 497,61 367,61"/>
<text text-anchor="middle" style="font-size:8.00;" x="373" y="72">id</text>
<text text-anchor="middle" style="font-size:8.00;" x="420" y="72">serial</text>
<text text-anchor="middle" style="font-size:8.00;" x="465" y="72"> PRIMARY KEY </text>
<text text-anchor="middle" style="font-size:8.00;" x="387" y="86">tablename</text>
<text text-anchor="middle" style="font-size:8.00;" x="418" y="86">text</text>
<text text-anchor="middle" style="font-size:8.00;" x="453" y="86"> UNIQUE </text>
<text text-anchor="middle" style="font-size:8.00;" x="383" y="100">columns</text>
<text text-anchor="middle" style="font-size:8.00;" x="418" y="100">text</text>
<polygon style="fill:none;stroke:black;" points="364,106 364,44 500,44 500,106 364,106"/>
</g>
<g id="node2" class="node"><title>label</title>
<polygon style="fill:#c1cdcc;stroke:#c1cdcc;" points="14,560 14,470 210,470 210,560 14,560"/>
<polygon style="fill:white;stroke:white;" points="17,487 17,473 207,473 207,487 17,487"/>
<text text-anchor="middle" style="font-size:8.00;" x="112" y="483">label</text>
<polygon style="fill:none;stroke:black;" points="17,487 17,473 207,473 207,487 17,487"/>
<text text-anchor="middle" style="font-size:8.00;" x="23" y="498">id</text>
<text text-anchor="middle" style="font-size:8.00;" x="70" y="498">serial</text>
<text text-anchor="middle" style="font-size:8.00;" x="121" y="498"> PRIMARY KEY </text>
<text text-anchor="middle" style="font-size:8.00;" x="32" y="512">schema</text>
<text text-anchor="middle" style="font-size:8.00;" x="73" y="512">integer</text>
<text text-anchor="middle" style="font-size:8.00;" x="148" y="512"> REFERENCES schema UNIQUE </text>
<text text-anchor="middle" style="font-size:8.00;" x="29" y="526">name</text>
<text text-anchor="middle" style="font-size:8.00;" x="68" y="526">text</text>
<text text-anchor="middle" style="font-size:8.00;" x="109" y="526"> UNIQUE </text>
<text text-anchor="middle" style="font-size:8.00;" x="26" y="540">title</text>
<text text-anchor="middle" style="font-size:8.00;" x="68" y="540">text</text>
<text text-anchor="middle" style="font-size:8.00;" x="37" y="554">description</text>
<text text-anchor="middle" style="font-size:8.00;" x="68" y="554">text</text>
<polygon style="fill:none;stroke:black;" points="14,560 14,470 210,470 210,560 14,560"/>
</g>
<g id="node11" class="node"><title>schema</title>
<polygon style="fill:#c1cdcc;stroke:#c1cdcc;" points="108,445 108,341 272,341 272,445 108,445"/>
<polygon style="fill:white;stroke:white;" points="111,358 111,344 269,344 269,358 111,358"/>
<text text-anchor="middle" style="font-size:8.00;" x="190" y="354">schema</text>
<polygon style="fill:none;stroke:black;" points="111,358 111,344 269,344 269,358 111,358"/>
<text text-anchor="middle" style="font-size:8.00;" x="117" y="369">id</text>
<text text-anchor="middle" style="font-size:8.00;" x="164" y="369">serial</text>
<text text-anchor="middle" style="font-size:8.00;" x="218" y="369"> PRIMARY KEY </text>
<text text-anchor="middle" style="font-size:8.00;" x="123" y="383">name</text>
<text text-anchor="middle" style="font-size:8.00;" x="162" y="383">text</text>
<text text-anchor="middle" style="font-size:8.00;" x="120" y="397">title</text>
<text text-anchor="middle" style="font-size:8.00;" x="162" y="397">text</text>
<text text-anchor="middle" style="font-size:8.00;" x="131" y="411">description</text>
<text text-anchor="middle" style="font-size:8.00;" x="162" y="411">text</text>
<text text-anchor="middle" style="font-size:8.00;" x="124" y="425">owner</text>
<text text-anchor="middle" style="font-size:8.00;" x="167" y="425">integer</text>
<text text-anchor="middle" style="font-size:8.00;" x="228" y="425"> REFERENCES person </text>
<text text-anchor="middle" style="font-size:8.00;" x="130" y="439">extensible</text>
<text text-anchor="middle" style="font-size:8.00;" x="169" y="439">boolean</text>
<polygon style="fill:none;stroke:black;" points="108,445 108,341 272,341 272,445 108,445"/>
</g>
<g id="edge2" class="edge"><title>label&#45;&gt;schema</title>
<path style="fill:none;stroke:black;" d="M144,466C146,463 147,460 149,457"/>
<polygon style="fill:black;stroke:black;" points="146,455 155,449 152,459 146,455"/>
</g>
<g id="node3" class="node"><title>launchpaddatabaserevision</title>
<polygon style="fill:#c1cdcc;stroke:#c1cdcc;" points="679,71 679,9 807,9 807,71 679,71"/>
<polygon style="fill:white;stroke:white;" points="682,26 682,12 804,12 804,26 682,26"/>
<text text-anchor="middle" style="font-size:8.00;" x="743" y="22">launchpaddatabaserevision</text>
<polygon style="fill:none;stroke:black;" points="682,26 682,12 804,12 804,26 682,26"/>
<text text-anchor="middle" style="font-size:8.00;" x="694" y="37">major</text>
<text text-anchor="middle" style="font-size:8.00;" x="724" y="37">integer</text>
<text text-anchor="middle" style="font-size:8.00;" x="772" y="37"> PRIMARY KEY </text>
<text text-anchor="middle" style="font-size:8.00;" x="695" y="51">minor</text>
<text text-anchor="middle" style="font-size:8.00;" x="724" y="51">integer</text>
<text text-anchor="middle" style="font-size:8.00;" x="772" y="51"> PRIMARY KEY </text>
<text text-anchor="middle" style="font-size:8.00;" x="694" y="65">patch</text>
<text text-anchor="middle" style="font-size:8.00;" x="724" y="65">integer</text>
<text text-anchor="middle" style="font-size:8.00;" x="772" y="65"> PRIMARY KEY </text>
<polygon style="fill:none;stroke:black;" points="679,71 679,9 807,9 807,71 679,71"/>
</g>
<g id="node4" class="node"><title>launchpadstatistic</title>
<polygon style="fill:#c1cdcc;stroke:#c1cdcc;" points="609,631 609,555 767,555 767,631 609,631"/>
<polygon style="fill:white;stroke:white;" points="612,572 612,558 764,558 764,572 612,572"/>
<text text-anchor="middle" style="font-size:8.00;" x="688" y="568">launchpadstatistic</text>
<polygon style="fill:none;stroke:black;" points="612,572 612,558 764,558 764,572 612,572"/>
<text text-anchor="middle" style="font-size:8.00;" x="618" y="583">id</text>
<text text-anchor="middle" style="font-size:8.00;" x="670" y="583">serial</text>
<text text-anchor="middle" style="font-size:8.00;" x="732" y="583"> PRIMARY KEY </text>
<text text-anchor="middle" style="font-size:8.00;" x="624" y="597">name</text>
<text text-anchor="middle" style="font-size:8.00;" x="668" y="597">text</text>
<text text-anchor="middle" style="font-size:8.00;" x="720" y="597"> UNIQUE </text>
<text text-anchor="middle" style="font-size:8.00;" x="624" y="611">value</text>
<text text-anchor="middle" style="font-size:8.00;" x="673" y="611">integer</text>
<text text-anchor="middle" style="font-size:8.00;" x="634" y="625">dateupdated</text>
<text text-anchor="middle" style="font-size:8.00;" x="679" y="625">timestamp</text>
<polygon style="fill:none;stroke:black;" points="609,631 609,555 767,555 767,631 609,631"/>
</g>
<g id="node5" class="node"><title>libraryfilealias</title>
<polygon style="fill:#c1cdcc;stroke:#c1cdcc;" points="644,213 644,109 860,109 860,213 644,213"/>
<polygon style="fill:white;stroke:white;" points="647,126 647,112 857,112 857,126 647,126"/>
<text text-anchor="middle" style="font-size:8.00;" x="752" y="122">libraryfilealias</text>
<polygon style="fill:none;stroke:black;" points="647,126 647,112 857,112 857,126 647,126"/>
<text text-anchor="middle" style="font-size:8.00;" x="653" y="137">id</text>
<text text-anchor="middle" style="font-size:8.00;" x="710" y="137">serial</text>
<text text-anchor="middle" style="font-size:8.00;" x="772" y="137"> PRIMARY KEY </text>
<text text-anchor="middle" style="font-size:8.00;" x="661" y="151">content</text>
<text text-anchor="middle" style="font-size:8.00;" x="713" y="151">integer</text>
<text text-anchor="middle" style="font-size:8.00;" x="799" y="151"> REFERENCES libraryfilecontent </text>
<text text-anchor="middle" style="font-size:8.00;" x="664" y="165">filename</text>
<text text-anchor="middle" style="font-size:8.00;" x="708" y="165">text</text>
<text text-anchor="middle" style="font-size:8.00;" x="666" y="179">mimetype</text>
<text text-anchor="middle" style="font-size:8.00;" x="708" y="179">text</text>
<text text-anchor="middle" style="font-size:8.00;" x="662" y="193">expires</text>
<text text-anchor="middle" style="font-size:8.00;" x="719" y="193">timestamp</text>
<text text-anchor="middle" style="font-size:8.00;" x="672" y="207">last_accessed</text>
<text text-anchor="middle" style="font-size:8.00;" x="719" y="207">timestamp</text>
<polygon style="fill:none;stroke:black;" points="644,213 644,109 860,109 860,213 644,213"/>
</g>
<g id="node6" class="node"><title>libraryfilecontent</title>
<polygon style="fill:#c1cdcc;stroke:#c1cdcc;" points="893,246 893,142 1061,142 1061,246 893,246"/>
<polygon style="fill:white;stroke:white;" points="896,159 896,145 1058,145 1058,159 896,159"/>
<text text-anchor="middle" style="font-size:8.00;" x="977" y="155">libraryfilecontent</text>
<polygon style="fill:none;stroke:black;" points="896,159 896,145 1058,145 1058,159 896,159"/>
<text text-anchor="middle" style="font-size:8.00;" x="902" y="170">id</text>
<text text-anchor="middle" style="font-size:8.00;" x="955" y="170">serial</text>
<text text-anchor="middle" style="font-size:8.00;" x="1026" y="170"> PRIMARY KEY </text>
<text text-anchor="middle" style="font-size:8.00;" x="917" y="184">datecreated</text>
<text text-anchor="middle" style="font-size:8.00;" x="964" y="184">timestamp</text>
<text text-anchor="middle" style="font-size:8.00;" x="919" y="198">datemirrored</text>
<text text-anchor="middle" style="font-size:8.00;" x="964" y="198">timestamp</text>
<text text-anchor="middle" style="font-size:8.00;" x="911" y="212">filesize</text>
<text text-anchor="middle" style="font-size:8.00;" x="958" y="212">integer</text>
<text text-anchor="middle" style="font-size:8.00;" x="906" y="226">sha1</text>
<text text-anchor="middle" style="font-size:8.00;" x="968" y="226">character(40)</text>
<text text-anchor="middle" style="font-size:8.00;" x="910" y="240">deleted</text>
<text text-anchor="middle" style="font-size:8.00;" x="960" y="240">boolean</text>
<polygon style="fill:none;stroke:black;" points="893,246 893,142 1061,142 1061,246 893,246"/>
</g>
<g id="edge4" class="edge"><title>libraryfilealias&#45;&gt;libraryfilecontent</title>
<path style="fill:none;stroke:black;" d="M868,178C870,178 873,179 875,179"/>
<polygon style="fill:black;stroke:black;" points="875,176 885,180 875,182 875,176"/>
</g>
<g id="node7" class="node"><title>person</title>
<polygon style="fill:#c1cdcc;stroke:#c1cdcc;" points="305,550 305,152 563,152 563,550 305,550"/>
<polygon style="fill:white;stroke:white;" points="308,169 308,155 560,155 560,169 308,169"/>
<text text-anchor="middle" style="font-size:8.00;" x="434" y="165">person</text>
<polygon style="fill:none;stroke:black;" points="308,169 308,155 560,155 560,169 308,169"/>
<text text-anchor="middle" style="font-size:8.00;" x="314" y="180">id</text>
<text text-anchor="middle" style="font-size:8.00;" x="409" y="180">serial</text>
<text text-anchor="middle" style="font-size:8.00;" x="471" y="180"> PRIMARY KEY </text>
<text text-anchor="middle" style="font-size:8.00;" x="331" y="194">displayname</text>
<text text-anchor="middle" style="font-size:8.00;" x="407" y="194">text</text>
<text text-anchor="middle" style="font-size:8.00;" x="326" y="208">password</text>
<text text-anchor="middle" style="font-size:8.00;" x="407" y="208">text</text>
<text text-anchor="middle" style="font-size:8.00;" x="329" y="222">teamowner</text>
<text text-anchor="middle" style="font-size:8.00;" x="412" y="222">integer</text>
<text text-anchor="middle" style="font-size:8.00;" x="481" y="222"> REFERENCES person </text>
<text text-anchor="middle" style="font-size:8.00;" x="337" y="236">teamdescription</text>
<text text-anchor="middle" style="font-size:8.00;" x="407" y="236">text</text>
<text text-anchor="middle" style="font-size:8.00;" x="320" y="250">name</text>
<text text-anchor="middle" style="font-size:8.00;" x="407" y="250">text</text>
<text text-anchor="middle" style="font-size:8.00;" x="326" y="264">language</text>
<text text-anchor="middle" style="font-size:8.00;" x="412" y="264">integer</text>
<text text-anchor="middle" style="font-size:8.00;" x="485" y="264"> REFERENCES language </text>
<text text-anchor="middle" style="font-size:8.00;" x="315" y="278">fti</text>
<text text-anchor="middle" style="font-size:8.00;" x="414" y="278">tsvector</text>
<text text-anchor="middle" style="font-size:8.00;" x="352" y="292">defaultmembershipperiod</text>
<text text-anchor="middle" style="font-size:8.00;" x="412" y="292">integer</text>
<text text-anchor="middle" style="font-size:8.00;" x="345" y="306">defaultrenewalperiod</text>
<text text-anchor="middle" style="font-size:8.00;" x="412" y="306">integer</text>
<text text-anchor="middle" style="font-size:8.00;" x="340" y="320">subscriptionpolicy</text>
<text text-anchor="middle" style="font-size:8.00;" x="412" y="320">integer</text>
<text text-anchor="middle" style="font-size:8.00;" x="323" y="334">merged</text>
<text text-anchor="middle" style="font-size:8.00;" x="412" y="334">integer</text>
<text text-anchor="middle" style="font-size:8.00;" x="481" y="334"> REFERENCES person </text>
<text text-anchor="middle" style="font-size:8.00;" x="329" y="348">datecreated</text>
<text text-anchor="middle" style="font-size:8.00;" x="418" y="348">timestamp</text>
<text text-anchor="middle" style="font-size:8.00;" x="324" y="362">calendar</text>
<text text-anchor="middle" style="font-size:8.00;" x="412" y="362">integer</text>
<text text-anchor="middle" style="font-size:8.00;" x="500" y="362"> REFERENCES calendar UNIQUE </text>
<text text-anchor="middle" style="font-size:8.00;" x="326" y="376">timezone</text>
<text text-anchor="middle" style="font-size:8.00;" x="407" y="376">text</text>
<text text-anchor="middle" style="font-size:8.00;" x="331" y="390">addressline1</text>
<text text-anchor="middle" style="font-size:8.00;" x="407" y="390">text</text>
<text text-anchor="middle" style="font-size:8.00;" x="331" y="404">addressline2</text>
<text text-anchor="middle" style="font-size:8.00;" x="407" y="404">text</text>
<text text-anchor="middle" style="font-size:8.00;" x="331" y="418">organization</text>
<text text-anchor="middle" style="font-size:8.00;" x="407" y="418">text</text>
<text text-anchor="middle" style="font-size:8.00;" x="317" y="432">city</text>
<text text-anchor="middle" style="font-size:8.00;" x="407" y="432">text</text>
<text text-anchor="middle" style="font-size:8.00;" x="325" y="446">province</text>
<text text-anchor="middle" style="font-size:8.00;" x="407" y="446">text</text>
<text text-anchor="middle" style="font-size:8.00;" x="323" y="460">country</text>
<text text-anchor="middle" style="font-size:8.00;" x="412" y="460">integer</text>
<text text-anchor="middle" style="font-size:8.00;" x="482" y="460"> REFERENCES country </text>
<text text-anchor="middle" style="font-size:8.00;" x="325" y="474">postcode</text>
<text text-anchor="middle" style="font-size:8.00;" x="407" y="474">text</text>
<text text-anchor="middle" style="font-size:8.00;" x="321" y="488">phone</text>
<text text-anchor="middle" style="font-size:8.00;" x="407" y="488">text</text>
<text text-anchor="middle" style="font-size:8.00;" x="342" y="502">homepage_content</text>
<text text-anchor="middle" style="font-size:8.00;" x="407" y="502">text</text>
<text text-anchor="middle" style="font-size:8.00;" x="324" y="516">emblem</text>
<text text-anchor="middle" style="font-size:8.00;" x="412" y="516">integer</text>
<text text-anchor="middle" style="font-size:8.00;" x="493" y="516"> REFERENCES libraryfilealias </text>
<text text-anchor="middle" style="font-size:8.00;" x="332" y="530">hackergotchi</text>
<text text-anchor="middle" style="font-size:8.00;" x="412" y="530">integer</text>
<text text-anchor="middle" style="font-size:8.00;" x="493" y="530"> REFERENCES libraryfilealias </text>
<text text-anchor="middle" style="font-size:8.00;" x="346" y="544">hide_email_addresses</text>
<text text-anchor="middle" style="font-size:8.00;" x="414" y="544">boolean</text>
<polygon style="fill:none;stroke:black;" points="305,550 305,152 563,152 563,550 305,550"/>
</g>
<g id="edge6" class="edge"><title>person&#45;&gt;person</title>
<path style="fill:none;stroke:black;" d="M571,409C582,396 589,377 589,351 589,330 584,314 577,301"/>
<polygon style="fill:black;stroke:black;" points="574,303 571,293 580,299 574,303"/>
</g>
<g id="edge10" class="edge"><title>person&#45;&gt;person</title>
<path style="fill:none;stroke:black;" d="M571,489C593,469 607,422 607,351 607,288 596,244 578,221"/>
<polygon style="fill:black;stroke:black;" points="575,223 571,213 580,218 575,223"/>
</g>
<g id="node15" class="node"><title>fake_language_187</title>
<ellipse cx="615" cy="296" rx="27" ry="18" style="fill:none;stroke:red;"/>
<text text-anchor="middle" style="font-size:8.00;" x="615" y="299">language</text>
</g>
<g id="edge8" class="edge"><title>person&#45;&gt;fake_language_187</title>
<path style="fill:none;stroke:black;" d="M571,309C574,308 577,307 580,306"/>
<polygon style="fill:black;stroke:black;" points="579,303 590,303 581,309 579,303"/>
</g>
<g id="node18" class="node"><title>fake_calendar_190</title>
<ellipse cx="580" cy="79" rx="27" ry="18" style="fill:none;stroke:red;"/>
<text text-anchor="middle" style="font-size:8.00;" x="580" y="82">calendar</text>
</g>
<g id="edge12" class="edge"><title>person&#45;&gt;fake_calendar_190</title>
<path style="fill:none;stroke:black;" d="M543,148C552,132 560,116 566,105"/>
<polygon style="fill:black;stroke:black;" points="563,103 571,96 569,106 563,103"/>
</g>
<g id="node20" class="node"><title>fake_country_192</title>
<ellipse cx="488" cy="652" rx="27" ry="18" style="fill:none;stroke:red;"/>
<text text-anchor="middle" style="font-size:8.00;" x="488" y="655">country</text>
</g>
<g id="edge14" class="edge"><title>person&#45;&gt;fake_country_192</title>
<path style="fill:none;stroke:black;" d="M470,554C475,581 479,606 483,624"/>
<polygon style="fill:black;stroke:black;" points="486,624 485,634 480,625 486,624"/>
</g>
<g id="node22" class="node"><title>fake_libraryfilealias_194</title>
<ellipse cx="709" cy="504" rx="35" ry="18" style="fill:none;stroke:red;"/>
<text text-anchor="middle" style="font-size:8.00;" x="709" y="507">libraryfilealias</text>
</g>
<g id="edge16" class="edge"><title>person&#45;&gt;fake_libraryfilealias_194</title>
<path style="fill:none;stroke:black;" d="M571,427C610,449 650,471 676,486"/>
<polygon style="fill:black;stroke:black;" points="678,483 685,491 675,489 678,483"/>
</g>
<g id="node24" class="node"><title>fake_libraryfilealias_196</title>
<ellipse cx="300" cy="65" rx="35" ry="18" style="fill:none;stroke:red;"/>
<text text-anchor="middle" style="font-size:8.00;" x="300" y="68">libraryfilealias</text>
</g>
<g id="edge18" class="edge"><title>person&#45;&gt;fake_libraryfilealias_196</title>
<path style="fill:none;stroke:black;" d="M339,148C328,126 319,107 312,92"/>
<polygon style="fill:black;stroke:black;" points="309,94 308,83 315,91 309,94"/>
</g>
<g id="node8" class="node"><title>personlabel</title>
<polygon style="fill:#c1cdcc;stroke:#c1cdcc;" points="99,632 99,584 247,584 247,632 99,632"/>
<polygon style="fill:white;stroke:white;" points="102,601 102,587 244,587 244,601 102,601"/>
<text text-anchor="middle" style="font-size:8.00;" x="173" y="597">personlabel</text>
<polygon style="fill:none;stroke:black;" points="102,601 102,587 244,587 244,601 102,601"/>
<text text-anchor="middle" style="font-size:8.00;" x="116" y="612">person</text>
<text text-anchor="middle" style="font-size:8.00;" x="145" y="612">integer</text>
<text text-anchor="middle" style="font-size:8.00;" x="203" y="612"> REFERENCES person </text>
<text text-anchor="middle" style="font-size:8.00;" x="113" y="626">label</text>
<text text-anchor="middle" style="font-size:8.00;" x="145" y="626">integer</text>
<text text-anchor="middle" style="font-size:8.00;" x="200" y="626"> REFERENCES label </text>
<polygon style="fill:none;stroke:black;" points="99,632 99,584 247,584 247,632 99,632"/>
</g>
<g id="edge22" class="edge"><title>personlabel&#45;&gt;label</title>
<path style="fill:none;stroke:black;" d="M155,580C154,578 152,575 150,573"/>
<polygon style="fill:black;stroke:black;" points="147,574 145,564 153,571 147,574"/>
</g>
<g id="edge20" class="edge"><title>personlabel&#45;&gt;person</title>
<path style="fill:none;stroke:black;" d="M208,580C213,575 218,571 223,566 245,546 268,524 290,502"/>
<polygon style="fill:black;stroke:black;" points="287,500 297,495 292,505 287,500"/>
</g>
<g id="node9" class="node"><title>processor</title>
<polygon style="fill:#c1cdcc;stroke:#c1cdcc;" points="644,434 644,344 836,344 836,434 644,434"/>
<polygon style="fill:white;stroke:white;" points="647,361 647,347 833,347 833,361 647,361"/>
<text text-anchor="middle" style="font-size:8.00;" x="740" y="357">processor</text>
<polygon style="fill:none;stroke:black;" points="647,361 647,347 833,347 833,361 647,361"/>
<text text-anchor="middle" style="font-size:8.00;" x="653" y="372">id</text>
<text text-anchor="middle" style="font-size:8.00;" x="701" y="372">serial</text>
<text text-anchor="middle" style="font-size:8.00;" x="752" y="372"> PRIMARY KEY </text>
<text text-anchor="middle" style="font-size:8.00;" x="661" y="386">family</text>
<text text-anchor="middle" style="font-size:8.00;" x="704" y="386">integer</text>
<text text-anchor="middle" style="font-size:8.00;" x="777" y="386"> REFERENCES processorfamily </text>
<text text-anchor="middle" style="font-size:8.00;" x="659" y="400">name</text>
<text text-anchor="middle" style="font-size:8.00;" x="699" y="400">text</text>
<text text-anchor="middle" style="font-size:8.00;" x="740" y="400"> UNIQUE </text>
<text text-anchor="middle" style="font-size:8.00;" x="656" y="414">title</text>
<text text-anchor="middle" style="font-size:8.00;" x="699" y="414">text</text>
<text text-anchor="middle" style="font-size:8.00;" x="667" y="428">description</text>
<text text-anchor="middle" style="font-size:8.00;" x="699" y="428">text</text>
<polygon style="fill:none;stroke:black;" points="644,434 644,344 836,344 836,434 644,434"/>
</g>
<g id="node10" class="node"><title>processorfamily</title>
<polygon style="fill:#c1cdcc;stroke:#c1cdcc;" points="868,456 868,380 1004,380 1004,456 868,456"/>
<polygon style="fill:white;stroke:white;" points="871,397 871,383 1001,383 1001,397 871,397"/>
<text text-anchor="middle" style="font-size:8.00;" x="936" y="393">processorfamily</text>
<polygon style="fill:none;stroke:black;" points="871,397 871,383 1001,383 1001,397 871,397"/>
<text text-anchor="middle" style="font-size:8.00;" x="877" y="408">id</text>
<text text-anchor="middle" style="font-size:8.00;" x="924" y="408">serial</text>
<text text-anchor="middle" style="font-size:8.00;" x="969" y="408"> PRIMARY KEY </text>
<text text-anchor="middle" style="font-size:8.00;" x="883" y="422">name</text>
<text text-anchor="middle" style="font-size:8.00;" x="922" y="422">text</text>
<text text-anchor="middle" style="font-size:8.00;" x="957" y="422"> UNIQUE </text>
<text text-anchor="middle" style="font-size:8.00;" x="880" y="436">title</text>
<text text-anchor="middle" style="font-size:8.00;" x="922" y="436">text</text>
<text text-anchor="middle" style="font-size:8.00;" x="891" y="450">description</text>
<text text-anchor="middle" style="font-size:8.00;" x="922" y="450">text</text>
<polygon style="fill:none;stroke:black;" points="868,456 868,380 1004,380 1004,456 868,456"/>
</g>
<g id="edge24" class="edge"><title>processor&#45;&gt;processorfamily</title>
<path style="fill:none;stroke:black;" d="M844,404C846,404 848,405 850,405"/>
<polygon style="fill:black;stroke:black;" points="850,402 860,406 850,408 850,402"/>
</g>
<g id="edge26" class="edge"><title>schema&#45;&gt;person</title>
<path style="fill:none;stroke:black;" d="M280,377C282,377 285,376 287,376"/>
<polygon style="fill:black;stroke:black;" points="287,373 297,374 288,379 287,373"/>
</g>
</g>
</svg>
