<?xml version="1.0" encoding="UTF-8" standalone="no"?>
<!DOCTYPE svg PUBLIC "-//W3C//DTD SVG 1.0//EN"
 "http://www.w3.org/TR/2001/REC-SVG-20010904/DTD/svg10.dtd">
<!-- Generated by fdp version 2.2 (Sat Feb  5 01:37:52 UTC 2005)
     For user: (stub) Stuart Bishop,,,   Title: g    Pages: 1 -->
<svg width="728px" height="535px"
 viewBox = "-1 -1 727 534"
 xmlns="http://www.w3.org/2000/svg">
<g id="graph0" class="graph" transform = "scale(0.932264)"
 style="font-family:Times-Roman;font-size:14.00;">
<title>g</title>
<text text-anchor="middle" style="font-size:22.00;" x="389" y="555">Misc</text>
<g id="node1" class="node"><title>label</title>
<polygon style="fill:#c1cdcc;stroke:#c1cdcc;" points="14,423 14,345 170,345 170,423 14,423"/>
<polygon style="fill:white;stroke:white;" points="17,360 17,348 167,348 167,360 17,360"/>
<text text-anchor="middle" style="font-size:6.00;" x="92" y="356">label</text>
<polygon style="fill:none;stroke:black;" points="17,360 17,348 167,348 167,360 17,360"/>
<text text-anchor="middle" style="font-size:6.00;" x="22" y="369">id</text>
<text text-anchor="middle" style="font-size:6.00;" x="62" y="369">serial</text>
<text text-anchor="middle" style="font-size:6.00;" x="102" y="369"> PRIMARY KEY </text>
<text text-anchor="middle" style="font-size:6.00;" x="29" y="381">schema</text>
<text text-anchor="middle" style="font-size:6.00;" x="64" y="381">integer</text>
<text text-anchor="middle" style="font-size:6.00;" x="122" y="381"> REFERENCES schema UNIQUE </text>
<text text-anchor="middle" style="font-size:6.00;" x="27" y="393">name</text>
<text text-anchor="middle" style="font-size:6.00;" x="61" y="393">text</text>
<text text-anchor="middle" style="font-size:6.00;" x="93" y="393"> UNIQUE </text>
<text text-anchor="middle" style="font-size:6.00;" x="25" y="405">title</text>
<text text-anchor="middle" style="font-size:6.00;" x="61" y="405">text</text>
<text text-anchor="middle" style="font-size:6.00;" x="34" y="417">description</text>
<text text-anchor="middle" style="font-size:6.00;" x="61" y="417">text</text>
<polygon style="fill:none;stroke:black;" points="14,423 14,345 170,345 170,423 14,423"/>
</g>
<g id="node10" class="node"><title>fake_schema_121</title>
<ellipse cx="74" cy="305" rx="27" ry="18" style="fill:none;stroke:red;"/>
<text text-anchor="middle" style="font-size:6.00;" x="74" y="307">schema</text>
</g>
<g id="edge2" class="edge"><title>label&#45;&gt;fake_schema_121</title>
<path style="fill:none;stroke:black;" d="M82,341C82,338 81,336 80,333"/>
<polygon style="fill:black;stroke:black;" points="77,333 78,323 83,332 77,333"/>
</g>
<g id="node2" class="node"><title>launchpaddatabaserevision</title>
<polygon style="fill:#c1cdcc;stroke:#c1cdcc;" points="182,274 182,220 284,220 284,274 182,274"/>
<polygon style="fill:white;stroke:white;" points="185,235 185,223 281,223 281,235 185,235"/>
<text text-anchor="middle" style="font-size:6.00;" x="233" y="231">launchpaddatabaserevision</text>
<polygon style="fill:none;stroke:black;" points="185,235 185,223 281,223 281,235 185,235"/>
<text text-anchor="middle" style="font-size:6.00;" x="195" y="244">major</text>
<text text-anchor="middle" style="font-size:6.00;" x="218" y="244">integer</text>
<text text-anchor="middle" style="font-size:6.00;" x="256" y="244"> PRIMARY KEY </text>
<text text-anchor="middle" style="font-size:6.00;" x="195" y="256">minor</text>
<text text-anchor="middle" style="font-size:6.00;" x="218" y="256">integer</text>
<text text-anchor="middle" style="font-size:6.00;" x="256" y="256"> PRIMARY KEY </text>
<text text-anchor="middle" style="font-size:6.00;" x="195" y="268">patch</text>
<text text-anchor="middle" style="font-size:6.00;" x="218" y="268">integer</text>
<text text-anchor="middle" style="font-size:6.00;" x="256" y="268"> PRIMARY KEY </text>
<polygon style="fill:none;stroke:black;" points="182,274 182,220 284,220 284,274 182,274"/>
</g>
<g id="node3" class="node"><title>launchpadstatistic</title>
<polygon style="fill:#c1cdcc;stroke:#c1cdcc;" points="154,190 154,124 280,124 280,190 154,190"/>
<polygon style="fill:white;stroke:white;" points="157,139 157,127 277,127 277,139 157,139"/>
<text text-anchor="middle" style="font-size:6.00;" x="217" y="135">launchpadstatistic</text>
<polygon style="fill:none;stroke:black;" points="157,139 157,127 277,127 277,139 157,139"/>
<text text-anchor="middle" style="font-size:6.00;" x="162" y="148">id</text>
<text text-anchor="middle" style="font-size:6.00;" x="203" y="148">serial</text>
<text text-anchor="middle" style="font-size:6.00;" x="252" y="148"> PRIMARY KEY </text>
<text text-anchor="middle" style="font-size:6.00;" x="167" y="160">name</text>
<text text-anchor="middle" style="font-size:6.00;" x="202" y="160">text</text>
<text text-anchor="middle" style="font-size:6.00;" x="243" y="160"> UNIQUE </text>
<text text-anchor="middle" style="font-size:6.00;" x="167" y="172">value</text>
<text text-anchor="middle" style="font-size:6.00;" x="205" y="172">integer</text>
<text text-anchor="middle" style="font-size:6.00;" x="175" y="184">dateupdated</text>
<text text-anchor="middle" style="font-size:6.00;" x="210" y="184">timestamp</text>
<polygon style="fill:none;stroke:black;" points="154,190 154,124 280,124 280,190 154,190"/>
</g>
<g id="node4" class="node"><title>libraryfilealias</title>
<polygon style="fill:#c1cdcc;stroke:#c1cdcc;" points="434,163 434,85 596,85 596,163 434,163"/>
<polygon style="fill:white;stroke:white;" points="437,100 437,88 593,88 593,100 437,100"/>
<text text-anchor="middle" style="font-size:6.00;" x="515" y="96">libraryfilealias</text>
<polygon style="fill:none;stroke:black;" points="437,100 437,88 593,88 593,100 437,100"/>
<text text-anchor="middle" style="font-size:6.00;" x="442" y="109">id</text>
<text text-anchor="middle" style="font-size:6.00;" x="479" y="109">serial</text>
<text text-anchor="middle" style="font-size:6.00;" x="528" y="109"> PRIMARY KEY </text>
<text text-anchor="middle" style="font-size:6.00;" x="449" y="121">content</text>
<text text-anchor="middle" style="font-size:6.00;" x="481" y="121">integer</text>
<text text-anchor="middle" style="font-size:6.00;" x="548" y="121"> REFERENCES libraryfilecontent </text>
<text text-anchor="middle" style="font-size:6.00;" x="451" y="133">filename</text>
<text text-anchor="middle" style="font-size:6.00;" x="478" y="133">text</text>
<text text-anchor="middle" style="font-size:6.00;" x="452" y="145">mimetype</text>
<text text-anchor="middle" style="font-size:6.00;" x="478" y="145">text</text>
<text text-anchor="middle" style="font-size:6.00;" x="449" y="157">expires</text>
<text text-anchor="middle" style="font-size:6.00;" x="486" y="157">timestamp</text>
<polygon style="fill:none;stroke:black;" points="434,163 434,85 596,85 596,163 434,163"/>
</g>
<g id="node5" class="node"><title>libraryfilecontent</title>
<polygon style="fill:#c1cdcc;stroke:#c1cdcc;" points="629,190 629,112 765,112 765,190 629,190"/>
<polygon style="fill:white;stroke:white;" points="632,127 632,115 762,115 762,127 632,127"/>
<text text-anchor="middle" style="font-size:6.00;" x="697" y="123">libraryfilecontent</text>
<polygon style="fill:none;stroke:black;" points="632,127 632,115 762,115 762,127 632,127"/>
<text text-anchor="middle" style="font-size:6.00;" x="637" y="136">id</text>
<text text-anchor="middle" style="font-size:6.00;" x="681" y="136">serial</text>
<text text-anchor="middle" style="font-size:6.00;" x="737" y="136"> PRIMARY KEY </text>
<text text-anchor="middle" style="font-size:6.00;" x="649" y="148">datecreated</text>
<text text-anchor="middle" style="font-size:6.00;" x="688" y="148">timestamp</text>
<text text-anchor="middle" style="font-size:6.00;" x="651" y="160">datemirrored</text>
<text text-anchor="middle" style="font-size:6.00;" x="688" y="160">timestamp</text>
<text text-anchor="middle" style="font-size:6.00;" x="644" y="172">filesize</text>
<text text-anchor="middle" style="font-size:6.00;" x="683" y="172">integer</text>
<text text-anchor="middle" style="font-size:6.00;" x="640" y="184">sha1</text>
<text text-anchor="middle" style="font-size:6.00;" x="691" y="184">character(40)</text>
<polygon style="fill:none;stroke:black;" points="629,190 629,112 765,112 765,190 629,190"/>
</g>
<g id="edge4" class="edge"><title>libraryfilealias&#45;&gt;libraryfilecontent</title>
<path style="fill:none;stroke:black;" d="M604,137C606,137 609,138 611,138"/>
<polygon style="fill:black;stroke:black;" points="612,135 621,140 611,141 612,135"/>
</g>
<g id="node6" class="node"><title>person</title>
<polygon style="fill:#c1cdcc;stroke:#c1cdcc;" points="347,451 347,229 549,229 549,451 347,451"/>
<polygon style="fill:white;stroke:white;" points="350,244 350,232 546,232 546,244 350,244"/>
<text text-anchor="middle" style="font-size:6.00;" x="448" y="240">person</text>
<polygon style="fill:none;stroke:black;" points="350,244 350,232 546,232 546,244 350,244"/>
<text text-anchor="middle" style="font-size:6.00;" x="355" y="253">id</text>
<text text-anchor="middle" style="font-size:6.00;" x="430" y="253">serial</text>
<text text-anchor="middle" style="font-size:6.00;" x="479" y="253"> PRIMARY KEY </text>
<text text-anchor="middle" style="font-size:6.00;" x="368" y="265">displayname</text>
<text text-anchor="middle" style="font-size:6.00;" x="429" y="265">text</text>
<text text-anchor="middle" style="font-size:6.00;" x="366" y="277">givenname</text>
<text text-anchor="middle" style="font-size:6.00;" x="429" y="277">text</text>
<text text-anchor="middle" style="font-size:6.00;" x="367" y="289">familyname</text>
<text text-anchor="middle" style="font-size:6.00;" x="429" y="289">text</text>
<text text-anchor="middle" style="font-size:6.00;" x="365" y="301">password</text>
<text text-anchor="middle" style="font-size:6.00;" x="429" y="301">text</text>
<text text-anchor="middle" style="font-size:6.00;" x="366" y="313">teamowner</text>
<text text-anchor="middle" style="font-size:6.00;" x="432" y="313">integer</text>
<text text-anchor="middle" style="font-size:6.00;" x="486" y="313"> REFERENCES person </text>
<text text-anchor="middle" style="font-size:6.00;" x="372" y="325">teamdescription</text>
<text text-anchor="middle" style="font-size:6.00;" x="429" y="325">text</text>
<text text-anchor="middle" style="font-size:6.00;" x="360" y="337">name</text>
<text text-anchor="middle" style="font-size:6.00;" x="429" y="337">text</text>
<text text-anchor="middle" style="font-size:6.00;" x="364" y="349">language</text>
<text text-anchor="middle" style="font-size:6.00;" x="432" y="349">integer</text>
<text text-anchor="middle" style="font-size:6.00;" x="489" y="349"> REFERENCES language </text>
<text text-anchor="middle" style="font-size:6.00;" x="356" y="361">fti</text>
<text text-anchor="middle" style="font-size:6.00;" x="434" y="361">tsvector</text>
<text text-anchor="middle" style="font-size:6.00;" x="384" y="373">defaultmembershipperiod</text>
<text text-anchor="middle" style="font-size:6.00;" x="432" y="373">integer</text>
<text text-anchor="middle" style="font-size:6.00;" x="379" y="385">defaultrenewalperiod</text>
<text text-anchor="middle" style="font-size:6.00;" x="432" y="385">integer</text>
<text text-anchor="middle" style="font-size:6.00;" x="375" y="397">subscriptionpolicy</text>
<text text-anchor="middle" style="font-size:6.00;" x="432" y="397">integer</text>
<text text-anchor="middle" style="font-size:6.00;" x="362" y="409">merged</text>
<text text-anchor="middle" style="font-size:6.00;" x="432" y="409">integer</text>
<text text-anchor="middle" style="font-size:6.00;" x="486" y="409"> REFERENCES person </text>
<text text-anchor="middle" style="font-size:6.00;" x="367" y="421">datecreated</text>
<text text-anchor="middle" style="font-size:6.00;" x="437" y="421">timestamp</text>
<text text-anchor="middle" style="font-size:6.00;" x="363" y="433">calendar</text>
<text text-anchor="middle" style="font-size:6.00;" x="432" y="433">integer</text>
<text text-anchor="middle" style="font-size:6.00;" x="500" y="433"> REFERENCES calendar UNIQUE </text>
<text text-anchor="middle" style="font-size:6.00;" x="364" y="445">timezone</text>
<text text-anchor="middle" style="font-size:6.00;" x="429" y="445">text</text>
<polygon style="fill:none;stroke:black;" points="347,451 347,229 549,229 549,451 347,451"/>
</g>
<g id="edge6" class="edge"><title>person&#45;&gt;person</title>
<path style="fill:none;stroke:black;" d="M557,375C568,368 575,356 575,340 575,328 571,319 565,312"/>
<polygon style="fill:black;stroke:black;" points="562,314 557,305 567,309 562,314"/>
</g>
<g id="edge10" class="edge"><title>person&#45;&gt;person</title>
<path style="fill:none;stroke:black;" d="M557,421C578,412 593,385 593,340 593,302 582,276 566,264"/>
<polygon style="fill:black;stroke:black;" points="564,267 557,259 567,261 564,267"/>
</g>
<g id="node14" class="node"><title>fake_language_165</title>
<ellipse cx="472" cy="490" rx="27" ry="18" style="fill:none;stroke:red;"/>
<text text-anchor="middle" style="font-size:6.00;" x="472" y="492">language</text>
</g>
<g id="edge8" class="edge"><title>person&#45;&gt;fake_language_165</title>
<path style="fill:none;stroke:black;" d="M466,455C466,457 467,460 467,462"/>
<polygon style="fill:black;stroke:black;" points="470,462 469,472 464,463 470,462"/>
</g>
<g id="node17" class="node"><title>fake_calendar_168</title>
<ellipse cx="352" cy="139" rx="27" ry="18" style="fill:none;stroke:red;"/>
<text text-anchor="middle" style="font-size:6.00;" x="352" y="141">calendar</text>
</g>
<g id="edge12" class="edge"><title>person&#45;&gt;fake_calendar_168</title>
<path style="fill:none;stroke:black;" d="M393,225C382,203 372,181 364,165"/>
<polygon style="fill:black;stroke:black;" points="361,167 360,156 367,164 361,167"/>
</g>
<g id="node7" class="node"><title>personlabel</title>
<polygon style="fill:#c1cdcc;stroke:#c1cdcc;" points="184,526 184,484 302,484 302,526 184,526"/>
<polygon style="fill:white;stroke:white;" points="187,499 187,487 299,487 299,499 187,499"/>
<text text-anchor="middle" style="font-size:6.00;" x="243" y="495">personlabel</text>
<polygon style="fill:none;stroke:black;" points="187,499 187,487 299,487 299,499 187,499"/>
<text text-anchor="middle" style="font-size:6.00;" x="198" y="508">person</text>
<text text-anchor="middle" style="font-size:6.00;" x="222" y="508">integer</text>
<text text-anchor="middle" style="font-size:6.00;" x="267" y="508"> REFERENCES person </text>
<text text-anchor="middle" style="font-size:6.00;" x="196" y="520">label</text>
<text text-anchor="middle" style="font-size:6.00;" x="222" y="520">integer</text>
<text text-anchor="middle" style="font-size:6.00;" x="265" y="520"> REFERENCES label </text>
<polygon style="fill:none;stroke:black;" points="184,526 184,484 302,484 302,526 184,526"/>
</g>
<g id="edge16" class="edge"><title>personlabel&#45;&gt;label</title>
<path style="fill:none;stroke:black;" d="M212,480C195,467 174,450 154,433"/>
<polygon style="fill:black;stroke:black;" points="152,436 146,427 156,430 152,436"/>
</g>
<g id="edge14" class="edge"><title>personlabel&#45;&gt;person</title>
<path style="fill:none;stroke:black;" d="M274,480C290,468 310,451 331,434"/>
<polygon style="fill:black;stroke:black;" points="329,431 339,428 333,437 329,431"/>
</g>
<g id="node8" class="node"><title>processor</title>
<polygon style="fill:#c1cdcc;stroke:#c1cdcc;" points="98,87 98,9 250,9 250,87 98,87"/>
<polygon style="fill:white;stroke:white;" points="101,24 101,12 247,12 247,24 101,24"/>
<text text-anchor="middle" style="font-size:6.00;" x="174" y="20">processor</text>
<polygon style="fill:none;stroke:black;" points="101,24 101,12 247,12 247,24 101,24"/>
<text text-anchor="middle" style="font-size:6.00;" x="106" y="33">id</text>
<text text-anchor="middle" style="font-size:6.00;" x="145" y="33">serial</text>
<text text-anchor="middle" style="font-size:6.00;" x="185" y="33"> PRIMARY KEY </text>
<text text-anchor="middle" style="font-size:6.00;" x="112" y="45">family</text>
<text text-anchor="middle" style="font-size:6.00;" x="147" y="45">integer</text>
<text text-anchor="middle" style="font-size:6.00;" x="204" y="45"> REFERENCES processorfamily </text>
<text text-anchor="middle" style="font-size:6.00;" x="111" y="57">name</text>
<text text-anchor="middle" style="font-size:6.00;" x="144" y="57">text</text>
<text text-anchor="middle" style="font-size:6.00;" x="176" y="57"> UNIQUE </text>
<text text-anchor="middle" style="font-size:6.00;" x="109" y="69">title</text>
<text text-anchor="middle" style="font-size:6.00;" x="144" y="69">text</text>
<text text-anchor="middle" style="font-size:6.00;" x="118" y="81">description</text>
<text text-anchor="middle" style="font-size:6.00;" x="144" y="81">text</text>
<polygon style="fill:none;stroke:black;" points="98,87 98,9 250,9 250,87 98,87"/>
</g>
<g id="node9" class="node"><title>processorfamily</title>
<polygon style="fill:#c1cdcc;stroke:#c1cdcc;" points="283,106 283,40 395,40 395,106 283,106"/>
<polygon style="fill:white;stroke:white;" points="286,55 286,43 392,43 392,55 286,55"/>
<text text-anchor="middle" style="font-size:6.00;" x="339" y="51">processorfamily</text>
<polygon style="fill:none;stroke:black;" points="286,55 286,43 392,43 392,55 286,55"/>
<text text-anchor="middle" style="font-size:6.00;" x="291" y="64">id</text>
<text text-anchor="middle" style="font-size:6.00;" x="331" y="64">serial</text>
<text text-anchor="middle" style="font-size:6.00;" x="367" y="64"> PRIMARY KEY </text>
<text text-anchor="middle" style="font-size:6.00;" x="296" y="76">name</text>
<text text-anchor="middle" style="font-size:6.00;" x="330" y="76">text</text>
<text text-anchor="middle" style="font-size:6.00;" x="358" y="76"> UNIQUE </text>
<text text-anchor="middle" style="font-size:6.00;" x="294" y="88">title</text>
<text text-anchor="middle" style="font-size:6.00;" x="330" y="88">text</text>
<text text-anchor="middle" style="font-size:6.00;" x="303" y="100">description</text>
<text text-anchor="middle" style="font-size:6.00;" x="330" y="100">text</text>
<polygon style="fill:none;stroke:black;" points="283,106 283,40 395,40 395,106 283,106"/>
</g>
<g id="edge18" class="edge"><title>processor&#45;&gt;processorfamily</title>
<path style="fill:none;stroke:black;" d="M258,61C260,61 263,62 265,62"/>
<polygon style="fill:black;stroke:black;" points="265,59 275,63 265,65 265,59"/>
</g>
</g>
</svg>
