<?xml version="1.0" encoding="UTF-8" standalone="no"?>
<!DOCTYPE svg PUBLIC "-//W3C//DTD SVG 1.0//EN"
 "http://www.w3.org/TR/2001/REC-SVG-20010904/DTD/svg10.dtd">
<!-- Generated by fdp version 2.2.1 (Thu Apr 14 05:40:09 UTC 2005)
     For user: (stub) Stuart Bishop,,,   Title: g    Pages: 1 -->
<svg width="782px" height="448px"
 viewBox = "-1 -1 781 447"
 xmlns="http://www.w3.org/2000/svg">
<g id="graph0" class="graph" transform = "scale(0.319767)"
 style="font-family:Times-Roman;font-size:14.00;">
<title>g</title>
<text text-anchor="middle" style="font-size:22.00;" x="1209" y="1378">Registry</text>
<g id="node1" class="node"><title>branch</title>
<polygon style="fill:#c1cdcc;stroke:#c1cdcc;" points="1424,303 1424,213 1582,213 1582,303 1424,303"/>
<polygon style="fill:white;stroke:white;" points="1427,228 1427,216 1579,216 1579,228 1427,228"/>
<text text-anchor="middle" style="font-size:6.00;" x="1503" y="224">branch</text>
<polygon style="fill:none;stroke:black;" points="1427,228 1427,216 1579,216 1579,228 1427,228"/>
<text text-anchor="middle" style="font-size:6.00;" x="1432" y="237">id</text>
<text text-anchor="middle" style="font-size:6.00;" x="1480" y="237">serial</text>
<text text-anchor="middle" style="font-size:6.00;" x="1520" y="237"> PRIMARY KEY </text>
<text text-anchor="middle" style="font-size:6.00;" x="1448" y="249">archnamespace</text>
<text text-anchor="middle" style="font-size:6.00;" x="1482" y="249">integer</text>
<text text-anchor="middle" style="font-size:6.00;" x="1537" y="249"> REFERENCES archnamespace </text>
<text text-anchor="middle" style="font-size:6.00;" x="1435" y="261">title</text>
<text text-anchor="middle" style="font-size:6.00;" x="1479" y="261">text</text>
<text text-anchor="middle" style="font-size:6.00;" x="1444" y="273">description</text>
<text text-anchor="middle" style="font-size:6.00;" x="1479" y="273">text</text>
<text text-anchor="middle" style="font-size:6.00;" x="1438" y="285">owner</text>
<text text-anchor="middle" style="font-size:6.00;" x="1482" y="285">integer</text>
<text text-anchor="middle" style="font-size:6.00;" x="1527" y="285"> REFERENCES person </text>
<text text-anchor="middle" style="font-size:6.00;" x="1439" y="297">product</text>
<text text-anchor="middle" style="font-size:6.00;" x="1482" y="297">integer</text>
<text text-anchor="middle" style="font-size:6.00;" x="1528" y="297"> REFERENCES product </text>
<polygon style="fill:none;stroke:black;" points="1424,303 1424,213 1582,213 1582,303 1424,303"/>
</g>
<g id="node3" class="node"><title>product</title>
<polygon style="fill:#c1cdcc;stroke:#c1cdcc;" points="1470,930 1470,576 1662,576 1662,930 1470,930"/>
<polygon style="fill:white;stroke:white;" points="1473,591 1473,579 1659,579 1659,591 1473,591"/>
<text text-anchor="middle" style="font-size:6.00;" x="1566" y="587">product</text>
<polygon style="fill:none;stroke:black;" points="1473,591 1473,579 1659,579 1659,591 1473,591"/>
<text text-anchor="middle" style="font-size:6.00;" x="1478" y="600">id</text>
<text text-anchor="middle" style="font-size:6.00;" x="1543" y="600">serial</text>
<text text-anchor="middle" style="font-size:6.00;" x="1592" y="600"> PRIMARY KEY </text>
<text text-anchor="middle" style="font-size:6.00;" x="1484" y="612">project</text>
<text text-anchor="middle" style="font-size:6.00;" x="1545" y="612">integer</text>
<text text-anchor="middle" style="font-size:6.00;" x="1599" y="612"> REFERENCES project </text>
<text text-anchor="middle" style="font-size:6.00;" x="1484" y="624">owner</text>
<text text-anchor="middle" style="font-size:6.00;" x="1545" y="624">integer</text>
<text text-anchor="middle" style="font-size:6.00;" x="1599" y="624"> REFERENCES person </text>
<text text-anchor="middle" style="font-size:6.00;" x="1483" y="636">name</text>
<text text-anchor="middle" style="font-size:6.00;" x="1542" y="636">text</text>
<text text-anchor="middle" style="font-size:6.00;" x="1583" y="636"> UNIQUE </text>
<text text-anchor="middle" style="font-size:6.00;" x="1491" y="648">displayname</text>
<text text-anchor="middle" style="font-size:6.00;" x="1542" y="648">text</text>
<text text-anchor="middle" style="font-size:6.00;" x="1481" y="660">title</text>
<text text-anchor="middle" style="font-size:6.00;" x="1542" y="660">text</text>
<text text-anchor="middle" style="font-size:6.00;" x="1487" y="672">summary</text>
<text text-anchor="middle" style="font-size:6.00;" x="1542" y="672">text</text>
<text text-anchor="middle" style="font-size:6.00;" x="1490" y="684">description</text>
<text text-anchor="middle" style="font-size:6.00;" x="1542" y="684">text</text>
<text text-anchor="middle" style="font-size:6.00;" x="1490" y="696">datecreated</text>
<text text-anchor="middle" style="font-size:6.00;" x="1550" y="696">timestamp</text>
<text text-anchor="middle" style="font-size:6.00;" x="1492" y="708">homepageurl</text>
<text text-anchor="middle" style="font-size:6.00;" x="1542" y="708">text</text>
<text text-anchor="middle" style="font-size:6.00;" x="1493" y="720">screenshotsurl</text>
<text text-anchor="middle" style="font-size:6.00;" x="1542" y="720">text</text>
<text text-anchor="middle" style="font-size:6.00;" x="1485" y="732">wikiurl</text>
<text text-anchor="middle" style="font-size:6.00;" x="1542" y="732">text</text>
<text text-anchor="middle" style="font-size:6.00;" x="1483" y="744">listurl</text>
<text text-anchor="middle" style="font-size:6.00;" x="1542" y="744">text</text>
<text text-anchor="middle" style="font-size:6.00;" x="1498" y="756">programminglang</text>
<text text-anchor="middle" style="font-size:6.00;" x="1542" y="756">text</text>
<text text-anchor="middle" style="font-size:6.00;" x="1491" y="768">downloadurl</text>
<text text-anchor="middle" style="font-size:6.00;" x="1542" y="768">text</text>
<text text-anchor="middle" style="font-size:6.00;" x="1486" y="780">lastdoap</text>
<text text-anchor="middle" style="font-size:6.00;" x="1542" y="780">text</text>
<text text-anchor="middle" style="font-size:6.00;" x="1498" y="792">sourceforgeproject</text>
<text text-anchor="middle" style="font-size:6.00;" x="1542" y="792">text</text>
<text text-anchor="middle" style="font-size:6.00;" x="1496" y="804">freshmeatproject</text>
<text text-anchor="middle" style="font-size:6.00;" x="1542" y="804">text</text>
<text text-anchor="middle" style="font-size:6.00;" x="1487" y="816">reviewed</text>
<text text-anchor="middle" style="font-size:6.00;" x="1547" y="816">boolean</text>
<text text-anchor="middle" style="font-size:6.00;" x="1483" y="828">active</text>
<text text-anchor="middle" style="font-size:6.00;" x="1547" y="828">boolean</text>
<text text-anchor="middle" style="font-size:6.00;" x="1479" y="840">fti</text>
<text text-anchor="middle" style="font-size:6.00;" x="1547" y="840">tsvector</text>
<text text-anchor="middle" style="font-size:6.00;" x="1490" y="852">autoupdate</text>
<text text-anchor="middle" style="font-size:6.00;" x="1547" y="852">boolean</text>
<text text-anchor="middle" style="font-size:6.00;" x="1496" y="864">translationgroup</text>
<text text-anchor="middle" style="font-size:6.00;" x="1545" y="864">integer</text>
<text text-anchor="middle" style="font-size:6.00;" x="1611" y="864"> REFERENCES translationgroup </text>
<text text-anchor="middle" style="font-size:6.00;" x="1502" y="876">translationpermission</text>
<text text-anchor="middle" style="font-size:6.00;" x="1545" y="876">integer</text>
<text text-anchor="middle" style="font-size:6.00;" x="1489" y="888">releaseroot</text>
<text text-anchor="middle" style="font-size:6.00;" x="1542" y="888">text</text>
<text text-anchor="middle" style="font-size:6.00;" x="1486" y="900">calendar</text>
<text text-anchor="middle" style="font-size:6.00;" x="1545" y="900">integer</text>
<text text-anchor="middle" style="font-size:6.00;" x="1613" y="900"> REFERENCES calendar UNIQUE </text>
<text text-anchor="middle" style="font-size:6.00;" x="1494" y="912">official_rosetta</text>
<text text-anchor="middle" style="font-size:6.00;" x="1547" y="912">boolean</text>
<text text-anchor="middle" style="font-size:6.00;" x="1495" y="924">official_malone</text>
<text text-anchor="middle" style="font-size:6.00;" x="1547" y="924">boolean</text>
<polygon style="fill:none;stroke:black;" points="1470,930 1470,576 1662,576 1662,930 1470,930"/>
</g>
<g id="edge6" class="edge"><title>branch&#45;&gt;product</title>
<path style="fill:none;stroke:black;" d="M1509,307C1517,366 1530,469 1542,562"/>
<polygon style="fill:black;stroke:black;" points="1545,562 1543,572 1539,562 1545,562"/>
</g>
<g id="node15" class="node"><title>fake_archnamespace_25</title>
<ellipse cx="1613" cy="72" rx="30" ry="18" style="fill:none;stroke:red;"/>
<text text-anchor="middle" style="font-size:6.00;" x="1613" y="74">archnamespace</text>
</g>
<g id="edge2" class="edge"><title>branch&#45;&gt;fake_archnamespace_25</title>
<path style="fill:none;stroke:black;" d="M1532,209C1554,173 1581,126 1598,98"/>
<polygon style="fill:black;stroke:black;" points="1595,96 1603,89 1601,99 1595,96"/>
</g>
<g id="node17" class="node"><title>fake_person_27</title>
<ellipse cx="1452" cy="55" rx="27" ry="18" style="fill:none;stroke:red;"/>
<text text-anchor="middle" style="font-size:6.00;" x="1452" y="57">person</text>
</g>
<g id="edge4" class="edge"><title>branch&#45;&gt;fake_person_27</title>
<path style="fill:none;stroke:black;" d="M1491,209C1481,169 1467,115 1459,83"/>
<polygon style="fill:black;stroke:black;" points="1456,83 1457,73 1462,82 1456,83"/>
</g>
<g id="node2" class="node"><title>calendar</title>
<polygon style="fill:#c1cdcc;stroke:#c1cdcc;" points="1719,1082 1719,1028 1825,1028 1825,1082 1719,1082"/>
<polygon style="fill:white;stroke:white;" points="1722,1043 1722,1031 1822,1031 1822,1043 1722,1043"/>
<text text-anchor="middle" style="font-size:6.00;" x="1772" y="1039">calendar</text>
<polygon style="fill:none;stroke:black;" points="1722,1043 1722,1031 1822,1031 1822,1043 1722,1043"/>
<text text-anchor="middle" style="font-size:6.00;" x="1727" y="1052">id</text>
<text text-anchor="middle" style="font-size:6.00;" x="1758" y="1052">serial</text>
<text text-anchor="middle" style="font-size:6.00;" x="1798" y="1052"> PRIMARY KEY </text>
<text text-anchor="middle" style="font-size:6.00;" x="1730" y="1064">title</text>
<text text-anchor="middle" style="font-size:6.00;" x="1757" y="1064">text</text>
<text text-anchor="middle" style="font-size:6.00;" x="1735" y="1076">revision</text>
<text text-anchor="middle" style="font-size:6.00;" x="1760" y="1076">integer</text>
<polygon style="fill:none;stroke:black;" points="1719,1082 1719,1028 1825,1028 1825,1082 1719,1082"/>
</g>
<g id="edge14" class="edge"><title>product&#45;&gt;calendar</title>
<path style="fill:none;stroke:black;" d="M1670,906C1697,947 1725,987 1745,1015"/>
<polygon style="fill:black;stroke:black;" points="1748,1014 1751,1024 1743,1018 1748,1014"/>
</g>
<g id="node12" class="node"><title>project</title>
<polygon style="fill:#c1cdcc;stroke:#c1cdcc;" points="1926,1190 1926,944 2118,944 2118,1190 1926,1190"/>
<polygon style="fill:white;stroke:white;" points="1929,959 1929,947 2115,947 2115,959 1929,959"/>
<text text-anchor="middle" style="font-size:6.00;" x="2022" y="955">project</text>
<polygon style="fill:none;stroke:black;" points="1929,959 1929,947 2115,947 2115,959 1929,959"/>
<text text-anchor="middle" style="font-size:6.00;" x="1934" y="968">id</text>
<text text-anchor="middle" style="font-size:6.00;" x="1999" y="968">serial</text>
<text text-anchor="middle" style="font-size:6.00;" x="2048" y="968"> PRIMARY KEY </text>
<text text-anchor="middle" style="font-size:6.00;" x="1940" y="980">owner</text>
<text text-anchor="middle" style="font-size:6.00;" x="2001" y="980">integer</text>
<text text-anchor="middle" style="font-size:6.00;" x="2055" y="980"> REFERENCES person </text>
<text text-anchor="middle" style="font-size:6.00;" x="1939" y="992">name</text>
<text text-anchor="middle" style="font-size:6.00;" x="1998" y="992">text</text>
<text text-anchor="middle" style="font-size:6.00;" x="2039" y="992"> UNIQUE </text>
<text text-anchor="middle" style="font-size:6.00;" x="1947" y="1004">displayname</text>
<text text-anchor="middle" style="font-size:6.00;" x="1998" y="1004">text</text>
<text text-anchor="middle" style="font-size:6.00;" x="1937" y="1016">title</text>
<text text-anchor="middle" style="font-size:6.00;" x="1998" y="1016">text</text>
<text text-anchor="middle" style="font-size:6.00;" x="1943" y="1028">summary</text>
<text text-anchor="middle" style="font-size:6.00;" x="1998" y="1028">text</text>
<text text-anchor="middle" style="font-size:6.00;" x="1946" y="1040">description</text>
<text text-anchor="middle" style="font-size:6.00;" x="1998" y="1040">text</text>
<text text-anchor="middle" style="font-size:6.00;" x="1946" y="1052">datecreated</text>
<text text-anchor="middle" style="font-size:6.00;" x="2006" y="1052">timestamp</text>
<text text-anchor="middle" style="font-size:6.00;" x="1948" y="1064">homepageurl</text>
<text text-anchor="middle" style="font-size:6.00;" x="1998" y="1064">text</text>
<text text-anchor="middle" style="font-size:6.00;" x="1941" y="1076">wikiurl</text>
<text text-anchor="middle" style="font-size:6.00;" x="1998" y="1076">text</text>
<text text-anchor="middle" style="font-size:6.00;" x="1942" y="1088">lastdoap</text>
<text text-anchor="middle" style="font-size:6.00;" x="1998" y="1088">text</text>
<text text-anchor="middle" style="font-size:6.00;" x="1954" y="1100">sourceforgeproject</text>
<text text-anchor="middle" style="font-size:6.00;" x="1998" y="1100">text</text>
<text text-anchor="middle" style="font-size:6.00;" x="1952" y="1112">freshmeatproject</text>
<text text-anchor="middle" style="font-size:6.00;" x="1998" y="1112">text</text>
<text text-anchor="middle" style="font-size:6.00;" x="1943" y="1124">reviewed</text>
<text text-anchor="middle" style="font-size:6.00;" x="2003" y="1124">boolean</text>
<text text-anchor="middle" style="font-size:6.00;" x="1939" y="1136">active</text>
<text text-anchor="middle" style="font-size:6.00;" x="2003" y="1136">boolean</text>
<text text-anchor="middle" style="font-size:6.00;" x="1935" y="1148">fti</text>
<text text-anchor="middle" style="font-size:6.00;" x="2003" y="1148">tsvector</text>
<text text-anchor="middle" style="font-size:6.00;" x="1952" y="1160">translationgroup</text>
<text text-anchor="middle" style="font-size:6.00;" x="2001" y="1160">integer</text>
<text text-anchor="middle" style="font-size:6.00;" x="2067" y="1160"> REFERENCES translationgroup </text>
<text text-anchor="middle" style="font-size:6.00;" x="1958" y="1172">translationpermission</text>
<text text-anchor="middle" style="font-size:6.00;" x="2001" y="1172">integer</text>
<text text-anchor="middle" style="font-size:6.00;" x="1942" y="1184">calendar</text>
<text text-anchor="middle" style="font-size:6.00;" x="2001" y="1184">integer</text>
<text text-anchor="middle" style="font-size:6.00;" x="2069" y="1184"> REFERENCES calendar UNIQUE </text>
<polygon style="fill:none;stroke:black;" points="1926,1190 1926,944 2118,944 2118,1190 1926,1190"/>
</g>
<g id="edge8" class="edge"><title>product&#45;&gt;project</title>
<path style="fill:none;stroke:black;" d="M1670,825C1741,874 1837,939 1910,989"/>
<polygon style="fill:black;stroke:black;" points="1912,986 1918,995 1908,992 1912,986"/>
</g>
<g id="node14" class="node"><title>translationgroup</title>
<polygon style="fill:#c1cdcc;stroke:#c1cdcc;" points="1944,797 1944,707 2082,707 2082,797 1944,797"/>
<polygon style="fill:white;stroke:white;" points="1947,722 1947,710 2079,710 2079,722 1947,722"/>
<text text-anchor="middle" style="font-size:6.00;" x="2013" y="718">translationgroup</text>
<polygon style="fill:none;stroke:black;" points="1947,722 1947,710 2079,710 2079,722 1947,722"/>
<text text-anchor="middle" style="font-size:6.00;" x="1952" y="731">id</text>
<text text-anchor="middle" style="font-size:6.00;" x="1991" y="731">serial</text>
<text text-anchor="middle" style="font-size:6.00;" x="2040" y="731"> PRIMARY KEY </text>
<text text-anchor="middle" style="font-size:6.00;" x="1957" y="743">name</text>
<text text-anchor="middle" style="font-size:6.00;" x="1990" y="743">text</text>
<text text-anchor="middle" style="font-size:6.00;" x="2031" y="743"> UNIQUE </text>
<text text-anchor="middle" style="font-size:6.00;" x="1955" y="755">title</text>
<text text-anchor="middle" style="font-size:6.00;" x="1990" y="755">text</text>
<text text-anchor="middle" style="font-size:6.00;" x="1961" y="767">summary</text>
<text text-anchor="middle" style="font-size:6.00;" x="1990" y="767">text</text>
<text text-anchor="middle" style="font-size:6.00;" x="1964" y="779">datecreated</text>
<text text-anchor="middle" style="font-size:6.00;" x="1998" y="779">timestamp</text>
<text text-anchor="middle" style="font-size:6.00;" x="1958" y="791">owner</text>
<text text-anchor="middle" style="font-size:6.00;" x="1993" y="791">integer</text>
<text text-anchor="middle" style="font-size:6.00;" x="2047" y="791"> REFERENCES person </text>
<polygon style="fill:none;stroke:black;" points="1944,797 1944,707 2082,707 2082,797 1944,797"/>
</g>
<g id="edge12" class="edge"><title>product&#45;&gt;translationgroup</title>
<path style="fill:none;stroke:black;" d="M1670,753C1747,752 1852,752 1926,752"/>
<polygon style="fill:black;stroke:black;" points="1926,748 1936,752 1926,755 1926,748"/>
</g>
<g id="node21" class="node"><title>fake_person_227</title>
<ellipse cx="1585" cy="1072" rx="27" ry="18" style="fill:none;stroke:red;"/>
<text text-anchor="middle" style="font-size:6.00;" x="1585" y="1074">person</text>
</g>
<g id="edge10" class="edge"><title>product&#45;&gt;fake_person_227</title>
<path style="fill:none;stroke:black;" d="M1577,934C1580,977 1582,1018 1583,1044"/>
<polygon style="fill:black;stroke:black;" points="1586,1044 1584,1054 1580,1044 1586,1044"/>
</g>
<g id="node4" class="node"><title>productbkbranch</title>
<polygon style="fill:#c1cdcc;stroke:#c1cdcc;" points="1499,457 1499,391 1629,391 1629,457 1499,457"/>
<polygon style="fill:white;stroke:white;" points="1502,406 1502,394 1626,394 1626,406 1502,406"/>
<text text-anchor="middle" style="font-size:6.00;" x="1564" y="402">productbkbranch</text>
<polygon style="fill:none;stroke:black;" points="1502,406 1502,394 1626,394 1626,406 1502,406"/>
<text text-anchor="middle" style="font-size:6.00;" x="1507" y="415">id</text>
<text text-anchor="middle" style="font-size:6.00;" x="1545" y="415">serial</text>
<text text-anchor="middle" style="font-size:6.00;" x="1585" y="415"> PRIMARY KEY </text>
<text text-anchor="middle" style="font-size:6.00;" x="1514" y="427">product</text>
<text text-anchor="middle" style="font-size:6.00;" x="1547" y="427">integer</text>
<text text-anchor="middle" style="font-size:6.00;" x="1593" y="427"> REFERENCES product </text>
<text text-anchor="middle" style="font-size:6.00;" x="1518" y="439">locationurl</text>
<text text-anchor="middle" style="font-size:6.00;" x="1544" y="439">text</text>
<text text-anchor="middle" style="font-size:6.00;" x="1513" y="451">weburl</text>
<text text-anchor="middle" style="font-size:6.00;" x="1544" y="451">text</text>
<polygon style="fill:none;stroke:black;" points="1499,457 1499,391 1629,391 1629,457 1499,457"/>
</g>
<g id="edge16" class="edge"><title>productbkbranch&#45;&gt;product</title>
<path style="fill:none;stroke:black;" d="M1564,461C1564,487 1565,523 1565,562"/>
<polygon style="fill:black;stroke:black;" points="1569,562 1565,572 1562,562 1569,562"/>
</g>
<g id="node5" class="node"><title>productbranchrelationship</title>
<polygon style="fill:#c1cdcc;stroke:#c1cdcc;" points="1665,422 1665,356 1787,356 1787,422 1665,422"/>
<polygon style="fill:white;stroke:white;" points="1668,371 1668,359 1784,359 1784,371 1668,371"/>
<text text-anchor="middle" style="font-size:6.00;" x="1726" y="367">productbranchrelationship</text>
<polygon style="fill:none;stroke:black;" points="1668,371 1668,359 1784,359 1784,371 1668,371"/>
<text text-anchor="middle" style="font-size:6.00;" x="1673" y="380">id</text>
<text text-anchor="middle" style="font-size:6.00;" x="1703" y="380">serial</text>
<text text-anchor="middle" style="font-size:6.00;" x="1743" y="380"> PRIMARY KEY </text>
<text text-anchor="middle" style="font-size:6.00;" x="1680" y="392">product</text>
<text text-anchor="middle" style="font-size:6.00;" x="1705" y="392">integer</text>
<text text-anchor="middle" style="font-size:6.00;" x="1751" y="392"> REFERENCES product </text>
<text text-anchor="middle" style="font-size:6.00;" x="1679" y="404">branch</text>
<text text-anchor="middle" style="font-size:6.00;" x="1705" y="404">integer</text>
<text text-anchor="middle" style="font-size:6.00;" x="1750" y="404"> REFERENCES branch </text>
<text text-anchor="middle" style="font-size:6.00;" x="1677" y="416">label</text>
<text text-anchor="middle" style="font-size:6.00;" x="1705" y="416">integer</text>
<polygon style="fill:none;stroke:black;" points="1665,422 1665,356 1787,356 1787,422 1665,422"/>
</g>
<g id="edge20" class="edge"><title>productbranchrelationship&#45;&gt;branch</title>
<path style="fill:none;stroke:black;" d="M1663,352C1642,340 1618,326 1596,312"/>
<polygon style="fill:black;stroke:black;" points="1594,315 1587,307 1597,309 1594,315"/>
</g>
<g id="edge18" class="edge"><title>productbranchrelationship&#45;&gt;product</title>
<path style="fill:none;stroke:black;" d="M1710,426C1696,459 1673,510 1650,562"/>
<polygon style="fill:black;stroke:black;" points="1653,564 1646,572 1646,561 1653,564"/>
</g>
<g id="node6" class="node"><title>productcvsmodule</title>
<polygon style="fill:#c1cdcc;stroke:#c1cdcc;" points="1159,674 1159,596 1285,596 1285,674 1159,674"/>
<polygon style="fill:white;stroke:white;" points="1162,611 1162,599 1282,599 1282,611 1162,611"/>
<text text-anchor="middle" style="font-size:6.00;" x="1222" y="607">productcvsmodule</text>
<polygon style="fill:none;stroke:black;" points="1162,611 1162,599 1282,599 1282,611 1162,611"/>
<text text-anchor="middle" style="font-size:6.00;" x="1167" y="620">id</text>
<text text-anchor="middle" style="font-size:6.00;" x="1201" y="620">serial</text>
<text text-anchor="middle" style="font-size:6.00;" x="1241" y="620"> PRIMARY KEY </text>
<text text-anchor="middle" style="font-size:6.00;" x="1174" y="632">product</text>
<text text-anchor="middle" style="font-size:6.00;" x="1203" y="632">integer</text>
<text text-anchor="middle" style="font-size:6.00;" x="1249" y="632"> REFERENCES product </text>
<text text-anchor="middle" style="font-size:6.00;" x="1176" y="644">anonroot</text>
<text text-anchor="middle" style="font-size:6.00;" x="1200" y="644">text</text>
<text text-anchor="middle" style="font-size:6.00;" x="1174" y="656">module</text>
<text text-anchor="middle" style="font-size:6.00;" x="1200" y="656">text</text>
<text text-anchor="middle" style="font-size:6.00;" x="1173" y="668">weburl</text>
<text text-anchor="middle" style="font-size:6.00;" x="1200" y="668">text</text>
<polygon style="fill:none;stroke:black;" points="1159,674 1159,596 1285,596 1285,674 1159,674"/>
</g>
<g id="edge22" class="edge"><title>productcvsmodule&#45;&gt;product</title>
<path style="fill:none;stroke:black;" d="M1293,659C1339,675 1399,695 1452,714"/>
<polygon style="fill:black;stroke:black;" points="1453,711 1462,717 1451,717 1453,711"/>
</g>
<g id="node7" class="node"><title>productlabel</title>
<polygon style="fill:#c1cdcc;stroke:#c1cdcc;" points="1139,1058 1139,1004 1287,1004 1287,1058 1139,1058"/>
<polygon style="fill:white;stroke:white;" points="1142,1019 1142,1007 1284,1007 1284,1019 1142,1019"/>
<text text-anchor="middle" style="font-size:6.00;" x="1213" y="1015">productlabel</text>
<polygon style="fill:none;stroke:black;" points="1142,1019 1142,1007 1284,1007 1284,1019 1142,1019"/>
<text text-anchor="middle" style="font-size:6.00;" x="1147" y="1028">id</text>
<text text-anchor="middle" style="font-size:6.00;" x="1178" y="1028">serial</text>
<text text-anchor="middle" style="font-size:6.00;" x="1218" y="1028"> PRIMARY KEY </text>
<text text-anchor="middle" style="font-size:6.00;" x="1154" y="1040">product</text>
<text text-anchor="middle" style="font-size:6.00;" x="1180" y="1040">integer</text>
<text text-anchor="middle" style="font-size:6.00;" x="1239" y="1040"> REFERENCES product UNIQUE </text>
<text text-anchor="middle" style="font-size:6.00;" x="1151" y="1052">label</text>
<text text-anchor="middle" style="font-size:6.00;" x="1180" y="1052">integer</text>
<text text-anchor="middle" style="font-size:6.00;" x="1235" y="1052"> REFERENCES label UNIQUE </text>
<polygon style="fill:none;stroke:black;" points="1139,1058 1139,1004 1287,1004 1287,1058 1139,1058"/>
</g>
<g id="edge24" class="edge"><title>productlabel&#45;&gt;product</title>
<path style="fill:none;stroke:black;" d="M1252,1000C1301,961 1385,895 1454,841"/>
<polygon style="fill:black;stroke:black;" points="1452,838 1462,835 1456,844 1452,838"/>
</g>
<g id="node30" class="node"><title>fake_label_238</title>
<ellipse cx="1058" cy="1175" rx="27" ry="18" style="fill:none;stroke:red;"/>
<text text-anchor="middle" style="font-size:6.00;" x="1058" y="1177">label</text>
</g>
<g id="edge26" class="edge"><title>productlabel&#45;&gt;fake_label_238</title>
<path style="fill:none;stroke:black;" d="M1179,1062C1150,1090 1108,1129 1082,1153"/>
<polygon style="fill:black;stroke:black;" points="1084,1156 1074,1160 1079,1151 1084,1156"/>
</g>
<g id="node8" class="node"><title>productrelease</title>
<polygon style="fill:#c1cdcc;stroke:#c1cdcc;" points="483,322 483,172 643,172 643,322 483,322"/>
<polygon style="fill:white;stroke:white;" points="486,187 486,175 640,175 640,187 486,187"/>
<text text-anchor="middle" style="font-size:6.00;" x="563" y="183">productrelease</text>
<polygon style="fill:none;stroke:black;" points="486,187 486,175 640,175 640,187 486,187"/>
<text text-anchor="middle" style="font-size:6.00;" x="491" y="196">id</text>
<text text-anchor="middle" style="font-size:6.00;" x="536" y="196">serial</text>
<text text-anchor="middle" style="font-size:6.00;" x="585" y="196"> PRIMARY KEY </text>
<text text-anchor="middle" style="font-size:6.00;" x="504" y="208">datereleased</text>
<text text-anchor="middle" style="font-size:6.00;" x="543" y="208">timestamp</text>
<text text-anchor="middle" style="font-size:6.00;" x="498" y="220">version</text>
<text text-anchor="middle" style="font-size:6.00;" x="535" y="220">text</text>
<text text-anchor="middle" style="font-size:6.00;" x="494" y="232">title</text>
<text text-anchor="middle" style="font-size:6.00;" x="535" y="232">text</text>
<text text-anchor="middle" style="font-size:6.00;" x="503" y="244">description</text>
<text text-anchor="middle" style="font-size:6.00;" x="535" y="244">text</text>
<text text-anchor="middle" style="font-size:6.00;" x="502" y="256">changelog</text>
<text text-anchor="middle" style="font-size:6.00;" x="535" y="256">text</text>
<text text-anchor="middle" style="font-size:6.00;" x="497" y="268">owner</text>
<text text-anchor="middle" style="font-size:6.00;" x="538" y="268">integer</text>
<text text-anchor="middle" style="font-size:6.00;" x="592" y="268"> REFERENCES person </text>
<text text-anchor="middle" style="font-size:6.00;" x="500" y="280">summary</text>
<text text-anchor="middle" style="font-size:6.00;" x="535" y="280">text</text>
<text text-anchor="middle" style="font-size:6.00;" x="505" y="292">productseries</text>
<text text-anchor="middle" style="font-size:6.00;" x="538" y="292">integer</text>
<text text-anchor="middle" style="font-size:6.00;" x="600" y="292"> REFERENCES productseries </text>
<text text-anchor="middle" style="font-size:6.00;" x="499" y="304">manifest</text>
<text text-anchor="middle" style="font-size:6.00;" x="538" y="304">integer</text>
<text text-anchor="middle" style="font-size:6.00;" x="594" y="304"> REFERENCES manifest </text>
<text text-anchor="middle" style="font-size:6.00;" x="503" y="316">datecreated</text>
<text text-anchor="middle" style="font-size:6.00;" x="543" y="316">timestamp</text>
<polygon style="fill:none;stroke:black;" points="483,322 483,172 643,172 643,322 483,322"/>
</g>
<g id="node10" class="node"><title>productseries</title>
<polygon style="fill:#c1cdcc;stroke:#c1cdcc;" points="960,558 960,192 1172,192 1172,558 960,558"/>
<polygon style="fill:white;stroke:white;" points="963,207 963,195 1169,195 1169,207 963,207"/>
<text text-anchor="middle" style="font-size:6.00;" x="1066" y="203">productseries</text>
<polygon style="fill:none;stroke:black;" points="963,207 963,195 1169,195 1169,207 963,207"/>
<text text-anchor="middle" style="font-size:6.00;" x="968" y="216">id</text>
<text text-anchor="middle" style="font-size:6.00;" x="1030" y="216">serial</text>
<text text-anchor="middle" style="font-size:6.00;" x="1091" y="216"> PRIMARY KEY UNIQUE </text>
<text text-anchor="middle" style="font-size:6.00;" x="975" y="228">product</text>
<text text-anchor="middle" style="font-size:6.00;" x="1032" y="228">integer</text>
<text text-anchor="middle" style="font-size:6.00;" x="1112" y="228"> REFERENCES product UNIQUE UNIQUE </text>
<text text-anchor="middle" style="font-size:6.00;" x="973" y="240">name</text>
<text text-anchor="middle" style="font-size:6.00;" x="1029" y="240">text</text>
<text text-anchor="middle" style="font-size:6.00;" x="1070" y="240"> UNIQUE </text>
<text text-anchor="middle" style="font-size:6.00;" x="981" y="252">displayname</text>
<text text-anchor="middle" style="font-size:6.00;" x="1029" y="252">text</text>
<text text-anchor="middle" style="font-size:6.00;" x="977" y="264">summary</text>
<text text-anchor="middle" style="font-size:6.00;" x="1029" y="264">text</text>
<text text-anchor="middle" style="font-size:6.00;" x="974" y="276">branch</text>
<text text-anchor="middle" style="font-size:6.00;" x="1032" y="276">integer</text>
<text text-anchor="middle" style="font-size:6.00;" x="1098" y="276"> REFERENCES branch UNIQUE </text>
<text text-anchor="middle" style="font-size:6.00;" x="981" y="288">importstatus</text>
<text text-anchor="middle" style="font-size:6.00;" x="1032" y="288">integer</text>
<text text-anchor="middle" style="font-size:6.00;" x="984" y="300">datelastsynced</text>
<text text-anchor="middle" style="font-size:6.00;" x="1037" y="300">timestamp</text>
<text text-anchor="middle" style="font-size:6.00;" x="980" y="312">syncinterval</text>
<text text-anchor="middle" style="font-size:6.00;" x="1033" y="312">interval</text>
<text text-anchor="middle" style="font-size:6.00;" x="975" y="324">rcstype</text>
<text text-anchor="middle" style="font-size:6.00;" x="1032" y="324">integer</text>
<text text-anchor="middle" style="font-size:6.00;" x="975" y="336">cvsroot</text>
<text text-anchor="middle" style="font-size:6.00;" x="1029" y="336">text</text>
<text text-anchor="middle" style="font-size:6.00;" x="1070" y="336"> UNIQUE </text>
<text text-anchor="middle" style="font-size:6.00;" x="979" y="348">cvsmodule</text>
<text text-anchor="middle" style="font-size:6.00;" x="1029" y="348">text</text>
<text text-anchor="middle" style="font-size:6.00;" x="1070" y="348"> UNIQUE </text>
<text text-anchor="middle" style="font-size:6.00;" x="978" y="360">cvsbranch</text>
<text text-anchor="middle" style="font-size:6.00;" x="1029" y="360">text</text>
<text text-anchor="middle" style="font-size:6.00;" x="1070" y="360"> UNIQUE </text>
<text text-anchor="middle" style="font-size:6.00;" x="980" y="372">cvstarfileurl</text>
<text text-anchor="middle" style="font-size:6.00;" x="1029" y="372">text</text>
<text text-anchor="middle" style="font-size:6.00;" x="982" y="384">svnrepository</text>
<text text-anchor="middle" style="font-size:6.00;" x="1029" y="384">text</text>
<text text-anchor="middle" style="font-size:6.00;" x="1070" y="384"> UNIQUE </text>
<text text-anchor="middle" style="font-size:6.00;" x="982" y="396">bkrepository</text>
<text text-anchor="middle" style="font-size:6.00;" x="1029" y="396">text</text>
<text text-anchor="middle" style="font-size:6.00;" x="1070" y="396"> UNIQUE </text>
<text text-anchor="middle" style="font-size:6.00;" x="979" y="408">releaseroot</text>
<text text-anchor="middle" style="font-size:6.00;" x="1029" y="408">text</text>
<text text-anchor="middle" style="font-size:6.00;" x="984" y="420">releasefileglob</text>
<text text-anchor="middle" style="font-size:6.00;" x="1029" y="420">text</text>
<text text-anchor="middle" style="font-size:6.00;" x="984" y="432">releaseverstyle</text>
<text text-anchor="middle" style="font-size:6.00;" x="1032" y="432">integer</text>
<text text-anchor="middle" style="font-size:6.00;" x="987" y="444">targetarcharchive</text>
<text text-anchor="middle" style="font-size:6.00;" x="1029" y="444">text</text>
<text text-anchor="middle" style="font-size:6.00;" x="1070" y="444"> UNIQUE </text>
<text text-anchor="middle" style="font-size:6.00;" x="989" y="456">targetarchcategory</text>
<text text-anchor="middle" style="font-size:6.00;" x="1029" y="456">text</text>
<text text-anchor="middle" style="font-size:6.00;" x="1070" y="456"> UNIQUE </text>
<text text-anchor="middle" style="font-size:6.00;" x="986" y="468">targetarchbranch</text>
<text text-anchor="middle" style="font-size:6.00;" x="1029" y="468">text</text>
<text text-anchor="middle" style="font-size:6.00;" x="1070" y="468"> UNIQUE </text>
<text text-anchor="middle" style="font-size:6.00;" x="987" y="480">targetarchversion</text>
<text text-anchor="middle" style="font-size:6.00;" x="1029" y="480">text</text>
<text text-anchor="middle" style="font-size:6.00;" x="1070" y="480"> UNIQUE </text>
<text text-anchor="middle" style="font-size:6.00;" x="983" y="492">dateautotested</text>
<text text-anchor="middle" style="font-size:6.00;" x="1037" y="492">timestamp</text>
<text text-anchor="middle" style="font-size:6.00;" x="991" y="504">dateprocessapproved</text>
<text text-anchor="middle" style="font-size:6.00;" x="1037" y="504">timestamp</text>
<text text-anchor="middle" style="font-size:6.00;" x="988" y="516">datesyncapproved</text>
<text text-anchor="middle" style="font-size:6.00;" x="1037" y="516">timestamp</text>
<text text-anchor="middle" style="font-size:6.00;" x="979" y="528">datestarted</text>
<text text-anchor="middle" style="font-size:6.00;" x="1037" y="528">timestamp</text>
<text text-anchor="middle" style="font-size:6.00;" x="981" y="540">datefinished</text>
<text text-anchor="middle" style="font-size:6.00;" x="1037" y="540">timestamp</text>
<text text-anchor="middle" style="font-size:6.00;" x="980" y="552">datecreated</text>
<text text-anchor="middle" style="font-size:6.00;" x="1037" y="552">timestamp</text>
<polygon style="fill:none;stroke:black;" points="960,558 960,192 1172,192 1172,558 960,558"/>
</g>
<g id="edge30" class="edge"><title>productrelease&#45;&gt;productseries</title>
<path style="fill:none;stroke:black;" d="M651,269C731,289 851,321 942,344"/>
<polygon style="fill:black;stroke:black;" points="943,341 952,346 942,347 943,341"/>
</g>
<g id="node32" class="node"><title>fake_person_240</title>
<ellipse cx="370" cy="375" rx="27" ry="18" style="fill:none;stroke:red;"/>
<text text-anchor="middle" style="font-size:6.00;" x="370" y="377">person</text>
</g>
<g id="edge28" class="edge"><title>productrelease&#45;&gt;fake_person_240</title>
<path style="fill:none;stroke:black;" d="M475,305C447,323 418,343 398,356"/>
<polygon style="fill:black;stroke:black;" points="399,359 389,362 395,354 399,359"/>
</g>
<g id="node35" class="node"><title>fake_manifest_243</title>
<ellipse cx="460" cy="42" rx="27" ry="18" style="fill:none;stroke:red;"/>
<text text-anchor="middle" style="font-size:6.00;" x="460" y="44">manifest</text>
</g>
<g id="edge32" class="edge"><title>productrelease&#45;&gt;fake_manifest_243</title>
<path style="fill:none;stroke:black;" d="M523,168C505,133 486,93 474,68"/>
<polygon style="fill:black;stroke:black;" points="471,69 469,59 477,66 471,69"/>
</g>
<g id="node9" class="node"><title>productreleasefile</title>
<polygon style="fill:#c1cdcc;stroke:#c1cdcc;" points="152,198 152,132 308,132 308,198 152,198"/>
<polygon style="fill:white;stroke:white;" points="155,147 155,135 305,135 305,147 155,147"/>
<text text-anchor="middle" style="font-size:6.00;" x="230" y="143">productreleasefile</text>
<polygon style="fill:none;stroke:black;" points="155,147 155,135 305,135 305,147 155,147"/>
<text text-anchor="middle" style="font-size:6.00;" x="176" y="156">productrelease</text>
<text text-anchor="middle" style="font-size:6.00;" x="209" y="156">integer</text>
<text text-anchor="middle" style="font-size:6.00;" x="264" y="156"> REFERENCES productrelease </text>
<text text-anchor="middle" style="font-size:6.00;" x="170" y="168">libraryfile</text>
<text text-anchor="middle" style="font-size:6.00;" x="209" y="168">integer</text>
<text text-anchor="middle" style="font-size:6.00;" x="264" y="168"> REFERENCES libraryfilealias </text>
<text text-anchor="middle" style="font-size:6.00;" x="167" y="180">filetype</text>
<text text-anchor="middle" style="font-size:6.00;" x="209" y="180">integer</text>
<text text-anchor="middle" style="font-size:6.00;" x="160" y="192">id</text>
<text text-anchor="middle" style="font-size:6.00;" x="209" y="192">integer</text>
<text text-anchor="middle" style="font-size:6.00;" x="247" y="192"> PRIMARY KEY </text>
<polygon style="fill:none;stroke:black;" points="152,198 152,132 308,132 308,198 152,198"/>
</g>
<g id="edge34" class="edge"><title>productreleasefile&#45;&gt;productrelease</title>
<path style="fill:none;stroke:black;" d="M316,186C362,197 418,211 465,223"/>
<polygon style="fill:black;stroke:black;" points="466,220 475,225 465,226 466,220"/>
</g>
<g id="node38" class="node"><title>fake_libraryfilealias_246</title>
<ellipse cx="35" cy="113" rx="29" ry="18" style="fill:none;stroke:red;"/>
<text text-anchor="middle" style="font-size:6.00;" x="35" y="115">libraryfilealias</text>
</g>
<g id="edge36" class="edge"><title>productreleasefile&#45;&gt;fake_libraryfilealias_246</title>
<path style="fill:none;stroke:black;" d="M144,142C119,135 92,128 72,123"/>
<polygon style="fill:black;stroke:black;" points="71,126 62,120 73,120 71,126"/>
</g>
<g id="edge40" class="edge"><title>productseries&#45;&gt;branch</title>
<path style="fill:none;stroke:black;" d="M1180,344C1251,326 1339,302 1406,284"/>
<polygon style="fill:black;stroke:black;" points="1405,281 1416,281 1407,287 1405,281"/>
</g>
<g id="edge38" class="edge"><title>productseries&#45;&gt;product</title>
<path style="fill:none;stroke:black;" d="M1180,461C1262,523 1372,606 1454,668"/>
<polygon style="fill:black;stroke:black;" points="1456,665 1462,674 1452,671 1456,665"/>
</g>
<g id="node11" class="node"><title>productsvnmodule</title>
<polygon style="fill:#c1cdcc;stroke:#c1cdcc;" points="1352,1147 1352,1081 1482,1081 1482,1147 1352,1147"/>
<polygon style="fill:white;stroke:white;" points="1355,1096 1355,1084 1479,1084 1479,1096 1355,1096"/>
<text text-anchor="middle" style="font-size:6.00;" x="1417" y="1092">productsvnmodule</text>
<polygon style="fill:none;stroke:black;" points="1355,1096 1355,1084 1479,1084 1479,1096 1355,1096"/>
<text text-anchor="middle" style="font-size:6.00;" x="1360" y="1105">id</text>
<text text-anchor="middle" style="font-size:6.00;" x="1398" y="1105">serial</text>
<text text-anchor="middle" style="font-size:6.00;" x="1438" y="1105"> PRIMARY KEY </text>
<text text-anchor="middle" style="font-size:6.00;" x="1367" y="1117">product</text>
<text text-anchor="middle" style="font-size:6.00;" x="1400" y="1117">integer</text>
<text text-anchor="middle" style="font-size:6.00;" x="1446" y="1117"> REFERENCES product </text>
<text text-anchor="middle" style="font-size:6.00;" x="1371" y="1129">locationurl</text>
<text text-anchor="middle" style="font-size:6.00;" x="1397" y="1129">text</text>
<text text-anchor="middle" style="font-size:6.00;" x="1366" y="1141">weburl</text>
<text text-anchor="middle" style="font-size:6.00;" x="1397" y="1141">text</text>
<polygon style="fill:none;stroke:black;" points="1352,1147 1352,1081 1482,1081 1482,1147 1352,1147"/>
</g>
<g id="edge42" class="edge"><title>productsvnmodule&#45;&gt;product</title>
<path style="fill:none;stroke:black;" d="M1432,1077C1445,1044 1466,994 1487,943"/>
<polygon style="fill:black;stroke:black;" points="1484,942 1491,934 1490,945 1484,942"/>
</g>
<g id="edge48" class="edge"><title>project&#45;&gt;calendar</title>
<path style="fill:none;stroke:black;" d="M1918,1062C1893,1061 1867,1059 1843,1058"/>
<polygon style="fill:black;stroke:black;" points="1843,1061 1833,1058 1843,1054 1843,1061"/>
</g>
<g id="edge46" class="edge"><title>project&#45;&gt;translationgroup</title>
<path style="fill:none;stroke:black;" d="M2018,940C2017,895 2015,847 2014,811"/>
<polygon style="fill:black;stroke:black;" points="2011,811 2014,801 2018,811 2011,811"/>
</g>
<g id="node43" class="node"><title>fake_person_251</title>
<ellipse cx="2158" cy="1335" rx="27" ry="18" style="fill:none;stroke:red;"/>
<text text-anchor="middle" style="font-size:6.00;" x="2158" y="1337">person</text>
</g>
<g id="edge44" class="edge"><title>project&#45;&gt;fake_person_251</title>
<path style="fill:none;stroke:black;" d="M2087,1194C2109,1238 2132,1282 2145,1309"/>
<polygon style="fill:black;stroke:black;" points="2148,1307 2149,1318 2142,1310 2148,1307"/>
</g>
<g id="node13" class="node"><title>projectrelationship</title>
<polygon style="fill:#c1cdcc;stroke:#c1cdcc;" points="2286,1245 2286,1179 2404,1179 2404,1245 2286,1245"/>
<polygon style="fill:white;stroke:white;" points="2289,1194 2289,1182 2401,1182 2401,1194 2289,1194"/>
<text text-anchor="middle" style="font-size:6.00;" x="2345" y="1190">projectrelationship</text>
<polygon style="fill:none;stroke:black;" points="2289,1194 2289,1182 2401,1182 2401,1194 2289,1194"/>
<text text-anchor="middle" style="font-size:6.00;" x="2294" y="1203">id</text>
<text text-anchor="middle" style="font-size:6.00;" x="2322" y="1203">serial</text>
<text text-anchor="middle" style="font-size:6.00;" x="2362" y="1203"> PRIMARY KEY </text>
<text text-anchor="middle" style="font-size:6.00;" x="2300" y="1215">subject</text>
<text text-anchor="middle" style="font-size:6.00;" x="2324" y="1215">integer</text>
<text text-anchor="middle" style="font-size:6.00;" x="2369" y="1215"> REFERENCES project </text>
<text text-anchor="middle" style="font-size:6.00;" x="2298" y="1227">label</text>
<text text-anchor="middle" style="font-size:6.00;" x="2324" y="1227">integer</text>
<text text-anchor="middle" style="font-size:6.00;" x="2300" y="1239">object</text>
<text text-anchor="middle" style="font-size:6.00;" x="2324" y="1239">integer</text>
<text text-anchor="middle" style="font-size:6.00;" x="2369" y="1239"> REFERENCES project </text>
<polygon style="fill:none;stroke:black;" points="2286,1245 2286,1179 2404,1179 2404,1245 2286,1245"/>
</g>
<g id="edge50" class="edge"><title>projectrelationship&#45;&gt;project</title>
<path style="fill:none;stroke:black;" d="M2278,1189C2237,1172 2183,1148 2135,1126"/>
<polygon style="fill:black;stroke:black;" points="2134,1129 2126,1122 2137,1123 2134,1129"/>
</g>
<g id="edge52" class="edge"><title>projectrelationship&#45;&gt;project</title>
<path style="fill:none;stroke:black;" d="M2278,1177C2237,1157 2183,1133 2135,1112"/>
<polygon style="fill:black;stroke:black;" points="2134,1115 2126,1108 2137,1109 2134,1115"/>
</g>
<g id="node49" class="node"><title>fake_person_345</title>
<ellipse cx="2206" cy="706" rx="27" ry="18" style="fill:none;stroke:red;"/>
<text text-anchor="middle" style="font-size:6.00;" x="2206" y="708">person</text>
</g>
<g id="edge54" class="edge"><title>translationgroup&#45;&gt;fake_person_345</title>
<path style="fill:none;stroke:black;" d="M2090,734C2118,727 2148,720 2170,714"/>
<polygon style="fill:black;stroke:black;" points="2170,711 2180,712 2171,717 2170,711"/>
</g>
</g>
</svg>
