<?xml version="1.0" encoding="UTF-8" standalone="no"?>
<!DOCTYPE svg PUBLIC "-//W3C//DTD SVG 1.0//EN"
 "http://www.w3.org/TR/2001/REC-SVG-20010904/DTD/svg10.dtd">
<!-- Generated by fdp version 2.2 (Sat Feb  5 01:37:52 UTC 2005)
     For user: (stub) Stuart Bishop,,,   Title: g    Pages: 1 -->
<svg width="438px" height="535px"
 viewBox = "-1 -1 437 534"
 xmlns="http://www.w3.org/2000/svg">
<g id="graph0" class="graph" transform = "scale(0.345215)"
 style="font-family:Times-Roman;font-size:14.00;">
<title>g</title>
<text text-anchor="middle" style="font-size:22.00;" x="623" y="1527">Registry</text>
<g id="node1" class="node"><title>branch</title>
<polygon style="fill:#c1cdcc;stroke:#c1cdcc;" points="307,1004 307,914 465,914 465,1004 307,1004"/>
<polygon style="fill:white;stroke:white;" points="310,929 310,917 462,917 462,929 310,929"/>
<text text-anchor="middle" style="font-size:6.00;" x="386" y="925">branch</text>
<polygon style="fill:none;stroke:black;" points="310,929 310,917 462,917 462,929 310,929"/>
<text text-anchor="middle" style="font-size:6.00;" x="315" y="938">id</text>
<text text-anchor="middle" style="font-size:6.00;" x="363" y="938">serial</text>
<text text-anchor="middle" style="font-size:6.00;" x="403" y="938"> PRIMARY KEY </text>
<text text-anchor="middle" style="font-size:6.00;" x="331" y="950">archnamespace</text>
<text text-anchor="middle" style="font-size:6.00;" x="365" y="950">integer</text>
<text text-anchor="middle" style="font-size:6.00;" x="420" y="950"> REFERENCES archnamespace </text>
<text text-anchor="middle" style="font-size:6.00;" x="318" y="962">title</text>
<text text-anchor="middle" style="font-size:6.00;" x="362" y="962">text</text>
<text text-anchor="middle" style="font-size:6.00;" x="327" y="974">description</text>
<text text-anchor="middle" style="font-size:6.00;" x="362" y="974">text</text>
<text text-anchor="middle" style="font-size:6.00;" x="321" y="986">owner</text>
<text text-anchor="middle" style="font-size:6.00;" x="365" y="986">integer</text>
<text text-anchor="middle" style="font-size:6.00;" x="410" y="986"> REFERENCES person </text>
<text text-anchor="middle" style="font-size:6.00;" x="322" y="998">product</text>
<text text-anchor="middle" style="font-size:6.00;" x="365" y="998">integer</text>
<text text-anchor="middle" style="font-size:6.00;" x="411" y="998"> REFERENCES product </text>
<polygon style="fill:none;stroke:black;" points="307,1004 307,914 465,914 465,1004 307,1004"/>
</g>
<g id="node4" class="node"><title>product</title>
<polygon style="fill:#c1cdcc;stroke:#c1cdcc;" points="415,739 415,409 607,409 607,739 415,739"/>
<polygon style="fill:white;stroke:white;" points="418,424 418,412 604,412 604,424 418,424"/>
<text text-anchor="middle" style="font-size:6.00;" x="511" y="420">product</text>
<polygon style="fill:none;stroke:black;" points="418,424 418,412 604,412 604,424 418,424"/>
<text text-anchor="middle" style="font-size:6.00;" x="423" y="433">id</text>
<text text-anchor="middle" style="font-size:6.00;" x="488" y="433">serial</text>
<text text-anchor="middle" style="font-size:6.00;" x="537" y="433"> PRIMARY KEY </text>
<text text-anchor="middle" style="font-size:6.00;" x="429" y="445">project</text>
<text text-anchor="middle" style="font-size:6.00;" x="490" y="445">integer</text>
<text text-anchor="middle" style="font-size:6.00;" x="544" y="445"> REFERENCES project </text>
<text text-anchor="middle" style="font-size:6.00;" x="429" y="457">owner</text>
<text text-anchor="middle" style="font-size:6.00;" x="490" y="457">integer</text>
<text text-anchor="middle" style="font-size:6.00;" x="544" y="457"> REFERENCES person </text>
<text text-anchor="middle" style="font-size:6.00;" x="428" y="469">name</text>
<text text-anchor="middle" style="font-size:6.00;" x="487" y="469">text</text>
<text text-anchor="middle" style="font-size:6.00;" x="528" y="469"> UNIQUE </text>
<text text-anchor="middle" style="font-size:6.00;" x="436" y="481">displayname</text>
<text text-anchor="middle" style="font-size:6.00;" x="487" y="481">text</text>
<text text-anchor="middle" style="font-size:6.00;" x="426" y="493">title</text>
<text text-anchor="middle" style="font-size:6.00;" x="487" y="493">text</text>
<text text-anchor="middle" style="font-size:6.00;" x="432" y="505">summary</text>
<text text-anchor="middle" style="font-size:6.00;" x="487" y="505">text</text>
<text text-anchor="middle" style="font-size:6.00;" x="435" y="517">description</text>
<text text-anchor="middle" style="font-size:6.00;" x="487" y="517">text</text>
<text text-anchor="middle" style="font-size:6.00;" x="435" y="529">datecreated</text>
<text text-anchor="middle" style="font-size:6.00;" x="495" y="529">timestamp</text>
<text text-anchor="middle" style="font-size:6.00;" x="437" y="541">homepageurl</text>
<text text-anchor="middle" style="font-size:6.00;" x="487" y="541">text</text>
<text text-anchor="middle" style="font-size:6.00;" x="438" y="553">screenshotsurl</text>
<text text-anchor="middle" style="font-size:6.00;" x="487" y="553">text</text>
<text text-anchor="middle" style="font-size:6.00;" x="430" y="565">wikiurl</text>
<text text-anchor="middle" style="font-size:6.00;" x="487" y="565">text</text>
<text text-anchor="middle" style="font-size:6.00;" x="428" y="577">listurl</text>
<text text-anchor="middle" style="font-size:6.00;" x="487" y="577">text</text>
<text text-anchor="middle" style="font-size:6.00;" x="443" y="589">programminglang</text>
<text text-anchor="middle" style="font-size:6.00;" x="487" y="589">text</text>
<text text-anchor="middle" style="font-size:6.00;" x="437" y="601">downloadurl</text>
<text text-anchor="middle" style="font-size:6.00;" x="487" y="601">text</text>
<text text-anchor="middle" style="font-size:6.00;" x="431" y="613">lastdoap</text>
<text text-anchor="middle" style="font-size:6.00;" x="487" y="613">text</text>
<text text-anchor="middle" style="font-size:6.00;" x="443" y="625">sourceforgeproject</text>
<text text-anchor="middle" style="font-size:6.00;" x="487" y="625">text</text>
<text text-anchor="middle" style="font-size:6.00;" x="441" y="637">freshmeatproject</text>
<text text-anchor="middle" style="font-size:6.00;" x="487" y="637">text</text>
<text text-anchor="middle" style="font-size:6.00;" x="432" y="649">reviewed</text>
<text text-anchor="middle" style="font-size:6.00;" x="492" y="649">boolean</text>
<text text-anchor="middle" style="font-size:6.00;" x="428" y="661">active</text>
<text text-anchor="middle" style="font-size:6.00;" x="492" y="661">boolean</text>
<text text-anchor="middle" style="font-size:6.00;" x="424" y="673">fti</text>
<text text-anchor="middle" style="font-size:6.00;" x="492" y="673">tsvector</text>
<text text-anchor="middle" style="font-size:6.00;" x="435" y="685">autoupdate</text>
<text text-anchor="middle" style="font-size:6.00;" x="492" y="685">boolean</text>
<text text-anchor="middle" style="font-size:6.00;" x="441" y="697">translationgroup</text>
<text text-anchor="middle" style="font-size:6.00;" x="490" y="697">integer</text>
<text text-anchor="middle" style="font-size:6.00;" x="556" y="697"> REFERENCES translationgroup </text>
<text text-anchor="middle" style="font-size:6.00;" x="447" y="709">translationpermission</text>
<text text-anchor="middle" style="font-size:6.00;" x="490" y="709">integer</text>
<text text-anchor="middle" style="font-size:6.00;" x="434" y="721">releaseroot</text>
<text text-anchor="middle" style="font-size:6.00;" x="487" y="721">text</text>
<text text-anchor="middle" style="font-size:6.00;" x="431" y="733">calendar</text>
<text text-anchor="middle" style="font-size:6.00;" x="490" y="733">integer</text>
<text text-anchor="middle" style="font-size:6.00;" x="558" y="733"> REFERENCES calendar UNIQUE </text>
<polygon style="fill:none;stroke:black;" points="415,739 415,409 607,409 607,739 415,739"/>
</g>
<g id="edge6" class="edge"><title>branch&#45;&gt;product</title>
<path style="fill:none;stroke:black;" d="M402,910C415,870 435,811 453,753"/>
<polygon style="fill:black;stroke:black;" points="450,752 456,743 456,754 450,752"/>
</g>
<g id="node16" class="node"><title>fake_archnamespace_23</title>
<ellipse cx="345" cy="1140" rx="30" ry="18" style="fill:none;stroke:red;"/>
<text text-anchor="middle" style="font-size:6.00;" x="345" y="1142">archnamespace</text>
</g>
<g id="edge2" class="edge"><title>branch&#45;&gt;fake_archnamespace_23</title>
<path style="fill:none;stroke:black;" d="M375,1008C368,1042 358,1084 351,1112"/>
<polygon style="fill:black;stroke:black;" points="354,1113 349,1122 348,1112 354,1113"/>
</g>
<g id="node18" class="node"><title>fake_person_25</title>
<ellipse cx="248" cy="1074" rx="27" ry="18" style="fill:none;stroke:red;"/>
<text text-anchor="middle" style="font-size:6.00;" x="248" y="1076">person</text>
</g>
<g id="edge4" class="edge"><title>branch&#45;&gt;fake_person_25</title>
<path style="fill:none;stroke:black;" d="M327,1008C308,1024 288,1041 273,1053"/>
<polygon style="fill:black;stroke:black;" points="275,1056 265,1060 270,1051 275,1056"/>
</g>
<g id="node2" class="node"><title>calendar</title>
<polygon style="fill:#c1cdcc;stroke:#c1cdcc;" points="725,781 725,727 833,727 833,781 725,781"/>
<polygon style="fill:white;stroke:white;" points="728,742 728,730 830,730 830,742 728,742"/>
<text text-anchor="middle" style="font-size:6.00;" x="779" y="738">calendar</text>
<polygon style="fill:none;stroke:black;" points="728,742 728,730 830,730 830,742 728,742"/>
<text text-anchor="middle" style="font-size:6.00;" x="733" y="751">id</text>
<text text-anchor="middle" style="font-size:6.00;" x="765" y="751">serial</text>
<text text-anchor="middle" style="font-size:6.00;" x="805" y="751"> PRIMARY KEY </text>
<text text-anchor="middle" style="font-size:6.00;" x="736" y="763">title</text>
<text text-anchor="middle" style="font-size:6.00;" x="764" y="763">text</text>
<text text-anchor="middle" style="font-size:6.00;" x="741" y="775">revision</text>
<text text-anchor="middle" style="font-size:6.00;" x="767" y="775">integer</text>
<polygon style="fill:none;stroke:black;" points="725,781 725,727 833,727 833,781 725,781"/>
</g>
<g id="node3" class="node"><title>milestone</title>
<polygon style="fill:#c1cdcc;stroke:#c1cdcc;" points="95,365 95,275 297,275 297,365 95,365"/>
<polygon style="fill:white;stroke:white;" points="98,290 98,278 294,278 294,290 98,290"/>
<text text-anchor="middle" style="font-size:6.00;" x="196" y="286">milestone</text>
<polygon style="fill:none;stroke:black;" points="98,290 98,278 294,278 294,290 98,290"/>
<text text-anchor="middle" style="font-size:6.00;" x="103" y="299">id</text>
<text text-anchor="middle" style="font-size:6.00;" x="146" y="299">serial</text>
<text text-anchor="middle" style="font-size:6.00;" x="219" y="299"> UNIQUE PRIMARY KEY UNIQUE </text>
<text text-anchor="middle" style="font-size:6.00;" x="110" y="311">product</text>
<text text-anchor="middle" style="font-size:6.00;" x="148" y="311">integer</text>
<text text-anchor="middle" style="font-size:6.00;" x="228" y="311"> UNIQUE REFERENCES product UNIQUE </text>
<text text-anchor="middle" style="font-size:6.00;" x="108" y="323">name</text>
<text text-anchor="middle" style="font-size:6.00;" x="145" y="323">text</text>
<text text-anchor="middle" style="font-size:6.00;" x="198" y="323"> UNIQUE UNIQUE </text>
<text text-anchor="middle" style="font-size:6.00;" x="115" y="335">distribution</text>
<text text-anchor="middle" style="font-size:6.00;" x="148" y="335">integer</text>
<text text-anchor="middle" style="font-size:6.00;" x="232" y="335"> REFERENCES distribution UNIQUE UNIQUE </text>
<text text-anchor="middle" style="font-size:6.00;" x="117" y="347">dateexpected</text>
<text text-anchor="middle" style="font-size:6.00;" x="153" y="347">timestamp</text>
<text text-anchor="middle" style="font-size:6.00;" x="109" y="359">visible</text>
<text text-anchor="middle" style="font-size:6.00;" x="150" y="359">boolean</text>
<polygon style="fill:none;stroke:black;" points="95,365 95,275 297,275 297,365 95,365"/>
</g>
<g id="edge8" class="edge"><title>milestone&#45;&gt;product</title>
<path style="fill:none;stroke:black;" d="M257,369C298,401 351,445 399,484"/>
<polygon style="fill:black;stroke:black;" points="401,481 407,490 397,487 401,481"/>
</g>
<g id="node22" class="node"><title>fake_distribution_140</title>
<ellipse cx="33" cy="202" rx="27" ry="18" style="fill:none;stroke:red;"/>
<text text-anchor="middle" style="font-size:6.00;" x="33" y="204">distribution</text>
</g>
<g id="edge10" class="edge"><title>milestone&#45;&gt;fake_distribution_140</title>
<path style="fill:none;stroke:black;" d="M128,271C105,254 78,235 59,221"/>
<polygon style="fill:black;stroke:black;" points="57,224 51,215 61,218 57,224"/>
</g>
<g id="edge18" class="edge"><title>product&#45;&gt;calendar</title>
<path style="fill:none;stroke:black;" d="M615,644C653,669 693,696 725,717"/>
<polygon style="fill:black;stroke:black;" points="727,714 733,723 723,720 727,714"/>
</g>
<g id="node13" class="node"><title>project</title>
<polygon style="fill:#c1cdcc;stroke:#c1cdcc;" points="654,702 654,456 846,456 846,702 654,702"/>
<polygon style="fill:white;stroke:white;" points="657,471 657,459 843,459 843,471 657,471"/>
<text text-anchor="middle" style="font-size:6.00;" x="750" y="467">project</text>
<polygon style="fill:none;stroke:black;" points="657,471 657,459 843,459 843,471 657,471"/>
<text text-anchor="middle" style="font-size:6.00;" x="662" y="480">id</text>
<text text-anchor="middle" style="font-size:6.00;" x="727" y="480">serial</text>
<text text-anchor="middle" style="font-size:6.00;" x="776" y="480"> PRIMARY KEY </text>
<text text-anchor="middle" style="font-size:6.00;" x="668" y="492">owner</text>
<text text-anchor="middle" style="font-size:6.00;" x="729" y="492">integer</text>
<text text-anchor="middle" style="font-size:6.00;" x="783" y="492"> REFERENCES person </text>
<text text-anchor="middle" style="font-size:6.00;" x="667" y="504">name</text>
<text text-anchor="middle" style="font-size:6.00;" x="726" y="504">text</text>
<text text-anchor="middle" style="font-size:6.00;" x="767" y="504"> UNIQUE </text>
<text text-anchor="middle" style="font-size:6.00;" x="675" y="516">displayname</text>
<text text-anchor="middle" style="font-size:6.00;" x="726" y="516">text</text>
<text text-anchor="middle" style="font-size:6.00;" x="665" y="528">title</text>
<text text-anchor="middle" style="font-size:6.00;" x="726" y="528">text</text>
<text text-anchor="middle" style="font-size:6.00;" x="671" y="540">summary</text>
<text text-anchor="middle" style="font-size:6.00;" x="726" y="540">text</text>
<text text-anchor="middle" style="font-size:6.00;" x="674" y="552">description</text>
<text text-anchor="middle" style="font-size:6.00;" x="726" y="552">text</text>
<text text-anchor="middle" style="font-size:6.00;" x="674" y="564">datecreated</text>
<text text-anchor="middle" style="font-size:6.00;" x="734" y="564">timestamp</text>
<text text-anchor="middle" style="font-size:6.00;" x="676" y="576">homepageurl</text>
<text text-anchor="middle" style="font-size:6.00;" x="726" y="576">text</text>
<text text-anchor="middle" style="font-size:6.00;" x="669" y="588">wikiurl</text>
<text text-anchor="middle" style="font-size:6.00;" x="726" y="588">text</text>
<text text-anchor="middle" style="font-size:6.00;" x="670" y="600">lastdoap</text>
<text text-anchor="middle" style="font-size:6.00;" x="726" y="600">text</text>
<text text-anchor="middle" style="font-size:6.00;" x="682" y="612">sourceforgeproject</text>
<text text-anchor="middle" style="font-size:6.00;" x="726" y="612">text</text>
<text text-anchor="middle" style="font-size:6.00;" x="680" y="624">freshmeatproject</text>
<text text-anchor="middle" style="font-size:6.00;" x="726" y="624">text</text>
<text text-anchor="middle" style="font-size:6.00;" x="671" y="636">reviewed</text>
<text text-anchor="middle" style="font-size:6.00;" x="731" y="636">boolean</text>
<text text-anchor="middle" style="font-size:6.00;" x="667" y="648">active</text>
<text text-anchor="middle" style="font-size:6.00;" x="731" y="648">boolean</text>
<text text-anchor="middle" style="font-size:6.00;" x="663" y="660">fti</text>
<text text-anchor="middle" style="font-size:6.00;" x="731" y="660">tsvector</text>
<text text-anchor="middle" style="font-size:6.00;" x="680" y="672">translationgroup</text>
<text text-anchor="middle" style="font-size:6.00;" x="729" y="672">integer</text>
<text text-anchor="middle" style="font-size:6.00;" x="795" y="672"> REFERENCES translationgroup </text>
<text text-anchor="middle" style="font-size:6.00;" x="686" y="684">translationpermission</text>
<text text-anchor="middle" style="font-size:6.00;" x="729" y="684">integer</text>
<text text-anchor="middle" style="font-size:6.00;" x="670" y="696">calendar</text>
<text text-anchor="middle" style="font-size:6.00;" x="729" y="696">integer</text>
<text text-anchor="middle" style="font-size:6.00;" x="797" y="696"> REFERENCES calendar UNIQUE </text>
<polygon style="fill:none;stroke:black;" points="654,702 654,456 846,456 846,702 654,702"/>
</g>
<g id="edge12" class="edge"><title>product&#45;&gt;project</title>
<path style="fill:none;stroke:black;" d="M615,576C622,576 629,576 636,577"/>
<polygon style="fill:black;stroke:black;" points="636,573 646,577 636,580 636,573"/>
</g>
<g id="node15" class="node"><title>translationgroup</title>
<polygon style="fill:#c1cdcc;stroke:#c1cdcc;" points="720,359 720,269 858,269 858,359 720,359"/>
<polygon style="fill:white;stroke:white;" points="723,284 723,272 855,272 855,284 723,284"/>
<text text-anchor="middle" style="font-size:6.00;" x="789" y="280">translationgroup</text>
<polygon style="fill:none;stroke:black;" points="723,284 723,272 855,272 855,284 723,284"/>
<text text-anchor="middle" style="font-size:6.00;" x="728" y="293">id</text>
<text text-anchor="middle" style="font-size:6.00;" x="767" y="293">serial</text>
<text text-anchor="middle" style="font-size:6.00;" x="816" y="293"> PRIMARY KEY </text>
<text text-anchor="middle" style="font-size:6.00;" x="733" y="305">name</text>
<text text-anchor="middle" style="font-size:6.00;" x="766" y="305">text</text>
<text text-anchor="middle" style="font-size:6.00;" x="807" y="305"> UNIQUE </text>
<text text-anchor="middle" style="font-size:6.00;" x="731" y="317">title</text>
<text text-anchor="middle" style="font-size:6.00;" x="766" y="317">text</text>
<text text-anchor="middle" style="font-size:6.00;" x="737" y="329">summary</text>
<text text-anchor="middle" style="font-size:6.00;" x="766" y="329">text</text>
<text text-anchor="middle" style="font-size:6.00;" x="740" y="341">datecreated</text>
<text text-anchor="middle" style="font-size:6.00;" x="774" y="341">timestamp</text>
<text text-anchor="middle" style="font-size:6.00;" x="734" y="353">owner</text>
<text text-anchor="middle" style="font-size:6.00;" x="769" y="353">integer</text>
<text text-anchor="middle" style="font-size:6.00;" x="823" y="353"> REFERENCES person </text>
<polygon style="fill:none;stroke:black;" points="720,359 720,269 858,269 858,359 720,359"/>
</g>
<g id="edge16" class="edge"><title>product&#45;&gt;translationgroup</title>
<path style="fill:none;stroke:black;" d="M615,476C653,441 696,401 729,370"/>
<polygon style="fill:black;stroke:black;" points="726,368 736,363 731,373 726,368"/>
</g>
<g id="node25" class="node"><title>fake_person_220</title>
<ellipse cx="613" cy="322" rx="27" ry="18" style="fill:none;stroke:red;"/>
<text text-anchor="middle" style="font-size:6.00;" x="613" y="324">person</text>
</g>
<g id="edge14" class="edge"><title>product&#45;&gt;fake_person_220</title>
<path style="fill:none;stroke:black;" d="M579,405C588,383 596,364 602,350"/>
<polygon style="fill:black;stroke:black;" points="599,348 606,340 606,351 599,348"/>
</g>
<g id="node5" class="node"><title>productbkbranch</title>
<polygon style="fill:#c1cdcc;stroke:#c1cdcc;" points="253,474 253,408 383,408 383,474 253,474"/>
<polygon style="fill:white;stroke:white;" points="256,423 256,411 380,411 380,423 256,423"/>
<text text-anchor="middle" style="font-size:6.00;" x="318" y="419">productbkbranch</text>
<polygon style="fill:none;stroke:black;" points="256,423 256,411 380,411 380,423 256,423"/>
<text text-anchor="middle" style="font-size:6.00;" x="261" y="432">id</text>
<text text-anchor="middle" style="font-size:6.00;" x="299" y="432">serial</text>
<text text-anchor="middle" style="font-size:6.00;" x="339" y="432"> PRIMARY KEY </text>
<text text-anchor="middle" style="font-size:6.00;" x="268" y="444">product</text>
<text text-anchor="middle" style="font-size:6.00;" x="301" y="444">integer</text>
<text text-anchor="middle" style="font-size:6.00;" x="347" y="444"> REFERENCES product </text>
<text text-anchor="middle" style="font-size:6.00;" x="272" y="456">locationurl</text>
<text text-anchor="middle" style="font-size:6.00;" x="298" y="456">text</text>
<text text-anchor="middle" style="font-size:6.00;" x="267" y="468">weburl</text>
<text text-anchor="middle" style="font-size:6.00;" x="298" y="468">text</text>
<polygon style="fill:none;stroke:black;" points="253,474 253,408 383,408 383,474 253,474"/>
</g>
<g id="edge20" class="edge"><title>productbkbranch&#45;&gt;product</title>
<path style="fill:none;stroke:black;" d="M372,478C380,483 389,490 399,496"/>
<polygon style="fill:black;stroke:black;" points="401,493 407,502 397,499 401,493"/>
</g>
<g id="node6" class="node"><title>productbranchrelationship</title>
<polygon style="fill:#c1cdcc;stroke:#c1cdcc;" points="223,838 223,772 345,772 345,838 223,838"/>
<polygon style="fill:white;stroke:white;" points="226,787 226,775 342,775 342,787 226,787"/>
<text text-anchor="middle" style="font-size:6.00;" x="284" y="783">productbranchrelationship</text>
<polygon style="fill:none;stroke:black;" points="226,787 226,775 342,775 342,787 226,787"/>
<text text-anchor="middle" style="font-size:6.00;" x="231" y="796">id</text>
<text text-anchor="middle" style="font-size:6.00;" x="261" y="796">serial</text>
<text text-anchor="middle" style="font-size:6.00;" x="301" y="796"> PRIMARY KEY </text>
<text text-anchor="middle" style="font-size:6.00;" x="238" y="808">product</text>
<text text-anchor="middle" style="font-size:6.00;" x="263" y="808">integer</text>
<text text-anchor="middle" style="font-size:6.00;" x="309" y="808"> REFERENCES product </text>
<text text-anchor="middle" style="font-size:6.00;" x="237" y="820">branch</text>
<text text-anchor="middle" style="font-size:6.00;" x="263" y="820">integer</text>
<text text-anchor="middle" style="font-size:6.00;" x="308" y="820"> REFERENCES branch </text>
<text text-anchor="middle" style="font-size:6.00;" x="235" y="832">label</text>
<text text-anchor="middle" style="font-size:6.00;" x="263" y="832">integer</text>
<polygon style="fill:none;stroke:black;" points="223,838 223,772 345,772 345,838 223,838"/>
</g>
<g id="edge24" class="edge"><title>productbranchrelationship&#45;&gt;branch</title>
<path style="fill:none;stroke:black;" d="M309,842C320,859 335,882 348,902"/>
<polygon style="fill:black;stroke:black;" points="351,900 354,910 345,904 351,900"/>
</g>
<g id="edge22" class="edge"><title>productbranchrelationship&#45;&gt;product</title>
<path style="fill:none;stroke:black;" d="M320,768C342,746 371,717 400,687"/>
<polygon style="fill:black;stroke:black;" points="397,685 407,680 402,690 397,685"/>
</g>
<g id="node7" class="node"><title>productcvsmodule</title>
<polygon style="fill:#c1cdcc;stroke:#c1cdcc;" points="130,724 130,646 256,646 256,724 130,724"/>
<polygon style="fill:white;stroke:white;" points="133,661 133,649 253,649 253,661 133,661"/>
<text text-anchor="middle" style="font-size:6.00;" x="193" y="657">productcvsmodule</text>
<polygon style="fill:none;stroke:black;" points="133,661 133,649 253,649 253,661 133,661"/>
<text text-anchor="middle" style="font-size:6.00;" x="138" y="670">id</text>
<text text-anchor="middle" style="font-size:6.00;" x="172" y="670">serial</text>
<text text-anchor="middle" style="font-size:6.00;" x="212" y="670"> PRIMARY KEY </text>
<text text-anchor="middle" style="font-size:6.00;" x="145" y="682">product</text>
<text text-anchor="middle" style="font-size:6.00;" x="174" y="682">integer</text>
<text text-anchor="middle" style="font-size:6.00;" x="220" y="682"> REFERENCES product </text>
<text text-anchor="middle" style="font-size:6.00;" x="147" y="694">anonroot</text>
<text text-anchor="middle" style="font-size:6.00;" x="171" y="694">text</text>
<text text-anchor="middle" style="font-size:6.00;" x="145" y="706">module</text>
<text text-anchor="middle" style="font-size:6.00;" x="171" y="706">text</text>
<text text-anchor="middle" style="font-size:6.00;" x="144" y="718">weburl</text>
<text text-anchor="middle" style="font-size:6.00;" x="171" y="718">text</text>
<polygon style="fill:none;stroke:black;" points="130,724 130,646 256,646 256,724 130,724"/>
</g>
<g id="edge26" class="edge"><title>productcvsmodule&#45;&gt;product</title>
<path style="fill:none;stroke:black;" d="M264,660C303,646 353,629 397,613"/>
<polygon style="fill:black;stroke:black;" points="396,610 407,610 398,616 396,610"/>
</g>
<g id="node8" class="node"><title>productlabel</title>
<polygon style="fill:#c1cdcc;stroke:#c1cdcc;" points="408,233 408,179 556,179 556,233 408,233"/>
<polygon style="fill:white;stroke:white;" points="411,194 411,182 553,182 553,194 411,194"/>
<text text-anchor="middle" style="font-size:6.00;" x="482" y="190">productlabel</text>
<polygon style="fill:none;stroke:black;" points="411,194 411,182 553,182 553,194 411,194"/>
<text text-anchor="middle" style="font-size:6.00;" x="416" y="203">id</text>
<text text-anchor="middle" style="font-size:6.00;" x="447" y="203">serial</text>
<text text-anchor="middle" style="font-size:6.00;" x="487" y="203"> PRIMARY KEY </text>
<text text-anchor="middle" style="font-size:6.00;" x="423" y="215">product</text>
<text text-anchor="middle" style="font-size:6.00;" x="449" y="215">integer</text>
<text text-anchor="middle" style="font-size:6.00;" x="508" y="215"> REFERENCES product UNIQUE </text>
<text text-anchor="middle" style="font-size:6.00;" x="420" y="227">label</text>
<text text-anchor="middle" style="font-size:6.00;" x="449" y="227">integer</text>
<text text-anchor="middle" style="font-size:6.00;" x="504" y="227"> REFERENCES label UNIQUE </text>
<polygon style="fill:none;stroke:black;" points="408,233 408,179 556,179 556,233 408,233"/>
</g>
<g id="edge28" class="edge"><title>productlabel&#45;&gt;product</title>
<path style="fill:none;stroke:black;" d="M484,237C487,273 491,334 496,395"/>
<polygon style="fill:black;stroke:black;" points="499,395 497,405 493,395 499,395"/>
</g>
<g id="node34" class="node"><title>fake_label_231</title>
<ellipse cx="474" cy="41" rx="27" ry="18" style="fill:none;stroke:red;"/>
<text text-anchor="middle" style="font-size:6.00;" x="474" y="43">label</text>
</g>
<g id="edge30" class="edge"><title>productlabel&#45;&gt;fake_label_231</title>
<path style="fill:none;stroke:black;" d="M480,175C479,145 477,99 475,69"/>
<polygon style="fill:black;stroke:black;" points="472,69 475,59 479,69 472,69"/>
</g>
<g id="node9" class="node"><title>productrelease</title>
<polygon style="fill:#c1cdcc;stroke:#c1cdcc;" points="776,1373 776,1223 936,1223 936,1373 776,1373"/>
<polygon style="fill:white;stroke:white;" points="779,1238 779,1226 933,1226 933,1238 779,1238"/>
<text text-anchor="middle" style="font-size:6.00;" x="856" y="1234">productrelease</text>
<polygon style="fill:none;stroke:black;" points="779,1238 779,1226 933,1226 933,1238 779,1238"/>
<text text-anchor="middle" style="font-size:6.00;" x="784" y="1247">id</text>
<text text-anchor="middle" style="font-size:6.00;" x="829" y="1247">serial</text>
<text text-anchor="middle" style="font-size:6.00;" x="878" y="1247"> PRIMARY KEY </text>
<text text-anchor="middle" style="font-size:6.00;" x="797" y="1259">datereleased</text>
<text text-anchor="middle" style="font-size:6.00;" x="836" y="1259">timestamp</text>
<text text-anchor="middle" style="font-size:6.00;" x="791" y="1271">version</text>
<text text-anchor="middle" style="font-size:6.00;" x="828" y="1271">text</text>
<text text-anchor="middle" style="font-size:6.00;" x="787" y="1283">title</text>
<text text-anchor="middle" style="font-size:6.00;" x="828" y="1283">text</text>
<text text-anchor="middle" style="font-size:6.00;" x="796" y="1295">description</text>
<text text-anchor="middle" style="font-size:6.00;" x="828" y="1295">text</text>
<text text-anchor="middle" style="font-size:6.00;" x="795" y="1307">changelog</text>
<text text-anchor="middle" style="font-size:6.00;" x="828" y="1307">text</text>
<text text-anchor="middle" style="font-size:6.00;" x="790" y="1319">owner</text>
<text text-anchor="middle" style="font-size:6.00;" x="831" y="1319">integer</text>
<text text-anchor="middle" style="font-size:6.00;" x="885" y="1319"> REFERENCES person </text>
<text text-anchor="middle" style="font-size:6.00;" x="793" y="1331">summary</text>
<text text-anchor="middle" style="font-size:6.00;" x="828" y="1331">text</text>
<text text-anchor="middle" style="font-size:6.00;" x="798" y="1343">productseries</text>
<text text-anchor="middle" style="font-size:6.00;" x="831" y="1343">integer</text>
<text text-anchor="middle" style="font-size:6.00;" x="893" y="1343"> REFERENCES productseries </text>
<text text-anchor="middle" style="font-size:6.00;" x="792" y="1355">manifest</text>
<text text-anchor="middle" style="font-size:6.00;" x="831" y="1355">integer</text>
<text text-anchor="middle" style="font-size:6.00;" x="887" y="1355"> REFERENCES manifest </text>
<text text-anchor="middle" style="font-size:6.00;" x="796" y="1367">datecreated</text>
<text text-anchor="middle" style="font-size:6.00;" x="836" y="1367">timestamp</text>
<polygon style="fill:none;stroke:black;" points="776,1373 776,1223 936,1223 936,1373 776,1373"/>
</g>
<g id="node11" class="node"><title>productseries</title>
<polygon style="fill:#c1cdcc;stroke:#c1cdcc;" points="501,1228 501,862 691,862 691,1228 501,1228"/>
<polygon style="fill:white;stroke:white;" points="504,877 504,865 688,865 688,877 504,877"/>
<text text-anchor="middle" style="font-size:6.00;" x="596" y="873">productseries</text>
<polygon style="fill:none;stroke:black;" points="504,877 504,865 688,865 688,877 504,877"/>
<text text-anchor="middle" style="font-size:6.00;" x="509" y="886">id</text>
<text text-anchor="middle" style="font-size:6.00;" x="573" y="886">serial</text>
<text text-anchor="middle" style="font-size:6.00;" x="622" y="886"> PRIMARY KEY </text>
<text text-anchor="middle" style="font-size:6.00;" x="516" y="898">product</text>
<text text-anchor="middle" style="font-size:6.00;" x="575" y="898">integer</text>
<text text-anchor="middle" style="font-size:6.00;" x="643" y="898"> REFERENCES product UNIQUE </text>
<text text-anchor="middle" style="font-size:6.00;" x="514" y="910">name</text>
<text text-anchor="middle" style="font-size:6.00;" x="572" y="910">text</text>
<text text-anchor="middle" style="font-size:6.00;" x="613" y="910"> UNIQUE </text>
<text text-anchor="middle" style="font-size:6.00;" x="522" y="922">displayname</text>
<text text-anchor="middle" style="font-size:6.00;" x="572" y="922">text</text>
<text text-anchor="middle" style="font-size:6.00;" x="518" y="934">summary</text>
<text text-anchor="middle" style="font-size:6.00;" x="572" y="934">text</text>
<text text-anchor="middle" style="font-size:6.00;" x="515" y="946">branch</text>
<text text-anchor="middle" style="font-size:6.00;" x="575" y="946">integer</text>
<text text-anchor="middle" style="font-size:6.00;" x="641" y="946"> REFERENCES branch UNIQUE </text>
<text text-anchor="middle" style="font-size:6.00;" x="522" y="958">importstatus</text>
<text text-anchor="middle" style="font-size:6.00;" x="575" y="958">integer</text>
<text text-anchor="middle" style="font-size:6.00;" x="525" y="970">datelastsynced</text>
<text text-anchor="middle" style="font-size:6.00;" x="580" y="970">timestamp</text>
<text text-anchor="middle" style="font-size:6.00;" x="521" y="982">syncinterval</text>
<text text-anchor="middle" style="font-size:6.00;" x="576" y="982">interval</text>
<text text-anchor="middle" style="font-size:6.00;" x="516" y="994">rcstype</text>
<text text-anchor="middle" style="font-size:6.00;" x="575" y="994">integer</text>
<text text-anchor="middle" style="font-size:6.00;" x="516" y="1006">cvsroot</text>
<text text-anchor="middle" style="font-size:6.00;" x="572" y="1006">text</text>
<text text-anchor="middle" style="font-size:6.00;" x="613" y="1006"> UNIQUE </text>
<text text-anchor="middle" style="font-size:6.00;" x="520" y="1018">cvsmodule</text>
<text text-anchor="middle" style="font-size:6.00;" x="572" y="1018">text</text>
<text text-anchor="middle" style="font-size:6.00;" x="613" y="1018"> UNIQUE </text>
<text text-anchor="middle" style="font-size:6.00;" x="519" y="1030">cvsbranch</text>
<text text-anchor="middle" style="font-size:6.00;" x="572" y="1030">text</text>
<text text-anchor="middle" style="font-size:6.00;" x="613" y="1030"> UNIQUE </text>
<text text-anchor="middle" style="font-size:6.00;" x="522" y="1042">cvstarfileurl</text>
<text text-anchor="middle" style="font-size:6.00;" x="572" y="1042">text</text>
<text text-anchor="middle" style="font-size:6.00;" x="523" y="1054">svnrepository</text>
<text text-anchor="middle" style="font-size:6.00;" x="572" y="1054">text</text>
<text text-anchor="middle" style="font-size:6.00;" x="613" y="1054"> UNIQUE </text>
<text text-anchor="middle" style="font-size:6.00;" x="523" y="1066">bkrepository</text>
<text text-anchor="middle" style="font-size:6.00;" x="572" y="1066">text</text>
<text text-anchor="middle" style="font-size:6.00;" x="613" y="1066"> UNIQUE </text>
<text text-anchor="middle" style="font-size:6.00;" x="520" y="1078">releaseroot</text>
<text text-anchor="middle" style="font-size:6.00;" x="572" y="1078">text</text>
<text text-anchor="middle" style="font-size:6.00;" x="525" y="1090">releasefileglob</text>
<text text-anchor="middle" style="font-size:6.00;" x="572" y="1090">text</text>
<text text-anchor="middle" style="font-size:6.00;" x="525" y="1102">releaseverstyle</text>
<text text-anchor="middle" style="font-size:6.00;" x="575" y="1102">integer</text>
<text text-anchor="middle" style="font-size:6.00;" x="528" y="1114">targetarcharchive</text>
<text text-anchor="middle" style="font-size:6.00;" x="572" y="1114">text</text>
<text text-anchor="middle" style="font-size:6.00;" x="613" y="1114"> UNIQUE </text>
<text text-anchor="middle" style="font-size:6.00;" x="530" y="1126">targetarchcategory</text>
<text text-anchor="middle" style="font-size:6.00;" x="572" y="1126">text</text>
<text text-anchor="middle" style="font-size:6.00;" x="613" y="1126"> UNIQUE </text>
<text text-anchor="middle" style="font-size:6.00;" x="527" y="1138">targetarchbranch</text>
<text text-anchor="middle" style="font-size:6.00;" x="572" y="1138">text</text>
<text text-anchor="middle" style="font-size:6.00;" x="613" y="1138"> UNIQUE </text>
<text text-anchor="middle" style="font-size:6.00;" x="528" y="1150">targetarchversion</text>
<text text-anchor="middle" style="font-size:6.00;" x="572" y="1150">text</text>
<text text-anchor="middle" style="font-size:6.00;" x="613" y="1150"> UNIQUE </text>
<text text-anchor="middle" style="font-size:6.00;" x="524" y="1162">dateautotested</text>
<text text-anchor="middle" style="font-size:6.00;" x="580" y="1162">timestamp</text>
<text text-anchor="middle" style="font-size:6.00;" x="533" y="1174">dateprocessapproved</text>
<text text-anchor="middle" style="font-size:6.00;" x="580" y="1174">timestamp</text>
<text text-anchor="middle" style="font-size:6.00;" x="529" y="1186">datesyncapproved</text>
<text text-anchor="middle" style="font-size:6.00;" x="580" y="1186">timestamp</text>
<text text-anchor="middle" style="font-size:6.00;" x="520" y="1198">datestarted</text>
<text text-anchor="middle" style="font-size:6.00;" x="580" y="1198">timestamp</text>
<text text-anchor="middle" style="font-size:6.00;" x="522" y="1210">datefinished</text>
<text text-anchor="middle" style="font-size:6.00;" x="580" y="1210">timestamp</text>
<text text-anchor="middle" style="font-size:6.00;" x="521" y="1222">datecreated</text>
<text text-anchor="middle" style="font-size:6.00;" x="580" y="1222">timestamp</text>
<polygon style="fill:none;stroke:black;" points="501,1228 501,862 691,862 691,1228 501,1228"/>
</g>
<g id="edge34" class="edge"><title>productrelease&#45;&gt;productseries</title>
<path style="fill:none;stroke:black;" d="M775,1219C753,1198 730,1175 706,1152"/>
<polygon style="fill:black;stroke:black;" points="704,1155 699,1145 709,1150 704,1155"/>
</g>
<g id="node36" class="node"><title>fake_person_233</title>
<ellipse cx="1027" cy="1234" rx="27" ry="18" style="fill:none;stroke:red;"/>
<text text-anchor="middle" style="font-size:6.00;" x="1027" y="1236">person</text>
</g>
<g id="edge32" class="edge"><title>productrelease&#45;&gt;fake_person_233</title>
<path style="fill:none;stroke:black;" d="M944,1265C962,1258 979,1252 993,1247"/>
<polygon style="fill:black;stroke:black;" points="992,1243 1003,1243 995,1250 992,1243"/>
</g>
<g id="node39" class="node"><title>fake_manifest_236</title>
<ellipse cx="788" cy="1472" rx="27" ry="18" style="fill:none;stroke:red;"/>
<text text-anchor="middle" style="font-size:6.00;" x="788" y="1474">manifest</text>
</g>
<g id="edge36" class="edge"><title>productrelease&#45;&gt;fake_manifest_236</title>
<path style="fill:none;stroke:black;" d="M825,1377C816,1401 806,1426 799,1444"/>
<polygon style="fill:black;stroke:black;" points="802,1446 795,1454 795,1443 802,1446"/>
</g>
<g id="node10" class="node"><title>productreleasefile</title>
<polygon style="fill:#c1cdcc;stroke:#c1cdcc;" points="980,1483 980,1417 1136,1417 1136,1483 980,1483"/>
<polygon style="fill:white;stroke:white;" points="983,1432 983,1420 1133,1420 1133,1432 983,1432"/>
<text text-anchor="middle" style="font-size:6.00;" x="1058" y="1428">productreleasefile</text>
<polygon style="fill:none;stroke:black;" points="983,1432 983,1420 1133,1420 1133,1432 983,1432"/>
<text text-anchor="middle" style="font-size:6.00;" x="1004" y="1441">productrelease</text>
<text text-anchor="middle" style="font-size:6.00;" x="1037" y="1441">integer</text>
<text text-anchor="middle" style="font-size:6.00;" x="1092" y="1441"> REFERENCES productrelease </text>
<text text-anchor="middle" style="font-size:6.00;" x="998" y="1453">libraryfile</text>
<text text-anchor="middle" style="font-size:6.00;" x="1037" y="1453">integer</text>
<text text-anchor="middle" style="font-size:6.00;" x="1092" y="1453"> REFERENCES libraryfilealias </text>
<text text-anchor="middle" style="font-size:6.00;" x="995" y="1465">filetype</text>
<text text-anchor="middle" style="font-size:6.00;" x="1037" y="1465">integer</text>
<text text-anchor="middle" style="font-size:6.00;" x="988" y="1477">id</text>
<text text-anchor="middle" style="font-size:6.00;" x="1037" y="1477">integer</text>
<text text-anchor="middle" style="font-size:6.00;" x="1075" y="1477"> PRIMARY KEY </text>
<polygon style="fill:none;stroke:black;" points="980,1483 980,1417 1136,1417 1136,1483 980,1483"/>
</g>
<g id="edge38" class="edge"><title>productreleasefile&#45;&gt;productrelease</title>
<path style="fill:none;stroke:black;" d="M1009,1413C991,1400 972,1385 952,1370"/>
<polygon style="fill:black;stroke:black;" points="950,1373 944,1364 954,1367 950,1373"/>
</g>
<g id="node42" class="node"><title>fake_libraryfilealias_239</title>
<ellipse cx="1211" cy="1484" rx="29" ry="18" style="fill:none;stroke:red;"/>
<text text-anchor="middle" style="font-size:6.00;" x="1211" y="1486">libraryfilealias</text>
</g>
<g id="edge40" class="edge"><title>productreleasefile&#45;&gt;fake_libraryfilealias_239</title>
<path style="fill:none;stroke:black;" d="M1144,1469C1154,1471 1165,1473 1174,1476"/>
<polygon style="fill:black;stroke:black;" points="1175,1473 1184,1478 1174,1479 1175,1473"/>
</g>
<g id="edge44" class="edge"><title>productseries&#45;&gt;branch</title>
<path style="fill:none;stroke:black;" d="M493,1003C489,1001 486,1000 483,998"/>
<polygon style="fill:black;stroke:black;" points="482,1001 473,995 484,995 482,1001"/>
</g>
<g id="edge42" class="edge"><title>productseries&#45;&gt;product</title>
<path style="fill:none;stroke:black;" d="M562,858C556,823 549,787 544,753"/>
<polygon style="fill:black;stroke:black;" points="541,753 542,743 547,752 541,753"/>
</g>
<g id="node12" class="node"><title>productsvnmodule</title>
<polygon style="fill:#c1cdcc;stroke:#c1cdcc;" points="113,578 113,512 243,512 243,578 113,578"/>
<polygon style="fill:white;stroke:white;" points="116,527 116,515 240,515 240,527 116,527"/>
<text text-anchor="middle" style="font-size:6.00;" x="178" y="523">productsvnmodule</text>
<polygon style="fill:none;stroke:black;" points="116,527 116,515 240,515 240,527 116,527"/>
<text text-anchor="middle" style="font-size:6.00;" x="121" y="536">id</text>
<text text-anchor="middle" style="font-size:6.00;" x="159" y="536">serial</text>
<text text-anchor="middle" style="font-size:6.00;" x="199" y="536"> PRIMARY KEY </text>
<text text-anchor="middle" style="font-size:6.00;" x="128" y="548">product</text>
<text text-anchor="middle" style="font-size:6.00;" x="161" y="548">integer</text>
<text text-anchor="middle" style="font-size:6.00;" x="207" y="548"> REFERENCES product </text>
<text text-anchor="middle" style="font-size:6.00;" x="132" y="560">locationurl</text>
<text text-anchor="middle" style="font-size:6.00;" x="158" y="560">text</text>
<text text-anchor="middle" style="font-size:6.00;" x="127" y="572">weburl</text>
<text text-anchor="middle" style="font-size:6.00;" x="158" y="572">text</text>
<polygon style="fill:none;stroke:black;" points="113,578 113,512 243,512 243,578 113,578"/>
</g>
<g id="edge46" class="edge"><title>productsvnmodule&#45;&gt;product</title>
<path style="fill:none;stroke:black;" d="M251,551C294,555 348,559 397,564"/>
<polygon style="fill:black;stroke:black;" points="397,561 407,565 397,567 397,561"/>
</g>
<g id="edge52" class="edge"><title>project&#45;&gt;calendar</title>
<path style="fill:none;stroke:black;" d="M771,706C771,708 772,711 772,713"/>
<polygon style="fill:black;stroke:black;" points="775,713 774,723 769,714 775,713"/>
</g>
<g id="edge50" class="edge"><title>project&#45;&gt;translationgroup</title>
<path style="fill:none;stroke:black;" d="M769,452C773,424 777,396 780,373"/>
<polygon style="fill:black;stroke:black;" points="777,372 782,363 783,373 777,372"/>
</g>
<g id="node47" class="node"><title>fake_person_244</title>
<ellipse cx="980" cy="498" rx="27" ry="18" style="fill:none;stroke:red;"/>
<text text-anchor="middle" style="font-size:6.00;" x="980" y="500">person</text>
</g>
<g id="edge48" class="edge"><title>project&#45;&gt;fake_person_244</title>
<path style="fill:none;stroke:black;" d="M854,542C887,531 922,518 946,510"/>
<polygon style="fill:black;stroke:black;" points="945,507 956,507 947,513 945,507"/>
</g>
<g id="node14" class="node"><title>projectrelationship</title>
<polygon style="fill:#c1cdcc;stroke:#c1cdcc;" points="982,668 982,602 1100,602 1100,668 982,668"/>
<polygon style="fill:white;stroke:white;" points="985,617 985,605 1097,605 1097,617 985,617"/>
<text text-anchor="middle" style="font-size:6.00;" x="1041" y="613">projectrelationship</text>
<polygon style="fill:none;stroke:black;" points="985,617 985,605 1097,605 1097,617 985,617"/>
<text text-anchor="middle" style="font-size:6.00;" x="990" y="626">id</text>
<text text-anchor="middle" style="font-size:6.00;" x="1018" y="626">serial</text>
<text text-anchor="middle" style="font-size:6.00;" x="1058" y="626"> PRIMARY KEY </text>
<text text-anchor="middle" style="font-size:6.00;" x="996" y="638">subject</text>
<text text-anchor="middle" style="font-size:6.00;" x="1020" y="638">integer</text>
<text text-anchor="middle" style="font-size:6.00;" x="1065" y="638"> REFERENCES project </text>
<text text-anchor="middle" style="font-size:6.00;" x="994" y="650">label</text>
<text text-anchor="middle" style="font-size:6.00;" x="1020" y="650">integer</text>
<text text-anchor="middle" style="font-size:6.00;" x="996" y="662">object</text>
<text text-anchor="middle" style="font-size:6.00;" x="1020" y="662">integer</text>
<text text-anchor="middle" style="font-size:6.00;" x="1065" y="662"> REFERENCES project </text>
<polygon style="fill:none;stroke:black;" points="982,668 982,602 1100,602 1100,668 982,668"/>
</g>
<g id="edge54" class="edge"><title>projectrelationship&#45;&gt;project</title>
<path style="fill:none;stroke:black;" d="M974,628C941,622 901,615 864,608"/>
<polygon style="fill:black;stroke:black;" points="863,611 854,606 864,605 863,611"/>
</g>
<g id="edge56" class="edge"><title>projectrelationship&#45;&gt;project</title>
<path style="fill:none;stroke:black;" d="M974,617C941,610 901,601 864,595"/>
<polygon style="fill:black;stroke:black;" points="863,598 854,593 864,592 863,598"/>
</g>
<g id="node53" class="node"><title>fake_person_289</title>
<ellipse cx="906" cy="193" rx="27" ry="18" style="fill:none;stroke:red;"/>
<text text-anchor="middle" style="font-size:6.00;" x="906" y="195">person</text>
</g>
<g id="edge58" class="edge"><title>translationgroup&#45;&gt;fake_person_289</title>
<path style="fill:none;stroke:black;" d="M837,265C853,247 871,229 884,215"/>
<polygon style="fill:black;stroke:black;" points="881,213 891,208 886,218 881,213"/>
</g>
</g>
</svg>
