<?xml version="1.0" encoding="UTF-8" standalone="no"?>
<!DOCTYPE svg PUBLIC "-//W3C//DTD SVG 1.0//EN"
 "http://www.w3.org/TR/2001/REC-SVG-20010904/DTD/svg10.dtd">
<!-- Generated by fdp version 2.2.1 (Tue Oct 11 01:38:21 UTC 2005)
     For user: (stub) Stuart Bishop,,,   Title: g    Pages: 1 -->
<svg width="588px" height="535px"
 viewBox = "-1 -1 587 534"
 xmlns="http://www.w3.org/2000/svg">
<g id="graph0" class="graph" transform = "scale(0.283776)"
 style="font-family:Times-Roman;font-size:14.00;">
<title>g</title>
<text text-anchor="middle" style="font-size:22.00;" x="1020" y="1862">Registry</text>
<g id="node1" class="node"><title>branch</title>
<polygon style="fill:#c1cdcc;stroke:#c1cdcc;" points="821,584 821,230 1087,230 1087,584 821,584"/>
<polygon style="fill:white;stroke:white;" points="824,245 824,233 1084,233 1084,245 824,245"/>
<text text-anchor="middle" style="font-size:6.00;" x="954" y="241">branch</text>
<polygon style="fill:none;stroke:black;" points="824,245 824,233 1084,233 1084,245 824,245"/>
<text text-anchor="middle" style="font-size:6.00;" x="829" y="254">id</text>
<text text-anchor="middle" style="font-size:6.00;" x="896" y="254">serial</text>
<text text-anchor="middle" style="font-size:6.00;" x="984" y="254"> REFERENCES revisionnumber PRIMARY KEY </text>
<text text-anchor="middle" style="font-size:6.00;" x="832" y="266">title</text>
<text text-anchor="middle" style="font-size:6.00;" x="895" y="266">text</text>
<text text-anchor="middle" style="font-size:6.00;" x="838" y="278">summary</text>
<text text-anchor="middle" style="font-size:6.00;" x="895" y="278">text</text>
<text text-anchor="middle" style="font-size:6.00;" x="835" y="290">owner</text>
<text text-anchor="middle" style="font-size:6.00;" x="898" y="290">integer</text>
<text text-anchor="middle" style="font-size:6.00;" x="952" y="290"> REFERENCES person </text>
<text text-anchor="middle" style="font-size:6.00;" x="836" y="302">product</text>
<text text-anchor="middle" style="font-size:6.00;" x="898" y="302">integer</text>
<text text-anchor="middle" style="font-size:6.00;" x="953" y="302"> REFERENCES product </text>
<text text-anchor="middle" style="font-size:6.00;" x="835" y="314">author</text>
<text text-anchor="middle" style="font-size:6.00;" x="898" y="314">integer</text>
<text text-anchor="middle" style="font-size:6.00;" x="952" y="314"> REFERENCES person </text>
<text text-anchor="middle" style="font-size:6.00;" x="834" y="326">name</text>
<text text-anchor="middle" style="font-size:6.00;" x="895" y="326">text</text>
<text text-anchor="middle" style="font-size:6.00;" x="854" y="338">branch_product_name</text>
<text text-anchor="middle" style="font-size:6.00;" x="895" y="338">text</text>
<text text-anchor="middle" style="font-size:6.00;" x="846" y="350">product_locked</text>
<text text-anchor="middle" style="font-size:6.00;" x="900" y="350">boolean</text>
<text text-anchor="middle" style="font-size:6.00;" x="841" y="362">home_page</text>
<text text-anchor="middle" style="font-size:6.00;" x="895" y="362">text</text>
<text text-anchor="middle" style="font-size:6.00;" x="851" y="374">branch_home_page</text>
<text text-anchor="middle" style="font-size:6.00;" x="895" y="374">text</text>
<text text-anchor="middle" style="font-size:6.00;" x="851" y="386">home_page_locked</text>
<text text-anchor="middle" style="font-size:6.00;" x="900" y="386">boolean</text>
<text text-anchor="middle" style="font-size:6.00;" x="830" y="398">url</text>
<text text-anchor="middle" style="font-size:6.00;" x="895" y="398">text</text>
<text text-anchor="middle" style="font-size:6.00;" x="841" y="410">whiteboard</text>
<text text-anchor="middle" style="font-size:6.00;" x="895" y="410">text</text>
<text text-anchor="middle" style="font-size:6.00;" x="846" y="422">lifecycle_status</text>
<text text-anchor="middle" style="font-size:6.00;" x="898" y="422">integer</text>
<text text-anchor="middle" style="font-size:6.00;" x="845" y="434">landing_target</text>
<text text-anchor="middle" style="font-size:6.00;" x="898" y="434">integer</text>
<text text-anchor="middle" style="font-size:6.00;" x="952" y="434"> REFERENCES branch </text>
<text text-anchor="middle" style="font-size:6.00;" x="848" y="446">current_delta_url</text>
<text text-anchor="middle" style="font-size:6.00;" x="895" y="446">text</text>
<text text-anchor="middle" style="font-size:6.00;" x="853" y="458">current_conflicts_url</text>
<text text-anchor="middle" style="font-size:6.00;" x="895" y="458">text</text>
<text text-anchor="middle" style="font-size:6.00;" x="849" y="470">current_diff_adds</text>
<text text-anchor="middle" style="font-size:6.00;" x="898" y="470">integer</text>
<text text-anchor="middle" style="font-size:6.00;" x="852" y="482">current_diff_deletes</text>
<text text-anchor="middle" style="font-size:6.00;" x="898" y="482">integer</text>
<text text-anchor="middle" style="font-size:6.00;" x="843" y="494">stats_updated</text>
<text text-anchor="middle" style="font-size:6.00;" x="903" y="494">timestamp</text>
<text text-anchor="middle" style="font-size:6.00;" x="846" y="506">current_activity</text>
<text text-anchor="middle" style="font-size:6.00;" x="898" y="506">integer</text>
<text text-anchor="middle" style="font-size:6.00;" x="843" y="518">last_mirrored</text>
<text text-anchor="middle" style="font-size:6.00;" x="903" y="518">timestamp</text>
<text text-anchor="middle" style="font-size:6.00;" x="851" y="530">last_mirror_attempt</text>
<text text-anchor="middle" style="font-size:6.00;" x="903" y="530">timestamp</text>
<text text-anchor="middle" style="font-size:6.00;" x="845" y="542">mirror_failures</text>
<text text-anchor="middle" style="font-size:6.00;" x="898" y="542">integer</text>
<text text-anchor="middle" style="font-size:6.00;" x="844" y="554">pull_disabled</text>
<text text-anchor="middle" style="font-size:6.00;" x="900" y="554">boolean</text>
<text text-anchor="middle" style="font-size:6.00;" x="839" y="566">cache_url</text>
<text text-anchor="middle" style="font-size:6.00;" x="895" y="566">text</text>
<text text-anchor="middle" style="font-size:6.00;" x="838" y="578">started_at</text>
<text text-anchor="middle" style="font-size:6.00;" x="898" y="578">integer</text>
<text text-anchor="middle" style="font-size:6.00;" x="1002" y="578"> REFERENCES revisionnumber REFERENCES revisionnumber </text>
<polygon style="fill:none;stroke:black;" points="821,584 821,230 1087,230 1087,584 821,584"/>
</g>
<g id="edge10" class="edge"><title>branch&#45;&gt;branch</title>
<path style="fill:none;stroke:black;" d="M1095,510C1106,487 1113,453 1113,407 1113,367 1108,336 1099,313"/>
<polygon style="fill:black;stroke:black;" points="1096,315 1095,304 1102,312 1096,315"/>
</g>
<g id="node3" class="node"><title>product</title>
<polygon style="fill:#c1cdcc;stroke:#c1cdcc;" points="463,1167 463,801 655,801 655,1167 463,1167"/>
<polygon style="fill:white;stroke:white;" points="466,816 466,804 652,804 652,816 466,816"/>
<text text-anchor="middle" style="font-size:6.00;" x="559" y="812">product</text>
<polygon style="fill:none;stroke:black;" points="466,816 466,804 652,804 652,816 466,816"/>
<text text-anchor="middle" style="font-size:6.00;" x="471" y="825">id</text>
<text text-anchor="middle" style="font-size:6.00;" x="536" y="825">serial</text>
<text text-anchor="middle" style="font-size:6.00;" x="585" y="825"> PRIMARY KEY </text>
<text text-anchor="middle" style="font-size:6.00;" x="477" y="837">project</text>
<text text-anchor="middle" style="font-size:6.00;" x="538" y="837">integer</text>
<text text-anchor="middle" style="font-size:6.00;" x="592" y="837"> REFERENCES project </text>
<text text-anchor="middle" style="font-size:6.00;" x="477" y="849">owner</text>
<text text-anchor="middle" style="font-size:6.00;" x="538" y="849">integer</text>
<text text-anchor="middle" style="font-size:6.00;" x="592" y="849"> REFERENCES person </text>
<text text-anchor="middle" style="font-size:6.00;" x="476" y="861">name</text>
<text text-anchor="middle" style="font-size:6.00;" x="535" y="861">text</text>
<text text-anchor="middle" style="font-size:6.00;" x="576" y="861"> UNIQUE </text>
<text text-anchor="middle" style="font-size:6.00;" x="484" y="873">displayname</text>
<text text-anchor="middle" style="font-size:6.00;" x="535" y="873">text</text>
<text text-anchor="middle" style="font-size:6.00;" x="474" y="885">title</text>
<text text-anchor="middle" style="font-size:6.00;" x="535" y="885">text</text>
<text text-anchor="middle" style="font-size:6.00;" x="480" y="897">summary</text>
<text text-anchor="middle" style="font-size:6.00;" x="535" y="897">text</text>
<text text-anchor="middle" style="font-size:6.00;" x="483" y="909">description</text>
<text text-anchor="middle" style="font-size:6.00;" x="535" y="909">text</text>
<text text-anchor="middle" style="font-size:6.00;" x="483" y="921">datecreated</text>
<text text-anchor="middle" style="font-size:6.00;" x="543" y="921">timestamp</text>
<text text-anchor="middle" style="font-size:6.00;" x="485" y="933">homepageurl</text>
<text text-anchor="middle" style="font-size:6.00;" x="535" y="933">text</text>
<text text-anchor="middle" style="font-size:6.00;" x="486" y="945">screenshotsurl</text>
<text text-anchor="middle" style="font-size:6.00;" x="535" y="945">text</text>
<text text-anchor="middle" style="font-size:6.00;" x="478" y="957">wikiurl</text>
<text text-anchor="middle" style="font-size:6.00;" x="535" y="957">text</text>
<text text-anchor="middle" style="font-size:6.00;" x="476" y="969">listurl</text>
<text text-anchor="middle" style="font-size:6.00;" x="535" y="969">text</text>
<text text-anchor="middle" style="font-size:6.00;" x="491" y="981">programminglang</text>
<text text-anchor="middle" style="font-size:6.00;" x="535" y="981">text</text>
<text text-anchor="middle" style="font-size:6.00;" x="484" y="993">downloadurl</text>
<text text-anchor="middle" style="font-size:6.00;" x="535" y="993">text</text>
<text text-anchor="middle" style="font-size:6.00;" x="479" y="1005">lastdoap</text>
<text text-anchor="middle" style="font-size:6.00;" x="535" y="1005">text</text>
<text text-anchor="middle" style="font-size:6.00;" x="491" y="1017">sourceforgeproject</text>
<text text-anchor="middle" style="font-size:6.00;" x="535" y="1017">text</text>
<text text-anchor="middle" style="font-size:6.00;" x="489" y="1029">freshmeatproject</text>
<text text-anchor="middle" style="font-size:6.00;" x="535" y="1029">text</text>
<text text-anchor="middle" style="font-size:6.00;" x="480" y="1041">reviewed</text>
<text text-anchor="middle" style="font-size:6.00;" x="540" y="1041">boolean</text>
<text text-anchor="middle" style="font-size:6.00;" x="476" y="1053">active</text>
<text text-anchor="middle" style="font-size:6.00;" x="540" y="1053">boolean</text>
<text text-anchor="middle" style="font-size:6.00;" x="472" y="1065">fti</text>
<text text-anchor="middle" style="font-size:6.00;" x="540" y="1065">tsvector</text>
<text text-anchor="middle" style="font-size:6.00;" x="483" y="1077">autoupdate</text>
<text text-anchor="middle" style="font-size:6.00;" x="540" y="1077">boolean</text>
<text text-anchor="middle" style="font-size:6.00;" x="489" y="1089">translationgroup</text>
<text text-anchor="middle" style="font-size:6.00;" x="538" y="1089">integer</text>
<text text-anchor="middle" style="font-size:6.00;" x="604" y="1089"> REFERENCES translationgroup </text>
<text text-anchor="middle" style="font-size:6.00;" x="495" y="1101">translationpermission</text>
<text text-anchor="middle" style="font-size:6.00;" x="538" y="1101">integer</text>
<text text-anchor="middle" style="font-size:6.00;" x="482" y="1113">releaseroot</text>
<text text-anchor="middle" style="font-size:6.00;" x="535" y="1113">text</text>
<text text-anchor="middle" style="font-size:6.00;" x="479" y="1125">calendar</text>
<text text-anchor="middle" style="font-size:6.00;" x="538" y="1125">integer</text>
<text text-anchor="middle" style="font-size:6.00;" x="606" y="1125"> REFERENCES calendar UNIQUE </text>
<text text-anchor="middle" style="font-size:6.00;" x="487" y="1137">official_rosetta</text>
<text text-anchor="middle" style="font-size:6.00;" x="540" y="1137">boolean</text>
<text text-anchor="middle" style="font-size:6.00;" x="488" y="1149">official_malone</text>
<text text-anchor="middle" style="font-size:6.00;" x="540" y="1149">boolean</text>
<text text-anchor="middle" style="font-size:6.00;" x="483" y="1161">bugcontact</text>
<text text-anchor="middle" style="font-size:6.00;" x="538" y="1161">integer</text>
<text text-anchor="middle" style="font-size:6.00;" x="592" y="1161"> REFERENCES person </text>
<polygon style="fill:none;stroke:black;" points="463,1167 463,801 655,801 655,1167 463,1167"/>
</g>
<g id="edge6" class="edge"><title>branch&#45;&gt;product</title>
<path style="fill:none;stroke:black;" d="M830,588C778,664 719,750 669,824"/>
<polygon style="fill:black;stroke:black;" points="672,826 663,832 666,822 672,826"/>
</g>
<g id="node14" class="node"><title>fake_revisionnumber_18</title>
<ellipse cx="806" cy="74" rx="31" ry="18" style="fill:none;stroke:red;"/>
<text text-anchor="middle" style="font-size:6.00;" x="806" y="76">revisionnumber</text>
</g>
<g id="edge2" class="edge"><title>branch&#45;&gt;fake_revisionnumber_18</title>
<path style="fill:none;stroke:black;" d="M874,226C852,177 831,129 818,101"/>
<polygon style="fill:black;stroke:black;" points="815,103 814,92 821,100 815,103"/>
</g>
<g id="node16" class="node"><title>fake_person_20</title>
<ellipse cx="1292" cy="284" rx="27" ry="18" style="fill:none;stroke:red;"/>
<text text-anchor="middle" style="font-size:6.00;" x="1292" y="286">person</text>
</g>
<g id="edge4" class="edge"><title>branch&#45;&gt;fake_person_20</title>
<path style="fill:none;stroke:black;" d="M1095,356C1156,334 1220,310 1258,296"/>
<polygon style="fill:black;stroke:black;" points="1257,293 1268,293 1259,299 1257,293"/>
</g>
<g id="node19" class="node"><title>fake_person_23</title>
<ellipse cx="1003" cy="48" rx="27" ry="18" style="fill:none;stroke:red;"/>
<text text-anchor="middle" style="font-size:6.00;" x="1003" y="50">person</text>
</g>
<g id="edge8" class="edge"><title>branch&#45;&gt;fake_person_23</title>
<path style="fill:none;stroke:black;" d="M979,226C987,167 994,110 999,76"/>
<polygon style="fill:black;stroke:black;" points="996,75 1001,66 1002,76 996,75"/>
</g>
<g id="node22" class="node"><title>fake_revisionnumber_26</title>
<ellipse cx="1180" cy="116" rx="31" ry="18" style="fill:none;stroke:red;"/>
<text text-anchor="middle" style="font-size:6.00;" x="1180" y="118">revisionnumber</text>
</g>
<g id="edge12" class="edge"><title>branch&#45;&gt;fake_revisionnumber_26</title>
<path style="fill:none;stroke:black;" d="M1095,226C1121,193 1145,161 1161,141"/>
<polygon style="fill:black;stroke:black;" points="1158,139 1167,133 1164,143 1158,139"/>
</g>
<g id="node2" class="node"><title>calendar</title>
<polygon style="fill:#c1cdcc;stroke:#c1cdcc;" points="406,1351 406,1297 512,1297 512,1351 406,1351"/>
<polygon style="fill:white;stroke:white;" points="409,1312 409,1300 509,1300 509,1312 409,1312"/>
<text text-anchor="middle" style="font-size:6.00;" x="459" y="1308">calendar</text>
<polygon style="fill:none;stroke:black;" points="409,1312 409,1300 509,1300 509,1312 409,1312"/>
<text text-anchor="middle" style="font-size:6.00;" x="414" y="1321">id</text>
<text text-anchor="middle" style="font-size:6.00;" x="445" y="1321">serial</text>
<text text-anchor="middle" style="font-size:6.00;" x="485" y="1321"> PRIMARY KEY </text>
<text text-anchor="middle" style="font-size:6.00;" x="417" y="1333">title</text>
<text text-anchor="middle" style="font-size:6.00;" x="444" y="1333">text</text>
<text text-anchor="middle" style="font-size:6.00;" x="422" y="1345">revision</text>
<text text-anchor="middle" style="font-size:6.00;" x="447" y="1345">integer</text>
<polygon style="fill:none;stroke:black;" points="406,1351 406,1297 512,1297 512,1351 406,1351"/>
</g>
<g id="edge20" class="edge"><title>product&#45;&gt;calendar</title>
<path style="fill:none;stroke:black;" d="M504,1171C491,1213 480,1254 471,1283"/>
<polygon style="fill:black;stroke:black;" points="474,1284 468,1293 468,1282 474,1284"/>
</g>
<g id="node11" class="node"><title>project</title>
<polygon style="fill:#c1cdcc;stroke:#c1cdcc;" points="309,1643 309,1397 501,1397 501,1643 309,1643"/>
<polygon style="fill:white;stroke:white;" points="312,1412 312,1400 498,1400 498,1412 312,1412"/>
<text text-anchor="middle" style="font-size:6.00;" x="405" y="1408">project</text>
<polygon style="fill:none;stroke:black;" points="312,1412 312,1400 498,1400 498,1412 312,1412"/>
<text text-anchor="middle" style="font-size:6.00;" x="317" y="1421">id</text>
<text text-anchor="middle" style="font-size:6.00;" x="382" y="1421">serial</text>
<text text-anchor="middle" style="font-size:6.00;" x="431" y="1421"> PRIMARY KEY </text>
<text text-anchor="middle" style="font-size:6.00;" x="323" y="1433">owner</text>
<text text-anchor="middle" style="font-size:6.00;" x="384" y="1433">integer</text>
<text text-anchor="middle" style="font-size:6.00;" x="438" y="1433"> REFERENCES person </text>
<text text-anchor="middle" style="font-size:6.00;" x="322" y="1445">name</text>
<text text-anchor="middle" style="font-size:6.00;" x="381" y="1445">text</text>
<text text-anchor="middle" style="font-size:6.00;" x="422" y="1445"> UNIQUE </text>
<text text-anchor="middle" style="font-size:6.00;" x="330" y="1457">displayname</text>
<text text-anchor="middle" style="font-size:6.00;" x="381" y="1457">text</text>
<text text-anchor="middle" style="font-size:6.00;" x="320" y="1469">title</text>
<text text-anchor="middle" style="font-size:6.00;" x="381" y="1469">text</text>
<text text-anchor="middle" style="font-size:6.00;" x="326" y="1481">summary</text>
<text text-anchor="middle" style="font-size:6.00;" x="381" y="1481">text</text>
<text text-anchor="middle" style="font-size:6.00;" x="329" y="1493">description</text>
<text text-anchor="middle" style="font-size:6.00;" x="381" y="1493">text</text>
<text text-anchor="middle" style="font-size:6.00;" x="329" y="1505">datecreated</text>
<text text-anchor="middle" style="font-size:6.00;" x="389" y="1505">timestamp</text>
<text text-anchor="middle" style="font-size:6.00;" x="331" y="1517">homepageurl</text>
<text text-anchor="middle" style="font-size:6.00;" x="381" y="1517">text</text>
<text text-anchor="middle" style="font-size:6.00;" x="324" y="1529">wikiurl</text>
<text text-anchor="middle" style="font-size:6.00;" x="381" y="1529">text</text>
<text text-anchor="middle" style="font-size:6.00;" x="325" y="1541">lastdoap</text>
<text text-anchor="middle" style="font-size:6.00;" x="381" y="1541">text</text>
<text text-anchor="middle" style="font-size:6.00;" x="337" y="1553">sourceforgeproject</text>
<text text-anchor="middle" style="font-size:6.00;" x="381" y="1553">text</text>
<text text-anchor="middle" style="font-size:6.00;" x="335" y="1565">freshmeatproject</text>
<text text-anchor="middle" style="font-size:6.00;" x="381" y="1565">text</text>
<text text-anchor="middle" style="font-size:6.00;" x="326" y="1577">reviewed</text>
<text text-anchor="middle" style="font-size:6.00;" x="386" y="1577">boolean</text>
<text text-anchor="middle" style="font-size:6.00;" x="322" y="1589">active</text>
<text text-anchor="middle" style="font-size:6.00;" x="386" y="1589">boolean</text>
<text text-anchor="middle" style="font-size:6.00;" x="318" y="1601">fti</text>
<text text-anchor="middle" style="font-size:6.00;" x="386" y="1601">tsvector</text>
<text text-anchor="middle" style="font-size:6.00;" x="335" y="1613">translationgroup</text>
<text text-anchor="middle" style="font-size:6.00;" x="384" y="1613">integer</text>
<text text-anchor="middle" style="font-size:6.00;" x="450" y="1613"> REFERENCES translationgroup </text>
<text text-anchor="middle" style="font-size:6.00;" x="341" y="1625">translationpermission</text>
<text text-anchor="middle" style="font-size:6.00;" x="384" y="1625">integer</text>
<text text-anchor="middle" style="font-size:6.00;" x="325" y="1637">calendar</text>
<text text-anchor="middle" style="font-size:6.00;" x="384" y="1637">integer</text>
<text text-anchor="middle" style="font-size:6.00;" x="452" y="1637"> REFERENCES calendar UNIQUE </text>
<polygon style="fill:none;stroke:black;" points="309,1643 309,1397 501,1397 501,1643 309,1643"/>
</g>
<g id="edge14" class="edge"><title>product&#45;&gt;project</title>
<path style="fill:none;stroke:black;" d="M505,1171C485,1240 463,1319 445,1383"/>
<polygon style="fill:black;stroke:black;" points="448,1384 442,1393 442,1382 448,1384"/>
</g>
<g id="node13" class="node"><title>translationgroup</title>
<polygon style="fill:#c1cdcc;stroke:#c1cdcc;" points="645,1456 645,1366 783,1366 783,1456 645,1456"/>
<polygon style="fill:white;stroke:white;" points="648,1381 648,1369 780,1369 780,1381 648,1381"/>
<text text-anchor="middle" style="font-size:6.00;" x="714" y="1377">translationgroup</text>
<polygon style="fill:none;stroke:black;" points="648,1381 648,1369 780,1369 780,1381 648,1381"/>
<text text-anchor="middle" style="font-size:6.00;" x="653" y="1390">id</text>
<text text-anchor="middle" style="font-size:6.00;" x="692" y="1390">serial</text>
<text text-anchor="middle" style="font-size:6.00;" x="741" y="1390"> PRIMARY KEY </text>
<text text-anchor="middle" style="font-size:6.00;" x="658" y="1402">name</text>
<text text-anchor="middle" style="font-size:6.00;" x="691" y="1402">text</text>
<text text-anchor="middle" style="font-size:6.00;" x="732" y="1402"> UNIQUE </text>
<text text-anchor="middle" style="font-size:6.00;" x="656" y="1414">title</text>
<text text-anchor="middle" style="font-size:6.00;" x="691" y="1414">text</text>
<text text-anchor="middle" style="font-size:6.00;" x="662" y="1426">summary</text>
<text text-anchor="middle" style="font-size:6.00;" x="691" y="1426">text</text>
<text text-anchor="middle" style="font-size:6.00;" x="665" y="1438">datecreated</text>
<text text-anchor="middle" style="font-size:6.00;" x="699" y="1438">timestamp</text>
<text text-anchor="middle" style="font-size:6.00;" x="659" y="1450">owner</text>
<text text-anchor="middle" style="font-size:6.00;" x="694" y="1450">integer</text>
<text text-anchor="middle" style="font-size:6.00;" x="748" y="1450"> REFERENCES person </text>
<polygon style="fill:none;stroke:black;" points="645,1456 645,1366 783,1366 783,1456 645,1456"/>
</g>
<g id="edge18" class="edge"><title>product&#45;&gt;translationgroup</title>
<path style="fill:none;stroke:black;" d="M627,1171C651,1236 676,1305 693,1353"/>
<polygon style="fill:black;stroke:black;" points="696,1351 696,1362 690,1354 696,1351"/>
</g>
<g id="node25" class="node"><title>fake_person_234</title>
<ellipse cx="285" cy="1164" rx="27" ry="18" style="fill:none;stroke:red;"/>
<text text-anchor="middle" style="font-size:6.00;" x="285" y="1166">person</text>
</g>
<g id="edge16" class="edge"><title>product&#45;&gt;fake_person_234</title>
<path style="fill:none;stroke:black;" d="M455,1053C404,1086 346,1124 312,1146"/>
<polygon style="fill:black;stroke:black;" points="314,1149 304,1151 311,1143 314,1149"/>
</g>
<g id="node29" class="node"><title>fake_person_238</title>
<ellipse cx="495" cy="650" rx="27" ry="18" style="fill:none;stroke:red;"/>
<text text-anchor="middle" style="font-size:6.00;" x="495" y="652">person</text>
</g>
<g id="edge22" class="edge"><title>product&#45;&gt;fake_person_238</title>
<path style="fill:none;stroke:black;" d="M523,797C514,750 506,706 501,678"/>
<polygon style="fill:black;stroke:black;" points="498,678 499,668 504,677 498,678"/>
</g>
<g id="node4" class="node"><title>productbranchrelationship</title>
<polygon style="fill:#c1cdcc;stroke:#c1cdcc;" points="664,673 664,607 786,607 786,673 664,673"/>
<polygon style="fill:white;stroke:white;" points="667,622 667,610 783,610 783,622 667,622"/>
<text text-anchor="middle" style="font-size:6.00;" x="725" y="618">productbranchrelationship</text>
<polygon style="fill:none;stroke:black;" points="667,622 667,610 783,610 783,622 667,622"/>
<text text-anchor="middle" style="font-size:6.00;" x="672" y="631">id</text>
<text text-anchor="middle" style="font-size:6.00;" x="702" y="631">serial</text>
<text text-anchor="middle" style="font-size:6.00;" x="742" y="631"> PRIMARY KEY </text>
<text text-anchor="middle" style="font-size:6.00;" x="679" y="643">product</text>
<text text-anchor="middle" style="font-size:6.00;" x="704" y="643">integer</text>
<text text-anchor="middle" style="font-size:6.00;" x="750" y="643"> REFERENCES product </text>
<text text-anchor="middle" style="font-size:6.00;" x="678" y="655">branch</text>
<text text-anchor="middle" style="font-size:6.00;" x="704" y="655">integer</text>
<text text-anchor="middle" style="font-size:6.00;" x="749" y="655"> REFERENCES branch </text>
<text text-anchor="middle" style="font-size:6.00;" x="676" y="667">label</text>
<text text-anchor="middle" style="font-size:6.00;" x="704" y="667">integer</text>
<polygon style="fill:none;stroke:black;" points="664,673 664,607 786,607 786,673 664,673"/>
</g>
<g id="edge26" class="edge"><title>productbranchrelationship&#45;&gt;branch</title>
<path style="fill:none;stroke:black;" d="M762,603C774,590 790,574 806,558"/>
<polygon style="fill:black;stroke:black;" points="803,556 813,551 808,561 803,556"/>
</g>
<g id="edge24" class="edge"><title>productbranchrelationship&#45;&gt;product</title>
<path style="fill:none;stroke:black;" d="M707,677C694,705 674,745 653,788"/>
<polygon style="fill:black;stroke:black;" points="656,789 649,797 650,786 656,789"/>
</g>
<g id="node5" class="node"><title>productcvsmodule</title>
<polygon style="fill:#c1cdcc;stroke:#c1cdcc;" points="89,1050 89,972 215,972 215,1050 89,1050"/>
<polygon style="fill:white;stroke:white;" points="92,987 92,975 212,975 212,987 92,987"/>
<text text-anchor="middle" style="font-size:6.00;" x="152" y="983">productcvsmodule</text>
<polygon style="fill:none;stroke:black;" points="92,987 92,975 212,975 212,987 92,987"/>
<text text-anchor="middle" style="font-size:6.00;" x="97" y="996">id</text>
<text text-anchor="middle" style="font-size:6.00;" x="131" y="996">serial</text>
<text text-anchor="middle" style="font-size:6.00;" x="171" y="996"> PRIMARY KEY </text>
<text text-anchor="middle" style="font-size:6.00;" x="104" y="1008">product</text>
<text text-anchor="middle" style="font-size:6.00;" x="133" y="1008">integer</text>
<text text-anchor="middle" style="font-size:6.00;" x="179" y="1008"> REFERENCES product </text>
<text text-anchor="middle" style="font-size:6.00;" x="106" y="1020">anonroot</text>
<text text-anchor="middle" style="font-size:6.00;" x="130" y="1020">text</text>
<text text-anchor="middle" style="font-size:6.00;" x="104" y="1032">module</text>
<text text-anchor="middle" style="font-size:6.00;" x="130" y="1032">text</text>
<text text-anchor="middle" style="font-size:6.00;" x="103" y="1044">weburl</text>
<text text-anchor="middle" style="font-size:6.00;" x="130" y="1044">text</text>
<polygon style="fill:none;stroke:black;" points="89,1050 89,972 215,972 215,1050 89,1050"/>
</g>
<g id="edge28" class="edge"><title>productcvsmodule&#45;&gt;product</title>
<path style="fill:none;stroke:black;" d="M223,1006C284,1002 373,997 445,992"/>
<polygon style="fill:black;stroke:black;" points="445,989 455,991 445,995 445,989"/>
</g>
<g id="node6" class="node"><title>productlabel</title>
<polygon style="fill:#c1cdcc;stroke:#c1cdcc;" points="121,745 121,691 269,691 269,745 121,745"/>
<polygon style="fill:white;stroke:white;" points="124,706 124,694 266,694 266,706 124,706"/>
<text text-anchor="middle" style="font-size:6.00;" x="195" y="702">productlabel</text>
<polygon style="fill:none;stroke:black;" points="124,706 124,694 266,694 266,706 124,706"/>
<text text-anchor="middle" style="font-size:6.00;" x="129" y="715">id</text>
<text text-anchor="middle" style="font-size:6.00;" x="160" y="715">serial</text>
<text text-anchor="middle" style="font-size:6.00;" x="200" y="715"> PRIMARY KEY </text>
<text text-anchor="middle" style="font-size:6.00;" x="136" y="727">product</text>
<text text-anchor="middle" style="font-size:6.00;" x="162" y="727">integer</text>
<text text-anchor="middle" style="font-size:6.00;" x="221" y="727"> REFERENCES product UNIQUE </text>
<text text-anchor="middle" style="font-size:6.00;" x="133" y="739">label</text>
<text text-anchor="middle" style="font-size:6.00;" x="162" y="739">integer</text>
<text text-anchor="middle" style="font-size:6.00;" x="217" y="739"> REFERENCES label UNIQUE </text>
<polygon style="fill:none;stroke:black;" points="121,745 121,691 269,691 269,745 121,745"/>
</g>
<g id="edge30" class="edge"><title>productlabel&#45;&gt;product</title>
<path style="fill:none;stroke:black;" d="M237,749C288,787 376,850 447,902"/>
<polygon style="fill:black;stroke:black;" points="449,899 455,908 445,905 449,899"/>
</g>
<g id="node35" class="node"><title>fake_label_246</title>
<ellipse cx="33" cy="610" rx="27" ry="18" style="fill:none;stroke:red;"/>
<text text-anchor="middle" style="font-size:6.00;" x="33" y="612">label</text>
</g>
<g id="edge32" class="edge"><title>productlabel&#45;&gt;fake_label_246</title>
<path style="fill:none;stroke:black;" d="M148,687C120,668 85,645 60,629"/>
<polygon style="fill:black;stroke:black;" points="58,632 52,623 62,626 58,632"/>
</g>
<g id="node7" class="node"><title>productrelease</title>
<polygon style="fill:#c1cdcc;stroke:#c1cdcc;" points="1414,1300 1414,1150 1598,1150 1598,1300 1414,1300"/>
<polygon style="fill:white;stroke:white;" points="1417,1165 1417,1153 1595,1153 1595,1165 1417,1165"/>
<text text-anchor="middle" style="font-size:6.00;" x="1506" y="1161">productrelease</text>
<polygon style="fill:none;stroke:black;" points="1417,1165 1417,1153 1595,1153 1595,1165 1417,1165"/>
<text text-anchor="middle" style="font-size:6.00;" x="1422" y="1174">id</text>
<text text-anchor="middle" style="font-size:6.00;" x="1466" y="1174">serial</text>
<text text-anchor="middle" style="font-size:6.00;" x="1515" y="1174"> PRIMARY KEY </text>
<text text-anchor="middle" style="font-size:6.00;" x="1435" y="1186">datereleased</text>
<text text-anchor="middle" style="font-size:6.00;" x="1473" y="1186">timestamp</text>
<text text-anchor="middle" style="font-size:6.00;" x="1429" y="1198">version</text>
<text text-anchor="middle" style="font-size:6.00;" x="1465" y="1198">text</text>
<text text-anchor="middle" style="font-size:6.00;" x="1506" y="1198"> UNIQUE </text>
<text text-anchor="middle" style="font-size:6.00;" x="1425" y="1210">title</text>
<text text-anchor="middle" style="font-size:6.00;" x="1465" y="1210">text</text>
<text text-anchor="middle" style="font-size:6.00;" x="1434" y="1222">description</text>
<text text-anchor="middle" style="font-size:6.00;" x="1465" y="1222">text</text>
<text text-anchor="middle" style="font-size:6.00;" x="1433" y="1234">changelog</text>
<text text-anchor="middle" style="font-size:6.00;" x="1465" y="1234">text</text>
<text text-anchor="middle" style="font-size:6.00;" x="1428" y="1246">owner</text>
<text text-anchor="middle" style="font-size:6.00;" x="1468" y="1246">integer</text>
<text text-anchor="middle" style="font-size:6.00;" x="1522" y="1246"> REFERENCES person </text>
<text text-anchor="middle" style="font-size:6.00;" x="1431" y="1258">summary</text>
<text text-anchor="middle" style="font-size:6.00;" x="1465" y="1258">text</text>
<text text-anchor="middle" style="font-size:6.00;" x="1436" y="1270">productseries</text>
<text text-anchor="middle" style="font-size:6.00;" x="1468" y="1270">integer</text>
<text text-anchor="middle" style="font-size:6.00;" x="1543" y="1270"> REFERENCES productseries UNIQUE </text>
<text text-anchor="middle" style="font-size:6.00;" x="1430" y="1282">manifest</text>
<text text-anchor="middle" style="font-size:6.00;" x="1468" y="1282">integer</text>
<text text-anchor="middle" style="font-size:6.00;" x="1524" y="1282"> REFERENCES manifest </text>
<text text-anchor="middle" style="font-size:6.00;" x="1434" y="1294">datecreated</text>
<text text-anchor="middle" style="font-size:6.00;" x="1473" y="1294">timestamp</text>
<polygon style="fill:none;stroke:black;" points="1414,1300 1414,1150 1598,1150 1598,1300 1414,1300"/>
</g>
<g id="node9" class="node"><title>productseries</title>
<polygon style="fill:#c1cdcc;stroke:#c1cdcc;" points="950,1170 950,804 1162,804 1162,1170 950,1170"/>
<polygon style="fill:white;stroke:white;" points="953,819 953,807 1159,807 1159,819 953,819"/>
<text text-anchor="middle" style="font-size:6.00;" x="1056" y="815">productseries</text>
<polygon style="fill:none;stroke:black;" points="953,819 953,807 1159,807 1159,819 953,819"/>
<text text-anchor="middle" style="font-size:6.00;" x="958" y="828">id</text>
<text text-anchor="middle" style="font-size:6.00;" x="1020" y="828">serial</text>
<text text-anchor="middle" style="font-size:6.00;" x="1081" y="828"> PRIMARY KEY UNIQUE </text>
<text text-anchor="middle" style="font-size:6.00;" x="965" y="840">product</text>
<text text-anchor="middle" style="font-size:6.00;" x="1022" y="840">integer</text>
<text text-anchor="middle" style="font-size:6.00;" x="1102" y="840"> REFERENCES product UNIQUE UNIQUE </text>
<text text-anchor="middle" style="font-size:6.00;" x="963" y="852">name</text>
<text text-anchor="middle" style="font-size:6.00;" x="1019" y="852">text</text>
<text text-anchor="middle" style="font-size:6.00;" x="1060" y="852"> UNIQUE </text>
<text text-anchor="middle" style="font-size:6.00;" x="971" y="864">displayname</text>
<text text-anchor="middle" style="font-size:6.00;" x="1019" y="864">text</text>
<text text-anchor="middle" style="font-size:6.00;" x="967" y="876">summary</text>
<text text-anchor="middle" style="font-size:6.00;" x="1019" y="876">text</text>
<text text-anchor="middle" style="font-size:6.00;" x="964" y="888">branch</text>
<text text-anchor="middle" style="font-size:6.00;" x="1022" y="888">integer</text>
<text text-anchor="middle" style="font-size:6.00;" x="1088" y="888"> REFERENCES branch UNIQUE </text>
<text text-anchor="middle" style="font-size:6.00;" x="971" y="900">importstatus</text>
<text text-anchor="middle" style="font-size:6.00;" x="1022" y="900">integer</text>
<text text-anchor="middle" style="font-size:6.00;" x="974" y="912">datelastsynced</text>
<text text-anchor="middle" style="font-size:6.00;" x="1027" y="912">timestamp</text>
<text text-anchor="middle" style="font-size:6.00;" x="970" y="924">syncinterval</text>
<text text-anchor="middle" style="font-size:6.00;" x="1023" y="924">interval</text>
<text text-anchor="middle" style="font-size:6.00;" x="965" y="936">rcstype</text>
<text text-anchor="middle" style="font-size:6.00;" x="1022" y="936">integer</text>
<text text-anchor="middle" style="font-size:6.00;" x="965" y="948">cvsroot</text>
<text text-anchor="middle" style="font-size:6.00;" x="1019" y="948">text</text>
<text text-anchor="middle" style="font-size:6.00;" x="1060" y="948"> UNIQUE </text>
<text text-anchor="middle" style="font-size:6.00;" x="969" y="960">cvsmodule</text>
<text text-anchor="middle" style="font-size:6.00;" x="1019" y="960">text</text>
<text text-anchor="middle" style="font-size:6.00;" x="1060" y="960"> UNIQUE </text>
<text text-anchor="middle" style="font-size:6.00;" x="968" y="972">cvsbranch</text>
<text text-anchor="middle" style="font-size:6.00;" x="1019" y="972">text</text>
<text text-anchor="middle" style="font-size:6.00;" x="1060" y="972"> UNIQUE </text>
<text text-anchor="middle" style="font-size:6.00;" x="970" y="984">cvstarfileurl</text>
<text text-anchor="middle" style="font-size:6.00;" x="1019" y="984">text</text>
<text text-anchor="middle" style="font-size:6.00;" x="972" y="996">svnrepository</text>
<text text-anchor="middle" style="font-size:6.00;" x="1019" y="996">text</text>
<text text-anchor="middle" style="font-size:6.00;" x="1060" y="996"> UNIQUE </text>
<text text-anchor="middle" style="font-size:6.00;" x="972" y="1008">bkrepository</text>
<text text-anchor="middle" style="font-size:6.00;" x="1019" y="1008">text</text>
<text text-anchor="middle" style="font-size:6.00;" x="1060" y="1008"> UNIQUE </text>
<text text-anchor="middle" style="font-size:6.00;" x="969" y="1020">releaseroot</text>
<text text-anchor="middle" style="font-size:6.00;" x="1019" y="1020">text</text>
<text text-anchor="middle" style="font-size:6.00;" x="974" y="1032">releasefileglob</text>
<text text-anchor="middle" style="font-size:6.00;" x="1019" y="1032">text</text>
<text text-anchor="middle" style="font-size:6.00;" x="974" y="1044">releaseverstyle</text>
<text text-anchor="middle" style="font-size:6.00;" x="1022" y="1044">integer</text>
<text text-anchor="middle" style="font-size:6.00;" x="977" y="1056">targetarcharchive</text>
<text text-anchor="middle" style="font-size:6.00;" x="1019" y="1056">text</text>
<text text-anchor="middle" style="font-size:6.00;" x="1060" y="1056"> UNIQUE </text>
<text text-anchor="middle" style="font-size:6.00;" x="979" y="1068">targetarchcategory</text>
<text text-anchor="middle" style="font-size:6.00;" x="1019" y="1068">text</text>
<text text-anchor="middle" style="font-size:6.00;" x="1060" y="1068"> UNIQUE </text>
<text text-anchor="middle" style="font-size:6.00;" x="976" y="1080">targetarchbranch</text>
<text text-anchor="middle" style="font-size:6.00;" x="1019" y="1080">text</text>
<text text-anchor="middle" style="font-size:6.00;" x="1060" y="1080"> UNIQUE </text>
<text text-anchor="middle" style="font-size:6.00;" x="977" y="1092">targetarchversion</text>
<text text-anchor="middle" style="font-size:6.00;" x="1019" y="1092">text</text>
<text text-anchor="middle" style="font-size:6.00;" x="1060" y="1092"> UNIQUE </text>
<text text-anchor="middle" style="font-size:6.00;" x="973" y="1104">dateautotested</text>
<text text-anchor="middle" style="font-size:6.00;" x="1027" y="1104">timestamp</text>
<text text-anchor="middle" style="font-size:6.00;" x="981" y="1116">dateprocessapproved</text>
<text text-anchor="middle" style="font-size:6.00;" x="1027" y="1116">timestamp</text>
<text text-anchor="middle" style="font-size:6.00;" x="978" y="1128">datesyncapproved</text>
<text text-anchor="middle" style="font-size:6.00;" x="1027" y="1128">timestamp</text>
<text text-anchor="middle" style="font-size:6.00;" x="969" y="1140">datestarted</text>
<text text-anchor="middle" style="font-size:6.00;" x="1027" y="1140">timestamp</text>
<text text-anchor="middle" style="font-size:6.00;" x="971" y="1152">datefinished</text>
<text text-anchor="middle" style="font-size:6.00;" x="1027" y="1152">timestamp</text>
<text text-anchor="middle" style="font-size:6.00;" x="970" y="1164">datecreated</text>
<text text-anchor="middle" style="font-size:6.00;" x="1027" y="1164">timestamp</text>
<polygon style="fill:none;stroke:black;" points="950,1170 950,804 1162,804 1162,1170 950,1170"/>
</g>
<g id="edge36" class="edge"><title>productrelease&#45;&gt;productseries</title>
<path style="fill:none;stroke:black;" d="M1406,1172C1339,1137 1251,1090 1179,1052"/>
<polygon style="fill:black;stroke:black;" points="1177,1055 1170,1047 1180,1049 1177,1055"/>
</g>
<g id="node37" class="node"><title>fake_person_248</title>
<ellipse cx="1694" cy="1349" rx="27" ry="18" style="fill:none;stroke:red;"/>
<text text-anchor="middle" style="font-size:6.00;" x="1694" y="1351">person</text>
</g>
<g id="edge34" class="edge"><title>productrelease&#45;&gt;fake_person_248</title>
<path style="fill:none;stroke:black;" d="M1606,1291C1628,1305 1649,1319 1665,1330"/>
<polygon style="fill:black;stroke:black;" points="1668,1328 1674,1336 1664,1333 1668,1328"/>
</g>
<g id="node40" class="node"><title>fake_manifest_251</title>
<ellipse cx="1543" cy="1459" rx="27" ry="18" style="fill:none;stroke:red;"/>
<text text-anchor="middle" style="font-size:6.00;" x="1543" y="1461">manifest</text>
</g>
<g id="edge38" class="edge"><title>productrelease&#45;&gt;fake_manifest_251</title>
<path style="fill:none;stroke:black;" d="M1519,1304C1525,1348 1533,1400 1538,1431"/>
<polygon style="fill:black;stroke:black;" points="1541,1431 1540,1441 1535,1432 1541,1431"/>
</g>
<g id="node8" class="node"><title>productreleasefile</title>
<polygon style="fill:#c1cdcc;stroke:#c1cdcc;" points="1746,1216 1746,1150 1902,1150 1902,1216 1746,1216"/>
<polygon style="fill:white;stroke:white;" points="1749,1165 1749,1153 1899,1153 1899,1165 1749,1165"/>
<text text-anchor="middle" style="font-size:6.00;" x="1824" y="1161">productreleasefile</text>
<polygon style="fill:none;stroke:black;" points="1749,1165 1749,1153 1899,1153 1899,1165 1749,1165"/>
<text text-anchor="middle" style="font-size:6.00;" x="1770" y="1174">productrelease</text>
<text text-anchor="middle" style="font-size:6.00;" x="1803" y="1174">integer</text>
<text text-anchor="middle" style="font-size:6.00;" x="1858" y="1174"> REFERENCES productrelease </text>
<text text-anchor="middle" style="font-size:6.00;" x="1764" y="1186">libraryfile</text>
<text text-anchor="middle" style="font-size:6.00;" x="1803" y="1186">integer</text>
<text text-anchor="middle" style="font-size:6.00;" x="1858" y="1186"> REFERENCES libraryfilealias </text>
<text text-anchor="middle" style="font-size:6.00;" x="1761" y="1198">filetype</text>
<text text-anchor="middle" style="font-size:6.00;" x="1803" y="1198">integer</text>
<text text-anchor="middle" style="font-size:6.00;" x="1754" y="1210">id</text>
<text text-anchor="middle" style="font-size:6.00;" x="1803" y="1210">integer</text>
<text text-anchor="middle" style="font-size:6.00;" x="1841" y="1210"> PRIMARY KEY </text>
<polygon style="fill:none;stroke:black;" points="1746,1216 1746,1150 1902,1150 1902,1216 1746,1216"/>
</g>
<g id="edge40" class="edge"><title>productreleasefile&#45;&gt;productrelease</title>
<path style="fill:none;stroke:black;" d="M1738,1194C1700,1200 1656,1205 1616,1211"/>
<polygon style="fill:black;stroke:black;" points="1616,1214 1606,1212 1616,1208 1616,1214"/>
</g>
<g id="node43" class="node"><title>fake_libraryfilealias_254</title>
<ellipse cx="2005" cy="1221" rx="29" ry="18" style="fill:none;stroke:red;"/>
<text text-anchor="middle" style="font-size:6.00;" x="2005" y="1223">libraryfilealias</text>
</g>
<g id="edge42" class="edge"><title>productreleasefile&#45;&gt;fake_libraryfilealias_254</title>
<path style="fill:none;stroke:black;" d="M1910,1201C1930,1205 1950,1209 1967,1213"/>
<polygon style="fill:black;stroke:black;" points="1968,1210 1977,1215 1967,1216 1968,1210"/>
</g>
<g id="edge46" class="edge"><title>productseries&#45;&gt;branch</title>
<path style="fill:none;stroke:black;" d="M1023,800C1012,735 999,662 988,598"/>
<polygon style="fill:black;stroke:black;" points="985,598 986,588 991,597 985,598"/>
</g>
<g id="edge44" class="edge"><title>productseries&#45;&gt;product</title>
<path style="fill:none;stroke:black;" d="M942,986C861,985 754,985 673,984"/>
<polygon style="fill:black;stroke:black;" points="673,987 663,984 673,980 673,987"/>
</g>
<g id="node10" class="node"><title>productsvnmodule</title>
<polygon style="fill:#c1cdcc;stroke:#c1cdcc;" points="299,875 299,809 429,809 429,875 299,875"/>
<polygon style="fill:white;stroke:white;" points="302,824 302,812 426,812 426,824 302,824"/>
<text text-anchor="middle" style="font-size:6.00;" x="364" y="820">productsvnmodule</text>
<polygon style="fill:none;stroke:black;" points="302,824 302,812 426,812 426,824 302,824"/>
<text text-anchor="middle" style="font-size:6.00;" x="307" y="833">id</text>
<text text-anchor="middle" style="font-size:6.00;" x="345" y="833">serial</text>
<text text-anchor="middle" style="font-size:6.00;" x="385" y="833"> PRIMARY KEY </text>
<text text-anchor="middle" style="font-size:6.00;" x="314" y="845">product</text>
<text text-anchor="middle" style="font-size:6.00;" x="347" y="845">integer</text>
<text text-anchor="middle" style="font-size:6.00;" x="393" y="845"> REFERENCES product </text>
<text text-anchor="middle" style="font-size:6.00;" x="318" y="857">locationurl</text>
<text text-anchor="middle" style="font-size:6.00;" x="344" y="857">text</text>
<text text-anchor="middle" style="font-size:6.00;" x="313" y="869">weburl</text>
<text text-anchor="middle" style="font-size:6.00;" x="344" y="869">text</text>
<polygon style="fill:none;stroke:black;" points="299,875 299,809 429,809 429,875 299,875"/>
</g>
<g id="edge48" class="edge"><title>productsvnmodule&#45;&gt;product</title>
<path style="fill:none;stroke:black;" d="M415,879C425,886 436,894 447,902"/>
<polygon style="fill:black;stroke:black;" points="449,899 455,908 445,905 449,899"/>
</g>
<g id="edge54" class="edge"><title>project&#45;&gt;calendar</title>
<path style="fill:none;stroke:black;" d="M440,1393C443,1383 445,1373 447,1365"/>
<polygon style="fill:black;stroke:black;" points="444,1364 450,1355 450,1366 444,1364"/>
</g>
<g id="edge52" class="edge"><title>project&#45;&gt;translationgroup</title>
<path style="fill:none;stroke:black;" d="M509,1483C548,1470 590,1455 627,1442"/>
<polygon style="fill:black;stroke:black;" points="626,1438 637,1438 629,1445 626,1438"/>
</g>
<g id="node48" class="node"><title>fake_person_259</title>
<ellipse cx="374" cy="1819" rx="27" ry="18" style="fill:none;stroke:red;"/>
<text text-anchor="middle" style="font-size:6.00;" x="374" y="1821">person</text>
</g>
<g id="edge50" class="edge"><title>project&#45;&gt;fake_person_259</title>
<path style="fill:none;stroke:black;" d="M392,1647C386,1701 380,1758 377,1791"/>
<polygon style="fill:black;stroke:black;" points="380,1791 376,1801 374,1791 380,1791"/>
</g>
<g id="node12" class="node"><title>projectrelationship</title>
<polygon style="fill:#c1cdcc;stroke:#c1cdcc;" points="89,1791 89,1725 207,1725 207,1791 89,1791"/>
<polygon style="fill:white;stroke:white;" points="92,1740 92,1728 204,1728 204,1740 92,1740"/>
<text text-anchor="middle" style="font-size:6.00;" x="148" y="1736">projectrelationship</text>
<polygon style="fill:none;stroke:black;" points="92,1740 92,1728 204,1728 204,1740 92,1740"/>
<text text-anchor="middle" style="font-size:6.00;" x="97" y="1749">id</text>
<text text-anchor="middle" style="font-size:6.00;" x="125" y="1749">serial</text>
<text text-anchor="middle" style="font-size:6.00;" x="165" y="1749"> PRIMARY KEY </text>
<text text-anchor="middle" style="font-size:6.00;" x="103" y="1761">subject</text>
<text text-anchor="middle" style="font-size:6.00;" x="127" y="1761">integer</text>
<text text-anchor="middle" style="font-size:6.00;" x="172" y="1761"> REFERENCES project </text>
<text text-anchor="middle" style="font-size:6.00;" x="101" y="1773">label</text>
<text text-anchor="middle" style="font-size:6.00;" x="127" y="1773">integer</text>
<text text-anchor="middle" style="font-size:6.00;" x="103" y="1785">object</text>
<text text-anchor="middle" style="font-size:6.00;" x="127" y="1785">integer</text>
<text text-anchor="middle" style="font-size:6.00;" x="172" y="1785"> REFERENCES project </text>
<polygon style="fill:none;stroke:black;" points="89,1791 89,1725 207,1725 207,1791 89,1791"/>
</g>
<g id="edge56" class="edge"><title>projectrelationship&#45;&gt;project</title>
<path style="fill:none;stroke:black;" d="M181,1721C209,1693 253,1652 294,1614"/>
<polygon style="fill:black;stroke:black;" points="291,1612 301,1607 296,1617 291,1612"/>
</g>
<g id="edge58" class="edge"><title>projectrelationship&#45;&gt;project</title>
<path style="fill:none;stroke:black;" d="M195,1721C223,1697 259,1664 294,1632"/>
<polygon style="fill:black;stroke:black;" points="291,1630 301,1625 296,1635 291,1630"/>
</g>
<g id="node54" class="node"><title>fake_person_364</title>
<ellipse cx="816" cy="1598" rx="27" ry="18" style="fill:none;stroke:red;"/>
<text text-anchor="middle" style="font-size:6.00;" x="816" y="1600">person</text>
</g>
<g id="edge60" class="edge"><title>translationgroup&#45;&gt;fake_person_364</title>
<path style="fill:none;stroke:black;" d="M741,1460C761,1496 786,1543 802,1572"/>
<polygon style="fill:black;stroke:black;" points="805,1571 807,1581 799,1574 805,1571"/>
</g>
</g>
</svg>
