<?xml version="1.0" encoding="UTF-8" standalone="no"?>
<!DOCTYPE svg PUBLIC "-//W3C//DTD SVG 1.0//EN"
 "http://www.w3.org/TR/2001/REC-SVG-20010904/DTD/svg10.dtd">
<!-- Generated by fdp version 2.2.1 (Thu Apr  6 00:32:47 UTC 2006)
     For user: (stub) Stuart Bishop,,,   Title: g    Pages: 1 -->
<svg width="479px" height="185px"
 viewBox = "-1 -1 478 184"
 xmlns="http://www.w3.org/2000/svg">
<g id="graph0" class="graph" style="font-family:Times-Roman;font-size:14.00;">
<title>g</title>
<text text-anchor="middle" style="font-size:22.00;" x="238" y="167">Session</text>
<g id="node1" class="node"><title>secret</title>
<polygon style="fill:#c1cdcc;stroke:#c1cdcc;" points="280,43 280,9 336,9 336,43 280,43"/>
<polygon style="fill:white;stroke:white;" points="283,26 283,12 333,12 333,26 283,26"/>
<text text-anchor="middle" style="font-size:8.00;" x="308" y="22">secret</text>
<polygon style="fill:none;stroke:black;" points="283,26 283,12 333,12 333,26 283,26"/>
<text text-anchor="middle" style="font-size:8.00;" x="295" y="37">secret</text>
<text text-anchor="middle" style="font-size:8.00;" x="318" y="37">text</text>
<polygon style="fill:none;stroke:black;" points="280,43 280,9 336,9 336,43 280,43"/>
</g>
<g id="node2" class="node"><title>sessiondata</title>
<polygon style="fill:#c1cdcc;stroke:#c1cdcc;" points="14,95 14,33 226,33 226,95 14,95"/>
<polygon style="fill:white;stroke:white;" points="17,50 17,36 223,36 223,50 17,50"/>
<text text-anchor="middle" style="font-size:8.00;" x="120" y="46">sessiondata</text>
<polygon style="fill:none;stroke:black;" points="17,50 17,36 223,36 223,50 17,50"/>
<text text-anchor="middle" style="font-size:8.00;" x="34" y="61">client_id</text>
<text text-anchor="middle" style="font-size:8.00;" x="78" y="61">text</text>
<text text-anchor="middle" style="font-size:8.00;" x="191" y="61"> PRIMARY KEY </text>
<text text-anchor="middle" style="font-size:8.00;" x="31" y="75">created</text>
<text text-anchor="middle" style="font-size:8.00;" x="113" y="75">timestamp with time zone</text>
<text text-anchor="middle" style="font-size:8.00;" x="42" y="89">last_accessed</text>
<text text-anchor="middle" style="font-size:8.00;" x="113" y="89">timestamp with time zone</text>
<polygon style="fill:none;stroke:black;" points="14,95 14,33 226,33 226,95 14,95"/>
</g>
<g id="node3" class="node"><title>sessionpkgdata</title>
<polygon style="fill:#c1cdcc;stroke:#c1cdcc;" points="259,138 259,62 463,62 463,138 259,138"/>
<polygon style="fill:white;stroke:white;" points="262,79 262,65 460,65 460,79 262,79"/>
<text text-anchor="middle" style="font-size:8.00;" x="361" y="75">sessionpkgdata</text>
<polygon style="fill:none;stroke:black;" points="262,79 262,65 460,65 460,79 262,79"/>
<text text-anchor="middle" style="font-size:8.00;" x="279" y="90">client_id</text>
<text text-anchor="middle" style="font-size:8.00;" x="314" y="90">text</text>
<text text-anchor="middle" style="font-size:8.00;" x="395" y="90"> UNIQUE REFERENCES sessiondata </text>
<text text-anchor="middle" style="font-size:8.00;" x="283" y="104">product_id</text>
<text text-anchor="middle" style="font-size:8.00;" x="314" y="104">text</text>
<text text-anchor="middle" style="font-size:8.00;" x="350" y="104"> UNIQUE </text>
<text text-anchor="middle" style="font-size:8.00;" x="271" y="118">key</text>
<text text-anchor="middle" style="font-size:8.00;" x="314" y="118">text</text>
<text text-anchor="middle" style="font-size:8.00;" x="350" y="118"> UNIQUE </text>
<text text-anchor="middle" style="font-size:8.00;" x="275" y="132">pickle</text>
<text text-anchor="middle" style="font-size:8.00;" x="317" y="132">bytea</text>
<polygon style="fill:none;stroke:black;" points="259,138 259,62 463,62 463,138 259,138"/>
</g>
<g id="edge2" class="edge"><title>sessionpkgdata&#45;&gt;sessiondata</title>
<path style="fill:none;stroke:black;" d="M251,84C249,84 246,83 244,83"/>
<polygon style="fill:black;stroke:black;" points="243,86 234,81 244,80 243,86"/>
</g>
</g>
</svg>
