<?xml version="1.0" encoding="UTF-8" standalone="no"?>
<!DOCTYPE svg PUBLIC "-//W3C//DTD SVG 1.0//EN"
 "http://www.w3.org/TR/2001/REC-SVG-20010904/DTD/svg10.dtd">
<!-- Generated by fdp version 2.2.1 (Thu Apr 14 05:40:09 UTC 2005)
     For user: (stub) Stuart Bishop,,,   Title: g    Pages: 1 -->
<svg width="518px" height="486px"
 viewBox = "-1 -1 517 485"
 xmlns="http://www.w3.org/2000/svg">
<g id="graph0" class="graph" style="font-family:Times-Roman;font-size:14.00;">
<title>g</title>
<text text-anchor="middle" style="font-size:22.00;" x="258" y="468">Shipit</text>
<g id="node1" class="node"><title>requestedcds</title>
<polygon style="fill:#c1cdcc;stroke:#c1cdcc;" points="14,436 14,334 182,334 182,436 14,436"/>
<polygon style="fill:white;stroke:white;" points="17,349 17,337 179,337 179,349 17,349"/>
<text text-anchor="middle" style="font-size:6.00;" x="98" y="345">requestedcds</text>
<polygon style="fill:none;stroke:black;" points="17,349 17,337 179,337 179,349 17,349"/>
<text text-anchor="middle" style="font-size:6.00;" x="22" y="358">id</text>
<text text-anchor="middle" style="font-size:6.00;" x="77" y="358">serial</text>
<text text-anchor="middle" style="font-size:6.00;" x="117" y="358"> PRIMARY KEY </text>
<text text-anchor="middle" style="font-size:6.00;" x="29" y="370">request</text>
<text text-anchor="middle" style="font-size:6.00;" x="79" y="370">integer</text>
<text text-anchor="middle" style="font-size:6.00;" x="136" y="370"> REFERENCES shippingrequest </text>
<text text-anchor="middle" style="font-size:6.00;" x="30" y="382">quantity</text>
<text text-anchor="middle" style="font-size:6.00;" x="79" y="382">integer</text>
<text text-anchor="middle" style="font-size:6.00;" x="29" y="394">flavour</text>
<text text-anchor="middle" style="font-size:6.00;" x="79" y="394">integer</text>
<text text-anchor="middle" style="font-size:6.00;" x="35" y="406">distrorelease</text>
<text text-anchor="middle" style="font-size:6.00;" x="79" y="406">integer</text>
<text text-anchor="middle" style="font-size:6.00;" x="34" y="418">architecture</text>
<text text-anchor="middle" style="font-size:6.00;" x="79" y="418">integer</text>
<text text-anchor="middle" style="font-size:6.00;" x="41" y="430">quantityapproved</text>
<text text-anchor="middle" style="font-size:6.00;" x="79" y="430">integer</text>
<polygon style="fill:none;stroke:black;" points="14,436 14,334 182,334 182,436 14,436"/>
</g>
<g id="node3" class="node"><title>shippingrequest</title>
<polygon style="fill:#c1cdcc;stroke:#c1cdcc;" points="198,309 198,159 348,159 348,309 198,309"/>
<polygon style="fill:white;stroke:white;" points="201,174 201,162 345,162 345,174 201,174"/>
<text text-anchor="middle" style="font-size:6.00;" x="273" y="170">shippingrequest</text>
<polygon style="fill:none;stroke:black;" points="201,174 201,162 345,162 345,174 201,174"/>
<text text-anchor="middle" style="font-size:6.00;" x="206" y="183">id</text>
<text text-anchor="middle" style="font-size:6.00;" x="251" y="183">serial</text>
<text text-anchor="middle" style="font-size:6.00;" x="300" y="183"> PRIMARY KEY </text>
<text text-anchor="middle" style="font-size:6.00;" x="215" y="195">recipient</text>
<text text-anchor="middle" style="font-size:6.00;" x="253" y="195">integer</text>
<text text-anchor="middle" style="font-size:6.00;" x="307" y="195"> REFERENCES person </text>
<text text-anchor="middle" style="font-size:6.00;" x="215" y="207">shipment</text>
<text text-anchor="middle" style="font-size:6.00;" x="253" y="207">integer</text>
<text text-anchor="middle" style="font-size:6.00;" x="310" y="207"> REFERENCES shipment </text>
<text text-anchor="middle" style="font-size:6.00;" x="221" y="219">whoapproved</text>
<text text-anchor="middle" style="font-size:6.00;" x="253" y="219">integer</text>
<text text-anchor="middle" style="font-size:6.00;" x="307" y="219"> REFERENCES person </text>
<text text-anchor="middle" style="font-size:6.00;" x="215" y="231">cancelled</text>
<text text-anchor="middle" style="font-size:6.00;" x="255" y="231">boolean</text>
<text text-anchor="middle" style="font-size:6.00;" x="221" y="243">whocancelled</text>
<text text-anchor="middle" style="font-size:6.00;" x="253" y="243">integer</text>
<text text-anchor="middle" style="font-size:6.00;" x="307" y="243"> REFERENCES person </text>
<text text-anchor="middle" style="font-size:6.00;" x="221" y="255">daterequested</text>
<text text-anchor="middle" style="font-size:6.00;" x="258" y="255">timestamp</text>
<text text-anchor="middle" style="font-size:6.00;" x="215" y="267">approved</text>
<text text-anchor="middle" style="font-size:6.00;" x="255" y="267">boolean</text>
<text text-anchor="middle" style="font-size:6.00;" x="220" y="279">shockandawe</text>
<text text-anchor="middle" style="font-size:6.00;" x="253" y="279">integer</text>
<text text-anchor="middle" style="font-size:6.00;" x="212" y="291">reason</text>
<text text-anchor="middle" style="font-size:6.00;" x="250" y="291">text</text>
<text text-anchor="middle" style="font-size:6.00;" x="219" y="303">highpriority</text>
<text text-anchor="middle" style="font-size:6.00;" x="255" y="303">boolean</text>
<polygon style="fill:none;stroke:black;" points="198,309 198,159 348,159 348,309 198,309"/>
</g>
<g id="edge2" class="edge"><title>requestedcds&#45;&gt;shippingrequest</title>
<path style="fill:none;stroke:black;" d="M162,330C168,324 175,318 182,313"/>
<polygon style="fill:black;stroke:black;" points="180,310 190,306 185,315 180,310"/>
</g>
<g id="node2" class="node"><title>shipment</title>
<polygon style="fill:#c1cdcc;stroke:#c1cdcc;" points="264,439 264,349 398,349 398,439 264,439"/>
<polygon style="fill:white;stroke:white;" points="267,364 267,352 395,352 395,364 267,364"/>
<text text-anchor="middle" style="font-size:6.00;" x="331" y="360">shipment</text>
<polygon style="fill:none;stroke:black;" points="267,364 267,352 395,352 395,364 267,364"/>
<text text-anchor="middle" style="font-size:6.00;" x="272" y="373">id</text>
<text text-anchor="middle" style="font-size:6.00;" x="322" y="373">serial</text>
<text text-anchor="middle" style="font-size:6.00;" x="371" y="373"> PRIMARY KEY </text>
<text text-anchor="middle" style="font-size:6.00;" x="283" y="385">logintoken</text>
<text text-anchor="middle" style="font-size:6.00;" x="321" y="385">text</text>
<text text-anchor="middle" style="font-size:6.00;" x="362" y="385"> UNIQUE </text>
<text text-anchor="middle" style="font-size:6.00;" x="284" y="397">shippingrun</text>
<text text-anchor="middle" style="font-size:6.00;" x="324" y="397">integer</text>
<text text-anchor="middle" style="font-size:6.00;" x="285" y="409">dateshipped</text>
<text text-anchor="middle" style="font-size:6.00;" x="329" y="409">timestamp</text>
<text text-anchor="middle" style="font-size:6.00;" x="289" y="421">shippingservice</text>
<text text-anchor="middle" style="font-size:6.00;" x="324" y="421">integer</text>
<text text-anchor="middle" style="font-size:6.00;" x="286" y="433">trackingcode</text>
<text text-anchor="middle" style="font-size:6.00;" x="321" y="433">text</text>
<polygon style="fill:none;stroke:black;" points="264,439 264,349 398,349 398,439 264,439"/>
</g>
<g id="edge6" class="edge"><title>shippingrequest&#45;&gt;shipment</title>
<path style="fill:none;stroke:black;" d="M302,313C305,321 308,328 310,335"/>
<polygon style="fill:black;stroke:black;" points="313,334 313,345 307,336 313,334"/>
</g>
<g id="node8" class="node"><title>fake_person_268</title>
<ellipse cx="102" cy="169" rx="27" ry="18" style="fill:none;stroke:red;"/>
<text text-anchor="middle" style="font-size:6.00;" x="102" y="171">person</text>
</g>
<g id="edge4" class="edge"><title>shippingrequest&#45;&gt;fake_person_268</title>
<path style="fill:none;stroke:black;" d="M190,202C170,195 151,187 136,182"/>
<polygon style="fill:black;stroke:black;" points="134,185 126,178 137,178 134,185"/>
</g>
<g id="node11" class="node"><title>fake_person_271</title>
<ellipse cx="449" cy="224" rx="27" ry="18" style="fill:none;stroke:red;"/>
<text text-anchor="middle" style="font-size:6.00;" x="449" y="226">person</text>
</g>
<g id="edge8" class="edge"><title>shippingrequest&#45;&gt;fake_person_271</title>
<path style="fill:none;stroke:black;" d="M356,229C376,228 395,227 412,227"/>
<polygon style="fill:black;stroke:black;" points="412,224 422,226 412,230 412,224"/>
</g>
<g id="node13" class="node"><title>fake_person_273</title>
<ellipse cx="287" cy="59" rx="27" ry="18" style="fill:none;stroke:red;"/>
<text text-anchor="middle" style="font-size:6.00;" x="287" y="61">person</text>
</g>
<g id="edge10" class="edge"><title>shippingrequest&#45;&gt;fake_person_273</title>
<path style="fill:none;stroke:black;" d="M279,155C282,131 283,106 285,87"/>
<polygon style="fill:black;stroke:black;" points="282,87 286,77 288,87 282,87"/>
</g>
<g id="node4" class="node"><title>shippingrun</title>
<polygon style="fill:#c1cdcc;stroke:#c1cdcc;" points="378,335 378,293 502,293 502,335 378,335"/>
<polygon style="fill:white;stroke:white;" points="381,308 381,296 499,296 499,308 381,308"/>
<text text-anchor="middle" style="font-size:6.00;" x="440" y="304">shippingrun</text>
<polygon style="fill:none;stroke:black;" points="381,308 381,296 499,296 499,308 381,308"/>
<text text-anchor="middle" style="font-size:6.00;" x="386" y="317">id</text>
<text text-anchor="middle" style="font-size:6.00;" x="426" y="317">serial</text>
<text text-anchor="middle" style="font-size:6.00;" x="475" y="317"> PRIMARY KEY </text>
<text text-anchor="middle" style="font-size:6.00;" x="398" y="329">datecreated</text>
<text text-anchor="middle" style="font-size:6.00;" x="433" y="329">timestamp</text>
<polygon style="fill:none;stroke:black;" points="378,335 378,293 502,293 502,335 378,335"/>
</g>
<g id="node5" class="node"><title>shockandawe</title>
<polygon style="fill:#c1cdcc;stroke:#c1cdcc;" points="92,75 92,9 202,9 202,75 92,75"/>
<polygon style="fill:white;stroke:white;" points="95,24 95,12 199,12 199,24 95,24"/>
<text text-anchor="middle" style="font-size:6.00;" x="147" y="20">shockandawe</text>
<polygon style="fill:none;stroke:black;" points="95,24 95,12 199,12 199,24 95,24"/>
<text text-anchor="middle" style="font-size:6.00;" x="100" y="33">id</text>
<text text-anchor="middle" style="font-size:6.00;" x="139" y="33">serial</text>
<text text-anchor="middle" style="font-size:6.00;" x="175" y="33"> PRIMARY KEY </text>
<text text-anchor="middle" style="font-size:6.00;" x="105" y="45">name</text>
<text text-anchor="middle" style="font-size:6.00;" x="138" y="45">text</text>
<text text-anchor="middle" style="font-size:6.00;" x="103" y="57">title</text>
<text text-anchor="middle" style="font-size:6.00;" x="138" y="57">text</text>
<text text-anchor="middle" style="font-size:6.00;" x="112" y="69">description</text>
<text text-anchor="middle" style="font-size:6.00;" x="138" y="69">text</text>
<polygon style="fill:none;stroke:black;" points="92,75 92,9 202,9 202,75 92,75"/>
</g>
<g id="node6" class="node"><title>standardshipitrequest</title>
<polygon style="fill:#c1cdcc;stroke:#c1cdcc;" points="352,127 352,37 478,37 478,127 352,127"/>
<polygon style="fill:white;stroke:white;" points="355,52 355,40 475,40 475,52 355,52"/>
<text text-anchor="middle" style="font-size:6.00;" x="415" y="48">standardshipitrequest</text>
<polygon style="fill:none;stroke:black;" points="355,52 355,40 475,40 475,52 355,52"/>
<text text-anchor="middle" style="font-size:6.00;" x="360" y="61">id</text>
<text text-anchor="middle" style="font-size:6.00;" x="408" y="61">serial</text>
<text text-anchor="middle" style="font-size:6.00;" x="451" y="61"> PRIMARY KEY </text>
<text text-anchor="middle" style="font-size:6.00;" x="373" y="73">quantityx86</text>
<text text-anchor="middle" style="font-size:6.00;" x="410" y="73">integer</text>
<text text-anchor="middle" style="font-size:6.00;" x="442" y="73"> UNIQUE </text>
<text text-anchor="middle" style="font-size:6.00;" x="373" y="85">quantityppc</text>
<text text-anchor="middle" style="font-size:6.00;" x="410" y="85">integer</text>
<text text-anchor="middle" style="font-size:6.00;" x="442" y="85"> UNIQUE </text>
<text text-anchor="middle" style="font-size:6.00;" x="376" y="97">quantityamd64</text>
<text text-anchor="middle" style="font-size:6.00;" x="410" y="97">integer</text>
<text text-anchor="middle" style="font-size:6.00;" x="442" y="97"> UNIQUE </text>
<text text-anchor="middle" style="font-size:6.00;" x="372" y="109">description</text>
<text text-anchor="middle" style="font-size:6.00;" x="407" y="109">text</text>
<text text-anchor="middle" style="font-size:6.00;" x="368" y="121">isdefault</text>
<text text-anchor="middle" style="font-size:6.00;" x="412" y="121">boolean</text>
<polygon style="fill:none;stroke:black;" points="352,127 352,37 478,37 478,127 352,127"/>
</g>
</g>
</svg>
