<?xml version="1.0" encoding="UTF-8" standalone="no"?>
<!DOCTYPE svg PUBLIC "-//W3C//DTD SVG 1.0//EN"
 "http://www.w3.org/TR/2001/REC-SVG-20010904/DTD/svg10.dtd">
<!-- Generated by fdp version 2.2.1 (Thu Apr 14 05:40:09 UTC 2005)
     For user: (stub) Stuart Bishop,,,   Title: g    Pages: 1 -->
<svg width="523px" height="535px"
 viewBox = "-1 -1 522 534"
 xmlns="http://www.w3.org/2000/svg">
<g id="graph0" class="graph" transform = "scale(0.555792)"
 style="font-family:Times-Roman;font-size:14.00;">
<title>g</title>
<text text-anchor="middle" style="font-size:22.00;" x="465" y="942">Shipit</text>
<g id="node1" class="node"><title>distrorelease</title>
<polygon style="fill:#c1cdcc;stroke:#c1cdcc;" points="164,776 164,554 376,554 376,776 164,776"/>
<polygon style="fill:white;stroke:white;" points="167,569 167,557 373,557 373,569 167,569"/>
<text text-anchor="middle" style="font-size:6.00;" x="270" y="565">distrorelease</text>
<polygon style="fill:none;stroke:black;" points="167,569 167,557 373,557 373,569 167,569"/>
<text text-anchor="middle" style="font-size:6.00;" x="172" y="578">id</text>
<text text-anchor="middle" style="font-size:6.00;" x="224" y="578">serial</text>
<text text-anchor="middle" style="font-size:6.00;" x="285" y="578"> UNIQUE PRIMARY KEY </text>
<text text-anchor="middle" style="font-size:6.00;" x="184" y="590">distribution</text>
<text text-anchor="middle" style="font-size:6.00;" x="226" y="590">integer</text>
<text text-anchor="middle" style="font-size:6.00;" x="311" y="590"> REFERENCES distribution UNIQUE UNIQUE </text>
<text text-anchor="middle" style="font-size:6.00;" x="177" y="602">name</text>
<text text-anchor="middle" style="font-size:6.00;" x="223" y="602">text</text>
<text text-anchor="middle" style="font-size:6.00;" x="264" y="602"> UNIQUE </text>
<text text-anchor="middle" style="font-size:6.00;" x="175" y="614">title</text>
<text text-anchor="middle" style="font-size:6.00;" x="223" y="614">text</text>
<text text-anchor="middle" style="font-size:6.00;" x="184" y="626">description</text>
<text text-anchor="middle" style="font-size:6.00;" x="223" y="626">text</text>
<text text-anchor="middle" style="font-size:6.00;" x="179" y="638">version</text>
<text text-anchor="middle" style="font-size:6.00;" x="223" y="638">text</text>
<text text-anchor="middle" style="font-size:6.00;" x="185" y="650">components</text>
<text text-anchor="middle" style="font-size:6.00;" x="226" y="650">integer</text>
<text text-anchor="middle" style="font-size:6.00;" x="281" y="650"> REFERENCES schema </text>
<text text-anchor="middle" style="font-size:6.00;" x="179" y="662">sections</text>
<text text-anchor="middle" style="font-size:6.00;" x="226" y="662">integer</text>
<text text-anchor="middle" style="font-size:6.00;" x="281" y="662"> REFERENCES schema </text>
<text text-anchor="middle" style="font-size:6.00;" x="185" y="674">releasestatus</text>
<text text-anchor="middle" style="font-size:6.00;" x="226" y="674">integer</text>
<text text-anchor="middle" style="font-size:6.00;" x="185" y="686">datereleased</text>
<text text-anchor="middle" style="font-size:6.00;" x="231" y="686">timestamp</text>
<text text-anchor="middle" style="font-size:6.00;" x="186" y="698">parentrelease</text>
<text text-anchor="middle" style="font-size:6.00;" x="226" y="698">integer</text>
<text text-anchor="middle" style="font-size:6.00;" x="287" y="698"> REFERENCES distrorelease </text>
<text text-anchor="middle" style="font-size:6.00;" x="178" y="710">owner</text>
<text text-anchor="middle" style="font-size:6.00;" x="226" y="710">integer</text>
<text text-anchor="middle" style="font-size:6.00;" x="280" y="710"> REFERENCES person </text>
<text text-anchor="middle" style="font-size:6.00;" x="185" y="722">lucilleconfig</text>
<text text-anchor="middle" style="font-size:6.00;" x="223" y="722">text</text>
<text text-anchor="middle" style="font-size:6.00;" x="181" y="734">summary</text>
<text text-anchor="middle" style="font-size:6.00;" x="223" y="734">text</text>
<text text-anchor="middle" style="font-size:6.00;" x="185" y="746">displayname</text>
<text text-anchor="middle" style="font-size:6.00;" x="223" y="746">text</text>
<text text-anchor="middle" style="font-size:6.00;" x="190" y="758">datelastlangpack</text>
<text text-anchor="middle" style="font-size:6.00;" x="231" y="758">timestamp</text>
<text text-anchor="middle" style="font-size:6.00;" x="187" y="770">messagecount</text>
<text text-anchor="middle" style="font-size:6.00;" x="226" y="770">integer</text>
<polygon style="fill:none;stroke:black;" points="164,776 164,554 376,554 376,776 164,776"/>
</g>
<g id="edge8" class="edge"><title>distrorelease&#45;&gt;distrorelease</title>
<path style="fill:none;stroke:black;" d="M384,735C395,721 402,697 402,665 402,639 397,618 390,604"/>
<polygon style="fill:black;stroke:black;" points="387,605 384,595 392,601 387,605"/>
</g>
<g id="node2" class="node"><title>person</title>
<polygon style="fill:#c1cdcc;stroke:#c1cdcc;" points="506,521 506,155 708,155 708,521 506,521"/>
<polygon style="fill:white;stroke:white;" points="509,170 509,158 705,158 705,170 509,170"/>
<text text-anchor="middle" style="font-size:6.00;" x="607" y="166">person</text>
<polygon style="fill:none;stroke:black;" points="509,170 509,158 705,158 705,170 509,170"/>
<text text-anchor="middle" style="font-size:6.00;" x="514" y="179">id</text>
<text text-anchor="middle" style="font-size:6.00;" x="589" y="179">serial</text>
<text text-anchor="middle" style="font-size:6.00;" x="638" y="179"> PRIMARY KEY </text>
<text text-anchor="middle" style="font-size:6.00;" x="527" y="191">displayname</text>
<text text-anchor="middle" style="font-size:6.00;" x="588" y="191">text</text>
<text text-anchor="middle" style="font-size:6.00;" x="525" y="203">givenname</text>
<text text-anchor="middle" style="font-size:6.00;" x="588" y="203">text</text>
<text text-anchor="middle" style="font-size:6.00;" x="526" y="215">familyname</text>
<text text-anchor="middle" style="font-size:6.00;" x="588" y="215">text</text>
<text text-anchor="middle" style="font-size:6.00;" x="523" y="227">password</text>
<text text-anchor="middle" style="font-size:6.00;" x="588" y="227">text</text>
<text text-anchor="middle" style="font-size:6.00;" x="525" y="239">teamowner</text>
<text text-anchor="middle" style="font-size:6.00;" x="591" y="239">integer</text>
<text text-anchor="middle" style="font-size:6.00;" x="645" y="239"> REFERENCES person </text>
<text text-anchor="middle" style="font-size:6.00;" x="532" y="251">teamdescription</text>
<text text-anchor="middle" style="font-size:6.00;" x="588" y="251">text</text>
<text text-anchor="middle" style="font-size:6.00;" x="519" y="263">name</text>
<text text-anchor="middle" style="font-size:6.00;" x="588" y="263">text</text>
<text text-anchor="middle" style="font-size:6.00;" x="523" y="275">language</text>
<text text-anchor="middle" style="font-size:6.00;" x="591" y="275">integer</text>
<text text-anchor="middle" style="font-size:6.00;" x="648" y="275"> REFERENCES language </text>
<text text-anchor="middle" style="font-size:6.00;" x="515" y="287">fti</text>
<text text-anchor="middle" style="font-size:6.00;" x="593" y="287">tsvector</text>
<text text-anchor="middle" style="font-size:6.00;" x="543" y="299">defaultmembershipperiod</text>
<text text-anchor="middle" style="font-size:6.00;" x="591" y="299">integer</text>
<text text-anchor="middle" style="font-size:6.00;" x="538" y="311">defaultrenewalperiod</text>
<text text-anchor="middle" style="font-size:6.00;" x="591" y="311">integer</text>
<text text-anchor="middle" style="font-size:6.00;" x="534" y="323">subscriptionpolicy</text>
<text text-anchor="middle" style="font-size:6.00;" x="591" y="323">integer</text>
<text text-anchor="middle" style="font-size:6.00;" x="521" y="335">merged</text>
<text text-anchor="middle" style="font-size:6.00;" x="591" y="335">integer</text>
<text text-anchor="middle" style="font-size:6.00;" x="645" y="335"> REFERENCES person </text>
<text text-anchor="middle" style="font-size:6.00;" x="526" y="347">datecreated</text>
<text text-anchor="middle" style="font-size:6.00;" x="596" y="347">timestamp</text>
<text text-anchor="middle" style="font-size:6.00;" x="522" y="359">calendar</text>
<text text-anchor="middle" style="font-size:6.00;" x="591" y="359">integer</text>
<text text-anchor="middle" style="font-size:6.00;" x="659" y="359"> REFERENCES calendar UNIQUE </text>
<text text-anchor="middle" style="font-size:6.00;" x="523" y="371">timezone</text>
<text text-anchor="middle" style="font-size:6.00;" x="588" y="371">text</text>
<text text-anchor="middle" style="font-size:6.00;" x="520" y="383">karma</text>
<text text-anchor="middle" style="font-size:6.00;" x="591" y="383">integer</text>
<text text-anchor="middle" style="font-size:6.00;" x="527" y="395">addressline1</text>
<text text-anchor="middle" style="font-size:6.00;" x="588" y="395">text</text>
<text text-anchor="middle" style="font-size:6.00;" x="527" y="407">addressline2</text>
<text text-anchor="middle" style="font-size:6.00;" x="588" y="407">text</text>
<text text-anchor="middle" style="font-size:6.00;" x="527" y="419">organization</text>
<text text-anchor="middle" style="font-size:6.00;" x="588" y="419">text</text>
<text text-anchor="middle" style="font-size:6.00;" x="517" y="431">city</text>
<text text-anchor="middle" style="font-size:6.00;" x="588" y="431">text</text>
<text text-anchor="middle" style="font-size:6.00;" x="523" y="443">province</text>
<text text-anchor="middle" style="font-size:6.00;" x="588" y="443">text</text>
<text text-anchor="middle" style="font-size:6.00;" x="522" y="455">country</text>
<text text-anchor="middle" style="font-size:6.00;" x="591" y="455">integer</text>
<text text-anchor="middle" style="font-size:6.00;" x="647" y="455"> REFERENCES country </text>
<text text-anchor="middle" style="font-size:6.00;" x="523" y="467">postcode</text>
<text text-anchor="middle" style="font-size:6.00;" x="588" y="467">text</text>
<text text-anchor="middle" style="font-size:6.00;" x="520" y="479">phone</text>
<text text-anchor="middle" style="font-size:6.00;" x="588" y="479">text</text>
<text text-anchor="middle" style="font-size:6.00;" x="535" y="491">homepage_content</text>
<text text-anchor="middle" style="font-size:6.00;" x="588" y="491">text</text>
<text text-anchor="middle" style="font-size:6.00;" x="522" y="503">emblem</text>
<text text-anchor="middle" style="font-size:6.00;" x="591" y="503">integer</text>
<text text-anchor="middle" style="font-size:6.00;" x="655" y="503"> REFERENCES libraryfilealias </text>
<text text-anchor="middle" style="font-size:6.00;" x="528" y="515">hackergotchi</text>
<text text-anchor="middle" style="font-size:6.00;" x="591" y="515">integer</text>
<text text-anchor="middle" style="font-size:6.00;" x="655" y="515"> REFERENCES libraryfilealias </text>
<polygon style="fill:none;stroke:black;" points="506,521 506,155 708,155 708,521 506,521"/>
</g>
<g id="edge10" class="edge"><title>distrorelease&#45;&gt;person</title>
<path style="fill:none;stroke:black;" d="M384,554C419,520 457,484 491,451"/>
<polygon style="fill:black;stroke:black;" points="488,449 498,444 493,454 488,449"/>
</g>
<g id="node9" class="node"><title>fake_distribution_111</title>
<ellipse cx="33" cy="643" rx="27" ry="18" style="fill:none;stroke:red;"/>
<text text-anchor="middle" style="font-size:6.00;" x="33" y="645">distribution</text>
</g>
<g id="edge2" class="edge"><title>distrorelease&#45;&gt;fake_distribution_111</title>
<path style="fill:none;stroke:black;" d="M156,654C125,651 94,649 70,647"/>
<polygon style="fill:black;stroke:black;" points="70,650 60,646 70,644 70,650"/>
</g>
<g id="node11" class="node"><title>fake_schema_113</title>
<ellipse cx="91" cy="824" rx="27" ry="18" style="fill:none;stroke:red;"/>
<text text-anchor="middle" style="font-size:6.00;" x="91" y="826">schema</text>
</g>
<g id="edge4" class="edge"><title>distrorelease&#45;&gt;fake_schema_113</title>
<path style="fill:none;stroke:black;" d="M156,766C141,780 126,793 115,803"/>
<polygon style="fill:black;stroke:black;" points="117,806 107,810 112,801 117,806"/>
</g>
<g id="node13" class="node"><title>fake_schema_115</title>
<ellipse cx="295" cy="899" rx="27" ry="18" style="fill:none;stroke:red;"/>
<text text-anchor="middle" style="font-size:6.00;" x="295" y="901">schema</text>
</g>
<g id="edge6" class="edge"><title>distrorelease&#45;&gt;fake_schema_115</title>
<path style="fill:none;stroke:black;" d="M282,780C286,814 290,848 292,871"/>
<polygon style="fill:black;stroke:black;" points="295,871 293,881 289,871 295,871"/>
</g>
<g id="edge12" class="edge"><title>person&#45;&gt;person</title>
<path style="fill:none;stroke:black;" d="M716,395C727,383 734,365 734,338 734,316 730,301 722,289"/>
<polygon style="fill:black;stroke:black;" points="719,291 716,281 725,287 719,291"/>
</g>
<g id="edge16" class="edge"><title>person&#45;&gt;person</title>
<path style="fill:none;stroke:black;" d="M716,471C737,455 752,411 752,338 752,274 740,232 723,212"/>
<polygon style="fill:black;stroke:black;" points="721,215 716,205 726,210 721,215"/>
</g>
<g id="node18" class="node"><title>fake_language_171</title>
<ellipse cx="898" cy="403" rx="27" ry="18" style="fill:none;stroke:red;"/>
<text text-anchor="middle" style="font-size:6.00;" x="898" y="405">language</text>
</g>
<g id="edge14" class="edge"><title>person&#45;&gt;fake_language_171</title>
<path style="fill:none;stroke:black;" d="M716,362C768,374 826,386 862,395"/>
<polygon style="fill:black;stroke:black;" points="863,392 872,397 862,398 863,392"/>
</g>
<g id="node21" class="node"><title>fake_calendar_174</title>
<ellipse cx="761" cy="586" rx="27" ry="18" style="fill:none;stroke:red;"/>
<text text-anchor="middle" style="font-size:6.00;" x="761" y="588">calendar</text>
</g>
<g id="edge18" class="edge"><title>person&#45;&gt;fake_calendar_174</title>
<path style="fill:none;stroke:black;" d="M716,514C727,532 737,548 745,561"/>
<polygon style="fill:black;stroke:black;" points="748,559 751,569 742,563 748,559"/>
</g>
<g id="node23" class="node"><title>fake_country_176</title>
<ellipse cx="761" cy="300" rx="27" ry="18" style="fill:none;stroke:red;"/>
<text text-anchor="middle" style="font-size:6.00;" x="761" y="302">country</text>
</g>
<g id="edge20" class="edge"><title>person&#45;&gt;fake_country_176</title>
<path style="fill:none;stroke:black;" d="M716,311C719,310 723,309 726,309"/>
<polygon style="fill:black;stroke:black;" points="725,306 736,306 727,312 725,306"/>
</g>
<g id="node25" class="node"><title>fake_libraryfilealias_178</title>
<ellipse cx="619" cy="35" rx="29" ry="18" style="fill:none;stroke:red;"/>
<text text-anchor="middle" style="font-size:6.00;" x="619" y="37">libraryfilealias</text>
</g>
<g id="edge22" class="edge"><title>person&#45;&gt;fake_libraryfilealias_178</title>
<path style="fill:none;stroke:black;" d="M614,151C616,117 617,85 618,63"/>
<polygon style="fill:black;stroke:black;" points="615,63 618,53 622,63 615,63"/>
</g>
<g id="node27" class="node"><title>fake_libraryfilealias_180</title>
<ellipse cx="821" cy="122" rx="29" ry="18" style="fill:none;stroke:red;"/>
<text text-anchor="middle" style="font-size:6.00;" x="821" y="124">libraryfilealias</text>
</g>
<g id="edge24" class="edge"><title>person&#45;&gt;fake_libraryfilealias_180</title>
<path style="fill:none;stroke:black;" d="M716,228C747,197 778,165 799,145"/>
<polygon style="fill:black;stroke:black;" points="796,143 806,138 801,148 796,143"/>
</g>
<g id="node3" class="node"><title>requestedcds</title>
<polygon style="fill:#c1cdcc;stroke:#c1cdcc;" points="52,319 52,217 220,217 220,319 52,319"/>
<polygon style="fill:white;stroke:white;" points="55,232 55,220 217,220 217,232 55,232"/>
<text text-anchor="middle" style="font-size:6.00;" x="136" y="228">requestedcds</text>
<polygon style="fill:none;stroke:black;" points="55,232 55,220 217,220 217,232 55,232"/>
<text text-anchor="middle" style="font-size:6.00;" x="60" y="241">id</text>
<text text-anchor="middle" style="font-size:6.00;" x="115" y="241">serial</text>
<text text-anchor="middle" style="font-size:6.00;" x="155" y="241"> PRIMARY KEY </text>
<text text-anchor="middle" style="font-size:6.00;" x="67" y="253">request</text>
<text text-anchor="middle" style="font-size:6.00;" x="117" y="253">integer</text>
<text text-anchor="middle" style="font-size:6.00;" x="174" y="253"> REFERENCES shippingrequest </text>
<text text-anchor="middle" style="font-size:6.00;" x="68" y="265">quantity</text>
<text text-anchor="middle" style="font-size:6.00;" x="117" y="265">integer</text>
<text text-anchor="middle" style="font-size:6.00;" x="67" y="277">flavour</text>
<text text-anchor="middle" style="font-size:6.00;" x="117" y="277">integer</text>
<text text-anchor="middle" style="font-size:6.00;" x="73" y="289">distrorelease</text>
<text text-anchor="middle" style="font-size:6.00;" x="117" y="289">integer</text>
<text text-anchor="middle" style="font-size:6.00;" x="72" y="301">architecture</text>
<text text-anchor="middle" style="font-size:6.00;" x="117" y="301">integer</text>
<text text-anchor="middle" style="font-size:6.00;" x="79" y="313">quantityapproved</text>
<text text-anchor="middle" style="font-size:6.00;" x="117" y="313">integer</text>
<polygon style="fill:none;stroke:black;" points="52,319 52,217 220,217 220,319 52,319"/>
</g>
<g id="node5" class="node"><title>shippingrequest</title>
<polygon style="fill:#c1cdcc;stroke:#c1cdcc;" points="320,332 320,182 470,182 470,332 320,332"/>
<polygon style="fill:white;stroke:white;" points="323,197 323,185 467,185 467,197 323,197"/>
<text text-anchor="middle" style="font-size:6.00;" x="395" y="193">shippingrequest</text>
<polygon style="fill:none;stroke:black;" points="323,197 323,185 467,185 467,197 323,197"/>
<text text-anchor="middle" style="font-size:6.00;" x="328" y="206">id</text>
<text text-anchor="middle" style="font-size:6.00;" x="373" y="206">serial</text>
<text text-anchor="middle" style="font-size:6.00;" x="422" y="206"> PRIMARY KEY </text>
<text text-anchor="middle" style="font-size:6.00;" x="337" y="218">recipient</text>
<text text-anchor="middle" style="font-size:6.00;" x="375" y="218">integer</text>
<text text-anchor="middle" style="font-size:6.00;" x="429" y="218"> REFERENCES person </text>
<text text-anchor="middle" style="font-size:6.00;" x="337" y="230">shipment</text>
<text text-anchor="middle" style="font-size:6.00;" x="375" y="230">integer</text>
<text text-anchor="middle" style="font-size:6.00;" x="432" y="230"> REFERENCES shipment </text>
<text text-anchor="middle" style="font-size:6.00;" x="343" y="242">whoapproved</text>
<text text-anchor="middle" style="font-size:6.00;" x="375" y="242">integer</text>
<text text-anchor="middle" style="font-size:6.00;" x="429" y="242"> REFERENCES person </text>
<text text-anchor="middle" style="font-size:6.00;" x="337" y="254">cancelled</text>
<text text-anchor="middle" style="font-size:6.00;" x="377" y="254">boolean</text>
<text text-anchor="middle" style="font-size:6.00;" x="343" y="266">whocancelled</text>
<text text-anchor="middle" style="font-size:6.00;" x="375" y="266">integer</text>
<text text-anchor="middle" style="font-size:6.00;" x="429" y="266"> REFERENCES person </text>
<text text-anchor="middle" style="font-size:6.00;" x="343" y="278">daterequested</text>
<text text-anchor="middle" style="font-size:6.00;" x="380" y="278">timestamp</text>
<text text-anchor="middle" style="font-size:6.00;" x="337" y="290">approved</text>
<text text-anchor="middle" style="font-size:6.00;" x="377" y="290">boolean</text>
<text text-anchor="middle" style="font-size:6.00;" x="342" y="302">shockandawe</text>
<text text-anchor="middle" style="font-size:6.00;" x="375" y="302">integer</text>
<text text-anchor="middle" style="font-size:6.00;" x="334" y="314">reason</text>
<text text-anchor="middle" style="font-size:6.00;" x="372" y="314">text</text>
<text text-anchor="middle" style="font-size:6.00;" x="341" y="326">highpriority</text>
<text text-anchor="middle" style="font-size:6.00;" x="377" y="326">boolean</text>
<polygon style="fill:none;stroke:black;" points="320,332 320,182 470,182 470,332 320,332"/>
</g>
<g id="edge26" class="edge"><title>requestedcds&#45;&gt;shippingrequest</title>
<path style="fill:none;stroke:black;" d="M228,264C252,263 278,262 302,261"/>
<polygon style="fill:black;stroke:black;" points="302,257 312,261 302,264 302,257"/>
</g>
<g id="node4" class="node"><title>shipment</title>
<polygon style="fill:#c1cdcc;stroke:#c1cdcc;" points="183,106 183,16 317,16 317,106 183,106"/>
<polygon style="fill:white;stroke:white;" points="186,31 186,19 314,19 314,31 186,31"/>
<text text-anchor="middle" style="font-size:6.00;" x="250" y="27">shipment</text>
<polygon style="fill:none;stroke:black;" points="186,31 186,19 314,19 314,31 186,31"/>
<text text-anchor="middle" style="font-size:6.00;" x="191" y="40">id</text>
<text text-anchor="middle" style="font-size:6.00;" x="241" y="40">serial</text>
<text text-anchor="middle" style="font-size:6.00;" x="290" y="40"> PRIMARY KEY </text>
<text text-anchor="middle" style="font-size:6.00;" x="202" y="52">logintoken</text>
<text text-anchor="middle" style="font-size:6.00;" x="240" y="52">text</text>
<text text-anchor="middle" style="font-size:6.00;" x="281" y="52"> UNIQUE </text>
<text text-anchor="middle" style="font-size:6.00;" x="203" y="64">shippingrun</text>
<text text-anchor="middle" style="font-size:6.00;" x="243" y="64">integer</text>
<text text-anchor="middle" style="font-size:6.00;" x="204" y="76">dateshipped</text>
<text text-anchor="middle" style="font-size:6.00;" x="248" y="76">timestamp</text>
<text text-anchor="middle" style="font-size:6.00;" x="208" y="88">shippingservice</text>
<text text-anchor="middle" style="font-size:6.00;" x="243" y="88">integer</text>
<text text-anchor="middle" style="font-size:6.00;" x="205" y="100">trackingcode</text>
<text text-anchor="middle" style="font-size:6.00;" x="240" y="100">text</text>
<polygon style="fill:none;stroke:black;" points="183,106 183,16 317,16 317,106 183,106"/>
</g>
<g id="edge28" class="edge"><title>shippingrequest&#45;&gt;person</title>
<path style="fill:none;stroke:black;" d="M478,275C482,276 485,277 488,279"/>
<polygon style="fill:black;stroke:black;" points="489,276 498,282 487,282 489,276"/>
</g>
<g id="edge32" class="edge"><title>shippingrequest&#45;&gt;person</title>
<path style="fill:none;stroke:black;" d="M478,302C482,304 485,305 489,306"/>
<polygon style="fill:black;stroke:black;" points="490,303 498,310 487,309 490,303"/>
</g>
<g id="edge34" class="edge"><title>shippingrequest&#45;&gt;person</title>
<path style="fill:none;stroke:black;" d="M478,289C482,290 485,291 488,293"/>
<polygon style="fill:black;stroke:black;" points="489,290 498,296 487,296 489,290"/>
</g>
<g id="edge30" class="edge"><title>shippingrequest&#45;&gt;shipment</title>
<path style="fill:none;stroke:black;" d="M336,178C321,158 306,137 292,118"/>
<polygon style="fill:black;stroke:black;" points="289,120 286,110 295,116 289,120"/>
</g>
<g id="node6" class="node"><title>shippingrun</title>
<polygon style="fill:#c1cdcc;stroke:#c1cdcc;" points="464,663 464,621 588,621 588,663 464,663"/>
<polygon style="fill:white;stroke:white;" points="467,636 467,624 585,624 585,636 467,636"/>
<text text-anchor="middle" style="font-size:6.00;" x="526" y="632">shippingrun</text>
<polygon style="fill:none;stroke:black;" points="467,636 467,624 585,624 585,636 467,636"/>
<text text-anchor="middle" style="font-size:6.00;" x="472" y="645">id</text>
<text text-anchor="middle" style="font-size:6.00;" x="512" y="645">serial</text>
<text text-anchor="middle" style="font-size:6.00;" x="561" y="645"> PRIMARY KEY </text>
<text text-anchor="middle" style="font-size:6.00;" x="484" y="657">datecreated</text>
<text text-anchor="middle" style="font-size:6.00;" x="519" y="657">timestamp</text>
<polygon style="fill:none;stroke:black;" points="464,663 464,621 588,621 588,663 464,663"/>
</g>
<g id="node7" class="node"><title>shockandawe</title>
<polygon style="fill:#c1cdcc;stroke:#c1cdcc;" points="614,713 614,647 724,647 724,713 614,713"/>
<polygon style="fill:white;stroke:white;" points="617,662 617,650 721,650 721,662 617,662"/>
<text text-anchor="middle" style="font-size:6.00;" x="669" y="658">shockandawe</text>
<polygon style="fill:none;stroke:black;" points="617,662 617,650 721,650 721,662 617,662"/>
<text text-anchor="middle" style="font-size:6.00;" x="622" y="671">id</text>
<text text-anchor="middle" style="font-size:6.00;" x="661" y="671">serial</text>
<text text-anchor="middle" style="font-size:6.00;" x="697" y="671"> PRIMARY KEY </text>
<text text-anchor="middle" style="font-size:6.00;" x="627" y="683">name</text>
<text text-anchor="middle" style="font-size:6.00;" x="660" y="683">text</text>
<text text-anchor="middle" style="font-size:6.00;" x="625" y="695">title</text>
<text text-anchor="middle" style="font-size:6.00;" x="660" y="695">text</text>
<text text-anchor="middle" style="font-size:6.00;" x="634" y="707">description</text>
<text text-anchor="middle" style="font-size:6.00;" x="660" y="707">text</text>
<polygon style="fill:none;stroke:black;" points="614,713 614,647 724,647 724,713 614,713"/>
</g>
<g id="node8" class="node"><title>standardshipitrequest</title>
<polygon style="fill:#c1cdcc;stroke:#c1cdcc;" points="264,513 264,423 390,423 390,513 264,513"/>
<polygon style="fill:white;stroke:white;" points="267,438 267,426 387,426 387,438 267,438"/>
<text text-anchor="middle" style="font-size:6.00;" x="327" y="434">standardshipitrequest</text>
<polygon style="fill:none;stroke:black;" points="267,438 267,426 387,426 387,438 267,438"/>
<text text-anchor="middle" style="font-size:6.00;" x="272" y="447">id</text>
<text text-anchor="middle" style="font-size:6.00;" x="320" y="447">serial</text>
<text text-anchor="middle" style="font-size:6.00;" x="363" y="447"> PRIMARY KEY </text>
<text text-anchor="middle" style="font-size:6.00;" x="285" y="459">quantityx86</text>
<text text-anchor="middle" style="font-size:6.00;" x="322" y="459">integer</text>
<text text-anchor="middle" style="font-size:6.00;" x="354" y="459"> UNIQUE </text>
<text text-anchor="middle" style="font-size:6.00;" x="285" y="471">quantityppc</text>
<text text-anchor="middle" style="font-size:6.00;" x="322" y="471">integer</text>
<text text-anchor="middle" style="font-size:6.00;" x="354" y="471"> UNIQUE </text>
<text text-anchor="middle" style="font-size:6.00;" x="288" y="483">quantityamd64</text>
<text text-anchor="middle" style="font-size:6.00;" x="322" y="483">integer</text>
<text text-anchor="middle" style="font-size:6.00;" x="354" y="483"> UNIQUE </text>
<text text-anchor="middle" style="font-size:6.00;" x="284" y="495">description</text>
<text text-anchor="middle" style="font-size:6.00;" x="319" y="495">text</text>
<text text-anchor="middle" style="font-size:6.00;" x="280" y="507">isdefault</text>
<text text-anchor="middle" style="font-size:6.00;" x="324" y="507">boolean</text>
<polygon style="fill:none;stroke:black;" points="264,513 264,423 390,423 390,513 264,513"/>
</g>
</g>
</svg>
