<?xml version="1.0" encoding="UTF-8" standalone="no"?>
<!DOCTYPE svg PUBLIC "-//W3C//DTD SVG 1.0//EN"
 "http://www.w3.org/TR/2001/REC-SVG-20010904/DTD/svg10.dtd">
<!-- Generated by fdp version 2.2.1 (Tue Oct 11 01:38:21 UTC 2005)
     For user: (stub) Stuart Bishop,,,   Title: g    Pages: 1 -->
<svg width="879px" height="642px"
 viewBox = "-1 -1 878 641"
 xmlns="http://www.w3.org/2000/svg">
<g id="graph0" class="graph" style="font-family:Times-Roman;font-size:14.00;">
<title>g</title>
<text text-anchor="middle" style="font-size:22.00;" x="438" y="624">Shipit</text>
<g id="node1" class="node"><title>requestedcds</title>
<polygon style="fill:#c1cdcc;stroke:#c1cdcc;" points="14,595 14,477 226,477 226,595 14,595"/>
<polygon style="fill:white;stroke:white;" points="17,494 17,480 223,480 223,494 17,494"/>
<text text-anchor="middle" style="font-size:8.00;" x="120" y="490">requestedcds</text>
<polygon style="fill:none;stroke:black;" points="17,494 17,480 223,480 223,494 17,494"/>
<text text-anchor="middle" style="font-size:8.00;" x="23" y="505">id</text>
<text text-anchor="middle" style="font-size:8.00;" x="92" y="505">serial</text>
<text text-anchor="middle" style="font-size:8.00;" x="143" y="505"> PRIMARY KEY </text>
<text text-anchor="middle" style="font-size:8.00;" x="32" y="519">request</text>
<text text-anchor="middle" style="font-size:8.00;" x="95" y="519">integer</text>
<text text-anchor="middle" style="font-size:8.00;" x="167" y="519"> REFERENCES shippingrequest </text>
<text text-anchor="middle" style="font-size:8.00;" x="33" y="533">quantity</text>
<text text-anchor="middle" style="font-size:8.00;" x="95" y="533">integer</text>
<text text-anchor="middle" style="font-size:8.00;" x="32" y="547">flavour</text>
<text text-anchor="middle" style="font-size:8.00;" x="95" y="547">integer</text>
<text text-anchor="middle" style="font-size:8.00;" x="40" y="561">distrorelease</text>
<text text-anchor="middle" style="font-size:8.00;" x="95" y="561">integer</text>
<text text-anchor="middle" style="font-size:8.00;" x="39" y="575">architecture</text>
<text text-anchor="middle" style="font-size:8.00;" x="95" y="575">integer</text>
<text text-anchor="middle" style="font-size:8.00;" x="48" y="589">quantityapproved</text>
<text text-anchor="middle" style="font-size:8.00;" x="95" y="589">integer</text>
<polygon style="fill:none;stroke:black;" points="14,595 14,477 226,477 226,595 14,595"/>
</g>
<g id="node4" class="node"><title>shippingrequest</title>
<polygon style="fill:#c1cdcc;stroke:#c1cdcc;" points="292,467 292,167 522,167 522,467 292,467"/>
<polygon style="fill:white;stroke:white;" points="295,184 295,170 519,170 519,184 295,184"/>
<text text-anchor="middle" style="font-size:8.00;" x="407" y="180">shippingrequest</text>
<polygon style="fill:none;stroke:black;" points="295,184 295,170 519,170 519,184 295,184"/>
<text text-anchor="middle" style="font-size:8.00;" x="301" y="195">id</text>
<text text-anchor="middle" style="font-size:8.00;" x="384" y="195">serial</text>
<text text-anchor="middle" style="font-size:8.00;" x="446" y="195"> PRIMARY KEY </text>
<text text-anchor="middle" style="font-size:8.00;" x="312" y="209">recipient</text>
<text text-anchor="middle" style="font-size:8.00;" x="387" y="209">integer</text>
<text text-anchor="middle" style="font-size:8.00;" x="456" y="209"> REFERENCES person </text>
<text text-anchor="middle" style="font-size:8.00;" x="320" y="223">whoapproved</text>
<text text-anchor="middle" style="font-size:8.00;" x="387" y="223">integer</text>
<text text-anchor="middle" style="font-size:8.00;" x="456" y="223"> REFERENCES person </text>
<text text-anchor="middle" style="font-size:8.00;" x="313" y="237">cancelled</text>
<text text-anchor="middle" style="font-size:8.00;" x="389" y="237">boolean</text>
<text text-anchor="middle" style="font-size:8.00;" x="320" y="251">whocancelled</text>
<text text-anchor="middle" style="font-size:8.00;" x="387" y="251">integer</text>
<text text-anchor="middle" style="font-size:8.00;" x="456" y="251"> REFERENCES person </text>
<text text-anchor="middle" style="font-size:8.00;" x="320" y="265">daterequested</text>
<text text-anchor="middle" style="font-size:8.00;" x="393" y="265">timestamp</text>
<text text-anchor="middle" style="font-size:8.00;" x="313" y="279">approved</text>
<text text-anchor="middle" style="font-size:8.00;" x="389" y="279">boolean</text>
<text text-anchor="middle" style="font-size:8.00;" x="319" y="293">shockandawe</text>
<text text-anchor="middle" style="font-size:8.00;" x="387" y="293">integer</text>
<text text-anchor="middle" style="font-size:8.00;" x="467" y="293"> REFERENCES shockandawe </text>
<text text-anchor="middle" style="font-size:8.00;" x="309" y="307">reason</text>
<text text-anchor="middle" style="font-size:8.00;" x="382" y="307">text</text>
<text text-anchor="middle" style="font-size:8.00;" x="317" y="321">highpriority</text>
<text text-anchor="middle" style="font-size:8.00;" x="389" y="321">boolean</text>
<text text-anchor="middle" style="font-size:8.00;" x="333" y="335">recipientdisplayname</text>
<text text-anchor="middle" style="font-size:8.00;" x="382" y="335">text</text>
<text text-anchor="middle" style="font-size:8.00;" x="318" y="349">addressline1</text>
<text text-anchor="middle" style="font-size:8.00;" x="382" y="349">text</text>
<text text-anchor="middle" style="font-size:8.00;" x="318" y="363">addressline2</text>
<text text-anchor="middle" style="font-size:8.00;" x="382" y="363">text</text>
<text text-anchor="middle" style="font-size:8.00;" x="318" y="377">organization</text>
<text text-anchor="middle" style="font-size:8.00;" x="382" y="377">text</text>
<text text-anchor="middle" style="font-size:8.00;" x="304" y="391">city</text>
<text text-anchor="middle" style="font-size:8.00;" x="382" y="391">text</text>
<text text-anchor="middle" style="font-size:8.00;" x="312" y="405">province</text>
<text text-anchor="middle" style="font-size:8.00;" x="382" y="405">text</text>
<text text-anchor="middle" style="font-size:8.00;" x="310" y="419">country</text>
<text text-anchor="middle" style="font-size:8.00;" x="387" y="419">integer</text>
<text text-anchor="middle" style="font-size:8.00;" x="457" y="419"> REFERENCES country </text>
<text text-anchor="middle" style="font-size:8.00;" x="312" y="433">postcode</text>
<text text-anchor="middle" style="font-size:8.00;" x="382" y="433">text</text>
<text text-anchor="middle" style="font-size:8.00;" x="308" y="447">phone</text>
<text text-anchor="middle" style="font-size:8.00;" x="382" y="447">text</text>
<text text-anchor="middle" style="font-size:8.00;" x="302" y="461">fti</text>
<text text-anchor="middle" style="font-size:8.00;" x="389" y="461">tsvector</text>
<polygon style="fill:none;stroke:black;" points="292,467 292,167 522,167 522,467 292,467"/>
</g>
<g id="edge2" class="edge"><title>requestedcds&#45;&gt;shippingrequest</title>
<path style="fill:none;stroke:black;" d="M203,473C226,456 251,436 276,417"/>
<polygon style="fill:black;stroke:black;" points="274,414 284,411 278,420 274,414"/>
</g>
<g id="node2" class="node"><title>shipitreport</title>
<polygon style="fill:#c1cdcc;stroke:#c1cdcc;" points="578,447 578,385 776,385 776,447 578,447"/>
<polygon style="fill:white;stroke:white;" points="581,402 581,388 773,388 773,402 581,402"/>
<text text-anchor="middle" style="font-size:8.00;" x="677" y="398">shipitreport</text>
<polygon style="fill:none;stroke:black;" points="581,402 581,388 773,388 773,402 581,402"/>
<text text-anchor="middle" style="font-size:8.00;" x="587" y="413">id</text>
<text text-anchor="middle" style="font-size:8.00;" x="635" y="413">serial</text>
<text text-anchor="middle" style="font-size:8.00;" x="697" y="413"> PRIMARY KEY </text>
<text text-anchor="middle" style="font-size:8.00;" x="602" y="427">datecreated</text>
<text text-anchor="middle" style="font-size:8.00;" x="644" y="427">timestamp</text>
<text text-anchor="middle" style="font-size:8.00;" x="594" y="441">csvfile</text>
<text text-anchor="middle" style="font-size:8.00;" x="638" y="441">integer</text>
<text text-anchor="middle" style="font-size:8.00;" x="719" y="441"> REFERENCES libraryfilealias </text>
<polygon style="fill:none;stroke:black;" points="578,447 578,385 776,385 776,447 578,447"/>
</g>
<g id="node9" class="node"><title>fake_libraryfilealias_300</title>
<ellipse cx="836" cy="440" rx="35" ry="18" style="fill:none;stroke:red;"/>
<text text-anchor="middle" style="font-size:8.00;" x="836" y="443">libraryfilealias</text>
</g>
<g id="edge4" class="edge"><title>shipitreport&#45;&gt;fake_libraryfilealias_300</title>
<path style="fill:none;stroke:black;" d="M784,432C787,432 789,433 792,433"/>
<polygon style="fill:black;stroke:black;" points="793,430 802,435 792,436 793,430"/>
</g>
<g id="node3" class="node"><title>shipment</title>
<polygon style="fill:#c1cdcc;stroke:#c1cdcc;" points="308,143 308,25 558,25 558,143 308,143"/>
<polygon style="fill:white;stroke:white;" points="311,42 311,28 555,28 555,42 311,42"/>
<text text-anchor="middle" style="font-size:8.00;" x="433" y="38">shipment</text>
<polygon style="fill:none;stroke:black;" points="311,42 311,28 555,28 555,42 311,42"/>
<text text-anchor="middle" style="font-size:8.00;" x="317" y="53">id</text>
<text text-anchor="middle" style="font-size:8.00;" x="380" y="53">serial</text>
<text text-anchor="middle" style="font-size:8.00;" x="442" y="53"> PRIMARY KEY </text>
<text text-anchor="middle" style="font-size:8.00;" x="331" y="67">logintoken</text>
<text text-anchor="middle" style="font-size:8.00;" x="378" y="67">text</text>
<text text-anchor="middle" style="font-size:8.00;" x="430" y="67"> UNIQUE </text>
<text text-anchor="middle" style="font-size:8.00;" x="333" y="81">shippingrun</text>
<text text-anchor="middle" style="font-size:8.00;" x="383" y="81">integer</text>
<text text-anchor="middle" style="font-size:8.00;" x="460" y="81"> REFERENCES shippingrun </text>
<text text-anchor="middle" style="font-size:8.00;" x="333" y="95">dateshipped</text>
<text text-anchor="middle" style="font-size:8.00;" x="389" y="95">timestamp</text>
<text text-anchor="middle" style="font-size:8.00;" x="339" y="109">shippingservice</text>
<text text-anchor="middle" style="font-size:8.00;" x="383" y="109">integer</text>
<text text-anchor="middle" style="font-size:8.00;" x="335" y="123">trackingcode</text>
<text text-anchor="middle" style="font-size:8.00;" x="378" y="123">text</text>
<text text-anchor="middle" style="font-size:8.00;" x="326" y="137">request</text>
<text text-anchor="middle" style="font-size:8.00;" x="383" y="137">integer</text>
<text text-anchor="middle" style="font-size:8.00;" x="483" y="137"> REFERENCES shippingrequest UNIQUE </text>
<polygon style="fill:none;stroke:black;" points="308,143 308,25 558,25 558,143 308,143"/>
</g>
<g id="edge8" class="edge"><title>shipment&#45;&gt;shippingrequest</title>
<path style="fill:none;stroke:black;" d="M426,147C426,149 425,151 425,153"/>
<polygon style="fill:black;stroke:black;" points="428,153 424,163 422,153 428,153"/>
</g>
<g id="node5" class="node"><title>shippingrun</title>
<polygon style="fill:#c1cdcc;stroke:#c1cdcc;" points="618,138 618,62 862,62 862,138 618,138"/>
<polygon style="fill:white;stroke:white;" points="621,79 621,65 859,65 859,79 621,79"/>
<text text-anchor="middle" style="font-size:8.00;" x="740" y="75">shippingrun</text>
<polygon style="fill:none;stroke:black;" points="621,79 621,65 859,65 859,79 621,79"/>
<text text-anchor="middle" style="font-size:8.00;" x="627" y="90">id</text>
<text text-anchor="middle" style="font-size:8.00;" x="689" y="90">serial</text>
<text text-anchor="middle" style="font-size:8.00;" x="751" y="90"> PRIMARY KEY </text>
<text text-anchor="middle" style="font-size:8.00;" x="642" y="104">datecreated</text>
<text text-anchor="middle" style="font-size:8.00;" x="698" y="104">timestamp</text>
<text text-anchor="middle" style="font-size:8.00;" x="649" y="118">sentforshipping</text>
<text text-anchor="middle" style="font-size:8.00;" x="694" y="118">boolean</text>
<text text-anchor="middle" style="font-size:8.00;" x="634" y="132">csvfile</text>
<text text-anchor="middle" style="font-size:8.00;" x="692" y="132">integer</text>
<text text-anchor="middle" style="font-size:8.00;" x="789" y="132"> REFERENCES libraryfilealias UNIQUE </text>
<polygon style="fill:none;stroke:black;" points="618,138 618,62 862,62 862,138 618,138"/>
</g>
<g id="edge6" class="edge"><title>shipment&#45;&gt;shippingrun</title>
<path style="fill:none;stroke:black;" d="M566,91C578,92 589,92 600,92"/>
<polygon style="fill:black;stroke:black;" points="600,89 610,93 600,95 600,89"/>
</g>
<g id="node6" class="node"><title>shockandawe</title>
<polygon style="fill:#c1cdcc;stroke:#c1cdcc;" points="115,129 115,53 251,53 251,129 115,129"/>
<polygon style="fill:white;stroke:white;" points="118,70 118,56 248,56 248,70 118,70"/>
<text text-anchor="middle" style="font-size:8.00;" x="183" y="66">shockandawe</text>
<polygon style="fill:none;stroke:black;" points="118,70 118,56 248,56 248,70 118,70"/>
<text text-anchor="middle" style="font-size:8.00;" x="124" y="81">id</text>
<text text-anchor="middle" style="font-size:8.00;" x="171" y="81">serial</text>
<text text-anchor="middle" style="font-size:8.00;" x="216" y="81"> PRIMARY KEY </text>
<text text-anchor="middle" style="font-size:8.00;" x="130" y="95">name</text>
<text text-anchor="middle" style="font-size:8.00;" x="169" y="95">text</text>
<text text-anchor="middle" style="font-size:8.00;" x="127" y="109">title</text>
<text text-anchor="middle" style="font-size:8.00;" x="169" y="109">text</text>
<text text-anchor="middle" style="font-size:8.00;" x="138" y="123">description</text>
<text text-anchor="middle" style="font-size:8.00;" x="169" y="123">text</text>
<polygon style="fill:none;stroke:black;" points="115,129 115,53 251,53 251,129 115,129"/>
</g>
<g id="edge16" class="edge"><title>shippingrequest&#45;&gt;shockandawe</title>
<path style="fill:none;stroke:black;" d="M284,193C266,174 248,156 232,140"/>
<polygon style="fill:black;stroke:black;" points="230,143 225,133 235,138 230,143"/>
</g>
<g id="node13" class="node"><title>fake_person_304</title>
<ellipse cx="241" cy="308" rx="27" ry="18" style="fill:none;stroke:red;"/>
<text text-anchor="middle" style="font-size:8.00;" x="241" y="311">person</text>
</g>
<g id="edge10" class="edge"><title>shippingrequest&#45;&gt;fake_person_304</title>
<path style="fill:none;stroke:black;" d="M284,310C282,310 280,310 278,310"/>
<polygon style="fill:black;stroke:black;" points="278,313 268,309 278,307 278,313"/>
</g>
<g id="node15" class="node"><title>fake_person_306</title>
<ellipse cx="594" cy="499" rx="27" ry="18" style="fill:none;stroke:red;"/>
<text text-anchor="middle" style="font-size:8.00;" x="594" y="502">person</text>
</g>
<g id="edge12" class="edge"><title>shippingrequest&#45;&gt;fake_person_306</title>
<path style="fill:none;stroke:black;" d="M530,437C545,452 560,467 572,477"/>
<polygon style="fill:black;stroke:black;" points="574,474 579,484 569,479 574,474"/>
</g>
<g id="node17" class="node"><title>fake_person_308</title>
<ellipse cx="575" cy="338" rx="27" ry="18" style="fill:none;stroke:red;"/>
<text text-anchor="middle" style="font-size:8.00;" x="575" y="341">person</text>
</g>
<g id="edge14" class="edge"><title>shippingrequest&#45;&gt;fake_person_308</title>
<path style="fill:none;stroke:black;" d="M530,332C533,332 536,333 538,333"/>
<polygon style="fill:black;stroke:black;" points="539,330 548,335 538,336 539,330"/>
</g>
<g id="node20" class="node"><title>fake_country_311</title>
<ellipse cx="410" cy="575" rx="27" ry="18" style="fill:none;stroke:red;"/>
<text text-anchor="middle" style="font-size:8.00;" x="410" y="578">country</text>
</g>
<g id="edge18" class="edge"><title>shippingrequest&#45;&gt;fake_country_311</title>
<path style="fill:none;stroke:black;" d="M409,471C409,500 409,528 410,547"/>
<polygon style="fill:black;stroke:black;" points="414,547 410,557 407,547 414,547"/>
</g>
<g id="node22" class="node"><title>fake_libraryfilealias_313</title>
<ellipse cx="695" cy="23" rx="35" ry="18" style="fill:none;stroke:red;"/>
<text text-anchor="middle" style="font-size:8.00;" x="695" y="26">libraryfilealias</text>
</g>
<g id="edge20" class="edge"><title>shippingrun&#45;&gt;fake_libraryfilealias_313</title>
<path style="fill:none;stroke:black;" d="M715,58C714,55 712,52 710,49"/>
<polygon style="fill:black;stroke:black;" points="707,50 705,40 713,47 707,50"/>
</g>
<g id="node7" class="node"><title>standardshipitrequest</title>
<polygon style="fill:#c1cdcc;stroke:#c1cdcc;" points="625,360 625,256 783,256 783,360 625,360"/>
<polygon style="fill:white;stroke:white;" points="628,273 628,259 780,259 780,273 628,273"/>
<text text-anchor="middle" style="font-size:8.00;" x="704" y="269">standardshipitrequest</text>
<polygon style="fill:none;stroke:black;" points="628,273 628,259 780,259 780,273 628,273"/>
<text text-anchor="middle" style="font-size:8.00;" x="634" y="284">id</text>
<text text-anchor="middle" style="font-size:8.00;" x="694" y="284">serial</text>
<text text-anchor="middle" style="font-size:8.00;" x="748" y="284"> PRIMARY KEY </text>
<text text-anchor="middle" style="font-size:8.00;" x="650" y="298">quantityx86</text>
<text text-anchor="middle" style="font-size:8.00;" x="697" y="298">integer</text>
<text text-anchor="middle" style="font-size:8.00;" x="736" y="298"> UNIQUE </text>
<text text-anchor="middle" style="font-size:8.00;" x="650" y="312">quantityppc</text>
<text text-anchor="middle" style="font-size:8.00;" x="697" y="312">integer</text>
<text text-anchor="middle" style="font-size:8.00;" x="736" y="312"> UNIQUE </text>
<text text-anchor="middle" style="font-size:8.00;" x="655" y="326">quantityamd64</text>
<text text-anchor="middle" style="font-size:8.00;" x="697" y="326">integer</text>
<text text-anchor="middle" style="font-size:8.00;" x="736" y="326"> UNIQUE </text>
<text text-anchor="middle" style="font-size:8.00;" x="648" y="340">description</text>
<text text-anchor="middle" style="font-size:8.00;" x="692" y="340">text</text>
<text text-anchor="middle" style="font-size:8.00;" x="645" y="354">isdefault</text>
<text text-anchor="middle" style="font-size:8.00;" x="699" y="354">boolean</text>
<polygon style="fill:none;stroke:black;" points="625,360 625,256 783,256 783,360 625,360"/>
</g>
</g>
</svg>
