<?xml version="1.0" encoding="UTF-8" standalone="no"?>
<!DOCTYPE svg PUBLIC "-//W3C//DTD SVG 1.0//EN"
 "http://www.w3.org/TR/2001/REC-SVG-20010904/DTD/svg10.dtd">
<!-- Generated by fdp version 2.2.1 (Tue Oct 11 01:38:21 UTC 2005)
     For user: (stub) Stuart Bishop,,,   Title: g    Pages: 1 -->
<svg width="629px" height="535px"
 viewBox = "-1 -1 628 534"
 xmlns="http://www.w3.org/2000/svg">
<g id="graph0" class="graph" transform = "scale(0.778274)"
 style="font-family:Times-Roman;font-size:14.00;">
<title>g</title>
<text text-anchor="middle" style="font-size:22.00;" x="401" y="668">Shipit</text>
<g id="node1" class="node"><title>requestedcds</title>
<polygon style="fill:#c1cdcc;stroke:#c1cdcc;" points="14,435 14,333 182,333 182,435 14,435"/>
<polygon style="fill:white;stroke:white;" points="17,348 17,336 179,336 179,348 17,348"/>
<text text-anchor="middle" style="font-size:6.00;" x="98" y="344">requestedcds</text>
<polygon style="fill:none;stroke:black;" points="17,348 17,336 179,336 179,348 17,348"/>
<text text-anchor="middle" style="font-size:6.00;" x="22" y="357">id</text>
<text text-anchor="middle" style="font-size:6.00;" x="77" y="357">serial</text>
<text text-anchor="middle" style="font-size:6.00;" x="117" y="357"> PRIMARY KEY </text>
<text text-anchor="middle" style="font-size:6.00;" x="29" y="369">request</text>
<text text-anchor="middle" style="font-size:6.00;" x="79" y="369">integer</text>
<text text-anchor="middle" style="font-size:6.00;" x="136" y="369"> REFERENCES shippingrequest </text>
<text text-anchor="middle" style="font-size:6.00;" x="30" y="381">quantity</text>
<text text-anchor="middle" style="font-size:6.00;" x="79" y="381">integer</text>
<text text-anchor="middle" style="font-size:6.00;" x="29" y="393">flavour</text>
<text text-anchor="middle" style="font-size:6.00;" x="79" y="393">integer</text>
<text text-anchor="middle" style="font-size:6.00;" x="35" y="405">distrorelease</text>
<text text-anchor="middle" style="font-size:6.00;" x="79" y="405">integer</text>
<text text-anchor="middle" style="font-size:6.00;" x="34" y="417">architecture</text>
<text text-anchor="middle" style="font-size:6.00;" x="79" y="417">integer</text>
<text text-anchor="middle" style="font-size:6.00;" x="41" y="429">quantityapproved</text>
<text text-anchor="middle" style="font-size:6.00;" x="79" y="429">integer</text>
<polygon style="fill:none;stroke:black;" points="14,435 14,333 182,333 182,435 14,435"/>
</g>
<g id="node3" class="node"><title>shippingrequest</title>
<polygon style="fill:#c1cdcc;stroke:#c1cdcc;" points="216,515 216,257 394,257 394,515 216,515"/>
<polygon style="fill:white;stroke:white;" points="219,272 219,260 391,260 391,272 219,272"/>
<text text-anchor="middle" style="font-size:6.00;" x="305" y="268">shippingrequest</text>
<polygon style="fill:none;stroke:black;" points="219,272 219,260 391,260 391,272 219,272"/>
<text text-anchor="middle" style="font-size:6.00;" x="224" y="281">id</text>
<text text-anchor="middle" style="font-size:6.00;" x="287" y="281">serial</text>
<text text-anchor="middle" style="font-size:6.00;" x="336" y="281"> PRIMARY KEY </text>
<text text-anchor="middle" style="font-size:6.00;" x="233" y="293">recipient</text>
<text text-anchor="middle" style="font-size:6.00;" x="289" y="293">integer</text>
<text text-anchor="middle" style="font-size:6.00;" x="343" y="293"> REFERENCES person </text>
<text text-anchor="middle" style="font-size:6.00;" x="239" y="305">whoapproved</text>
<text text-anchor="middle" style="font-size:6.00;" x="289" y="305">integer</text>
<text text-anchor="middle" style="font-size:6.00;" x="343" y="305"> REFERENCES person </text>
<text text-anchor="middle" style="font-size:6.00;" x="233" y="317">cancelled</text>
<text text-anchor="middle" style="font-size:6.00;" x="291" y="317">boolean</text>
<text text-anchor="middle" style="font-size:6.00;" x="239" y="329">whocancelled</text>
<text text-anchor="middle" style="font-size:6.00;" x="289" y="329">integer</text>
<text text-anchor="middle" style="font-size:6.00;" x="343" y="329"> REFERENCES person </text>
<text text-anchor="middle" style="font-size:6.00;" x="239" y="341">daterequested</text>
<text text-anchor="middle" style="font-size:6.00;" x="294" y="341">timestamp</text>
<text text-anchor="middle" style="font-size:6.00;" x="233" y="353">approved</text>
<text text-anchor="middle" style="font-size:6.00;" x="291" y="353">boolean</text>
<text text-anchor="middle" style="font-size:6.00;" x="238" y="365">shockandawe</text>
<text text-anchor="middle" style="font-size:6.00;" x="289" y="365">integer</text>
<text text-anchor="middle" style="font-size:6.00;" x="351" y="365"> REFERENCES shockandawe </text>
<text text-anchor="middle" style="font-size:6.00;" x="230" y="377">reason</text>
<text text-anchor="middle" style="font-size:6.00;" x="286" y="377">text</text>
<text text-anchor="middle" style="font-size:6.00;" x="237" y="389">highpriority</text>
<text text-anchor="middle" style="font-size:6.00;" x="291" y="389">boolean</text>
<text text-anchor="middle" style="font-size:6.00;" x="248" y="401">recipientdisplayname</text>
<text text-anchor="middle" style="font-size:6.00;" x="286" y="401">text</text>
<text text-anchor="middle" style="font-size:6.00;" x="237" y="413">addressline1</text>
<text text-anchor="middle" style="font-size:6.00;" x="286" y="413">text</text>
<text text-anchor="middle" style="font-size:6.00;" x="237" y="425">addressline2</text>
<text text-anchor="middle" style="font-size:6.00;" x="286" y="425">text</text>
<text text-anchor="middle" style="font-size:6.00;" x="237" y="437">organization</text>
<text text-anchor="middle" style="font-size:6.00;" x="286" y="437">text</text>
<text text-anchor="middle" style="font-size:6.00;" x="227" y="449">city</text>
<text text-anchor="middle" style="font-size:6.00;" x="286" y="449">text</text>
<text text-anchor="middle" style="font-size:6.00;" x="233" y="461">province</text>
<text text-anchor="middle" style="font-size:6.00;" x="286" y="461">text</text>
<text text-anchor="middle" style="font-size:6.00;" x="232" y="473">country</text>
<text text-anchor="middle" style="font-size:6.00;" x="289" y="473">integer</text>
<text text-anchor="middle" style="font-size:6.00;" x="345" y="473"> REFERENCES country </text>
<text text-anchor="middle" style="font-size:6.00;" x="233" y="485">postcode</text>
<text text-anchor="middle" style="font-size:6.00;" x="286" y="485">text</text>
<text text-anchor="middle" style="font-size:6.00;" x="230" y="497">phone</text>
<text text-anchor="middle" style="font-size:6.00;" x="286" y="497">text</text>
<text text-anchor="middle" style="font-size:6.00;" x="225" y="509">fti</text>
<text text-anchor="middle" style="font-size:6.00;" x="291" y="509">tsvector</text>
<polygon style="fill:none;stroke:black;" points="216,515 216,257 394,257 394,515 216,515"/>
</g>
<g id="edge2" class="edge"><title>requestedcds&#45;&gt;shippingrequest</title>
<path style="fill:none;stroke:black;" d="M190,385C193,385 195,385 198,385"/>
<polygon style="fill:black;stroke:black;" points="198,381 208,385 198,388 198,381"/>
</g>
<g id="node2" class="node"><title>shipment</title>
<polygon style="fill:#c1cdcc;stroke:#c1cdcc;" points="492,257 492,155 688,155 688,257 492,257"/>
<polygon style="fill:white;stroke:white;" points="495,170 495,158 685,158 685,170 495,170"/>
<text text-anchor="middle" style="font-size:6.00;" x="590" y="166">shipment</text>
<polygon style="fill:none;stroke:black;" points="495,170 495,158 685,158 685,170 495,170"/>
<text text-anchor="middle" style="font-size:6.00;" x="500" y="179">id</text>
<text text-anchor="middle" style="font-size:6.00;" x="550" y="179">serial</text>
<text text-anchor="middle" style="font-size:6.00;" x="599" y="179"> PRIMARY KEY </text>
<text text-anchor="middle" style="font-size:6.00;" x="511" y="191">logintoken</text>
<text text-anchor="middle" style="font-size:6.00;" x="549" y="191">text</text>
<text text-anchor="middle" style="font-size:6.00;" x="590" y="191"> UNIQUE </text>
<text text-anchor="middle" style="font-size:6.00;" x="512" y="203">shippingrun</text>
<text text-anchor="middle" style="font-size:6.00;" x="552" y="203">integer</text>
<text text-anchor="middle" style="font-size:6.00;" x="613" y="203"> REFERENCES shippingrun </text>
<text text-anchor="middle" style="font-size:6.00;" x="513" y="215">dateshipped</text>
<text text-anchor="middle" style="font-size:6.00;" x="557" y="215">timestamp</text>
<text text-anchor="middle" style="font-size:6.00;" x="517" y="227">shippingservice</text>
<text text-anchor="middle" style="font-size:6.00;" x="552" y="227">integer</text>
<text text-anchor="middle" style="font-size:6.00;" x="514" y="239">trackingcode</text>
<text text-anchor="middle" style="font-size:6.00;" x="549" y="239">text</text>
<text text-anchor="middle" style="font-size:6.00;" x="507" y="251">request</text>
<text text-anchor="middle" style="font-size:6.00;" x="552" y="251">integer</text>
<text text-anchor="middle" style="font-size:6.00;" x="630" y="251"> REFERENCES shippingrequest UNIQUE </text>
<polygon style="fill:none;stroke:black;" points="492,257 492,155 688,155 688,257 492,257"/>
</g>
<g id="edge6" class="edge"><title>shipment&#45;&gt;shippingrequest</title>
<path style="fill:none;stroke:black;" d="M503,261C474,279 441,300 411,320"/>
<polygon style="fill:black;stroke:black;" points="412,323 402,325 409,317 412,323"/>
</g>
<g id="node4" class="node"><title>shippingrun</title>
<polygon style="fill:#c1cdcc;stroke:#c1cdcc;" points="597,131 597,65 789,65 789,131 597,131"/>
<polygon style="fill:white;stroke:white;" points="600,80 600,68 786,68 786,80 600,80"/>
<text text-anchor="middle" style="font-size:6.00;" x="693" y="76">shippingrun</text>
<polygon style="fill:none;stroke:black;" points="600,80 600,68 786,68 786,80 600,80"/>
<text text-anchor="middle" style="font-size:6.00;" x="605" y="89">id</text>
<text text-anchor="middle" style="font-size:6.00;" x="655" y="89">serial</text>
<text text-anchor="middle" style="font-size:6.00;" x="704" y="89"> PRIMARY KEY </text>
<text text-anchor="middle" style="font-size:6.00;" x="617" y="101">datecreated</text>
<text text-anchor="middle" style="font-size:6.00;" x="662" y="101">timestamp</text>
<text text-anchor="middle" style="font-size:6.00;" x="622" y="113">sentforshipping</text>
<text text-anchor="middle" style="font-size:6.00;" x="659" y="113">boolean</text>
<text text-anchor="middle" style="font-size:6.00;" x="611" y="125">csvfile</text>
<text text-anchor="middle" style="font-size:6.00;" x="657" y="125">integer</text>
<text text-anchor="middle" style="font-size:6.00;" x="733" y="125"> REFERENCES libraryfilealias UNIQUE </text>
<polygon style="fill:none;stroke:black;" points="597,131 597,65 789,65 789,131 597,131"/>
</g>
<g id="edge4" class="edge"><title>shipment&#45;&gt;shippingrun</title>
<path style="fill:none;stroke:black;" d="M643,151C646,148 648,145 651,142"/>
<polygon style="fill:black;stroke:black;" points="648,140 658,135 653,145 648,140"/>
</g>
<g id="node5" class="node"><title>shockandawe</title>
<polygon style="fill:#c1cdcc;stroke:#c1cdcc;" points="205,139 205,73 315,73 315,139 205,139"/>
<polygon style="fill:white;stroke:white;" points="208,88 208,76 312,76 312,88 208,88"/>
<text text-anchor="middle" style="font-size:6.00;" x="260" y="84">shockandawe</text>
<polygon style="fill:none;stroke:black;" points="208,88 208,76 312,76 312,88 208,88"/>
<text text-anchor="middle" style="font-size:6.00;" x="213" y="97">id</text>
<text text-anchor="middle" style="font-size:6.00;" x="252" y="97">serial</text>
<text text-anchor="middle" style="font-size:6.00;" x="288" y="97"> PRIMARY KEY </text>
<text text-anchor="middle" style="font-size:6.00;" x="218" y="109">name</text>
<text text-anchor="middle" style="font-size:6.00;" x="251" y="109">text</text>
<text text-anchor="middle" style="font-size:6.00;" x="216" y="121">title</text>
<text text-anchor="middle" style="font-size:6.00;" x="251" y="121">text</text>
<text text-anchor="middle" style="font-size:6.00;" x="225" y="133">description</text>
<text text-anchor="middle" style="font-size:6.00;" x="251" y="133">text</text>
<polygon style="fill:none;stroke:black;" points="205,139 205,73 315,73 315,139 205,139"/>
</g>
<g id="edge14" class="edge"><title>shippingrequest&#45;&gt;shockandawe</title>
<path style="fill:none;stroke:black;" d="M284,253C278,217 272,181 268,153"/>
<polygon style="fill:black;stroke:black;" points="265,153 266,143 271,152 265,153"/>
</g>
<g id="node10" class="node"><title>fake_person_281</title>
<ellipse cx="120" cy="232" rx="27" ry="18" style="fill:none;stroke:red;"/>
<text text-anchor="middle" style="font-size:6.00;" x="120" y="234">person</text>
</g>
<g id="edge8" class="edge"><title>shippingrequest&#45;&gt;fake_person_281</title>
<path style="fill:none;stroke:black;" d="M208,305C184,285 162,267 145,253"/>
<polygon style="fill:black;stroke:black;" points="142,255 137,246 147,250 142,255"/>
</g>
<g id="node12" class="node"><title>fake_person_283</title>
<ellipse cx="325" cy="625" rx="27" ry="18" style="fill:none;stroke:red;"/>
<text text-anchor="middle" style="font-size:6.00;" x="325" y="627">person</text>
</g>
<g id="edge10" class="edge"><title>shippingrequest&#45;&gt;fake_person_283</title>
<path style="fill:none;stroke:black;" d="M316,519C319,549 321,577 323,597"/>
<polygon style="fill:black;stroke:black;" points="326,597 324,607 320,597 326,597"/>
</g>
<g id="node14" class="node"><title>fake_person_285</title>
<ellipse cx="498" cy="523" rx="27" ry="18" style="fill:none;stroke:red;"/>
<text text-anchor="middle" style="font-size:6.00;" x="498" y="525">person</text>
</g>
<g id="edge12" class="edge"><title>shippingrequest&#45;&gt;fake_person_285</title>
<path style="fill:none;stroke:black;" d="M402,455C427,473 453,491 471,504"/>
<polygon style="fill:black;stroke:black;" points="473,501 479,510 469,507 473,501"/>
</g>
<g id="node17" class="node"><title>fake_country_288</title>
<ellipse cx="140" cy="563" rx="27" ry="18" style="fill:none;stroke:red;"/>
<text text-anchor="middle" style="font-size:6.00;" x="140" y="565">country</text>
</g>
<g id="edge16" class="edge"><title>shippingrequest&#45;&gt;fake_country_288</title>
<path style="fill:none;stroke:black;" d="M208,490C190,509 174,527 161,541"/>
<polygon style="fill:black;stroke:black;" points="164,543 154,548 159,538 164,543"/>
</g>
<g id="node19" class="node"><title>fake_libraryfilealias_290</title>
<ellipse cx="742" cy="25" rx="29" ry="18" style="fill:none;stroke:red;"/>
<text text-anchor="middle" style="font-size:6.00;" x="742" y="27">libraryfilealias</text>
</g>
<g id="edge18" class="edge"><title>shippingrun&#45;&gt;fake_libraryfilealias_290</title>
<path style="fill:none;stroke:black;" d="M718,61C721,57 723,54 725,50"/>
<polygon style="fill:black;stroke:black;" points="722,48 731,42 728,52 722,48"/>
</g>
<g id="node6" class="node"><title>standardshipitrequest</title>
<polygon style="fill:#c1cdcc;stroke:#c1cdcc;" points="462,415 462,325 588,325 588,415 462,415"/>
<polygon style="fill:white;stroke:white;" points="465,340 465,328 585,328 585,340 465,340"/>
<text text-anchor="middle" style="font-size:6.00;" x="525" y="336">standardshipitrequest</text>
<polygon style="fill:none;stroke:black;" points="465,340 465,328 585,328 585,340 465,340"/>
<text text-anchor="middle" style="font-size:6.00;" x="470" y="349">id</text>
<text text-anchor="middle" style="font-size:6.00;" x="518" y="349">serial</text>
<text text-anchor="middle" style="font-size:6.00;" x="561" y="349"> PRIMARY KEY </text>
<text text-anchor="middle" style="font-size:6.00;" x="483" y="361">quantityx86</text>
<text text-anchor="middle" style="font-size:6.00;" x="520" y="361">integer</text>
<text text-anchor="middle" style="font-size:6.00;" x="552" y="361"> UNIQUE </text>
<text text-anchor="middle" style="font-size:6.00;" x="483" y="373">quantityppc</text>
<text text-anchor="middle" style="font-size:6.00;" x="520" y="373">integer</text>
<text text-anchor="middle" style="font-size:6.00;" x="552" y="373"> UNIQUE </text>
<text text-anchor="middle" style="font-size:6.00;" x="486" y="385">quantityamd64</text>
<text text-anchor="middle" style="font-size:6.00;" x="520" y="385">integer</text>
<text text-anchor="middle" style="font-size:6.00;" x="552" y="385"> UNIQUE </text>
<text text-anchor="middle" style="font-size:6.00;" x="482" y="397">description</text>
<text text-anchor="middle" style="font-size:6.00;" x="517" y="397">text</text>
<text text-anchor="middle" style="font-size:6.00;" x="478" y="409">isdefault</text>
<text text-anchor="middle" style="font-size:6.00;" x="522" y="409">boolean</text>
<polygon style="fill:none;stroke:black;" points="462,415 462,325 588,325 588,415 462,415"/>
</g>
</g>
</svg>
