<?xml version="1.0" encoding="UTF-8" standalone="no"?>
<!DOCTYPE svg PUBLIC "-//W3C//DTD SVG 1.0//EN"
 "http://www.w3.org/TR/2001/REC-SVG-20010904/DTD/svg10.dtd">
<!-- Generated by fdp version 2.2.1 (Tue Oct 11 01:38:21 UTC 2005)
     For user: (stub) Stuart Bishop,,,   Title: g    Pages: 1 -->
<svg width="776px" height="979px"
 viewBox = "-1 -1 775 978"
 xmlns="http://www.w3.org/2000/svg">
<g id="graph0" class="graph" style="font-family:Times-Roman;font-size:14.00;">
<title>g</title>
<text text-anchor="middle" style="font-size:22.00;" x="387" y="961">Shipit</text>
<g id="node1" class="node"><title>requestedcds</title>
<polygon style="fill:#c1cdcc;stroke:#c1cdcc;" points="348,932 348,814 560,814 560,932 348,932"/>
<polygon style="fill:white;stroke:white;" points="351,831 351,817 557,817 557,831 351,831"/>
<text text-anchor="middle" style="font-size:8.00;" x="454" y="827">requestedcds</text>
<polygon style="fill:none;stroke:black;" points="351,831 351,817 557,817 557,831 351,831"/>
<text text-anchor="middle" style="font-size:8.00;" x="357" y="842">id</text>
<text text-anchor="middle" style="font-size:8.00;" x="426" y="842">serial</text>
<text text-anchor="middle" style="font-size:8.00;" x="477" y="842"> PRIMARY KEY </text>
<text text-anchor="middle" style="font-size:8.00;" x="366" y="856">request</text>
<text text-anchor="middle" style="font-size:8.00;" x="429" y="856">integer</text>
<text text-anchor="middle" style="font-size:8.00;" x="501" y="856"> REFERENCES shippingrequest </text>
<text text-anchor="middle" style="font-size:8.00;" x="367" y="870">quantity</text>
<text text-anchor="middle" style="font-size:8.00;" x="429" y="870">integer</text>
<text text-anchor="middle" style="font-size:8.00;" x="366" y="884">flavour</text>
<text text-anchor="middle" style="font-size:8.00;" x="429" y="884">integer</text>
<text text-anchor="middle" style="font-size:8.00;" x="374" y="898">distrorelease</text>
<text text-anchor="middle" style="font-size:8.00;" x="429" y="898">integer</text>
<text text-anchor="middle" style="font-size:8.00;" x="373" y="912">architecture</text>
<text text-anchor="middle" style="font-size:8.00;" x="429" y="912">integer</text>
<text text-anchor="middle" style="font-size:8.00;" x="382" y="926">quantityapproved</text>
<text text-anchor="middle" style="font-size:8.00;" x="429" y="926">integer</text>
<polygon style="fill:none;stroke:black;" points="348,932 348,814 560,814 560,932 348,932"/>
</g>
<g id="node4" class="node"><title>shippingrequest</title>
<polygon style="fill:#c1cdcc;stroke:#c1cdcc;" points="301,789 301,489 531,489 531,789 301,789"/>
<polygon style="fill:white;stroke:white;" points="304,506 304,492 528,492 528,506 304,506"/>
<text text-anchor="middle" style="font-size:8.00;" x="416" y="502">shippingrequest</text>
<polygon style="fill:none;stroke:black;" points="304,506 304,492 528,492 528,506 304,506"/>
<text text-anchor="middle" style="font-size:8.00;" x="310" y="517">id</text>
<text text-anchor="middle" style="font-size:8.00;" x="393" y="517">serial</text>
<text text-anchor="middle" style="font-size:8.00;" x="455" y="517"> PRIMARY KEY </text>
<text text-anchor="middle" style="font-size:8.00;" x="321" y="531">recipient</text>
<text text-anchor="middle" style="font-size:8.00;" x="396" y="531">integer</text>
<text text-anchor="middle" style="font-size:8.00;" x="465" y="531"> REFERENCES person </text>
<text text-anchor="middle" style="font-size:8.00;" x="329" y="545">whoapproved</text>
<text text-anchor="middle" style="font-size:8.00;" x="396" y="545">integer</text>
<text text-anchor="middle" style="font-size:8.00;" x="465" y="545"> REFERENCES person </text>
<text text-anchor="middle" style="font-size:8.00;" x="322" y="559">cancelled</text>
<text text-anchor="middle" style="font-size:8.00;" x="398" y="559">boolean</text>
<text text-anchor="middle" style="font-size:8.00;" x="329" y="573">whocancelled</text>
<text text-anchor="middle" style="font-size:8.00;" x="396" y="573">integer</text>
<text text-anchor="middle" style="font-size:8.00;" x="465" y="573"> REFERENCES person </text>
<text text-anchor="middle" style="font-size:8.00;" x="329" y="587">daterequested</text>
<text text-anchor="middle" style="font-size:8.00;" x="402" y="587">timestamp</text>
<text text-anchor="middle" style="font-size:8.00;" x="322" y="601">approved</text>
<text text-anchor="middle" style="font-size:8.00;" x="398" y="601">boolean</text>
<text text-anchor="middle" style="font-size:8.00;" x="328" y="615">shockandawe</text>
<text text-anchor="middle" style="font-size:8.00;" x="396" y="615">integer</text>
<text text-anchor="middle" style="font-size:8.00;" x="476" y="615"> REFERENCES shockandawe </text>
<text text-anchor="middle" style="font-size:8.00;" x="318" y="629">reason</text>
<text text-anchor="middle" style="font-size:8.00;" x="391" y="629">text</text>
<text text-anchor="middle" style="font-size:8.00;" x="326" y="643">highpriority</text>
<text text-anchor="middle" style="font-size:8.00;" x="398" y="643">boolean</text>
<text text-anchor="middle" style="font-size:8.00;" x="342" y="657">recipientdisplayname</text>
<text text-anchor="middle" style="font-size:8.00;" x="391" y="657">text</text>
<text text-anchor="middle" style="font-size:8.00;" x="327" y="671">addressline1</text>
<text text-anchor="middle" style="font-size:8.00;" x="391" y="671">text</text>
<text text-anchor="middle" style="font-size:8.00;" x="327" y="685">addressline2</text>
<text text-anchor="middle" style="font-size:8.00;" x="391" y="685">text</text>
<text text-anchor="middle" style="font-size:8.00;" x="327" y="699">organization</text>
<text text-anchor="middle" style="font-size:8.00;" x="391" y="699">text</text>
<text text-anchor="middle" style="font-size:8.00;" x="313" y="713">city</text>
<text text-anchor="middle" style="font-size:8.00;" x="391" y="713">text</text>
<text text-anchor="middle" style="font-size:8.00;" x="321" y="727">province</text>
<text text-anchor="middle" style="font-size:8.00;" x="391" y="727">text</text>
<text text-anchor="middle" style="font-size:8.00;" x="319" y="741">country</text>
<text text-anchor="middle" style="font-size:8.00;" x="396" y="741">integer</text>
<text text-anchor="middle" style="font-size:8.00;" x="466" y="741"> REFERENCES country </text>
<text text-anchor="middle" style="font-size:8.00;" x="321" y="755">postcode</text>
<text text-anchor="middle" style="font-size:8.00;" x="391" y="755">text</text>
<text text-anchor="middle" style="font-size:8.00;" x="317" y="769">phone</text>
<text text-anchor="middle" style="font-size:8.00;" x="391" y="769">text</text>
<text text-anchor="middle" style="font-size:8.00;" x="311" y="783">fti</text>
<text text-anchor="middle" style="font-size:8.00;" x="398" y="783">tsvector</text>
<polygon style="fill:none;stroke:black;" points="301,789 301,489 531,489 531,789 301,789"/>
</g>
<g id="edge2" class="edge"><title>requestedcds&#45;&gt;shippingrequest</title>
<path style="fill:none;stroke:black;" d="M444,810C444,808 443,805 443,803"/>
<polygon style="fill:black;stroke:black;" points="440,803 441,793 446,802 440,803"/>
</g>
<g id="node2" class="node"><title>shipitreport</title>
<polygon style="fill:#c1cdcc;stroke:#c1cdcc;" points="473,364 473,302 671,302 671,364 473,364"/>
<polygon style="fill:white;stroke:white;" points="476,319 476,305 668,305 668,319 476,319"/>
<text text-anchor="middle" style="font-size:8.00;" x="572" y="315">shipitreport</text>
<polygon style="fill:none;stroke:black;" points="476,319 476,305 668,305 668,319 476,319"/>
<text text-anchor="middle" style="font-size:8.00;" x="482" y="330">id</text>
<text text-anchor="middle" style="font-size:8.00;" x="530" y="330">serial</text>
<text text-anchor="middle" style="font-size:8.00;" x="592" y="330"> PRIMARY KEY </text>
<text text-anchor="middle" style="font-size:8.00;" x="497" y="344">datecreated</text>
<text text-anchor="middle" style="font-size:8.00;" x="539" y="344">timestamp</text>
<text text-anchor="middle" style="font-size:8.00;" x="489" y="358">csvfile</text>
<text text-anchor="middle" style="font-size:8.00;" x="533" y="358">integer</text>
<text text-anchor="middle" style="font-size:8.00;" x="614" y="358"> REFERENCES libraryfilealias </text>
<polygon style="fill:none;stroke:black;" points="473,364 473,302 671,302 671,364 473,364"/>
</g>
<g id="node9" class="node"><title>fake_libraryfilealias_300</title>
<ellipse cx="733" cy="357" rx="35" ry="18" style="fill:none;stroke:red;"/>
<text text-anchor="middle" style="font-size:8.00;" x="733" y="360">libraryfilealias</text>
</g>
<g id="edge4" class="edge"><title>shipitreport&#45;&gt;fake_libraryfilealias_300</title>
<path style="fill:none;stroke:black;" d="M679,349C682,349 686,350 689,350"/>
<polygon style="fill:black;stroke:black;" points="690,347 699,352 689,353 690,347"/>
</g>
<g id="node3" class="node"><title>shipment</title>
<polygon style="fill:#c1cdcc;stroke:#c1cdcc;" points="170,464 170,346 420,346 420,464 170,464"/>
<polygon style="fill:white;stroke:white;" points="173,363 173,349 417,349 417,363 173,363"/>
<text text-anchor="middle" style="font-size:8.00;" x="295" y="359">shipment</text>
<polygon style="fill:none;stroke:black;" points="173,363 173,349 417,349 417,363 173,363"/>
<text text-anchor="middle" style="font-size:8.00;" x="179" y="374">id</text>
<text text-anchor="middle" style="font-size:8.00;" x="242" y="374">serial</text>
<text text-anchor="middle" style="font-size:8.00;" x="304" y="374"> PRIMARY KEY </text>
<text text-anchor="middle" style="font-size:8.00;" x="193" y="388">logintoken</text>
<text text-anchor="middle" style="font-size:8.00;" x="240" y="388">text</text>
<text text-anchor="middle" style="font-size:8.00;" x="292" y="388"> UNIQUE </text>
<text text-anchor="middle" style="font-size:8.00;" x="195" y="402">shippingrun</text>
<text text-anchor="middle" style="font-size:8.00;" x="245" y="402">integer</text>
<text text-anchor="middle" style="font-size:8.00;" x="322" y="402"> REFERENCES shippingrun </text>
<text text-anchor="middle" style="font-size:8.00;" x="195" y="416">dateshipped</text>
<text text-anchor="middle" style="font-size:8.00;" x="251" y="416">timestamp</text>
<text text-anchor="middle" style="font-size:8.00;" x="201" y="430">shippingservice</text>
<text text-anchor="middle" style="font-size:8.00;" x="245" y="430">integer</text>
<text text-anchor="middle" style="font-size:8.00;" x="197" y="444">trackingcode</text>
<text text-anchor="middle" style="font-size:8.00;" x="240" y="444">text</text>
<text text-anchor="middle" style="font-size:8.00;" x="188" y="458">request</text>
<text text-anchor="middle" style="font-size:8.00;" x="245" y="458">integer</text>
<text text-anchor="middle" style="font-size:8.00;" x="345" y="458"> REFERENCES shippingrequest UNIQUE </text>
<polygon style="fill:none;stroke:black;" points="170,464 170,346 420,346 420,464 170,464"/>
</g>
<g id="edge8" class="edge"><title>shipment&#45;&gt;shippingrequest</title>
<path style="fill:none;stroke:black;" d="M328,468C329,470 331,473 332,476"/>
<polygon style="fill:black;stroke:black;" points="335,474 336,485 329,477 335,474"/>
</g>
<g id="node5" class="node"><title>shippingrun</title>
<polygon style="fill:#c1cdcc;stroke:#c1cdcc;" points="14,137 14,61 258,61 258,137 14,137"/>
<polygon style="fill:white;stroke:white;" points="17,78 17,64 255,64 255,78 17,78"/>
<text text-anchor="middle" style="font-size:8.00;" x="136" y="74">shippingrun</text>
<polygon style="fill:none;stroke:black;" points="17,78 17,64 255,64 255,78 17,78"/>
<text text-anchor="middle" style="font-size:8.00;" x="23" y="89">id</text>
<text text-anchor="middle" style="font-size:8.00;" x="85" y="89">serial</text>
<text text-anchor="middle" style="font-size:8.00;" x="147" y="89"> PRIMARY KEY </text>
<text text-anchor="middle" style="font-size:8.00;" x="38" y="103">datecreated</text>
<text text-anchor="middle" style="font-size:8.00;" x="94" y="103">timestamp</text>
<text text-anchor="middle" style="font-size:8.00;" x="45" y="117">sentforshipping</text>
<text text-anchor="middle" style="font-size:8.00;" x="90" y="117">boolean</text>
<text text-anchor="middle" style="font-size:8.00;" x="30" y="131">csvfile</text>
<text text-anchor="middle" style="font-size:8.00;" x="88" y="131">integer</text>
<text text-anchor="middle" style="font-size:8.00;" x="185" y="131"> REFERENCES libraryfilealias UNIQUE </text>
<polygon style="fill:none;stroke:black;" points="14,137 14,61 258,61 258,137 14,137"/>
</g>
<g id="edge6" class="edge"><title>shipment&#45;&gt;shippingrun</title>
<path style="fill:none;stroke:black;" d="M262,342C233,285 190,203 163,150"/>
<polygon style="fill:black;stroke:black;" points="160,151 158,141 166,148 160,151"/>
</g>
<g id="node6" class="node"><title>shockandawe</title>
<polygon style="fill:#c1cdcc;stroke:#c1cdcc;" points="131,678 131,602 267,602 267,678 131,678"/>
<polygon style="fill:white;stroke:white;" points="134,619 134,605 264,605 264,619 134,619"/>
<text text-anchor="middle" style="font-size:8.00;" x="199" y="615">shockandawe</text>
<polygon style="fill:none;stroke:black;" points="134,619 134,605 264,605 264,619 134,619"/>
<text text-anchor="middle" style="font-size:8.00;" x="140" y="630">id</text>
<text text-anchor="middle" style="font-size:8.00;" x="187" y="630">serial</text>
<text text-anchor="middle" style="font-size:8.00;" x="232" y="630"> PRIMARY KEY </text>
<text text-anchor="middle" style="font-size:8.00;" x="146" y="644">name</text>
<text text-anchor="middle" style="font-size:8.00;" x="185" y="644">text</text>
<text text-anchor="middle" style="font-size:8.00;" x="143" y="658">title</text>
<text text-anchor="middle" style="font-size:8.00;" x="185" y="658">text</text>
<text text-anchor="middle" style="font-size:8.00;" x="154" y="672">description</text>
<text text-anchor="middle" style="font-size:8.00;" x="185" y="672">text</text>
<polygon style="fill:none;stroke:black;" points="131,678 131,602 267,602 267,678 131,678"/>
</g>
<g id="edge16" class="edge"><title>shippingrequest&#45;&gt;shockandawe</title>
<path style="fill:none;stroke:black;" d="M293,640C290,640 288,640 285,640"/>
<polygon style="fill:black;stroke:black;" points="285,643 275,640 285,636 285,643"/>
</g>
<g id="node13" class="node"><title>fake_person_304</title>
<ellipse cx="252" cy="844" rx="27" ry="18" style="fill:none;stroke:red;"/>
<text text-anchor="middle" style="font-size:8.00;" x="252" y="847">person</text>
</g>
<g id="edge10" class="edge"><title>shippingrequest&#45;&gt;fake_person_304</title>
<path style="fill:none;stroke:black;" d="M293,793C285,803 278,812 272,820"/>
<polygon style="fill:black;stroke:black;" points="274,823 265,828 269,818 274,823"/>
</g>
<g id="node15" class="node"><title>fake_person_306</title>
<ellipse cx="582" cy="617" rx="27" ry="18" style="fill:none;stroke:red;"/>
<text text-anchor="middle" style="font-size:8.00;" x="582" y="620">person</text>
</g>
<g id="edge12" class="edge"><title>shippingrequest&#45;&gt;fake_person_306</title>
<path style="fill:none;stroke:black;" d="M539,623C541,623 543,622 545,622"/>
<polygon style="fill:black;stroke:black;" points="545,619 555,621 545,625 545,619"/>
</g>
<g id="node17" class="node"><title>fake_person_308</title>
<ellipse cx="590" cy="448" rx="27" ry="18" style="fill:none;stroke:red;"/>
<text text-anchor="middle" style="font-size:8.00;" x="590" y="451">person</text>
</g>
<g id="edge14" class="edge"><title>shippingrequest&#45;&gt;fake_person_308</title>
<path style="fill:none;stroke:black;" d="M539,504C550,492 561,481 569,472"/>
<polygon style="fill:black;stroke:black;" points="567,469 576,464 572,474 567,469"/>
</g>
<g id="node20" class="node"><title>fake_country_311</title>
<ellipse cx="636" cy="784" rx="27" ry="18" style="fill:none;stroke:red;"/>
<text text-anchor="middle" style="font-size:8.00;" x="636" y="787">country</text>
</g>
<g id="edge18" class="edge"><title>shippingrequest&#45;&gt;fake_country_311</title>
<path style="fill:none;stroke:black;" d="M539,720C565,737 590,754 608,766"/>
<polygon style="fill:black;stroke:black;" points="610,763 617,771 607,769 610,763"/>
</g>
<g id="node22" class="node"><title>fake_libraryfilealias_313</title>
<ellipse cx="96" cy="23" rx="35" ry="18" style="fill:none;stroke:red;"/>
<text text-anchor="middle" style="font-size:8.00;" x="96" y="26">libraryfilealias</text>
</g>
<g id="edge20" class="edge"><title>shippingrun&#45;&gt;fake_libraryfilealias_313</title>
<path style="fill:none;stroke:black;" d="M114,57C113,54 111,52 110,49"/>
<polygon style="fill:black;stroke:black;" points="107,50 105,40 113,47 107,50"/>
</g>
<g id="node7" class="node"><title>standardshipitrequest</title>
<polygon style="fill:#c1cdcc;stroke:#c1cdcc;" points="269,320 269,216 427,216 427,320 269,320"/>
<polygon style="fill:white;stroke:white;" points="272,233 272,219 424,219 424,233 272,233"/>
<text text-anchor="middle" style="font-size:8.00;" x="348" y="229">standardshipitrequest</text>
<polygon style="fill:none;stroke:black;" points="272,233 272,219 424,219 424,233 272,233"/>
<text text-anchor="middle" style="font-size:8.00;" x="278" y="244">id</text>
<text text-anchor="middle" style="font-size:8.00;" x="338" y="244">serial</text>
<text text-anchor="middle" style="font-size:8.00;" x="392" y="244"> PRIMARY KEY </text>
<text text-anchor="middle" style="font-size:8.00;" x="294" y="258">quantityx86</text>
<text text-anchor="middle" style="font-size:8.00;" x="341" y="258">integer</text>
<text text-anchor="middle" style="font-size:8.00;" x="380" y="258"> UNIQUE </text>
<text text-anchor="middle" style="font-size:8.00;" x="294" y="272">quantityppc</text>
<text text-anchor="middle" style="font-size:8.00;" x="341" y="272">integer</text>
<text text-anchor="middle" style="font-size:8.00;" x="380" y="272"> UNIQUE </text>
<text text-anchor="middle" style="font-size:8.00;" x="299" y="286">quantityamd64</text>
<text text-anchor="middle" style="font-size:8.00;" x="341" y="286">integer</text>
<text text-anchor="middle" style="font-size:8.00;" x="380" y="286"> UNIQUE </text>
<text text-anchor="middle" style="font-size:8.00;" x="292" y="300">description</text>
<text text-anchor="middle" style="font-size:8.00;" x="336" y="300">text</text>
<text text-anchor="middle" style="font-size:8.00;" x="289" y="314">isdefault</text>
<text text-anchor="middle" style="font-size:8.00;" x="343" y="314">boolean</text>
<polygon style="fill:none;stroke:black;" points="269,320 269,216 427,216 427,320 269,320"/>
</g>
</g>
</svg>
