<?xml version="1.0" encoding="UTF-8" standalone="no"?>
<!DOCTYPE svg PUBLIC "-//W3C//DTD SVG 1.0//EN"
 "http://www.w3.org/TR/2001/REC-SVG-20010904/DTD/svg10.dtd">
<!-- Generated by fdp version 2.2.1 (Thu Apr 14 05:40:09 UTC 2005)
     For user: (stub) Stuart Bishop,,,   Title: g    Pages: 1 -->
<svg width="612px" height="535px"
 viewBox = "-1 -1 611 534"
 xmlns="http://www.w3.org/2000/svg">
<g id="graph0" class="graph" transform = "scale(0.723375)"
 style="font-family:Times-Roman;font-size:14.00;">
<title>g</title>
<text text-anchor="middle" style="font-size:22.00;" x="420" y="720">Specifications</text>
<g id="node1" class="node"><title>specification</title>
<polygon style="fill:#c1cdcc;stroke:#c1cdcc;" points="255,501 255,267 571,267 571,501 255,501"/>
<polygon style="fill:white;stroke:white;" points="258,282 258,270 568,270 568,282 258,282"/>
<text text-anchor="middle" style="font-size:6.00;" x="413" y="278">specification</text>
<polygon style="fill:none;stroke:black;" points="258,282 258,270 568,270 568,282 258,282"/>
<text text-anchor="middle" style="font-size:6.00;" x="263" y="291">id</text>
<text text-anchor="middle" style="font-size:6.00;" x="308" y="291">serial</text>
<text text-anchor="middle" style="font-size:6.00;" x="357" y="291"> PRIMARY KEY </text>
<text text-anchor="middle" style="font-size:6.00;" x="268" y="303">name</text>
<text text-anchor="middle" style="font-size:6.00;" x="307" y="303">text</text>
<text text-anchor="middle" style="font-size:6.00;" x="360" y="303"> UNIQUE UNIQUE </text>
<text text-anchor="middle" style="font-size:6.00;" x="266" y="315">title</text>
<text text-anchor="middle" style="font-size:6.00;" x="307" y="315">text</text>
<text text-anchor="middle" style="font-size:6.00;" x="272" y="327">summary</text>
<text text-anchor="middle" style="font-size:6.00;" x="307" y="327">text</text>
<text text-anchor="middle" style="font-size:6.00;" x="269" y="339">owner</text>
<text text-anchor="middle" style="font-size:6.00;" x="310" y="339">integer</text>
<text text-anchor="middle" style="font-size:6.00;" x="364" y="339"> REFERENCES person </text>
<text text-anchor="middle" style="font-size:6.00;" x="271" y="351">assignee</text>
<text text-anchor="middle" style="font-size:6.00;" x="310" y="351">integer</text>
<text text-anchor="middle" style="font-size:6.00;" x="364" y="351"> REFERENCES person </text>
<text text-anchor="middle" style="font-size:6.00;" x="269" y="363">drafter</text>
<text text-anchor="middle" style="font-size:6.00;" x="310" y="363">integer</text>
<text text-anchor="middle" style="font-size:6.00;" x="364" y="363"> REFERENCES person </text>
<text text-anchor="middle" style="font-size:6.00;" x="272" y="375">approver</text>
<text text-anchor="middle" style="font-size:6.00;" x="310" y="375">integer</text>
<text text-anchor="middle" style="font-size:6.00;" x="364" y="375"> REFERENCES person </text>
<text text-anchor="middle" style="font-size:6.00;" x="275" y="387">datecreated</text>
<text text-anchor="middle" style="font-size:6.00;" x="315" y="387">timestamp</text>
<text text-anchor="middle" style="font-size:6.00;" x="270" y="399">product</text>
<text text-anchor="middle" style="font-size:6.00;" x="310" y="399">integer</text>
<text text-anchor="middle" style="font-size:6.00;" x="446" y="399"> REFERENCES product REFERENCES milestone UNIQUE REFERENCES productseries </text>
<text text-anchor="middle" style="font-size:6.00;" x="277" y="411">productseries</text>
<text text-anchor="middle" style="font-size:6.00;" x="310" y="411">integer</text>
<text text-anchor="middle" style="font-size:6.00;" x="372" y="411"> REFERENCES productseries </text>
<text text-anchor="middle" style="font-size:6.00;" x="275" y="423">distribution</text>
<text text-anchor="middle" style="font-size:6.00;" x="310" y="423">integer</text>
<text text-anchor="middle" style="font-size:6.00;" x="450" y="423"> REFERENCES distribution REFERENCES milestone UNIQUE REFERENCES distrorelease </text>
<text text-anchor="middle" style="font-size:6.00;" x="276" y="435">distrorelease</text>
<text text-anchor="middle" style="font-size:6.00;" x="310" y="435">integer</text>
<text text-anchor="middle" style="font-size:6.00;" x="371" y="435"> REFERENCES distrorelease </text>
<text text-anchor="middle" style="font-size:6.00;" x="273" y="447">milestone</text>
<text text-anchor="middle" style="font-size:6.00;" x="310" y="447">integer</text>
<text text-anchor="middle" style="font-size:6.00;" x="400" y="447"> REFERENCES milestone REFERENCES milestone </text>
<text text-anchor="middle" style="font-size:6.00;" x="268" y="459">status</text>
<text text-anchor="middle" style="font-size:6.00;" x="310" y="459">integer</text>
<text text-anchor="middle" style="font-size:6.00;" x="270" y="471">priority</text>
<text text-anchor="middle" style="font-size:6.00;" x="310" y="471">integer</text>
<text text-anchor="middle" style="font-size:6.00;" x="269" y="483">specurl</text>
<text text-anchor="middle" style="font-size:6.00;" x="307" y="483">text</text>
<text text-anchor="middle" style="font-size:6.00;" x="348" y="483"> UNIQUE </text>
<text text-anchor="middle" style="font-size:6.00;" x="275" y="495">whiteboard</text>
<text text-anchor="middle" style="font-size:6.00;" x="307" y="495">text</text>
<polygon style="fill:none;stroke:black;" points="255,501 255,267 571,267 571,501 255,501"/>
</g>
<g id="node6" class="node"><title>fake_person_284</title>
<ellipse cx="261" cy="205" rx="27" ry="18" style="fill:none;stroke:red;"/>
<text text-anchor="middle" style="font-size:6.00;" x="261" y="207">person</text>
</g>
<g id="edge2" class="edge"><title>specification&#45;&gt;fake_person_284</title>
<path style="fill:none;stroke:black;" d="M310,263C299,250 289,238 281,229"/>
<polygon style="fill:black;stroke:black;" points="278,231 275,221 284,227 278,231"/>
</g>
<g id="node8" class="node"><title>fake_person_286</title>
<ellipse cx="139" cy="478" rx="27" ry="18" style="fill:none;stroke:red;"/>
<text text-anchor="middle" style="font-size:6.00;" x="139" y="480">person</text>
</g>
<g id="edge4" class="edge"><title>specification&#45;&gt;fake_person_286</title>
<path style="fill:none;stroke:black;" d="M247,441C219,450 192,460 173,467"/>
<polygon style="fill:black;stroke:black;" points="174,470 163,470 172,464 174,470"/>
</g>
<g id="node10" class="node"><title>fake_person_288</title>
<ellipse cx="538" cy="659" rx="27" ry="18" style="fill:none;stroke:red;"/>
<text text-anchor="middle" style="font-size:6.00;" x="538" y="661">person</text>
</g>
<g id="edge6" class="edge"><title>specification&#45;&gt;fake_person_288</title>
<path style="fill:none;stroke:black;" d="M468,505C489,552 513,602 526,632"/>
<polygon style="fill:black;stroke:black;" points="529,630 530,641 523,633 529,630"/>
</g>
<g id="node12" class="node"><title>fake_person_290</title>
<ellipse cx="280" cy="641" rx="27" ry="18" style="fill:none;stroke:red;"/>
<text text-anchor="middle" style="font-size:6.00;" x="280" y="643">person</text>
</g>
<g id="edge8" class="edge"><title>specification&#45;&gt;fake_person_290</title>
<path style="fill:none;stroke:black;" d="M350,505C329,547 307,589 294,615"/>
<polygon style="fill:black;stroke:black;" points="297,617 289,624 291,614 297,617"/>
</g>
<g id="node14" class="node"><title>fake_product_292</title>
<ellipse cx="393" cy="677" rx="27" ry="18" style="fill:none;stroke:red;"/>
<text text-anchor="middle" style="font-size:6.00;" x="393" y="679">product</text>
</g>
<g id="edge10" class="edge"><title>specification&#45;&gt;fake_product_292</title>
<path style="fill:none;stroke:black;" d="M405,505C401,558 397,616 395,649"/>
<polygon style="fill:black;stroke:black;" points="398,649 394,659 392,649 398,649"/>
</g>
<g id="node16" class="node"><title>fake_milestone_294</title>
<ellipse cx="576" cy="599" rx="27" ry="18" style="fill:none;stroke:red;"/>
<text text-anchor="middle" style="font-size:6.00;" x="576" y="601">milestone</text>
</g>
<g id="edge12" class="edge"><title>specification&#45;&gt;fake_milestone_294</title>
<path style="fill:none;stroke:black;" d="M505,505C525,532 545,557 558,575"/>
<polygon style="fill:black;stroke:black;" points="561,573 564,583 555,577 561,573"/>
</g>
<g id="node18" class="node"><title>fake_productseries_296</title>
<ellipse cx="117" cy="366" rx="28" ry="18" style="fill:none;stroke:red;"/>
<text text-anchor="middle" style="font-size:6.00;" x="117" y="368">productseries</text>
</g>
<g id="edge14" class="edge"><title>specification&#45;&gt;fake_productseries_296</title>
<path style="fill:none;stroke:black;" d="M247,374C212,372 179,370 155,368"/>
<polygon style="fill:black;stroke:black;" points="155,371 145,368 155,364 155,371"/>
</g>
<g id="node20" class="node"><title>fake_distribution_298</title>
<ellipse cx="703" cy="334" rx="27" ry="18" style="fill:none;stroke:red;"/>
<text text-anchor="middle" style="font-size:6.00;" x="703" y="336">distribution</text>
</g>
<g id="edge16" class="edge"><title>specification&#45;&gt;fake_distribution_298</title>
<path style="fill:none;stroke:black;" d="M579,355C612,350 643,344 666,340"/>
<polygon style="fill:black;stroke:black;" points="666,337 676,339 666,343 666,337"/>
</g>
<g id="node22" class="node"><title>fake_milestone_300</title>
<ellipse cx="671" cy="225" rx="27" ry="18" style="fill:none;stroke:red;"/>
<text text-anchor="middle" style="font-size:6.00;" x="671" y="227">milestone</text>
</g>
<g id="edge18" class="edge"><title>specification&#45;&gt;fake_milestone_300</title>
<path style="fill:none;stroke:black;" d="M579,282C603,267 626,253 642,243"/>
<polygon style="fill:black;stroke:black;" points="641,240 651,237 645,245 641,240"/>
</g>
<g id="node24" class="node"><title>fake_distrorelease_302</title>
<ellipse cx="592" cy="142" rx="27" ry="18" style="fill:none;stroke:red;"/>
<text text-anchor="middle" style="font-size:6.00;" x="592" y="144">distrorelease</text>
</g>
<g id="edge20" class="edge"><title>specification&#45;&gt;fake_distrorelease_302</title>
<path style="fill:none;stroke:black;" d="M503,263C530,226 557,189 574,166"/>
<polygon style="fill:black;stroke:black;" points="571,164 580,158 577,168 571,164"/>
</g>
<g id="node2" class="node"><title>specificationbug</title>
<polygon style="fill:#c1cdcc;stroke:#c1cdcc;" points="654,542 654,488 826,488 826,542 654,542"/>
<polygon style="fill:white;stroke:white;" points="657,503 657,491 823,491 823,503 657,503"/>
<text text-anchor="middle" style="font-size:6.00;" x="740" y="499">specificationbug</text>
<polygon style="fill:none;stroke:black;" points="657,503 657,491 823,491 823,503 657,503"/>
<text text-anchor="middle" style="font-size:6.00;" x="662" y="512">id</text>
<text text-anchor="middle" style="font-size:6.00;" x="705" y="512">serial</text>
<text text-anchor="middle" style="font-size:6.00;" x="745" y="512"> PRIMARY KEY </text>
<text text-anchor="middle" style="font-size:6.00;" x="675" y="524">specification</text>
<text text-anchor="middle" style="font-size:6.00;" x="707" y="524">integer</text>
<text text-anchor="middle" style="font-size:6.00;" x="772" y="524"> UNIQUE REFERENCES specification </text>
<text text-anchor="middle" style="font-size:6.00;" x="665" y="536">bug</text>
<text text-anchor="middle" style="font-size:6.00;" x="707" y="536">integer</text>
<text text-anchor="middle" style="font-size:6.00;" x="761" y="536"> UNIQUE REFERENCES bug </text>
<polygon style="fill:none;stroke:black;" points="654,542 654,488 826,488 826,542 654,542"/>
</g>
<g id="edge22" class="edge"><title>specificationbug&#45;&gt;specification</title>
<path style="fill:none;stroke:black;" d="M663,484C641,475 615,465 589,454"/>
<polygon style="fill:black;stroke:black;" points="587,457 579,450 590,450 587,457"/>
</g>
<g id="node27" class="node"><title>fake_bug_305</title>
<ellipse cx="797" cy="446" rx="27" ry="18" style="fill:none;stroke:red;"/>
<text text-anchor="middle" style="font-size:6.00;" x="797" y="448">bug</text>
</g>
<g id="edge24" class="edge"><title>specificationbug&#45;&gt;fake_bug_305</title>
<path style="fill:none;stroke:black;" d="M766,484C770,479 774,474 777,470"/>
<polygon style="fill:black;stroke:black;" points="775,467 784,462 780,472 775,467"/>
</g>
<g id="node3" class="node"><title>specificationdependency</title>
<polygon style="fill:#c1cdcc;stroke:#c1cdcc;" points="33,635 33,581 205,581 205,635 33,635"/>
<polygon style="fill:white;stroke:white;" points="36,596 36,584 202,584 202,596 36,596"/>
<text text-anchor="middle" style="font-size:6.00;" x="119" y="592">specificationdependency</text>
<polygon style="fill:none;stroke:black;" points="36,596 36,584 202,584 202,596 36,596"/>
<text text-anchor="middle" style="font-size:6.00;" x="41" y="605">id</text>
<text text-anchor="middle" style="font-size:6.00;" x="84" y="605">serial</text>
<text text-anchor="middle" style="font-size:6.00;" x="124" y="605"> PRIMARY KEY </text>
<text text-anchor="middle" style="font-size:6.00;" x="54" y="617">specification</text>
<text text-anchor="middle" style="font-size:6.00;" x="86" y="617">integer</text>
<text text-anchor="middle" style="font-size:6.00;" x="151" y="617"> REFERENCES specification UNIQUE </text>
<text text-anchor="middle" style="font-size:6.00;" x="54" y="629">dependency</text>
<text text-anchor="middle" style="font-size:6.00;" x="86" y="629">integer</text>
<text text-anchor="middle" style="font-size:6.00;" x="151" y="629"> REFERENCES specification UNIQUE </text>
<polygon style="fill:none;stroke:black;" points="33,635 33,581 205,581 205,635 33,635"/>
</g>
<g id="edge26" class="edge"><title>specificationdependency&#45;&gt;specification</title>
<path style="fill:none;stroke:black;" d="M152,577C174,558 206,534 239,508"/>
<polygon style="fill:black;stroke:black;" points="237,505 247,502 241,511 237,505"/>
</g>
<g id="edge28" class="edge"><title>specificationdependency&#45;&gt;specification</title>
<path style="fill:none;stroke:black;" d="M167,577C192,559 224,536 256,511"/>
<polygon style="fill:black;stroke:black;" points="254,508 264,505 258,514 254,508"/>
</g>
<g id="node4" class="node"><title>specificationreview</title>
<polygon style="fill:#c1cdcc;stroke:#c1cdcc;" points="341,233 341,155 513,155 513,233 341,233"/>
<polygon style="fill:white;stroke:white;" points="344,170 344,158 510,158 510,170 344,170"/>
<text text-anchor="middle" style="font-size:6.00;" x="427" y="166">specificationreview</text>
<polygon style="fill:none;stroke:black;" points="344,170 344,158 510,158 510,170 344,170"/>
<text text-anchor="middle" style="font-size:6.00;" x="349" y="179">id</text>
<text text-anchor="middle" style="font-size:6.00;" x="392" y="179">serial</text>
<text text-anchor="middle" style="font-size:6.00;" x="432" y="179"> PRIMARY KEY </text>
<text text-anchor="middle" style="font-size:6.00;" x="362" y="191">specification</text>
<text text-anchor="middle" style="font-size:6.00;" x="394" y="191">integer</text>
<text text-anchor="middle" style="font-size:6.00;" x="459" y="191"> UNIQUE REFERENCES specification </text>
<text text-anchor="middle" style="font-size:6.00;" x="357" y="203">reviewer</text>
<text text-anchor="middle" style="font-size:6.00;" x="394" y="203">integer</text>
<text text-anchor="middle" style="font-size:6.00;" x="451" y="203"> REFERENCES person UNIQUE </text>
<text text-anchor="middle" style="font-size:6.00;" x="358" y="215">requestor</text>
<text text-anchor="middle" style="font-size:6.00;" x="394" y="215">integer</text>
<text text-anchor="middle" style="font-size:6.00;" x="439" y="215"> REFERENCES person </text>
<text text-anchor="middle" style="font-size:6.00;" x="359" y="227">queuemsg</text>
<text text-anchor="middle" style="font-size:6.00;" x="391" y="227">text</text>
<polygon style="fill:none;stroke:black;" points="341,233 341,155 513,155 513,233 341,233"/>
</g>
<g id="edge30" class="edge"><title>specificationreview&#45;&gt;specification</title>
<path style="fill:none;stroke:black;" d="M424,237C423,242 423,247 423,253"/>
<polygon style="fill:black;stroke:black;" points="426,253 422,263 420,253 426,253"/>
</g>
<g id="node32" class="node"><title>fake_person_310</title>
<ellipse cx="363" cy="26" rx="27" ry="18" style="fill:none;stroke:red;"/>
<text text-anchor="middle" style="font-size:6.00;" x="363" y="28">person</text>
</g>
<g id="edge32" class="edge"><title>specificationreview&#45;&gt;fake_person_310</title>
<path style="fill:none;stroke:black;" d="M411,151C400,120 384,80 374,54"/>
<polygon style="fill:black;stroke:black;" points="370,55 370,44 377,52 370,55"/>
</g>
<g id="node34" class="node"><title>fake_person_312</title>
<ellipse cx="508" cy="32" rx="27" ry="18" style="fill:none;stroke:red;"/>
<text text-anchor="middle" style="font-size:6.00;" x="508" y="34">person</text>
</g>
<g id="edge34" class="edge"><title>specificationreview&#45;&gt;fake_person_312</title>
<path style="fill:none;stroke:black;" d="M449,151C464,122 483,83 495,58"/>
<polygon style="fill:black;stroke:black;" points="492,56 500,49 498,59 492,56"/>
</g>
<g id="node5" class="node"><title>specificationsubscription</title>
<polygon style="fill:#c1cdcc;stroke:#c1cdcc;" points="75,138 75,84 247,84 247,138 75,138"/>
<polygon style="fill:white;stroke:white;" points="78,99 78,87 244,87 244,99 78,99"/>
<text text-anchor="middle" style="font-size:6.00;" x="161" y="95">specificationsubscription</text>
<polygon style="fill:none;stroke:black;" points="78,99 78,87 244,87 244,99 78,99"/>
<text text-anchor="middle" style="font-size:6.00;" x="83" y="108">id</text>
<text text-anchor="middle" style="font-size:6.00;" x="126" y="108">serial</text>
<text text-anchor="middle" style="font-size:6.00;" x="166" y="108"> PRIMARY KEY </text>
<text text-anchor="middle" style="font-size:6.00;" x="96" y="120">specification</text>
<text text-anchor="middle" style="font-size:6.00;" x="128" y="120">integer</text>
<text text-anchor="middle" style="font-size:6.00;" x="193" y="120"> UNIQUE REFERENCES specification </text>
<text text-anchor="middle" style="font-size:6.00;" x="89" y="132">person</text>
<text text-anchor="middle" style="font-size:6.00;" x="128" y="132">integer</text>
<text text-anchor="middle" style="font-size:6.00;" x="185" y="132"> REFERENCES person UNIQUE </text>
<polygon style="fill:none;stroke:black;" points="75,138 75,84 247,84 247,138 75,138"/>
</g>
<g id="edge36" class="edge"><title>specificationsubscription&#45;&gt;specification</title>
<path style="fill:none;stroke:black;" d="M190,142C216,170 255,213 294,256"/>
<polygon style="fill:black;stroke:black;" points="296,253 301,263 291,258 296,253"/>
</g>
<g id="node37" class="node"><title>fake_person_315</title>
<ellipse cx="33" cy="178" rx="27" ry="18" style="fill:none;stroke:red;"/>
<text text-anchor="middle" style="font-size:6.00;" x="33" y="180">person</text>
</g>
<g id="edge38" class="edge"><title>specificationsubscription&#45;&gt;fake_person_315</title>
<path style="fill:none;stroke:black;" d="M101,142C88,149 74,156 63,162"/>
<polygon style="fill:black;stroke:black;" points="64,165 54,167 61,159 64,165"/>
</g>
</g>
</svg>
