<?xml version="1.0" encoding="UTF-8" standalone="no"?>
<!DOCTYPE svg PUBLIC "-//W3C//DTD SVG 1.0//EN"
 "http://www.w3.org/TR/2001/REC-SVG-20010904/DTD/svg10.dtd">
<!-- Generated by fdp version 2.2.1 (Tue Oct 11 01:38:21 UTC 2005)
     For user: (stub) Stuart Bishop,,,   Title: g    Pages: 1 -->
<svg width="1334px" height="886px"
 viewBox = "-1 -1 1333 885"
 xmlns="http://www.w3.org/2000/svg">
<g id="graph0" class="graph" style="font-family:Times-Roman;font-size:14.00;">
<title>g</title>
<text text-anchor="middle" style="font-size:22.00;" x="666" y="868">Specifications</text>
<g id="node1" class="node"><title>specification</title>
<polygon style="fill:#c1cdcc;stroke:#c1cdcc;" points="443,641 443,285 871,285 871,641 443,641"/>
<polygon style="fill:white;stroke:white;" points="446,302 446,288 868,288 868,302 446,302"/>
<text text-anchor="middle" style="font-size:8.00;" x="657" y="298">specification</text>
<polygon style="fill:none;stroke:black;" points="446,302 446,288 868,288 868,302 446,302"/>
<text text-anchor="middle" style="font-size:8.00;" x="452" y="313">id</text>
<text text-anchor="middle" style="font-size:8.00;" x="528" y="313">serial</text>
<text text-anchor="middle" style="font-size:8.00;" x="590" y="313"> PRIMARY KEY </text>
<text text-anchor="middle" style="font-size:8.00;" x="458" y="327">name</text>
<text text-anchor="middle" style="font-size:8.00;" x="526" y="327">text</text>
<text text-anchor="middle" style="font-size:8.00;" x="594" y="327"> UNIQUE UNIQUE </text>
<text text-anchor="middle" style="font-size:8.00;" x="455" y="341">title</text>
<text text-anchor="middle" style="font-size:8.00;" x="526" y="341">text</text>
<text text-anchor="middle" style="font-size:8.00;" x="464" y="355">summary</text>
<text text-anchor="middle" style="font-size:8.00;" x="526" y="355">text</text>
<text text-anchor="middle" style="font-size:8.00;" x="459" y="369">owner</text>
<text text-anchor="middle" style="font-size:8.00;" x="531" y="369">integer</text>
<text text-anchor="middle" style="font-size:8.00;" x="600" y="369"> REFERENCES person </text>
<text text-anchor="middle" style="font-size:8.00;" x="462" y="383">assignee</text>
<text text-anchor="middle" style="font-size:8.00;" x="531" y="383">integer</text>
<text text-anchor="middle" style="font-size:8.00;" x="600" y="383"> REFERENCES person </text>
<text text-anchor="middle" style="font-size:8.00;" x="459" y="397">drafter</text>
<text text-anchor="middle" style="font-size:8.00;" x="531" y="397">integer</text>
<text text-anchor="middle" style="font-size:8.00;" x="600" y="397"> REFERENCES person </text>
<text text-anchor="middle" style="font-size:8.00;" x="463" y="411">approver</text>
<text text-anchor="middle" style="font-size:8.00;" x="531" y="411">integer</text>
<text text-anchor="middle" style="font-size:8.00;" x="600" y="411"> REFERENCES person </text>
<text text-anchor="middle" style="font-size:8.00;" x="467" y="425">datecreated</text>
<text text-anchor="middle" style="font-size:8.00;" x="537" y="425">timestamp</text>
<text text-anchor="middle" style="font-size:8.00;" x="461" y="439">product</text>
<text text-anchor="middle" style="font-size:8.00;" x="531" y="439">integer</text>
<text text-anchor="middle" style="font-size:8.00;" x="708" y="439"> REFERENCES product REFERENCES milestone UNIQUE REFERENCES productseries </text>
<text text-anchor="middle" style="font-size:8.00;" x="471" y="453">productseries</text>
<text text-anchor="middle" style="font-size:8.00;" x="531" y="453">integer</text>
<text text-anchor="middle" style="font-size:8.00;" x="610" y="453"> REFERENCES productseries </text>
<text text-anchor="middle" style="font-size:8.00;" x="467" y="467">distribution</text>
<text text-anchor="middle" style="font-size:8.00;" x="531" y="467">integer</text>
<text text-anchor="middle" style="font-size:8.00;" x="713" y="467"> REFERENCES distribution REFERENCES milestone UNIQUE REFERENCES distrorelease </text>
<text text-anchor="middle" style="font-size:8.00;" x="469" y="481">distrorelease</text>
<text text-anchor="middle" style="font-size:8.00;" x="531" y="481">integer</text>
<text text-anchor="middle" style="font-size:8.00;" x="609" y="481"> REFERENCES distrorelease </text>
<text text-anchor="middle" style="font-size:8.00;" x="465" y="495">milestone</text>
<text text-anchor="middle" style="font-size:8.00;" x="531" y="495">integer</text>
<text text-anchor="middle" style="font-size:8.00;" x="647" y="495"> REFERENCES milestone REFERENCES milestone </text>
<text text-anchor="middle" style="font-size:8.00;" x="458" y="509">status</text>
<text text-anchor="middle" style="font-size:8.00;" x="531" y="509">integer</text>
<text text-anchor="middle" style="font-size:8.00;" x="461" y="523">priority</text>
<text text-anchor="middle" style="font-size:8.00;" x="531" y="523">integer</text>
<text text-anchor="middle" style="font-size:8.00;" x="460" y="537">specurl</text>
<text text-anchor="middle" style="font-size:8.00;" x="526" y="537">text</text>
<text text-anchor="middle" style="font-size:8.00;" x="578" y="537"> UNIQUE </text>
<text text-anchor="middle" style="font-size:8.00;" x="467" y="551">whiteboard</text>
<text text-anchor="middle" style="font-size:8.00;" x="526" y="551">text</text>
<text text-anchor="middle" style="font-size:8.00;" x="473" y="565">superseded_by</text>
<text text-anchor="middle" style="font-size:8.00;" x="531" y="565">integer</text>
<text text-anchor="middle" style="font-size:8.00;" x="609" y="565"> REFERENCES specification </text>
<text text-anchor="middle" style="font-size:8.00;" x="477" y="579">needs_discussion</text>
<text text-anchor="middle" style="font-size:8.00;" x="533" y="579">boolean</text>
<text text-anchor="middle" style="font-size:8.00;" x="480" y="593">direction_approved</text>
<text text-anchor="middle" style="font-size:8.00;" x="533" y="593">boolean</text>
<text text-anchor="middle" style="font-size:8.00;" x="466" y="607">man_days</text>
<text text-anchor="middle" style="font-size:8.00;" x="531" y="607">integer</text>
<text text-anchor="middle" style="font-size:8.00;" x="462" y="621">delivery</text>
<text text-anchor="middle" style="font-size:8.00;" x="531" y="621">integer</text>
<text text-anchor="middle" style="font-size:8.00;" x="465" y="635">goalstatus</text>
<text text-anchor="middle" style="font-size:8.00;" x="531" y="635">integer</text>
<polygon style="fill:none;stroke:black;" points="443,641 443,285 871,285 871,641 443,641"/>
</g>
<g id="edge22" class="edge"><title>specification&#45;&gt;specification</title>
<path style="fill:none;stroke:black;" d="M879,552C890,530 897,500 897,463 897,431 892,404 883,383"/>
<polygon style="fill:black;stroke:black;" points="880,385 879,374 886,382 880,385"/>
</g>
<g id="node6" class="node"><title>fake_person_321</title>
<ellipse cx="301" cy="426" rx="27" ry="18" style="fill:none;stroke:red;"/>
<text text-anchor="middle" style="font-size:8.00;" x="301" y="429">person</text>
</g>
<g id="edge2" class="edge"><title>specification&#45;&gt;fake_person_321</title>
<path style="fill:none;stroke:black;" d="M435,440C397,436 363,432 338,430"/>
<polygon style="fill:black;stroke:black;" points="338,433 328,429 338,427 338,433"/>
</g>
<g id="node8" class="node"><title>fake_person_323</title>
<ellipse cx="922" cy="495" rx="27" ry="18" style="fill:none;stroke:red;"/>
<text text-anchor="middle" style="font-size:8.00;" x="922" y="498">person</text>
</g>
<g id="edge4" class="edge"><title>specification&#45;&gt;fake_person_323</title>
<path style="fill:none;stroke:black;" d="M879,490C881,490 883,491 885,491"/>
<polygon style="fill:black;stroke:black;" points="885,488 895,492 885,494 885,488"/>
</g>
<g id="node10" class="node"><title>fake_person_325</title>
<ellipse cx="355" cy="267" rx="27" ry="18" style="fill:none;stroke:red;"/>
<text text-anchor="middle" style="font-size:8.00;" x="355" y="270">person</text>
</g>
<g id="edge6" class="edge"><title>specification&#45;&gt;fake_person_325</title>
<path style="fill:none;stroke:black;" d="M435,319C415,306 397,294 384,286"/>
<polygon style="fill:black;stroke:black;" points="381,288 375,280 385,283 381,288"/>
</g>
<g id="node12" class="node"><title>fake_person_327</title>
<ellipse cx="765" cy="247" rx="27" ry="18" style="fill:none;stroke:red;"/>
<text text-anchor="middle" style="font-size:8.00;" x="765" y="250">person</text>
</g>
<g id="edge8" class="edge"><title>specification&#45;&gt;fake_person_327</title>
<path style="fill:none;stroke:black;" d="M748,281C749,278 751,276 752,273"/>
<polygon style="fill:black;stroke:black;" points="749,272 756,264 755,275 749,272"/>
</g>
<g id="node14" class="node"><title>fake_product_329</title>
<ellipse cx="408" cy="725" rx="27" ry="18" style="fill:none;stroke:red;"/>
<text text-anchor="middle" style="font-size:8.00;" x="408" y="728">product</text>
</g>
<g id="edge10" class="edge"><title>specification&#45;&gt;fake_product_329</title>
<path style="fill:none;stroke:black;" d="M484,645C462,668 443,688 430,702"/>
<polygon style="fill:black;stroke:black;" points="432,705 423,710 427,700 432,705"/>
</g>
<g id="node16" class="node"><title>fake_milestone_331</title>
<ellipse cx="615" cy="825" rx="28" ry="18" style="fill:none;stroke:red;"/>
<text text-anchor="middle" style="font-size:8.00;" x="615" y="828">milestone</text>
</g>
<g id="edge12" class="edge"><title>specification&#45;&gt;fake_milestone_331</title>
<path style="fill:none;stroke:black;" d="M636,645C629,704 622,763 618,797"/>
<polygon style="fill:black;stroke:black;" points="621,797 617,807 615,797 621,797"/>
</g>
<g id="node18" class="node"><title>fake_productseries_333</title>
<ellipse cx="870" cy="159" rx="34" ry="18" style="fill:none;stroke:red;"/>
<text text-anchor="middle" style="font-size:8.00;" x="870" y="162">productseries</text>
</g>
<g id="edge14" class="edge"><title>specification&#45;&gt;fake_productseries_333</title>
<path style="fill:none;stroke:black;" d="M785,281C811,243 836,207 852,184"/>
<polygon style="fill:black;stroke:black;" points="849,182 858,176 855,186 849,182"/>
</g>
<g id="node20" class="node"><title>fake_distribution_335</title>
<ellipse cx="545" cy="679" rx="30" ry="18" style="fill:none;stroke:red;"/>
<text text-anchor="middle" style="font-size:8.00;" x="545" y="682">distribution</text>
</g>
<g id="edge16" class="edge"><title>specification&#45;&gt;fake_distribution_335</title>
<path style="fill:none;stroke:black;" d="M563,645C562,648 560,650 559,653"/>
<polygon style="fill:black;stroke:black;" points="562,655 554,662 556,652 562,655"/>
</g>
<g id="node22" class="node"><title>fake_milestone_337</title>
<ellipse cx="986" cy="311" rx="28" ry="18" style="fill:none;stroke:red;"/>
<text text-anchor="middle" style="font-size:8.00;" x="986" y="314">milestone</text>
</g>
<g id="edge18" class="edge"><title>specification&#45;&gt;fake_milestone_337</title>
<path style="fill:none;stroke:black;" d="M879,360C908,346 935,334 954,325"/>
<polygon style="fill:black;stroke:black;" points="952,322 963,321 955,328 952,322"/>
</g>
<g id="node24" class="node"><title>fake_distrorelease_339</title>
<ellipse cx="778" cy="809" rx="32" ry="18" style="fill:none;stroke:red;"/>
<text text-anchor="middle" style="font-size:8.00;" x="778" y="812">distrorelease</text>
</g>
<g id="edge20" class="edge"><title>specification&#45;&gt;fake_distrorelease_339</title>
<path style="fill:none;stroke:black;" d="M721,645C740,698 758,751 769,782"/>
<polygon style="fill:black;stroke:black;" points="772,780 772,791 766,783 772,780"/>
</g>
<g id="node2" class="node"><title>specificationbug</title>
<polygon style="fill:#c1cdcc;stroke:#c1cdcc;" points="1008,615 1008,553 1228,553 1228,615 1008,615"/>
<polygon style="fill:white;stroke:white;" points="1011,570 1011,556 1225,556 1225,570 1011,570"/>
<text text-anchor="middle" style="font-size:8.00;" x="1118" y="566">specificationbug</text>
<polygon style="fill:none;stroke:black;" points="1011,570 1011,556 1225,556 1225,570 1011,570"/>
<text text-anchor="middle" style="font-size:8.00;" x="1017" y="581">id</text>
<text text-anchor="middle" style="font-size:8.00;" x="1071" y="581">serial</text>
<text text-anchor="middle" style="font-size:8.00;" x="1122" y="581"> PRIMARY KEY </text>
<text text-anchor="middle" style="font-size:8.00;" x="1034" y="595">specification</text>
<text text-anchor="middle" style="font-size:8.00;" x="1074" y="595">integer</text>
<text text-anchor="middle" style="font-size:8.00;" x="1158" y="595"> UNIQUE REFERENCES specification </text>
<text text-anchor="middle" style="font-size:8.00;" x="1020" y="609">bug</text>
<text text-anchor="middle" style="font-size:8.00;" x="1074" y="609">integer</text>
<text text-anchor="middle" style="font-size:8.00;" x="1143" y="609"> UNIQUE REFERENCES bug </text>
<polygon style="fill:none;stroke:black;" points="1008,615 1008,553 1228,553 1228,615 1008,615"/>
</g>
<g id="edge24" class="edge"><title>specificationbug&#45;&gt;specification</title>
<path style="fill:none;stroke:black;" d="M1000,553C966,544 928,534 889,524"/>
<polygon style="fill:black;stroke:black;" points="888,527 879,521 890,521 888,527"/>
</g>
<g id="node28" class="node"><title>fake_bug_343</title>
<ellipse cx="1299" cy="632" rx="27" ry="18" style="fill:none;stroke:red;"/>
<text text-anchor="middle" style="font-size:8.00;" x="1299" y="635">bug</text>
</g>
<g id="edge26" class="edge"><title>specificationbug&#45;&gt;fake_bug_343</title>
<path style="fill:none;stroke:black;" d="M1236,615C1246,618 1256,620 1264,622"/>
<polygon style="fill:black;stroke:black;" points="1265,619 1274,625 1263,625 1265,619"/>
</g>
<g id="node3" class="node"><title>specificationdependency</title>
<polygon style="fill:#c1cdcc;stroke:#c1cdcc;" points="779,727 779,665 999,665 999,727 779,727"/>
<polygon style="fill:white;stroke:white;" points="782,682 782,668 996,668 996,682 782,682"/>
<text text-anchor="middle" style="font-size:8.00;" x="889" y="678">specificationdependency</text>
<polygon style="fill:none;stroke:black;" points="782,682 782,668 996,668 996,682 782,682"/>
<text text-anchor="middle" style="font-size:8.00;" x="788" y="693">id</text>
<text text-anchor="middle" style="font-size:8.00;" x="842" y="693">serial</text>
<text text-anchor="middle" style="font-size:8.00;" x="893" y="693"> PRIMARY KEY </text>
<text text-anchor="middle" style="font-size:8.00;" x="805" y="707">specification</text>
<text text-anchor="middle" style="font-size:8.00;" x="845" y="707">integer</text>
<text text-anchor="middle" style="font-size:8.00;" x="929" y="707"> REFERENCES specification UNIQUE </text>
<text text-anchor="middle" style="font-size:8.00;" x="804" y="721">dependency</text>
<text text-anchor="middle" style="font-size:8.00;" x="845" y="721">integer</text>
<text text-anchor="middle" style="font-size:8.00;" x="929" y="721"> REFERENCES specification UNIQUE </text>
<polygon style="fill:none;stroke:black;" points="779,727 779,665 999,665 999,727 779,727"/>
</g>
<g id="edge28" class="edge"><title>specificationdependency&#45;&gt;specification</title>
<path style="fill:none;stroke:black;" d="M854,661C851,658 848,655 845,652"/>
<polygon style="fill:black;stroke:black;" points="843,655 838,645 848,650 843,655"/>
</g>
<g id="edge30" class="edge"><title>specificationdependency&#45;&gt;specification</title>
<path style="fill:none;stroke:black;" d="M854,661C851,658 848,655 845,652"/>
<polygon style="fill:black;stroke:black;" points="843,655 838,645 848,650 843,655"/>
</g>
<g id="node4" class="node"><title>specificationfeedback</title>
<polygon style="fill:#c1cdcc;stroke:#c1cdcc;" points="468,261 468,171 688,171 688,261 468,261"/>
<polygon style="fill:white;stroke:white;" points="471,188 471,174 685,174 685,188 471,188"/>
<text text-anchor="middle" style="font-size:8.00;" x="578" y="184">specificationfeedback</text>
<polygon style="fill:none;stroke:black;" points="471,188 471,174 685,174 685,188 471,188"/>
<text text-anchor="middle" style="font-size:8.00;" x="477" y="199">id</text>
<text text-anchor="middle" style="font-size:8.00;" x="531" y="199">serial</text>
<text text-anchor="middle" style="font-size:8.00;" x="582" y="199"> PRIMARY KEY </text>
<text text-anchor="middle" style="font-size:8.00;" x="494" y="213">specification</text>
<text text-anchor="middle" style="font-size:8.00;" x="534" y="213">integer</text>
<text text-anchor="middle" style="font-size:8.00;" x="618" y="213"> REFERENCES specification UNIQUE </text>
<text text-anchor="middle" style="font-size:8.00;" x="488" y="227">reviewer</text>
<text text-anchor="middle" style="font-size:8.00;" x="534" y="227">integer</text>
<text text-anchor="middle" style="font-size:8.00;" x="608" y="227"> REFERENCES person UNIQUE </text>
<text text-anchor="middle" style="font-size:8.00;" x="489" y="241">requester</text>
<text text-anchor="middle" style="font-size:8.00;" x="534" y="241">integer</text>
<text text-anchor="middle" style="font-size:8.00;" x="608" y="241"> REFERENCES person UNIQUE </text>
<text text-anchor="middle" style="font-size:8.00;" x="490" y="255">queuemsg</text>
<text text-anchor="middle" style="font-size:8.00;" x="529" y="255">text</text>
<polygon style="fill:none;stroke:black;" points="468,261 468,171 688,171 688,261 468,261"/>
</g>
<g id="edge32" class="edge"><title>specificationfeedback&#45;&gt;specification</title>
<path style="fill:none;stroke:black;" d="M594,265C595,267 595,269 596,271"/>
<polygon style="fill:black;stroke:black;" points="599,270 599,281 593,272 599,270"/>
</g>
<g id="node33" class="node"><title>fake_person_348</title>
<ellipse cx="593" cy="23" rx="27" ry="18" style="fill:none;stroke:red;"/>
<text text-anchor="middle" style="font-size:8.00;" x="593" y="26">person</text>
</g>
<g id="edge34" class="edge"><title>specificationfeedback&#45;&gt;fake_person_348</title>
<path style="fill:none;stroke:black;" d="M582,167C585,130 588,82 591,51"/>
<polygon style="fill:black;stroke:black;" points="588,51 592,41 594,51 588,51"/>
</g>
<g id="node35" class="node"><title>fake_person_350</title>
<ellipse cx="466" cy="59" rx="27" ry="18" style="fill:none;stroke:red;"/>
<text text-anchor="middle" style="font-size:8.00;" x="466" y="62">person</text>
</g>
<g id="edge36" class="edge"><title>specificationfeedback&#45;&gt;fake_person_350</title>
<path style="fill:none;stroke:black;" d="M543,167C524,140 500,106 484,84"/>
<polygon style="fill:black;stroke:black;" points="481,86 478,76 487,82 481,86"/>
</g>
<g id="node5" class="node"><title>specificationsubscription</title>
<polygon style="fill:#c1cdcc;stroke:#c1cdcc;" points="99,657 99,595 319,595 319,657 99,657"/>
<polygon style="fill:white;stroke:white;" points="102,612 102,598 316,598 316,612 102,612"/>
<text text-anchor="middle" style="font-size:8.00;" x="209" y="608">specificationsubscription</text>
<polygon style="fill:none;stroke:black;" points="102,612 102,598 316,598 316,612 102,612"/>
<text text-anchor="middle" style="font-size:8.00;" x="108" y="623">id</text>
<text text-anchor="middle" style="font-size:8.00;" x="162" y="623">serial</text>
<text text-anchor="middle" style="font-size:8.00;" x="213" y="623"> PRIMARY KEY </text>
<text text-anchor="middle" style="font-size:8.00;" x="125" y="637">specification</text>
<text text-anchor="middle" style="font-size:8.00;" x="165" y="637">integer</text>
<text text-anchor="middle" style="font-size:8.00;" x="249" y="637"> UNIQUE REFERENCES specification </text>
<text text-anchor="middle" style="font-size:8.00;" x="116" y="651">person</text>
<text text-anchor="middle" style="font-size:8.00;" x="165" y="651">integer</text>
<text text-anchor="middle" style="font-size:8.00;" x="239" y="651"> REFERENCES person UNIQUE </text>
<polygon style="fill:none;stroke:black;" points="99,657 99,595 319,595 319,657 99,657"/>
</g>
<g id="edge38" class="edge"><title>specificationsubscription&#45;&gt;specification</title>
<path style="fill:none;stroke:black;" d="M305,591C340,578 383,562 425,547"/>
<polygon style="fill:black;stroke:black;" points="424,544 435,544 426,550 424,544"/>
</g>
<g id="node38" class="node"><title>fake_person_353</title>
<ellipse cx="33" cy="691" rx="27" ry="18" style="fill:none;stroke:red;"/>
<text text-anchor="middle" style="font-size:8.00;" x="33" y="694">person</text>
</g>
<g id="edge40" class="edge"><title>specificationsubscription&#45;&gt;fake_person_353</title>
<path style="fill:none;stroke:black;" d="M114,661C97,667 80,673 66,678"/>
<polygon style="fill:black;stroke:black;" points="68,681 57,682 65,675 68,681"/>
</g>
</g>
</svg>
