<?xml version="1.0" encoding="UTF-8" standalone="no"?>
<!DOCTYPE svg PUBLIC "-//W3C//DTD SVG 1.0//EN"
 "http://www.w3.org/TR/2001/REC-SVG-20010904/DTD/svg10.dtd">
<!-- Generated by fdp version 2.2.1 (Tue Oct 11 01:38:21 UTC 2005)
     For user: (stub) Stuart Bishop,,,   Title: g    Pages: 1 -->
<svg width="1270px" height="886px"
 viewBox = "-1 -1 1269 885"
 xmlns="http://www.w3.org/2000/svg">
<g id="graph0" class="graph" style="font-family:Times-Roman;font-size:14.00;">
<title>g</title>
<text text-anchor="middle" style="font-size:22.00;" x="634" y="868">Specifications</text>
<g id="node1" class="node"><title>specification</title>
<polygon style="fill:#c1cdcc;stroke:#c1cdcc;" points="418,641 418,285 846,285 846,641 418,641"/>
<polygon style="fill:white;stroke:white;" points="421,302 421,288 843,288 843,302 421,302"/>
<text text-anchor="middle" style="font-size:8.00;" x="632" y="298">specification</text>
<polygon style="fill:none;stroke:black;" points="421,302 421,288 843,288 843,302 421,302"/>
<text text-anchor="middle" style="font-size:8.00;" x="427" y="313">id</text>
<text text-anchor="middle" style="font-size:8.00;" x="503" y="313">serial</text>
<text text-anchor="middle" style="font-size:8.00;" x="565" y="313"> PRIMARY KEY </text>
<text text-anchor="middle" style="font-size:8.00;" x="433" y="327">name</text>
<text text-anchor="middle" style="font-size:8.00;" x="501" y="327">text</text>
<text text-anchor="middle" style="font-size:8.00;" x="569" y="327"> UNIQUE UNIQUE </text>
<text text-anchor="middle" style="font-size:8.00;" x="430" y="341">title</text>
<text text-anchor="middle" style="font-size:8.00;" x="501" y="341">text</text>
<text text-anchor="middle" style="font-size:8.00;" x="439" y="355">summary</text>
<text text-anchor="middle" style="font-size:8.00;" x="501" y="355">text</text>
<text text-anchor="middle" style="font-size:8.00;" x="434" y="369">owner</text>
<text text-anchor="middle" style="font-size:8.00;" x="506" y="369">integer</text>
<text text-anchor="middle" style="font-size:8.00;" x="575" y="369"> REFERENCES person </text>
<text text-anchor="middle" style="font-size:8.00;" x="437" y="383">assignee</text>
<text text-anchor="middle" style="font-size:8.00;" x="506" y="383">integer</text>
<text text-anchor="middle" style="font-size:8.00;" x="575" y="383"> REFERENCES person </text>
<text text-anchor="middle" style="font-size:8.00;" x="434" y="397">drafter</text>
<text text-anchor="middle" style="font-size:8.00;" x="506" y="397">integer</text>
<text text-anchor="middle" style="font-size:8.00;" x="575" y="397"> REFERENCES person </text>
<text text-anchor="middle" style="font-size:8.00;" x="438" y="411">approver</text>
<text text-anchor="middle" style="font-size:8.00;" x="506" y="411">integer</text>
<text text-anchor="middle" style="font-size:8.00;" x="575" y="411"> REFERENCES person </text>
<text text-anchor="middle" style="font-size:8.00;" x="442" y="425">datecreated</text>
<text text-anchor="middle" style="font-size:8.00;" x="512" y="425">timestamp</text>
<text text-anchor="middle" style="font-size:8.00;" x="436" y="439">product</text>
<text text-anchor="middle" style="font-size:8.00;" x="506" y="439">integer</text>
<text text-anchor="middle" style="font-size:8.00;" x="683" y="439"> REFERENCES product REFERENCES milestone UNIQUE REFERENCES productseries </text>
<text text-anchor="middle" style="font-size:8.00;" x="446" y="453">productseries</text>
<text text-anchor="middle" style="font-size:8.00;" x="506" y="453">integer</text>
<text text-anchor="middle" style="font-size:8.00;" x="585" y="453"> REFERENCES productseries </text>
<text text-anchor="middle" style="font-size:8.00;" x="442" y="467">distribution</text>
<text text-anchor="middle" style="font-size:8.00;" x="506" y="467">integer</text>
<text text-anchor="middle" style="font-size:8.00;" x="688" y="467"> REFERENCES distribution REFERENCES milestone UNIQUE REFERENCES distrorelease </text>
<text text-anchor="middle" style="font-size:8.00;" x="444" y="481">distrorelease</text>
<text text-anchor="middle" style="font-size:8.00;" x="506" y="481">integer</text>
<text text-anchor="middle" style="font-size:8.00;" x="584" y="481"> REFERENCES distrorelease </text>
<text text-anchor="middle" style="font-size:8.00;" x="440" y="495">milestone</text>
<text text-anchor="middle" style="font-size:8.00;" x="506" y="495">integer</text>
<text text-anchor="middle" style="font-size:8.00;" x="622" y="495"> REFERENCES milestone REFERENCES milestone </text>
<text text-anchor="middle" style="font-size:8.00;" x="433" y="509">status</text>
<text text-anchor="middle" style="font-size:8.00;" x="506" y="509">integer</text>
<text text-anchor="middle" style="font-size:8.00;" x="436" y="523">priority</text>
<text text-anchor="middle" style="font-size:8.00;" x="506" y="523">integer</text>
<text text-anchor="middle" style="font-size:8.00;" x="435" y="537">specurl</text>
<text text-anchor="middle" style="font-size:8.00;" x="501" y="537">text</text>
<text text-anchor="middle" style="font-size:8.00;" x="553" y="537"> UNIQUE </text>
<text text-anchor="middle" style="font-size:8.00;" x="442" y="551">whiteboard</text>
<text text-anchor="middle" style="font-size:8.00;" x="501" y="551">text</text>
<text text-anchor="middle" style="font-size:8.00;" x="448" y="565">superseded_by</text>
<text text-anchor="middle" style="font-size:8.00;" x="506" y="565">integer</text>
<text text-anchor="middle" style="font-size:8.00;" x="584" y="565"> REFERENCES specification </text>
<text text-anchor="middle" style="font-size:8.00;" x="452" y="579">needs_discussion</text>
<text text-anchor="middle" style="font-size:8.00;" x="508" y="579">boolean</text>
<text text-anchor="middle" style="font-size:8.00;" x="455" y="593">direction_approved</text>
<text text-anchor="middle" style="font-size:8.00;" x="508" y="593">boolean</text>
<text text-anchor="middle" style="font-size:8.00;" x="441" y="607">man_days</text>
<text text-anchor="middle" style="font-size:8.00;" x="506" y="607">integer</text>
<text text-anchor="middle" style="font-size:8.00;" x="437" y="621">delivery</text>
<text text-anchor="middle" style="font-size:8.00;" x="506" y="621">integer</text>
<text text-anchor="middle" style="font-size:8.00;" x="440" y="635">goalstatus</text>
<text text-anchor="middle" style="font-size:8.00;" x="506" y="635">integer</text>
<polygon style="fill:none;stroke:black;" points="418,641 418,285 846,285 846,641 418,641"/>
</g>
<g id="edge22" class="edge"><title>specification&#45;&gt;specification</title>
<path style="fill:none;stroke:black;" d="M854,552C865,530 872,500 872,463 872,431 867,404 858,383"/>
<polygon style="fill:black;stroke:black;" points="855,385 854,374 861,382 855,385"/>
</g>
<g id="node6" class="node"><title>fake_person_321</title>
<ellipse cx="491" cy="679" rx="27" ry="18" style="fill:none;stroke:red;"/>
<text text-anchor="middle" style="font-size:8.00;" x="491" y="682">person</text>
</g>
<g id="edge2" class="edge"><title>specification&#45;&gt;fake_person_321</title>
<path style="fill:none;stroke:black;" d="M513,645C511,648 509,651 507,653"/>
<polygon style="fill:black;stroke:black;" points="510,655 502,662 504,652 510,655"/>
</g>
<g id="node8" class="node"><title>fake_person_323</title>
<ellipse cx="385" cy="731" rx="27" ry="18" style="fill:none;stroke:red;"/>
<text text-anchor="middle" style="font-size:8.00;" x="385" y="734">person</text>
</g>
<g id="edge4" class="edge"><title>specification&#45;&gt;fake_person_323</title>
<path style="fill:none;stroke:black;" d="M464,645C441,670 420,692 406,708"/>
<polygon style="fill:black;stroke:black;" points="408,711 399,716 403,706 408,711"/>
</g>
<g id="node10" class="node"><title>fake_person_325</title>
<ellipse cx="593" cy="825" rx="27" ry="18" style="fill:none;stroke:red;"/>
<text text-anchor="middle" style="font-size:8.00;" x="593" y="828">person</text>
</g>
<g id="edge6" class="edge"><title>specification&#45;&gt;fake_person_325</title>
<path style="fill:none;stroke:black;" d="M582,645C581,650 581,655 580,660 576,693 578,701 580,734 582,756 585,779 588,797"/>
<polygon style="fill:black;stroke:black;" points="591,797 590,807 585,798 591,797"/>
</g>
<g id="node12" class="node"><title>fake_person_327</title>
<ellipse cx="830" cy="767" rx="27" ry="18" style="fill:none;stroke:red;"/>
<text text-anchor="middle" style="font-size:8.00;" x="830" y="770">person</text>
</g>
<g id="edge8" class="edge"><title>specification&#45;&gt;fake_person_327</title>
<path style="fill:none;stroke:black;" d="M821,645C824,650 826,655 828,660 838,685 838,716 835,739"/>
<polygon style="fill:black;stroke:black;" points="838,739 834,749 832,739 838,739"/>
</g>
<g id="node14" class="node"><title>fake_product_329</title>
<ellipse cx="902" cy="490" rx="27" ry="18" style="fill:none;stroke:red;"/>
<text text-anchor="middle" style="font-size:8.00;" x="902" y="493">product</text>
</g>
<g id="edge10" class="edge"><title>specification&#45;&gt;fake_product_329</title>
<path style="fill:none;stroke:black;" d="M854,485C858,485 862,486 865,486"/>
<polygon style="fill:black;stroke:black;" points="865,483 875,487 865,489 865,483"/>
</g>
<g id="node16" class="node"><title>fake_milestone_331</title>
<ellipse cx="395" cy="197" rx="28" ry="18" style="fill:none;stroke:red;"/>
<text text-anchor="middle" style="font-size:8.00;" x="395" y="200">milestone</text>
</g>
<g id="edge12" class="edge"><title>specification&#45;&gt;fake_milestone_331</title>
<path style="fill:none;stroke:black;" d="M470,281C449,257 429,236 416,221"/>
<polygon style="fill:black;stroke:black;" points="413,223 409,213 418,218 413,223"/>
</g>
<g id="node18" class="node"><title>fake_productseries_333</title>
<ellipse cx="291" cy="596" rx="34" ry="18" style="fill:none;stroke:red;"/>
<text text-anchor="middle" style="font-size:8.00;" x="291" y="599">productseries</text>
</g>
<g id="edge14" class="edge"><title>specification&#45;&gt;fake_productseries_333</title>
<path style="fill:none;stroke:black;" d="M410,550C379,562 350,573 329,581"/>
<polygon style="fill:black;stroke:black;" points="330,585 319,585 327,578 330,585"/>
</g>
<g id="node20" class="node"><title>fake_distribution_335</title>
<ellipse cx="275" cy="440" rx="30" ry="18" style="fill:none;stroke:red;"/>
<text text-anchor="middle" style="font-size:8.00;" x="275" y="443">distribution</text>
</g>
<g id="edge16" class="edge"><title>specification&#45;&gt;fake_distribution_335</title>
<path style="fill:none;stroke:black;" d="M410,449C373,446 340,445 315,443"/>
<polygon style="fill:black;stroke:black;" points="315,446 305,442 315,440 315,446"/>
</g>
<g id="node22" class="node"><title>fake_milestone_337</title>
<ellipse cx="965" cy="317" rx="28" ry="18" style="fill:none;stroke:red;"/>
<text text-anchor="middle" style="font-size:8.00;" x="965" y="320">milestone</text>
</g>
<g id="edge18" class="edge"><title>specification&#45;&gt;fake_milestone_337</title>
<path style="fill:none;stroke:black;" d="M854,366C885,352 912,340 933,331"/>
<polygon style="fill:black;stroke:black;" points="931,328 942,327 934,334 931,328"/>
</g>
<g id="node24" class="node"><title>fake_distrorelease_339</title>
<ellipse cx="534" cy="112" rx="32" ry="18" style="fill:none;stroke:red;"/>
<text text-anchor="middle" style="font-size:8.00;" x="534" y="115">distrorelease</text>
</g>
<g id="edge20" class="edge"><title>specification&#45;&gt;fake_distrorelease_339</title>
<path style="fill:none;stroke:black;" d="M581,281C566,225 550,171 542,140"/>
<polygon style="fill:black;stroke:black;" points="539,141 539,130 545,139 539,141"/>
</g>
<g id="node2" class="node"><title>specificationbug</title>
<polygon style="fill:#c1cdcc;stroke:#c1cdcc;" points="957,690 957,628 1177,628 1177,690 957,690"/>
<polygon style="fill:white;stroke:white;" points="960,645 960,631 1174,631 1174,645 960,645"/>
<text text-anchor="middle" style="font-size:8.00;" x="1067" y="641">specificationbug</text>
<polygon style="fill:none;stroke:black;" points="960,645 960,631 1174,631 1174,645 960,645"/>
<text text-anchor="middle" style="font-size:8.00;" x="966" y="656">id</text>
<text text-anchor="middle" style="font-size:8.00;" x="1020" y="656">serial</text>
<text text-anchor="middle" style="font-size:8.00;" x="1071" y="656"> PRIMARY KEY </text>
<text text-anchor="middle" style="font-size:8.00;" x="983" y="670">specification</text>
<text text-anchor="middle" style="font-size:8.00;" x="1023" y="670">integer</text>
<text text-anchor="middle" style="font-size:8.00;" x="1107" y="670"> UNIQUE REFERENCES specification </text>
<text text-anchor="middle" style="font-size:8.00;" x="969" y="684">bug</text>
<text text-anchor="middle" style="font-size:8.00;" x="1023" y="684">integer</text>
<text text-anchor="middle" style="font-size:8.00;" x="1092" y="684"> UNIQUE REFERENCES bug </text>
<polygon style="fill:none;stroke:black;" points="957,690 957,628 1177,628 1177,690 957,690"/>
</g>
<g id="edge24" class="edge"><title>specificationbug&#45;&gt;specification</title>
<path style="fill:none;stroke:black;" d="M989,624C953,608 909,588 863,567"/>
<polygon style="fill:black;stroke:black;" points="862,570 854,563 865,564 862,570"/>
</g>
<g id="node28" class="node"><title>fake_bug_343</title>
<ellipse cx="1235" cy="738" rx="27" ry="18" style="fill:none;stroke:red;"/>
<text text-anchor="middle" style="font-size:8.00;" x="1235" y="741">bug</text>
</g>
<g id="edge26" class="edge"><title>specificationbug&#45;&gt;fake_bug_343</title>
<path style="fill:none;stroke:black;" d="M1142,694C1164,704 1186,715 1203,723"/>
<polygon style="fill:black;stroke:black;" points="1205,720 1213,727 1202,727 1205,720"/>
</g>
<g id="node3" class="node"><title>specificationdependency</title>
<polygon style="fill:#c1cdcc;stroke:#c1cdcc;" points="594,728 594,666 814,666 814,728 594,728"/>
<polygon style="fill:white;stroke:white;" points="597,683 597,669 811,669 811,683 597,683"/>
<text text-anchor="middle" style="font-size:8.00;" x="704" y="679">specificationdependency</text>
<polygon style="fill:none;stroke:black;" points="597,683 597,669 811,669 811,683 597,683"/>
<text text-anchor="middle" style="font-size:8.00;" x="603" y="694">id</text>
<text text-anchor="middle" style="font-size:8.00;" x="657" y="694">serial</text>
<text text-anchor="middle" style="font-size:8.00;" x="708" y="694"> PRIMARY KEY </text>
<text text-anchor="middle" style="font-size:8.00;" x="620" y="708">specification</text>
<text text-anchor="middle" style="font-size:8.00;" x="660" y="708">integer</text>
<text text-anchor="middle" style="font-size:8.00;" x="744" y="708"> REFERENCES specification UNIQUE </text>
<text text-anchor="middle" style="font-size:8.00;" x="619" y="722">dependency</text>
<text text-anchor="middle" style="font-size:8.00;" x="660" y="722">integer</text>
<text text-anchor="middle" style="font-size:8.00;" x="744" y="722"> REFERENCES specification UNIQUE </text>
<polygon style="fill:none;stroke:black;" points="594,728 594,666 814,666 814,728 594,728"/>
</g>
<g id="edge28" class="edge"><title>specificationdependency&#45;&gt;specification</title>
<path style="fill:none;stroke:black;" d="M693,662C692,660 691,657 691,655"/>
<polygon style="fill:black;stroke:black;" points="688,656 688,645 694,654 688,656"/>
</g>
<g id="edge30" class="edge"><title>specificationdependency&#45;&gt;specification</title>
<path style="fill:none;stroke:black;" d="M693,662C692,660 691,657 691,655"/>
<polygon style="fill:black;stroke:black;" points="688,656 688,645 694,654 688,656"/>
</g>
<g id="node4" class="node"><title>specificationfeedback</title>
<polygon style="fill:#c1cdcc;stroke:#c1cdcc;" points="615,258 615,168 835,168 835,258 615,258"/>
<polygon style="fill:white;stroke:white;" points="618,185 618,171 832,171 832,185 618,185"/>
<text text-anchor="middle" style="font-size:8.00;" x="725" y="181">specificationfeedback</text>
<polygon style="fill:none;stroke:black;" points="618,185 618,171 832,171 832,185 618,185"/>
<text text-anchor="middle" style="font-size:8.00;" x="624" y="196">id</text>
<text text-anchor="middle" style="font-size:8.00;" x="678" y="196">serial</text>
<text text-anchor="middle" style="font-size:8.00;" x="729" y="196"> PRIMARY KEY </text>
<text text-anchor="middle" style="font-size:8.00;" x="641" y="210">specification</text>
<text text-anchor="middle" style="font-size:8.00;" x="681" y="210">integer</text>
<text text-anchor="middle" style="font-size:8.00;" x="765" y="210"> REFERENCES specification UNIQUE </text>
<text text-anchor="middle" style="font-size:8.00;" x="635" y="224">reviewer</text>
<text text-anchor="middle" style="font-size:8.00;" x="681" y="224">integer</text>
<text text-anchor="middle" style="font-size:8.00;" x="755" y="224"> REFERENCES person UNIQUE </text>
<text text-anchor="middle" style="font-size:8.00;" x="636" y="238">requester</text>
<text text-anchor="middle" style="font-size:8.00;" x="681" y="238">integer</text>
<text text-anchor="middle" style="font-size:8.00;" x="755" y="238"> REFERENCES person UNIQUE </text>
<text text-anchor="middle" style="font-size:8.00;" x="637" y="252">queuemsg</text>
<text text-anchor="middle" style="font-size:8.00;" x="676" y="252">text</text>
<polygon style="fill:none;stroke:black;" points="615,258 615,168 835,168 835,258 615,258"/>
</g>
<g id="edge32" class="edge"><title>specificationfeedback&#45;&gt;specification</title>
<path style="fill:none;stroke:black;" d="M707,262C706,265 705,268 703,271"/>
<polygon style="fill:black;stroke:black;" points="706,272 700,281 700,270 706,272"/>
</g>
<g id="node33" class="node"><title>fake_person_348</title>
<ellipse cx="857" cy="77" rx="27" ry="18" style="fill:none;stroke:red;"/>
<text text-anchor="middle" style="font-size:8.00;" x="857" y="80">person</text>
</g>
<g id="edge34" class="edge"><title>specificationfeedback&#45;&gt;fake_person_348</title>
<path style="fill:none;stroke:black;" d="M773,164C794,142 818,118 835,100"/>
<polygon style="fill:black;stroke:black;" points="833,97 842,92 838,102 833,97"/>
</g>
<g id="node35" class="node"><title>fake_person_350</title>
<ellipse cx="737" cy="23" rx="27" ry="18" style="fill:none;stroke:red;"/>
<text text-anchor="middle" style="font-size:8.00;" x="737" y="26">person</text>
</g>
<g id="edge36" class="edge"><title>specificationfeedback&#45;&gt;fake_person_350</title>
<path style="fill:none;stroke:black;" d="M728,164C731,127 733,81 735,51"/>
<polygon style="fill:black;stroke:black;" points="732,51 736,41 738,51 732,51"/>
</g>
<g id="node5" class="node"><title>specificationsubscription</title>
<polygon style="fill:#c1cdcc;stroke:#c1cdcc;" points="93,287 93,225 313,225 313,287 93,287"/>
<polygon style="fill:white;stroke:white;" points="96,242 96,228 310,228 310,242 96,242"/>
<text text-anchor="middle" style="font-size:8.00;" x="203" y="238">specificationsubscription</text>
<polygon style="fill:none;stroke:black;" points="96,242 96,228 310,228 310,242 96,242"/>
<text text-anchor="middle" style="font-size:8.00;" x="102" y="253">id</text>
<text text-anchor="middle" style="font-size:8.00;" x="156" y="253">serial</text>
<text text-anchor="middle" style="font-size:8.00;" x="207" y="253"> PRIMARY KEY </text>
<text text-anchor="middle" style="font-size:8.00;" x="119" y="267">specification</text>
<text text-anchor="middle" style="font-size:8.00;" x="159" y="267">integer</text>
<text text-anchor="middle" style="font-size:8.00;" x="243" y="267"> UNIQUE REFERENCES specification </text>
<text text-anchor="middle" style="font-size:8.00;" x="110" y="281">person</text>
<text text-anchor="middle" style="font-size:8.00;" x="159" y="281">integer</text>
<text text-anchor="middle" style="font-size:8.00;" x="233" y="281"> REFERENCES person UNIQUE </text>
<polygon style="fill:none;stroke:black;" points="93,287 93,225 313,225 313,287 93,287"/>
</g>
<g id="edge38" class="edge"><title>specificationsubscription&#45;&gt;specification</title>
<path style="fill:none;stroke:black;" d="M276,291C311,308 355,329 401,352"/>
<polygon style="fill:black;stroke:black;" points="402,349 410,356 399,355 402,349"/>
</g>
<g id="node38" class="node"><title>fake_person_353</title>
<ellipse cx="33" cy="175" rx="27" ry="18" style="fill:none;stroke:red;"/>
<text text-anchor="middle" style="font-size:8.00;" x="33" y="178">person</text>
</g>
<g id="edge40" class="edge"><title>specificationsubscription&#45;&gt;fake_person_353</title>
<path style="fill:none;stroke:black;" d="M129,221C106,210 83,199 64,190"/>
<polygon style="fill:black;stroke:black;" points="63,193 55,186 66,187 63,193"/>
</g>
</g>
</svg>
