<?xml version="1.0" encoding="UTF-8" standalone="no"?>
<!DOCTYPE svg PUBLIC "-//W3C//DTD SVG 1.0//EN"
 "http://www.w3.org/TR/2001/REC-SVG-20010904/DTD/svg10.dtd">
<!-- Generated by fdp version 2.2.1 (Tue Oct 11 01:38:21 UTC 2005)
     For user: (stub) Stuart Bishop,,,   Title: g    Pages: 1 -->
<svg width="719px" height="535px"
 viewBox = "-1 -1 718 534"
 xmlns="http://www.w3.org/2000/svg">
<g id="graph0" class="graph" transform = "scale(0.674839)"
 style="font-family:Times-Roman;font-size:14.00;">
<title>g</title>
<text text-anchor="middle" style="font-size:22.00;" x="529" y="773">Specifications</text>
<g id="node1" class="node"><title>specification</title>
<polygon style="fill:#c1cdcc;stroke:#c1cdcc;" points="359,561 359,267 689,267 689,561 359,561"/>
<polygon style="fill:white;stroke:white;" points="362,282 362,270 686,270 686,282 362,282"/>
<text text-anchor="middle" style="font-size:6.00;" x="524" y="278">specification</text>
<polygon style="fill:none;stroke:black;" points="362,282 362,270 686,270 686,282 362,282"/>
<text text-anchor="middle" style="font-size:6.00;" x="367" y="291">id</text>
<text text-anchor="middle" style="font-size:6.00;" x="426" y="291">serial</text>
<text text-anchor="middle" style="font-size:6.00;" x="475" y="291"> PRIMARY KEY </text>
<text text-anchor="middle" style="font-size:6.00;" x="372" y="303">name</text>
<text text-anchor="middle" style="font-size:6.00;" x="425" y="303">text</text>
<text text-anchor="middle" style="font-size:6.00;" x="478" y="303"> UNIQUE UNIQUE </text>
<text text-anchor="middle" style="font-size:6.00;" x="370" y="315">title</text>
<text text-anchor="middle" style="font-size:6.00;" x="425" y="315">text</text>
<text text-anchor="middle" style="font-size:6.00;" x="376" y="327">summary</text>
<text text-anchor="middle" style="font-size:6.00;" x="425" y="327">text</text>
<text text-anchor="middle" style="font-size:6.00;" x="373" y="339">owner</text>
<text text-anchor="middle" style="font-size:6.00;" x="428" y="339">integer</text>
<text text-anchor="middle" style="font-size:6.00;" x="482" y="339"> REFERENCES person </text>
<text text-anchor="middle" style="font-size:6.00;" x="375" y="351">assignee</text>
<text text-anchor="middle" style="font-size:6.00;" x="428" y="351">integer</text>
<text text-anchor="middle" style="font-size:6.00;" x="482" y="351"> REFERENCES person </text>
<text text-anchor="middle" style="font-size:6.00;" x="373" y="363">drafter</text>
<text text-anchor="middle" style="font-size:6.00;" x="428" y="363">integer</text>
<text text-anchor="middle" style="font-size:6.00;" x="482" y="363"> REFERENCES person </text>
<text text-anchor="middle" style="font-size:6.00;" x="376" y="375">approver</text>
<text text-anchor="middle" style="font-size:6.00;" x="428" y="375">integer</text>
<text text-anchor="middle" style="font-size:6.00;" x="482" y="375"> REFERENCES person </text>
<text text-anchor="middle" style="font-size:6.00;" x="379" y="387">datecreated</text>
<text text-anchor="middle" style="font-size:6.00;" x="433" y="387">timestamp</text>
<text text-anchor="middle" style="font-size:6.00;" x="374" y="399">product</text>
<text text-anchor="middle" style="font-size:6.00;" x="428" y="399">integer</text>
<text text-anchor="middle" style="font-size:6.00;" x="564" y="399"> REFERENCES product REFERENCES milestone UNIQUE REFERENCES productseries </text>
<text text-anchor="middle" style="font-size:6.00;" x="381" y="411">productseries</text>
<text text-anchor="middle" style="font-size:6.00;" x="428" y="411">integer</text>
<text text-anchor="middle" style="font-size:6.00;" x="490" y="411"> REFERENCES productseries </text>
<text text-anchor="middle" style="font-size:6.00;" x="379" y="423">distribution</text>
<text text-anchor="middle" style="font-size:6.00;" x="428" y="423">integer</text>
<text text-anchor="middle" style="font-size:6.00;" x="568" y="423"> REFERENCES distribution REFERENCES milestone UNIQUE REFERENCES distrorelease </text>
<text text-anchor="middle" style="font-size:6.00;" x="380" y="435">distrorelease</text>
<text text-anchor="middle" style="font-size:6.00;" x="428" y="435">integer</text>
<text text-anchor="middle" style="font-size:6.00;" x="489" y="435"> REFERENCES distrorelease </text>
<text text-anchor="middle" style="font-size:6.00;" x="377" y="447">milestone</text>
<text text-anchor="middle" style="font-size:6.00;" x="428" y="447">integer</text>
<text text-anchor="middle" style="font-size:6.00;" x="518" y="447"> REFERENCES milestone REFERENCES milestone </text>
<text text-anchor="middle" style="font-size:6.00;" x="372" y="459">status</text>
<text text-anchor="middle" style="font-size:6.00;" x="428" y="459">integer</text>
<text text-anchor="middle" style="font-size:6.00;" x="374" y="471">priority</text>
<text text-anchor="middle" style="font-size:6.00;" x="428" y="471">integer</text>
<text text-anchor="middle" style="font-size:6.00;" x="373" y="483">specurl</text>
<text text-anchor="middle" style="font-size:6.00;" x="425" y="483">text</text>
<text text-anchor="middle" style="font-size:6.00;" x="466" y="483"> UNIQUE </text>
<text text-anchor="middle" style="font-size:6.00;" x="379" y="495">whiteboard</text>
<text text-anchor="middle" style="font-size:6.00;" x="425" y="495">text</text>
<text text-anchor="middle" style="font-size:6.00;" x="383" y="507">superseded_by</text>
<text text-anchor="middle" style="font-size:6.00;" x="428" y="507">integer</text>
<text text-anchor="middle" style="font-size:6.00;" x="490" y="507"> REFERENCES specification </text>
<text text-anchor="middle" style="font-size:6.00;" x="386" y="519">needs_discussion</text>
<text text-anchor="middle" style="font-size:6.00;" x="430" y="519">boolean</text>
<text text-anchor="middle" style="font-size:6.00;" x="389" y="531">direction_approved</text>
<text text-anchor="middle" style="font-size:6.00;" x="430" y="531">boolean</text>
<text text-anchor="middle" style="font-size:6.00;" x="377" y="543">man_days</text>
<text text-anchor="middle" style="font-size:6.00;" x="428" y="543">integer</text>
<text text-anchor="middle" style="font-size:6.00;" x="375" y="555">delivery</text>
<text text-anchor="middle" style="font-size:6.00;" x="428" y="555">integer</text>
<polygon style="fill:none;stroke:black;" points="359,561 359,267 689,267 689,561 359,561"/>
</g>
<g id="edge22" class="edge"><title>specification&#45;&gt;specification</title>
<path style="fill:none;stroke:black;" d="M697,494C708,475 715,449 715,414 715,384 710,361 702,343"/>
<polygon style="fill:black;stroke:black;" points="699,344 697,334 705,341 699,344"/>
</g>
<g id="node6" class="node"><title>fake_person_299</title>
<ellipse cx="341" cy="167" rx="27" ry="18" style="fill:none;stroke:red;"/>
<text text-anchor="middle" style="font-size:6.00;" x="341" y="169">person</text>
</g>
<g id="edge2" class="edge"><title>specification&#45;&gt;fake_person_299</title>
<path style="fill:none;stroke:black;" d="M412,263C391,235 372,209 359,191"/>
<polygon style="fill:black;stroke:black;" points="356,193 353,183 362,189 356,193"/>
</g>
<g id="node8" class="node"><title>fake_person_301</title>
<ellipse cx="231" cy="523" rx="27" ry="18" style="fill:none;stroke:red;"/>
<text text-anchor="middle" style="font-size:6.00;" x="231" y="525">person</text>
</g>
<g id="edge4" class="edge"><title>specification&#45;&gt;fake_person_301</title>
<path style="fill:none;stroke:black;" d="M351,479C318,491 287,503 264,511"/>
<polygon style="fill:black;stroke:black;" points="266,514 255,514 263,508 266,514"/>
</g>
<g id="node10" class="node"><title>fake_person_303</title>
<ellipse cx="628" cy="714" rx="27" ry="18" style="fill:none;stroke:red;"/>
<text text-anchor="middle" style="font-size:6.00;" x="628" y="716">person</text>
</g>
<g id="edge6" class="edge"><title>specification&#45;&gt;fake_person_303</title>
<path style="fill:none;stroke:black;" d="M576,565C592,612 609,658 619,686"/>
<polygon style="fill:black;stroke:black;" points="622,685 622,696 616,687 622,685"/>
</g>
<g id="node12" class="node"><title>fake_person_305</title>
<ellipse cx="375" cy="690" rx="27" ry="18" style="fill:none;stroke:red;"/>
<text text-anchor="middle" style="font-size:6.00;" x="375" y="692">person</text>
</g>
<g id="edge8" class="edge"><title>specification&#45;&gt;fake_person_305</title>
<path style="fill:none;stroke:black;" d="M442,565C422,604 402,641 389,664"/>
<polygon style="fill:black;stroke:black;" points="392,666 384,673 386,663 392,666"/>
</g>
<g id="node14" class="node"><title>fake_product_307</title>
<ellipse cx="499" cy="730" rx="27" ry="18" style="fill:none;stroke:red;"/>
<text text-anchor="middle" style="font-size:6.00;" x="499" y="732">product</text>
</g>
<g id="edge10" class="edge"><title>specification&#45;&gt;fake_product_307</title>
<path style="fill:none;stroke:black;" d="M512,565C508,617 504,670 501,702"/>
<polygon style="fill:black;stroke:black;" points="504,702 500,712 498,702 504,702"/>
</g>
<g id="node16" class="node"><title>fake_milestone_309</title>
<ellipse cx="737" cy="646" rx="27" ry="18" style="fill:none;stroke:red;"/>
<text text-anchor="middle" style="font-size:6.00;" x="737" y="648">milestone</text>
</g>
<g id="edge12" class="edge"><title>specification&#45;&gt;fake_milestone_309</title>
<path style="fill:none;stroke:black;" d="M663,565C683,588 702,608 716,623"/>
<polygon style="fill:black;stroke:black;" points="719,621 723,631 714,626 719,621"/>
</g>
<g id="node18" class="node"><title>fake_productseries_311</title>
<ellipse cx="208" cy="389" rx="28" ry="18" style="fill:none;stroke:red;"/>
<text text-anchor="middle" style="font-size:6.00;" x="208" y="391">productseries</text>
</g>
<g id="edge14" class="edge"><title>specification&#45;&gt;fake_productseries_311</title>
<path style="fill:none;stroke:black;" d="M351,400C311,396 273,394 246,392"/>
<polygon style="fill:black;stroke:black;" points="246,395 236,391 246,389 246,395"/>
</g>
<g id="node20" class="node"><title>fake_distribution_313</title>
<ellipse cx="839" cy="372" rx="27" ry="18" style="fill:none;stroke:red;"/>
<text text-anchor="middle" style="font-size:6.00;" x="839" y="374">distribution</text>
</g>
<g id="edge16" class="edge"><title>specification&#45;&gt;fake_distribution_313</title>
<path style="fill:none;stroke:black;" d="M697,391C737,386 775,380 802,377"/>
<polygon style="fill:black;stroke:black;" points="802,374 812,376 802,380 802,374"/>
</g>
<g id="node22" class="node"><title>fake_milestone_315</title>
<ellipse cx="804" cy="249" rx="27" ry="18" style="fill:none;stroke:red;"/>
<text text-anchor="middle" style="font-size:6.00;" x="804" y="251">milestone</text>
</g>
<g id="edge18" class="edge"><title>specification&#45;&gt;fake_milestone_315</title>
<path style="fill:none;stroke:black;" d="M697,312C727,294 755,278 775,266"/>
<polygon style="fill:black;stroke:black;" points="774,263 784,261 777,269 774,263"/>
</g>
<g id="node24" class="node"><title>fake_distrorelease_317</title>
<ellipse cx="721" cy="155" rx="27" ry="18" style="fill:none;stroke:red;"/>
<text text-anchor="middle" style="font-size:6.00;" x="721" y="157">distrorelease</text>
</g>
<g id="edge20" class="edge"><title>specification&#45;&gt;fake_distrorelease_317</title>
<path style="fill:none;stroke:black;" d="M639,263C664,231 687,200 703,179"/>
<polygon style="fill:black;stroke:black;" points="700,177 709,171 706,181 700,177"/>
</g>
<g id="node2" class="node"><title>specificationbug</title>
<polygon style="fill:#c1cdcc;stroke:#c1cdcc;" points="801,599 801,545 973,545 973,599 801,599"/>
<polygon style="fill:white;stroke:white;" points="804,560 804,548 970,548 970,560 804,560"/>
<text text-anchor="middle" style="font-size:6.00;" x="887" y="556">specificationbug</text>
<polygon style="fill:none;stroke:black;" points="804,560 804,548 970,548 970,560 804,560"/>
<text text-anchor="middle" style="font-size:6.00;" x="809" y="569">id</text>
<text text-anchor="middle" style="font-size:6.00;" x="852" y="569">serial</text>
<text text-anchor="middle" style="font-size:6.00;" x="892" y="569"> PRIMARY KEY </text>
<text text-anchor="middle" style="font-size:6.00;" x="822" y="581">specification</text>
<text text-anchor="middle" style="font-size:6.00;" x="854" y="581">integer</text>
<text text-anchor="middle" style="font-size:6.00;" x="919" y="581"> UNIQUE REFERENCES specification </text>
<text text-anchor="middle" style="font-size:6.00;" x="812" y="593">bug</text>
<text text-anchor="middle" style="font-size:6.00;" x="854" y="593">integer</text>
<text text-anchor="middle" style="font-size:6.00;" x="908" y="593"> UNIQUE REFERENCES bug </text>
<polygon style="fill:none;stroke:black;" points="801,599 801,545 973,545 973,599 801,599"/>
</g>
<g id="edge24" class="edge"><title>specificationbug&#45;&gt;specification</title>
<path style="fill:none;stroke:black;" d="M816,541C785,527 745,511 706,493"/>
<polygon style="fill:black;stroke:black;" points="705,496 697,489 708,490 705,496"/>
</g>
<g id="node28" class="node"><title>fake_bug_321</title>
<ellipse cx="1026" cy="501" rx="27" ry="18" style="fill:none;stroke:red;"/>
<text text-anchor="middle" style="font-size:6.00;" x="1026" y="503">bug</text>
</g>
<g id="edge26" class="edge"><title>specificationbug&#45;&gt;fake_bug_321</title>
<path style="fill:none;stroke:black;" d="M948,541C964,533 981,524 995,517"/>
<polygon style="fill:black;stroke:black;" points="994,514 1004,512 997,520 994,514"/>
</g>
<g id="node3" class="node"><title>specificationdependency</title>
<polygon style="fill:#c1cdcc;stroke:#c1cdcc;" points="129,691 129,637 301,637 301,691 129,691"/>
<polygon style="fill:white;stroke:white;" points="132,652 132,640 298,640 298,652 132,652"/>
<text text-anchor="middle" style="font-size:6.00;" x="215" y="648">specificationdependency</text>
<polygon style="fill:none;stroke:black;" points="132,652 132,640 298,640 298,652 132,652"/>
<text text-anchor="middle" style="font-size:6.00;" x="137" y="661">id</text>
<text text-anchor="middle" style="font-size:6.00;" x="180" y="661">serial</text>
<text text-anchor="middle" style="font-size:6.00;" x="220" y="661"> PRIMARY KEY </text>
<text text-anchor="middle" style="font-size:6.00;" x="150" y="673">specification</text>
<text text-anchor="middle" style="font-size:6.00;" x="182" y="673">integer</text>
<text text-anchor="middle" style="font-size:6.00;" x="247" y="673"> REFERENCES specification UNIQUE </text>
<text text-anchor="middle" style="font-size:6.00;" x="150" y="685">dependency</text>
<text text-anchor="middle" style="font-size:6.00;" x="182" y="685">integer</text>
<text text-anchor="middle" style="font-size:6.00;" x="247" y="685"> REFERENCES specification UNIQUE </text>
<polygon style="fill:none;stroke:black;" points="129,691 129,637 301,637 301,691 129,691"/>
</g>
<g id="edge28" class="edge"><title>specificationdependency&#45;&gt;specification</title>
<path style="fill:none;stroke:black;" d="M247,633C271,612 306,583 343,553"/>
<polygon style="fill:black;stroke:black;" points="341,550 351,546 346,555 341,550"/>
</g>
<g id="edge30" class="edge"><title>specificationdependency&#45;&gt;specification</title>
<path style="fill:none;stroke:black;" d="M261,633C284,616 313,593 343,569"/>
<polygon style="fill:black;stroke:black;" points="341,566 351,563 345,572 341,566"/>
</g>
<g id="node4" class="node"><title>specificationfeedback</title>
<polygon style="fill:#c1cdcc;stroke:#c1cdcc;" points="452,237 452,159 624,159 624,237 452,237"/>
<polygon style="fill:white;stroke:white;" points="455,174 455,162 621,162 621,174 455,174"/>
<text text-anchor="middle" style="font-size:6.00;" x="538" y="170">specificationfeedback</text>
<polygon style="fill:none;stroke:black;" points="455,174 455,162 621,162 621,174 455,174"/>
<text text-anchor="middle" style="font-size:6.00;" x="460" y="183">id</text>
<text text-anchor="middle" style="font-size:6.00;" x="503" y="183">serial</text>
<text text-anchor="middle" style="font-size:6.00;" x="543" y="183"> PRIMARY KEY </text>
<text text-anchor="middle" style="font-size:6.00;" x="473" y="195">specification</text>
<text text-anchor="middle" style="font-size:6.00;" x="505" y="195">integer</text>
<text text-anchor="middle" style="font-size:6.00;" x="570" y="195"> REFERENCES specification UNIQUE </text>
<text text-anchor="middle" style="font-size:6.00;" x="468" y="207">reviewer</text>
<text text-anchor="middle" style="font-size:6.00;" x="505" y="207">integer</text>
<text text-anchor="middle" style="font-size:6.00;" x="562" y="207"> REFERENCES person UNIQUE </text>
<text text-anchor="middle" style="font-size:6.00;" x="469" y="219">requester</text>
<text text-anchor="middle" style="font-size:6.00;" x="505" y="219">integer</text>
<text text-anchor="middle" style="font-size:6.00;" x="562" y="219"> REFERENCES person UNIQUE </text>
<text text-anchor="middle" style="font-size:6.00;" x="470" y="231">queuemsg</text>
<text text-anchor="middle" style="font-size:6.00;" x="502" y="231">text</text>
<polygon style="fill:none;stroke:black;" points="452,237 452,159 624,159 624,237 452,237"/>
</g>
<g id="edge32" class="edge"><title>specificationfeedback&#45;&gt;specification</title>
<path style="fill:none;stroke:black;" d="M535,241C535,245 535,249 534,253"/>
<polygon style="fill:black;stroke:black;" points="538,253 534,263 531,253 538,253"/>
</g>
<g id="node33" class="node"><title>fake_person_326</title>
<ellipse cx="487" cy="27" rx="27" ry="18" style="fill:none;stroke:red;"/>
<text text-anchor="middle" style="font-size:6.00;" x="487" y="29">person</text>
</g>
<g id="edge34" class="edge"><title>specificationfeedback&#45;&gt;fake_person_326</title>
<path style="fill:none;stroke:black;" d="M525,155C515,123 503,81 495,55"/>
<polygon style="fill:black;stroke:black;" points="492,56 492,45 498,54 492,56"/>
</g>
<g id="node35" class="node"><title>fake_person_328</title>
<ellipse cx="607" cy="32" rx="27" ry="18" style="fill:none;stroke:red;"/>
<text text-anchor="middle" style="font-size:6.00;" x="607" y="34">person</text>
</g>
<g id="edge36" class="edge"><title>specificationfeedback&#45;&gt;fake_person_328</title>
<path style="fill:none;stroke:black;" d="M556,155C568,125 585,84 596,58"/>
<polygon style="fill:black;stroke:black;" points="593,57 600,49 599,60 593,57"/>
</g>
<g id="node5" class="node"><title>specificationsubscription</title>
<polygon style="fill:#c1cdcc;stroke:#c1cdcc;" points="115,184 115,130 287,130 287,184 115,184"/>
<polygon style="fill:white;stroke:white;" points="118,145 118,133 284,133 284,145 118,145"/>
<text text-anchor="middle" style="font-size:6.00;" x="201" y="141">specificationsubscription</text>
<polygon style="fill:none;stroke:black;" points="118,145 118,133 284,133 284,145 118,145"/>
<text text-anchor="middle" style="font-size:6.00;" x="123" y="154">id</text>
<text text-anchor="middle" style="font-size:6.00;" x="166" y="154">serial</text>
<text text-anchor="middle" style="font-size:6.00;" x="206" y="154"> PRIMARY KEY </text>
<text text-anchor="middle" style="font-size:6.00;" x="136" y="166">specification</text>
<text text-anchor="middle" style="font-size:6.00;" x="168" y="166">integer</text>
<text text-anchor="middle" style="font-size:6.00;" x="233" y="166"> UNIQUE REFERENCES specification </text>
<text text-anchor="middle" style="font-size:6.00;" x="129" y="178">person</text>
<text text-anchor="middle" style="font-size:6.00;" x="168" y="178">integer</text>
<text text-anchor="middle" style="font-size:6.00;" x="225" y="178"> REFERENCES person UNIQUE </text>
<polygon style="fill:none;stroke:black;" points="115,184 115,130 287,130 287,184 115,184"/>
</g>
<g id="edge38" class="edge"><title>specificationsubscription&#45;&gt;specification</title>
<path style="fill:none;stroke:black;" d="M240,188C266,209 304,239 343,269"/>
<polygon style="fill:black;stroke:black;" points="346,267 351,276 341,272 346,267"/>
</g>
<g id="node38" class="node"><title>fake_person_331</title>
<ellipse cx="33" cy="142" rx="27" ry="18" style="fill:none;stroke:red;"/>
<text text-anchor="middle" style="font-size:6.00;" x="33" y="144">person</text>
</g>
<g id="edge40" class="edge"><title>specificationsubscription&#45;&gt;fake_person_331</title>
<path style="fill:none;stroke:black;" d="M107,149C94,147 81,147 70,145"/>
<polygon style="fill:black;stroke:black;" points="70,148 60,144 70,142 70,148"/>
</g>
</g>
</svg>
