<?xml version="1.0" encoding="UTF-8" standalone="no"?>
<!DOCTYPE svg PUBLIC "-//W3C//DTD SVG 1.0//EN"
 "http://www.w3.org/TR/2001/REC-SVG-20010904/DTD/svg10.dtd">
<!-- Generated by fdp version 2.2.1 (Tue Oct 11 01:38:21 UTC 2005)
     For user: (stub) Stuart Bishop,,,   Title: g    Pages: 1 -->
<svg width="774px" height="1344px"
 viewBox = "-1 -1 773 1343"
 xmlns="http://www.w3.org/2000/svg">
<g id="graph0" class="graph" style="font-family:Times-Roman;font-size:14.00;">
<title>g</title>
<text text-anchor="middle" style="font-size:22.00;" x="386" y="1326">Sprint</text>
<g id="node1" class="node"><title>specification</title>
<polygon style="fill:#c1cdcc;stroke:#c1cdcc;" points="174,1098 174,742 602,742 602,1098 174,1098"/>
<polygon style="fill:white;stroke:white;" points="177,759 177,745 599,745 599,759 177,759"/>
<text text-anchor="middle" style="font-size:8.00;" x="388" y="755">specification</text>
<polygon style="fill:none;stroke:black;" points="177,759 177,745 599,745 599,759 177,759"/>
<text text-anchor="middle" style="font-size:8.00;" x="183" y="770">id</text>
<text text-anchor="middle" style="font-size:8.00;" x="259" y="770">serial</text>
<text text-anchor="middle" style="font-size:8.00;" x="321" y="770"> PRIMARY KEY </text>
<text text-anchor="middle" style="font-size:8.00;" x="189" y="784">name</text>
<text text-anchor="middle" style="font-size:8.00;" x="257" y="784">text</text>
<text text-anchor="middle" style="font-size:8.00;" x="325" y="784"> UNIQUE UNIQUE </text>
<text text-anchor="middle" style="font-size:8.00;" x="186" y="798">title</text>
<text text-anchor="middle" style="font-size:8.00;" x="257" y="798">text</text>
<text text-anchor="middle" style="font-size:8.00;" x="195" y="812">summary</text>
<text text-anchor="middle" style="font-size:8.00;" x="257" y="812">text</text>
<text text-anchor="middle" style="font-size:8.00;" x="190" y="826">owner</text>
<text text-anchor="middle" style="font-size:8.00;" x="262" y="826">integer</text>
<text text-anchor="middle" style="font-size:8.00;" x="331" y="826"> REFERENCES person </text>
<text text-anchor="middle" style="font-size:8.00;" x="193" y="840">assignee</text>
<text text-anchor="middle" style="font-size:8.00;" x="262" y="840">integer</text>
<text text-anchor="middle" style="font-size:8.00;" x="331" y="840"> REFERENCES person </text>
<text text-anchor="middle" style="font-size:8.00;" x="190" y="854">drafter</text>
<text text-anchor="middle" style="font-size:8.00;" x="262" y="854">integer</text>
<text text-anchor="middle" style="font-size:8.00;" x="331" y="854"> REFERENCES person </text>
<text text-anchor="middle" style="font-size:8.00;" x="194" y="868">approver</text>
<text text-anchor="middle" style="font-size:8.00;" x="262" y="868">integer</text>
<text text-anchor="middle" style="font-size:8.00;" x="331" y="868"> REFERENCES person </text>
<text text-anchor="middle" style="font-size:8.00;" x="198" y="882">datecreated</text>
<text text-anchor="middle" style="font-size:8.00;" x="268" y="882">timestamp</text>
<text text-anchor="middle" style="font-size:8.00;" x="192" y="896">product</text>
<text text-anchor="middle" style="font-size:8.00;" x="262" y="896">integer</text>
<text text-anchor="middle" style="font-size:8.00;" x="439" y="896"> REFERENCES product REFERENCES milestone UNIQUE REFERENCES productseries </text>
<text text-anchor="middle" style="font-size:8.00;" x="202" y="910">productseries</text>
<text text-anchor="middle" style="font-size:8.00;" x="262" y="910">integer</text>
<text text-anchor="middle" style="font-size:8.00;" x="341" y="910"> REFERENCES productseries </text>
<text text-anchor="middle" style="font-size:8.00;" x="198" y="924">distribution</text>
<text text-anchor="middle" style="font-size:8.00;" x="262" y="924">integer</text>
<text text-anchor="middle" style="font-size:8.00;" x="444" y="924"> REFERENCES distribution REFERENCES milestone UNIQUE REFERENCES distrorelease </text>
<text text-anchor="middle" style="font-size:8.00;" x="200" y="938">distrorelease</text>
<text text-anchor="middle" style="font-size:8.00;" x="262" y="938">integer</text>
<text text-anchor="middle" style="font-size:8.00;" x="340" y="938"> REFERENCES distrorelease </text>
<text text-anchor="middle" style="font-size:8.00;" x="196" y="952">milestone</text>
<text text-anchor="middle" style="font-size:8.00;" x="262" y="952">integer</text>
<text text-anchor="middle" style="font-size:8.00;" x="378" y="952"> REFERENCES milestone REFERENCES milestone </text>
<text text-anchor="middle" style="font-size:8.00;" x="189" y="966">status</text>
<text text-anchor="middle" style="font-size:8.00;" x="262" y="966">integer</text>
<text text-anchor="middle" style="font-size:8.00;" x="192" y="980">priority</text>
<text text-anchor="middle" style="font-size:8.00;" x="262" y="980">integer</text>
<text text-anchor="middle" style="font-size:8.00;" x="191" y="994">specurl</text>
<text text-anchor="middle" style="font-size:8.00;" x="257" y="994">text</text>
<text text-anchor="middle" style="font-size:8.00;" x="309" y="994"> UNIQUE </text>
<text text-anchor="middle" style="font-size:8.00;" x="198" y="1008">whiteboard</text>
<text text-anchor="middle" style="font-size:8.00;" x="257" y="1008">text</text>
<text text-anchor="middle" style="font-size:8.00;" x="204" y="1022">superseded_by</text>
<text text-anchor="middle" style="font-size:8.00;" x="262" y="1022">integer</text>
<text text-anchor="middle" style="font-size:8.00;" x="340" y="1022"> REFERENCES specification </text>
<text text-anchor="middle" style="font-size:8.00;" x="208" y="1036">needs_discussion</text>
<text text-anchor="middle" style="font-size:8.00;" x="264" y="1036">boolean</text>
<text text-anchor="middle" style="font-size:8.00;" x="211" y="1050">direction_approved</text>
<text text-anchor="middle" style="font-size:8.00;" x="264" y="1050">boolean</text>
<text text-anchor="middle" style="font-size:8.00;" x="197" y="1064">man_days</text>
<text text-anchor="middle" style="font-size:8.00;" x="262" y="1064">integer</text>
<text text-anchor="middle" style="font-size:8.00;" x="193" y="1078">delivery</text>
<text text-anchor="middle" style="font-size:8.00;" x="262" y="1078">integer</text>
<text text-anchor="middle" style="font-size:8.00;" x="196" y="1092">goalstatus</text>
<text text-anchor="middle" style="font-size:8.00;" x="262" y="1092">integer</text>
<polygon style="fill:none;stroke:black;" points="174,1098 174,742 602,742 602,1098 174,1098"/>
</g>
<g id="edge22" class="edge"><title>specification&#45;&gt;specification</title>
<path style="fill:none;stroke:black;" d="M610,1009C621,987 628,957 628,920 628,888 623,861 614,840"/>
<polygon style="fill:black;stroke:black;" points="611,842 610,831 617,839 611,842"/>
</g>
<g id="node5" class="node"><title>fake_person_321</title>
<ellipse cx="739" cy="855" rx="27" ry="18" style="fill:none;stroke:red;"/>
<text text-anchor="middle" style="font-size:8.00;" x="739" y="858">person</text>
</g>
<g id="edge2" class="edge"><title>specification&#45;&gt;fake_person_321</title>
<path style="fill:none;stroke:black;" d="M610,879C646,872 679,866 703,862"/>
<polygon style="fill:black;stroke:black;" points="703,859 713,860 704,865 703,859"/>
</g>
<g id="node7" class="node"><title>fake_person_323</title>
<ellipse cx="33" cy="963" rx="27" ry="18" style="fill:none;stroke:red;"/>
<text text-anchor="middle" style="font-size:8.00;" x="33" y="966">person</text>
</g>
<g id="edge4" class="edge"><title>specification&#45;&gt;fake_person_323</title>
<path style="fill:none;stroke:black;" d="M166,947C129,951 94,956 70,959"/>
<polygon style="fill:black;stroke:black;" points="70,962 60,960 70,956 70,962"/>
</g>
<g id="node9" class="node"><title>fake_person_325</title>
<ellipse cx="102" cy="1141" rx="27" ry="18" style="fill:none;stroke:red;"/>
<text text-anchor="middle" style="font-size:8.00;" x="102" y="1144">person</text>
</g>
<g id="edge6" class="edge"><title>specification&#45;&gt;fake_person_325</title>
<path style="fill:none;stroke:black;" d="M166,1092C151,1103 138,1113 128,1121"/>
<polygon style="fill:black;stroke:black;" points="130,1124 120,1127 126,1118 130,1124"/>
</g>
<g id="node11" class="node"><title>fake_person_327</title>
<ellipse cx="256" cy="1136" rx="27" ry="18" style="fill:none;stroke:red;"/>
<text text-anchor="middle" style="font-size:8.00;" x="256" y="1139">person</text>
</g>
<g id="edge8" class="edge"><title>specification&#45;&gt;fake_person_327</title>
<path style="fill:none;stroke:black;" d="M277,1102C275,1105 273,1108 271,1110"/>
<polygon style="fill:black;stroke:black;" points="274,1112 266,1119 268,1109 274,1112"/>
</g>
<g id="node13" class="node"><title>fake_product_329</title>
<ellipse cx="623" cy="1197" rx="27" ry="18" style="fill:none;stroke:red;"/>
<text text-anchor="middle" style="font-size:8.00;" x="623" y="1200">product</text>
</g>
<g id="edge10" class="edge"><title>specification&#45;&gt;fake_product_329</title>
<path style="fill:none;stroke:black;" d="M542,1102C566,1130 588,1156 603,1173"/>
<polygon style="fill:black;stroke:black;" points="606,1171 610,1181 601,1176 606,1171"/>
</g>
<g id="node15" class="node"><title>fake_milestone_331</title>
<ellipse cx="364" cy="1283" rx="28" ry="18" style="fill:none;stroke:red;"/>
<text text-anchor="middle" style="font-size:8.00;" x="364" y="1286">milestone</text>
</g>
<g id="edge12" class="edge"><title>specification&#45;&gt;fake_milestone_331</title>
<path style="fill:none;stroke:black;" d="M376,1102C372,1162 368,1221 366,1255"/>
<polygon style="fill:black;stroke:black;" points="369,1255 365,1265 363,1255 369,1255"/>
</g>
<g id="node17" class="node"><title>fake_productseries_333</title>
<ellipse cx="656" cy="678" rx="34" ry="18" style="fill:none;stroke:red;"/>
<text text-anchor="middle" style="font-size:8.00;" x="656" y="681">productseries</text>
</g>
<g id="edge14" class="edge"><title>specification&#45;&gt;fake_productseries_333</title>
<path style="fill:none;stroke:black;" d="M590,738C606,724 620,710 631,701"/>
<polygon style="fill:black;stroke:black;" points="629,698 639,694 634,703 629,698"/>
</g>
<g id="node19" class="node"><title>fake_distribution_335</title>
<ellipse cx="64" cy="769" rx="30" ry="18" style="fill:none;stroke:red;"/>
<text text-anchor="middle" style="font-size:8.00;" x="64" y="772">distribution</text>
</g>
<g id="edge16" class="edge"><title>specification&#45;&gt;fake_distribution_335</title>
<path style="fill:none;stroke:black;" d="M166,816C139,804 115,793 97,785"/>
<polygon style="fill:black;stroke:black;" points="95,788 88,780 98,782 95,788"/>
</g>
<g id="node21" class="node"><title>fake_milestone_337</title>
<ellipse cx="487" cy="1138" rx="28" ry="18" style="fill:none;stroke:red;"/>
<text text-anchor="middle" style="font-size:8.00;" x="487" y="1141">milestone</text>
</g>
<g id="edge18" class="edge"><title>specification&#45;&gt;fake_milestone_337</title>
<path style="fill:none;stroke:black;" d="M471,1102C472,1105 474,1108 475,1111"/>
<polygon style="fill:black;stroke:black;" points="478,1109 479,1120 472,1112 478,1109"/>
</g>
<g id="node23" class="node"><title>fake_distrorelease_339</title>
<ellipse cx="732" cy="1037" rx="32" ry="18" style="fill:none;stroke:red;"/>
<text text-anchor="middle" style="font-size:8.00;" x="732" y="1040">distrorelease</text>
</g>
<g id="edge20" class="edge"><title>specification&#45;&gt;fake_distrorelease_339</title>
<path style="fill:none;stroke:black;" d="M610,996C643,1006 673,1017 694,1025"/>
<polygon style="fill:black;stroke:black;" points="695,1022 704,1028 693,1028 695,1022"/>
</g>
<g id="node2" class="node"><title>sprint</title>
<polygon style="fill:#c1cdcc;stroke:#c1cdcc;" points="214,449 214,275 390,275 390,449 214,449"/>
<polygon style="fill:white;stroke:white;" points="217,292 217,278 387,278 387,292 217,292"/>
<text text-anchor="middle" style="font-size:8.00;" x="302" y="288">sprint</text>
<polygon style="fill:none;stroke:black;" points="217,292 217,278 387,278 387,292 217,292"/>
<text text-anchor="middle" style="font-size:8.00;" x="223" y="303">id</text>
<text text-anchor="middle" style="font-size:8.00;" x="274" y="303">serial</text>
<text text-anchor="middle" style="font-size:8.00;" x="336" y="303"> PRIMARY KEY </text>
<text text-anchor="middle" style="font-size:8.00;" x="230" y="317">owner</text>
<text text-anchor="middle" style="font-size:8.00;" x="277" y="317">integer</text>
<text text-anchor="middle" style="font-size:8.00;" x="346" y="317"> REFERENCES person </text>
<text text-anchor="middle" style="font-size:8.00;" x="229" y="331">name</text>
<text text-anchor="middle" style="font-size:8.00;" x="272" y="331">text</text>
<text text-anchor="middle" style="font-size:8.00;" x="324" y="331"> UNIQUE </text>
<text text-anchor="middle" style="font-size:8.00;" x="226" y="345">title</text>
<text text-anchor="middle" style="font-size:8.00;" x="272" y="345">text</text>
<text text-anchor="middle" style="font-size:8.00;" x="235" y="359">summary</text>
<text text-anchor="middle" style="font-size:8.00;" x="272" y="359">text</text>
<text text-anchor="middle" style="font-size:8.00;" x="239" y="373">home_page</text>
<text text-anchor="middle" style="font-size:8.00;" x="272" y="373">text</text>
<text text-anchor="middle" style="font-size:8.00;" x="232" y="387">address</text>
<text text-anchor="middle" style="font-size:8.00;" x="272" y="387">text</text>
<text text-anchor="middle" style="font-size:8.00;" x="237" y="401">time_zone</text>
<text text-anchor="middle" style="font-size:8.00;" x="272" y="401">text</text>
<text text-anchor="middle" style="font-size:8.00;" x="238" y="415">time_starts</text>
<text text-anchor="middle" style="font-size:8.00;" x="283" y="415">timestamp</text>
<text text-anchor="middle" style="font-size:8.00;" x="237" y="429">time_ends</text>
<text text-anchor="middle" style="font-size:8.00;" x="283" y="429">timestamp</text>
<text text-anchor="middle" style="font-size:8.00;" x="238" y="443">datecreated</text>
<text text-anchor="middle" style="font-size:8.00;" x="283" y="443">timestamp</text>
<polygon style="fill:none;stroke:black;" points="214,449 214,275 390,275 390,449 214,449"/>
</g>
<g id="node26" class="node"><title>fake_person_353</title>
<ellipse cx="157" cy="233" rx="27" ry="18" style="fill:none;stroke:red;"/>
<text text-anchor="middle" style="font-size:8.00;" x="157" y="236">person</text>
</g>
<g id="edge24" class="edge"><title>sprint&#45;&gt;fake_person_353</title>
<path style="fill:none;stroke:black;" d="M206,276C197,268 189,261 182,254"/>
<polygon style="fill:black;stroke:black;" points="179,256 174,247 184,251 179,256"/>
</g>
<g id="node3" class="node"><title>sprintattendance</title>
<polygon style="fill:#c1cdcc;stroke:#c1cdcc;" points="232,247 232,157 438,157 438,247 232,247"/>
<polygon style="fill:white;stroke:white;" points="235,174 235,160 435,160 435,174 235,174"/>
<text text-anchor="middle" style="font-size:8.00;" x="335" y="170">sprintattendance</text>
<polygon style="fill:none;stroke:black;" points="235,174 235,160 435,160 435,174 235,174"/>
<text text-anchor="middle" style="font-size:8.00;" x="241" y="185">id</text>
<text text-anchor="middle" style="font-size:8.00;" x="290" y="185">serial</text>
<text text-anchor="middle" style="font-size:8.00;" x="352" y="185"> PRIMARY KEY </text>
<text text-anchor="middle" style="font-size:8.00;" x="251" y="199">attendee</text>
<text text-anchor="middle" style="font-size:8.00;" x="293" y="199">integer</text>
<text text-anchor="middle" style="font-size:8.00;" x="378" y="199"> UNIQUE REFERENCES person </text>
<text text-anchor="middle" style="font-size:8.00;" x="247" y="213">sprint</text>
<text text-anchor="middle" style="font-size:8.00;" x="293" y="213">integer</text>
<text text-anchor="middle" style="font-size:8.00;" x="376" y="213"> UNIQUE REFERENCES sprint </text>
<text text-anchor="middle" style="font-size:8.00;" x="256" y="227">time_starts</text>
<text text-anchor="middle" style="font-size:8.00;" x="299" y="227">timestamp</text>
<text text-anchor="middle" style="font-size:8.00;" x="255" y="241">time_ends</text>
<text text-anchor="middle" style="font-size:8.00;" x="299" y="241">timestamp</text>
<polygon style="fill:none;stroke:black;" points="232,247 232,157 438,157 438,247 232,247"/>
</g>
<g id="edge28" class="edge"><title>sprintattendance&#45;&gt;sprint</title>
<path style="fill:none;stroke:black;" d="M325,251C324,254 324,257 323,261"/>
<polygon style="fill:black;stroke:black;" points="326,262 321,271 320,261 326,262"/>
</g>
<g id="node28" class="node"><title>fake_person_355</title>
<ellipse cx="359" cy="23" rx="27" ry="18" style="fill:none;stroke:red;"/>
<text text-anchor="middle" style="font-size:8.00;" x="359" y="26">person</text>
</g>
<g id="edge26" class="edge"><title>sprintattendance&#45;&gt;fake_person_355</title>
<path style="fill:none;stroke:black;" d="M342,153C346,120 352,78 356,51"/>
<polygon style="fill:black;stroke:black;" points="353,51 357,41 359,51 353,51"/>
</g>
<g id="node4" class="node"><title>sprintspecification</title>
<polygon style="fill:#c1cdcc;stroke:#c1cdcc;" points="242,718 242,628 462,628 462,718 242,718"/>
<polygon style="fill:white;stroke:white;" points="245,645 245,631 459,631 459,645 245,645"/>
<text text-anchor="middle" style="font-size:8.00;" x="352" y="641">sprintspecification</text>
<polygon style="fill:none;stroke:black;" points="245,645 245,631 459,631 459,645 245,645"/>
<text text-anchor="middle" style="font-size:8.00;" x="251" y="656">id</text>
<text text-anchor="middle" style="font-size:8.00;" x="305" y="656">serial</text>
<text text-anchor="middle" style="font-size:8.00;" x="356" y="656"> PRIMARY KEY </text>
<text text-anchor="middle" style="font-size:8.00;" x="257" y="670">sprint</text>
<text text-anchor="middle" style="font-size:8.00;" x="308" y="670">integer</text>
<text text-anchor="middle" style="font-size:8.00;" x="380" y="670"> REFERENCES sprint UNIQUE </text>
<text text-anchor="middle" style="font-size:8.00;" x="268" y="684">specification</text>
<text text-anchor="middle" style="font-size:8.00;" x="308" y="684">integer</text>
<text text-anchor="middle" style="font-size:8.00;" x="392" y="684"> REFERENCES specification UNIQUE </text>
<text text-anchor="middle" style="font-size:8.00;" x="257" y="698">status</text>
<text text-anchor="middle" style="font-size:8.00;" x="308" y="698">integer</text>
<text text-anchor="middle" style="font-size:8.00;" x="266" y="712">whiteboard</text>
<text text-anchor="middle" style="font-size:8.00;" x="303" y="712">text</text>
<polygon style="fill:none;stroke:black;" points="242,718 242,628 462,628 462,718 242,718"/>
</g>
<g id="edge32" class="edge"><title>sprintspecification&#45;&gt;specification</title>
<path style="fill:none;stroke:black;" d="M359,722C359,724 360,726 360,728"/>
<polygon style="fill:black;stroke:black;" points="363,728 361,738 357,728 363,728"/>
</g>
<g id="edge30" class="edge"><title>sprintspecification&#45;&gt;sprint</title>
<path style="fill:none;stroke:black;" d="M344,624C337,581 327,517 319,463"/>
<polygon style="fill:black;stroke:black;" points="316,463 317,453 322,462 316,463"/>
</g>
</g>
</svg>
