<?xml version="1.0" encoding="UTF-8" standalone="no"?>
<!DOCTYPE svg PUBLIC "-//W3C//DTD SVG 1.0//EN"
 "http://www.w3.org/TR/2001/REC-SVG-20010904/DTD/svg10.dtd">
<!-- Generated by fdp version 2.2.1 (Thu Apr 14 05:40:09 UTC 2005)
     For user: (stub) Stuart Bishop,,,   Title: g    Pages: 1 -->
<svg width="703px" height="535px"
 viewBox = "-1 -1 702 534"
 xmlns="http://www.w3.org/2000/svg">
<g id="graph0" class="graph" transform = "scale(0.800919)"
 style="font-family:Times-Roman;font-size:14.00;">
<title>g</title>
<text text-anchor="middle" style="font-size:22.00;" x="436" y="649">Sprint</text>
<g id="node1" class="node"><title>specification</title>
<polygon style="fill:#c1cdcc;stroke:#c1cdcc;" points="152,439 152,205 468,205 468,439 152,439"/>
<polygon style="fill:white;stroke:white;" points="155,220 155,208 465,208 465,220 155,220"/>
<text text-anchor="middle" style="font-size:6.00;" x="310" y="216">specification</text>
<polygon style="fill:none;stroke:black;" points="155,220 155,208 465,208 465,220 155,220"/>
<text text-anchor="middle" style="font-size:6.00;" x="160" y="229">id</text>
<text text-anchor="middle" style="font-size:6.00;" x="205" y="229">serial</text>
<text text-anchor="middle" style="font-size:6.00;" x="254" y="229"> PRIMARY KEY </text>
<text text-anchor="middle" style="font-size:6.00;" x="165" y="241">name</text>
<text text-anchor="middle" style="font-size:6.00;" x="204" y="241">text</text>
<text text-anchor="middle" style="font-size:6.00;" x="257" y="241"> UNIQUE UNIQUE </text>
<text text-anchor="middle" style="font-size:6.00;" x="163" y="253">title</text>
<text text-anchor="middle" style="font-size:6.00;" x="204" y="253">text</text>
<text text-anchor="middle" style="font-size:6.00;" x="169" y="265">summary</text>
<text text-anchor="middle" style="font-size:6.00;" x="204" y="265">text</text>
<text text-anchor="middle" style="font-size:6.00;" x="166" y="277">owner</text>
<text text-anchor="middle" style="font-size:6.00;" x="207" y="277">integer</text>
<text text-anchor="middle" style="font-size:6.00;" x="261" y="277"> REFERENCES person </text>
<text text-anchor="middle" style="font-size:6.00;" x="168" y="289">assignee</text>
<text text-anchor="middle" style="font-size:6.00;" x="207" y="289">integer</text>
<text text-anchor="middle" style="font-size:6.00;" x="261" y="289"> REFERENCES person </text>
<text text-anchor="middle" style="font-size:6.00;" x="166" y="301">drafter</text>
<text text-anchor="middle" style="font-size:6.00;" x="207" y="301">integer</text>
<text text-anchor="middle" style="font-size:6.00;" x="261" y="301"> REFERENCES person </text>
<text text-anchor="middle" style="font-size:6.00;" x="169" y="313">approver</text>
<text text-anchor="middle" style="font-size:6.00;" x="207" y="313">integer</text>
<text text-anchor="middle" style="font-size:6.00;" x="261" y="313"> REFERENCES person </text>
<text text-anchor="middle" style="font-size:6.00;" x="172" y="325">datecreated</text>
<text text-anchor="middle" style="font-size:6.00;" x="212" y="325">timestamp</text>
<text text-anchor="middle" style="font-size:6.00;" x="167" y="337">product</text>
<text text-anchor="middle" style="font-size:6.00;" x="207" y="337">integer</text>
<text text-anchor="middle" style="font-size:6.00;" x="343" y="337"> REFERENCES product REFERENCES milestone UNIQUE REFERENCES productseries </text>
<text text-anchor="middle" style="font-size:6.00;" x="174" y="349">productseries</text>
<text text-anchor="middle" style="font-size:6.00;" x="207" y="349">integer</text>
<text text-anchor="middle" style="font-size:6.00;" x="269" y="349"> REFERENCES productseries </text>
<text text-anchor="middle" style="font-size:6.00;" x="172" y="361">distribution</text>
<text text-anchor="middle" style="font-size:6.00;" x="207" y="361">integer</text>
<text text-anchor="middle" style="font-size:6.00;" x="347" y="361"> REFERENCES distribution REFERENCES milestone UNIQUE REFERENCES distrorelease </text>
<text text-anchor="middle" style="font-size:6.00;" x="173" y="373">distrorelease</text>
<text text-anchor="middle" style="font-size:6.00;" x="207" y="373">integer</text>
<text text-anchor="middle" style="font-size:6.00;" x="268" y="373"> REFERENCES distrorelease </text>
<text text-anchor="middle" style="font-size:6.00;" x="170" y="385">milestone</text>
<text text-anchor="middle" style="font-size:6.00;" x="207" y="385">integer</text>
<text text-anchor="middle" style="font-size:6.00;" x="297" y="385"> REFERENCES milestone REFERENCES milestone </text>
<text text-anchor="middle" style="font-size:6.00;" x="165" y="397">status</text>
<text text-anchor="middle" style="font-size:6.00;" x="207" y="397">integer</text>
<text text-anchor="middle" style="font-size:6.00;" x="167" y="409">priority</text>
<text text-anchor="middle" style="font-size:6.00;" x="207" y="409">integer</text>
<text text-anchor="middle" style="font-size:6.00;" x="166" y="421">specurl</text>
<text text-anchor="middle" style="font-size:6.00;" x="204" y="421">text</text>
<text text-anchor="middle" style="font-size:6.00;" x="245" y="421"> UNIQUE </text>
<text text-anchor="middle" style="font-size:6.00;" x="172" y="433">whiteboard</text>
<text text-anchor="middle" style="font-size:6.00;" x="204" y="433">text</text>
<polygon style="fill:none;stroke:black;" points="152,439 152,205 468,205 468,439 152,439"/>
</g>
<g id="node5" class="node"><title>fake_person_284</title>
<ellipse cx="276" cy="158" rx="27" ry="18" style="fill:none;stroke:red;"/>
<text text-anchor="middle" style="font-size:6.00;" x="276" y="160">person</text>
</g>
<g id="edge2" class="edge"><title>specification&#45;&gt;fake_person_284</title>
<path style="fill:none;stroke:black;" d="M285,201C284,195 283,190 282,186"/>
<polygon style="fill:black;stroke:black;" points="279,186 280,176 285,185 279,186"/>
</g>
<g id="node7" class="node"><title>fake_person_286</title>
<ellipse cx="124" cy="92" rx="27" ry="18" style="fill:none;stroke:red;"/>
<text text-anchor="middle" style="font-size:6.00;" x="124" y="94">person</text>
</g>
<g id="edge4" class="edge"><title>specification&#45;&gt;fake_person_286</title>
<path style="fill:none;stroke:black;" d="M212,201C186,168 160,137 143,116"/>
<polygon style="fill:black;stroke:black;" points="140,118 137,108 146,114 140,118"/>
</g>
<g id="node9" class="node"><title>fake_person_288</title>
<ellipse cx="169" cy="504" rx="27" ry="18" style="fill:none;stroke:red;"/>
<text text-anchor="middle" style="font-size:6.00;" x="169" y="506">person</text>
</g>
<g id="edge6" class="edge"><title>specification&#45;&gt;fake_person_288</title>
<path style="fill:none;stroke:black;" d="M216,443C205,457 196,470 188,480"/>
<polygon style="fill:black;stroke:black;" points="191,482 182,488 185,478 191,482"/>
</g>
<g id="node11" class="node"><title>fake_person_290</title>
<ellipse cx="512" cy="527" rx="27" ry="18" style="fill:none;stroke:red;"/>
<text text-anchor="middle" style="font-size:6.00;" x="512" y="529">person</text>
</g>
<g id="edge8" class="edge"><title>specification&#45;&gt;fake_person_290</title>
<path style="fill:none;stroke:black;" d="M429,443C452,466 475,489 490,505"/>
<polygon style="fill:black;stroke:black;" points="492,502 497,512 487,507 492,502"/>
</g>
<g id="node13" class="node"><title>fake_product_292</title>
<ellipse cx="47" cy="439" rx="27" ry="18" style="fill:none;stroke:red;"/>
<text text-anchor="middle" style="font-size:6.00;" x="47" y="441">product</text>
</g>
<g id="edge10" class="edge"><title>specification&#45;&gt;fake_product_292</title>
<path style="fill:none;stroke:black;" d="M144,396C119,407 97,417 79,425"/>
<polygon style="fill:black;stroke:black;" points="81,428 70,429 78,422 81,428"/>
</g>
<g id="node15" class="node"><title>fake_milestone_294</title>
<ellipse cx="248" cy="606" rx="27" ry="18" style="fill:none;stroke:red;"/>
<text text-anchor="middle" style="font-size:6.00;" x="248" y="608">milestone</text>
</g>
<g id="edge12" class="edge"><title>specification&#45;&gt;fake_milestone_294</title>
<path style="fill:none;stroke:black;" d="M284,443C273,493 261,546 254,578"/>
<polygon style="fill:black;stroke:black;" points="257,579 252,588 251,578 257,579"/>
</g>
<g id="node17" class="node"><title>fake_productseries_296</title>
<ellipse cx="393" cy="601" rx="28" ry="18" style="fill:none;stroke:red;"/>
<text text-anchor="middle" style="font-size:6.00;" x="393" y="603">productseries</text>
</g>
<g id="edge14" class="edge"><title>specification&#45;&gt;fake_productseries_296</title>
<path style="fill:none;stroke:black;" d="M346,443C360,492 376,542 385,573"/>
<polygon style="fill:black;stroke:black;" points="388,572 388,583 382,574 388,572"/>
</g>
<g id="node19" class="node"><title>fake_distribution_298</title>
<ellipse cx="33" cy="249" rx="27" ry="18" style="fill:none;stroke:red;"/>
<text text-anchor="middle" style="font-size:6.00;" x="33" y="251">distribution</text>
</g>
<g id="edge16" class="edge"><title>specification&#45;&gt;fake_distribution_298</title>
<path style="fill:none;stroke:black;" d="M144,278C115,270 88,263 68,258"/>
<polygon style="fill:black;stroke:black;" points="67,261 58,256 68,255 67,261"/>
</g>
<g id="node21" class="node"><title>fake_milestone_300</title>
<ellipse cx="539" cy="221" rx="27" ry="18" style="fill:none;stroke:red;"/>
<text text-anchor="middle" style="font-size:6.00;" x="539" y="223">milestone</text>
</g>
<g id="edge18" class="edge"><title>specification&#45;&gt;fake_milestone_300</title>
<path style="fill:none;stroke:black;" d="M476,249C488,244 498,239 507,235"/>
<polygon style="fill:black;stroke:black;" points="505,232 516,231 508,238 505,232"/>
</g>
<g id="node23" class="node"><title>fake_distrorelease_302</title>
<ellipse cx="357" cy="25" rx="27" ry="18" style="fill:none;stroke:red;"/>
<text text-anchor="middle" style="font-size:6.00;" x="357" y="27">distrorelease</text>
</g>
<g id="edge20" class="edge"><title>specification&#45;&gt;fake_distrorelease_302</title>
<path style="fill:none;stroke:black;" d="M329,201C338,147 347,87 352,53"/>
<polygon style="fill:black;stroke:black;" points="349,52 354,43 355,53 349,52"/>
</g>
<g id="node2" class="node"><title>sprint</title>
<polygon style="fill:#c1cdcc;stroke:#c1cdcc;" points="648,300 648,150 786,150 786,300 648,300"/>
<polygon style="fill:white;stroke:white;" points="651,165 651,153 783,153 783,165 651,165"/>
<text text-anchor="middle" style="font-size:6.00;" x="717" y="161">sprint</text>
<polygon style="fill:none;stroke:black;" points="651,165 651,153 783,153 783,165 651,165"/>
<text text-anchor="middle" style="font-size:6.00;" x="656" y="174">id</text>
<text text-anchor="middle" style="font-size:6.00;" x="695" y="174">serial</text>
<text text-anchor="middle" style="font-size:6.00;" x="744" y="174"> PRIMARY KEY </text>
<text text-anchor="middle" style="font-size:6.00;" x="662" y="186">owner</text>
<text text-anchor="middle" style="font-size:6.00;" x="697" y="186">integer</text>
<text text-anchor="middle" style="font-size:6.00;" x="751" y="186"> REFERENCES person </text>
<text text-anchor="middle" style="font-size:6.00;" x="661" y="198">name</text>
<text text-anchor="middle" style="font-size:6.00;" x="694" y="198">text</text>
<text text-anchor="middle" style="font-size:6.00;" x="735" y="198"> UNIQUE </text>
<text text-anchor="middle" style="font-size:6.00;" x="659" y="210">title</text>
<text text-anchor="middle" style="font-size:6.00;" x="694" y="210">text</text>
<text text-anchor="middle" style="font-size:6.00;" x="665" y="222">summary</text>
<text text-anchor="middle" style="font-size:6.00;" x="694" y="222">text</text>
<text text-anchor="middle" style="font-size:6.00;" x="668" y="234">home_page</text>
<text text-anchor="middle" style="font-size:6.00;" x="694" y="234">text</text>
<text text-anchor="middle" style="font-size:6.00;" x="663" y="246">address</text>
<text text-anchor="middle" style="font-size:6.00;" x="694" y="246">text</text>
<text text-anchor="middle" style="font-size:6.00;" x="667" y="258">time_zone</text>
<text text-anchor="middle" style="font-size:6.00;" x="694" y="258">text</text>
<text text-anchor="middle" style="font-size:6.00;" x="667" y="270">time_starts</text>
<text text-anchor="middle" style="font-size:6.00;" x="702" y="270">timestamp</text>
<text text-anchor="middle" style="font-size:6.00;" x="667" y="282">time_ends</text>
<text text-anchor="middle" style="font-size:6.00;" x="702" y="282">timestamp</text>
<text text-anchor="middle" style="font-size:6.00;" x="668" y="294">datecreated</text>
<text text-anchor="middle" style="font-size:6.00;" x="702" y="294">timestamp</text>
<polygon style="fill:none;stroke:black;" points="648,300 648,150 786,150 786,300 648,300"/>
</g>
<g id="node25" class="node"><title>fake_person_315</title>
<ellipse cx="840" cy="198" rx="27" ry="18" style="fill:none;stroke:red;"/>
<text text-anchor="middle" style="font-size:6.00;" x="840" y="200">person</text>
</g>
<g id="edge22" class="edge"><title>sprint&#45;&gt;fake_person_315</title>
<path style="fill:none;stroke:black;" d="M794,208C797,208 801,207 804,206"/>
<polygon style="fill:black;stroke:black;" points="804,203 814,204 805,209 804,203"/>
</g>
<g id="node3" class="node"><title>sprintattendance</title>
<polygon style="fill:#c1cdcc;stroke:#c1cdcc;" points="693,410 693,332 855,332 855,410 693,410"/>
<polygon style="fill:white;stroke:white;" points="696,347 696,335 852,335 852,347 696,347"/>
<text text-anchor="middle" style="font-size:6.00;" x="774" y="343">sprintattendance</text>
<polygon style="fill:none;stroke:black;" points="696,347 696,335 852,335 852,347 696,347"/>
<text text-anchor="middle" style="font-size:6.00;" x="701" y="356">id</text>
<text text-anchor="middle" style="font-size:6.00;" x="740" y="356">serial</text>
<text text-anchor="middle" style="font-size:6.00;" x="789" y="356"> PRIMARY KEY </text>
<text text-anchor="middle" style="font-size:6.00;" x="709" y="368">attendee</text>
<text text-anchor="middle" style="font-size:6.00;" x="742" y="368">integer</text>
<text text-anchor="middle" style="font-size:6.00;" x="808" y="368"> UNIQUE REFERENCES person </text>
<text text-anchor="middle" style="font-size:6.00;" x="706" y="380">sprint</text>
<text text-anchor="middle" style="font-size:6.00;" x="742" y="380">integer</text>
<text text-anchor="middle" style="font-size:6.00;" x="807" y="380"> UNIQUE REFERENCES sprint </text>
<text text-anchor="middle" style="font-size:6.00;" x="712" y="392">time_starts</text>
<text text-anchor="middle" style="font-size:6.00;" x="747" y="392">timestamp</text>
<text text-anchor="middle" style="font-size:6.00;" x="712" y="404">time_ends</text>
<text text-anchor="middle" style="font-size:6.00;" x="747" y="404">timestamp</text>
<polygon style="fill:none;stroke:black;" points="693,410 693,332 855,332 855,410 693,410"/>
</g>
<g id="edge26" class="edge"><title>sprintattendance&#45;&gt;sprint</title>
<path style="fill:none;stroke:black;" d="M757,328C755,323 753,318 752,313"/>
<polygon style="fill:black;stroke:black;" points="749,315 748,304 755,312 749,315"/>
</g>
<g id="node27" class="node"><title>fake_person_317</title>
<ellipse cx="766" cy="534" rx="27" ry="18" style="fill:none;stroke:red;"/>
<text text-anchor="middle" style="font-size:6.00;" x="766" y="536">person</text>
</g>
<g id="edge24" class="edge"><title>sprintattendance&#45;&gt;fake_person_317</title>
<path style="fill:none;stroke:black;" d="M772,414C771,443 769,480 767,506"/>
<polygon style="fill:black;stroke:black;" points="771,506 767,516 764,506 771,506"/>
</g>
<g id="node4" class="node"><title>sprintspecification</title>
<polygon style="fill:#c1cdcc;stroke:#c1cdcc;" points="479,74 479,20 651,20 651,74 479,74"/>
<polygon style="fill:white;stroke:white;" points="482,35 482,23 648,23 648,35 482,35"/>
<text text-anchor="middle" style="font-size:6.00;" x="565" y="31">sprintspecification</text>
<polygon style="fill:none;stroke:black;" points="482,35 482,23 648,23 648,35 482,35"/>
<text text-anchor="middle" style="font-size:6.00;" x="487" y="44">id</text>
<text text-anchor="middle" style="font-size:6.00;" x="530" y="44">serial</text>
<text text-anchor="middle" style="font-size:6.00;" x="570" y="44"> PRIMARY KEY </text>
<text text-anchor="middle" style="font-size:6.00;" x="492" y="56">sprint</text>
<text text-anchor="middle" style="font-size:6.00;" x="532" y="56">integer</text>
<text text-anchor="middle" style="font-size:6.00;" x="588" y="56"> REFERENCES sprint UNIQUE </text>
<text text-anchor="middle" style="font-size:6.00;" x="500" y="68">specification</text>
<text text-anchor="middle" style="font-size:6.00;" x="532" y="68">integer</text>
<text text-anchor="middle" style="font-size:6.00;" x="597" y="68"> REFERENCES specification UNIQUE </text>
<polygon style="fill:none;stroke:black;" points="479,74 479,20 651,20 651,74 479,74"/>
</g>
<g id="edge30" class="edge"><title>sprintspecification&#45;&gt;specification</title>
<path style="fill:none;stroke:black;" d="M536,78C510,106 469,151 430,194"/>
<polygon style="fill:black;stroke:black;" points="433,196 423,201 428,191 433,196"/>
</g>
<g id="edge28" class="edge"><title>sprintspecification&#45;&gt;sprint</title>
<path style="fill:none;stroke:black;" d="M591,78C605,95 624,117 642,138"/>
<polygon style="fill:black;stroke:black;" points="645,136 649,146 640,141 645,136"/>
</g>
</g>
</svg>
