<?xml version="1.0" encoding="UTF-8" standalone="no"?>
<!DOCTYPE svg PUBLIC "-//W3C//DTD SVG 1.0//EN"
 "http://www.w3.org/TR/2001/REC-SVG-20010904/DTD/svg10.dtd">
<!-- Generated by fdp version 2.2.1 (Tue Oct 11 01:38:21 UTC 2005)
     For user: (stub) Stuart Bishop,,,   Title: g    Pages: 1 -->
<svg width="994px" height="1256px"
 viewBox = "-1 -1 993 1255"
 xmlns="http://www.w3.org/2000/svg">
<g id="graph0" class="graph" style="font-family:Times-Roman;font-size:14.00;">
<title>g</title>
<text text-anchor="middle" style="font-size:22.00;" x="496" y="1238">Sprint</text>
<g id="node1" class="node"><title>specification</title>
<polygon style="fill:#c1cdcc;stroke:#c1cdcc;" points="198,997 198,641 626,641 626,997 198,997"/>
<polygon style="fill:white;stroke:white;" points="201,658 201,644 623,644 623,658 201,658"/>
<text text-anchor="middle" style="font-size:8.00;" x="412" y="654">specification</text>
<polygon style="fill:none;stroke:black;" points="201,658 201,644 623,644 623,658 201,658"/>
<text text-anchor="middle" style="font-size:8.00;" x="207" y="669">id</text>
<text text-anchor="middle" style="font-size:8.00;" x="283" y="669">serial</text>
<text text-anchor="middle" style="font-size:8.00;" x="345" y="669"> PRIMARY KEY </text>
<text text-anchor="middle" style="font-size:8.00;" x="213" y="683">name</text>
<text text-anchor="middle" style="font-size:8.00;" x="281" y="683">text</text>
<text text-anchor="middle" style="font-size:8.00;" x="349" y="683"> UNIQUE UNIQUE </text>
<text text-anchor="middle" style="font-size:8.00;" x="210" y="697">title</text>
<text text-anchor="middle" style="font-size:8.00;" x="281" y="697">text</text>
<text text-anchor="middle" style="font-size:8.00;" x="219" y="711">summary</text>
<text text-anchor="middle" style="font-size:8.00;" x="281" y="711">text</text>
<text text-anchor="middle" style="font-size:8.00;" x="214" y="725">owner</text>
<text text-anchor="middle" style="font-size:8.00;" x="286" y="725">integer</text>
<text text-anchor="middle" style="font-size:8.00;" x="355" y="725"> REFERENCES person </text>
<text text-anchor="middle" style="font-size:8.00;" x="217" y="739">assignee</text>
<text text-anchor="middle" style="font-size:8.00;" x="286" y="739">integer</text>
<text text-anchor="middle" style="font-size:8.00;" x="355" y="739"> REFERENCES person </text>
<text text-anchor="middle" style="font-size:8.00;" x="214" y="753">drafter</text>
<text text-anchor="middle" style="font-size:8.00;" x="286" y="753">integer</text>
<text text-anchor="middle" style="font-size:8.00;" x="355" y="753"> REFERENCES person </text>
<text text-anchor="middle" style="font-size:8.00;" x="218" y="767">approver</text>
<text text-anchor="middle" style="font-size:8.00;" x="286" y="767">integer</text>
<text text-anchor="middle" style="font-size:8.00;" x="355" y="767"> REFERENCES person </text>
<text text-anchor="middle" style="font-size:8.00;" x="222" y="781">datecreated</text>
<text text-anchor="middle" style="font-size:8.00;" x="292" y="781">timestamp</text>
<text text-anchor="middle" style="font-size:8.00;" x="216" y="795">product</text>
<text text-anchor="middle" style="font-size:8.00;" x="286" y="795">integer</text>
<text text-anchor="middle" style="font-size:8.00;" x="463" y="795"> REFERENCES product REFERENCES milestone UNIQUE REFERENCES productseries </text>
<text text-anchor="middle" style="font-size:8.00;" x="226" y="809">productseries</text>
<text text-anchor="middle" style="font-size:8.00;" x="286" y="809">integer</text>
<text text-anchor="middle" style="font-size:8.00;" x="365" y="809"> REFERENCES productseries </text>
<text text-anchor="middle" style="font-size:8.00;" x="222" y="823">distribution</text>
<text text-anchor="middle" style="font-size:8.00;" x="286" y="823">integer</text>
<text text-anchor="middle" style="font-size:8.00;" x="468" y="823"> REFERENCES distribution REFERENCES milestone UNIQUE REFERENCES distrorelease </text>
<text text-anchor="middle" style="font-size:8.00;" x="224" y="837">distrorelease</text>
<text text-anchor="middle" style="font-size:8.00;" x="286" y="837">integer</text>
<text text-anchor="middle" style="font-size:8.00;" x="364" y="837"> REFERENCES distrorelease </text>
<text text-anchor="middle" style="font-size:8.00;" x="220" y="851">milestone</text>
<text text-anchor="middle" style="font-size:8.00;" x="286" y="851">integer</text>
<text text-anchor="middle" style="font-size:8.00;" x="402" y="851"> REFERENCES milestone REFERENCES milestone </text>
<text text-anchor="middle" style="font-size:8.00;" x="213" y="865">status</text>
<text text-anchor="middle" style="font-size:8.00;" x="286" y="865">integer</text>
<text text-anchor="middle" style="font-size:8.00;" x="216" y="879">priority</text>
<text text-anchor="middle" style="font-size:8.00;" x="286" y="879">integer</text>
<text text-anchor="middle" style="font-size:8.00;" x="215" y="893">specurl</text>
<text text-anchor="middle" style="font-size:8.00;" x="281" y="893">text</text>
<text text-anchor="middle" style="font-size:8.00;" x="333" y="893"> UNIQUE </text>
<text text-anchor="middle" style="font-size:8.00;" x="222" y="907">whiteboard</text>
<text text-anchor="middle" style="font-size:8.00;" x="281" y="907">text</text>
<text text-anchor="middle" style="font-size:8.00;" x="228" y="921">superseded_by</text>
<text text-anchor="middle" style="font-size:8.00;" x="286" y="921">integer</text>
<text text-anchor="middle" style="font-size:8.00;" x="364" y="921"> REFERENCES specification </text>
<text text-anchor="middle" style="font-size:8.00;" x="232" y="935">needs_discussion</text>
<text text-anchor="middle" style="font-size:8.00;" x="288" y="935">boolean</text>
<text text-anchor="middle" style="font-size:8.00;" x="235" y="949">direction_approved</text>
<text text-anchor="middle" style="font-size:8.00;" x="288" y="949">boolean</text>
<text text-anchor="middle" style="font-size:8.00;" x="221" y="963">man_days</text>
<text text-anchor="middle" style="font-size:8.00;" x="286" y="963">integer</text>
<text text-anchor="middle" style="font-size:8.00;" x="217" y="977">delivery</text>
<text text-anchor="middle" style="font-size:8.00;" x="286" y="977">integer</text>
<text text-anchor="middle" style="font-size:8.00;" x="220" y="991">goalstatus</text>
<text text-anchor="middle" style="font-size:8.00;" x="286" y="991">integer</text>
<polygon style="fill:none;stroke:black;" points="198,997 198,641 626,641 626,997 198,997"/>
</g>
<g id="edge22" class="edge"><title>specification&#45;&gt;specification</title>
<path style="fill:none;stroke:black;" d="M634,908C645,886 652,856 652,819 652,787 647,760 638,739"/>
<polygon style="fill:black;stroke:black;" points="635,741 634,730 641,738 635,741"/>
</g>
<g id="node5" class="node"><title>fake_person_321</title>
<ellipse cx="302" cy="600" rx="27" ry="18" style="fill:none;stroke:red;"/>
<text text-anchor="middle" style="font-size:8.00;" x="302" y="603">person</text>
</g>
<g id="edge2" class="edge"><title>specification&#45;&gt;fake_person_321</title>
<path style="fill:none;stroke:black;" d="M320,637C318,634 316,630 315,627"/>
<polygon style="fill:black;stroke:black;" points="312,628 310,618 318,625 312,628"/>
</g>
<g id="node7" class="node"><title>fake_person_323</title>
<ellipse cx="107" cy="581" rx="27" ry="18" style="fill:none;stroke:red;"/>
<text text-anchor="middle" style="font-size:8.00;" x="107" y="584">person</text>
</g>
<g id="edge4" class="edge"><title>specification&#45;&gt;fake_person_323</title>
<path style="fill:none;stroke:black;" d="M190,646C167,628 148,612 133,601"/>
<polygon style="fill:black;stroke:black;" points="131,604 125,595 135,598 131,604"/>
</g>
<g id="node9" class="node"><title>fake_person_325</title>
<ellipse cx="33" cy="768" rx="27" ry="18" style="fill:none;stroke:red;"/>
<text text-anchor="middle" style="font-size:8.00;" x="33" y="771">person</text>
</g>
<g id="edge6" class="edge"><title>specification&#45;&gt;fake_person_325</title>
<path style="fill:none;stroke:black;" d="M190,789C143,783 100,777 70,773"/>
<polygon style="fill:black;stroke:black;" points="70,776 60,772 70,770 70,776"/>
</g>
<g id="node11" class="node"><title>fake_person_327</title>
<ellipse cx="502" cy="1195" rx="27" ry="18" style="fill:none;stroke:red;"/>
<text text-anchor="middle" style="font-size:8.00;" x="502" y="1198">person</text>
</g>
<g id="edge8" class="edge"><title>specification&#45;&gt;fake_person_327</title>
<path style="fill:none;stroke:black;" d="M456,1001C471,1065 487,1131 496,1167"/>
<polygon style="fill:black;stroke:black;" points="499,1167 498,1177 493,1168 499,1167"/>
</g>
<g id="node13" class="node"><title>fake_product_329</title>
<ellipse cx="313" cy="1189" rx="27" ry="18" style="fill:none;stroke:red;"/>
<text text-anchor="middle" style="font-size:8.00;" x="313" y="1192">product</text>
</g>
<g id="edge10" class="edge"><title>specification&#45;&gt;fake_product_329</title>
<path style="fill:none;stroke:black;" d="M363,1001C347,1064 330,1126 321,1161"/>
<polygon style="fill:black;stroke:black;" points="324,1162 318,1171 318,1160 324,1162"/>
</g>
<g id="node15" class="node"><title>fake_milestone_331</title>
<ellipse cx="155" cy="1102" rx="28" ry="18" style="fill:none;stroke:red;"/>
<text text-anchor="middle" style="font-size:8.00;" x="155" y="1105">milestone</text>
</g>
<g id="edge12" class="edge"><title>specification&#45;&gt;fake_milestone_331</title>
<path style="fill:none;stroke:black;" d="M247,1001C219,1032 193,1060 176,1079"/>
<polygon style="fill:black;stroke:black;" points="179,1081 169,1086 174,1076 179,1081"/>
</g>
<g id="node17" class="node"><title>fake_productseries_333</title>
<ellipse cx="588" cy="1048" rx="34" ry="18" style="fill:none;stroke:red;"/>
<text text-anchor="middle" style="font-size:8.00;" x="588" y="1051">productseries</text>
</g>
<g id="edge14" class="edge"><title>specification&#45;&gt;fake_productseries_333</title>
<path style="fill:none;stroke:black;" d="M552,1001C558,1009 564,1017 569,1023"/>
<polygon style="fill:black;stroke:black;" points="572,1021 575,1031 566,1025 572,1021"/>
</g>
<g id="node19" class="node"><title>fake_distribution_335</title>
<ellipse cx="51" cy="953" rx="30" ry="18" style="fill:none;stroke:red;"/>
<text text-anchor="middle" style="font-size:8.00;" x="51" y="956">distribution</text>
</g>
<g id="edge16" class="edge"><title>specification&#45;&gt;fake_distribution_335</title>
<path style="fill:none;stroke:black;" d="M190,901C149,916 112,930 86,940"/>
<polygon style="fill:black;stroke:black;" points="88,943 77,943 85,937 88,943"/>
</g>
<g id="node21" class="node"><title>fake_milestone_337</title>
<ellipse cx="757" cy="1004" rx="28" ry="18" style="fill:none;stroke:red;"/>
<text text-anchor="middle" style="font-size:8.00;" x="757" y="1007">milestone</text>
</g>
<g id="edge18" class="edge"><title>specification&#45;&gt;fake_milestone_337</title>
<path style="fill:none;stroke:black;" d="M634,938C671,957 704,975 726,987"/>
<polygon style="fill:black;stroke:black;" points="728,984 735,992 725,990 728,984"/>
</g>
<g id="node23" class="node"><title>fake_distrorelease_339</title>
<ellipse cx="803" cy="795" rx="32" ry="18" style="fill:none;stroke:red;"/>
<text text-anchor="middle" style="font-size:8.00;" x="803" y="798">distrorelease</text>
</g>
<g id="edge20" class="edge"><title>specification&#45;&gt;fake_distrorelease_339</title>
<path style="fill:none;stroke:black;" d="M634,805C683,802 729,800 761,798"/>
<polygon style="fill:black;stroke:black;" points="761,795 771,797 761,801 761,795"/>
</g>
<g id="node2" class="node"><title>sprint</title>
<polygon style="fill:#c1cdcc;stroke:#c1cdcc;" points="551,485 551,311 727,311 727,485 551,485"/>
<polygon style="fill:white;stroke:white;" points="554,328 554,314 724,314 724,328 554,328"/>
<text text-anchor="middle" style="font-size:8.00;" x="639" y="324">sprint</text>
<polygon style="fill:none;stroke:black;" points="554,328 554,314 724,314 724,328 554,328"/>
<text text-anchor="middle" style="font-size:8.00;" x="560" y="339">id</text>
<text text-anchor="middle" style="font-size:8.00;" x="611" y="339">serial</text>
<text text-anchor="middle" style="font-size:8.00;" x="673" y="339"> PRIMARY KEY </text>
<text text-anchor="middle" style="font-size:8.00;" x="567" y="353">owner</text>
<text text-anchor="middle" style="font-size:8.00;" x="614" y="353">integer</text>
<text text-anchor="middle" style="font-size:8.00;" x="683" y="353"> REFERENCES person </text>
<text text-anchor="middle" style="font-size:8.00;" x="566" y="367">name</text>
<text text-anchor="middle" style="font-size:8.00;" x="609" y="367">text</text>
<text text-anchor="middle" style="font-size:8.00;" x="661" y="367"> UNIQUE </text>
<text text-anchor="middle" style="font-size:8.00;" x="563" y="381">title</text>
<text text-anchor="middle" style="font-size:8.00;" x="609" y="381">text</text>
<text text-anchor="middle" style="font-size:8.00;" x="572" y="395">summary</text>
<text text-anchor="middle" style="font-size:8.00;" x="609" y="395">text</text>
<text text-anchor="middle" style="font-size:8.00;" x="576" y="409">home_page</text>
<text text-anchor="middle" style="font-size:8.00;" x="609" y="409">text</text>
<text text-anchor="middle" style="font-size:8.00;" x="569" y="423">address</text>
<text text-anchor="middle" style="font-size:8.00;" x="609" y="423">text</text>
<text text-anchor="middle" style="font-size:8.00;" x="574" y="437">time_zone</text>
<text text-anchor="middle" style="font-size:8.00;" x="609" y="437">text</text>
<text text-anchor="middle" style="font-size:8.00;" x="575" y="451">time_starts</text>
<text text-anchor="middle" style="font-size:8.00;" x="620" y="451">timestamp</text>
<text text-anchor="middle" style="font-size:8.00;" x="574" y="465">time_ends</text>
<text text-anchor="middle" style="font-size:8.00;" x="620" y="465">timestamp</text>
<text text-anchor="middle" style="font-size:8.00;" x="575" y="479">datecreated</text>
<text text-anchor="middle" style="font-size:8.00;" x="620" y="479">timestamp</text>
<polygon style="fill:none;stroke:black;" points="551,485 551,311 727,311 727,485 551,485"/>
</g>
<g id="node26" class="node"><title>fake_person_353</title>
<ellipse cx="608" cy="193" rx="27" ry="18" style="fill:none;stroke:red;"/>
<text text-anchor="middle" style="font-size:8.00;" x="608" y="196">person</text>
</g>
<g id="edge24" class="edge"><title>sprint&#45;&gt;fake_person_353</title>
<path style="fill:none;stroke:black;" d="M625,307C621,276 616,244 612,221"/>
<polygon style="fill:black;stroke:black;" points="609,221 611,211 615,221 609,221"/>
</g>
<g id="node3" class="node"><title>sprintattendance</title>
<polygon style="fill:#c1cdcc;stroke:#c1cdcc;" points="744,213 744,123 950,123 950,213 744,213"/>
<polygon style="fill:white;stroke:white;" points="747,140 747,126 947,126 947,140 747,140"/>
<text text-anchor="middle" style="font-size:8.00;" x="847" y="136">sprintattendance</text>
<polygon style="fill:none;stroke:black;" points="747,140 747,126 947,126 947,140 747,140"/>
<text text-anchor="middle" style="font-size:8.00;" x="753" y="151">id</text>
<text text-anchor="middle" style="font-size:8.00;" x="802" y="151">serial</text>
<text text-anchor="middle" style="font-size:8.00;" x="864" y="151"> PRIMARY KEY </text>
<text text-anchor="middle" style="font-size:8.00;" x="763" y="165">attendee</text>
<text text-anchor="middle" style="font-size:8.00;" x="805" y="165">integer</text>
<text text-anchor="middle" style="font-size:8.00;" x="890" y="165"> UNIQUE REFERENCES person </text>
<text text-anchor="middle" style="font-size:8.00;" x="759" y="179">sprint</text>
<text text-anchor="middle" style="font-size:8.00;" x="805" y="179">integer</text>
<text text-anchor="middle" style="font-size:8.00;" x="888" y="179"> UNIQUE REFERENCES sprint </text>
<text text-anchor="middle" style="font-size:8.00;" x="768" y="193">time_starts</text>
<text text-anchor="middle" style="font-size:8.00;" x="811" y="193">timestamp</text>
<text text-anchor="middle" style="font-size:8.00;" x="767" y="207">time_ends</text>
<text text-anchor="middle" style="font-size:8.00;" x="811" y="207">timestamp</text>
<polygon style="fill:none;stroke:black;" points="744,213 744,123 950,123 950,213 744,213"/>
</g>
<g id="edge28" class="edge"><title>sprintattendance&#45;&gt;sprint</title>
<path style="fill:none;stroke:black;" d="M803,217C781,241 755,271 729,299"/>
<polygon style="fill:black;stroke:black;" points="731,302 722,307 726,297 731,302"/>
</g>
<g id="node28" class="node"><title>fake_person_355</title>
<ellipse cx="959" cy="23" rx="27" ry="18" style="fill:none;stroke:red;"/>
<text text-anchor="middle" style="font-size:8.00;" x="959" y="26">person</text>
</g>
<g id="edge26" class="edge"><title>sprintattendance&#45;&gt;fake_person_355</title>
<path style="fill:none;stroke:black;" d="M885,119C903,95 925,67 940,47"/>
<polygon style="fill:black;stroke:black;" points="937,45 946,39 943,49 937,45"/>
</g>
<g id="node4" class="node"><title>sprintspecification</title>
<polygon style="fill:#c1cdcc;stroke:#c1cdcc;" points="444,609 444,519 664,519 664,609 444,609"/>
<polygon style="fill:white;stroke:white;" points="447,536 447,522 661,522 661,536 447,536"/>
<text text-anchor="middle" style="font-size:8.00;" x="554" y="532">sprintspecification</text>
<polygon style="fill:none;stroke:black;" points="447,536 447,522 661,522 661,536 447,536"/>
<text text-anchor="middle" style="font-size:8.00;" x="453" y="547">id</text>
<text text-anchor="middle" style="font-size:8.00;" x="507" y="547">serial</text>
<text text-anchor="middle" style="font-size:8.00;" x="558" y="547"> PRIMARY KEY </text>
<text text-anchor="middle" style="font-size:8.00;" x="459" y="561">sprint</text>
<text text-anchor="middle" style="font-size:8.00;" x="510" y="561">integer</text>
<text text-anchor="middle" style="font-size:8.00;" x="582" y="561"> REFERENCES sprint UNIQUE </text>
<text text-anchor="middle" style="font-size:8.00;" x="470" y="575">specification</text>
<text text-anchor="middle" style="font-size:8.00;" x="510" y="575">integer</text>
<text text-anchor="middle" style="font-size:8.00;" x="594" y="575"> REFERENCES specification UNIQUE </text>
<text text-anchor="middle" style="font-size:8.00;" x="459" y="589">status</text>
<text text-anchor="middle" style="font-size:8.00;" x="510" y="589">integer</text>
<text text-anchor="middle" style="font-size:8.00;" x="468" y="603">whiteboard</text>
<text text-anchor="middle" style="font-size:8.00;" x="505" y="603">text</text>
<polygon style="fill:none;stroke:black;" points="444,609 444,519 664,519 664,609 444,609"/>
</g>
<g id="edge32" class="edge"><title>sprintspecification&#45;&gt;specification</title>
<path style="fill:none;stroke:black;" d="M527,613C524,617 521,622 519,628"/>
<polygon style="fill:black;stroke:black;" points="522,630 514,637 516,627 522,630"/>
</g>
<g id="edge30" class="edge"><title>sprintspecification&#45;&gt;sprint</title>
<path style="fill:none;stroke:black;" d="M579,515C582,510 585,504 588,498"/>
<polygon style="fill:black;stroke:black;" points="585,497 592,489 591,500 585,497"/>
</g>
</g>
</svg>
