<?xml version="1.0" encoding="UTF-8" standalone="no"?>
<!DOCTYPE svg PUBLIC "-//W3C//DTD SVG 1.0//EN"
 "http://www.w3.org/TR/2001/REC-SVG-20010904/DTD/svg10.dtd">
<!-- Generated by fdp version 2.2.1 (Tue Oct 11 01:38:21 UTC 2005)
     For user: (stub) Stuart Bishop,,,   Title: g    Pages: 1 -->
<svg width="700px" height="535px"
 viewBox = "-1 -1 699 534"
 xmlns="http://www.w3.org/2000/svg">
<g id="graph0" class="graph" transform = "scale(0.746077)"
 style="font-family:Times-Roman;font-size:14.00;">
<title>g</title>
<text text-anchor="middle" style="font-size:22.00;" x="466" y="698">Sprint</text>
<g id="node1" class="node"><title>specification</title>
<polygon style="fill:#c1cdcc;stroke:#c1cdcc;" points="171,492 171,198 501,198 501,492 171,492"/>
<polygon style="fill:white;stroke:white;" points="174,213 174,201 498,201 498,213 174,213"/>
<text text-anchor="middle" style="font-size:6.00;" x="336" y="209">specification</text>
<polygon style="fill:none;stroke:black;" points="174,213 174,201 498,201 498,213 174,213"/>
<text text-anchor="middle" style="font-size:6.00;" x="179" y="222">id</text>
<text text-anchor="middle" style="font-size:6.00;" x="238" y="222">serial</text>
<text text-anchor="middle" style="font-size:6.00;" x="287" y="222"> PRIMARY KEY </text>
<text text-anchor="middle" style="font-size:6.00;" x="184" y="234">name</text>
<text text-anchor="middle" style="font-size:6.00;" x="237" y="234">text</text>
<text text-anchor="middle" style="font-size:6.00;" x="290" y="234"> UNIQUE UNIQUE </text>
<text text-anchor="middle" style="font-size:6.00;" x="182" y="246">title</text>
<text text-anchor="middle" style="font-size:6.00;" x="237" y="246">text</text>
<text text-anchor="middle" style="font-size:6.00;" x="188" y="258">summary</text>
<text text-anchor="middle" style="font-size:6.00;" x="237" y="258">text</text>
<text text-anchor="middle" style="font-size:6.00;" x="185" y="270">owner</text>
<text text-anchor="middle" style="font-size:6.00;" x="240" y="270">integer</text>
<text text-anchor="middle" style="font-size:6.00;" x="294" y="270"> REFERENCES person </text>
<text text-anchor="middle" style="font-size:6.00;" x="187" y="282">assignee</text>
<text text-anchor="middle" style="font-size:6.00;" x="240" y="282">integer</text>
<text text-anchor="middle" style="font-size:6.00;" x="294" y="282"> REFERENCES person </text>
<text text-anchor="middle" style="font-size:6.00;" x="185" y="294">drafter</text>
<text text-anchor="middle" style="font-size:6.00;" x="240" y="294">integer</text>
<text text-anchor="middle" style="font-size:6.00;" x="294" y="294"> REFERENCES person </text>
<text text-anchor="middle" style="font-size:6.00;" x="188" y="306">approver</text>
<text text-anchor="middle" style="font-size:6.00;" x="240" y="306">integer</text>
<text text-anchor="middle" style="font-size:6.00;" x="294" y="306"> REFERENCES person </text>
<text text-anchor="middle" style="font-size:6.00;" x="191" y="318">datecreated</text>
<text text-anchor="middle" style="font-size:6.00;" x="245" y="318">timestamp</text>
<text text-anchor="middle" style="font-size:6.00;" x="186" y="330">product</text>
<text text-anchor="middle" style="font-size:6.00;" x="240" y="330">integer</text>
<text text-anchor="middle" style="font-size:6.00;" x="376" y="330"> REFERENCES product REFERENCES milestone UNIQUE REFERENCES productseries </text>
<text text-anchor="middle" style="font-size:6.00;" x="193" y="342">productseries</text>
<text text-anchor="middle" style="font-size:6.00;" x="240" y="342">integer</text>
<text text-anchor="middle" style="font-size:6.00;" x="302" y="342"> REFERENCES productseries </text>
<text text-anchor="middle" style="font-size:6.00;" x="191" y="354">distribution</text>
<text text-anchor="middle" style="font-size:6.00;" x="240" y="354">integer</text>
<text text-anchor="middle" style="font-size:6.00;" x="380" y="354"> REFERENCES distribution REFERENCES milestone UNIQUE REFERENCES distrorelease </text>
<text text-anchor="middle" style="font-size:6.00;" x="192" y="366">distrorelease</text>
<text text-anchor="middle" style="font-size:6.00;" x="240" y="366">integer</text>
<text text-anchor="middle" style="font-size:6.00;" x="301" y="366"> REFERENCES distrorelease </text>
<text text-anchor="middle" style="font-size:6.00;" x="189" y="378">milestone</text>
<text text-anchor="middle" style="font-size:6.00;" x="240" y="378">integer</text>
<text text-anchor="middle" style="font-size:6.00;" x="330" y="378"> REFERENCES milestone REFERENCES milestone </text>
<text text-anchor="middle" style="font-size:6.00;" x="184" y="390">status</text>
<text text-anchor="middle" style="font-size:6.00;" x="240" y="390">integer</text>
<text text-anchor="middle" style="font-size:6.00;" x="186" y="402">priority</text>
<text text-anchor="middle" style="font-size:6.00;" x="240" y="402">integer</text>
<text text-anchor="middle" style="font-size:6.00;" x="185" y="414">specurl</text>
<text text-anchor="middle" style="font-size:6.00;" x="237" y="414">text</text>
<text text-anchor="middle" style="font-size:6.00;" x="278" y="414"> UNIQUE </text>
<text text-anchor="middle" style="font-size:6.00;" x="191" y="426">whiteboard</text>
<text text-anchor="middle" style="font-size:6.00;" x="237" y="426">text</text>
<text text-anchor="middle" style="font-size:6.00;" x="195" y="438">superseded_by</text>
<text text-anchor="middle" style="font-size:6.00;" x="240" y="438">integer</text>
<text text-anchor="middle" style="font-size:6.00;" x="302" y="438"> REFERENCES specification </text>
<text text-anchor="middle" style="font-size:6.00;" x="198" y="450">needs_discussion</text>
<text text-anchor="middle" style="font-size:6.00;" x="242" y="450">boolean</text>
<text text-anchor="middle" style="font-size:6.00;" x="201" y="462">direction_approved</text>
<text text-anchor="middle" style="font-size:6.00;" x="242" y="462">boolean</text>
<text text-anchor="middle" style="font-size:6.00;" x="189" y="474">man_days</text>
<text text-anchor="middle" style="font-size:6.00;" x="240" y="474">integer</text>
<text text-anchor="middle" style="font-size:6.00;" x="187" y="486">delivery</text>
<text text-anchor="middle" style="font-size:6.00;" x="240" y="486">integer</text>
<polygon style="fill:none;stroke:black;" points="171,492 171,198 501,198 501,492 171,492"/>
</g>
<g id="edge22" class="edge"><title>specification&#45;&gt;specification</title>
<path style="fill:none;stroke:black;" d="M509,425C520,406 527,380 527,345 527,315 522,292 514,274"/>
<polygon style="fill:black;stroke:black;" points="511,275 509,265 517,272 511,275"/>
</g>
<g id="node5" class="node"><title>fake_person_299</title>
<ellipse cx="291" cy="159" rx="27" ry="18" style="fill:none;stroke:red;"/>
<text text-anchor="middle" style="font-size:6.00;" x="291" y="161">person</text>
</g>
<g id="edge2" class="edge"><title>specification&#45;&gt;fake_person_299</title>
<path style="fill:none;stroke:black;" d="M299,194C298,192 298,189 297,187"/>
<polygon style="fill:black;stroke:black;" points="294,187 295,177 300,186 294,187"/>
</g>
<g id="node7" class="node"><title>fake_person_301</title>
<ellipse cx="137" cy="94" rx="27" ry="18" style="fill:none;stroke:red;"/>
<text text-anchor="middle" style="font-size:6.00;" x="137" y="96">person</text>
</g>
<g id="edge4" class="edge"><title>specification&#45;&gt;fake_person_301</title>
<path style="fill:none;stroke:black;" d="M216,194C193,165 171,137 156,118"/>
<polygon style="fill:black;stroke:black;" points="153,120 150,110 159,116 153,120"/>
</g>
<g id="node9" class="node"><title>fake_person_303</title>
<ellipse cx="171" cy="580" rx="27" ry="18" style="fill:none;stroke:red;"/>
<text text-anchor="middle" style="font-size:6.00;" x="171" y="582">person</text>
</g>
<g id="edge6" class="edge"><title>specification&#45;&gt;fake_person_303</title>
<path style="fill:none;stroke:black;" d="M230,496C214,519 200,540 189,555"/>
<polygon style="fill:black;stroke:black;" points="192,557 183,563 186,553 192,557"/>
</g>
<g id="node11" class="node"><title>fake_person_305</title>
<ellipse cx="552" cy="571" rx="27" ry="18" style="fill:none;stroke:red;"/>
<text text-anchor="middle" style="font-size:6.00;" x="552" y="573">person</text>
</g>
<g id="edge8" class="edge"><title>specification&#45;&gt;fake_person_305</title>
<path style="fill:none;stroke:black;" d="M480,496C500,516 517,535 531,548"/>
<polygon style="fill:black;stroke:black;" points="534,546 538,556 529,551 534,546"/>
</g>
<g id="node13" class="node"><title>fake_product_307</title>
<ellipse cx="54" cy="479" rx="27" ry="18" style="fill:none;stroke:red;"/>
<text text-anchor="middle" style="font-size:6.00;" x="54" y="481">product</text>
</g>
<g id="edge10" class="edge"><title>specification&#45;&gt;fake_product_307</title>
<path style="fill:none;stroke:black;" d="M163,427C133,442 105,455 85,464"/>
<polygon style="fill:black;stroke:black;" points="87,467 76,468 84,461 87,467"/>
</g>
<g id="node15" class="node"><title>fake_milestone_309</title>
<ellipse cx="276" cy="655" rx="27" ry="18" style="fill:none;stroke:red;"/>
<text text-anchor="middle" style="font-size:6.00;" x="276" y="657">milestone</text>
</g>
<g id="edge12" class="edge"><title>specification&#45;&gt;fake_milestone_309</title>
<path style="fill:none;stroke:black;" d="M307,496C297,546 287,597 281,627"/>
<polygon style="fill:black;stroke:black;" points="284,628 279,637 278,627 284,628"/>
</g>
<g id="node17" class="node"><title>fake_productseries_311</title>
<ellipse cx="428" cy="648" rx="28" ry="18" style="fill:none;stroke:red;"/>
<text text-anchor="middle" style="font-size:6.00;" x="428" y="650">productseries</text>
</g>
<g id="edge14" class="edge"><title>specification&#45;&gt;fake_productseries_311</title>
<path style="fill:none;stroke:black;" d="M382,496C396,543 411,591 420,620"/>
<polygon style="fill:black;stroke:black;" points="423,619 423,630 417,621 423,619"/>
</g>
<g id="node19" class="node"><title>fake_distribution_313</title>
<ellipse cx="33" cy="274" rx="27" ry="18" style="fill:none;stroke:red;"/>
<text text-anchor="middle" style="font-size:6.00;" x="33" y="276">distribution</text>
</g>
<g id="edge16" class="edge"><title>specification&#45;&gt;fake_distribution_313</title>
<path style="fill:none;stroke:black;" d="M163,304C127,296 93,288 69,282"/>
<polygon style="fill:black;stroke:black;" points="68,285 59,280 69,279 68,285"/>
</g>
<g id="node21" class="node"><title>fake_milestone_315</title>
<ellipse cx="562" cy="264" rx="27" ry="18" style="fill:none;stroke:red;"/>
<text text-anchor="middle" style="font-size:6.00;" x="562" y="266">milestone</text>
</g>
<g id="edge18" class="edge"><title>specification&#45;&gt;fake_milestone_315</title>
<path style="fill:none;stroke:black;" d="M509,283C516,280 522,278 528,276"/>
<polygon style="fill:black;stroke:black;" points="527,273 538,273 529,279 527,273"/>
</g>
<g id="node23" class="node"><title>fake_distrorelease_317</title>
<ellipse cx="392" cy="26" rx="27" ry="18" style="fill:none;stroke:red;"/>
<text text-anchor="middle" style="font-size:6.00;" x="392" y="28">distrorelease</text>
</g>
<g id="edge20" class="edge"><title>specification&#45;&gt;fake_distrorelease_317</title>
<path style="fill:none;stroke:black;" d="M363,194C372,140 382,86 387,54"/>
<polygon style="fill:black;stroke:black;" points="384,53 389,44 390,54 384,53"/>
</g>
<g id="node2" class="node"><title>sprint</title>
<polygon style="fill:#c1cdcc;stroke:#c1cdcc;" points="701,326 701,176 839,176 839,326 701,326"/>
<polygon style="fill:white;stroke:white;" points="704,191 704,179 836,179 836,191 704,191"/>
<text text-anchor="middle" style="font-size:6.00;" x="770" y="187">sprint</text>
<polygon style="fill:none;stroke:black;" points="704,191 704,179 836,179 836,191 704,191"/>
<text text-anchor="middle" style="font-size:6.00;" x="709" y="200">id</text>
<text text-anchor="middle" style="font-size:6.00;" x="748" y="200">serial</text>
<text text-anchor="middle" style="font-size:6.00;" x="797" y="200"> PRIMARY KEY </text>
<text text-anchor="middle" style="font-size:6.00;" x="715" y="212">owner</text>
<text text-anchor="middle" style="font-size:6.00;" x="750" y="212">integer</text>
<text text-anchor="middle" style="font-size:6.00;" x="804" y="212"> REFERENCES person </text>
<text text-anchor="middle" style="font-size:6.00;" x="714" y="224">name</text>
<text text-anchor="middle" style="font-size:6.00;" x="747" y="224">text</text>
<text text-anchor="middle" style="font-size:6.00;" x="788" y="224"> UNIQUE </text>
<text text-anchor="middle" style="font-size:6.00;" x="712" y="236">title</text>
<text text-anchor="middle" style="font-size:6.00;" x="747" y="236">text</text>
<text text-anchor="middle" style="font-size:6.00;" x="718" y="248">summary</text>
<text text-anchor="middle" style="font-size:6.00;" x="747" y="248">text</text>
<text text-anchor="middle" style="font-size:6.00;" x="721" y="260">home_page</text>
<text text-anchor="middle" style="font-size:6.00;" x="747" y="260">text</text>
<text text-anchor="middle" style="font-size:6.00;" x="716" y="272">address</text>
<text text-anchor="middle" style="font-size:6.00;" x="747" y="272">text</text>
<text text-anchor="middle" style="font-size:6.00;" x="720" y="284">time_zone</text>
<text text-anchor="middle" style="font-size:6.00;" x="747" y="284">text</text>
<text text-anchor="middle" style="font-size:6.00;" x="720" y="296">time_starts</text>
<text text-anchor="middle" style="font-size:6.00;" x="755" y="296">timestamp</text>
<text text-anchor="middle" style="font-size:6.00;" x="720" y="308">time_ends</text>
<text text-anchor="middle" style="font-size:6.00;" x="755" y="308">timestamp</text>
<text text-anchor="middle" style="font-size:6.00;" x="721" y="320">datecreated</text>
<text text-anchor="middle" style="font-size:6.00;" x="755" y="320">timestamp</text>
<polygon style="fill:none;stroke:black;" points="701,326 701,176 839,176 839,326 701,326"/>
</g>
<g id="node26" class="node"><title>fake_person_331</title>
<ellipse cx="900" cy="224" rx="27" ry="18" style="fill:none;stroke:red;"/>
<text text-anchor="middle" style="font-size:6.00;" x="900" y="226">person</text>
</g>
<g id="edge24" class="edge"><title>sprint&#45;&gt;fake_person_331</title>
<path style="fill:none;stroke:black;" d="M847,235C853,234 859,233 864,231"/>
<polygon style="fill:black;stroke:black;" points="864,228 874,229 865,234 864,228"/>
</g>
<g id="node3" class="node"><title>sprintattendance</title>
<polygon style="fill:#c1cdcc;stroke:#c1cdcc;" points="737,434 737,356 899,356 899,434 737,434"/>
<polygon style="fill:white;stroke:white;" points="740,371 740,359 896,359 896,371 740,371"/>
<text text-anchor="middle" style="font-size:6.00;" x="818" y="367">sprintattendance</text>
<polygon style="fill:none;stroke:black;" points="740,371 740,359 896,359 896,371 740,371"/>
<text text-anchor="middle" style="font-size:6.00;" x="745" y="380">id</text>
<text text-anchor="middle" style="font-size:6.00;" x="784" y="380">serial</text>
<text text-anchor="middle" style="font-size:6.00;" x="833" y="380"> PRIMARY KEY </text>
<text text-anchor="middle" style="font-size:6.00;" x="753" y="392">attendee</text>
<text text-anchor="middle" style="font-size:6.00;" x="786" y="392">integer</text>
<text text-anchor="middle" style="font-size:6.00;" x="852" y="392"> UNIQUE REFERENCES person </text>
<text text-anchor="middle" style="font-size:6.00;" x="750" y="404">sprint</text>
<text text-anchor="middle" style="font-size:6.00;" x="786" y="404">integer</text>
<text text-anchor="middle" style="font-size:6.00;" x="851" y="404"> UNIQUE REFERENCES sprint </text>
<text text-anchor="middle" style="font-size:6.00;" x="756" y="416">time_starts</text>
<text text-anchor="middle" style="font-size:6.00;" x="791" y="416">timestamp</text>
<text text-anchor="middle" style="font-size:6.00;" x="756" y="428">time_ends</text>
<text text-anchor="middle" style="font-size:6.00;" x="791" y="428">timestamp</text>
<polygon style="fill:none;stroke:black;" points="737,434 737,356 899,356 899,434 737,434"/>
</g>
<g id="edge28" class="edge"><title>sprintattendance&#45;&gt;sprint</title>
<path style="fill:none;stroke:black;" d="M804,352C803,348 801,344 800,340"/>
<polygon style="fill:black;stroke:black;" points="796,341 796,330 803,338 796,341"/>
</g>
<g id="node28" class="node"><title>fake_person_333</title>
<ellipse cx="827" cy="561" rx="27" ry="18" style="fill:none;stroke:red;"/>
<text text-anchor="middle" style="font-size:6.00;" x="827" y="563">person</text>
</g>
<g id="edge26" class="edge"><title>sprintattendance&#45;&gt;fake_person_333</title>
<path style="fill:none;stroke:black;" d="M820,438C822,468 824,507 826,533"/>
<polygon style="fill:black;stroke:black;" points="830,533 826,543 823,533 830,533"/>
</g>
<g id="node4" class="node"><title>sprintspecification</title>
<polygon style="fill:#c1cdcc;stroke:#c1cdcc;" points="526,94 526,16 698,16 698,94 526,94"/>
<polygon style="fill:white;stroke:white;" points="529,31 529,19 695,19 695,31 529,31"/>
<text text-anchor="middle" style="font-size:6.00;" x="612" y="27">sprintspecification</text>
<polygon style="fill:none;stroke:black;" points="529,31 529,19 695,19 695,31 529,31"/>
<text text-anchor="middle" style="font-size:6.00;" x="534" y="40">id</text>
<text text-anchor="middle" style="font-size:6.00;" x="577" y="40">serial</text>
<text text-anchor="middle" style="font-size:6.00;" x="617" y="40"> PRIMARY KEY </text>
<text text-anchor="middle" style="font-size:6.00;" x="539" y="52">sprint</text>
<text text-anchor="middle" style="font-size:6.00;" x="579" y="52">integer</text>
<text text-anchor="middle" style="font-size:6.00;" x="635" y="52"> REFERENCES sprint UNIQUE </text>
<text text-anchor="middle" style="font-size:6.00;" x="547" y="64">specification</text>
<text text-anchor="middle" style="font-size:6.00;" x="579" y="64">integer</text>
<text text-anchor="middle" style="font-size:6.00;" x="644" y="64"> REFERENCES specification UNIQUE </text>
<text text-anchor="middle" style="font-size:6.00;" x="539" y="76">status</text>
<text text-anchor="middle" style="font-size:6.00;" x="579" y="76">integer</text>
<text text-anchor="middle" style="font-size:6.00;" x="546" y="88">whiteboard</text>
<text text-anchor="middle" style="font-size:6.00;" x="576" y="88">text</text>
<polygon style="fill:none;stroke:black;" points="526,94 526,16 698,16 698,94 526,94"/>
</g>
<g id="edge32" class="edge"><title>sprintspecification&#45;&gt;specification</title>
<path style="fill:none;stroke:black;" d="M571,98C548,122 518,154 487,187"/>
<polygon style="fill:black;stroke:black;" points="490,189 480,194 485,184 490,189"/>
</g>
<g id="edge30" class="edge"><title>sprintspecification&#45;&gt;sprint</title>
<path style="fill:none;stroke:black;" d="M647,98C662,118 681,141 700,164"/>
<polygon style="fill:black;stroke:black;" points="703,162 706,172 697,166 703,162"/>
</g>
</g>
</svg>
