<?xml version="1.0" encoding="UTF-8" standalone="no"?>
<!DOCTYPE svg PUBLIC "-//W3C//DTD SVG 1.0//EN"
 "http://www.w3.org/TR/2001/REC-SVG-20010904/DTD/svg10.dtd">
<!-- Generated by fdp version 2.2.1 (Tue Oct 11 01:38:21 UTC 2005)
     For user: (stub) Stuart Bishop,,,   Title: g    Pages: 1 -->
<svg width="457px" height="535px"
 viewBox = "-1 -1 456 534"
 xmlns="http://www.w3.org/2000/svg">
<g id="graph0" class="graph" transform = "scale(0.393529)"
 style="font-family:Times-Roman;font-size:14.00;">
<title>g</title>
<text text-anchor="middle" style="font-size:22.00;" x="571" y="1338">Subscriptions</text>
<g id="node1" class="node"><title>bountysubscription</title>
<polygon style="fill:#c1cdcc;stroke:#c1cdcc;" points="122,974 122,920 266,920 266,974 122,974"/>
<polygon style="fill:white;stroke:white;" points="125,935 125,923 263,923 263,935 125,935"/>
<text text-anchor="middle" style="font-size:6.00;" x="194" y="931">bountysubscription</text>
<polygon style="fill:none;stroke:black;" points="125,935 125,923 263,923 263,935 125,935"/>
<text text-anchor="middle" style="font-size:6.00;" x="130" y="944">id</text>
<text text-anchor="middle" style="font-size:6.00;" x="159" y="944">serial</text>
<text text-anchor="middle" style="font-size:6.00;" x="199" y="944"> PRIMARY KEY </text>
<text text-anchor="middle" style="font-size:6.00;" x="137" y="956">bounty</text>
<text text-anchor="middle" style="font-size:6.00;" x="161" y="956">integer</text>
<text text-anchor="middle" style="font-size:6.00;" x="219" y="956"> REFERENCES bounty UNIQUE </text>
<text text-anchor="middle" style="font-size:6.00;" x="136" y="968">person</text>
<text text-anchor="middle" style="font-size:6.00;" x="161" y="968">integer</text>
<text text-anchor="middle" style="font-size:6.00;" x="218" y="968"> REFERENCES person UNIQUE </text>
<polygon style="fill:none;stroke:black;" points="122,974 122,920 266,920 266,974 122,974"/>
</g>
<g id="node6" class="node"><title>person</title>
<polygon style="fill:#c1cdcc;stroke:#c1cdcc;" points="475,986 475,620 677,620 677,986 475,986"/>
<polygon style="fill:white;stroke:white;" points="478,635 478,623 674,623 674,635 478,635"/>
<text text-anchor="middle" style="font-size:6.00;" x="576" y="631">person</text>
<polygon style="fill:none;stroke:black;" points="478,635 478,623 674,623 674,635 478,635"/>
<text text-anchor="middle" style="font-size:6.00;" x="483" y="644">id</text>
<text text-anchor="middle" style="font-size:6.00;" x="558" y="644">serial</text>
<text text-anchor="middle" style="font-size:6.00;" x="607" y="644"> PRIMARY KEY </text>
<text text-anchor="middle" style="font-size:6.00;" x="496" y="656">displayname</text>
<text text-anchor="middle" style="font-size:6.00;" x="557" y="656">text</text>
<text text-anchor="middle" style="font-size:6.00;" x="494" y="668">givenname</text>
<text text-anchor="middle" style="font-size:6.00;" x="557" y="668">text</text>
<text text-anchor="middle" style="font-size:6.00;" x="495" y="680">familyname</text>
<text text-anchor="middle" style="font-size:6.00;" x="557" y="680">text</text>
<text text-anchor="middle" style="font-size:6.00;" x="492" y="692">password</text>
<text text-anchor="middle" style="font-size:6.00;" x="557" y="692">text</text>
<text text-anchor="middle" style="font-size:6.00;" x="494" y="704">teamowner</text>
<text text-anchor="middle" style="font-size:6.00;" x="560" y="704">integer</text>
<text text-anchor="middle" style="font-size:6.00;" x="614" y="704"> REFERENCES person </text>
<text text-anchor="middle" style="font-size:6.00;" x="501" y="716">teamdescription</text>
<text text-anchor="middle" style="font-size:6.00;" x="557" y="716">text</text>
<text text-anchor="middle" style="font-size:6.00;" x="488" y="728">name</text>
<text text-anchor="middle" style="font-size:6.00;" x="557" y="728">text</text>
<text text-anchor="middle" style="font-size:6.00;" x="492" y="740">language</text>
<text text-anchor="middle" style="font-size:6.00;" x="560" y="740">integer</text>
<text text-anchor="middle" style="font-size:6.00;" x="617" y="740"> REFERENCES language </text>
<text text-anchor="middle" style="font-size:6.00;" x="484" y="752">fti</text>
<text text-anchor="middle" style="font-size:6.00;" x="562" y="752">tsvector</text>
<text text-anchor="middle" style="font-size:6.00;" x="512" y="764">defaultmembershipperiod</text>
<text text-anchor="middle" style="font-size:6.00;" x="560" y="764">integer</text>
<text text-anchor="middle" style="font-size:6.00;" x="507" y="776">defaultrenewalperiod</text>
<text text-anchor="middle" style="font-size:6.00;" x="560" y="776">integer</text>
<text text-anchor="middle" style="font-size:6.00;" x="503" y="788">subscriptionpolicy</text>
<text text-anchor="middle" style="font-size:6.00;" x="560" y="788">integer</text>
<text text-anchor="middle" style="font-size:6.00;" x="490" y="800">merged</text>
<text text-anchor="middle" style="font-size:6.00;" x="560" y="800">integer</text>
<text text-anchor="middle" style="font-size:6.00;" x="614" y="800"> REFERENCES person </text>
<text text-anchor="middle" style="font-size:6.00;" x="495" y="812">datecreated</text>
<text text-anchor="middle" style="font-size:6.00;" x="565" y="812">timestamp</text>
<text text-anchor="middle" style="font-size:6.00;" x="491" y="824">calendar</text>
<text text-anchor="middle" style="font-size:6.00;" x="560" y="824">integer</text>
<text text-anchor="middle" style="font-size:6.00;" x="628" y="824"> REFERENCES calendar UNIQUE </text>
<text text-anchor="middle" style="font-size:6.00;" x="492" y="836">timezone</text>
<text text-anchor="middle" style="font-size:6.00;" x="557" y="836">text</text>
<text text-anchor="middle" style="font-size:6.00;" x="489" y="848">karma</text>
<text text-anchor="middle" style="font-size:6.00;" x="560" y="848">integer</text>
<text text-anchor="middle" style="font-size:6.00;" x="496" y="860">addressline1</text>
<text text-anchor="middle" style="font-size:6.00;" x="557" y="860">text</text>
<text text-anchor="middle" style="font-size:6.00;" x="496" y="872">addressline2</text>
<text text-anchor="middle" style="font-size:6.00;" x="557" y="872">text</text>
<text text-anchor="middle" style="font-size:6.00;" x="496" y="884">organization</text>
<text text-anchor="middle" style="font-size:6.00;" x="557" y="884">text</text>
<text text-anchor="middle" style="font-size:6.00;" x="486" y="896">city</text>
<text text-anchor="middle" style="font-size:6.00;" x="557" y="896">text</text>
<text text-anchor="middle" style="font-size:6.00;" x="492" y="908">province</text>
<text text-anchor="middle" style="font-size:6.00;" x="557" y="908">text</text>
<text text-anchor="middle" style="font-size:6.00;" x="491" y="920">country</text>
<text text-anchor="middle" style="font-size:6.00;" x="560" y="920">integer</text>
<text text-anchor="middle" style="font-size:6.00;" x="616" y="920"> REFERENCES country </text>
<text text-anchor="middle" style="font-size:6.00;" x="492" y="932">postcode</text>
<text text-anchor="middle" style="font-size:6.00;" x="557" y="932">text</text>
<text text-anchor="middle" style="font-size:6.00;" x="489" y="944">phone</text>
<text text-anchor="middle" style="font-size:6.00;" x="557" y="944">text</text>
<text text-anchor="middle" style="font-size:6.00;" x="504" y="956">homepage_content</text>
<text text-anchor="middle" style="font-size:6.00;" x="557" y="956">text</text>
<text text-anchor="middle" style="font-size:6.00;" x="491" y="968">emblem</text>
<text text-anchor="middle" style="font-size:6.00;" x="560" y="968">integer</text>
<text text-anchor="middle" style="font-size:6.00;" x="624" y="968"> REFERENCES libraryfilealias </text>
<text text-anchor="middle" style="font-size:6.00;" x="497" y="980">hackergotchi</text>
<text text-anchor="middle" style="font-size:6.00;" x="560" y="980">integer</text>
<text text-anchor="middle" style="font-size:6.00;" x="624" y="980"> REFERENCES libraryfilealias </text>
<polygon style="fill:none;stroke:black;" points="475,986 475,620 677,620 677,986 475,986"/>
</g>
<g id="edge4" class="edge"><title>bountysubscription&#45;&gt;person</title>
<path style="fill:none;stroke:black;" d="M274,917C327,897 398,870 458,848"/>
<polygon style="fill:black;stroke:black;" points="456,845 467,844 459,851 456,845"/>
</g>
<g id="node9" class="node"><title>fake_bounty_16</title>
<ellipse cx="42" cy="1006" rx="27" ry="18" style="fill:none;stroke:red;"/>
<text text-anchor="middle" style="font-size:6.00;" x="42" y="1008">bounty</text>
</g>
<g id="edge2" class="edge"><title>bountysubscription&#45;&gt;fake_bounty_16</title>
<path style="fill:none;stroke:black;" d="M114,978C100,983 86,989 75,993"/>
<polygon style="fill:black;stroke:black;" points="76,997 65,997 73,990 76,997"/>
</g>
<g id="node2" class="node"><title>branchsubscription</title>
<polygon style="fill:#c1cdcc;stroke:#c1cdcc;" points="896,927 896,873 1014,873 1014,927 896,927"/>
<polygon style="fill:white;stroke:white;" points="899,888 899,876 1011,876 1011,888 899,888"/>
<text text-anchor="middle" style="font-size:6.00;" x="955" y="884">branchsubscription</text>
<polygon style="fill:none;stroke:black;" points="899,888 899,876 1011,876 1011,888 899,888"/>
<text text-anchor="middle" style="font-size:6.00;" x="904" y="897">id</text>
<text text-anchor="middle" style="font-size:6.00;" x="932" y="897">serial</text>
<text text-anchor="middle" style="font-size:6.00;" x="972" y="897"> PRIMARY KEY </text>
<text text-anchor="middle" style="font-size:6.00;" x="910" y="909">person</text>
<text text-anchor="middle" style="font-size:6.00;" x="934" y="909">integer</text>
<text text-anchor="middle" style="font-size:6.00;" x="979" y="909"> REFERENCES person </text>
<text text-anchor="middle" style="font-size:6.00;" x="910" y="921">branch</text>
<text text-anchor="middle" style="font-size:6.00;" x="934" y="921">integer</text>
<text text-anchor="middle" style="font-size:6.00;" x="979" y="921"> REFERENCES branch </text>
<polygon style="fill:none;stroke:black;" points="896,927 896,873 1014,873 1014,927 896,927"/>
</g>
<g id="edge6" class="edge"><title>branchsubscription&#45;&gt;person</title>
<path style="fill:none;stroke:black;" d="M888,883C835,870 759,850 695,834"/>
<polygon style="fill:black;stroke:black;" points="694,837 685,831 696,831 694,837"/>
</g>
<g id="node13" class="node"><title>fake_branch_32</title>
<ellipse cx="1097" cy="940" rx="27" ry="18" style="fill:none;stroke:red;"/>
<text text-anchor="middle" style="font-size:6.00;" x="1097" y="942">branch</text>
</g>
<g id="edge8" class="edge"><title>branchsubscription&#45;&gt;fake_branch_32</title>
<path style="fill:none;stroke:black;" d="M1022,919C1036,923 1050,927 1062,930"/>
<polygon style="fill:black;stroke:black;" points="1063,927 1072,933 1061,933 1063,927"/>
</g>
<g id="node3" class="node"><title>bugsubscription</title>
<polygon style="fill:#c1cdcc;stroke:#c1cdcc;" points="344,1185 344,1131 462,1131 462,1185 344,1185"/>
<polygon style="fill:white;stroke:white;" points="347,1146 347,1134 459,1134 459,1146 347,1146"/>
<text text-anchor="middle" style="font-size:6.00;" x="403" y="1142">bugsubscription</text>
<polygon style="fill:none;stroke:black;" points="347,1146 347,1134 459,1134 459,1146 347,1146"/>
<text text-anchor="middle" style="font-size:6.00;" x="352" y="1155">id</text>
<text text-anchor="middle" style="font-size:6.00;" x="380" y="1155">serial</text>
<text text-anchor="middle" style="font-size:6.00;" x="420" y="1155"> PRIMARY KEY </text>
<text text-anchor="middle" style="font-size:6.00;" x="358" y="1167">person</text>
<text text-anchor="middle" style="font-size:6.00;" x="382" y="1167">integer</text>
<text text-anchor="middle" style="font-size:6.00;" x="427" y="1167"> REFERENCES person </text>
<text text-anchor="middle" style="font-size:6.00;" x="355" y="1179">bug</text>
<text text-anchor="middle" style="font-size:6.00;" x="382" y="1179">integer</text>
<text text-anchor="middle" style="font-size:6.00;" x="424" y="1179"> REFERENCES bug </text>
<polygon style="fill:none;stroke:black;" points="344,1185 344,1131 462,1131 462,1185 344,1185"/>
</g>
<g id="edge10" class="edge"><title>bugsubscription&#45;&gt;person</title>
<path style="fill:none;stroke:black;" d="M418,1127C432,1097 456,1049 481,999"/>
<polygon style="fill:black;stroke:black;" points="478,998 485,990 484,1001 478,998"/>
</g>
<g id="node16" class="node"><title>fake_bug_61</title>
<ellipse cx="343" cy="1295" rx="27" ry="18" style="fill:none;stroke:red;"/>
<text text-anchor="middle" style="font-size:6.00;" x="343" y="1297">bug</text>
</g>
<g id="edge12" class="edge"><title>bugsubscription&#45;&gt;fake_bug_61</title>
<path style="fill:none;stroke:black;" d="M389,1189C379,1213 365,1246 355,1269"/>
<polygon style="fill:black;stroke:black;" points="358,1270 351,1278 352,1267 358,1270"/>
</g>
<g id="node4" class="node"><title>message</title>
<polygon style="fill:#c1cdcc;stroke:#c1cdcc;" points="768,481 768,355 928,355 928,481 768,481"/>
<polygon style="fill:white;stroke:white;" points="771,370 771,358 925,358 925,370 771,370"/>
<text text-anchor="middle" style="font-size:6.00;" x="848" y="366">message</text>
<polygon style="fill:none;stroke:black;" points="771,370 771,358 925,358 925,370 771,370"/>
<text text-anchor="middle" style="font-size:6.00;" x="776" y="379">id</text>
<text text-anchor="middle" style="font-size:6.00;" x="818" y="379">serial</text>
<text text-anchor="middle" style="font-size:6.00;" x="867" y="379"> PRIMARY KEY </text>
<text text-anchor="middle" style="font-size:6.00;" x="788" y="391">datecreated</text>
<text text-anchor="middle" style="font-size:6.00;" x="825" y="391">timestamp</text>
<text text-anchor="middle" style="font-size:6.00;" x="782" y="403">subject</text>
<text text-anchor="middle" style="font-size:6.00;" x="817" y="403">text</text>
<text text-anchor="middle" style="font-size:6.00;" x="782" y="415">owner</text>
<text text-anchor="middle" style="font-size:6.00;" x="820" y="415">integer</text>
<text text-anchor="middle" style="font-size:6.00;" x="874" y="415"> REFERENCES person </text>
<text text-anchor="middle" style="font-size:6.00;" x="782" y="427">parent</text>
<text text-anchor="middle" style="font-size:6.00;" x="820" y="427">integer</text>
<text text-anchor="middle" style="font-size:6.00;" x="876" y="427"> REFERENCES message </text>
<text text-anchor="middle" style="font-size:6.00;" x="788" y="439">distribution</text>
<text text-anchor="middle" style="font-size:6.00;" x="820" y="439">integer</text>
<text text-anchor="middle" style="font-size:6.00;" x="880" y="439"> REFERENCES distribution </text>
<text text-anchor="middle" style="font-size:6.00;" x="789" y="451">rfc822msgid</text>
<text text-anchor="middle" style="font-size:6.00;" x="817" y="451">text</text>
<text text-anchor="middle" style="font-size:6.00;" x="777" y="463">fti</text>
<text text-anchor="middle" style="font-size:6.00;" x="822" y="463">tsvector</text>
<text text-anchor="middle" style="font-size:6.00;" x="778" y="475">raw</text>
<text text-anchor="middle" style="font-size:6.00;" x="820" y="475">integer</text>
<text text-anchor="middle" style="font-size:6.00;" x="884" y="475"> REFERENCES libraryfilealias </text>
<polygon style="fill:none;stroke:black;" points="768,481 768,355 928,355 928,481 768,481"/>
</g>
<g id="edge16" class="edge"><title>message&#45;&gt;message</title>
<path style="fill:none;stroke:black;" d="M936,461C947,454 954,439 954,418 954,402 950,390 943,382"/>
<polygon style="fill:black;stroke:black;" points="941,385 936,375 946,380 941,385"/>
</g>
<g id="edge14" class="edge"><title>message&#45;&gt;person</title>
<path style="fill:none;stroke:black;" d="M801,485C771,528 729,586 691,641"/>
<polygon style="fill:black;stroke:black;" points="694,643 685,649 688,639 694,643"/>
</g>
<g id="node20" class="node"><title>fake_distribution_149</title>
<ellipse cx="815" cy="230" rx="27" ry="18" style="fill:none;stroke:red;"/>
<text text-anchor="middle" style="font-size:6.00;" x="815" y="232">distribution</text>
</g>
<g id="edge18" class="edge"><title>message&#45;&gt;fake_distribution_149</title>
<path style="fill:none;stroke:black;" d="M836,351C831,319 824,283 820,258"/>
<polygon style="fill:black;stroke:black;" points="817,258 818,248 823,257 817,258"/>
</g>
<g id="node22" class="node"><title>fake_libraryfilealias_151</title>
<ellipse cx="1035" cy="383" rx="29" ry="18" style="fill:none;stroke:red;"/>
<text text-anchor="middle" style="font-size:6.00;" x="1035" y="385">libraryfilealias</text>
</g>
<g id="edge20" class="edge"><title>message&#45;&gt;fake_libraryfilealias_151</title>
<path style="fill:none;stroke:black;" d="M936,402C958,398 979,394 997,390"/>
<polygon style="fill:black;stroke:black;" points="997,387 1007,388 998,393 997,387"/>
</g>
<g id="node5" class="node"><title>messagechunk</title>
<polygon style="fill:#c1cdcc;stroke:#c1cdcc;" points="930,229 930,139 1084,139 1084,229 930,229"/>
<polygon style="fill:white;stroke:white;" points="933,154 933,142 1081,142 1081,154 933,154"/>
<text text-anchor="middle" style="font-size:6.00;" x="1007" y="150">messagechunk</text>
<polygon style="fill:none;stroke:black;" points="933,154 933,142 1081,142 1081,154 933,154"/>
<text text-anchor="middle" style="font-size:6.00;" x="938" y="163">id</text>
<text text-anchor="middle" style="font-size:6.00;" x="971" y="163">serial</text>
<text text-anchor="middle" style="font-size:6.00;" x="1014" y="163"> PRIMARY KEY </text>
<text text-anchor="middle" style="font-size:6.00;" x="946" y="175">message</text>
<text text-anchor="middle" style="font-size:6.00;" x="973" y="175">integer</text>
<text text-anchor="middle" style="font-size:6.00;" x="1035" y="175"> REFERENCES message UNIQUE </text>
<text text-anchor="middle" style="font-size:6.00;" x="947" y="187">sequence</text>
<text text-anchor="middle" style="font-size:6.00;" x="973" y="187">integer</text>
<text text-anchor="middle" style="font-size:6.00;" x="1005" y="187"> UNIQUE </text>
<text text-anchor="middle" style="font-size:6.00;" x="945" y="199">content</text>
<text text-anchor="middle" style="font-size:6.00;" x="970" y="199">text</text>
<text text-anchor="middle" style="font-size:6.00;" x="942" y="211">blob</text>
<text text-anchor="middle" style="font-size:6.00;" x="973" y="211">integer</text>
<text text-anchor="middle" style="font-size:6.00;" x="1031" y="211"> REFERENCES libraryfilealias </text>
<text text-anchor="middle" style="font-size:6.00;" x="939" y="223">fti</text>
<text text-anchor="middle" style="font-size:6.00;" x="975" y="223">tsvector</text>
<polygon style="fill:none;stroke:black;" points="930,229 930,139 1084,139 1084,229 930,229"/>
</g>
<g id="edge22" class="edge"><title>messagechunk&#45;&gt;message</title>
<path style="fill:none;stroke:black;" d="M974,233C953,264 924,306 900,342"/>
<polygon style="fill:black;stroke:black;" points="902,345 894,351 897,341 902,345"/>
</g>
<g id="node25" class="node"><title>fake_libraryfilealias_154</title>
<ellipse cx="1107" cy="38" rx="29" ry="18" style="fill:none;stroke:red;"/>
<text text-anchor="middle" style="font-size:6.00;" x="1107" y="40">libraryfilealias</text>
</g>
<g id="edge24" class="edge"><title>messagechunk&#45;&gt;fake_libraryfilealias_154</title>
<path style="fill:none;stroke:black;" d="M1041,135C1057,111 1077,83 1090,63"/>
<polygon style="fill:black;stroke:black;" points="1087,61 1096,55 1093,65 1087,61"/>
</g>
<g id="edge26" class="edge"><title>person&#45;&gt;person</title>
<path style="fill:none;stroke:black;" d="M685,860C696,848 703,830 703,803 703,781 699,766 691,754"/>
<polygon style="fill:black;stroke:black;" points="688,756 685,746 694,752 688,756"/>
</g>
<g id="edge30" class="edge"><title>person&#45;&gt;person</title>
<path style="fill:none;stroke:black;" d="M685,936C706,920 721,876 721,803 721,739 709,697 692,677"/>
<polygon style="fill:black;stroke:black;" points="690,680 685,670 695,675 690,680"/>
</g>
<g id="node28" class="node"><title>fake_language_179</title>
<ellipse cx="380" cy="551" rx="27" ry="18" style="fill:none;stroke:red;"/>
<text text-anchor="middle" style="font-size:6.00;" x="380" y="553">language</text>
</g>
<g id="edge28" class="edge"><title>person&#45;&gt;fake_language_179</title>
<path style="fill:none;stroke:black;" d="M467,663C441,629 415,596 398,575"/>
<polygon style="fill:black;stroke:black;" points="395,577 392,567 401,573 395,577"/>
</g>
<g id="node31" class="node"><title>fake_calendar_182</title>
<ellipse cx="732" cy="764" rx="27" ry="18" style="fill:none;stroke:red;"/>
<text text-anchor="middle" style="font-size:6.00;" x="732" y="766">calendar</text>
</g>
<g id="edge32" class="edge"><title>person&#45;&gt;fake_calendar_182</title>
<path style="fill:none;stroke:black;" d="M685,776C689,775 693,774 697,773"/>
<polygon style="fill:black;stroke:black;" points="696,770 707,770 698,776 696,770"/>
</g>
<g id="node33" class="node"><title>fake_country_184</title>
<ellipse cx="600" cy="1116" rx="27" ry="18" style="fill:none;stroke:red;"/>
<text text-anchor="middle" style="font-size:6.00;" x="600" y="1118">country</text>
</g>
<g id="edge34" class="edge"><title>person&#45;&gt;fake_country_184</title>
<path style="fill:none;stroke:black;" d="M590,990C593,1028 596,1064 597,1088"/>
<polygon style="fill:black;stroke:black;" points="600,1088 598,1098 594,1088 600,1088"/>
</g>
<g id="node35" class="node"><title>fake_libraryfilealias_186</title>
<ellipse cx="547" cy="484" rx="29" ry="18" style="fill:none;stroke:red;"/>
<text text-anchor="middle" style="font-size:6.00;" x="547" y="486">libraryfilealias</text>
</g>
<g id="edge36" class="edge"><title>person&#45;&gt;fake_libraryfilealias_186</title>
<path style="fill:none;stroke:black;" d="M559,616C556,575 552,537 550,512"/>
<polygon style="fill:black;stroke:black;" points="547,512 549,502 553,512 547,512"/>
</g>
<g id="node37" class="node"><title>fake_libraryfilealias_188</title>
<ellipse cx="409" cy="831" rx="29" ry="18" style="fill:none;stroke:red;"/>
<text text-anchor="middle" style="font-size:6.00;" x="409" y="833">libraryfilealias</text>
</g>
<g id="edge38" class="edge"><title>person&#45;&gt;fake_libraryfilealias_188</title>
<path style="fill:none;stroke:black;" d="M467,821C460,822 453,824 447,825"/>
<polygon style="fill:black;stroke:black;" points="447,828 437,826 447,822 447,828"/>
</g>
<g id="node7" class="node"><title>specificationsubscription</title>
<polygon style="fill:#c1cdcc;stroke:#c1cdcc;" points="105,649 105,595 277,595 277,649 105,649"/>
<polygon style="fill:white;stroke:white;" points="108,610 108,598 274,598 274,610 108,610"/>
<text text-anchor="middle" style="font-size:6.00;" x="191" y="606">specificationsubscription</text>
<polygon style="fill:none;stroke:black;" points="108,610 108,598 274,598 274,610 108,610"/>
<text text-anchor="middle" style="font-size:6.00;" x="113" y="619">id</text>
<text text-anchor="middle" style="font-size:6.00;" x="156" y="619">serial</text>
<text text-anchor="middle" style="font-size:6.00;" x="196" y="619"> PRIMARY KEY </text>
<text text-anchor="middle" style="font-size:6.00;" x="126" y="631">specification</text>
<text text-anchor="middle" style="font-size:6.00;" x="158" y="631">integer</text>
<text text-anchor="middle" style="font-size:6.00;" x="223" y="631"> UNIQUE REFERENCES specification </text>
<text text-anchor="middle" style="font-size:6.00;" x="119" y="643">person</text>
<text text-anchor="middle" style="font-size:6.00;" x="158" y="643">integer</text>
<text text-anchor="middle" style="font-size:6.00;" x="215" y="643"> REFERENCES person UNIQUE </text>
<polygon style="fill:none;stroke:black;" points="105,649 105,595 277,595 277,649 105,649"/>
</g>
<g id="edge42" class="edge"><title>specificationsubscription&#45;&gt;person</title>
<path style="fill:none;stroke:black;" d="M257,653C312,679 392,716 458,748"/>
<polygon style="fill:black;stroke:black;" points="459,745 467,752 456,751 459,745"/>
</g>
<g id="node39" class="node"><title>fake_specification_328</title>
<ellipse cx="33" cy="541" rx="27" ry="18" style="fill:none;stroke:red;"/>
<text text-anchor="middle" style="font-size:6.00;" x="33" y="543">specification</text>
</g>
<g id="edge40" class="edge"><title>specificationsubscription&#45;&gt;fake_specification_328</title>
<path style="fill:none;stroke:black;" d="M130,591C108,579 83,566 64,557"/>
<polygon style="fill:black;stroke:black;" points="62,560 55,552 65,554 62,560"/>
</g>
<g id="node8" class="node"><title>ticketsubscription</title>
<polygon style="fill:#c1cdcc;stroke:#c1cdcc;" points="719,1176 719,1122 861,1122 861,1176 719,1176"/>
<polygon style="fill:white;stroke:white;" points="722,1137 722,1125 858,1125 858,1137 722,1137"/>
<text text-anchor="middle" style="font-size:6.00;" x="790" y="1133">ticketsubscription</text>
<polygon style="fill:none;stroke:black;" points="722,1137 722,1125 858,1125 858,1137 722,1137"/>
<text text-anchor="middle" style="font-size:6.00;" x="727" y="1146">id</text>
<text text-anchor="middle" style="font-size:6.00;" x="755" y="1146">serial</text>
<text text-anchor="middle" style="font-size:6.00;" x="795" y="1146"> PRIMARY KEY </text>
<text text-anchor="middle" style="font-size:6.00;" x="732" y="1158">ticket</text>
<text text-anchor="middle" style="font-size:6.00;" x="757" y="1158">integer</text>
<text text-anchor="middle" style="font-size:6.00;" x="813" y="1158"> REFERENCES ticket UNIQUE </text>
<text text-anchor="middle" style="font-size:6.00;" x="733" y="1170">person</text>
<text text-anchor="middle" style="font-size:6.00;" x="757" y="1170">integer</text>
<text text-anchor="middle" style="font-size:6.00;" x="814" y="1170"> REFERENCES person UNIQUE </text>
<polygon style="fill:none;stroke:black;" points="719,1176 719,1122 861,1122 861,1176 719,1176"/>
</g>
<g id="edge46" class="edge"><title>ticketsubscription&#45;&gt;person</title>
<path style="fill:none;stroke:black;" d="M771,1118C752,1088 722,1039 690,989"/>
<polygon style="fill:black;stroke:black;" points="687,990 685,980 693,987 687,990"/>
</g>
<g id="node42" class="node"><title>fake_ticket_357</title>
<ellipse cx="868" cy="1291" rx="27" ry="18" style="fill:none;stroke:red;"/>
<text text-anchor="middle" style="font-size:6.00;" x="868" y="1293">ticket</text>
</g>
<g id="edge44" class="edge"><title>ticketsubscription&#45;&gt;fake_ticket_357</title>
<path style="fill:none;stroke:black;" d="M807,1180C821,1205 841,1241 853,1265"/>
<polygon style="fill:black;stroke:black;" points="856,1264 858,1274 850,1267 856,1264"/>
</g>
</g>
</svg>
