<?xml version="1.0" encoding="UTF-8" standalone="no"?>
<!DOCTYPE svg PUBLIC "-//W3C//DTD SVG 1.0//EN"
 "http://www.w3.org/TR/2001/REC-SVG-20010904/DTD/svg10.dtd">
<!-- Generated by fdp version 2.2.1 (Tue Oct 11 01:38:21 UTC 2005)
     For user: (stub) Stuart Bishop,,,   Title: g    Pages: 1 -->
<svg width="1185px" height="1189px"
 viewBox = "-1 -1 1184 1188"
 xmlns="http://www.w3.org/2000/svg">
<g id="graph0" class="graph" style="font-family:Times-Roman;font-size:14.00;">
<title>g</title>
<text text-anchor="middle" style="font-size:22.00;" x="591" y="1171">Subscriptions</text>
<g id="node1" class="node"><title>bountysubscription</title>
<polygon style="fill:#c1cdcc;stroke:#c1cdcc;" points="509,995 509,933 691,933 691,995 509,995"/>
<polygon style="fill:white;stroke:white;" points="512,950 512,936 688,936 688,950 512,950"/>
<text text-anchor="middle" style="font-size:8.00;" x="600" y="946">bountysubscription</text>
<polygon style="fill:none;stroke:black;" points="512,950 512,936 688,936 688,950 512,950"/>
<text text-anchor="middle" style="font-size:8.00;" x="518" y="961">id</text>
<text text-anchor="middle" style="font-size:8.00;" x="553" y="961">serial</text>
<text text-anchor="middle" style="font-size:8.00;" x="604" y="961"> PRIMARY KEY </text>
<text text-anchor="middle" style="font-size:8.00;" x="526" y="975">bounty</text>
<text text-anchor="middle" style="font-size:8.00;" x="556" y="975">integer</text>
<text text-anchor="middle" style="font-size:8.00;" x="630" y="975"> REFERENCES bounty UNIQUE </text>
<text text-anchor="middle" style="font-size:8.00;" x="526" y="989">person</text>
<text text-anchor="middle" style="font-size:8.00;" x="556" y="989">integer</text>
<text text-anchor="middle" style="font-size:8.00;" x="630" y="989"> REFERENCES person UNIQUE </text>
<polygon style="fill:none;stroke:black;" points="509,995 509,933 691,933 691,995 509,995"/>
</g>
<g id="node6" class="node"><title>person</title>
<polygon style="fill:#c1cdcc;stroke:#c1cdcc;" points="443,907 443,509 701,509 701,907 443,907"/>
<polygon style="fill:white;stroke:white;" points="446,526 446,512 698,512 698,526 446,526"/>
<text text-anchor="middle" style="font-size:8.00;" x="572" y="522">person</text>
<polygon style="fill:none;stroke:black;" points="446,526 446,512 698,512 698,526 446,526"/>
<text text-anchor="middle" style="font-size:8.00;" x="452" y="537">id</text>
<text text-anchor="middle" style="font-size:8.00;" x="547" y="537">serial</text>
<text text-anchor="middle" style="font-size:8.00;" x="609" y="537"> PRIMARY KEY </text>
<text text-anchor="middle" style="font-size:8.00;" x="469" y="551">displayname</text>
<text text-anchor="middle" style="font-size:8.00;" x="545" y="551">text</text>
<text text-anchor="middle" style="font-size:8.00;" x="464" y="565">password</text>
<text text-anchor="middle" style="font-size:8.00;" x="545" y="565">text</text>
<text text-anchor="middle" style="font-size:8.00;" x="467" y="579">teamowner</text>
<text text-anchor="middle" style="font-size:8.00;" x="550" y="579">integer</text>
<text text-anchor="middle" style="font-size:8.00;" x="619" y="579"> REFERENCES person </text>
<text text-anchor="middle" style="font-size:8.00;" x="475" y="593">teamdescription</text>
<text text-anchor="middle" style="font-size:8.00;" x="545" y="593">text</text>
<text text-anchor="middle" style="font-size:8.00;" x="458" y="607">name</text>
<text text-anchor="middle" style="font-size:8.00;" x="545" y="607">text</text>
<text text-anchor="middle" style="font-size:8.00;" x="464" y="621">language</text>
<text text-anchor="middle" style="font-size:8.00;" x="550" y="621">integer</text>
<text text-anchor="middle" style="font-size:8.00;" x="623" y="621"> REFERENCES language </text>
<text text-anchor="middle" style="font-size:8.00;" x="453" y="635">fti</text>
<text text-anchor="middle" style="font-size:8.00;" x="552" y="635">tsvector</text>
<text text-anchor="middle" style="font-size:8.00;" x="490" y="649">defaultmembershipperiod</text>
<text text-anchor="middle" style="font-size:8.00;" x="550" y="649">integer</text>
<text text-anchor="middle" style="font-size:8.00;" x="483" y="663">defaultrenewalperiod</text>
<text text-anchor="middle" style="font-size:8.00;" x="550" y="663">integer</text>
<text text-anchor="middle" style="font-size:8.00;" x="478" y="677">subscriptionpolicy</text>
<text text-anchor="middle" style="font-size:8.00;" x="550" y="677">integer</text>
<text text-anchor="middle" style="font-size:8.00;" x="461" y="691">merged</text>
<text text-anchor="middle" style="font-size:8.00;" x="550" y="691">integer</text>
<text text-anchor="middle" style="font-size:8.00;" x="619" y="691"> REFERENCES person </text>
<text text-anchor="middle" style="font-size:8.00;" x="467" y="705">datecreated</text>
<text text-anchor="middle" style="font-size:8.00;" x="556" y="705">timestamp</text>
<text text-anchor="middle" style="font-size:8.00;" x="462" y="719">calendar</text>
<text text-anchor="middle" style="font-size:8.00;" x="550" y="719">integer</text>
<text text-anchor="middle" style="font-size:8.00;" x="638" y="719"> REFERENCES calendar UNIQUE </text>
<text text-anchor="middle" style="font-size:8.00;" x="464" y="733">timezone</text>
<text text-anchor="middle" style="font-size:8.00;" x="545" y="733">text</text>
<text text-anchor="middle" style="font-size:8.00;" x="469" y="747">addressline1</text>
<text text-anchor="middle" style="font-size:8.00;" x="545" y="747">text</text>
<text text-anchor="middle" style="font-size:8.00;" x="469" y="761">addressline2</text>
<text text-anchor="middle" style="font-size:8.00;" x="545" y="761">text</text>
<text text-anchor="middle" style="font-size:8.00;" x="469" y="775">organization</text>
<text text-anchor="middle" style="font-size:8.00;" x="545" y="775">text</text>
<text text-anchor="middle" style="font-size:8.00;" x="455" y="789">city</text>
<text text-anchor="middle" style="font-size:8.00;" x="545" y="789">text</text>
<text text-anchor="middle" style="font-size:8.00;" x="463" y="803">province</text>
<text text-anchor="middle" style="font-size:8.00;" x="545" y="803">text</text>
<text text-anchor="middle" style="font-size:8.00;" x="461" y="817">country</text>
<text text-anchor="middle" style="font-size:8.00;" x="550" y="817">integer</text>
<text text-anchor="middle" style="font-size:8.00;" x="620" y="817"> REFERENCES country </text>
<text text-anchor="middle" style="font-size:8.00;" x="463" y="831">postcode</text>
<text text-anchor="middle" style="font-size:8.00;" x="545" y="831">text</text>
<text text-anchor="middle" style="font-size:8.00;" x="459" y="845">phone</text>
<text text-anchor="middle" style="font-size:8.00;" x="545" y="845">text</text>
<text text-anchor="middle" style="font-size:8.00;" x="480" y="859">homepage_content</text>
<text text-anchor="middle" style="font-size:8.00;" x="545" y="859">text</text>
<text text-anchor="middle" style="font-size:8.00;" x="462" y="873">emblem</text>
<text text-anchor="middle" style="font-size:8.00;" x="550" y="873">integer</text>
<text text-anchor="middle" style="font-size:8.00;" x="631" y="873"> REFERENCES libraryfilealias </text>
<text text-anchor="middle" style="font-size:8.00;" x="470" y="887">hackergotchi</text>
<text text-anchor="middle" style="font-size:8.00;" x="550" y="887">integer</text>
<text text-anchor="middle" style="font-size:8.00;" x="631" y="887"> REFERENCES libraryfilealias </text>
<text text-anchor="middle" style="font-size:8.00;" x="484" y="901">hide_email_addresses</text>
<text text-anchor="middle" style="font-size:8.00;" x="552" y="901">boolean</text>
<polygon style="fill:none;stroke:black;" points="443,907 443,509 701,509 701,907 443,907"/>
</g>
<g id="edge4" class="edge"><title>bountysubscription&#45;&gt;person</title>
<path style="fill:none;stroke:black;" d="M596,929C596,927 595,924 595,921"/>
<polygon style="fill:black;stroke:black;" points="592,921 594,911 598,921 592,921"/>
</g>
<g id="node9" class="node"><title>fake_bounty_16</title>
<ellipse cx="607" cy="1128" rx="27" ry="18" style="fill:none;stroke:red;"/>
<text text-anchor="middle" style="font-size:8.00;" x="607" y="1131">bounty</text>
</g>
<g id="edge2" class="edge"><title>bountysubscription&#45;&gt;fake_bounty_16</title>
<path style="fill:none;stroke:black;" d="M602,999C603,1029 605,1072 606,1100"/>
<polygon style="fill:black;stroke:black;" points="610,1100 606,1110 603,1100 610,1100"/>
</g>
<g id="node2" class="node"><title>branchsubscription</title>
<polygon style="fill:#c1cdcc;stroke:#c1cdcc;" points="767,456 767,394 917,394 917,456 767,456"/>
<polygon style="fill:white;stroke:white;" points="770,411 770,397 914,397 914,411 770,411"/>
<text text-anchor="middle" style="font-size:8.00;" x="842" y="407">branchsubscription</text>
<polygon style="fill:none;stroke:black;" points="770,411 770,397 914,397 914,411 770,411"/>
<text text-anchor="middle" style="font-size:8.00;" x="776" y="422">id</text>
<text text-anchor="middle" style="font-size:8.00;" x="812" y="422">serial</text>
<text text-anchor="middle" style="font-size:8.00;" x="863" y="422"> PRIMARY KEY </text>
<text text-anchor="middle" style="font-size:8.00;" x="784" y="436">person</text>
<text text-anchor="middle" style="font-size:8.00;" x="815" y="436">integer</text>
<text text-anchor="middle" style="font-size:8.00;" x="873" y="436"> REFERENCES person </text>
<text text-anchor="middle" style="font-size:8.00;" x="784" y="450">branch</text>
<text text-anchor="middle" style="font-size:8.00;" x="815" y="450">integer</text>
<text text-anchor="middle" style="font-size:8.00;" x="873" y="450"> REFERENCES branch </text>
<polygon style="fill:none;stroke:black;" points="767,456 767,394 917,394 917,456 767,456"/>
</g>
<g id="edge6" class="edge"><title>branchsubscription&#45;&gt;person</title>
<path style="fill:none;stroke:black;" d="M808,460C785,485 751,520 716,557"/>
<polygon style="fill:black;stroke:black;" points="719,559 709,564 714,554 719,559"/>
</g>
<g id="node13" class="node"><title>fake_branch_32</title>
<ellipse cx="947" cy="313" rx="27" ry="18" style="fill:none;stroke:red;"/>
<text text-anchor="middle" style="font-size:8.00;" x="947" y="316">branch</text>
</g>
<g id="edge8" class="edge"><title>branchsubscription&#45;&gt;fake_branch_32</title>
<path style="fill:none;stroke:black;" d="M875,390C891,372 911,351 926,336"/>
<polygon style="fill:black;stroke:black;" points="924,333 933,328 929,338 924,333"/>
</g>
<g id="node3" class="node"><title>bugsubscription</title>
<polygon style="fill:#c1cdcc;stroke:#c1cdcc;" points="772,1026 772,964 920,964 920,1026 772,1026"/>
<polygon style="fill:white;stroke:white;" points="775,981 775,967 917,967 917,981 775,981"/>
<text text-anchor="middle" style="font-size:8.00;" x="846" y="977">bugsubscription</text>
<polygon style="fill:none;stroke:black;" points="775,981 775,967 917,967 917,981 775,981"/>
<text text-anchor="middle" style="font-size:8.00;" x="781" y="992">id</text>
<text text-anchor="middle" style="font-size:8.00;" x="815" y="992">serial</text>
<text text-anchor="middle" style="font-size:8.00;" x="866" y="992"> PRIMARY KEY </text>
<text text-anchor="middle" style="font-size:8.00;" x="789" y="1006">person</text>
<text text-anchor="middle" style="font-size:8.00;" x="818" y="1006">integer</text>
<text text-anchor="middle" style="font-size:8.00;" x="876" y="1006"> REFERENCES person </text>
<text text-anchor="middle" style="font-size:8.00;" x="784" y="1020">bug</text>
<text text-anchor="middle" style="font-size:8.00;" x="818" y="1020">integer</text>
<text text-anchor="middle" style="font-size:8.00;" x="871" y="1020"> REFERENCES bug </text>
<polygon style="fill:none;stroke:black;" points="772,1026 772,964 920,964 920,1026 772,1026"/>
</g>
<g id="edge10" class="edge"><title>bugsubscription&#45;&gt;person</title>
<path style="fill:none;stroke:black;" d="M812,960C788,934 753,897 716,859"/>
<polygon style="fill:black;stroke:black;" points="714,862 709,852 719,857 714,862"/>
</g>
<g id="node16" class="node"><title>fake_bug_64</title>
<ellipse cx="949" cy="1106" rx="27" ry="18" style="fill:none;stroke:red;"/>
<text text-anchor="middle" style="font-size:8.00;" x="949" y="1109">bug</text>
</g>
<g id="edge12" class="edge"><title>bugsubscription&#45;&gt;fake_bug_64</title>
<path style="fill:none;stroke:black;" d="M879,1030C895,1048 914,1068 928,1083"/>
<polygon style="fill:black;stroke:black;" points="931,1081 935,1091 926,1086 931,1081"/>
</g>
<g id="node4" class="node"><title>message</title>
<polygon style="fill:#c1cdcc;stroke:#c1cdcc;" points="200,404 200,258 404,258 404,404 200,404"/>
<polygon style="fill:white;stroke:white;" points="203,275 203,261 401,261 401,275 203,275"/>
<text text-anchor="middle" style="font-size:8.00;" x="302" y="271">message</text>
<polygon style="fill:none;stroke:black;" points="203,275 203,261 401,261 401,275 203,275"/>
<text text-anchor="middle" style="font-size:8.00;" x="209" y="286">id</text>
<text text-anchor="middle" style="font-size:8.00;" x="263" y="286">serial</text>
<text text-anchor="middle" style="font-size:8.00;" x="325" y="286"> PRIMARY KEY </text>
<text text-anchor="middle" style="font-size:8.00;" x="224" y="300">datecreated</text>
<text text-anchor="middle" style="font-size:8.00;" x="272" y="300">timestamp</text>
<text text-anchor="middle" style="font-size:8.00;" x="217" y="314">subject</text>
<text text-anchor="middle" style="font-size:8.00;" x="261" y="314">text</text>
<text text-anchor="middle" style="font-size:8.00;" x="216" y="328">owner</text>
<text text-anchor="middle" style="font-size:8.00;" x="266" y="328">integer</text>
<text text-anchor="middle" style="font-size:8.00;" x="335" y="328"> REFERENCES person </text>
<text text-anchor="middle" style="font-size:8.00;" x="216" y="342">parent</text>
<text text-anchor="middle" style="font-size:8.00;" x="266" y="342">integer</text>
<text text-anchor="middle" style="font-size:8.00;" x="338" y="342"> REFERENCES message </text>
<text text-anchor="middle" style="font-size:8.00;" x="224" y="356">distribution</text>
<text text-anchor="middle" style="font-size:8.00;" x="266" y="356">integer</text>
<text text-anchor="middle" style="font-size:8.00;" x="342" y="356"> REFERENCES distribution </text>
<text text-anchor="middle" style="font-size:8.00;" x="226" y="370">rfc822msgid</text>
<text text-anchor="middle" style="font-size:8.00;" x="261" y="370">text</text>
<text text-anchor="middle" style="font-size:8.00;" x="210" y="384">fti</text>
<text text-anchor="middle" style="font-size:8.00;" x="268" y="384">tsvector</text>
<text text-anchor="middle" style="font-size:8.00;" x="212" y="398">raw</text>
<text text-anchor="middle" style="font-size:8.00;" x="266" y="398">integer</text>
<text text-anchor="middle" style="font-size:8.00;" x="347" y="398"> REFERENCES libraryfilealias </text>
<polygon style="fill:none;stroke:black;" points="200,404 200,258 404,258 404,404 200,404"/>
</g>
<g id="edge16" class="edge"><title>message&#45;&gt;message</title>
<path style="fill:none;stroke:black;" d="M412,378C423,369 430,353 430,331 430,314 426,301 419,291"/>
<polygon style="fill:black;stroke:black;" points="417,294 412,284 422,289 417,294"/>
</g>
<g id="edge14" class="edge"><title>message&#45;&gt;person</title>
<path style="fill:none;stroke:black;" d="M357,408C378,438 403,473 429,509"/>
<polygon style="fill:black;stroke:black;" points="432,507 435,517 426,511 432,507"/>
</g>
<g id="node20" class="node"><title>fake_distribution_155</title>
<ellipse cx="100" cy="298" rx="30" ry="18" style="fill:none;stroke:red;"/>
<text text-anchor="middle" style="font-size:8.00;" x="100" y="301">distribution</text>
</g>
<g id="edge18" class="edge"><title>message&#45;&gt;fake_distribution_155</title>
<path style="fill:none;stroke:black;" d="M192,313C173,310 155,306 139,304"/>
<polygon style="fill:black;stroke:black;" points="139,307 129,303 139,301 139,307"/>
</g>
<g id="node22" class="node"><title>fake_libraryfilealias_157</title>
<ellipse cx="343" cy="125" rx="35" ry="18" style="fill:none;stroke:red;"/>
<text text-anchor="middle" style="font-size:8.00;" x="343" y="128">libraryfilealias</text>
</g>
<g id="edge20" class="edge"><title>message&#45;&gt;fake_libraryfilealias_157</title>
<path style="fill:none;stroke:black;" d="M317,254C324,218 332,179 337,153"/>
<polygon style="fill:black;stroke:black;" points="334,152 339,143 340,153 334,152"/>
</g>
<g id="node5" class="node"><title>messagechunk</title>
<polygon style="fill:#c1cdcc;stroke:#c1cdcc;" points="85,226 85,122 281,122 281,226 85,226"/>
<polygon style="fill:white;stroke:white;" points="88,139 88,125 278,125 278,139 88,139"/>
<text text-anchor="middle" style="font-size:8.00;" x="183" y="135">messagechunk</text>
<polygon style="fill:none;stroke:black;" points="88,139 88,125 278,125 278,139 88,139"/>
<text text-anchor="middle" style="font-size:8.00;" x="94" y="150">id</text>
<text text-anchor="middle" style="font-size:8.00;" x="135" y="150">serial</text>
<text text-anchor="middle" style="font-size:8.00;" x="189" y="150"> PRIMARY KEY </text>
<text text-anchor="middle" style="font-size:8.00;" x="105" y="164">message</text>
<text text-anchor="middle" style="font-size:8.00;" x="138" y="164">integer</text>
<text text-anchor="middle" style="font-size:8.00;" x="218" y="164"> REFERENCES message UNIQUE </text>
<text text-anchor="middle" style="font-size:8.00;" x="105" y="178">sequence</text>
<text text-anchor="middle" style="font-size:8.00;" x="138" y="178">integer</text>
<text text-anchor="middle" style="font-size:8.00;" x="177" y="178"> UNIQUE </text>
<text text-anchor="middle" style="font-size:8.00;" x="102" y="192">content</text>
<text text-anchor="middle" style="font-size:8.00;" x="133" y="192">text</text>
<text text-anchor="middle" style="font-size:8.00;" x="98" y="206">blob</text>
<text text-anchor="middle" style="font-size:8.00;" x="138" y="206">integer</text>
<text text-anchor="middle" style="font-size:8.00;" x="211" y="206"> REFERENCES libraryfilealias </text>
<text text-anchor="middle" style="font-size:8.00;" x="95" y="220">fti</text>
<text text-anchor="middle" style="font-size:8.00;" x="140" y="220">tsvector</text>
<polygon style="fill:none;stroke:black;" points="85,226 85,122 281,122 281,226 85,226"/>
</g>
<g id="edge22" class="edge"><title>messagechunk&#45;&gt;message</title>
<path style="fill:none;stroke:black;" d="M226,230C230,235 234,240 238,246"/>
<polygon style="fill:black;stroke:black;" points="241,244 244,254 235,248 241,244"/>
</g>
<g id="node25" class="node"><title>fake_libraryfilealias_160</title>
<ellipse cx="73" cy="23" rx="35" ry="18" style="fill:none;stroke:red;"/>
<text text-anchor="middle" style="font-size:8.00;" x="73" y="26">libraryfilealias</text>
</g>
<g id="edge24" class="edge"><title>messagechunk&#45;&gt;fake_libraryfilealias_160</title>
<path style="fill:none;stroke:black;" d="M142,118C125,94 105,67 91,48"/>
<polygon style="fill:black;stroke:black;" points="88,50 85,40 94,46 88,50"/>
</g>
<g id="edge26" class="edge"><title>person&#45;&gt;person</title>
<path style="fill:none;stroke:black;" d="M709,766C720,753 727,734 727,708 727,687 722,671 715,658"/>
<polygon style="fill:black;stroke:black;" points="712,660 709,650 718,656 712,660"/>
</g>
<g id="edge30" class="edge"><title>person&#45;&gt;person</title>
<path style="fill:none;stroke:black;" d="M709,846C731,826 745,779 745,708 745,645 734,601 716,578"/>
<polygon style="fill:black;stroke:black;" points="713,580 709,570 718,575 713,580"/>
</g>
<g id="node28" class="node"><title>fake_language_193</title>
<ellipse cx="753" cy="711" rx="27" ry="18" style="fill:none;stroke:red;"/>
<text text-anchor="middle" style="font-size:8.00;" x="753" y="714">language</text>
</g>
<g id="edge28" class="edge"><title>person&#45;&gt;fake_language_193</title>
<path style="fill:none;stroke:black;" d="M709,710C711,710 714,710 716,710"/>
<polygon style="fill:black;stroke:black;" points="716,707 726,711 716,713 716,707"/>
</g>
<g id="node31" class="node"><title>fake_calendar_196</title>
<ellipse cx="414" cy="984" rx="27" ry="18" style="fill:none;stroke:red;"/>
<text text-anchor="middle" style="font-size:8.00;" x="414" y="987">calendar</text>
</g>
<g id="edge32" class="edge"><title>person&#45;&gt;fake_calendar_196</title>
<path style="fill:none;stroke:black;" d="M456,911C446,929 436,946 429,958"/>
<polygon style="fill:black;stroke:black;" points="432,960 424,967 426,957 432,960"/>
</g>
<g id="node33" class="node"><title>fake_country_198</title>
<ellipse cx="390" cy="773" rx="27" ry="18" style="fill:none;stroke:red;"/>
<text text-anchor="middle" style="font-size:8.00;" x="390" y="776">country</text>
</g>
<g id="edge34" class="edge"><title>person&#45;&gt;fake_country_198</title>
<path style="fill:none;stroke:black;" d="M435,757C431,758 427,760 424,761"/>
<polygon style="fill:black;stroke:black;" points="425,764 414,764 423,758 425,764"/>
</g>
<g id="node35" class="node"><title>fake_libraryfilealias_200</title>
<ellipse cx="627" cy="470" rx="35" ry="18" style="fill:none;stroke:red;"/>
<text text-anchor="middle" style="font-size:8.00;" x="627" y="473">libraryfilealias</text>
</g>
<g id="edge36" class="edge"><title>person&#45;&gt;fake_libraryfilealias_200</title>
<path style="fill:none;stroke:black;" d="M619,505C620,503 620,500 621,498"/>
<polygon style="fill:black;stroke:black;" points="618,497 623,488 624,498 618,497"/>
</g>
<g id="node37" class="node"><title>fake_libraryfilealias_202</title>
<ellipse cx="381" cy="592" rx="35" ry="18" style="fill:none;stroke:red;"/>
<text text-anchor="middle" style="font-size:8.00;" x="381" y="595">libraryfilealias</text>
</g>
<g id="edge38" class="edge"><title>person&#45;&gt;fake_libraryfilealias_202</title>
<path style="fill:none;stroke:black;" d="M435,625C427,620 419,616 413,611"/>
<polygon style="fill:black;stroke:black;" points="411,614 404,606 414,608 411,614"/>
</g>
<g id="node7" class="node"><title>specificationsubscription</title>
<polygon style="fill:#c1cdcc;stroke:#c1cdcc;" points="89,959 89,897 309,897 309,959 89,959"/>
<polygon style="fill:white;stroke:white;" points="92,914 92,900 306,900 306,914 92,914"/>
<text text-anchor="middle" style="font-size:8.00;" x="199" y="910">specificationsubscription</text>
<polygon style="fill:none;stroke:black;" points="92,914 92,900 306,900 306,914 92,914"/>
<text text-anchor="middle" style="font-size:8.00;" x="98" y="925">id</text>
<text text-anchor="middle" style="font-size:8.00;" x="152" y="925">serial</text>
<text text-anchor="middle" style="font-size:8.00;" x="203" y="925"> PRIMARY KEY </text>
<text text-anchor="middle" style="font-size:8.00;" x="115" y="939">specification</text>
<text text-anchor="middle" style="font-size:8.00;" x="155" y="939">integer</text>
<text text-anchor="middle" style="font-size:8.00;" x="239" y="939"> UNIQUE REFERENCES specification </text>
<text text-anchor="middle" style="font-size:8.00;" x="106" y="953">person</text>
<text text-anchor="middle" style="font-size:8.00;" x="155" y="953">integer</text>
<text text-anchor="middle" style="font-size:8.00;" x="229" y="953"> REFERENCES person UNIQUE </text>
<polygon style="fill:none;stroke:black;" points="89,959 89,897 309,897 309,959 89,959"/>
</g>
<g id="edge42" class="edge"><title>specificationsubscription&#45;&gt;person</title>
<path style="fill:none;stroke:black;" d="M259,893C304,866 368,829 426,794"/>
<polygon style="fill:black;stroke:black;" points="425,791 435,789 428,797 425,791"/>
</g>
<g id="node39" class="node"><title>fake_specification_350</title>
<ellipse cx="38" cy="1031" rx="32" ry="18" style="fill:none;stroke:red;"/>
<text text-anchor="middle" style="font-size:8.00;" x="38" y="1034">specification</text>
</g>
<g id="edge40" class="edge"><title>specificationsubscription&#45;&gt;fake_specification_350</title>
<path style="fill:none;stroke:black;" d="M144,963C119,980 89,999 68,1012"/>
<polygon style="fill:black;stroke:black;" points="69,1015 59,1017 66,1009 69,1015"/>
</g>
<g id="node8" class="node"><title>ticketsubscription</title>
<polygon style="fill:#c1cdcc;stroke:#c1cdcc;" points="892,741 892,679 1072,679 1072,741 892,741"/>
<polygon style="fill:white;stroke:white;" points="895,696 895,682 1069,682 1069,696 895,696"/>
<text text-anchor="middle" style="font-size:8.00;" x="982" y="692">ticketsubscription</text>
<polygon style="fill:none;stroke:black;" points="895,696 895,682 1069,682 1069,696 895,696"/>
<text text-anchor="middle" style="font-size:8.00;" x="901" y="707">id</text>
<text text-anchor="middle" style="font-size:8.00;" x="935" y="707">serial</text>
<text text-anchor="middle" style="font-size:8.00;" x="986" y="707"> PRIMARY KEY </text>
<text text-anchor="middle" style="font-size:8.00;" x="907" y="721">ticket</text>
<text text-anchor="middle" style="font-size:8.00;" x="938" y="721">integer</text>
<text text-anchor="middle" style="font-size:8.00;" x="1010" y="721"> REFERENCES ticket UNIQUE </text>
<text text-anchor="middle" style="font-size:8.00;" x="909" y="735">person</text>
<text text-anchor="middle" style="font-size:8.00;" x="938" y="735">integer</text>
<text text-anchor="middle" style="font-size:8.00;" x="1012" y="735"> REFERENCES person UNIQUE </text>
<polygon style="fill:none;stroke:black;" points="892,741 892,679 1072,679 1072,741 892,741"/>
</g>
<g id="edge46" class="edge"><title>ticketsubscription&#45;&gt;person</title>
<path style="fill:none;stroke:black;" d="M884,699C843,695 796,692 753,692 742,692 731,692 719,692"/>
<polygon style="fill:black;stroke:black;" points="719,695 709,693 719,689 719,695"/>
</g>
<g id="node42" class="node"><title>fake_ticket_383</title>
<ellipse cx="1150" cy="710" rx="27" ry="18" style="fill:none;stroke:red;"/>
<text text-anchor="middle" style="font-size:8.00;" x="1150" y="713">ticket</text>
</g>
<g id="edge44" class="edge"><title>ticketsubscription&#45;&gt;fake_ticket_383</title>
<path style="fill:none;stroke:black;" d="M1080,710C1092,710 1103,710 1113,710"/>
<polygon style="fill:black;stroke:black;" points="1113,706 1123,710 1113,713 1113,706"/>
</g>
</g>
</svg>
