<?xml version="1.0" encoding="UTF-8" standalone="no"?>
<!DOCTYPE svg PUBLIC "-//W3C//DTD SVG 1.0//EN"
 "http://www.w3.org/TR/2001/REC-SVG-20010904/DTD/svg10.dtd">
<!-- Generated by fdp version 2.2.1 (Thu Apr  6 00:32:47 UTC 2006)
     For user: (stub) Stuart Bishop,,,   Title: g    Pages: 1 -->
<svg width="1191px" height="1192px"
 viewBox = "-1 -1 1190 1191"
 xmlns="http://www.w3.org/2000/svg">
<g id="graph0" class="graph" style="font-family:Times-Roman;font-size:14.00;">
<title>g</title>
<text text-anchor="middle" style="font-size:22.00;" x="594" y="1174">Subscriptions</text>
<g id="node1" class="node"><title>bountysubscription</title>
<polygon style="fill:#c1cdcc;stroke:#c1cdcc;" points="518,998 518,936 700,936 700,998 518,998"/>
<polygon style="fill:white;stroke:white;" points="521,953 521,939 697,939 697,953 521,953"/>
<text text-anchor="middle" style="font-size:8.00;" x="609" y="949">bountysubscription</text>
<polygon style="fill:none;stroke:black;" points="521,953 521,939 697,939 697,953 521,953"/>
<text text-anchor="middle" style="font-size:8.00;" x="527" y="964">id</text>
<text text-anchor="middle" style="font-size:8.00;" x="562" y="964">serial</text>
<text text-anchor="middle" style="font-size:8.00;" x="613" y="964"> PRIMARY KEY </text>
<text text-anchor="middle" style="font-size:8.00;" x="535" y="978">bounty</text>
<text text-anchor="middle" style="font-size:8.00;" x="565" y="978">integer</text>
<text text-anchor="middle" style="font-size:8.00;" x="639" y="978"> REFERENCES bounty UNIQUE </text>
<text text-anchor="middle" style="font-size:8.00;" x="535" y="992">person</text>
<text text-anchor="middle" style="font-size:8.00;" x="565" y="992">integer</text>
<text text-anchor="middle" style="font-size:8.00;" x="639" y="992"> REFERENCES person UNIQUE </text>
<polygon style="fill:none;stroke:black;" points="518,998 518,936 700,936 700,998 518,998"/>
</g>
<g id="node6" class="node"><title>person</title>
<polygon style="fill:#c1cdcc;stroke:#c1cdcc;" points="452,905 452,507 710,507 710,905 452,905"/>
<polygon style="fill:white;stroke:white;" points="455,524 455,510 707,510 707,524 455,524"/>
<text text-anchor="middle" style="font-size:8.00;" x="581" y="520">person</text>
<polygon style="fill:none;stroke:black;" points="455,524 455,510 707,510 707,524 455,524"/>
<text text-anchor="middle" style="font-size:8.00;" x="461" y="535">id</text>
<text text-anchor="middle" style="font-size:8.00;" x="556" y="535">serial</text>
<text text-anchor="middle" style="font-size:8.00;" x="618" y="535"> PRIMARY KEY </text>
<text text-anchor="middle" style="font-size:8.00;" x="478" y="549">displayname</text>
<text text-anchor="middle" style="font-size:8.00;" x="554" y="549">text</text>
<text text-anchor="middle" style="font-size:8.00;" x="473" y="563">password</text>
<text text-anchor="middle" style="font-size:8.00;" x="554" y="563">text</text>
<text text-anchor="middle" style="font-size:8.00;" x="476" y="577">teamowner</text>
<text text-anchor="middle" style="font-size:8.00;" x="559" y="577">integer</text>
<text text-anchor="middle" style="font-size:8.00;" x="628" y="577"> REFERENCES person </text>
<text text-anchor="middle" style="font-size:8.00;" x="484" y="591">teamdescription</text>
<text text-anchor="middle" style="font-size:8.00;" x="554" y="591">text</text>
<text text-anchor="middle" style="font-size:8.00;" x="467" y="605">name</text>
<text text-anchor="middle" style="font-size:8.00;" x="554" y="605">text</text>
<text text-anchor="middle" style="font-size:8.00;" x="473" y="619">language</text>
<text text-anchor="middle" style="font-size:8.00;" x="559" y="619">integer</text>
<text text-anchor="middle" style="font-size:8.00;" x="632" y="619"> REFERENCES language </text>
<text text-anchor="middle" style="font-size:8.00;" x="462" y="633">fti</text>
<text text-anchor="middle" style="font-size:8.00;" x="561" y="633">tsvector</text>
<text text-anchor="middle" style="font-size:8.00;" x="499" y="647">defaultmembershipperiod</text>
<text text-anchor="middle" style="font-size:8.00;" x="559" y="647">integer</text>
<text text-anchor="middle" style="font-size:8.00;" x="492" y="661">defaultrenewalperiod</text>
<text text-anchor="middle" style="font-size:8.00;" x="559" y="661">integer</text>
<text text-anchor="middle" style="font-size:8.00;" x="487" y="675">subscriptionpolicy</text>
<text text-anchor="middle" style="font-size:8.00;" x="559" y="675">integer</text>
<text text-anchor="middle" style="font-size:8.00;" x="470" y="689">merged</text>
<text text-anchor="middle" style="font-size:8.00;" x="559" y="689">integer</text>
<text text-anchor="middle" style="font-size:8.00;" x="628" y="689"> REFERENCES person </text>
<text text-anchor="middle" style="font-size:8.00;" x="476" y="703">datecreated</text>
<text text-anchor="middle" style="font-size:8.00;" x="565" y="703">timestamp</text>
<text text-anchor="middle" style="font-size:8.00;" x="471" y="717">calendar</text>
<text text-anchor="middle" style="font-size:8.00;" x="559" y="717">integer</text>
<text text-anchor="middle" style="font-size:8.00;" x="647" y="717"> REFERENCES calendar UNIQUE </text>
<text text-anchor="middle" style="font-size:8.00;" x="473" y="731">timezone</text>
<text text-anchor="middle" style="font-size:8.00;" x="554" y="731">text</text>
<text text-anchor="middle" style="font-size:8.00;" x="478" y="745">addressline1</text>
<text text-anchor="middle" style="font-size:8.00;" x="554" y="745">text</text>
<text text-anchor="middle" style="font-size:8.00;" x="478" y="759">addressline2</text>
<text text-anchor="middle" style="font-size:8.00;" x="554" y="759">text</text>
<text text-anchor="middle" style="font-size:8.00;" x="478" y="773">organization</text>
<text text-anchor="middle" style="font-size:8.00;" x="554" y="773">text</text>
<text text-anchor="middle" style="font-size:8.00;" x="464" y="787">city</text>
<text text-anchor="middle" style="font-size:8.00;" x="554" y="787">text</text>
<text text-anchor="middle" style="font-size:8.00;" x="472" y="801">province</text>
<text text-anchor="middle" style="font-size:8.00;" x="554" y="801">text</text>
<text text-anchor="middle" style="font-size:8.00;" x="470" y="815">country</text>
<text text-anchor="middle" style="font-size:8.00;" x="559" y="815">integer</text>
<text text-anchor="middle" style="font-size:8.00;" x="629" y="815"> REFERENCES country </text>
<text text-anchor="middle" style="font-size:8.00;" x="472" y="829">postcode</text>
<text text-anchor="middle" style="font-size:8.00;" x="554" y="829">text</text>
<text text-anchor="middle" style="font-size:8.00;" x="468" y="843">phone</text>
<text text-anchor="middle" style="font-size:8.00;" x="554" y="843">text</text>
<text text-anchor="middle" style="font-size:8.00;" x="489" y="857">homepage_content</text>
<text text-anchor="middle" style="font-size:8.00;" x="554" y="857">text</text>
<text text-anchor="middle" style="font-size:8.00;" x="471" y="871">emblem</text>
<text text-anchor="middle" style="font-size:8.00;" x="559" y="871">integer</text>
<text text-anchor="middle" style="font-size:8.00;" x="640" y="871"> REFERENCES libraryfilealias </text>
<text text-anchor="middle" style="font-size:8.00;" x="479" y="885">hackergotchi</text>
<text text-anchor="middle" style="font-size:8.00;" x="559" y="885">integer</text>
<text text-anchor="middle" style="font-size:8.00;" x="640" y="885"> REFERENCES libraryfilealias </text>
<text text-anchor="middle" style="font-size:8.00;" x="493" y="899">hide_email_addresses</text>
<text text-anchor="middle" style="font-size:8.00;" x="561" y="899">boolean</text>
<polygon style="fill:none;stroke:black;" points="452,905 452,507 710,507 710,905 452,905"/>
</g>
<g id="edge4" class="edge"><title>bountysubscription&#45;&gt;person</title>
<path style="fill:none;stroke:black;" d="M605,932C604,928 604,924 604,919"/>
<polygon style="fill:black;stroke:black;" points="601,919 603,909 607,919 601,919"/>
</g>
<g id="node9" class="node"><title>fake_bounty_16</title>
<ellipse cx="619" cy="1131" rx="27" ry="18" style="fill:none;stroke:red;"/>
<text text-anchor="middle" style="font-size:8.00;" x="619" y="1134">bounty</text>
</g>
<g id="edge2" class="edge"><title>bountysubscription&#45;&gt;fake_bounty_16</title>
<path style="fill:none;stroke:black;" d="M611,1002C613,1032 615,1075 617,1103"/>
<polygon style="fill:black;stroke:black;" points="620,1103 618,1113 614,1103 620,1103"/>
</g>
<g id="node2" class="node"><title>branchsubscription</title>
<polygon style="fill:#c1cdcc;stroke:#c1cdcc;" points="765,444 765,382 915,382 915,444 765,444"/>
<polygon style="fill:white;stroke:white;" points="768,399 768,385 912,385 912,399 768,399"/>
<text text-anchor="middle" style="font-size:8.00;" x="840" y="395">branchsubscription</text>
<polygon style="fill:none;stroke:black;" points="768,399 768,385 912,385 912,399 768,399"/>
<text text-anchor="middle" style="font-size:8.00;" x="774" y="410">id</text>
<text text-anchor="middle" style="font-size:8.00;" x="810" y="410">serial</text>
<text text-anchor="middle" style="font-size:8.00;" x="861" y="410"> PRIMARY KEY </text>
<text text-anchor="middle" style="font-size:8.00;" x="782" y="424">person</text>
<text text-anchor="middle" style="font-size:8.00;" x="813" y="424">integer</text>
<text text-anchor="middle" style="font-size:8.00;" x="871" y="424"> REFERENCES person </text>
<text text-anchor="middle" style="font-size:8.00;" x="782" y="438">branch</text>
<text text-anchor="middle" style="font-size:8.00;" x="813" y="438">integer</text>
<text text-anchor="middle" style="font-size:8.00;" x="871" y="438"> REFERENCES branch </text>
<polygon style="fill:none;stroke:black;" points="765,444 765,382 915,382 915,444 765,444"/>
</g>
<g id="edge6" class="edge"><title>branchsubscription&#45;&gt;person</title>
<path style="fill:none;stroke:black;" d="M809,448C788,472 756,507 725,543"/>
<polygon style="fill:black;stroke:black;" points="727,546 718,551 722,541 727,546"/>
</g>
<g id="node13" class="node"><title>fake_branch_32</title>
<ellipse cx="940" cy="298" rx="27" ry="18" style="fill:none;stroke:red;"/>
<text text-anchor="middle" style="font-size:8.00;" x="940" y="301">branch</text>
</g>
<g id="edge8" class="edge"><title>branchsubscription&#45;&gt;fake_branch_32</title>
<path style="fill:none;stroke:black;" d="M871,378C886,359 905,338 919,322"/>
<polygon style="fill:black;stroke:black;" points="917,319 926,314 922,324 917,319"/>
</g>
<g id="node3" class="node"><title>bugsubscription</title>
<polygon style="fill:#c1cdcc;stroke:#c1cdcc;" points="788,1017 788,955 936,955 936,1017 788,1017"/>
<polygon style="fill:white;stroke:white;" points="791,972 791,958 933,958 933,972 791,972"/>
<text text-anchor="middle" style="font-size:8.00;" x="862" y="968">bugsubscription</text>
<polygon style="fill:none;stroke:black;" points="791,972 791,958 933,958 933,972 791,972"/>
<text text-anchor="middle" style="font-size:8.00;" x="797" y="983">id</text>
<text text-anchor="middle" style="font-size:8.00;" x="831" y="983">serial</text>
<text text-anchor="middle" style="font-size:8.00;" x="882" y="983"> PRIMARY KEY </text>
<text text-anchor="middle" style="font-size:8.00;" x="805" y="997">person</text>
<text text-anchor="middle" style="font-size:8.00;" x="834" y="997">integer</text>
<text text-anchor="middle" style="font-size:8.00;" x="892" y="997"> REFERENCES person </text>
<text text-anchor="middle" style="font-size:8.00;" x="800" y="1011">bug</text>
<text text-anchor="middle" style="font-size:8.00;" x="834" y="1011">integer</text>
<text text-anchor="middle" style="font-size:8.00;" x="887" y="1011"> REFERENCES bug </text>
<polygon style="fill:none;stroke:black;" points="788,1017 788,955 936,955 936,1017 788,1017"/>
</g>
<g id="edge10" class="edge"><title>bugsubscription&#45;&gt;person</title>
<path style="fill:none;stroke:black;" d="M827,951C801,925 763,888 726,850"/>
<polygon style="fill:black;stroke:black;" points="723,852 718,843 728,847 723,852"/>
</g>
<g id="node16" class="node"><title>fake_bug_66</title>
<ellipse cx="967" cy="1093" rx="27" ry="18" style="fill:none;stroke:red;"/>
<text text-anchor="middle" style="font-size:8.00;" x="967" y="1096">bug</text>
</g>
<g id="edge12" class="edge"><title>bugsubscription&#45;&gt;fake_bug_66</title>
<path style="fill:none;stroke:black;" d="M896,1021C912,1037 931,1056 945,1070"/>
<polygon style="fill:black;stroke:black;" points="948,1068 952,1078 943,1073 948,1068"/>
</g>
<g id="node4" class="node"><title>message</title>
<polygon style="fill:#c1cdcc;stroke:#c1cdcc;" points="204,404 204,258 408,258 408,404 204,404"/>
<polygon style="fill:white;stroke:white;" points="207,275 207,261 405,261 405,275 207,275"/>
<text text-anchor="middle" style="font-size:8.00;" x="306" y="271">message</text>
<polygon style="fill:none;stroke:black;" points="207,275 207,261 405,261 405,275 207,275"/>
<text text-anchor="middle" style="font-size:8.00;" x="213" y="286">id</text>
<text text-anchor="middle" style="font-size:8.00;" x="267" y="286">serial</text>
<text text-anchor="middle" style="font-size:8.00;" x="329" y="286"> PRIMARY KEY </text>
<text text-anchor="middle" style="font-size:8.00;" x="228" y="300">datecreated</text>
<text text-anchor="middle" style="font-size:8.00;" x="276" y="300">timestamp</text>
<text text-anchor="middle" style="font-size:8.00;" x="221" y="314">subject</text>
<text text-anchor="middle" style="font-size:8.00;" x="265" y="314">text</text>
<text text-anchor="middle" style="font-size:8.00;" x="220" y="328">owner</text>
<text text-anchor="middle" style="font-size:8.00;" x="270" y="328">integer</text>
<text text-anchor="middle" style="font-size:8.00;" x="339" y="328"> REFERENCES person </text>
<text text-anchor="middle" style="font-size:8.00;" x="220" y="342">parent</text>
<text text-anchor="middle" style="font-size:8.00;" x="270" y="342">integer</text>
<text text-anchor="middle" style="font-size:8.00;" x="342" y="342"> REFERENCES message </text>
<text text-anchor="middle" style="font-size:8.00;" x="228" y="356">distribution</text>
<text text-anchor="middle" style="font-size:8.00;" x="270" y="356">integer</text>
<text text-anchor="middle" style="font-size:8.00;" x="346" y="356"> REFERENCES distribution </text>
<text text-anchor="middle" style="font-size:8.00;" x="230" y="370">rfc822msgid</text>
<text text-anchor="middle" style="font-size:8.00;" x="265" y="370">text</text>
<text text-anchor="middle" style="font-size:8.00;" x="214" y="384">fti</text>
<text text-anchor="middle" style="font-size:8.00;" x="272" y="384">tsvector</text>
<text text-anchor="middle" style="font-size:8.00;" x="216" y="398">raw</text>
<text text-anchor="middle" style="font-size:8.00;" x="270" y="398">integer</text>
<text text-anchor="middle" style="font-size:8.00;" x="351" y="398"> REFERENCES libraryfilealias </text>
<polygon style="fill:none;stroke:black;" points="204,404 204,258 408,258 408,404 204,404"/>
</g>
<g id="edge16" class="edge"><title>message&#45;&gt;message</title>
<path style="fill:none;stroke:black;" d="M416,378C427,369 434,353 434,331 434,314 430,301 423,291"/>
<polygon style="fill:black;stroke:black;" points="421,294 416,284 426,289 421,294"/>
</g>
<g id="edge14" class="edge"><title>message&#45;&gt;person</title>
<path style="fill:none;stroke:black;" d="M363,408C385,438 411,474 438,511"/>
<polygon style="fill:black;stroke:black;" points="441,509 444,519 435,513 441,509"/>
</g>
<g id="node20" class="node"><title>fake_distribution_163</title>
<ellipse cx="104" cy="299" rx="30" ry="18" style="fill:none;stroke:red;"/>
<text text-anchor="middle" style="font-size:8.00;" x="104" y="302">distribution</text>
</g>
<g id="edge18" class="edge"><title>message&#45;&gt;fake_distribution_163</title>
<path style="fill:none;stroke:black;" d="M196,314C177,311 159,307 143,305"/>
<polygon style="fill:black;stroke:black;" points="143,308 133,304 143,302 143,308"/>
</g>
<g id="node22" class="node"><title>fake_libraryfilealias_165</title>
<ellipse cx="346" cy="126" rx="35" ry="18" style="fill:none;stroke:red;"/>
<text text-anchor="middle" style="font-size:8.00;" x="346" y="129">libraryfilealias</text>
</g>
<g id="edge20" class="edge"><title>message&#45;&gt;fake_libraryfilealias_165</title>
<path style="fill:none;stroke:black;" d="M321,254C328,219 336,180 340,154"/>
<polygon style="fill:black;stroke:black;" points="337,153 342,144 343,154 337,153"/>
</g>
<g id="node5" class="node"><title>messagechunk</title>
<polygon style="fill:#c1cdcc;stroke:#c1cdcc;" points="87,226 87,122 283,122 283,226 87,226"/>
<polygon style="fill:white;stroke:white;" points="90,139 90,125 280,125 280,139 90,139"/>
<text text-anchor="middle" style="font-size:8.00;" x="185" y="135">messagechunk</text>
<polygon style="fill:none;stroke:black;" points="90,139 90,125 280,125 280,139 90,139"/>
<text text-anchor="middle" style="font-size:8.00;" x="96" y="150">id</text>
<text text-anchor="middle" style="font-size:8.00;" x="137" y="150">serial</text>
<text text-anchor="middle" style="font-size:8.00;" x="191" y="150"> PRIMARY KEY </text>
<text text-anchor="middle" style="font-size:8.00;" x="107" y="164">message</text>
<text text-anchor="middle" style="font-size:8.00;" x="140" y="164">integer</text>
<text text-anchor="middle" style="font-size:8.00;" x="220" y="164"> REFERENCES message UNIQUE </text>
<text text-anchor="middle" style="font-size:8.00;" x="107" y="178">sequence</text>
<text text-anchor="middle" style="font-size:8.00;" x="140" y="178">integer</text>
<text text-anchor="middle" style="font-size:8.00;" x="179" y="178"> UNIQUE </text>
<text text-anchor="middle" style="font-size:8.00;" x="104" y="192">content</text>
<text text-anchor="middle" style="font-size:8.00;" x="135" y="192">text</text>
<text text-anchor="middle" style="font-size:8.00;" x="100" y="206">blob</text>
<text text-anchor="middle" style="font-size:8.00;" x="140" y="206">integer</text>
<text text-anchor="middle" style="font-size:8.00;" x="213" y="206"> REFERENCES libraryfilealias </text>
<text text-anchor="middle" style="font-size:8.00;" x="97" y="220">fti</text>
<text text-anchor="middle" style="font-size:8.00;" x="142" y="220">tsvector</text>
<polygon style="fill:none;stroke:black;" points="87,226 87,122 283,122 283,226 87,226"/>
</g>
<g id="edge22" class="edge"><title>messagechunk&#45;&gt;message</title>
<path style="fill:none;stroke:black;" d="M228,230C232,235 236,240 240,246"/>
<polygon style="fill:black;stroke:black;" points="243,244 246,254 237,248 243,244"/>
</g>
<g id="node25" class="node"><title>fake_libraryfilealias_168</title>
<ellipse cx="76" cy="23" rx="35" ry="18" style="fill:none;stroke:red;"/>
<text text-anchor="middle" style="font-size:8.00;" x="76" y="26">libraryfilealias</text>
</g>
<g id="edge24" class="edge"><title>messagechunk&#45;&gt;fake_libraryfilealias_168</title>
<path style="fill:none;stroke:black;" d="M144,118C127,94 108,67 94,48"/>
<polygon style="fill:black;stroke:black;" points="91,50 88,40 97,46 91,50"/>
</g>
<g id="edge26" class="edge"><title>person&#45;&gt;person</title>
<path style="fill:none;stroke:black;" d="M718,764C729,751 736,732 736,706 736,685 731,669 724,656"/>
<polygon style="fill:black;stroke:black;" points="721,658 718,648 727,654 721,658"/>
</g>
<g id="edge30" class="edge"><title>person&#45;&gt;person</title>
<path style="fill:none;stroke:black;" d="M718,844C740,824 754,777 754,706 754,643 743,599 725,576"/>
<polygon style="fill:black;stroke:black;" points="722,578 718,568 727,573 722,578"/>
</g>
<g id="node28" class="node"><title>fake_language_207</title>
<ellipse cx="764" cy="726" rx="27" ry="18" style="fill:none;stroke:red;"/>
<text text-anchor="middle" style="font-size:8.00;" x="764" y="729">language</text>
</g>
<g id="edge28" class="edge"><title>person&#45;&gt;fake_language_207</title>
<path style="fill:none;stroke:black;" d="M718,721C721,721 724,722 727,722"/>
<polygon style="fill:black;stroke:black;" points="727,719 737,723 727,725 727,719"/>
</g>
<g id="node31" class="node"><title>fake_calendar_210</title>
<ellipse cx="426" cy="984" rx="27" ry="18" style="fill:none;stroke:red;"/>
<text text-anchor="middle" style="font-size:8.00;" x="426" y="987">calendar</text>
</g>
<g id="edge32" class="edge"><title>person&#45;&gt;fake_calendar_210</title>
<path style="fill:none;stroke:black;" d="M468,909C458,928 448,945 440,958"/>
<polygon style="fill:black;stroke:black;" points="443,960 435,967 437,957 443,960"/>
</g>
<g id="node33" class="node"><title>fake_country_212</title>
<ellipse cx="400" cy="785" rx="27" ry="18" style="fill:none;stroke:red;"/>
<text text-anchor="middle" style="font-size:8.00;" x="400" y="788">country</text>
</g>
<g id="edge34" class="edge"><title>person&#45;&gt;fake_country_212</title>
<path style="fill:none;stroke:black;" d="M444,766C440,768 436,769 432,771"/>
<polygon style="fill:black;stroke:black;" points="434,774 423,775 431,768 434,774"/>
</g>
<g id="node35" class="node"><title>fake_libraryfilealias_214</title>
<ellipse cx="627" cy="467" rx="35" ry="18" style="fill:none;stroke:red;"/>
<text text-anchor="middle" style="font-size:8.00;" x="627" y="470">libraryfilealias</text>
</g>
<g id="edge36" class="edge"><title>person&#45;&gt;fake_libraryfilealias_214</title>
<path style="fill:none;stroke:black;" d="M620,503C620,500 621,497 621,495"/>
<polygon style="fill:black;stroke:black;" points="618,494 623,485 624,495 618,494"/>
</g>
<g id="node37" class="node"><title>fake_libraryfilealias_216</title>
<ellipse cx="391" cy="606" rx="35" ry="18" style="fill:none;stroke:red;"/>
<text text-anchor="middle" style="font-size:8.00;" x="391" y="609">libraryfilealias</text>
</g>
<g id="edge38" class="edge"><title>person&#45;&gt;fake_libraryfilealias_216</title>
<path style="fill:none;stroke:black;" d="M444,634C437,630 431,627 425,624"/>
<polygon style="fill:black;stroke:black;" points="423,627 416,619 426,621 423,627"/>
</g>
<g id="node7" class="node"><title>specificationsubscription</title>
<polygon style="fill:#c1cdcc;stroke:#c1cdcc;" points="92,950 92,888 312,888 312,950 92,950"/>
<polygon style="fill:white;stroke:white;" points="95,905 95,891 309,891 309,905 95,905"/>
<text text-anchor="middle" style="font-size:8.00;" x="202" y="901">specificationsubscription</text>
<polygon style="fill:none;stroke:black;" points="95,905 95,891 309,891 309,905 95,905"/>
<text text-anchor="middle" style="font-size:8.00;" x="101" y="916">id</text>
<text text-anchor="middle" style="font-size:8.00;" x="155" y="916">serial</text>
<text text-anchor="middle" style="font-size:8.00;" x="206" y="916"> PRIMARY KEY </text>
<text text-anchor="middle" style="font-size:8.00;" x="118" y="930">specification</text>
<text text-anchor="middle" style="font-size:8.00;" x="158" y="930">integer</text>
<text text-anchor="middle" style="font-size:8.00;" x="242" y="930"> UNIQUE REFERENCES specification </text>
<text text-anchor="middle" style="font-size:8.00;" x="109" y="944">person</text>
<text text-anchor="middle" style="font-size:8.00;" x="158" y="944">integer</text>
<text text-anchor="middle" style="font-size:8.00;" x="232" y="944"> REFERENCES person UNIQUE </text>
<polygon style="fill:none;stroke:black;" points="92,950 92,888 312,888 312,950 92,950"/>
</g>
<g id="edge42" class="edge"><title>specificationsubscription&#45;&gt;person</title>
<path style="fill:none;stroke:black;" d="M266,884C310,860 369,827 420,798 425,795 430,793 435,790"/>
<polygon style="fill:black;stroke:black;" points="434,787 444,785 437,793 434,787"/>
</g>
<g id="node39" class="node"><title>fake_specification_369</title>
<ellipse cx="38" cy="1017" rx="32" ry="18" style="fill:none;stroke:red;"/>
<text text-anchor="middle" style="font-size:8.00;" x="38" y="1020">specification</text>
</g>
<g id="edge40" class="edge"><title>specificationsubscription&#45;&gt;fake_specification_369</title>
<path style="fill:none;stroke:black;" d="M143,954C118,969 89,986 69,999"/>
<polygon style="fill:black;stroke:black;" points="70,1002 60,1004 67,996 70,1002"/>
</g>
<g id="node8" class="node"><title>ticketsubscription</title>
<polygon style="fill:#c1cdcc;stroke:#c1cdcc;" points="900,720 900,658 1080,658 1080,720 900,720"/>
<polygon style="fill:white;stroke:white;" points="903,675 903,661 1077,661 1077,675 903,675"/>
<text text-anchor="middle" style="font-size:8.00;" x="990" y="671">ticketsubscription</text>
<polygon style="fill:none;stroke:black;" points="903,675 903,661 1077,661 1077,675 903,675"/>
<text text-anchor="middle" style="font-size:8.00;" x="909" y="686">id</text>
<text text-anchor="middle" style="font-size:8.00;" x="943" y="686">serial</text>
<text text-anchor="middle" style="font-size:8.00;" x="994" y="686"> PRIMARY KEY </text>
<text text-anchor="middle" style="font-size:8.00;" x="915" y="700">ticket</text>
<text text-anchor="middle" style="font-size:8.00;" x="946" y="700">integer</text>
<text text-anchor="middle" style="font-size:8.00;" x="1018" y="700"> REFERENCES ticket UNIQUE </text>
<text text-anchor="middle" style="font-size:8.00;" x="917" y="714">person</text>
<text text-anchor="middle" style="font-size:8.00;" x="946" y="714">integer</text>
<text text-anchor="middle" style="font-size:8.00;" x="1020" y="714"> REFERENCES person UNIQUE </text>
<polygon style="fill:none;stroke:black;" points="900,720 900,658 1080,658 1080,720 900,720"/>
</g>
<g id="edge46" class="edge"><title>ticketsubscription&#45;&gt;person</title>
<path style="fill:none;stroke:black;" d="M892,693C843,695 783,698 728,700"/>
<polygon style="fill:black;stroke:black;" points="728,703 718,700 728,696 728,703"/>
</g>
<g id="node42" class="node"><title>fake_ticket_403</title>
<ellipse cx="1156" cy="680" rx="27" ry="18" style="fill:none;stroke:red;"/>
<text text-anchor="middle" style="font-size:8.00;" x="1156" y="683">ticket</text>
</g>
<g id="edge44" class="edge"><title>ticketsubscription&#45;&gt;fake_ticket_403</title>
<path style="fill:none;stroke:black;" d="M1088,684C1099,683 1109,683 1119,682"/>
<polygon style="fill:black;stroke:black;" points="1119,678 1129,682 1119,685 1119,678"/>
</g>
</g>
</svg>
