<?xml version="1.0" encoding="UTF-8" standalone="no"?>
<!DOCTYPE svg PUBLIC "-//W3C//DTD SVG 1.0//EN"
 "http://www.w3.org/TR/2001/REC-SVG-20010904/DTD/svg10.dtd">
<!-- Generated by fdp version 2.2.1 (Tue Oct 11 01:38:21 UTC 2005)
     For user: (stub) Stuart Bishop,,,   Title: g    Pages: 1 -->
<svg width="1393px" height="1132px"
 viewBox = "-1 -1 1392 1131"
 xmlns="http://www.w3.org/2000/svg">
<g id="graph0" class="graph" style="font-family:Times-Roman;font-size:14.00;">
<title>g</title>
<text text-anchor="middle" style="font-size:22.00;" x="695" y="1114">Subscriptions</text>
<g id="node1" class="node"><title>bountysubscription</title>
<polygon style="fill:#c1cdcc;stroke:#c1cdcc;" points="379,329 379,267 561,267 561,329 379,329"/>
<polygon style="fill:white;stroke:white;" points="382,284 382,270 558,270 558,284 382,284"/>
<text text-anchor="middle" style="font-size:8.00;" x="470" y="280">bountysubscription</text>
<polygon style="fill:none;stroke:black;" points="382,284 382,270 558,270 558,284 382,284"/>
<text text-anchor="middle" style="font-size:8.00;" x="388" y="295">id</text>
<text text-anchor="middle" style="font-size:8.00;" x="423" y="295">serial</text>
<text text-anchor="middle" style="font-size:8.00;" x="474" y="295"> PRIMARY KEY </text>
<text text-anchor="middle" style="font-size:8.00;" x="396" y="309">bounty</text>
<text text-anchor="middle" style="font-size:8.00;" x="426" y="309">integer</text>
<text text-anchor="middle" style="font-size:8.00;" x="500" y="309"> REFERENCES bounty UNIQUE </text>
<text text-anchor="middle" style="font-size:8.00;" x="396" y="323">person</text>
<text text-anchor="middle" style="font-size:8.00;" x="426" y="323">integer</text>
<text text-anchor="middle" style="font-size:8.00;" x="500" y="323"> REFERENCES person UNIQUE </text>
<polygon style="fill:none;stroke:black;" points="379,329 379,267 561,267 561,329 379,329"/>
</g>
<g id="node6" class="node"><title>person</title>
<polygon style="fill:#c1cdcc;stroke:#c1cdcc;" points="416,755 416,357 674,357 674,755 416,755"/>
<polygon style="fill:white;stroke:white;" points="419,374 419,360 671,360 671,374 419,374"/>
<text text-anchor="middle" style="font-size:8.00;" x="545" y="370">person</text>
<polygon style="fill:none;stroke:black;" points="419,374 419,360 671,360 671,374 419,374"/>
<text text-anchor="middle" style="font-size:8.00;" x="425" y="385">id</text>
<text text-anchor="middle" style="font-size:8.00;" x="520" y="385">serial</text>
<text text-anchor="middle" style="font-size:8.00;" x="582" y="385"> PRIMARY KEY </text>
<text text-anchor="middle" style="font-size:8.00;" x="442" y="399">displayname</text>
<text text-anchor="middle" style="font-size:8.00;" x="518" y="399">text</text>
<text text-anchor="middle" style="font-size:8.00;" x="437" y="413">password</text>
<text text-anchor="middle" style="font-size:8.00;" x="518" y="413">text</text>
<text text-anchor="middle" style="font-size:8.00;" x="440" y="427">teamowner</text>
<text text-anchor="middle" style="font-size:8.00;" x="523" y="427">integer</text>
<text text-anchor="middle" style="font-size:8.00;" x="592" y="427"> REFERENCES person </text>
<text text-anchor="middle" style="font-size:8.00;" x="448" y="441">teamdescription</text>
<text text-anchor="middle" style="font-size:8.00;" x="518" y="441">text</text>
<text text-anchor="middle" style="font-size:8.00;" x="431" y="455">name</text>
<text text-anchor="middle" style="font-size:8.00;" x="518" y="455">text</text>
<text text-anchor="middle" style="font-size:8.00;" x="437" y="469">language</text>
<text text-anchor="middle" style="font-size:8.00;" x="523" y="469">integer</text>
<text text-anchor="middle" style="font-size:8.00;" x="596" y="469"> REFERENCES language </text>
<text text-anchor="middle" style="font-size:8.00;" x="426" y="483">fti</text>
<text text-anchor="middle" style="font-size:8.00;" x="525" y="483">tsvector</text>
<text text-anchor="middle" style="font-size:8.00;" x="463" y="497">defaultmembershipperiod</text>
<text text-anchor="middle" style="font-size:8.00;" x="523" y="497">integer</text>
<text text-anchor="middle" style="font-size:8.00;" x="456" y="511">defaultrenewalperiod</text>
<text text-anchor="middle" style="font-size:8.00;" x="523" y="511">integer</text>
<text text-anchor="middle" style="font-size:8.00;" x="451" y="525">subscriptionpolicy</text>
<text text-anchor="middle" style="font-size:8.00;" x="523" y="525">integer</text>
<text text-anchor="middle" style="font-size:8.00;" x="434" y="539">merged</text>
<text text-anchor="middle" style="font-size:8.00;" x="523" y="539">integer</text>
<text text-anchor="middle" style="font-size:8.00;" x="592" y="539"> REFERENCES person </text>
<text text-anchor="middle" style="font-size:8.00;" x="440" y="553">datecreated</text>
<text text-anchor="middle" style="font-size:8.00;" x="529" y="553">timestamp</text>
<text text-anchor="middle" style="font-size:8.00;" x="435" y="567">calendar</text>
<text text-anchor="middle" style="font-size:8.00;" x="523" y="567">integer</text>
<text text-anchor="middle" style="font-size:8.00;" x="611" y="567"> REFERENCES calendar UNIQUE </text>
<text text-anchor="middle" style="font-size:8.00;" x="437" y="581">timezone</text>
<text text-anchor="middle" style="font-size:8.00;" x="518" y="581">text</text>
<text text-anchor="middle" style="font-size:8.00;" x="442" y="595">addressline1</text>
<text text-anchor="middle" style="font-size:8.00;" x="518" y="595">text</text>
<text text-anchor="middle" style="font-size:8.00;" x="442" y="609">addressline2</text>
<text text-anchor="middle" style="font-size:8.00;" x="518" y="609">text</text>
<text text-anchor="middle" style="font-size:8.00;" x="442" y="623">organization</text>
<text text-anchor="middle" style="font-size:8.00;" x="518" y="623">text</text>
<text text-anchor="middle" style="font-size:8.00;" x="428" y="637">city</text>
<text text-anchor="middle" style="font-size:8.00;" x="518" y="637">text</text>
<text text-anchor="middle" style="font-size:8.00;" x="436" y="651">province</text>
<text text-anchor="middle" style="font-size:8.00;" x="518" y="651">text</text>
<text text-anchor="middle" style="font-size:8.00;" x="434" y="665">country</text>
<text text-anchor="middle" style="font-size:8.00;" x="523" y="665">integer</text>
<text text-anchor="middle" style="font-size:8.00;" x="593" y="665"> REFERENCES country </text>
<text text-anchor="middle" style="font-size:8.00;" x="436" y="679">postcode</text>
<text text-anchor="middle" style="font-size:8.00;" x="518" y="679">text</text>
<text text-anchor="middle" style="font-size:8.00;" x="432" y="693">phone</text>
<text text-anchor="middle" style="font-size:8.00;" x="518" y="693">text</text>
<text text-anchor="middle" style="font-size:8.00;" x="453" y="707">homepage_content</text>
<text text-anchor="middle" style="font-size:8.00;" x="518" y="707">text</text>
<text text-anchor="middle" style="font-size:8.00;" x="435" y="721">emblem</text>
<text text-anchor="middle" style="font-size:8.00;" x="523" y="721">integer</text>
<text text-anchor="middle" style="font-size:8.00;" x="604" y="721"> REFERENCES libraryfilealias </text>
<text text-anchor="middle" style="font-size:8.00;" x="443" y="735">hackergotchi</text>
<text text-anchor="middle" style="font-size:8.00;" x="523" y="735">integer</text>
<text text-anchor="middle" style="font-size:8.00;" x="604" y="735"> REFERENCES libraryfilealias </text>
<text text-anchor="middle" style="font-size:8.00;" x="457" y="749">hide_email_addresses</text>
<text text-anchor="middle" style="font-size:8.00;" x="525" y="749">boolean</text>
<polygon style="fill:none;stroke:black;" points="416,755 416,357 674,357 674,755 416,755"/>
</g>
<g id="edge4" class="edge"><title>bountysubscription&#45;&gt;person</title>
<path style="fill:none;stroke:black;" d="M480,333C481,336 482,340 483,343"/>
<polygon style="fill:black;stroke:black;" points="486,342 486,353 480,344 486,342"/>
</g>
<g id="node9" class="node"><title>fake_bounty_16</title>
<ellipse cx="420" cy="141" rx="27" ry="18" style="fill:none;stroke:red;"/>
<text text-anchor="middle" style="font-size:8.00;" x="420" y="144">bounty</text>
</g>
<g id="edge2" class="edge"><title>bountysubscription&#45;&gt;fake_bounty_16</title>
<path style="fill:none;stroke:black;" d="M459,263C450,234 437,195 429,169"/>
<polygon style="fill:black;stroke:black;" points="426,170 426,159 432,168 426,170"/>
</g>
<g id="node2" class="node"><title>branchsubscription</title>
<polygon style="fill:#c1cdcc;stroke:#c1cdcc;" points="768,839 768,777 918,777 918,839 768,839"/>
<polygon style="fill:white;stroke:white;" points="771,794 771,780 915,780 915,794 771,794"/>
<text text-anchor="middle" style="font-size:8.00;" x="843" y="790">branchsubscription</text>
<polygon style="fill:none;stroke:black;" points="771,794 771,780 915,780 915,794 771,794"/>
<text text-anchor="middle" style="font-size:8.00;" x="777" y="805">id</text>
<text text-anchor="middle" style="font-size:8.00;" x="813" y="805">serial</text>
<text text-anchor="middle" style="font-size:8.00;" x="864" y="805"> PRIMARY KEY </text>
<text text-anchor="middle" style="font-size:8.00;" x="785" y="819">person</text>
<text text-anchor="middle" style="font-size:8.00;" x="816" y="819">integer</text>
<text text-anchor="middle" style="font-size:8.00;" x="874" y="819"> REFERENCES person </text>
<text text-anchor="middle" style="font-size:8.00;" x="785" y="833">branch</text>
<text text-anchor="middle" style="font-size:8.00;" x="816" y="833">integer</text>
<text text-anchor="middle" style="font-size:8.00;" x="874" y="833"> REFERENCES branch </text>
<polygon style="fill:none;stroke:black;" points="768,839 768,777 918,777 918,839 768,839"/>
</g>
<g id="edge6" class="edge"><title>branchsubscription&#45;&gt;person</title>
<path style="fill:none;stroke:black;" d="M802,773C773,749 731,713 690,679"/>
<polygon style="fill:black;stroke:black;" points="687,681 682,672 692,676 687,681"/>
</g>
<g id="node13" class="node"><title>fake_branch_32</title>
<ellipse cx="953" cy="913" rx="27" ry="18" style="fill:none;stroke:red;"/>
<text text-anchor="middle" style="font-size:8.00;" x="953" y="916">branch</text>
</g>
<g id="edge8" class="edge"><title>branchsubscription&#45;&gt;fake_branch_32</title>
<path style="fill:none;stroke:black;" d="M880,843C897,859 916,877 930,891"/>
<polygon style="fill:black;stroke:black;" points="932,888 937,898 927,893 932,888"/>
</g>
<g id="node3" class="node"><title>bugsubscription</title>
<polygon style="fill:#c1cdcc;stroke:#c1cdcc;" points="102,727 102,665 250,665 250,727 102,727"/>
<polygon style="fill:white;stroke:white;" points="105,682 105,668 247,668 247,682 105,682"/>
<text text-anchor="middle" style="font-size:8.00;" x="176" y="678">bugsubscription</text>
<polygon style="fill:none;stroke:black;" points="105,682 105,668 247,668 247,682 105,682"/>
<text text-anchor="middle" style="font-size:8.00;" x="111" y="693">id</text>
<text text-anchor="middle" style="font-size:8.00;" x="145" y="693">serial</text>
<text text-anchor="middle" style="font-size:8.00;" x="196" y="693"> PRIMARY KEY </text>
<text text-anchor="middle" style="font-size:8.00;" x="119" y="707">person</text>
<text text-anchor="middle" style="font-size:8.00;" x="148" y="707">integer</text>
<text text-anchor="middle" style="font-size:8.00;" x="206" y="707"> REFERENCES person </text>
<text text-anchor="middle" style="font-size:8.00;" x="114" y="721">bug</text>
<text text-anchor="middle" style="font-size:8.00;" x="148" y="721">integer</text>
<text text-anchor="middle" style="font-size:8.00;" x="201" y="721"> REFERENCES bug </text>
<polygon style="fill:none;stroke:black;" points="102,727 102,665 250,665 250,727 102,727"/>
</g>
<g id="edge10" class="edge"><title>bugsubscription&#45;&gt;person</title>
<path style="fill:none;stroke:black;" d="M258,665C299,649 350,630 398,612"/>
<polygon style="fill:black;stroke:black;" points="397,608 408,608 400,615 397,608"/>
</g>
<g id="node16" class="node"><title>fake_bug_64</title>
<ellipse cx="33" cy="748" rx="27" ry="18" style="fill:none;stroke:red;"/>
<text text-anchor="middle" style="font-size:8.00;" x="33" y="751">bug</text>
</g>
<g id="edge12" class="edge"><title>bugsubscription&#45;&gt;fake_bug_64</title>
<path style="fill:none;stroke:black;" d="M94,726C85,730 75,733 66,737"/>
<polygon style="fill:black;stroke:black;" points="68,740 57,740 65,734 68,740"/>
</g>
<g id="node4" class="node"><title>message</title>
<polygon style="fill:#c1cdcc;stroke:#c1cdcc;" points="841,388 841,242 1045,242 1045,388 841,388"/>
<polygon style="fill:white;stroke:white;" points="844,259 844,245 1042,245 1042,259 844,259"/>
<text text-anchor="middle" style="font-size:8.00;" x="943" y="255">message</text>
<polygon style="fill:none;stroke:black;" points="844,259 844,245 1042,245 1042,259 844,259"/>
<text text-anchor="middle" style="font-size:8.00;" x="850" y="270">id</text>
<text text-anchor="middle" style="font-size:8.00;" x="904" y="270">serial</text>
<text text-anchor="middle" style="font-size:8.00;" x="966" y="270"> PRIMARY KEY </text>
<text text-anchor="middle" style="font-size:8.00;" x="865" y="284">datecreated</text>
<text text-anchor="middle" style="font-size:8.00;" x="913" y="284">timestamp</text>
<text text-anchor="middle" style="font-size:8.00;" x="858" y="298">subject</text>
<text text-anchor="middle" style="font-size:8.00;" x="902" y="298">text</text>
<text text-anchor="middle" style="font-size:8.00;" x="857" y="312">owner</text>
<text text-anchor="middle" style="font-size:8.00;" x="907" y="312">integer</text>
<text text-anchor="middle" style="font-size:8.00;" x="976" y="312"> REFERENCES person </text>
<text text-anchor="middle" style="font-size:8.00;" x="857" y="326">parent</text>
<text text-anchor="middle" style="font-size:8.00;" x="907" y="326">integer</text>
<text text-anchor="middle" style="font-size:8.00;" x="979" y="326"> REFERENCES message </text>
<text text-anchor="middle" style="font-size:8.00;" x="865" y="340">distribution</text>
<text text-anchor="middle" style="font-size:8.00;" x="907" y="340">integer</text>
<text text-anchor="middle" style="font-size:8.00;" x="983" y="340"> REFERENCES distribution </text>
<text text-anchor="middle" style="font-size:8.00;" x="867" y="354">rfc822msgid</text>
<text text-anchor="middle" style="font-size:8.00;" x="902" y="354">text</text>
<text text-anchor="middle" style="font-size:8.00;" x="851" y="368">fti</text>
<text text-anchor="middle" style="font-size:8.00;" x="909" y="368">tsvector</text>
<text text-anchor="middle" style="font-size:8.00;" x="853" y="382">raw</text>
<text text-anchor="middle" style="font-size:8.00;" x="907" y="382">integer</text>
<text text-anchor="middle" style="font-size:8.00;" x="988" y="382"> REFERENCES libraryfilealias </text>
<polygon style="fill:none;stroke:black;" points="841,388 841,242 1045,242 1045,388 841,388"/>
</g>
<g id="edge16" class="edge"><title>message&#45;&gt;message</title>
<path style="fill:none;stroke:black;" d="M1053,362C1064,353 1071,337 1071,315 1071,298 1067,285 1060,275"/>
<polygon style="fill:black;stroke:black;" points="1058,278 1053,268 1063,273 1058,278"/>
</g>
<g id="edge14" class="edge"><title>message&#45;&gt;person</title>
<path style="fill:none;stroke:black;" d="M833,382C789,408 738,439 691,468"/>
<polygon style="fill:black;stroke:black;" points="692,471 682,473 689,465 692,471"/>
</g>
<g id="node20" class="node"><title>fake_distribution_155</title>
<ellipse cx="1006" cy="197" rx="30" ry="18" style="fill:none;stroke:red;"/>
<text text-anchor="middle" style="font-size:8.00;" x="1006" y="200">distribution</text>
</g>
<g id="edge18" class="edge"><title>message&#45;&gt;fake_distribution_155</title>
<path style="fill:none;stroke:black;" d="M984,238C987,233 989,228 992,224"/>
<polygon style="fill:black;stroke:black;" points="989,222 997,215 995,225 989,222"/>
</g>
<g id="node22" class="node"><title>fake_libraryfilealias_157</title>
<ellipse cx="1147" cy="342" rx="35" ry="18" style="fill:none;stroke:red;"/>
<text text-anchor="middle" style="font-size:8.00;" x="1147" y="345">libraryfilealias</text>
</g>
<g id="edge20" class="edge"><title>message&#45;&gt;fake_libraryfilealias_157</title>
<path style="fill:none;stroke:black;" d="M1053,330C1071,332 1088,334 1103,336"/>
<polygon style="fill:black;stroke:black;" points="1104,333 1113,338 1103,339 1104,333"/>
</g>
<g id="node5" class="node"><title>messagechunk</title>
<polygon style="fill:#c1cdcc;stroke:#c1cdcc;" points="1095,183 1095,79 1291,79 1291,183 1095,183"/>
<polygon style="fill:white;stroke:white;" points="1098,96 1098,82 1288,82 1288,96 1098,96"/>
<text text-anchor="middle" style="font-size:8.00;" x="1193" y="92">messagechunk</text>
<polygon style="fill:none;stroke:black;" points="1098,96 1098,82 1288,82 1288,96 1098,96"/>
<text text-anchor="middle" style="font-size:8.00;" x="1104" y="107">id</text>
<text text-anchor="middle" style="font-size:8.00;" x="1145" y="107">serial</text>
<text text-anchor="middle" style="font-size:8.00;" x="1199" y="107"> PRIMARY KEY </text>
<text text-anchor="middle" style="font-size:8.00;" x="1115" y="121">message</text>
<text text-anchor="middle" style="font-size:8.00;" x="1148" y="121">integer</text>
<text text-anchor="middle" style="font-size:8.00;" x="1228" y="121"> REFERENCES message UNIQUE </text>
<text text-anchor="middle" style="font-size:8.00;" x="1115" y="135">sequence</text>
<text text-anchor="middle" style="font-size:8.00;" x="1148" y="135">integer</text>
<text text-anchor="middle" style="font-size:8.00;" x="1187" y="135"> UNIQUE </text>
<text text-anchor="middle" style="font-size:8.00;" x="1112" y="149">content</text>
<text text-anchor="middle" style="font-size:8.00;" x="1143" y="149">text</text>
<text text-anchor="middle" style="font-size:8.00;" x="1108" y="163">blob</text>
<text text-anchor="middle" style="font-size:8.00;" x="1148" y="163">integer</text>
<text text-anchor="middle" style="font-size:8.00;" x="1221" y="163"> REFERENCES libraryfilealias </text>
<text text-anchor="middle" style="font-size:8.00;" x="1105" y="177">fti</text>
<text text-anchor="middle" style="font-size:8.00;" x="1150" y="177">tsvector</text>
<polygon style="fill:none;stroke:black;" points="1095,183 1095,79 1291,79 1291,183 1095,183"/>
</g>
<g id="edge22" class="edge"><title>messagechunk&#45;&gt;message</title>
<path style="fill:none;stroke:black;" d="M1117,187C1098,201 1077,217 1056,232"/>
<polygon style="fill:black;stroke:black;" points="1058,235 1048,238 1054,229 1058,235"/>
</g>
<g id="node25" class="node"><title>fake_libraryfilealias_160</title>
<ellipse cx="1350" cy="23" rx="35" ry="18" style="fill:none;stroke:red;"/>
<text text-anchor="middle" style="font-size:8.00;" x="1350" y="26">libraryfilealias</text>
</g>
<g id="edge24" class="edge"><title>messagechunk&#45;&gt;fake_libraryfilealias_160</title>
<path style="fill:none;stroke:black;" d="M1275,75C1291,64 1308,53 1321,44"/>
<polygon style="fill:black;stroke:black;" points="1319,41 1329,38 1323,47 1319,41"/>
</g>
<g id="edge26" class="edge"><title>person&#45;&gt;person</title>
<path style="fill:none;stroke:black;" d="M682,614C693,601 700,582 700,556 700,535 695,519 688,506"/>
<polygon style="fill:black;stroke:black;" points="685,508 682,498 691,504 685,508"/>
</g>
<g id="edge30" class="edge"><title>person&#45;&gt;person</title>
<path style="fill:none;stroke:black;" d="M682,694C704,674 718,627 718,556 718,493 707,449 689,426"/>
<polygon style="fill:black;stroke:black;" points="686,428 682,418 691,423 686,428"/>
</g>
<g id="node28" class="node"><title>fake_language_193</title>
<ellipse cx="651" cy="262" rx="27" ry="18" style="fill:none;stroke:red;"/>
<text text-anchor="middle" style="font-size:8.00;" x="651" y="265">language</text>
</g>
<g id="edge28" class="edge"><title>person&#45;&gt;fake_language_193</title>
<path style="fill:none;stroke:black;" d="M618,353C627,328 635,306 641,290"/>
<polygon style="fill:black;stroke:black;" points="638,288 645,280 645,291 638,288"/>
</g>
<g id="node31" class="node"><title>fake_calendar_196</title>
<ellipse cx="725" cy="570" rx="27" ry="18" style="fill:none;stroke:red;"/>
<text text-anchor="middle" style="font-size:8.00;" x="725" y="573">calendar</text>
</g>
<g id="edge32" class="edge"><title>person&#45;&gt;fake_calendar_196</title>
<path style="fill:none;stroke:black;" d="M682,567C684,567 686,567 688,567"/>
<polygon style="fill:black;stroke:black;" points="688,564 698,568 688,570 688,564"/>
</g>
<g id="node33" class="node"><title>fake_country_198</title>
<ellipse cx="504" cy="860" rx="27" ry="18" style="fill:none;stroke:red;"/>
<text text-anchor="middle" style="font-size:8.00;" x="504" y="863">country</text>
</g>
<g id="edge34" class="edge"><title>person&#45;&gt;fake_country_198</title>
<path style="fill:none;stroke:black;" d="M518,759C514,787 510,814 508,832"/>
<polygon style="fill:black;stroke:black;" points="511,833 506,842 505,832 511,833"/>
</g>
<g id="node35" class="node"><title>fake_libraryfilealias_200</title>
<ellipse cx="307" cy="332" rx="35" ry="18" style="fill:none;stroke:red;"/>
<text text-anchor="middle" style="font-size:8.00;" x="307" y="335">libraryfilealias</text>
</g>
<g id="edge36" class="edge"><title>person&#45;&gt;fake_libraryfilealias_200</title>
<path style="fill:none;stroke:black;" d="M408,427C378,399 351,372 331,355"/>
<polygon style="fill:black;stroke:black;" points="329,358 324,348 334,353 329,358"/>
</g>
<g id="node37" class="node"><title>fake_libraryfilealias_202</title>
<ellipse cx="661" cy="851" rx="35" ry="18" style="fill:none;stroke:red;"/>
<text text-anchor="middle" style="font-size:8.00;" x="661" y="854">libraryfilealias</text>
</g>
<g id="edge38" class="edge"><title>person&#45;&gt;fake_libraryfilealias_202</title>
<path style="fill:none;stroke:black;" d="M625,759C635,784 644,807 650,823"/>
<polygon style="fill:black;stroke:black;" points="654,822 654,833 647,825 654,822"/>
</g>
<g id="node7" class="node"><title>specificationsubscription</title>
<polygon style="fill:#c1cdcc;stroke:#c1cdcc;" points="157,518 157,456 377,456 377,518 157,518"/>
<polygon style="fill:white;stroke:white;" points="160,473 160,459 374,459 374,473 160,473"/>
<text text-anchor="middle" style="font-size:8.00;" x="267" y="469">specificationsubscription</text>
<polygon style="fill:none;stroke:black;" points="160,473 160,459 374,459 374,473 160,473"/>
<text text-anchor="middle" style="font-size:8.00;" x="166" y="484">id</text>
<text text-anchor="middle" style="font-size:8.00;" x="220" y="484">serial</text>
<text text-anchor="middle" style="font-size:8.00;" x="271" y="484"> PRIMARY KEY </text>
<text text-anchor="middle" style="font-size:8.00;" x="183" y="498">specification</text>
<text text-anchor="middle" style="font-size:8.00;" x="223" y="498">integer</text>
<text text-anchor="middle" style="font-size:8.00;" x="307" y="498"> UNIQUE REFERENCES specification </text>
<text text-anchor="middle" style="font-size:8.00;" x="174" y="512">person</text>
<text text-anchor="middle" style="font-size:8.00;" x="223" y="512">integer</text>
<text text-anchor="middle" style="font-size:8.00;" x="297" y="512"> REFERENCES person UNIQUE </text>
<polygon style="fill:none;stroke:black;" points="157,518 157,456 377,456 377,518 157,518"/>
</g>
<g id="edge42" class="edge"><title>specificationsubscription&#45;&gt;person</title>
<path style="fill:none;stroke:black;" d="M385,516C390,517 394,518 398,519"/>
<polygon style="fill:black;stroke:black;" points="399,516 408,522 397,522 399,516"/>
</g>
<g id="node39" class="node"><title>fake_specification_350</title>
<ellipse cx="91" cy="427" rx="32" ry="18" style="fill:none;stroke:red;"/>
<text text-anchor="middle" style="font-size:8.00;" x="91" y="430">specification</text>
</g>
<g id="edge40" class="edge"><title>specificationsubscription&#45;&gt;fake_specification_350</title>
<path style="fill:none;stroke:black;" d="M164,452C151,447 139,443 128,440"/>
<polygon style="fill:black;stroke:black;" points="127,443 119,436 130,437 127,443"/>
</g>
<g id="node8" class="node"><title>ticketsubscription</title>
<polygon style="fill:#c1cdcc;stroke:#c1cdcc;" points="263,949 263,887 443,887 443,949 263,949"/>
<polygon style="fill:white;stroke:white;" points="266,904 266,890 440,890 440,904 266,904"/>
<text text-anchor="middle" style="font-size:8.00;" x="353" y="900">ticketsubscription</text>
<polygon style="fill:none;stroke:black;" points="266,904 266,890 440,890 440,904 266,904"/>
<text text-anchor="middle" style="font-size:8.00;" x="272" y="915">id</text>
<text text-anchor="middle" style="font-size:8.00;" x="306" y="915">serial</text>
<text text-anchor="middle" style="font-size:8.00;" x="357" y="915"> PRIMARY KEY </text>
<text text-anchor="middle" style="font-size:8.00;" x="278" y="929">ticket</text>
<text text-anchor="middle" style="font-size:8.00;" x="309" y="929">integer</text>
<text text-anchor="middle" style="font-size:8.00;" x="381" y="929"> REFERENCES ticket UNIQUE </text>
<text text-anchor="middle" style="font-size:8.00;" x="280" y="943">person</text>
<text text-anchor="middle" style="font-size:8.00;" x="309" y="943">integer</text>
<text text-anchor="middle" style="font-size:8.00;" x="383" y="943"> REFERENCES person UNIQUE </text>
<polygon style="fill:none;stroke:black;" points="263,949 263,887 443,887 443,949 263,949"/>
</g>
<g id="edge46" class="edge"><title>ticketsubscription&#45;&gt;person</title>
<path style="fill:none;stroke:black;" d="M372,883C387,855 409,813 432,768"/>
<polygon style="fill:black;stroke:black;" points="429,766 437,759 435,769 429,766"/>
</g>
<g id="node42" class="node"><title>fake_ticket_383</title>
<ellipse cx="283" cy="1071" rx="27" ry="18" style="fill:none;stroke:red;"/>
<text text-anchor="middle" style="font-size:8.00;" x="283" y="1074">ticket</text>
</g>
<g id="edge44" class="edge"><title>ticketsubscription&#45;&gt;fake_ticket_383</title>
<path style="fill:none;stroke:black;" d="M337,953C324,980 306,1019 295,1045"/>
<polygon style="fill:black;stroke:black;" points="298,1046 291,1054 292,1043 298,1046"/>
</g>
</g>
</svg>
