<?xml version="1.0" encoding="UTF-8" standalone="no"?>
<!DOCTYPE svg PUBLIC "-//W3C//DTD SVG 1.0//EN"
 "http://www.w3.org/TR/2001/REC-SVG-20010904/DTD/svg10.dtd">
<!-- Generated by fdp version 2.2.1 (Tue Oct 11 01:38:21 UTC 2005)
     For user: (stub) Stuart Bishop,,,   Title: g    Pages: 1 -->
<svg width="487px" height="535px"
 viewBox = "-1 -1 486 534"
 xmlns="http://www.w3.org/2000/svg">
<g id="graph0" class="graph" transform = "scale(0.713506)"
 style="font-family:Times-Roman;font-size:14.00;">
<title>g</title>
<text text-anchor="middle" style="font-size:22.00;" x="338" y="731">Ticketing</text>
<g id="node1" class="node"><title>ticket</title>
<polygon style="fill:#c1cdcc;stroke:#c1cdcc;" points="180,524 180,266 370,266 370,524 180,524"/>
<polygon style="fill:white;stroke:white;" points="183,281 183,269 367,269 367,281 183,281"/>
<text text-anchor="middle" style="font-size:6.00;" x="275" y="277">ticket</text>
<polygon style="fill:none;stroke:black;" points="183,281 183,269 367,269 367,281 183,281"/>
<text text-anchor="middle" style="font-size:6.00;" x="188" y="290">id</text>
<text text-anchor="middle" style="font-size:6.00;" x="247" y="290">serial</text>
<text text-anchor="middle" style="font-size:6.00;" x="296" y="290"> PRIMARY KEY </text>
<text text-anchor="middle" style="font-size:6.00;" x="194" y="302">owner</text>
<text text-anchor="middle" style="font-size:6.00;" x="249" y="302">integer</text>
<text text-anchor="middle" style="font-size:6.00;" x="303" y="302"> REFERENCES person </text>
<text text-anchor="middle" style="font-size:6.00;" x="191" y="314">title</text>
<text text-anchor="middle" style="font-size:6.00;" x="246" y="314">text</text>
<text text-anchor="middle" style="font-size:6.00;" x="200" y="326">description</text>
<text text-anchor="middle" style="font-size:6.00;" x="246" y="326">text</text>
<text text-anchor="middle" style="font-size:6.00;" x="196" y="338">assignee</text>
<text text-anchor="middle" style="font-size:6.00;" x="249" y="338">integer</text>
<text text-anchor="middle" style="font-size:6.00;" x="303" y="338"> REFERENCES person </text>
<text text-anchor="middle" style="font-size:6.00;" x="197" y="350">answerer</text>
<text text-anchor="middle" style="font-size:6.00;" x="249" y="350">integer</text>
<text text-anchor="middle" style="font-size:6.00;" x="303" y="350"> REFERENCES person </text>
<text text-anchor="middle" style="font-size:6.00;" x="195" y="362">product</text>
<text text-anchor="middle" style="font-size:6.00;" x="249" y="362">integer</text>
<text text-anchor="middle" style="font-size:6.00;" x="304" y="362"> REFERENCES product </text>
<text text-anchor="middle" style="font-size:6.00;" x="200" y="374">distribution</text>
<text text-anchor="middle" style="font-size:6.00;" x="249" y="374">integer</text>
<text text-anchor="middle" style="font-size:6.00;" x="309" y="374"> REFERENCES distribution </text>
<text text-anchor="middle" style="font-size:6.00;" x="210" y="386">sourcepackagename</text>
<text text-anchor="middle" style="font-size:6.00;" x="249" y="386">integer</text>
<text text-anchor="middle" style="font-size:6.00;" x="319" y="386"> REFERENCES sourcepackagename </text>
<text text-anchor="middle" style="font-size:6.00;" x="193" y="398">status</text>
<text text-anchor="middle" style="font-size:6.00;" x="249" y="398">integer</text>
<text text-anchor="middle" style="font-size:6.00;" x="195" y="410">priority</text>
<text text-anchor="middle" style="font-size:6.00;" x="249" y="410">integer</text>
<text text-anchor="middle" style="font-size:6.00;" x="200" y="422">datecreated</text>
<text text-anchor="middle" style="font-size:6.00;" x="254" y="422">timestamp</text>
<text text-anchor="middle" style="font-size:6.00;" x="202" y="434">datelastquery</text>
<text text-anchor="middle" style="font-size:6.00;" x="254" y="434">timestamp</text>
<text text-anchor="middle" style="font-size:6.00;" x="202" y="446">dateaccepted</text>
<text text-anchor="middle" style="font-size:6.00;" x="254" y="446">timestamp</text>
<text text-anchor="middle" style="font-size:6.00;" x="196" y="458">datedue</text>
<text text-anchor="middle" style="font-size:6.00;" x="254" y="458">timestamp</text>
<text text-anchor="middle" style="font-size:6.00;" x="206" y="470">datelastresponse</text>
<text text-anchor="middle" style="font-size:6.00;" x="254" y="470">timestamp</text>
<text text-anchor="middle" style="font-size:6.00;" x="202" y="482">dateanswered</text>
<text text-anchor="middle" style="font-size:6.00;" x="254" y="482">timestamp</text>
<text text-anchor="middle" style="font-size:6.00;" x="199" y="494">dateclosed</text>
<text text-anchor="middle" style="font-size:6.00;" x="254" y="494">timestamp</text>
<text text-anchor="middle" style="font-size:6.00;" x="200" y="506">whiteboard</text>
<text text-anchor="middle" style="font-size:6.00;" x="246" y="506">text</text>
<text text-anchor="middle" style="font-size:6.00;" x="189" y="518">fti</text>
<text text-anchor="middle" style="font-size:6.00;" x="251" y="518">tsvector</text>
<polygon style="fill:none;stroke:black;" points="180,524 180,266 370,266 370,524 180,524"/>
</g>
<g id="node6" class="node"><title>fake_person_332</title>
<ellipse cx="33" cy="317" rx="27" ry="18" style="fill:none;stroke:red;"/>
<text text-anchor="middle" style="font-size:6.00;" x="33" y="319">person</text>
</g>
<g id="edge2" class="edge"><title>ticket&#45;&gt;fake_person_332</title>
<path style="fill:none;stroke:black;" d="M172,362C135,350 95,336 68,328"/>
<polygon style="fill:black;stroke:black;" points="67,331 58,325 69,325 67,331"/>
</g>
<g id="node8" class="node"><title>fake_person_334</title>
<ellipse cx="36" cy="463" rx="27" ry="18" style="fill:none;stroke:red;"/>
<text text-anchor="middle" style="font-size:6.00;" x="36" y="465">person</text>
</g>
<g id="edge4" class="edge"><title>ticket&#45;&gt;fake_person_334</title>
<path style="fill:none;stroke:black;" d="M172,424C136,435 97,445 71,453"/>
<polygon style="fill:black;stroke:black;" points="72,456 61,456 70,450 72,456"/>
</g>
<g id="node10" class="node"><title>fake_person_336</title>
<ellipse cx="490" cy="507" rx="27" ry="18" style="fill:none;stroke:red;"/>
<text text-anchor="middle" style="font-size:6.00;" x="490" y="509">person</text>
</g>
<g id="edge6" class="edge"><title>ticket&#45;&gt;fake_person_336</title>
<path style="fill:none;stroke:black;" d="M378,449C408,464 438,480 460,491"/>
<polygon style="fill:black;stroke:black;" points="462,488 469,496 459,494 462,488"/>
</g>
<g id="node12" class="node"><title>fake_product_338</title>
<ellipse cx="118" cy="591" rx="27" ry="18" style="fill:none;stroke:red;"/>
<text text-anchor="middle" style="font-size:6.00;" x="118" y="593">product</text>
</g>
<g id="edge8" class="edge"><title>ticket&#45;&gt;fake_product_338</title>
<path style="fill:none;stroke:black;" d="M172,524C158,540 147,556 137,567"/>
<polygon style="fill:black;stroke:black;" points="140,569 131,575 134,565 140,569"/>
</g>
<g id="node14" class="node"><title>fake_distribution_340</title>
<ellipse cx="231" cy="617" rx="27" ry="18" style="fill:none;stroke:red;"/>
<text text-anchor="middle" style="font-size:6.00;" x="231" y="619">distribution</text>
</g>
<g id="edge10" class="edge"><title>ticket&#45;&gt;fake_distribution_340</title>
<path style="fill:none;stroke:black;" d="M249,528C244,551 240,573 236,589"/>
<polygon style="fill:black;stroke:black;" points="239,590 234,599 233,589 239,590"/>
</g>
<g id="node16" class="node"><title>fake_sourcepackagename_342</title>
<ellipse cx="463" cy="245" rx="35" ry="18" style="fill:none;stroke:red;"/>
<text text-anchor="middle" style="font-size:6.00;" x="463" y="247">sourcepackagename</text>
</g>
<g id="edge12" class="edge"><title>ticket&#45;&gt;fake_sourcepackagename_342</title>
<path style="fill:none;stroke:black;" d="M378,313C399,296 420,279 436,267"/>
<polygon style="fill:black;stroke:black;" points="434,264 444,260 439,269 434,264"/>
</g>
<g id="node2" class="node"><title>ticketbug</title>
<polygon style="fill:#c1cdcc;stroke:#c1cdcc;" points="124,233 124,179 260,179 260,233 124,233"/>
<polygon style="fill:white;stroke:white;" points="127,194 127,182 257,182 257,194 127,194"/>
<text text-anchor="middle" style="font-size:6.00;" x="192" y="190">ticketbug</text>
<polygon style="fill:none;stroke:black;" points="127,194 127,182 257,182 257,194 127,194"/>
<text text-anchor="middle" style="font-size:6.00;" x="132" y="203">id</text>
<text text-anchor="middle" style="font-size:6.00;" x="157" y="203">serial</text>
<text text-anchor="middle" style="font-size:6.00;" x="197" y="203"> PRIMARY KEY </text>
<text text-anchor="middle" style="font-size:6.00;" x="137" y="215">ticket</text>
<text text-anchor="middle" style="font-size:6.00;" x="159" y="215">integer</text>
<text text-anchor="middle" style="font-size:6.00;" x="215" y="215"> UNIQUE REFERENCES ticket </text>
<text text-anchor="middle" style="font-size:6.00;" x="135" y="227">bug</text>
<text text-anchor="middle" style="font-size:6.00;" x="159" y="227">integer</text>
<text text-anchor="middle" style="font-size:6.00;" x="213" y="227"> REFERENCES bug UNIQUE </text>
<polygon style="fill:none;stroke:black;" points="124,233 124,179 260,179 260,233 124,233"/>
</g>
<g id="edge14" class="edge"><title>ticketbug&#45;&gt;ticket</title>
<path style="fill:none;stroke:black;" d="M206,237C208,242 210,247 213,253"/>
<polygon style="fill:black;stroke:black;" points="216,251 217,262 210,254 216,251"/>
</g>
<g id="node19" class="node"><title>fake_bug_345</title>
<ellipse cx="67" cy="143" rx="27" ry="18" style="fill:none;stroke:red;"/>
<text text-anchor="middle" style="font-size:6.00;" x="67" y="145">bug</text>
</g>
<g id="edge16" class="edge"><title>ticketbug&#45;&gt;fake_bug_345</title>
<path style="fill:none;stroke:black;" d="M130,175C119,169 108,164 98,159"/>
<polygon style="fill:black;stroke:black;" points="96,162 89,154 99,156 96,162"/>
</g>
<g id="node3" class="node"><title>ticketmessage</title>
<polygon style="fill:#c1cdcc;stroke:#c1cdcc;" points="286,702 286,648 436,648 436,702 286,702"/>
<polygon style="fill:white;stroke:white;" points="289,663 289,651 433,651 433,663 289,663"/>
<text text-anchor="middle" style="font-size:6.00;" x="361" y="659">ticketmessage</text>
<polygon style="fill:none;stroke:black;" points="289,663 289,651 433,651 433,663 289,663"/>
<text text-anchor="middle" style="font-size:6.00;" x="294" y="672">id</text>
<text text-anchor="middle" style="font-size:6.00;" x="326" y="672">serial</text>
<text text-anchor="middle" style="font-size:6.00;" x="366" y="672"> PRIMARY KEY </text>
<text text-anchor="middle" style="font-size:6.00;" x="299" y="684">ticket</text>
<text text-anchor="middle" style="font-size:6.00;" x="328" y="684">integer</text>
<text text-anchor="middle" style="font-size:6.00;" x="384" y="684"> UNIQUE REFERENCES ticket </text>
<text text-anchor="middle" style="font-size:6.00;" x="302" y="696">message</text>
<text text-anchor="middle" style="font-size:6.00;" x="328" y="696">integer</text>
<text text-anchor="middle" style="font-size:6.00;" x="387" y="696"> REFERENCES message UNIQUE </text>
<polygon style="fill:none;stroke:black;" points="286,702 286,648 436,648 436,702 286,702"/>
</g>
<g id="edge18" class="edge"><title>ticketmessage&#45;&gt;ticket</title>
<path style="fill:none;stroke:black;" d="M351,644C343,618 331,578 319,538"/>
<polygon style="fill:black;stroke:black;" points="316,539 316,528 322,537 316,539"/>
</g>
<g id="node22" class="node"><title>fake_message_348</title>
<ellipse cx="499" cy="646" rx="27" ry="18" style="fill:none;stroke:red;"/>
<text text-anchor="middle" style="font-size:6.00;" x="499" y="648">message</text>
</g>
<g id="edge20" class="edge"><title>ticketmessage&#45;&gt;fake_message_348</title>
<path style="fill:none;stroke:black;" d="M444,658C450,656 457,655 463,653"/>
<polygon style="fill:black;stroke:black;" points="463,650 473,651 464,656 463,650"/>
</g>
<g id="node4" class="node"><title>ticketreopening</title>
<polygon style="fill:#c1cdcc;stroke:#c1cdcc;" points="321,140 321,38 465,38 465,140 321,140"/>
<polygon style="fill:white;stroke:white;" points="324,53 324,41 462,41 462,53 324,53"/>
<text text-anchor="middle" style="font-size:6.00;" x="393" y="49">ticketreopening</text>
<polygon style="fill:none;stroke:black;" points="324,53 324,41 462,41 462,53 324,53"/>
<text text-anchor="middle" style="font-size:6.00;" x="329" y="62">id</text>
<text text-anchor="middle" style="font-size:6.00;" x="374" y="62">serial</text>
<text text-anchor="middle" style="font-size:6.00;" x="423" y="62"> PRIMARY KEY </text>
<text text-anchor="middle" style="font-size:6.00;" x="334" y="74">ticket</text>
<text text-anchor="middle" style="font-size:6.00;" x="376" y="74">integer</text>
<text text-anchor="middle" style="font-size:6.00;" x="429" y="74"> REFERENCES ticket </text>
<text text-anchor="middle" style="font-size:6.00;" x="341" y="86">datecreated</text>
<text text-anchor="middle" style="font-size:6.00;" x="381" y="86">timestamp</text>
<text text-anchor="middle" style="font-size:6.00;" x="338" y="98">reopener</text>
<text text-anchor="middle" style="font-size:6.00;" x="376" y="98">integer</text>
<text text-anchor="middle" style="font-size:6.00;" x="430" y="98"> REFERENCES person </text>
<text text-anchor="middle" style="font-size:6.00;" x="338" y="110">answerer</text>
<text text-anchor="middle" style="font-size:6.00;" x="376" y="110">integer</text>
<text text-anchor="middle" style="font-size:6.00;" x="430" y="110"> REFERENCES person </text>
<text text-anchor="middle" style="font-size:6.00;" x="343" y="122">dateanswered</text>
<text text-anchor="middle" style="font-size:6.00;" x="381" y="122">timestamp</text>
<text text-anchor="middle" style="font-size:6.00;" x="339" y="134">priorstate</text>
<text text-anchor="middle" style="font-size:6.00;" x="376" y="134">integer</text>
<polygon style="fill:none;stroke:black;" points="321,140 321,38 465,38 465,140 321,140"/>
</g>
<g id="edge22" class="edge"><title>ticketreopening&#45;&gt;ticket</title>
<path style="fill:none;stroke:black;" d="M372,144C360,175 345,214 330,253"/>
<polygon style="fill:black;stroke:black;" points="333,254 326,262 327,251 333,254"/>
</g>
<g id="node25" class="node"><title>fake_person_351</title>
<ellipse cx="542" cy="125" rx="27" ry="18" style="fill:none;stroke:red;"/>
<text text-anchor="middle" style="font-size:6.00;" x="542" y="127">person</text>
</g>
<g id="edge24" class="edge"><title>ticketreopening&#45;&gt;fake_person_351</title>
<path style="fill:none;stroke:black;" d="M473,108C485,111 497,114 507,117"/>
<polygon style="fill:black;stroke:black;" points="508,114 517,119 507,120 508,114"/>
</g>
<g id="node27" class="node"><title>fake_person_353</title>
<ellipse cx="260" cy="27" rx="27" ry="18" style="fill:none;stroke:red;"/>
<text text-anchor="middle" style="font-size:6.00;" x="260" y="29">person</text>
</g>
<g id="edge26" class="edge"><title>ticketreopening&#45;&gt;fake_person_353</title>
<path style="fill:none;stroke:black;" d="M313,52C306,49 298,45 291,42"/>
<polygon style="fill:black;stroke:black;" points="290,45 282,38 293,39 290,45"/>
</g>
<g id="node5" class="node"><title>ticketsubscription</title>
<polygon style="fill:#c1cdcc;stroke:#c1cdcc;" points="508,414 508,360 650,360 650,414 508,414"/>
<polygon style="fill:white;stroke:white;" points="511,375 511,363 647,363 647,375 511,375"/>
<text text-anchor="middle" style="font-size:6.00;" x="579" y="371">ticketsubscription</text>
<polygon style="fill:none;stroke:black;" points="511,375 511,363 647,363 647,375 511,375"/>
<text text-anchor="middle" style="font-size:6.00;" x="516" y="384">id</text>
<text text-anchor="middle" style="font-size:6.00;" x="544" y="384">serial</text>
<text text-anchor="middle" style="font-size:6.00;" x="584" y="384"> PRIMARY KEY </text>
<text text-anchor="middle" style="font-size:6.00;" x="521" y="396">ticket</text>
<text text-anchor="middle" style="font-size:6.00;" x="546" y="396">integer</text>
<text text-anchor="middle" style="font-size:6.00;" x="602" y="396"> REFERENCES ticket UNIQUE </text>
<text text-anchor="middle" style="font-size:6.00;" x="522" y="408">person</text>
<text text-anchor="middle" style="font-size:6.00;" x="546" y="408">integer</text>
<text text-anchor="middle" style="font-size:6.00;" x="603" y="408"> REFERENCES person UNIQUE </text>
<polygon style="fill:none;stroke:black;" points="508,414 508,360 650,360 650,414 508,414"/>
</g>
<g id="edge28" class="edge"><title>ticketsubscription&#45;&gt;ticket</title>
<path style="fill:none;stroke:black;" d="M500,389C466,390 426,391 388,392"/>
<polygon style="fill:black;stroke:black;" points="388,395 378,392 388,388 388,395"/>
</g>
<g id="node30" class="node"><title>fake_person_356</title>
<ellipse cx="644" cy="309" rx="27" ry="18" style="fill:none;stroke:red;"/>
<text text-anchor="middle" style="font-size:6.00;" x="644" y="311">person</text>
</g>
<g id="edge30" class="edge"><title>ticketsubscription&#45;&gt;fake_person_356</title>
<path style="fill:none;stroke:black;" d="M605,356C612,348 618,340 624,333"/>
<polygon style="fill:black;stroke:black;" points="622,330 631,325 627,335 622,330"/>
</g>
</g>
</svg>
