<?xml version="1.0" encoding="UTF-8" standalone="no"?>
<!DOCTYPE svg PUBLIC "-//W3C//DTD SVG 1.0//EN"
 "http://www.w3.org/TR/2001/REC-SVG-20010904/DTD/svg10.dtd">
<!-- Generated by fdp version 2.2.1 (Tue Oct 11 01:38:21 UTC 2005)
     For user: (stub) Stuart Bishop,,,   Title: g    Pages: 1 -->
<svg width="846px" height="876px"
 viewBox = "-1 -1 845 875"
 xmlns="http://www.w3.org/2000/svg">
<g id="graph0" class="graph" style="font-family:Times-Roman;font-size:14.00;">
<title>g</title>
<text text-anchor="middle" style="font-size:22.00;" x="422" y="858">Ticketing</text>
<g id="node1" class="node"><title>ticket</title>
<polygon style="fill:#c1cdcc;stroke:#c1cdcc;" points="179,696 179,396 425,396 425,696 179,696"/>
<polygon style="fill:white;stroke:white;" points="182,413 182,399 422,399 422,413 182,413"/>
<text text-anchor="middle" style="font-size:8.00;" x="302" y="409">ticket</text>
<polygon style="fill:none;stroke:black;" points="182,413 182,399 422,399 422,413 182,413"/>
<text text-anchor="middle" style="font-size:8.00;" x="188" y="424">id</text>
<text text-anchor="middle" style="font-size:8.00;" x="265" y="424">serial</text>
<text text-anchor="middle" style="font-size:8.00;" x="327" y="424"> PRIMARY KEY </text>
<text text-anchor="middle" style="font-size:8.00;" x="195" y="438">owner</text>
<text text-anchor="middle" style="font-size:8.00;" x="268" y="438">integer</text>
<text text-anchor="middle" style="font-size:8.00;" x="337" y="438"> REFERENCES person </text>
<text text-anchor="middle" style="font-size:8.00;" x="191" y="452">title</text>
<text text-anchor="middle" style="font-size:8.00;" x="263" y="452">text</text>
<text text-anchor="middle" style="font-size:8.00;" x="202" y="466">description</text>
<text text-anchor="middle" style="font-size:8.00;" x="263" y="466">text</text>
<text text-anchor="middle" style="font-size:8.00;" x="198" y="480">assignee</text>
<text text-anchor="middle" style="font-size:8.00;" x="268" y="480">integer</text>
<text text-anchor="middle" style="font-size:8.00;" x="337" y="480"> REFERENCES person </text>
<text text-anchor="middle" style="font-size:8.00;" x="199" y="494">answerer</text>
<text text-anchor="middle" style="font-size:8.00;" x="268" y="494">integer</text>
<text text-anchor="middle" style="font-size:8.00;" x="337" y="494"> REFERENCES person </text>
<text text-anchor="middle" style="font-size:8.00;" x="197" y="508">product</text>
<text text-anchor="middle" style="font-size:8.00;" x="268" y="508">integer</text>
<text text-anchor="middle" style="font-size:8.00;" x="338" y="508"> REFERENCES product </text>
<text text-anchor="middle" style="font-size:8.00;" x="203" y="522">distribution</text>
<text text-anchor="middle" style="font-size:8.00;" x="268" y="522">integer</text>
<text text-anchor="middle" style="font-size:8.00;" x="344" y="522"> REFERENCES distribution </text>
<text text-anchor="middle" style="font-size:8.00;" x="217" y="536">sourcepackagename</text>
<text text-anchor="middle" style="font-size:8.00;" x="268" y="536">integer</text>
<text text-anchor="middle" style="font-size:8.00;" x="359" y="536"> REFERENCES sourcepackagename </text>
<text text-anchor="middle" style="font-size:8.00;" x="194" y="550">status</text>
<text text-anchor="middle" style="font-size:8.00;" x="268" y="550">integer</text>
<text text-anchor="middle" style="font-size:8.00;" x="197" y="564">priority</text>
<text text-anchor="middle" style="font-size:8.00;" x="268" y="564">integer</text>
<text text-anchor="middle" style="font-size:8.00;" x="203" y="578">datecreated</text>
<text text-anchor="middle" style="font-size:8.00;" x="274" y="578">timestamp</text>
<text text-anchor="middle" style="font-size:8.00;" x="206" y="592">datelastquery</text>
<text text-anchor="middle" style="font-size:8.00;" x="274" y="592">timestamp</text>
<text text-anchor="middle" style="font-size:8.00;" x="205" y="606">dateaccepted</text>
<text text-anchor="middle" style="font-size:8.00;" x="274" y="606">timestamp</text>
<text text-anchor="middle" style="font-size:8.00;" x="197" y="620">datedue</text>
<text text-anchor="middle" style="font-size:8.00;" x="274" y="620">timestamp</text>
<text text-anchor="middle" style="font-size:8.00;" x="211" y="634">datelastresponse</text>
<text text-anchor="middle" style="font-size:8.00;" x="274" y="634">timestamp</text>
<text text-anchor="middle" style="font-size:8.00;" x="207" y="648">dateanswered</text>
<text text-anchor="middle" style="font-size:8.00;" x="274" y="648">timestamp</text>
<text text-anchor="middle" style="font-size:8.00;" x="202" y="662">dateclosed</text>
<text text-anchor="middle" style="font-size:8.00;" x="274" y="662">timestamp</text>
<text text-anchor="middle" style="font-size:8.00;" x="203" y="676">whiteboard</text>
<text text-anchor="middle" style="font-size:8.00;" x="263" y="676">text</text>
<text text-anchor="middle" style="font-size:8.00;" x="189" y="690">fti</text>
<text text-anchor="middle" style="font-size:8.00;" x="270" y="690">tsvector</text>
<polygon style="fill:none;stroke:black;" points="179,696 179,396 425,396 425,696 179,696"/>
</g>
<g id="node6" class="node"><title>fake_person_358</title>
<ellipse cx="33" cy="510" rx="27" ry="18" style="fill:none;stroke:red;"/>
<text text-anchor="middle" style="font-size:8.00;" x="33" y="513">person</text>
</g>
<g id="edge2" class="edge"><title>ticket&#45;&gt;fake_person_358</title>
<path style="fill:none;stroke:black;" d="M171,528C134,523 96,518 70,514"/>
<polygon style="fill:black;stroke:black;" points="70,517 60,513 70,511 70,517"/>
</g>
<g id="node8" class="node"><title>fake_person_360</title>
<ellipse cx="125" cy="625" rx="27" ry="18" style="fill:none;stroke:red;"/>
<text text-anchor="middle" style="font-size:8.00;" x="125" y="628">person</text>
</g>
<g id="edge4" class="edge"><title>ticket&#45;&gt;fake_person_360</title>
<path style="fill:none;stroke:black;" d="M171,605C166,607 162,609 157,611"/>
<polygon style="fill:black;stroke:black;" points="159,614 148,615 156,608 159,614"/>
</g>
<g id="node10" class="node"><title>fake_person_362</title>
<ellipse cx="307" cy="815" rx="27" ry="18" style="fill:none;stroke:red;"/>
<text text-anchor="middle" style="font-size:8.00;" x="307" y="818">person</text>
</g>
<g id="edge6" class="edge"><title>ticket&#45;&gt;fake_person_362</title>
<path style="fill:none;stroke:black;" d="M305,700C306,733 306,765 307,787"/>
<polygon style="fill:black;stroke:black;" points="311,787 307,797 304,787 311,787"/>
</g>
<g id="node12" class="node"><title>fake_product_364</title>
<ellipse cx="160" cy="777" rx="27" ry="18" style="fill:none;stroke:red;"/>
<text text-anchor="middle" style="font-size:8.00;" x="160" y="780">product</text>
</g>
<g id="edge8" class="edge"><title>ticket&#45;&gt;fake_product_364</title>
<path style="fill:none;stroke:black;" d="M207,700C195,719 184,738 175,751"/>
<polygon style="fill:black;stroke:black;" points="178,753 170,760 172,750 178,753"/>
</g>
<g id="node14" class="node"><title>fake_distribution_366</title>
<ellipse cx="443" cy="778" rx="30" ry="18" style="fill:none;stroke:red;"/>
<text text-anchor="middle" style="font-size:8.00;" x="443" y="781">distribution</text>
</g>
<g id="edge10" class="edge"><title>ticket&#45;&gt;fake_distribution_366</title>
<path style="fill:none;stroke:black;" d="M396,700C408,720 419,739 428,752"/>
<polygon style="fill:black;stroke:black;" points="431,751 433,761 425,754 431,751"/>
</g>
<g id="node16" class="node"><title>fake_sourcepackagename_368</title>
<ellipse cx="346" cy="357" rx="44" ry="18" style="fill:none;stroke:red;"/>
<text text-anchor="middle" style="font-size:8.00;" x="346" y="360">sourcepackagename</text>
</g>
<g id="edge12" class="edge"><title>ticket&#45;&gt;fake_sourcepackagename_368</title>
<path style="fill:none;stroke:black;" d="M338,392C339,390 339,387 340,385"/>
<polygon style="fill:black;stroke:black;" points="337,384 342,375 343,385 337,384"/>
</g>
<g id="node2" class="node"><title>ticketbug</title>
<polygon style="fill:#c1cdcc;stroke:#c1cdcc;" points="44,368 44,306 216,306 216,368 44,368"/>
<polygon style="fill:white;stroke:white;" points="47,323 47,309 213,309 213,323 47,323"/>
<text text-anchor="middle" style="font-size:8.00;" x="130" y="319">ticketbug</text>
<polygon style="fill:none;stroke:black;" points="47,323 47,309 213,309 213,323 47,323"/>
<text text-anchor="middle" style="font-size:8.00;" x="53" y="334">id</text>
<text text-anchor="middle" style="font-size:8.00;" x="83" y="334">serial</text>
<text text-anchor="middle" style="font-size:8.00;" x="134" y="334"> PRIMARY KEY </text>
<text text-anchor="middle" style="font-size:8.00;" x="59" y="348">ticket</text>
<text text-anchor="middle" style="font-size:8.00;" x="86" y="348">integer</text>
<text text-anchor="middle" style="font-size:8.00;" x="158" y="348"> UNIQUE REFERENCES ticket </text>
<text text-anchor="middle" style="font-size:8.00;" x="56" y="362">bug</text>
<text text-anchor="middle" style="font-size:8.00;" x="86" y="362">integer</text>
<text text-anchor="middle" style="font-size:8.00;" x="155" y="362"> REFERENCES bug UNIQUE </text>
<polygon style="fill:none;stroke:black;" points="44,368 44,306 216,306 216,368 44,368"/>
</g>
<g id="edge14" class="edge"><title>ticketbug&#45;&gt;ticket</title>
<path style="fill:none;stroke:black;" d="M159,372C162,376 165,380 169,384"/>
<polygon style="fill:black;stroke:black;" points="172,382 175,392 166,386 172,382"/>
</g>
<g id="node19" class="node"><title>fake_bug_371</title>
<ellipse cx="105" cy="267" rx="27" ry="18" style="fill:none;stroke:red;"/>
<text text-anchor="middle" style="font-size:8.00;" x="105" y="270">bug</text>
</g>
<g id="edge16" class="edge"><title>ticketbug&#45;&gt;fake_bug_371</title>
<path style="fill:none;stroke:black;" d="M118,302C117,299 116,297 115,294"/>
<polygon style="fill:black;stroke:black;" points="112,296 111,285 118,293 112,296"/>
</g>
<g id="node3" class="node"><title>ticketmessage</title>
<polygon style="fill:#c1cdcc;stroke:#c1cdcc;" points="462,656 462,594 654,594 654,656 462,656"/>
<polygon style="fill:white;stroke:white;" points="465,611 465,597 651,597 651,611 465,611"/>
<text text-anchor="middle" style="font-size:8.00;" x="558" y="607">ticketmessage</text>
<polygon style="fill:none;stroke:black;" points="465,611 465,597 651,597 651,611 465,611"/>
<text text-anchor="middle" style="font-size:8.00;" x="471" y="622">id</text>
<text text-anchor="middle" style="font-size:8.00;" x="511" y="622">serial</text>
<text text-anchor="middle" style="font-size:8.00;" x="562" y="622"> PRIMARY KEY </text>
<text text-anchor="middle" style="font-size:8.00;" x="477" y="636">ticket</text>
<text text-anchor="middle" style="font-size:8.00;" x="514" y="636">integer</text>
<text text-anchor="middle" style="font-size:8.00;" x="586" y="636"> UNIQUE REFERENCES ticket </text>
<text text-anchor="middle" style="font-size:8.00;" x="482" y="650">message</text>
<text text-anchor="middle" style="font-size:8.00;" x="514" y="650">integer</text>
<text text-anchor="middle" style="font-size:8.00;" x="591" y="650"> REFERENCES message UNIQUE </text>
<polygon style="fill:none;stroke:black;" points="462,656 462,594 654,594 654,656 462,656"/>
</g>
<g id="edge18" class="edge"><title>ticketmessage&#45;&gt;ticket</title>
<path style="fill:none;stroke:black;" d="M454,593C450,592 447,591 443,590"/>
<polygon style="fill:black;stroke:black;" points="442,593 433,587 444,587 442,593"/>
</g>
<g id="node22" class="node"><title>fake_message_374</title>
<ellipse cx="697" cy="713" rx="27" ry="18" style="fill:none;stroke:red;"/>
<text text-anchor="middle" style="font-size:8.00;" x="697" y="716">message</text>
</g>
<g id="edge20" class="edge"><title>ticketmessage&#45;&gt;fake_message_374</title>
<path style="fill:none;stroke:black;" d="M613,660C632,673 653,685 669,696"/>
<polygon style="fill:black;stroke:black;" points="670,693 677,701 667,699 670,693"/>
</g>
<g id="node4" class="node"><title>ticketreopening</title>
<polygon style="fill:#c1cdcc;stroke:#c1cdcc;" points="353,250 353,132 535,132 535,250 353,250"/>
<polygon style="fill:white;stroke:white;" points="356,149 356,135 532,135 532,149 356,149"/>
<text text-anchor="middle" style="font-size:8.00;" x="444" y="145">ticketreopening</text>
<polygon style="fill:none;stroke:black;" points="356,149 356,135 532,135 532,149 356,149"/>
<text text-anchor="middle" style="font-size:8.00;" x="362" y="160">id</text>
<text text-anchor="middle" style="font-size:8.00;" x="419" y="160">serial</text>
<text text-anchor="middle" style="font-size:8.00;" x="481" y="160"> PRIMARY KEY </text>
<text text-anchor="middle" style="font-size:8.00;" x="368" y="174">ticket</text>
<text text-anchor="middle" style="font-size:8.00;" x="422" y="174">integer</text>
<text text-anchor="middle" style="font-size:8.00;" x="489" y="174"> REFERENCES ticket </text>
<text text-anchor="middle" style="font-size:8.00;" x="377" y="188">datecreated</text>
<text text-anchor="middle" style="font-size:8.00;" x="428" y="188">timestamp</text>
<text text-anchor="middle" style="font-size:8.00;" x="373" y="202">reopener</text>
<text text-anchor="middle" style="font-size:8.00;" x="422" y="202">integer</text>
<text text-anchor="middle" style="font-size:8.00;" x="491" y="202"> REFERENCES person </text>
<text text-anchor="middle" style="font-size:8.00;" x="373" y="216">answerer</text>
<text text-anchor="middle" style="font-size:8.00;" x="422" y="216">integer</text>
<text text-anchor="middle" style="font-size:8.00;" x="491" y="216"> REFERENCES person </text>
<text text-anchor="middle" style="font-size:8.00;" x="381" y="230">dateanswered</text>
<text text-anchor="middle" style="font-size:8.00;" x="428" y="230">timestamp</text>
<text text-anchor="middle" style="font-size:8.00;" x="374" y="244">priorstate</text>
<text text-anchor="middle" style="font-size:8.00;" x="422" y="244">integer</text>
<polygon style="fill:none;stroke:black;" points="353,250 353,132 535,132 535,250 353,250"/>
</g>
<g id="edge22" class="edge"><title>ticketreopening&#45;&gt;ticket</title>
<path style="fill:none;stroke:black;" d="M426,254C417,286 405,324 392,357 389,365 386,374 382,383"/>
<polygon style="fill:black;stroke:black;" points="385,384 378,392 379,381 385,384"/>
</g>
<g id="node25" class="node"><title>fake_person_377</title>
<ellipse cx="600" cy="103" rx="27" ry="18" style="fill:none;stroke:red;"/>
<text text-anchor="middle" style="font-size:8.00;" x="600" y="106">person</text>
</g>
<g id="edge24" class="edge"><title>ticketreopening&#45;&gt;fake_person_377</title>
<path style="fill:none;stroke:black;" d="M543,135C553,129 562,124 570,120"/>
<polygon style="fill:black;stroke:black;" points="569,117 579,115 572,123 569,117"/>
</g>
<g id="node27" class="node"><title>fake_person_379</title>
<ellipse cx="382" cy="23" rx="27" ry="18" style="fill:none;stroke:red;"/>
<text text-anchor="middle" style="font-size:8.00;" x="382" y="26">person</text>
</g>
<g id="edge26" class="edge"><title>ticketreopening&#45;&gt;fake_person_379</title>
<path style="fill:none;stroke:black;" d="M421,128C411,101 400,71 392,51"/>
<polygon style="fill:black;stroke:black;" points="388,52 388,41 395,49 388,52"/>
</g>
<g id="node5" class="node"><title>ticketsubscription</title>
<polygon style="fill:#c1cdcc;stroke:#c1cdcc;" points="558,476 558,414 738,414 738,476 558,476"/>
<polygon style="fill:white;stroke:white;" points="561,431 561,417 735,417 735,431 561,431"/>
<text text-anchor="middle" style="font-size:8.00;" x="648" y="427">ticketsubscription</text>
<polygon style="fill:none;stroke:black;" points="561,431 561,417 735,417 735,431 561,431"/>
<text text-anchor="middle" style="font-size:8.00;" x="567" y="442">id</text>
<text text-anchor="middle" style="font-size:8.00;" x="601" y="442">serial</text>
<text text-anchor="middle" style="font-size:8.00;" x="652" y="442"> PRIMARY KEY </text>
<text text-anchor="middle" style="font-size:8.00;" x="573" y="456">ticket</text>
<text text-anchor="middle" style="font-size:8.00;" x="604" y="456">integer</text>
<text text-anchor="middle" style="font-size:8.00;" x="676" y="456"> REFERENCES ticket UNIQUE </text>
<text text-anchor="middle" style="font-size:8.00;" x="575" y="470">person</text>
<text text-anchor="middle" style="font-size:8.00;" x="604" y="470">integer</text>
<text text-anchor="middle" style="font-size:8.00;" x="678" y="470"> REFERENCES person UNIQUE </text>
<polygon style="fill:none;stroke:black;" points="558,476 558,414 738,414 738,476 558,476"/>
</g>
<g id="edge28" class="edge"><title>ticketsubscription&#45;&gt;ticket</title>
<path style="fill:none;stroke:black;" d="M550,474C517,484 479,495 443,505"/>
<polygon style="fill:black;stroke:black;" points="444,508 433,508 442,502 444,508"/>
</g>
<g id="node30" class="node"><title>fake_person_382</title>
<ellipse cx="811" cy="423" rx="27" ry="18" style="fill:none;stroke:red;"/>
<text text-anchor="middle" style="font-size:8.00;" x="811" y="426">person</text>
</g>
<g id="edge30" class="edge"><title>ticketsubscription&#45;&gt;fake_person_382</title>
<path style="fill:none;stroke:black;" d="M746,432C756,431 766,429 775,428"/>
<polygon style="fill:black;stroke:black;" points="775,425 785,427 775,431 775,425"/>
</g>
</g>
</svg>
