<?xml version="1.0" encoding="UTF-8" standalone="no"?>
<!DOCTYPE svg PUBLIC "-//W3C//DTD SVG 1.0//EN"
 "http://www.w3.org/TR/2001/REC-SVG-20010904/DTD/svg10.dtd">
<!-- Generated by fdp version 2.2.1 (Thu Apr 14 05:40:09 UTC 2005)
     For user: (stub) Stuart Bishop,,,   Title: g    Pages: 1 -->
<svg width="326px" height="535px"
 viewBox = "-1 -1 325 534"
 xmlns="http://www.w3.org/2000/svg">
<g id="graph0" class="graph" transform = "scale(0.437291)"
 style="font-family:Times-Roman;font-size:14.00;">
<title>g</title>
<text text-anchor="middle" style="font-size:22.00;" x="364" y="1202">Voting</text>
<g id="node1" class="node"><title>person</title>
<polygon style="fill:#c1cdcc;stroke:#c1cdcc;" points="284,972 284,606 486,606 486,972 284,972"/>
<polygon style="fill:white;stroke:white;" points="287,621 287,609 483,609 483,621 287,621"/>
<text text-anchor="middle" style="font-size:6.00;" x="385" y="617">person</text>
<polygon style="fill:none;stroke:black;" points="287,621 287,609 483,609 483,621 287,621"/>
<text text-anchor="middle" style="font-size:6.00;" x="292" y="630">id</text>
<text text-anchor="middle" style="font-size:6.00;" x="367" y="630">serial</text>
<text text-anchor="middle" style="font-size:6.00;" x="416" y="630"> PRIMARY KEY </text>
<text text-anchor="middle" style="font-size:6.00;" x="305" y="642">displayname</text>
<text text-anchor="middle" style="font-size:6.00;" x="366" y="642">text</text>
<text text-anchor="middle" style="font-size:6.00;" x="303" y="654">givenname</text>
<text text-anchor="middle" style="font-size:6.00;" x="366" y="654">text</text>
<text text-anchor="middle" style="font-size:6.00;" x="304" y="666">familyname</text>
<text text-anchor="middle" style="font-size:6.00;" x="366" y="666">text</text>
<text text-anchor="middle" style="font-size:6.00;" x="301" y="678">password</text>
<text text-anchor="middle" style="font-size:6.00;" x="366" y="678">text</text>
<text text-anchor="middle" style="font-size:6.00;" x="303" y="690">teamowner</text>
<text text-anchor="middle" style="font-size:6.00;" x="369" y="690">integer</text>
<text text-anchor="middle" style="font-size:6.00;" x="423" y="690"> REFERENCES person </text>
<text text-anchor="middle" style="font-size:6.00;" x="310" y="702">teamdescription</text>
<text text-anchor="middle" style="font-size:6.00;" x="366" y="702">text</text>
<text text-anchor="middle" style="font-size:6.00;" x="297" y="714">name</text>
<text text-anchor="middle" style="font-size:6.00;" x="366" y="714">text</text>
<text text-anchor="middle" style="font-size:6.00;" x="301" y="726">language</text>
<text text-anchor="middle" style="font-size:6.00;" x="369" y="726">integer</text>
<text text-anchor="middle" style="font-size:6.00;" x="426" y="726"> REFERENCES language </text>
<text text-anchor="middle" style="font-size:6.00;" x="293" y="738">fti</text>
<text text-anchor="middle" style="font-size:6.00;" x="371" y="738">tsvector</text>
<text text-anchor="middle" style="font-size:6.00;" x="321" y="750">defaultmembershipperiod</text>
<text text-anchor="middle" style="font-size:6.00;" x="369" y="750">integer</text>
<text text-anchor="middle" style="font-size:6.00;" x="316" y="762">defaultrenewalperiod</text>
<text text-anchor="middle" style="font-size:6.00;" x="369" y="762">integer</text>
<text text-anchor="middle" style="font-size:6.00;" x="312" y="774">subscriptionpolicy</text>
<text text-anchor="middle" style="font-size:6.00;" x="369" y="774">integer</text>
<text text-anchor="middle" style="font-size:6.00;" x="299" y="786">merged</text>
<text text-anchor="middle" style="font-size:6.00;" x="369" y="786">integer</text>
<text text-anchor="middle" style="font-size:6.00;" x="423" y="786"> REFERENCES person </text>
<text text-anchor="middle" style="font-size:6.00;" x="304" y="798">datecreated</text>
<text text-anchor="middle" style="font-size:6.00;" x="374" y="798">timestamp</text>
<text text-anchor="middle" style="font-size:6.00;" x="300" y="810">calendar</text>
<text text-anchor="middle" style="font-size:6.00;" x="369" y="810">integer</text>
<text text-anchor="middle" style="font-size:6.00;" x="437" y="810"> REFERENCES calendar UNIQUE </text>
<text text-anchor="middle" style="font-size:6.00;" x="301" y="822">timezone</text>
<text text-anchor="middle" style="font-size:6.00;" x="366" y="822">text</text>
<text text-anchor="middle" style="font-size:6.00;" x="298" y="834">karma</text>
<text text-anchor="middle" style="font-size:6.00;" x="369" y="834">integer</text>
<text text-anchor="middle" style="font-size:6.00;" x="305" y="846">addressline1</text>
<text text-anchor="middle" style="font-size:6.00;" x="366" y="846">text</text>
<text text-anchor="middle" style="font-size:6.00;" x="305" y="858">addressline2</text>
<text text-anchor="middle" style="font-size:6.00;" x="366" y="858">text</text>
<text text-anchor="middle" style="font-size:6.00;" x="305" y="870">organization</text>
<text text-anchor="middle" style="font-size:6.00;" x="366" y="870">text</text>
<text text-anchor="middle" style="font-size:6.00;" x="295" y="882">city</text>
<text text-anchor="middle" style="font-size:6.00;" x="366" y="882">text</text>
<text text-anchor="middle" style="font-size:6.00;" x="301" y="894">province</text>
<text text-anchor="middle" style="font-size:6.00;" x="366" y="894">text</text>
<text text-anchor="middle" style="font-size:6.00;" x="300" y="906">country</text>
<text text-anchor="middle" style="font-size:6.00;" x="369" y="906">integer</text>
<text text-anchor="middle" style="font-size:6.00;" x="425" y="906"> REFERENCES country </text>
<text text-anchor="middle" style="font-size:6.00;" x="301" y="918">postcode</text>
<text text-anchor="middle" style="font-size:6.00;" x="366" y="918">text</text>
<text text-anchor="middle" style="font-size:6.00;" x="298" y="930">phone</text>
<text text-anchor="middle" style="font-size:6.00;" x="366" y="930">text</text>
<text text-anchor="middle" style="font-size:6.00;" x="313" y="942">homepage_content</text>
<text text-anchor="middle" style="font-size:6.00;" x="366" y="942">text</text>
<text text-anchor="middle" style="font-size:6.00;" x="300" y="954">emblem</text>
<text text-anchor="middle" style="font-size:6.00;" x="369" y="954">integer</text>
<text text-anchor="middle" style="font-size:6.00;" x="433" y="954"> REFERENCES libraryfilealias </text>
<text text-anchor="middle" style="font-size:6.00;" x="306" y="966">hackergotchi</text>
<text text-anchor="middle" style="font-size:6.00;" x="369" y="966">integer</text>
<text text-anchor="middle" style="font-size:6.00;" x="433" y="966"> REFERENCES libraryfilealias </text>
<polygon style="fill:none;stroke:black;" points="284,972 284,606 486,606 486,972 284,972"/>
</g>
<g id="edge2" class="edge"><title>person&#45;&gt;person</title>
<path style="fill:none;stroke:black;" d="M494,846C505,834 512,816 512,789 512,767 508,752 500,740"/>
<polygon style="fill:black;stroke:black;" points="497,742 494,732 503,738 497,742"/>
</g>
<g id="edge6" class="edge"><title>person&#45;&gt;person</title>
<path style="fill:none;stroke:black;" d="M494,922C515,906 530,862 530,789 530,725 518,683 501,663"/>
<polygon style="fill:black;stroke:black;" points="499,666 494,656 504,661 499,666"/>
</g>
<g id="node7" class="node"><title>fake_language_168</title>
<ellipse cx="33" cy="774" rx="27" ry="18" style="fill:none;stroke:red;"/>
<text text-anchor="middle" style="font-size:6.00;" x="33" y="776">language</text>
</g>
<g id="edge4" class="edge"><title>person&#45;&gt;fake_language_168</title>
<path style="fill:none;stroke:black;" d="M276,784C205,781 119,778 70,775"/>
<polygon style="fill:black;stroke:black;" points="70,778 60,775 70,771 70,778"/>
</g>
<g id="node10" class="node"><title>fake_calendar_171</title>
<ellipse cx="138" cy="1049" rx="27" ry="18" style="fill:none;stroke:red;"/>
<text text-anchor="middle" style="font-size:6.00;" x="138" y="1051">calendar</text>
</g>
<g id="edge8" class="edge"><title>person&#45;&gt;fake_calendar_171</title>
<path style="fill:none;stroke:black;" d="M276,904C232,950 186,998 160,1026"/>
<polygon style="fill:black;stroke:black;" points="162,1029 153,1034 157,1024 162,1029"/>
</g>
<g id="node12" class="node"><title>fake_country_173</title>
<ellipse cx="573" cy="822" rx="27" ry="18" style="fill:none;stroke:red;"/>
<text text-anchor="middle" style="font-size:6.00;" x="573" y="824">country</text>
</g>
<g id="edge10" class="edge"><title>person&#45;&gt;fake_country_173</title>
<path style="fill:none;stroke:black;" d="M494,808C509,810 524,813 537,815"/>
<polygon style="fill:black;stroke:black;" points="538,812 547,817 537,818 538,812"/>
</g>
<g id="node14" class="node"><title>fake_libraryfilealias_175</title>
<ellipse cx="694" cy="1013" rx="29" ry="18" style="fill:none;stroke:red;"/>
<text text-anchor="middle" style="font-size:6.00;" x="694" y="1015">libraryfilealias</text>
</g>
<g id="edge12" class="edge"><title>person&#45;&gt;fake_libraryfilealias_175</title>
<path style="fill:none;stroke:black;" d="M494,868C556,914 628,966 667,993"/>
<polygon style="fill:black;stroke:black;" points="669,990 675,999 665,996 669,990"/>
</g>
<g id="node16" class="node"><title>fake_libraryfilealias_177</title>
<ellipse cx="407" cy="1159" rx="29" ry="18" style="fill:none;stroke:red;"/>
<text text-anchor="middle" style="font-size:6.00;" x="407" y="1161">libraryfilealias</text>
</g>
<g id="edge14" class="edge"><title>person&#45;&gt;fake_libraryfilealias_177</title>
<path style="fill:none;stroke:black;" d="M396,976C400,1036 403,1097 405,1131"/>
<polygon style="fill:black;stroke:black;" points="408,1131 406,1141 402,1131 408,1131"/>
</g>
<g id="node2" class="node"><title>poll</title>
<polygon style="fill:#c1cdcc;stroke:#c1cdcc;" points="208,432 208,294 372,294 372,432 208,432"/>
<polygon style="fill:white;stroke:white;" points="211,309 211,297 369,297 369,309 211,309"/>
<text text-anchor="middle" style="font-size:6.00;" x="290" y="305">poll</text>
<polygon style="fill:none;stroke:black;" points="211,309 211,297 369,297 369,309 211,309"/>
<text text-anchor="middle" style="font-size:6.00;" x="216" y="318">id</text>
<text text-anchor="middle" style="font-size:6.00;" x="257" y="318">serial</text>
<text text-anchor="middle" style="font-size:6.00;" x="306" y="318"> PRIMARY KEY </text>
<text text-anchor="middle" style="font-size:6.00;" x="220" y="330">team</text>
<text text-anchor="middle" style="font-size:6.00;" x="259" y="330">integer</text>
<text text-anchor="middle" style="font-size:6.00;" x="325" y="330"> REFERENCES person UNIQUE </text>
<text text-anchor="middle" style="font-size:6.00;" x="221" y="342">name</text>
<text text-anchor="middle" style="font-size:6.00;" x="256" y="342">text</text>
<text text-anchor="middle" style="font-size:6.00;" x="297" y="342"> UNIQUE </text>
<text text-anchor="middle" style="font-size:6.00;" x="219" y="354">title</text>
<text text-anchor="middle" style="font-size:6.00;" x="256" y="354">text</text>
<text text-anchor="middle" style="font-size:6.00;" x="226" y="366">dateopens</text>
<text text-anchor="middle" style="font-size:6.00;" x="264" y="366">timestamp</text>
<text text-anchor="middle" style="font-size:6.00;" x="227" y="378">datecloses</text>
<text text-anchor="middle" style="font-size:6.00;" x="264" y="378">timestamp</text>
<text text-anchor="middle" style="font-size:6.00;" x="228" y="390">proposition</text>
<text text-anchor="middle" style="font-size:6.00;" x="256" y="390">text</text>
<text text-anchor="middle" style="font-size:6.00;" x="219" y="402">type</text>
<text text-anchor="middle" style="font-size:6.00;" x="259" y="402">integer</text>
<text text-anchor="middle" style="font-size:6.00;" x="227" y="414">allowspoilt</text>
<text text-anchor="middle" style="font-size:6.00;" x="261" y="414">boolean</text>
<text text-anchor="middle" style="font-size:6.00;" x="223" y="426">secrecy</text>
<text text-anchor="middle" style="font-size:6.00;" x="259" y="426">integer</text>
<polygon style="fill:none;stroke:black;" points="208,432 208,294 372,294 372,432 208,432"/>
</g>
<g id="edge16" class="edge"><title>poll&#45;&gt;person</title>
<path style="fill:none;stroke:black;" d="M306,436C315,479 328,536 341,592"/>
<polygon style="fill:black;stroke:black;" points="344,592 343,602 338,593 344,592"/>
</g>
<g id="node3" class="node"><title>polloption</title>
<polygon style="fill:#c1cdcc;stroke:#c1cdcc;" points="259,99 259,21 455,21 455,99 259,99"/>
<polygon style="fill:white;stroke:white;" points="262,36 262,24 452,24 452,36 262,36"/>
<text text-anchor="middle" style="font-size:6.00;" x="357" y="32">polloption</text>
<polygon style="fill:none;stroke:black;" points="262,36 262,24 452,24 452,36 262,36"/>
<text text-anchor="middle" style="font-size:6.00;" x="267" y="45">id</text>
<text text-anchor="middle" style="font-size:6.00;" x="304" y="45">serial</text>
<text text-anchor="middle" style="font-size:6.00;" x="359" y="45"> PRIMARY KEY UNIQUE </text>
<text text-anchor="middle" style="font-size:6.00;" x="270" y="57">poll</text>
<text text-anchor="middle" style="font-size:6.00;" x="306" y="57">integer</text>
<text text-anchor="middle" style="font-size:6.00;" x="387" y="57"> REFERENCES poll UNIQUE UNIQUE UNIQUE </text>
<text text-anchor="middle" style="font-size:6.00;" x="272" y="69">name</text>
<text text-anchor="middle" style="font-size:6.00;" x="303" y="69">text</text>
<text text-anchor="middle" style="font-size:6.00;" x="338" y="69"> UNIQUE </text>
<text text-anchor="middle" style="font-size:6.00;" x="277" y="81">shortname</text>
<text text-anchor="middle" style="font-size:6.00;" x="303" y="81">text</text>
<text text-anchor="middle" style="font-size:6.00;" x="338" y="81"> UNIQUE </text>
<text text-anchor="middle" style="font-size:6.00;" x="272" y="93">active</text>
<text text-anchor="middle" style="font-size:6.00;" x="308" y="93">boolean</text>
<polygon style="fill:none;stroke:black;" points="259,99 259,21 455,21 455,99 259,99"/>
</g>
<g id="edge18" class="edge"><title>polloption&#45;&gt;poll</title>
<path style="fill:none;stroke:black;" d="M347,103C338,149 321,222 308,280"/>
<polygon style="fill:black;stroke:black;" points="311,281 306,290 305,280 311,281"/>
</g>
<g id="node4" class="node"><title>vote</title>
<polygon style="fill:#c1cdcc;stroke:#c1cdcc;" points="405,371 405,281 591,281 591,371 405,371"/>
<polygon style="fill:white;stroke:white;" points="408,296 408,284 588,284 588,296 408,296"/>
<text text-anchor="middle" style="font-size:6.00;" x="498" y="292">vote</text>
<polygon style="fill:none;stroke:black;" points="408,296 408,284 588,284 588,296 408,296"/>
<text text-anchor="middle" style="font-size:6.00;" x="413" y="305">id</text>
<text text-anchor="middle" style="font-size:6.00;" x="450" y="305">serial</text>
<text text-anchor="middle" style="font-size:6.00;" x="490" y="305"> PRIMARY KEY </text>
<text text-anchor="middle" style="font-size:6.00;" x="419" y="317">person</text>
<text text-anchor="middle" style="font-size:6.00;" x="452" y="317">integer</text>
<text text-anchor="middle" style="font-size:6.00;" x="497" y="317"> REFERENCES person </text>
<text text-anchor="middle" style="font-size:6.00;" x="416" y="329">poll</text>
<text text-anchor="middle" style="font-size:6.00;" x="452" y="329">integer</text>
<text text-anchor="middle" style="font-size:6.00;" x="527" y="329"> REFERENCES poll REFERENCES polloption </text>
<text text-anchor="middle" style="font-size:6.00;" x="424" y="341">preference</text>
<text text-anchor="middle" style="font-size:6.00;" x="452" y="341">integer</text>
<text text-anchor="middle" style="font-size:6.00;" x="419" y="353">option</text>
<text text-anchor="middle" style="font-size:6.00;" x="452" y="353">integer</text>
<text text-anchor="middle" style="font-size:6.00;" x="502" y="353"> REFERENCES polloption </text>
<text text-anchor="middle" style="font-size:6.00;" x="418" y="365">token</text>
<text text-anchor="middle" style="font-size:6.00;" x="449" y="365">text</text>
<polygon style="fill:none;stroke:black;" points="405,371 405,281 591,281 591,371 405,371"/>
</g>
<g id="edge20" class="edge"><title>vote&#45;&gt;person</title>
<path style="fill:none;stroke:black;" d="M486,375C474,427 453,512 433,592"/>
<polygon style="fill:black;stroke:black;" points="436,593 431,602 430,592 436,593"/>
</g>
<g id="edge22" class="edge"><title>vote&#45;&gt;poll</title>
<path style="fill:none;stroke:black;" d="M397,344C395,344 392,345 390,345"/>
<polygon style="fill:black;stroke:black;" points="390,348 380,347 389,342 390,348"/>
</g>
<g id="edge24" class="edge"><title>vote&#45;&gt;polloption</title>
<path style="fill:none;stroke:black;" d="M472,277C447,230 410,160 385,112"/>
<polygon style="fill:black;stroke:black;" points="382,113 380,103 388,110 382,113"/>
</g>
<g id="node5" class="node"><title>votecast</title>
<polygon style="fill:#c1cdcc;stroke:#c1cdcc;" points="508,487 508,433 650,433 650,487 508,487"/>
<polygon style="fill:white;stroke:white;" points="511,448 511,436 647,436 647,448 511,448"/>
<text text-anchor="middle" style="font-size:6.00;" x="579" y="444">votecast</text>
<polygon style="fill:none;stroke:black;" points="511,448 511,436 647,436 647,448 511,448"/>
<text text-anchor="middle" style="font-size:6.00;" x="516" y="457">id</text>
<text text-anchor="middle" style="font-size:6.00;" x="544" y="457">serial</text>
<text text-anchor="middle" style="font-size:6.00;" x="584" y="457"> PRIMARY KEY </text>
<text text-anchor="middle" style="font-size:6.00;" x="522" y="469">person</text>
<text text-anchor="middle" style="font-size:6.00;" x="546" y="469">integer</text>
<text text-anchor="middle" style="font-size:6.00;" x="603" y="469"> REFERENCES person UNIQUE </text>
<text text-anchor="middle" style="font-size:6.00;" x="519" y="481">poll</text>
<text text-anchor="middle" style="font-size:6.00;" x="546" y="481">integer</text>
<text text-anchor="middle" style="font-size:6.00;" x="600" y="481"> UNIQUE REFERENCES poll </text>
<polygon style="fill:none;stroke:black;" points="508,487 508,433 650,433 650,487 508,487"/>
</g>
<g id="edge26" class="edge"><title>votecast&#45;&gt;person</title>
<path style="fill:none;stroke:black;" d="M561,491C546,516 523,554 499,595"/>
<polygon style="fill:black;stroke:black;" points="502,597 494,604 496,594 502,597"/>
</g>
<g id="edge28" class="edge"><title>votecast&#45;&gt;poll</title>
<path style="fill:none;stroke:black;" d="M500,433C466,422 425,408 389,396"/>
<polygon style="fill:black;stroke:black;" points="388,399 380,393 391,393 388,399"/>
</g>
</g>
</svg>
