<?xml version="1.0" encoding="UTF-8" standalone="no"?>
<!DOCTYPE svg PUBLIC "-//W3C//DTD SVG 1.0//EN"
 "http://www.w3.org/TR/2001/REC-SVG-20010904/DTD/svg10.dtd">
<!-- Generated by fdp version 2.2.1 (Tue Oct 11 01:38:21 UTC 2005)
     For user: (stub) Stuart Bishop,,,   Title: g    Pages: 1 -->
<svg width="997px" height="735px"
 viewBox = "-1 -1 996 734"
 xmlns="http://www.w3.org/2000/svg">
<g id="graph0" class="graph" style="font-family:Times-Roman;font-size:14.00;">
<title>g</title>
<text text-anchor="middle" style="font-size:22.00;" x="497" y="717">Voting</text>
<g id="node1" class="node"><title>person</title>
<polygon style="fill:#c1cdcc;stroke:#c1cdcc;" points="580,530 580,132 838,132 838,530 580,530"/>
<polygon style="fill:white;stroke:white;" points="583,149 583,135 835,135 835,149 583,149"/>
<text text-anchor="middle" style="font-size:8.00;" x="709" y="145">person</text>
<polygon style="fill:none;stroke:black;" points="583,149 583,135 835,135 835,149 583,149"/>
<text text-anchor="middle" style="font-size:8.00;" x="589" y="160">id</text>
<text text-anchor="middle" style="font-size:8.00;" x="684" y="160">serial</text>
<text text-anchor="middle" style="font-size:8.00;" x="746" y="160"> PRIMARY KEY </text>
<text text-anchor="middle" style="font-size:8.00;" x="606" y="174">displayname</text>
<text text-anchor="middle" style="font-size:8.00;" x="682" y="174">text</text>
<text text-anchor="middle" style="font-size:8.00;" x="601" y="188">password</text>
<text text-anchor="middle" style="font-size:8.00;" x="682" y="188">text</text>
<text text-anchor="middle" style="font-size:8.00;" x="604" y="202">teamowner</text>
<text text-anchor="middle" style="font-size:8.00;" x="687" y="202">integer</text>
<text text-anchor="middle" style="font-size:8.00;" x="756" y="202"> REFERENCES person </text>
<text text-anchor="middle" style="font-size:8.00;" x="612" y="216">teamdescription</text>
<text text-anchor="middle" style="font-size:8.00;" x="682" y="216">text</text>
<text text-anchor="middle" style="font-size:8.00;" x="595" y="230">name</text>
<text text-anchor="middle" style="font-size:8.00;" x="682" y="230">text</text>
<text text-anchor="middle" style="font-size:8.00;" x="601" y="244">language</text>
<text text-anchor="middle" style="font-size:8.00;" x="687" y="244">integer</text>
<text text-anchor="middle" style="font-size:8.00;" x="760" y="244"> REFERENCES language </text>
<text text-anchor="middle" style="font-size:8.00;" x="590" y="258">fti</text>
<text text-anchor="middle" style="font-size:8.00;" x="689" y="258">tsvector</text>
<text text-anchor="middle" style="font-size:8.00;" x="627" y="272">defaultmembershipperiod</text>
<text text-anchor="middle" style="font-size:8.00;" x="687" y="272">integer</text>
<text text-anchor="middle" style="font-size:8.00;" x="620" y="286">defaultrenewalperiod</text>
<text text-anchor="middle" style="font-size:8.00;" x="687" y="286">integer</text>
<text text-anchor="middle" style="font-size:8.00;" x="615" y="300">subscriptionpolicy</text>
<text text-anchor="middle" style="font-size:8.00;" x="687" y="300">integer</text>
<text text-anchor="middle" style="font-size:8.00;" x="598" y="314">merged</text>
<text text-anchor="middle" style="font-size:8.00;" x="687" y="314">integer</text>
<text text-anchor="middle" style="font-size:8.00;" x="756" y="314"> REFERENCES person </text>
<text text-anchor="middle" style="font-size:8.00;" x="604" y="328">datecreated</text>
<text text-anchor="middle" style="font-size:8.00;" x="693" y="328">timestamp</text>
<text text-anchor="middle" style="font-size:8.00;" x="599" y="342">calendar</text>
<text text-anchor="middle" style="font-size:8.00;" x="687" y="342">integer</text>
<text text-anchor="middle" style="font-size:8.00;" x="775" y="342"> REFERENCES calendar UNIQUE </text>
<text text-anchor="middle" style="font-size:8.00;" x="601" y="356">timezone</text>
<text text-anchor="middle" style="font-size:8.00;" x="682" y="356">text</text>
<text text-anchor="middle" style="font-size:8.00;" x="606" y="370">addressline1</text>
<text text-anchor="middle" style="font-size:8.00;" x="682" y="370">text</text>
<text text-anchor="middle" style="font-size:8.00;" x="606" y="384">addressline2</text>
<text text-anchor="middle" style="font-size:8.00;" x="682" y="384">text</text>
<text text-anchor="middle" style="font-size:8.00;" x="606" y="398">organization</text>
<text text-anchor="middle" style="font-size:8.00;" x="682" y="398">text</text>
<text text-anchor="middle" style="font-size:8.00;" x="592" y="412">city</text>
<text text-anchor="middle" style="font-size:8.00;" x="682" y="412">text</text>
<text text-anchor="middle" style="font-size:8.00;" x="600" y="426">province</text>
<text text-anchor="middle" style="font-size:8.00;" x="682" y="426">text</text>
<text text-anchor="middle" style="font-size:8.00;" x="598" y="440">country</text>
<text text-anchor="middle" style="font-size:8.00;" x="687" y="440">integer</text>
<text text-anchor="middle" style="font-size:8.00;" x="757" y="440"> REFERENCES country </text>
<text text-anchor="middle" style="font-size:8.00;" x="600" y="454">postcode</text>
<text text-anchor="middle" style="font-size:8.00;" x="682" y="454">text</text>
<text text-anchor="middle" style="font-size:8.00;" x="596" y="468">phone</text>
<text text-anchor="middle" style="font-size:8.00;" x="682" y="468">text</text>
<text text-anchor="middle" style="font-size:8.00;" x="617" y="482">homepage_content</text>
<text text-anchor="middle" style="font-size:8.00;" x="682" y="482">text</text>
<text text-anchor="middle" style="font-size:8.00;" x="599" y="496">emblem</text>
<text text-anchor="middle" style="font-size:8.00;" x="687" y="496">integer</text>
<text text-anchor="middle" style="font-size:8.00;" x="768" y="496"> REFERENCES libraryfilealias </text>
<text text-anchor="middle" style="font-size:8.00;" x="607" y="510">hackergotchi</text>
<text text-anchor="middle" style="font-size:8.00;" x="687" y="510">integer</text>
<text text-anchor="middle" style="font-size:8.00;" x="768" y="510"> REFERENCES libraryfilealias </text>
<text text-anchor="middle" style="font-size:8.00;" x="621" y="524">hide_email_addresses</text>
<text text-anchor="middle" style="font-size:8.00;" x="689" y="524">boolean</text>
<polygon style="fill:none;stroke:black;" points="580,530 580,132 838,132 838,530 580,530"/>
</g>
<g id="edge2" class="edge"><title>person&#45;&gt;person</title>
<path style="fill:none;stroke:black;" d="M846,389C857,376 864,357 864,331 864,310 859,294 852,281"/>
<polygon style="fill:black;stroke:black;" points="849,283 846,273 855,279 849,283"/>
</g>
<g id="edge6" class="edge"><title>person&#45;&gt;person</title>
<path style="fill:none;stroke:black;" d="M846,469C868,449 882,402 882,331 882,268 871,224 853,201"/>
<polygon style="fill:black;stroke:black;" points="850,203 846,193 855,198 850,203"/>
</g>
<g id="node7" class="node"><title>fake_language_187</title>
<ellipse cx="962" cy="510" rx="27" ry="18" style="fill:none;stroke:red;"/>
<text text-anchor="middle" style="font-size:8.00;" x="962" y="513">language</text>
</g>
<g id="edge4" class="edge"><title>person&#45;&gt;fake_language_187</title>
<path style="fill:none;stroke:black;" d="M846,428C880,452 913,475 935,491"/>
<polygon style="fill:black;stroke:black;" points="937,488 943,497 933,494 937,488"/>
</g>
<g id="node10" class="node"><title>fake_calendar_190</title>
<ellipse cx="889" cy="287" rx="27" ry="18" style="fill:none;stroke:red;"/>
<text text-anchor="middle" style="font-size:8.00;" x="889" y="290">calendar</text>
</g>
<g id="edge8" class="edge"><title>person&#45;&gt;fake_calendar_190</title>
<path style="fill:none;stroke:black;" d="M846,297C848,296 851,296 853,295"/>
<polygon style="fill:black;stroke:black;" points="853,292 863,293 854,298 853,292"/>
</g>
<g id="node12" class="node"><title>fake_country_192</title>
<ellipse cx="525" cy="180" rx="27" ry="18" style="fill:none;stroke:red;"/>
<text text-anchor="middle" style="font-size:8.00;" x="525" y="183">country</text>
</g>
<g id="edge10" class="edge"><title>person&#45;&gt;fake_country_192</title>
<path style="fill:none;stroke:black;" d="M572,218C564,212 557,206 551,201"/>
<polygon style="fill:black;stroke:black;" points="548,203 543,194 553,198 548,203"/>
</g>
<g id="node14" class="node"><title>fake_libraryfilealias_194</title>
<ellipse cx="877" cy="64" rx="35" ry="18" style="fill:none;stroke:red;"/>
<text text-anchor="middle" style="font-size:8.00;" x="877" y="67">libraryfilealias</text>
</g>
<g id="edge12" class="edge"><title>person&#45;&gt;fake_libraryfilealias_194</title>
<path style="fill:none;stroke:black;" d="M837,128C846,113 854,100 861,90"/>
<polygon style="fill:black;stroke:black;" points="858,88 866,81 864,91 858,88"/>
</g>
<g id="node16" class="node"><title>fake_libraryfilealias_196</title>
<ellipse cx="638" cy="23" rx="35" ry="18" style="fill:none;stroke:red;"/>
<text text-anchor="middle" style="font-size:8.00;" x="638" y="26">libraryfilealias</text>
</g>
<g id="edge14" class="edge"><title>person&#45;&gt;fake_libraryfilealias_196</title>
<path style="fill:none;stroke:black;" d="M662,128C655,98 649,70 644,51"/>
<polygon style="fill:black;stroke:black;" points="641,51 642,41 647,50 641,51"/>
</g>
<g id="node2" class="node"><title>poll</title>
<polygon style="fill:#c1cdcc;stroke:#c1cdcc;" points="306,688 306,528 512,528 512,688 306,688"/>
<polygon style="fill:white;stroke:white;" points="309,545 309,531 509,531 509,545 309,545"/>
<text text-anchor="middle" style="font-size:8.00;" x="409" y="541">poll</text>
<polygon style="fill:none;stroke:black;" points="309,545 309,531 509,531 509,545 309,545"/>
<text text-anchor="middle" style="font-size:8.00;" x="315" y="556">id</text>
<text text-anchor="middle" style="font-size:8.00;" x="364" y="556">serial</text>
<text text-anchor="middle" style="font-size:8.00;" x="426" y="556"> PRIMARY KEY </text>
<text text-anchor="middle" style="font-size:8.00;" x="320" y="570">team</text>
<text text-anchor="middle" style="font-size:8.00;" x="367" y="570">integer</text>
<text text-anchor="middle" style="font-size:8.00;" x="452" y="570"> REFERENCES person UNIQUE </text>
<text text-anchor="middle" style="font-size:8.00;" x="321" y="584">name</text>
<text text-anchor="middle" style="font-size:8.00;" x="362" y="584">text</text>
<text text-anchor="middle" style="font-size:8.00;" x="414" y="584"> UNIQUE </text>
<text text-anchor="middle" style="font-size:8.00;" x="318" y="598">title</text>
<text text-anchor="middle" style="font-size:8.00;" x="362" y="598">text</text>
<text text-anchor="middle" style="font-size:8.00;" x="328" y="612">dateopens</text>
<text text-anchor="middle" style="font-size:8.00;" x="373" y="612">timestamp</text>
<text text-anchor="middle" style="font-size:8.00;" x="328" y="626">datecloses</text>
<text text-anchor="middle" style="font-size:8.00;" x="373" y="626">timestamp</text>
<text text-anchor="middle" style="font-size:8.00;" x="330" y="640">proposition</text>
<text text-anchor="middle" style="font-size:8.00;" x="362" y="640">text</text>
<text text-anchor="middle" style="font-size:8.00;" x="319" y="654">type</text>
<text text-anchor="middle" style="font-size:8.00;" x="367" y="654">integer</text>
<text text-anchor="middle" style="font-size:8.00;" x="329" y="668">allowspoilt</text>
<text text-anchor="middle" style="font-size:8.00;" x="369" y="668">boolean</text>
<text text-anchor="middle" style="font-size:8.00;" x="324" y="682">secrecy</text>
<text text-anchor="middle" style="font-size:8.00;" x="367" y="682">integer</text>
<polygon style="fill:none;stroke:black;" points="306,688 306,528 512,528 512,688 306,688"/>
</g>
<g id="edge16" class="edge"><title>poll&#45;&gt;person</title>
<path style="fill:none;stroke:black;" d="M520,539C533,530 546,520 557,510 559,508 562,506 564,504"/>
<polygon style="fill:black;stroke:black;" points="562,501 572,497 567,506 562,501"/>
</g>
<g id="node3" class="node"><title>polloption</title>
<polygon style="fill:#c1cdcc;stroke:#c1cdcc;" points="14,574 14,484 250,484 250,574 14,574"/>
<polygon style="fill:white;stroke:white;" points="17,501 17,487 247,487 247,501 17,501"/>
<text text-anchor="middle" style="font-size:8.00;" x="132" y="497">polloption</text>
<polygon style="fill:none;stroke:black;" points="17,501 17,487 247,487 247,501 17,501"/>
<text text-anchor="middle" style="font-size:8.00;" x="23" y="512">id</text>
<text text-anchor="middle" style="font-size:8.00;" x="54" y="512">serial</text>
<text text-anchor="middle" style="font-size:8.00;" x="125" y="512"> PRIMARY KEY UNIQUE </text>
<text text-anchor="middle" style="font-size:8.00;" x="26" y="526">poll</text>
<text text-anchor="middle" style="font-size:8.00;" x="57" y="526">integer</text>
<text text-anchor="middle" style="font-size:8.00;" x="162" y="526"> REFERENCES poll UNIQUE UNIQUE UNIQUE </text>
<text text-anchor="middle" style="font-size:8.00;" x="29" y="540">name</text>
<text text-anchor="middle" style="font-size:8.00;" x="52" y="540">text</text>
<text text-anchor="middle" style="font-size:8.00;" x="96" y="540"> UNIQUE </text>
<text text-anchor="middle" style="font-size:8.00;" x="26" y="554">title</text>
<text text-anchor="middle" style="font-size:8.00;" x="52" y="554">text</text>
<text text-anchor="middle" style="font-size:8.00;" x="96" y="554"> UNIQUE </text>
<text text-anchor="middle" style="font-size:8.00;" x="29" y="568">active</text>
<text text-anchor="middle" style="font-size:8.00;" x="59" y="568">boolean</text>
<polygon style="fill:none;stroke:black;" points="14,574 14,484 250,484 250,574 14,574"/>
</g>
<g id="edge18" class="edge"><title>polloption&#45;&gt;poll</title>
<path style="fill:none;stroke:black;" d="M258,565C268,568 278,571 288,574"/>
<polygon style="fill:black;stroke:black;" points="289,571 298,576 288,577 289,571"/>
</g>
<g id="node4" class="node"><title>vote</title>
<polygon style="fill:#c1cdcc;stroke:#c1cdcc;" points="303,503 303,399 543,399 543,503 303,503"/>
<polygon style="fill:white;stroke:white;" points="306,416 306,402 540,402 540,416 306,416"/>
<text text-anchor="middle" style="font-size:8.00;" x="423" y="412">vote</text>
<polygon style="fill:none;stroke:black;" points="306,416 306,402 540,402 540,416 306,416"/>
<text text-anchor="middle" style="font-size:8.00;" x="312" y="427">id</text>
<text text-anchor="middle" style="font-size:8.00;" x="360" y="427">serial</text>
<text text-anchor="middle" style="font-size:8.00;" x="411" y="427"> PRIMARY KEY </text>
<text text-anchor="middle" style="font-size:8.00;" x="320" y="441">person</text>
<text text-anchor="middle" style="font-size:8.00;" x="363" y="441">integer</text>
<text text-anchor="middle" style="font-size:8.00;" x="421" y="441"> REFERENCES person </text>
<text text-anchor="middle" style="font-size:8.00;" x="315" y="455">poll</text>
<text text-anchor="middle" style="font-size:8.00;" x="363" y="455">integer</text>
<text text-anchor="middle" style="font-size:8.00;" x="460" y="455"> REFERENCES poll REFERENCES polloption </text>
<text text-anchor="middle" style="font-size:8.00;" x="326" y="469">preference</text>
<text text-anchor="middle" style="font-size:8.00;" x="363" y="469">integer</text>
<text text-anchor="middle" style="font-size:8.00;" x="319" y="483">option</text>
<text text-anchor="middle" style="font-size:8.00;" x="363" y="483">integer</text>
<text text-anchor="middle" style="font-size:8.00;" x="426" y="483"> REFERENCES polloption </text>
<text text-anchor="middle" style="font-size:8.00;" x="318" y="497">token</text>
<text text-anchor="middle" style="font-size:8.00;" x="358" y="497">text</text>
<polygon style="fill:none;stroke:black;" points="303,503 303,399 543,399 543,503 303,503"/>
</g>
<g id="edge20" class="edge"><title>vote&#45;&gt;person</title>
<path style="fill:none;stroke:black;" d="M551,397C555,395 559,394 562,392"/>
<polygon style="fill:black;stroke:black;" points="561,388 572,388 564,395 561,388"/>
</g>
<g id="edge22" class="edge"><title>vote&#45;&gt;poll</title>
<path style="fill:none;stroke:black;" d="M418,507C418,509 418,512 418,514"/>
<polygon style="fill:black;stroke:black;" points="421,515 416,524 415,514 421,515"/>
</g>
<g id="edge24" class="edge"><title>vote&#45;&gt;polloption</title>
<path style="fill:none;stroke:black;" d="M295,485C286,487 277,490 268,492"/>
<polygon style="fill:black;stroke:black;" points="269,495 258,495 267,489 269,495"/>
</g>
<g id="node5" class="node"><title>votecast</title>
<polygon style="fill:#c1cdcc;stroke:#c1cdcc;" points="580,619 580,557 760,557 760,619 580,619"/>
<polygon style="fill:white;stroke:white;" points="583,574 583,560 757,560 757,574 583,574"/>
<text text-anchor="middle" style="font-size:8.00;" x="670" y="570">votecast</text>
<polygon style="fill:none;stroke:black;" points="583,574 583,560 757,560 757,574 583,574"/>
<text text-anchor="middle" style="font-size:8.00;" x="589" y="585">id</text>
<text text-anchor="middle" style="font-size:8.00;" x="623" y="585">serial</text>
<text text-anchor="middle" style="font-size:8.00;" x="674" y="585"> PRIMARY KEY </text>
<text text-anchor="middle" style="font-size:8.00;" x="597" y="599">person</text>
<text text-anchor="middle" style="font-size:8.00;" x="626" y="599">integer</text>
<text text-anchor="middle" style="font-size:8.00;" x="700" y="599"> REFERENCES person UNIQUE </text>
<text text-anchor="middle" style="font-size:8.00;" x="592" y="613">poll</text>
<text text-anchor="middle" style="font-size:8.00;" x="626" y="613">integer</text>
<text text-anchor="middle" style="font-size:8.00;" x="695" y="613"> UNIQUE REFERENCES poll </text>
<polygon style="fill:none;stroke:black;" points="580,619 580,557 760,557 760,619 580,619"/>
</g>
<g id="edge26" class="edge"><title>votecast&#45;&gt;person</title>
<path style="fill:none;stroke:black;" d="M675,553C675,550 676,547 676,544"/>
<polygon style="fill:black;stroke:black;" points="673,543 678,534 679,544 673,543"/>
</g>
<g id="edge28" class="edge"><title>votecast&#45;&gt;poll</title>
<path style="fill:none;stroke:black;" d="M572,596C558,597 544,598 530,599"/>
<polygon style="fill:black;stroke:black;" points="530,602 520,600 530,596 530,602"/>
</g>
</g>
</svg>
