<?xml version="1.0" encoding="UTF-8" standalone="no"?>
<!DOCTYPE svg PUBLIC "-//W3C//DTD SVG 1.0//EN"
 "http://www.w3.org/TR/2001/REC-SVG-20010904/DTD/svg10.dtd">
<!-- Generated by fdp version 2.2.1 (Tue Oct 11 01:38:21 UTC 2005)
     For user: (stub) Stuart Bishop,,,   Title: g    Pages: 1 -->
<svg width="351px" height="535px"
 viewBox = "-1 -1 350 534"
 xmlns="http://www.w3.org/2000/svg">
<g id="graph0" class="graph" transform = "scale(0.447391)"
 style="font-family:Times-Roman;font-size:14.00;">
<title>g</title>
<text text-anchor="middle" style="font-size:22.00;" x="384" y="1175">Voting</text>
<g id="node1" class="node"><title>person</title>
<polygon style="fill:#c1cdcc;stroke:#c1cdcc;" points="282,964 282,598 484,598 484,964 282,964"/>
<polygon style="fill:white;stroke:white;" points="285,613 285,601 481,601 481,613 285,613"/>
<text text-anchor="middle" style="font-size:6.00;" x="383" y="609">person</text>
<polygon style="fill:none;stroke:black;" points="285,613 285,601 481,601 481,613 285,613"/>
<text text-anchor="middle" style="font-size:6.00;" x="290" y="622">id</text>
<text text-anchor="middle" style="font-size:6.00;" x="365" y="622">serial</text>
<text text-anchor="middle" style="font-size:6.00;" x="414" y="622"> PRIMARY KEY </text>
<text text-anchor="middle" style="font-size:6.00;" x="303" y="634">displayname</text>
<text text-anchor="middle" style="font-size:6.00;" x="364" y="634">text</text>
<text text-anchor="middle" style="font-size:6.00;" x="301" y="646">givenname</text>
<text text-anchor="middle" style="font-size:6.00;" x="364" y="646">text</text>
<text text-anchor="middle" style="font-size:6.00;" x="302" y="658">familyname</text>
<text text-anchor="middle" style="font-size:6.00;" x="364" y="658">text</text>
<text text-anchor="middle" style="font-size:6.00;" x="299" y="670">password</text>
<text text-anchor="middle" style="font-size:6.00;" x="364" y="670">text</text>
<text text-anchor="middle" style="font-size:6.00;" x="301" y="682">teamowner</text>
<text text-anchor="middle" style="font-size:6.00;" x="367" y="682">integer</text>
<text text-anchor="middle" style="font-size:6.00;" x="421" y="682"> REFERENCES person </text>
<text text-anchor="middle" style="font-size:6.00;" x="308" y="694">teamdescription</text>
<text text-anchor="middle" style="font-size:6.00;" x="364" y="694">text</text>
<text text-anchor="middle" style="font-size:6.00;" x="295" y="706">name</text>
<text text-anchor="middle" style="font-size:6.00;" x="364" y="706">text</text>
<text text-anchor="middle" style="font-size:6.00;" x="299" y="718">language</text>
<text text-anchor="middle" style="font-size:6.00;" x="367" y="718">integer</text>
<text text-anchor="middle" style="font-size:6.00;" x="424" y="718"> REFERENCES language </text>
<text text-anchor="middle" style="font-size:6.00;" x="291" y="730">fti</text>
<text text-anchor="middle" style="font-size:6.00;" x="369" y="730">tsvector</text>
<text text-anchor="middle" style="font-size:6.00;" x="319" y="742">defaultmembershipperiod</text>
<text text-anchor="middle" style="font-size:6.00;" x="367" y="742">integer</text>
<text text-anchor="middle" style="font-size:6.00;" x="314" y="754">defaultrenewalperiod</text>
<text text-anchor="middle" style="font-size:6.00;" x="367" y="754">integer</text>
<text text-anchor="middle" style="font-size:6.00;" x="310" y="766">subscriptionpolicy</text>
<text text-anchor="middle" style="font-size:6.00;" x="367" y="766">integer</text>
<text text-anchor="middle" style="font-size:6.00;" x="297" y="778">merged</text>
<text text-anchor="middle" style="font-size:6.00;" x="367" y="778">integer</text>
<text text-anchor="middle" style="font-size:6.00;" x="421" y="778"> REFERENCES person </text>
<text text-anchor="middle" style="font-size:6.00;" x="302" y="790">datecreated</text>
<text text-anchor="middle" style="font-size:6.00;" x="372" y="790">timestamp</text>
<text text-anchor="middle" style="font-size:6.00;" x="298" y="802">calendar</text>
<text text-anchor="middle" style="font-size:6.00;" x="367" y="802">integer</text>
<text text-anchor="middle" style="font-size:6.00;" x="435" y="802"> REFERENCES calendar UNIQUE </text>
<text text-anchor="middle" style="font-size:6.00;" x="299" y="814">timezone</text>
<text text-anchor="middle" style="font-size:6.00;" x="364" y="814">text</text>
<text text-anchor="middle" style="font-size:6.00;" x="296" y="826">karma</text>
<text text-anchor="middle" style="font-size:6.00;" x="367" y="826">integer</text>
<text text-anchor="middle" style="font-size:6.00;" x="303" y="838">addressline1</text>
<text text-anchor="middle" style="font-size:6.00;" x="364" y="838">text</text>
<text text-anchor="middle" style="font-size:6.00;" x="303" y="850">addressline2</text>
<text text-anchor="middle" style="font-size:6.00;" x="364" y="850">text</text>
<text text-anchor="middle" style="font-size:6.00;" x="303" y="862">organization</text>
<text text-anchor="middle" style="font-size:6.00;" x="364" y="862">text</text>
<text text-anchor="middle" style="font-size:6.00;" x="293" y="874">city</text>
<text text-anchor="middle" style="font-size:6.00;" x="364" y="874">text</text>
<text text-anchor="middle" style="font-size:6.00;" x="299" y="886">province</text>
<text text-anchor="middle" style="font-size:6.00;" x="364" y="886">text</text>
<text text-anchor="middle" style="font-size:6.00;" x="298" y="898">country</text>
<text text-anchor="middle" style="font-size:6.00;" x="367" y="898">integer</text>
<text text-anchor="middle" style="font-size:6.00;" x="423" y="898"> REFERENCES country </text>
<text text-anchor="middle" style="font-size:6.00;" x="299" y="910">postcode</text>
<text text-anchor="middle" style="font-size:6.00;" x="364" y="910">text</text>
<text text-anchor="middle" style="font-size:6.00;" x="296" y="922">phone</text>
<text text-anchor="middle" style="font-size:6.00;" x="364" y="922">text</text>
<text text-anchor="middle" style="font-size:6.00;" x="311" y="934">homepage_content</text>
<text text-anchor="middle" style="font-size:6.00;" x="364" y="934">text</text>
<text text-anchor="middle" style="font-size:6.00;" x="298" y="946">emblem</text>
<text text-anchor="middle" style="font-size:6.00;" x="367" y="946">integer</text>
<text text-anchor="middle" style="font-size:6.00;" x="431" y="946"> REFERENCES libraryfilealias </text>
<text text-anchor="middle" style="font-size:6.00;" x="304" y="958">hackergotchi</text>
<text text-anchor="middle" style="font-size:6.00;" x="367" y="958">integer</text>
<text text-anchor="middle" style="font-size:6.00;" x="431" y="958"> REFERENCES libraryfilealias </text>
<polygon style="fill:none;stroke:black;" points="282,964 282,598 484,598 484,964 282,964"/>
</g>
<g id="edge2" class="edge"><title>person&#45;&gt;person</title>
<path style="fill:none;stroke:black;" d="M492,838C503,826 510,808 510,781 510,759 506,744 498,732"/>
<polygon style="fill:black;stroke:black;" points="495,734 492,724 501,730 495,734"/>
</g>
<g id="edge6" class="edge"><title>person&#45;&gt;person</title>
<path style="fill:none;stroke:black;" d="M492,914C513,898 528,854 528,781 528,717 516,675 499,655"/>
<polygon style="fill:black;stroke:black;" points="497,658 492,648 502,653 497,658"/>
</g>
<g id="node7" class="node"><title>fake_language_173</title>
<ellipse cx="33" cy="738" rx="27" ry="18" style="fill:none;stroke:red;"/>
<text text-anchor="middle" style="font-size:6.00;" x="33" y="740">language</text>
</g>
<g id="edge4" class="edge"><title>person&#45;&gt;fake_language_173</title>
<path style="fill:none;stroke:black;" d="M274,768C204,760 118,749 70,742"/>
<polygon style="fill:black;stroke:black;" points="70,745 60,741 70,739 70,745"/>
</g>
<g id="node10" class="node"><title>fake_calendar_176</title>
<ellipse cx="111" cy="1003" rx="27" ry="18" style="fill:none;stroke:red;"/>
<text text-anchor="middle" style="font-size:6.00;" x="111" y="1005">calendar</text>
</g>
<g id="edge8" class="edge"><title>person&#45;&gt;fake_calendar_176</title>
<path style="fill:none;stroke:black;" d="M274,870C224,911 168,957 137,983"/>
<polygon style="fill:black;stroke:black;" points="139,986 129,989 135,980 139,986"/>
</g>
<g id="node12" class="node"><title>fake_country_178</title>
<ellipse cx="736" cy="817" rx="27" ry="18" style="fill:none;stroke:red;"/>
<text text-anchor="middle" style="font-size:6.00;" x="736" y="819">country</text>
</g>
<g id="edge10" class="edge"><title>person&#45;&gt;fake_country_178</title>
<path style="fill:none;stroke:black;" d="M492,792C563,799 651,809 699,813"/>
<polygon style="fill:black;stroke:black;" points="699,810 709,814 699,816 699,810"/>
</g>
<g id="node14" class="node"><title>fake_libraryfilealias_180</title>
<ellipse cx="604" cy="1059" rx="29" ry="18" style="fill:none;stroke:red;"/>
<text text-anchor="middle" style="font-size:6.00;" x="604" y="1061">libraryfilealias</text>
</g>
<g id="edge12" class="edge"><title>person&#45;&gt;fake_libraryfilealias_180</title>
<path style="fill:none;stroke:black;" d="M492,918C528,962 564,1008 585,1035"/>
<polygon style="fill:black;stroke:black;" points="588,1033 591,1043 582,1037 588,1033"/>
</g>
<g id="node16" class="node"><title>fake_libraryfilealias_182</title>
<ellipse cx="345" cy="1132" rx="29" ry="18" style="fill:none;stroke:red;"/>
<text text-anchor="middle" style="font-size:6.00;" x="345" y="1134">libraryfilealias</text>
</g>
<g id="edge14" class="edge"><title>person&#45;&gt;fake_libraryfilealias_182</title>
<path style="fill:none;stroke:black;" d="M363,968C358,1022 351,1073 348,1104"/>
<polygon style="fill:black;stroke:black;" points="351,1104 347,1114 345,1104 351,1104"/>
</g>
<g id="node2" class="node"><title>poll</title>
<polygon style="fill:#c1cdcc;stroke:#c1cdcc;" points="192,424 192,286 356,286 356,424 192,424"/>
<polygon style="fill:white;stroke:white;" points="195,301 195,289 353,289 353,301 195,301"/>
<text text-anchor="middle" style="font-size:6.00;" x="274" y="297">poll</text>
<polygon style="fill:none;stroke:black;" points="195,301 195,289 353,289 353,301 195,301"/>
<text text-anchor="middle" style="font-size:6.00;" x="200" y="310">id</text>
<text text-anchor="middle" style="font-size:6.00;" x="241" y="310">serial</text>
<text text-anchor="middle" style="font-size:6.00;" x="290" y="310"> PRIMARY KEY </text>
<text text-anchor="middle" style="font-size:6.00;" x="204" y="322">team</text>
<text text-anchor="middle" style="font-size:6.00;" x="243" y="322">integer</text>
<text text-anchor="middle" style="font-size:6.00;" x="309" y="322"> REFERENCES person UNIQUE </text>
<text text-anchor="middle" style="font-size:6.00;" x="205" y="334">name</text>
<text text-anchor="middle" style="font-size:6.00;" x="240" y="334">text</text>
<text text-anchor="middle" style="font-size:6.00;" x="281" y="334"> UNIQUE </text>
<text text-anchor="middle" style="font-size:6.00;" x="203" y="346">title</text>
<text text-anchor="middle" style="font-size:6.00;" x="240" y="346">text</text>
<text text-anchor="middle" style="font-size:6.00;" x="210" y="358">dateopens</text>
<text text-anchor="middle" style="font-size:6.00;" x="248" y="358">timestamp</text>
<text text-anchor="middle" style="font-size:6.00;" x="211" y="370">datecloses</text>
<text text-anchor="middle" style="font-size:6.00;" x="248" y="370">timestamp</text>
<text text-anchor="middle" style="font-size:6.00;" x="212" y="382">proposition</text>
<text text-anchor="middle" style="font-size:6.00;" x="240" y="382">text</text>
<text text-anchor="middle" style="font-size:6.00;" x="203" y="394">type</text>
<text text-anchor="middle" style="font-size:6.00;" x="243" y="394">integer</text>
<text text-anchor="middle" style="font-size:6.00;" x="211" y="406">allowspoilt</text>
<text text-anchor="middle" style="font-size:6.00;" x="245" y="406">boolean</text>
<text text-anchor="middle" style="font-size:6.00;" x="207" y="418">secrecy</text>
<text text-anchor="middle" style="font-size:6.00;" x="243" y="418">integer</text>
<polygon style="fill:none;stroke:black;" points="192,424 192,286 356,286 356,424 192,424"/>
</g>
<g id="edge16" class="edge"><title>poll&#45;&gt;person</title>
<path style="fill:none;stroke:black;" d="M293,428C304,471 318,528 333,584"/>
<polygon style="fill:black;stroke:black;" points="336,584 335,594 330,585 336,584"/>
</g>
<g id="node3" class="node"><title>polloption</title>
<polygon style="fill:#c1cdcc;stroke:#c1cdcc;" points="248,99 248,21 434,21 434,99 248,99"/>
<polygon style="fill:white;stroke:white;" points="251,36 251,24 431,24 431,36 251,36"/>
<text text-anchor="middle" style="font-size:6.00;" x="341" y="32">polloption</text>
<polygon style="fill:none;stroke:black;" points="251,36 251,24 431,24 431,36 251,36"/>
<text text-anchor="middle" style="font-size:6.00;" x="256" y="45">id</text>
<text text-anchor="middle" style="font-size:6.00;" x="283" y="45">serial</text>
<text text-anchor="middle" style="font-size:6.00;" x="338" y="45"> PRIMARY KEY UNIQUE </text>
<text text-anchor="middle" style="font-size:6.00;" x="259" y="57">poll</text>
<text text-anchor="middle" style="font-size:6.00;" x="285" y="57">integer</text>
<text text-anchor="middle" style="font-size:6.00;" x="366" y="57"> REFERENCES poll UNIQUE UNIQUE UNIQUE </text>
<text text-anchor="middle" style="font-size:6.00;" x="261" y="69">name</text>
<text text-anchor="middle" style="font-size:6.00;" x="282" y="69">text</text>
<text text-anchor="middle" style="font-size:6.00;" x="317" y="69"> UNIQUE </text>
<text text-anchor="middle" style="font-size:6.00;" x="259" y="81">title</text>
<text text-anchor="middle" style="font-size:6.00;" x="282" y="81">text</text>
<text text-anchor="middle" style="font-size:6.00;" x="317" y="81"> UNIQUE </text>
<text text-anchor="middle" style="font-size:6.00;" x="261" y="93">active</text>
<text text-anchor="middle" style="font-size:6.00;" x="287" y="93">boolean</text>
<polygon style="fill:none;stroke:black;" points="248,99 248,21 434,21 434,99 248,99"/>
</g>
<g id="edge18" class="edge"><title>polloption&#45;&gt;poll</title>
<path style="fill:none;stroke:black;" d="M331,103C322,147 306,217 293,272"/>
<polygon style="fill:black;stroke:black;" points="296,273 291,282 290,272 296,273"/>
</g>
<g id="node4" class="node"><title>vote</title>
<polygon style="fill:#c1cdcc;stroke:#c1cdcc;" points="389,363 389,273 575,273 575,363 389,363"/>
<polygon style="fill:white;stroke:white;" points="392,288 392,276 572,276 572,288 392,288"/>
<text text-anchor="middle" style="font-size:6.00;" x="482" y="284">vote</text>
<polygon style="fill:none;stroke:black;" points="392,288 392,276 572,276 572,288 392,288"/>
<text text-anchor="middle" style="font-size:6.00;" x="397" y="297">id</text>
<text text-anchor="middle" style="font-size:6.00;" x="434" y="297">serial</text>
<text text-anchor="middle" style="font-size:6.00;" x="474" y="297"> PRIMARY KEY </text>
<text text-anchor="middle" style="font-size:6.00;" x="403" y="309">person</text>
<text text-anchor="middle" style="font-size:6.00;" x="436" y="309">integer</text>
<text text-anchor="middle" style="font-size:6.00;" x="481" y="309"> REFERENCES person </text>
<text text-anchor="middle" style="font-size:6.00;" x="400" y="321">poll</text>
<text text-anchor="middle" style="font-size:6.00;" x="436" y="321">integer</text>
<text text-anchor="middle" style="font-size:6.00;" x="511" y="321"> REFERENCES poll REFERENCES polloption </text>
<text text-anchor="middle" style="font-size:6.00;" x="408" y="333">preference</text>
<text text-anchor="middle" style="font-size:6.00;" x="436" y="333">integer</text>
<text text-anchor="middle" style="font-size:6.00;" x="403" y="345">option</text>
<text text-anchor="middle" style="font-size:6.00;" x="436" y="345">integer</text>
<text text-anchor="middle" style="font-size:6.00;" x="486" y="345"> REFERENCES polloption </text>
<text text-anchor="middle" style="font-size:6.00;" x="402" y="357">token</text>
<text text-anchor="middle" style="font-size:6.00;" x="433" y="357">text</text>
<polygon style="fill:none;stroke:black;" points="389,363 389,273 575,273 575,363 389,363"/>
</g>
<g id="edge20" class="edge"><title>vote&#45;&gt;person</title>
<path style="fill:none;stroke:black;" d="M471,367C460,419 442,504 425,584"/>
<polygon style="fill:black;stroke:black;" points="428,585 423,594 422,584 428,585"/>
</g>
<g id="edge22" class="edge"><title>vote&#45;&gt;poll</title>
<path style="fill:none;stroke:black;" d="M381,336C379,336 376,337 374,337"/>
<polygon style="fill:black;stroke:black;" points="374,340 364,339 373,334 374,340"/>
</g>
<g id="edge24" class="edge"><title>vote&#45;&gt;polloption</title>
<path style="fill:none;stroke:black;" d="M455,269C431,224 395,158 370,112"/>
<polygon style="fill:black;stroke:black;" points="367,113 365,103 373,110 367,113"/>
</g>
<g id="node5" class="node"><title>votecast</title>
<polygon style="fill:#c1cdcc;stroke:#c1cdcc;" points="490,481 490,427 632,427 632,481 490,481"/>
<polygon style="fill:white;stroke:white;" points="493,442 493,430 629,430 629,442 493,442"/>
<text text-anchor="middle" style="font-size:6.00;" x="561" y="438">votecast</text>
<polygon style="fill:none;stroke:black;" points="493,442 493,430 629,430 629,442 493,442"/>
<text text-anchor="middle" style="font-size:6.00;" x="498" y="451">id</text>
<text text-anchor="middle" style="font-size:6.00;" x="526" y="451">serial</text>
<text text-anchor="middle" style="font-size:6.00;" x="566" y="451"> PRIMARY KEY </text>
<text text-anchor="middle" style="font-size:6.00;" x="504" y="463">person</text>
<text text-anchor="middle" style="font-size:6.00;" x="528" y="463">integer</text>
<text text-anchor="middle" style="font-size:6.00;" x="585" y="463"> REFERENCES person UNIQUE </text>
<text text-anchor="middle" style="font-size:6.00;" x="501" y="475">poll</text>
<text text-anchor="middle" style="font-size:6.00;" x="528" y="475">integer</text>
<text text-anchor="middle" style="font-size:6.00;" x="582" y="475"> UNIQUE REFERENCES poll </text>
<polygon style="fill:none;stroke:black;" points="490,481 490,427 632,427 632,481 490,481"/>
</g>
<g id="edge26" class="edge"><title>votecast&#45;&gt;person</title>
<path style="fill:none;stroke:black;" d="M544,485C531,509 511,546 490,585"/>
<polygon style="fill:black;stroke:black;" points="493,587 485,594 487,584 493,587"/>
</g>
<g id="edge28" class="edge"><title>votecast&#45;&gt;poll</title>
<path style="fill:none;stroke:black;" d="M482,427C448,415 409,402 374,389"/>
<polygon style="fill:black;stroke:black;" points="373,392 364,386 375,386 373,392"/>
</g>
</g>
</svg>
