<?xml version="1.0" encoding="UTF-8" standalone="no"?>
<!DOCTYPE svg PUBLIC "-//W3C//DTD SVG 1.0//EN"
 "http://www.w3.org/TR/2001/REC-SVG-20010904/DTD/svg10.dtd">
<!-- Generated by fdp version 2.2.1 (Tue Oct 11 01:38:21 UTC 2005)
     For user: (stub) Stuart Bishop,,,   Title: g    Pages: 1 -->
<svg width="1049px" height="777px"
 viewBox = "-1 -1 1048 776"
 xmlns="http://www.w3.org/2000/svg">
<g id="graph0" class="graph" style="font-family:Times-Roman;font-size:14.00;">
<title>g</title>
<text text-anchor="middle" style="font-size:22.00;" x="523" y="759">Voting</text>
<g id="node1" class="node"><title>person</title>
<polygon style="fill:#c1cdcc;stroke:#c1cdcc;" points="211,613 211,215 469,215 469,613 211,613"/>
<polygon style="fill:white;stroke:white;" points="214,232 214,218 466,218 466,232 214,232"/>
<text text-anchor="middle" style="font-size:8.00;" x="340" y="228">person</text>
<polygon style="fill:none;stroke:black;" points="214,232 214,218 466,218 466,232 214,232"/>
<text text-anchor="middle" style="font-size:8.00;" x="220" y="243">id</text>
<text text-anchor="middle" style="font-size:8.00;" x="315" y="243">serial</text>
<text text-anchor="middle" style="font-size:8.00;" x="377" y="243"> PRIMARY KEY </text>
<text text-anchor="middle" style="font-size:8.00;" x="237" y="257">displayname</text>
<text text-anchor="middle" style="font-size:8.00;" x="313" y="257">text</text>
<text text-anchor="middle" style="font-size:8.00;" x="232" y="271">password</text>
<text text-anchor="middle" style="font-size:8.00;" x="313" y="271">text</text>
<text text-anchor="middle" style="font-size:8.00;" x="235" y="285">teamowner</text>
<text text-anchor="middle" style="font-size:8.00;" x="318" y="285">integer</text>
<text text-anchor="middle" style="font-size:8.00;" x="387" y="285"> REFERENCES person </text>
<text text-anchor="middle" style="font-size:8.00;" x="243" y="299">teamdescription</text>
<text text-anchor="middle" style="font-size:8.00;" x="313" y="299">text</text>
<text text-anchor="middle" style="font-size:8.00;" x="226" y="313">name</text>
<text text-anchor="middle" style="font-size:8.00;" x="313" y="313">text</text>
<text text-anchor="middle" style="font-size:8.00;" x="232" y="327">language</text>
<text text-anchor="middle" style="font-size:8.00;" x="318" y="327">integer</text>
<text text-anchor="middle" style="font-size:8.00;" x="391" y="327"> REFERENCES language </text>
<text text-anchor="middle" style="font-size:8.00;" x="221" y="341">fti</text>
<text text-anchor="middle" style="font-size:8.00;" x="320" y="341">tsvector</text>
<text text-anchor="middle" style="font-size:8.00;" x="258" y="355">defaultmembershipperiod</text>
<text text-anchor="middle" style="font-size:8.00;" x="318" y="355">integer</text>
<text text-anchor="middle" style="font-size:8.00;" x="251" y="369">defaultrenewalperiod</text>
<text text-anchor="middle" style="font-size:8.00;" x="318" y="369">integer</text>
<text text-anchor="middle" style="font-size:8.00;" x="246" y="383">subscriptionpolicy</text>
<text text-anchor="middle" style="font-size:8.00;" x="318" y="383">integer</text>
<text text-anchor="middle" style="font-size:8.00;" x="229" y="397">merged</text>
<text text-anchor="middle" style="font-size:8.00;" x="318" y="397">integer</text>
<text text-anchor="middle" style="font-size:8.00;" x="387" y="397"> REFERENCES person </text>
<text text-anchor="middle" style="font-size:8.00;" x="235" y="411">datecreated</text>
<text text-anchor="middle" style="font-size:8.00;" x="324" y="411">timestamp</text>
<text text-anchor="middle" style="font-size:8.00;" x="230" y="425">calendar</text>
<text text-anchor="middle" style="font-size:8.00;" x="318" y="425">integer</text>
<text text-anchor="middle" style="font-size:8.00;" x="406" y="425"> REFERENCES calendar UNIQUE </text>
<text text-anchor="middle" style="font-size:8.00;" x="232" y="439">timezone</text>
<text text-anchor="middle" style="font-size:8.00;" x="313" y="439">text</text>
<text text-anchor="middle" style="font-size:8.00;" x="237" y="453">addressline1</text>
<text text-anchor="middle" style="font-size:8.00;" x="313" y="453">text</text>
<text text-anchor="middle" style="font-size:8.00;" x="237" y="467">addressline2</text>
<text text-anchor="middle" style="font-size:8.00;" x="313" y="467">text</text>
<text text-anchor="middle" style="font-size:8.00;" x="237" y="481">organization</text>
<text text-anchor="middle" style="font-size:8.00;" x="313" y="481">text</text>
<text text-anchor="middle" style="font-size:8.00;" x="223" y="495">city</text>
<text text-anchor="middle" style="font-size:8.00;" x="313" y="495">text</text>
<text text-anchor="middle" style="font-size:8.00;" x="231" y="509">province</text>
<text text-anchor="middle" style="font-size:8.00;" x="313" y="509">text</text>
<text text-anchor="middle" style="font-size:8.00;" x="229" y="523">country</text>
<text text-anchor="middle" style="font-size:8.00;" x="318" y="523">integer</text>
<text text-anchor="middle" style="font-size:8.00;" x="388" y="523"> REFERENCES country </text>
<text text-anchor="middle" style="font-size:8.00;" x="231" y="537">postcode</text>
<text text-anchor="middle" style="font-size:8.00;" x="313" y="537">text</text>
<text text-anchor="middle" style="font-size:8.00;" x="227" y="551">phone</text>
<text text-anchor="middle" style="font-size:8.00;" x="313" y="551">text</text>
<text text-anchor="middle" style="font-size:8.00;" x="248" y="565">homepage_content</text>
<text text-anchor="middle" style="font-size:8.00;" x="313" y="565">text</text>
<text text-anchor="middle" style="font-size:8.00;" x="230" y="579">emblem</text>
<text text-anchor="middle" style="font-size:8.00;" x="318" y="579">integer</text>
<text text-anchor="middle" style="font-size:8.00;" x="399" y="579"> REFERENCES libraryfilealias </text>
<text text-anchor="middle" style="font-size:8.00;" x="238" y="593">hackergotchi</text>
<text text-anchor="middle" style="font-size:8.00;" x="318" y="593">integer</text>
<text text-anchor="middle" style="font-size:8.00;" x="399" y="593"> REFERENCES libraryfilealias </text>
<text text-anchor="middle" style="font-size:8.00;" x="252" y="607">hide_email_addresses</text>
<text text-anchor="middle" style="font-size:8.00;" x="320" y="607">boolean</text>
<polygon style="fill:none;stroke:black;" points="211,613 211,215 469,215 469,613 211,613"/>
</g>
<g id="edge2" class="edge"><title>person&#45;&gt;person</title>
<path style="fill:none;stroke:black;" d="M477,472C488,459 495,440 495,414 495,393 490,377 483,364"/>
<polygon style="fill:black;stroke:black;" points="480,366 477,356 486,362 480,366"/>
</g>
<g id="edge6" class="edge"><title>person&#45;&gt;person</title>
<path style="fill:none;stroke:black;" d="M477,552C499,532 513,485 513,414 513,351 502,307 484,284"/>
<polygon style="fill:black;stroke:black;" points="481,286 477,276 486,281 481,286"/>
</g>
<g id="node7" class="node"><title>fake_language_187</title>
<ellipse cx="157" cy="167" rx="27" ry="18" style="fill:none;stroke:red;"/>
<text text-anchor="middle" style="font-size:8.00;" x="157" y="170">language</text>
</g>
<g id="edge4" class="edge"><title>person&#45;&gt;fake_language_187</title>
<path style="fill:none;stroke:black;" d="M203,229C193,214 183,202 175,191"/>
<polygon style="fill:black;stroke:black;" points="172,193 169,183 178,189 172,193"/>
</g>
<g id="node10" class="node"><title>fake_calendar_190</title>
<ellipse cx="33" cy="369" rx="27" ry="18" style="fill:none;stroke:red;"/>
<text text-anchor="middle" style="font-size:8.00;" x="33" y="372">calendar</text>
</g>
<g id="edge8" class="edge"><title>person&#45;&gt;fake_calendar_190</title>
<path style="fill:none;stroke:black;" d="M203,394C154,387 103,380 70,375"/>
<polygon style="fill:black;stroke:black;" points="69,378 60,373 70,372 69,378"/>
</g>
<g id="node12" class="node"><title>fake_country_192</title>
<ellipse cx="496" cy="679" rx="27" ry="18" style="fill:none;stroke:red;"/>
<text text-anchor="middle" style="font-size:8.00;" x="496" y="682">country</text>
</g>
<g id="edge10" class="edge"><title>person&#45;&gt;fake_country_192</title>
<path style="fill:none;stroke:black;" d="M460,617C468,631 476,643 481,653"/>
<polygon style="fill:black;stroke:black;" points="484,652 486,662 478,655 484,652"/>
</g>
<g id="node14" class="node"><title>fake_libraryfilealias_194</title>
<ellipse cx="151" cy="527" rx="35" ry="18" style="fill:none;stroke:red;"/>
<text text-anchor="middle" style="font-size:8.00;" x="151" y="530">libraryfilealias</text>
</g>
<g id="edge12" class="edge"><title>person&#45;&gt;fake_libraryfilealias_194</title>
<path style="fill:none;stroke:black;" d="M203,496C196,501 189,504 183,508"/>
<polygon style="fill:black;stroke:black;" points="184,511 174,513 181,505 184,511"/>
</g>
<g id="node16" class="node"><title>fake_libraryfilealias_196</title>
<ellipse cx="244" cy="716" rx="35" ry="18" style="fill:none;stroke:red;"/>
<text text-anchor="middle" style="font-size:8.00;" x="244" y="719">libraryfilealias</text>
</g>
<g id="edge14" class="edge"><title>person&#45;&gt;fake_libraryfilealias_196</title>
<path style="fill:none;stroke:black;" d="M275,617C267,645 258,670 253,688"/>
<polygon style="fill:black;stroke:black;" points="256,689 250,698 250,687 256,689"/>
</g>
<g id="node2" class="node"><title>poll</title>
<polygon style="fill:#c1cdcc;stroke:#c1cdcc;" points="538,252 538,92 744,92 744,252 538,252"/>
<polygon style="fill:white;stroke:white;" points="541,109 541,95 741,95 741,109 541,109"/>
<text text-anchor="middle" style="font-size:8.00;" x="641" y="105">poll</text>
<polygon style="fill:none;stroke:black;" points="541,109 541,95 741,95 741,109 541,109"/>
<text text-anchor="middle" style="font-size:8.00;" x="547" y="120">id</text>
<text text-anchor="middle" style="font-size:8.00;" x="596" y="120">serial</text>
<text text-anchor="middle" style="font-size:8.00;" x="658" y="120"> PRIMARY KEY </text>
<text text-anchor="middle" style="font-size:8.00;" x="552" y="134">team</text>
<text text-anchor="middle" style="font-size:8.00;" x="599" y="134">integer</text>
<text text-anchor="middle" style="font-size:8.00;" x="684" y="134"> REFERENCES person UNIQUE </text>
<text text-anchor="middle" style="font-size:8.00;" x="553" y="148">name</text>
<text text-anchor="middle" style="font-size:8.00;" x="594" y="148">text</text>
<text text-anchor="middle" style="font-size:8.00;" x="646" y="148"> UNIQUE </text>
<text text-anchor="middle" style="font-size:8.00;" x="550" y="162">title</text>
<text text-anchor="middle" style="font-size:8.00;" x="594" y="162">text</text>
<text text-anchor="middle" style="font-size:8.00;" x="560" y="176">dateopens</text>
<text text-anchor="middle" style="font-size:8.00;" x="605" y="176">timestamp</text>
<text text-anchor="middle" style="font-size:8.00;" x="560" y="190">datecloses</text>
<text text-anchor="middle" style="font-size:8.00;" x="605" y="190">timestamp</text>
<text text-anchor="middle" style="font-size:8.00;" x="562" y="204">proposition</text>
<text text-anchor="middle" style="font-size:8.00;" x="594" y="204">text</text>
<text text-anchor="middle" style="font-size:8.00;" x="551" y="218">type</text>
<text text-anchor="middle" style="font-size:8.00;" x="599" y="218">integer</text>
<text text-anchor="middle" style="font-size:8.00;" x="561" y="232">allowspoilt</text>
<text text-anchor="middle" style="font-size:8.00;" x="601" y="232">boolean</text>
<text text-anchor="middle" style="font-size:8.00;" x="556" y="246">secrecy</text>
<text text-anchor="middle" style="font-size:8.00;" x="599" y="246">integer</text>
<polygon style="fill:none;stroke:black;" points="538,252 538,92 744,92 744,252 538,252"/>
</g>
<g id="edge16" class="edge"><title>poll&#45;&gt;person</title>
<path style="fill:none;stroke:black;" d="M530,239C515,249 500,259 487,270 486,271 486,271 485,272"/>
<polygon style="fill:black;stroke:black;" points="487,275 477,278 483,269 487,275"/>
</g>
<g id="node3" class="node"><title>polloption</title>
<polygon style="fill:#c1cdcc;stroke:#c1cdcc;" points="797,293 797,203 1033,203 1033,293 797,293"/>
<polygon style="fill:white;stroke:white;" points="800,220 800,206 1030,206 1030,220 800,220"/>
<text text-anchor="middle" style="font-size:8.00;" x="915" y="216">polloption</text>
<polygon style="fill:none;stroke:black;" points="800,220 800,206 1030,206 1030,220 800,220"/>
<text text-anchor="middle" style="font-size:8.00;" x="806" y="231">id</text>
<text text-anchor="middle" style="font-size:8.00;" x="837" y="231">serial</text>
<text text-anchor="middle" style="font-size:8.00;" x="908" y="231"> PRIMARY KEY UNIQUE </text>
<text text-anchor="middle" style="font-size:8.00;" x="809" y="245">poll</text>
<text text-anchor="middle" style="font-size:8.00;" x="840" y="245">integer</text>
<text text-anchor="middle" style="font-size:8.00;" x="945" y="245"> REFERENCES poll UNIQUE UNIQUE UNIQUE </text>
<text text-anchor="middle" style="font-size:8.00;" x="812" y="259">name</text>
<text text-anchor="middle" style="font-size:8.00;" x="835" y="259">text</text>
<text text-anchor="middle" style="font-size:8.00;" x="879" y="259"> UNIQUE </text>
<text text-anchor="middle" style="font-size:8.00;" x="809" y="273">title</text>
<text text-anchor="middle" style="font-size:8.00;" x="835" y="273">text</text>
<text text-anchor="middle" style="font-size:8.00;" x="879" y="273"> UNIQUE </text>
<text text-anchor="middle" style="font-size:8.00;" x="812" y="287">active</text>
<text text-anchor="middle" style="font-size:8.00;" x="842" y="287">boolean</text>
<polygon style="fill:none;stroke:black;" points="797,293 797,203 1033,203 1033,293 797,293"/>
</g>
<g id="edge18" class="edge"><title>polloption&#45;&gt;poll</title>
<path style="fill:none;stroke:black;" d="M789,213C780,211 771,208 762,206"/>
<polygon style="fill:black;stroke:black;" points="761,209 752,203 763,203 761,209"/>
</g>
<g id="node4" class="node"><title>vote</title>
<polygon style="fill:#c1cdcc;stroke:#c1cdcc;" points="501,381 501,277 741,277 741,381 501,381"/>
<polygon style="fill:white;stroke:white;" points="504,294 504,280 738,280 738,294 504,294"/>
<text text-anchor="middle" style="font-size:8.00;" x="621" y="290">vote</text>
<polygon style="fill:none;stroke:black;" points="504,294 504,280 738,280 738,294 504,294"/>
<text text-anchor="middle" style="font-size:8.00;" x="510" y="305">id</text>
<text text-anchor="middle" style="font-size:8.00;" x="558" y="305">serial</text>
<text text-anchor="middle" style="font-size:8.00;" x="609" y="305"> PRIMARY KEY </text>
<text text-anchor="middle" style="font-size:8.00;" x="518" y="319">person</text>
<text text-anchor="middle" style="font-size:8.00;" x="561" y="319">integer</text>
<text text-anchor="middle" style="font-size:8.00;" x="619" y="319"> REFERENCES person </text>
<text text-anchor="middle" style="font-size:8.00;" x="513" y="333">poll</text>
<text text-anchor="middle" style="font-size:8.00;" x="561" y="333">integer</text>
<text text-anchor="middle" style="font-size:8.00;" x="658" y="333"> REFERENCES poll REFERENCES polloption </text>
<text text-anchor="middle" style="font-size:8.00;" x="524" y="347">preference</text>
<text text-anchor="middle" style="font-size:8.00;" x="561" y="347">integer</text>
<text text-anchor="middle" style="font-size:8.00;" x="517" y="361">option</text>
<text text-anchor="middle" style="font-size:8.00;" x="561" y="361">integer</text>
<text text-anchor="middle" style="font-size:8.00;" x="624" y="361"> REFERENCES polloption </text>
<text text-anchor="middle" style="font-size:8.00;" x="516" y="375">token</text>
<text text-anchor="middle" style="font-size:8.00;" x="556" y="375">text</text>
<polygon style="fill:none;stroke:black;" points="501,381 501,277 741,277 741,381 501,381"/>
</g>
<g id="edge20" class="edge"><title>vote&#45;&gt;person</title>
<path style="fill:none;stroke:black;" d="M493,368C491,369 489,369 487,370"/>
<polygon style="fill:black;stroke:black;" points="488,373 477,373 486,367 488,373"/>
</g>
<g id="edge22" class="edge"><title>vote&#45;&gt;poll</title>
<path style="fill:none;stroke:black;" d="M628,273C628,271 629,268 629,266"/>
<polygon style="fill:black;stroke:black;" points="626,266 630,256 632,266 626,266"/>
</g>
<g id="edge24" class="edge"><title>vote&#45;&gt;polloption</title>
<path style="fill:none;stroke:black;" d="M749,294C759,291 769,288 779,286"/>
<polygon style="fill:black;stroke:black;" points="778,283 789,283 780,289 778,283"/>
</g>
<g id="node5" class="node"><title>votecast</title>
<polygon style="fill:#c1cdcc;stroke:#c1cdcc;" points="325,71 325,9 505,9 505,71 325,71"/>
<polygon style="fill:white;stroke:white;" points="328,26 328,12 502,12 502,26 328,26"/>
<text text-anchor="middle" style="font-size:8.00;" x="415" y="22">votecast</text>
<polygon style="fill:none;stroke:black;" points="328,26 328,12 502,12 502,26 328,26"/>
<text text-anchor="middle" style="font-size:8.00;" x="334" y="37">id</text>
<text text-anchor="middle" style="font-size:8.00;" x="368" y="37">serial</text>
<text text-anchor="middle" style="font-size:8.00;" x="419" y="37"> PRIMARY KEY </text>
<text text-anchor="middle" style="font-size:8.00;" x="342" y="51">person</text>
<text text-anchor="middle" style="font-size:8.00;" x="371" y="51">integer</text>
<text text-anchor="middle" style="font-size:8.00;" x="445" y="51"> REFERENCES person UNIQUE </text>
<text text-anchor="middle" style="font-size:8.00;" x="337" y="65">poll</text>
<text text-anchor="middle" style="font-size:8.00;" x="371" y="65">integer</text>
<text text-anchor="middle" style="font-size:8.00;" x="440" y="65"> UNIQUE REFERENCES poll </text>
<polygon style="fill:none;stroke:black;" points="325,71 325,9 505,9 505,71 325,71"/>
</g>
<g id="edge26" class="edge"><title>votecast&#45;&gt;person</title>
<path style="fill:none;stroke:black;" d="M408,75C401,105 392,152 383,201"/>
<polygon style="fill:black;stroke:black;" points="386,202 381,211 380,201 386,202"/>
</g>
<g id="edge28" class="edge"><title>votecast&#45;&gt;poll</title>
<path style="fill:none;stroke:black;" d="M475,75C489,83 505,93 521,102"/>
<polygon style="fill:black;stroke:black;" points="523,99 530,107 520,105 523,99"/>
</g>
</g>
</svg>
