<?xml version="1.0" encoding="UTF-8" standalone="no"?>
<!DOCTYPE svg PUBLIC "-//W3C//DTD SVG 1.0//EN"
 "http://www.w3.org/TR/2001/REC-SVG-20010904/DTD/svg10.dtd">
<!-- Generated by fdp version 2.2 (Sat Feb  5 01:37:52 UTC 2005)
     For user: (stub) Stuart Bishop,,,   Title: g    Pages: 1 -->
<svg width="661px" height="489px"
 viewBox = "-1 -1 660 488"
 xmlns="http://www.w3.org/2000/svg">
<g id="graph0" class="graph" style="font-family:Times-Roman;font-size:14.00;">
<title>g</title>
<text text-anchor="middle" style="font-size:22.00;" x="329" y="471">Voting</text>
<g id="node1" class="node"><title>person</title>
<polygon style="fill:#c1cdcc;stroke:#c1cdcc;" points="155,325 155,103 357,103 357,325 155,325"/>
<polygon style="fill:white;stroke:white;" points="158,118 158,106 354,106 354,118 158,118"/>
<text text-anchor="middle" style="font-size:6.00;" x="256" y="114">person</text>
<polygon style="fill:none;stroke:black;" points="158,118 158,106 354,106 354,118 158,118"/>
<text text-anchor="middle" style="font-size:6.00;" x="163" y="127">id</text>
<text text-anchor="middle" style="font-size:6.00;" x="238" y="127">serial</text>
<text text-anchor="middle" style="font-size:6.00;" x="287" y="127"> PRIMARY KEY </text>
<text text-anchor="middle" style="font-size:6.00;" x="176" y="139">displayname</text>
<text text-anchor="middle" style="font-size:6.00;" x="237" y="139">text</text>
<text text-anchor="middle" style="font-size:6.00;" x="174" y="151">givenname</text>
<text text-anchor="middle" style="font-size:6.00;" x="237" y="151">text</text>
<text text-anchor="middle" style="font-size:6.00;" x="175" y="163">familyname</text>
<text text-anchor="middle" style="font-size:6.00;" x="237" y="163">text</text>
<text text-anchor="middle" style="font-size:6.00;" x="173" y="175">password</text>
<text text-anchor="middle" style="font-size:6.00;" x="237" y="175">text</text>
<text text-anchor="middle" style="font-size:6.00;" x="174" y="187">teamowner</text>
<text text-anchor="middle" style="font-size:6.00;" x="240" y="187">integer</text>
<text text-anchor="middle" style="font-size:6.00;" x="294" y="187"> REFERENCES person </text>
<text text-anchor="middle" style="font-size:6.00;" x="180" y="199">teamdescription</text>
<text text-anchor="middle" style="font-size:6.00;" x="237" y="199">text</text>
<text text-anchor="middle" style="font-size:6.00;" x="168" y="211">name</text>
<text text-anchor="middle" style="font-size:6.00;" x="237" y="211">text</text>
<text text-anchor="middle" style="font-size:6.00;" x="172" y="223">language</text>
<text text-anchor="middle" style="font-size:6.00;" x="240" y="223">integer</text>
<text text-anchor="middle" style="font-size:6.00;" x="297" y="223"> REFERENCES language </text>
<text text-anchor="middle" style="font-size:6.00;" x="164" y="235">fti</text>
<text text-anchor="middle" style="font-size:6.00;" x="242" y="235">tsvector</text>
<text text-anchor="middle" style="font-size:6.00;" x="192" y="247">defaultmembershipperiod</text>
<text text-anchor="middle" style="font-size:6.00;" x="240" y="247">integer</text>
<text text-anchor="middle" style="font-size:6.00;" x="187" y="259">defaultrenewalperiod</text>
<text text-anchor="middle" style="font-size:6.00;" x="240" y="259">integer</text>
<text text-anchor="middle" style="font-size:6.00;" x="183" y="271">subscriptionpolicy</text>
<text text-anchor="middle" style="font-size:6.00;" x="240" y="271">integer</text>
<text text-anchor="middle" style="font-size:6.00;" x="170" y="283">merged</text>
<text text-anchor="middle" style="font-size:6.00;" x="240" y="283">integer</text>
<text text-anchor="middle" style="font-size:6.00;" x="294" y="283"> REFERENCES person </text>
<text text-anchor="middle" style="font-size:6.00;" x="175" y="295">datecreated</text>
<text text-anchor="middle" style="font-size:6.00;" x="245" y="295">timestamp</text>
<text text-anchor="middle" style="font-size:6.00;" x="171" y="307">calendar</text>
<text text-anchor="middle" style="font-size:6.00;" x="240" y="307">integer</text>
<text text-anchor="middle" style="font-size:6.00;" x="308" y="307"> REFERENCES calendar UNIQUE </text>
<text text-anchor="middle" style="font-size:6.00;" x="172" y="319">timezone</text>
<text text-anchor="middle" style="font-size:6.00;" x="237" y="319">text</text>
<polygon style="fill:none;stroke:black;" points="155,325 155,103 357,103 357,325 155,325"/>
</g>
<g id="edge2" class="edge"><title>person&#45;&gt;person</title>
<path style="fill:none;stroke:black;" d="M365,249C376,242 383,230 383,214 383,202 379,193 373,186"/>
<polygon style="fill:black;stroke:black;" points="370,188 365,179 375,183 370,188"/>
</g>
<g id="edge6" class="edge"><title>person&#45;&gt;person</title>
<path style="fill:none;stroke:black;" d="M365,295C386,286 401,259 401,214 401,176 390,150 374,138"/>
<polygon style="fill:black;stroke:black;" points="372,141 365,133 375,135 372,141"/>
</g>
<g id="node7" class="node"><title>fake_language_164</title>
<ellipse cx="132" cy="23" rx="27" ry="18" style="fill:none;stroke:red;"/>
<text text-anchor="middle" style="font-size:6.00;" x="132" y="25">language</text>
</g>
<g id="edge4" class="edge"><title>person&#45;&gt;fake_language_164</title>
<path style="fill:none;stroke:black;" d="M181,99C169,79 157,62 149,49"/>
<polygon style="fill:black;stroke:black;" points="146,50 143,40 151,46 146,50"/>
</g>
<g id="node10" class="node"><title>fake_calendar_167</title>
<ellipse cx="33" cy="269" rx="27" ry="18" style="fill:none;stroke:red;"/>
<text text-anchor="middle" style="font-size:6.00;" x="33" y="271">calendar</text>
</g>
<g id="edge8" class="edge"><title>person&#45;&gt;fake_calendar_167</title>
<path style="fill:none;stroke:black;" d="M147,241C119,248 90,255 69,260"/>
<polygon style="fill:black;stroke:black;" points="70,263 59,263 68,257 70,263"/>
</g>
<g id="node2" class="node"><title>poll</title>
<polygon style="fill:#c1cdcc;stroke:#c1cdcc;" points="390,296 390,158 554,158 554,296 390,296"/>
<polygon style="fill:white;stroke:white;" points="393,173 393,161 551,161 551,173 393,173"/>
<text text-anchor="middle" style="font-size:6.00;" x="472" y="169">poll</text>
<polygon style="fill:none;stroke:black;" points="393,173 393,161 551,161 551,173 393,173"/>
<text text-anchor="middle" style="font-size:6.00;" x="398" y="182">id</text>
<text text-anchor="middle" style="font-size:6.00;" x="439" y="182">serial</text>
<text text-anchor="middle" style="font-size:6.00;" x="488" y="182"> PRIMARY KEY </text>
<text text-anchor="middle" style="font-size:6.00;" x="402" y="194">team</text>
<text text-anchor="middle" style="font-size:6.00;" x="441" y="194">integer</text>
<text text-anchor="middle" style="font-size:6.00;" x="507" y="194"> REFERENCES person UNIQUE </text>
<text text-anchor="middle" style="font-size:6.00;" x="403" y="206">name</text>
<text text-anchor="middle" style="font-size:6.00;" x="438" y="206">text</text>
<text text-anchor="middle" style="font-size:6.00;" x="479" y="206"> UNIQUE </text>
<text text-anchor="middle" style="font-size:6.00;" x="401" y="218">title</text>
<text text-anchor="middle" style="font-size:6.00;" x="438" y="218">text</text>
<text text-anchor="middle" style="font-size:6.00;" x="408" y="230">dateopens</text>
<text text-anchor="middle" style="font-size:6.00;" x="446" y="230">timestamp</text>
<text text-anchor="middle" style="font-size:6.00;" x="409" y="242">datecloses</text>
<text text-anchor="middle" style="font-size:6.00;" x="446" y="242">timestamp</text>
<text text-anchor="middle" style="font-size:6.00;" x="410" y="254">proposition</text>
<text text-anchor="middle" style="font-size:6.00;" x="438" y="254">text</text>
<text text-anchor="middle" style="font-size:6.00;" x="401" y="266">type</text>
<text text-anchor="middle" style="font-size:6.00;" x="441" y="266">integer</text>
<text text-anchor="middle" style="font-size:6.00;" x="410" y="278">allowspoilt</text>
<text text-anchor="middle" style="font-size:6.00;" x="443" y="278">boolean</text>
<text text-anchor="middle" style="font-size:6.00;" x="405" y="290">secrecy</text>
<text text-anchor="middle" style="font-size:6.00;" x="441" y="290">integer</text>
<polygon style="fill:none;stroke:black;" points="390,296 390,158 554,158 554,296 390,296"/>
</g>
<g id="edge10" class="edge"><title>poll&#45;&gt;person</title>
<path style="fill:none;stroke:black;" d="M382,222C380,222 377,222 375,222"/>
<polygon style="fill:black;stroke:black;" points="375,225 365,221 375,219 375,225"/>
</g>
<g id="node3" class="node"><title>polloption</title>
<polygon style="fill:#c1cdcc;stroke:#c1cdcc;" points="449,399 449,321 645,321 645,399 449,399"/>
<polygon style="fill:white;stroke:white;" points="452,336 452,324 642,324 642,336 452,336"/>
<text text-anchor="middle" style="font-size:6.00;" x="547" y="332">polloption</text>
<polygon style="fill:none;stroke:black;" points="452,336 452,324 642,324 642,336 452,336"/>
<text text-anchor="middle" style="font-size:6.00;" x="457" y="345">id</text>
<text text-anchor="middle" style="font-size:6.00;" x="494" y="345">serial</text>
<text text-anchor="middle" style="font-size:6.00;" x="549" y="345"> PRIMARY KEY UNIQUE </text>
<text text-anchor="middle" style="font-size:6.00;" x="460" y="357">poll</text>
<text text-anchor="middle" style="font-size:6.00;" x="496" y="357">integer</text>
<text text-anchor="middle" style="font-size:6.00;" x="577" y="357"> REFERENCES poll UNIQUE UNIQUE UNIQUE </text>
<text text-anchor="middle" style="font-size:6.00;" x="462" y="369">name</text>
<text text-anchor="middle" style="font-size:6.00;" x="493" y="369">text</text>
<text text-anchor="middle" style="font-size:6.00;" x="528" y="369"> UNIQUE </text>
<text text-anchor="middle" style="font-size:6.00;" x="467" y="381">shortname</text>
<text text-anchor="middle" style="font-size:6.00;" x="493" y="381">text</text>
<text text-anchor="middle" style="font-size:6.00;" x="528" y="381"> UNIQUE </text>
<text text-anchor="middle" style="font-size:6.00;" x="462" y="393">active</text>
<text text-anchor="middle" style="font-size:6.00;" x="498" y="393">boolean</text>
<polygon style="fill:none;stroke:black;" points="449,399 449,321 645,321 645,399 449,399"/>
</g>
<g id="edge12" class="edge"><title>polloption&#45;&gt;poll</title>
<path style="fill:none;stroke:black;" d="M523,317C521,314 520,312 518,309"/>
<polygon style="fill:black;stroke:black;" points="515,310 513,300 521,307 515,310"/>
</g>
<g id="node4" class="node"><title>vote</title>
<polygon style="fill:#c1cdcc;stroke:#c1cdcc;" points="205,442 205,352 391,352 391,442 205,442"/>
<polygon style="fill:white;stroke:white;" points="208,367 208,355 388,355 388,367 208,367"/>
<text text-anchor="middle" style="font-size:6.00;" x="298" y="363">vote</text>
<polygon style="fill:none;stroke:black;" points="208,367 208,355 388,355 388,367 208,367"/>
<text text-anchor="middle" style="font-size:6.00;" x="213" y="376">id</text>
<text text-anchor="middle" style="font-size:6.00;" x="250" y="376">serial</text>
<text text-anchor="middle" style="font-size:6.00;" x="290" y="376"> PRIMARY KEY </text>
<text text-anchor="middle" style="font-size:6.00;" x="219" y="388">person</text>
<text text-anchor="middle" style="font-size:6.00;" x="252" y="388">integer</text>
<text text-anchor="middle" style="font-size:6.00;" x="297" y="388"> REFERENCES person </text>
<text text-anchor="middle" style="font-size:6.00;" x="216" y="400">poll</text>
<text text-anchor="middle" style="font-size:6.00;" x="252" y="400">integer</text>
<text text-anchor="middle" style="font-size:6.00;" x="327" y="400"> REFERENCES poll REFERENCES polloption </text>
<text text-anchor="middle" style="font-size:6.00;" x="224" y="412">preference</text>
<text text-anchor="middle" style="font-size:6.00;" x="252" y="412">integer</text>
<text text-anchor="middle" style="font-size:6.00;" x="219" y="424">option</text>
<text text-anchor="middle" style="font-size:6.00;" x="252" y="424">integer</text>
<text text-anchor="middle" style="font-size:6.00;" x="302" y="424"> REFERENCES polloption </text>
<text text-anchor="middle" style="font-size:6.00;" x="218" y="436">token</text>
<text text-anchor="middle" style="font-size:6.00;" x="249" y="436">text</text>
<text text-anchor="middle" style="font-size:6.00;" x="281" y="436"> UNIQUE </text>
<polygon style="fill:none;stroke:black;" points="205,442 205,352 391,352 391,442 205,442"/>
</g>
<g id="edge14" class="edge"><title>vote&#45;&gt;person</title>
<path style="fill:none;stroke:black;" d="M287,348C287,345 286,342 285,339"/>
<polygon style="fill:black;stroke:black;" points="282,339 283,329 288,338 282,339"/>
</g>
<g id="edge16" class="edge"><title>vote&#45;&gt;poll</title>
<path style="fill:none;stroke:black;" d="M348,348C362,335 376,321 390,307"/>
<polygon style="fill:black;stroke:black;" points="388,304 398,300 393,309 388,304"/>
</g>
<g id="edge18" class="edge"><title>vote&#45;&gt;polloption</title>
<path style="fill:none;stroke:black;" d="M399,382C410,380 420,379 431,377"/>
<polygon style="fill:black;stroke:black;" points="431,374 441,376 431,380 431,374"/>
</g>
<g id="node5" class="node"><title>votecast</title>
<polygon style="fill:#c1cdcc;stroke:#c1cdcc;" points="438,133 438,79 580,79 580,133 438,133"/>
<polygon style="fill:white;stroke:white;" points="441,94 441,82 577,82 577,94 441,94"/>
<text text-anchor="middle" style="font-size:6.00;" x="509" y="90">votecast</text>
<polygon style="fill:none;stroke:black;" points="441,94 441,82 577,82 577,94 441,94"/>
<text text-anchor="middle" style="font-size:6.00;" x="446" y="103">id</text>
<text text-anchor="middle" style="font-size:6.00;" x="474" y="103">serial</text>
<text text-anchor="middle" style="font-size:6.00;" x="514" y="103"> PRIMARY KEY </text>
<text text-anchor="middle" style="font-size:6.00;" x="452" y="115">person</text>
<text text-anchor="middle" style="font-size:6.00;" x="476" y="115">integer</text>
<text text-anchor="middle" style="font-size:6.00;" x="533" y="115"> REFERENCES person UNIQUE </text>
<text text-anchor="middle" style="font-size:6.00;" x="449" y="127">poll</text>
<text text-anchor="middle" style="font-size:6.00;" x="476" y="127">integer</text>
<text text-anchor="middle" style="font-size:6.00;" x="530" y="127"> UNIQUE REFERENCES poll </text>
<polygon style="fill:none;stroke:black;" points="438,133 438,79 580,79 580,133 438,133"/>
</g>
<g id="edge20" class="edge"><title>votecast&#45;&gt;person</title>
<path style="fill:none;stroke:black;" d="M436,137C417,145 395,154 374,163"/>
<polygon style="fill:black;stroke:black;" points="376,166 365,167 373,160 376,166"/>
</g>
<g id="edge22" class="edge"><title>votecast&#45;&gt;poll</title>
<path style="fill:none;stroke:black;" d="M499,137C499,139 498,142 497,144"/>
<polygon style="fill:black;stroke:black;" points="500,145 494,154 494,143 500,145"/>
</g>
</g>
</svg>
