<?xml version="1.0" encoding="utf-8"?>
<!-- Generator: Adobe Illustrator 13.0.0, SVG Export Plug-In . SVG Version: 6.00 Build 14948)  -->
<!DOCTYPE svg PUBLIC "-//W3C//DTD SVG 1.1//EN" "http://www.w3.org/Graphics/SVG/1.1/DTD/svg11.dtd">
<svg version="1.1" id="Layer_1" xmlns="http://www.w3.org/2000/svg" xmlns:xlink="http://www.w3.org/1999/xlink" x="0px" y="0px"
	 width="750px" height="300px" viewBox="0 0 750 300" enable-background="new 0 0 750 300" xml:space="preserve">
<g>
	<g>
		<ellipse opacity="0.15" fill="#1A1A1A" cx="408.152" cy="212.1" rx="32.628" ry="10.982"/>
		<ellipse opacity="0.1538" fill="#191919" cx="409.137" cy="211.844" rx="31.741" ry="10.805"/>
		<ellipse opacity="0.1577" fill="#181818" cx="410.122" cy="211.587" rx="30.854" ry="10.628"/>
		<ellipse opacity="0.1615" fill="#171717" cx="411.107" cy="211.331" rx="29.966" ry="10.45"/>
		<ellipse opacity="0.1654" fill="#161616" cx="412.092" cy="211.075" rx="29.079" ry="10.272"/>
		<ellipse opacity="0.1692" fill="#151515" cx="413.077" cy="210.818" rx="28.191" ry="10.096"/>
		<ellipse opacity="0.1731" fill="#141414" cx="414.062" cy="210.563" rx="27.304" ry="9.918"/>
		<ellipse opacity="0.1769" fill="#131313" cx="415.046" cy="210.307" rx="26.417" ry="9.741"/>
		<ellipse opacity="0.1808" fill="#121212" cx="416.031" cy="210.051" rx="25.529" ry="9.563"/>
		<ellipse opacity="0.1846" fill="#111111" cx="417.016" cy="209.794" rx="24.642" ry="9.387"/>
		<ellipse opacity="0.1885" fill="#101010" cx="418.001" cy="209.538" rx="23.755" ry="9.209"/>
		<ellipse opacity="0.1923" fill="#0F0F0F" cx="418.986" cy="209.282" rx="22.868" ry="9.031"/>
		<ellipse opacity="0.1962" fill="#0E0E0E" cx="419.971" cy="209.025" rx="21.98" ry="8.854"/>
		<ellipse opacity="0.2" fill="#0D0D0D" cx="420.956" cy="208.77" rx="21.093" ry="8.677"/>
		<ellipse opacity="0.2038" fill="#0C0C0C" cx="421.941" cy="208.514" rx="20.206" ry="8.499"/>
		<ellipse opacity="0.2077" fill="#0B0B0B" cx="422.926" cy="208.257" rx="19.318" ry="8.322"/>
		<ellipse opacity="0.2115" fill="#0A0A0A" cx="423.911" cy="208.001" rx="18.431" ry="8.145"/>
		<ellipse opacity="0.2154" fill="#090909" cx="424.896" cy="207.745" rx="17.544" ry="7.967"/>
		<ellipse opacity="0.2192" fill="#080808" cx="425.88" cy="207.488" rx="16.657" ry="7.79"/>
		<ellipse opacity="0.2231" fill="#070707" cx="426.865" cy="207.232" rx="15.77" ry="7.612"/>
		<ellipse opacity="0.2269" fill="#060606" cx="427.85" cy="206.977" rx="14.882" ry="7.436"/>
		<ellipse opacity="0.2308" fill="#050505" cx="428.834" cy="206.721" rx="13.995" ry="7.258"/>
		<ellipse opacity="0.2346" fill="#040404" cx="429.82" cy="206.464" rx="13.107" ry="7.081"/>
		<ellipse opacity="0.2385" fill="#030303" cx="430.805" cy="206.208" rx="12.22" ry="6.903"/>
		<path opacity="0.2423" fill="#020202" d="M443.122,205.952c0,3.714-5.074,6.726-11.33,6.726c-6.261,0-11.335-3.012-11.335-6.726
			c0-3.716,5.074-6.728,11.335-6.728C438.048,199.225,443.122,202.236,443.122,205.952z"/>
		<path opacity="0.2462" fill="#010101" d="M443.22,205.695c0,3.617-4.678,6.549-10.443,6.549c-5.77,0-10.447-2.932-10.447-6.549
			s4.678-6.549,10.447-6.549C438.542,199.146,443.22,202.078,443.22,205.695z"/>
		<path opacity="0.25" d="M443.317,205.439c0,3.519-4.28,6.371-9.556,6.371c-5.28,0-9.561-2.853-9.561-6.371
			c0-3.52,4.28-6.372,9.561-6.372C439.037,199.067,443.317,201.92,443.317,205.439z"/>
	</g>
	<radialGradient id="SVGID_1_" cx="397.9766" cy="177.834" r="33.7466" gradientUnits="userSpaceOnUse">
		<stop  offset="0" style="stop-color:#FFFFFF"/>
		<stop  offset="0.4762" style="stop-color:#88B8A1"/>
		<stop  offset="1" style="stop-color:#006837"/>
	</radialGradient>
	<path fill="url(#SVGID_1_)" d="M438.227,213.745c0.006,0.088-8.273,8.451-30.39,8.812c-21.396,0.349-28.954-8.724-28.95-8.812
		c0.18-21.938,11.953-47.116,30.027-47.116C426.99,166.629,436.968,192.704,438.227,213.745z"/>
	<path fill="#006837" d="M412.291,167.167c0,0,14.139,9.362,16.448,27.323c2.244,17.435-1.191,25.059-1.191,25.059
		s2.586-0.857,5.572-2.356c2.992-1.494,5.089-3.407,5.089-3.407s-0.585-13.424-6.09-26.764
		c-7.521-18.239-20.077-20.603-20.077-20.603L412.291,167.167z"/>
	<path fill="#006837" d="M420.243,170.535c0.046,0.043-4.065,2.39-11.248,2.685c-7.931,0.323-12.038-2.558-11.988-2.598
		c3.931-2.94,8.764-3.929,11.794-3.929C414.855,166.693,419.333,169.738,420.243,170.535z"/>
	<radialGradient id="SVGID_2_" cx="410.7686" cy="143.7856" r="19.5268" gradientUnits="userSpaceOnUse">
		<stop  offset="0" style="stop-color:#FFFFFF"/>
		<stop  offset="1" style="stop-color:#EAD5A5"/>
	</radialGradient>
	<circle fill="url(#SVGID_2_)" cx="407.834" cy="145.31" r="25.085"/>
	
		<radialGradient id="SVGID_3_" cx="-461.4717" cy="134.9585" r="24.4973" gradientTransform="matrix(-1 0 0 1 -51.6133 0)" gradientUnits="userSpaceOnUse">
		<stop  offset="0" style="stop-color:#FFFFFF"/>
		<stop  offset="1" style="stop-color:#000000"/>
	</radialGradient>
	<path fill="url(#SVGID_3_)" d="M382.857,141.948c-0.237,5.036-0.324,3.12,1.104-0.048c5.671-12.558,27.274-18.721,40.915,3.088
		c1.611,2.577,1.042,1.027,1.06,0.936c0.524-3.11,1.846-4.486,3.471-3.224c2.875,2.231,5.251,10.885-4.959,21.558
		c-0.2,0.211-2.662-5.481-1.271-5.945c0.33-0.109,9.444,1.96,9.729-12.972c0.265-13.85-11.23-25.085-25.084-25.085
		S383.398,130.44,382.857,141.948z"/>
</g>
<g>
	<g>
		<ellipse opacity="0.25" fill="#333333" cx="484.28" cy="212.1" rx="32.627" ry="10.982"/>
		<ellipse opacity="0.25" fill="#333333" cx="497.083" cy="208.77" rx="21.092" ry="8.677"/>
		<ellipse opacity="0.25" fill="#333333" cx="509.887" cy="205.439" rx="9.558" ry="6.371"/>
	</g>
	<radialGradient id="SVGID_4_" cx="473.2578" cy="177.834" r="33.7466" gradientUnits="userSpaceOnUse">
		<stop  offset="0" style="stop-color:#FFFFFF"/>
		<stop  offset="0.084" style="stop-color:#E9F3F9"/>
		<stop  offset="0.7233" style="stop-color:#4396CE"/>
		<stop  offset="1" style="stop-color:#0071BC"/>
	</radialGradient>
	<path fill="url(#SVGID_4_)" d="M513.508,213.745c0.006,0.088-8.272,8.451-30.391,8.812c-21.395,0.351-28.954-8.724-28.95-8.812
		c0.179-21.938,11.951-47.116,30.028-47.116C502.27,166.629,512.247,192.704,513.508,213.745z"/>
	<path fill="#0071BC" d="M487.571,167.167c0,0,14.139,9.362,16.447,27.322c2.245,17.439-1.189,25.06-1.189,25.06
		s2.585-0.857,5.572-2.354c2.991-1.493,5.089-3.409,5.089-3.409s-0.584-13.425-6.091-26.765
		c-7.521-18.236-20.076-20.602-20.076-20.602L487.571,167.167z"/>
	<path fill="#0071BC" d="M493.239,170.752c0.046,0.041-4.065,2.387-11.247,2.683c-7.931,0.323-12.038-2.558-11.989-2.597
		c3.931-2.943,8.764-3.929,11.795-3.929C487.853,166.909,492.329,169.951,493.239,170.752z"/>
	<radialGradient id="SVGID_5_" cx="486.0488" cy="143.7861" r="19.5266" gradientUnits="userSpaceOnUse">
		<stop  offset="0" style="stop-color:#D5C9C0"/>
		<stop  offset="0.2416" style="stop-color:#BBAA99"/>
		<stop  offset="0.3664" style="stop-color:#A79785"/>
		<stop  offset="0.6446" style="stop-color:#7F705F"/>
		<stop  offset="0.8654" style="stop-color:#665947"/>
		<stop  offset="1" style="stop-color:#5D503E"/>
	</radialGradient>
	<path fill="url(#SVGID_5_)" d="M508.199,145.311c0,13.856-11.232,25.085-25.087,25.085c-13.854,0-25.083-11.229-25.083-25.085
		c0-13.851,11.229-25.084,25.083-25.084C496.967,120.227,508.199,131.459,508.199,145.311z"/>
	
		<radialGradient id="SVGID_6_" cx="-536.7505" cy="129.0142" r="19.7903" gradientTransform="matrix(-1 0 0 1 -51.6133 0)" gradientUnits="userSpaceOnUse">
		<stop  offset="0" style="stop-color:#BBAA99"/>
		<stop  offset="0.1125" style="stop-color:#A49587"/>
		<stop  offset="0.4127" style="stop-color:#6D635B"/>
		<stop  offset="0.6714" style="stop-color:#453E3B"/>
		<stop  offset="0.8756" style="stop-color:#2C2727"/>
		<stop  offset="1" style="stop-color:#231F20"/>
	</radialGradient>
	<path fill="url(#SVGID_6_)" d="M508.185,145.341c0.265-13.85-11.229-25.085-25.083-25.085c-13.854,0-24.423,10.185-24.964,21.693
		c-0.236,5.035-0.326,3.12,1.104-0.047c3.543-7.849,19.981-6.877,30.394-7.652c3.864-0.287,5.404,2.561,10.521,10.74
		c1.612,2.577,1.042,1.026,1.059,0.935c0.525-3.11,1.848-4.485,3.471-3.223"/>
</g>
<g>
	<g>
		<ellipse fill="#DFE0E3" cx="338.786" cy="212.1" rx="32.628" ry="10.982"/>
		<ellipse fill="#DFE0E3" cx="364.394" cy="205.439" rx="9.558" ry="6.371"/>
	</g>
	<g>
		<radialGradient id="SVGID_7_" cx="315.2754" cy="153.7886" r="6.4393" gradientUnits="userSpaceOnUse">
			<stop  offset="0" style="stop-color:#F7E6BB"/>
			<stop  offset="1" style="stop-color:#F4C970"/>
		</radialGradient>
		<path fill="url(#SVGID_7_)" d="M312.084,149.16c0,0,0.533,4.618-0.532,11.014c-0.381,2.276-0.534,2.308-0.534,2.308
			s6.394,0.533,8.879,0.533C322.384,163.015,312.084,149.16,312.084,149.16z"/>
		<g>
			<g>
				<radialGradient id="SVGID_8_" cx="325.2212" cy="177.834" r="33.7464" gradientUnits="userSpaceOnUse">
					<stop  offset="0" style="stop-color:#FFFFFF"/>
					<stop  offset="0.6686" style="stop-color:#CA6F72"/>
					<stop  offset="1" style="stop-color:#B22C31"/>
				</radialGradient>
				<path fill="url(#SVGID_8_)" d="M365.471,213.745c0.006,0.088-8.272,8.451-30.389,8.812c-21.396,0.349-28.953-8.724-28.95-8.812
					c0.179-21.938,11.952-47.116,30.027-47.116S364.212,192.704,365.471,213.745z"/>
				<path fill="#B22C31" d="M339.536,167.167c0,0,14.138,9.362,16.447,27.323c2.244,17.435-1.19,25.059-1.19,25.059
					s2.585-0.857,5.572-2.356c2.992-1.494,5.089-3.407,5.089-3.407s-0.584-13.424-6.09-26.764
					c-7.52-18.239-20.077-20.603-20.077-20.603L339.536,167.167z"/>
				<radialGradient id="SVGID_9_" cx="327.6182" cy="178.0996" r="16.9389" gradientUnits="userSpaceOnUse">
					<stop  offset="0" style="stop-color:#FFFFFF"/>
					<stop  offset="0.6686" style="stop-color:#CA6F72"/>
					<stop  offset="1" style="stop-color:#B22C31"/>
				</radialGradient>
				<path fill="url(#SVGID_9_)" d="M347.487,170.535c0.047,0.043-4.064,2.39-11.247,2.685c-7.931,0.323-12.038-2.558-11.989-2.598
					c3.93-2.94,8.763-3.929,11.794-3.929C342.1,166.693,346.577,169.738,347.487,170.535z"/>
			</g>
			<g>
				<radialGradient id="SVGID_10_" cx="338.0137" cy="143.7856" r="19.5269" gradientUnits="userSpaceOnUse">
					<stop  offset="0" style="stop-color:#FFFFFF"/>
					<stop  offset="1" style="stop-color:#EAD5A5"/>
				</radialGradient>
				<circle fill="url(#SVGID_10_)" cx="335.079" cy="145.311" r="25.085"/>
				
					<radialGradient id="SVGID_11_" cx="-517.896" cy="134.9702" r="24.9372" gradientTransform="matrix(1 0 0 1 851.7813 0)" gradientUnits="userSpaceOnUse">
					<stop  offset="0" style="stop-color:#FFFFFF"/>
					<stop  offset="1" style="stop-color:#F4C970"/>
				</radialGradient>
				<path fill="url(#SVGID_11_)" d="M361.906,141.949c0.236,5.035,0.326,3.119-1.104-0.049
					c-5.672-12.558-27.274-18.721-40.915,3.089c-1.611,2.577-1.042,1.028-1.059,0.936c-0.525-3.111-1.847-4.485-3.471-3.224
					c-2.877,2.231-5.251,10.885,4.958,21.558c0.202,0.211-8.927-0.423-10.319-0.888c-0.33-0.109,2.146-3.098,1.861-18.029
					c-0.265-13.85,11.231-25.086,25.083-25.086C350.797,120.255,361.365,130.439,361.906,141.949z"/>
			</g>
		</g>
	</g>
</g>
<g>
	<g>
		<ellipse opacity="0.25" fill="#333333" cx="261.356" cy="212.1" rx="32.627" ry="10.982"/>
		<ellipse opacity="0.25" fill="#333333" cx="248.553" cy="208.77" rx="21.092" ry="8.677"/>
		<ellipse opacity="0.25" fill="#333333" cx="235.75" cy="205.439" rx="9.557" ry="6.371"/>
	</g>
	<radialGradient id="SVGID_12_" cx="251.1831" cy="177.834" r="33.7472" gradientUnits="userSpaceOnUse">
		<stop  offset="0" style="stop-color:#FFFFFF"/>
		<stop  offset="0.6445" style="stop-color:#A9B47E"/>
		<stop  offset="1" style="stop-color:#7C8E3B"/>
	</radialGradient>
	<path fill="url(#SVGID_12_)" d="M291.435,213.745c0.005,0.088-8.272,8.451-30.389,8.812c-21.396,0.351-28.955-8.724-28.952-8.812
		c0.181-21.938,11.953-47.116,30.029-47.116C280.197,166.629,290.174,192.704,291.435,213.745z"/>
	<path fill="#7C8E3B" d="M265.499,167.167c0,0,14.138,9.362,16.448,27.322c2.245,17.439-1.19,25.06-1.19,25.06
		s2.585-0.857,5.573-2.354c2.99-1.493,5.089-3.409,5.089-3.409s-0.585-13.425-6.09-26.765
		c-7.522-18.236-20.077-20.602-20.077-20.602L265.499,167.167z"/>
	<path fill="#7C8E3B" d="M272.607,170.752c0.047,0.041-4.064,2.387-11.247,2.683c-7.932,0.323-12.038-2.558-11.989-2.597
		c3.93-2.943,8.763-3.929,11.794-3.929C267.22,166.909,271.697,169.951,272.607,170.752z"/>
	<radialGradient id="SVGID_13_" cx="263.9756" cy="143.7861" r="19.5267" gradientUnits="userSpaceOnUse">
		<stop  offset="0" style="stop-color:#EFE3D5"/>
		<stop  offset="1" style="stop-color:#C69C6D"/>
	</radialGradient>
	<path fill="url(#SVGID_13_)" d="M286.126,145.311c0,13.856-11.232,25.085-25.086,25.085c-13.854,0-25.084-11.229-25.084-25.085
		c0-13.851,11.229-25.084,25.084-25.084C274.894,120.227,286.126,131.459,286.126,145.311z"/>
	
		<radialGradient id="SVGID_14_" cx="-445.2261" cy="130.2158" r="20.6217" gradientTransform="matrix(1 0 0 1 704.207 0)" gradientUnits="userSpaceOnUse">
		<stop  offset="0" style="stop-color:#D5C9C0"/>
		<stop  offset="0.2416" style="stop-color:#BBAA99"/>
		<stop  offset="0.3664" style="stop-color:#A79785"/>
		<stop  offset="0.6446" style="stop-color:#7F705F"/>
		<stop  offset="0.8654" style="stop-color:#665947"/>
		<stop  offset="1" style="stop-color:#5D503E"/>
	</radialGradient>
	<path fill="url(#SVGID_14_)" d="M236.333,150.066l-0.399-4.725c-0.264-13.85,11.229-25.085,25.084-25.085
		s24.422,10.185,24.963,21.693c0.236,5.035,0.326,3.12-1.103-0.047c-3.544-7.849-17.128-9.479-20.369-8.579
		C261.269,134.223,236.333,150.066,236.333,150.066z"/>
</g>
<g>
	<rect x="234.491" y="165.816" fill="#FFFFFF" stroke="#B2B2B2" stroke-width="0.5" width="41.217" height="33.366"/>
</g>
<text transform="matrix(1 0 0 1 245.9995 194.79)" font-family="'TrebuchetMS-Bold'" font-size="33.8565">8</text>
<g>
	<g>
		<ellipse opacity="0.25" fill="#333333" cx="575.391" cy="212.1" rx="32.627" ry="10.982"/>
		<ellipse opacity="0.25" fill="#333333" cx="588.195" cy="208.77" rx="21.092" ry="8.677"/>
		<ellipse opacity="0.25" fill="#333333" cx="600.999" cy="205.439" rx="9.557" ry="6.371"/>
	</g>
	
		<radialGradient id="SVGID_15_" cx="497.7441" cy="177.834" r="33.747" gradientTransform="matrix(-1 0 0 1 1080.7656 0)" gradientUnits="userSpaceOnUse">
		<stop  offset="0" style="stop-color:#FFFFFF"/>
		<stop  offset="0.6445" style="stop-color:#A9B47E"/>
		<stop  offset="1" style="stop-color:#7C8E3B"/>
	</radialGradient>
	<path fill="url(#SVGID_15_)" d="M542.771,213.745c-0.005,0.088,8.273,8.451,30.39,8.812c21.396,0.351,28.954-8.724,28.951-8.812
		c-0.181-21.938-11.952-47.116-30.029-47.116C554.009,166.629,544.03,192.704,542.771,213.745z"/>
	<path fill="#7C8E3B" d="M568.706,167.167c0,0-14.138,9.362-16.447,27.322c-2.244,17.439,1.189,25.06,1.189,25.06
		s-2.584-0.857-5.571-2.354c-2.991-1.493-5.089-3.409-5.089-3.409s0.585-13.425,6.089-26.765
		c7.522-18.236,20.077-20.602,20.077-20.602L568.706,167.167z"/>
	<path fill="#7C8E3B" d="M561.599,170.752c-0.047,0.041,4.064,2.387,11.246,2.683c7.931,0.323,12.038-2.558,11.989-2.597
		c-3.929-2.943-8.762-3.929-11.794-3.929C566.985,166.909,562.509,169.951,561.599,170.752z"/>
	
		<radialGradient id="SVGID_16_" cx="510.5361" cy="143.7861" r="19.5266" gradientTransform="matrix(-1 0 0 1 1080.7656 0)" gradientUnits="userSpaceOnUse">
		<stop  offset="0" style="stop-color:#FFFFFF"/>
		<stop  offset="1" style="stop-color:#EAD5A5"/>
	</radialGradient>
	<path fill="url(#SVGID_16_)" d="M548.079,145.311c0,13.856,11.231,25.085,25.086,25.085s25.084-11.229,25.084-25.085
		c0-13.851-11.229-25.084-25.084-25.084S548.079,131.459,548.079,145.311z"/>
	
		<radialGradient id="SVGID_17_" cx="-198.6655" cy="130.2158" r="20.622" gradientTransform="matrix(-1 0 0 1 376.5586 0)" gradientUnits="userSpaceOnUse">
		<stop  offset="0" style="stop-color:#F7E6BB"/>
		<stop  offset="1" style="stop-color:#F4C970"/>
	</radialGradient>
	<path fill="url(#SVGID_17_)" d="M597.872,150.066l0.399-4.725c0.265-13.85-11.23-25.085-25.083-25.085
		c-13.855,0-24.424,10.185-24.965,21.693c-0.235,5.035-0.325,3.12,1.104-0.047c3.546-7.849,17.129-9.479,20.37-8.579
		C572.937,134.223,597.872,150.066,597.872,150.066z"/>
</g>
<g>
	<rect x="541.771" y="165.816" fill="#FFFFFF" stroke="#B2B2B2" stroke-width="0.5" width="41.217" height="33.366"/>
</g>
<text transform="matrix(1 0 0 1 553.2803 194.79)" font-family="'TrebuchetMS-Bold'" font-size="33.8565">7</text>
<g>
	<rect x="318.372" y="165.816" fill="#FFFFFF" stroke="#B2B2B2" stroke-width="0.5" width="41.217" height="33.366"/>
</g>
<text transform="matrix(1 0 0 1 329.8799 194.79)" font-family="'TrebuchetMS-Bold'" font-size="33.8565">9</text>
<g>
	<rect x="381.763" y="165.816" fill="#FFFFFF" stroke="#B2B2B2" stroke-width="0.5" width="41.217" height="33.366"/>
</g>
<text transform="matrix(1 0 0 1 393.2695 194.79)" font-family="'TrebuchetMS-Bold'" font-size="33.8565">7</text>
<g>
	<rect x="474.789" y="165.816" fill="#FFFFFF" stroke="#B2B2B2" stroke-width="0.5" width="41.217" height="33.366"/>
</g>
<text transform="matrix(1 0 0 1 486.2959 194.79)" font-family="'TrebuchetMS-Bold'" font-size="33.8565">8</text>
<g>
	<g>
		<ellipse opacity="0.25" fill="#333333" cx="185.493" cy="212.1" rx="32.627" ry="10.982"/>
		<ellipse opacity="0.25" fill="#333333" cx="172.69" cy="208.77" rx="21.092" ry="8.677"/>
		<ellipse opacity="0.25" fill="#333333" cx="159.886" cy="205.439" rx="9.557" ry="6.371"/>
	</g>
	
		<radialGradient id="SVGID_18_" cx="880.0088" cy="177.834" r="33.747" gradientTransform="matrix(-1 0 0 1 1079.0664 0)" gradientUnits="userSpaceOnUse">
		<stop  offset="0" style="stop-color:#FFFFFF"/>
		<stop  offset="0.084" style="stop-color:#E9F3F9"/>
		<stop  offset="0.7233" style="stop-color:#4396CE"/>
		<stop  offset="1" style="stop-color:#0071BC"/>
	</radialGradient>
	<path fill="url(#SVGID_18_)" d="M158.807,213.745c-0.006,0.088,8.272,8.451,30.39,8.812c21.396,0.351,28.954-8.724,28.951-8.812
		c-0.18-21.938-11.952-47.116-30.029-47.116C170.045,166.629,160.067,192.704,158.807,213.745z"/>
	<path fill="#0071BC" d="M184.743,167.167c0,0-14.138,9.362-16.447,27.322c-2.245,17.439,1.19,25.06,1.19,25.06
		s-2.585-0.857-5.572-2.354c-2.991-1.493-5.089-3.409-5.089-3.409s0.584-13.425,6.09-26.765
		c7.522-18.236,20.076-20.602,20.076-20.602L184.743,167.167z"/>
	<path fill="#0071BC" d="M179.075,170.752c-0.046,0.041,4.065,2.387,11.247,2.683c7.931,0.323,12.038-2.558,11.988-2.597
		c-3.93-2.943-8.763-3.929-11.793-3.929C184.462,166.909,179.986,169.951,179.075,170.752z"/>
	
		<radialGradient id="SVGID_19_" cx="892.8008" cy="143.7861" r="19.5266" gradientTransform="matrix(-1 0 0 1 1079.0664 0)" gradientUnits="userSpaceOnUse">
		<stop  offset="0" style="stop-color:#D8C2AB"/>
		<stop  offset="1" style="stop-color:#A67C52"/>
	</radialGradient>
	<path fill="url(#SVGID_19_)" d="M164.115,145.311c0,13.856,11.233,25.085,25.086,25.085c13.854,0,25.084-11.229,25.084-25.085
		c0-13.851-11.23-25.084-25.084-25.084C175.348,120.227,164.115,131.459,164.115,145.311z"/>
	
		<radialGradient id="SVGID_20_" cx="-943.5029" cy="129.0142" r="19.7906" gradientTransform="matrix(1 0 0 1 1130.6797 0)" gradientUnits="userSpaceOnUse">
		<stop  offset="0" style="stop-color:#BBAA99"/>
		<stop  offset="0.1125" style="stop-color:#A49587"/>
		<stop  offset="0.4127" style="stop-color:#6D635B"/>
		<stop  offset="0.6714" style="stop-color:#453E3B"/>
		<stop  offset="0.8756" style="stop-color:#2C2727"/>
		<stop  offset="1" style="stop-color:#231F20"/>
	</radialGradient>
	<path fill="url(#SVGID_20_)" d="M164.129,145.341c-0.265-13.85,11.229-25.085,25.084-25.085c13.854,0,24.422,10.185,24.963,21.693
		c0.236,5.035,0.326,3.12-1.104-0.047c-3.543-7.849-19.982-6.877-30.394-7.652c-3.864-0.287-5.404,2.561-10.521,10.74
		c-1.612,2.577-1.041,1.026-1.058,0.935c-0.526-3.11-1.848-4.485-3.471-3.223"/>
</g>
<g>
	<rect x="171.551" y="165.816" fill="#FFFFFF" stroke="#B2B2B2" stroke-width="0.5" width="41.217" height="33.366"/>
</g>
<text transform="matrix(1 0 0 1 181.4253 194.79)" font-family="'TrebuchetMS-Bold'" font-size="33.8565">9</text>
<g>
	<path opacity="0.2" d="M296.938,103.401c2.102,2.725-6.346,19.896-6.346,19.896s13.912-15.838,17.945-16.207
		c4.035-0.368,8.074,1.19,12.427,1.19c20.923,0,37.884-9.627,37.884-21.503c0-11.876-16.961-21.501-37.884-21.501
		c-20.921,0-37.88,9.625-37.88,21.501C283.084,93.477,294.835,100.678,296.938,103.401z"/>
	
		<radialGradient id="SVGID_21_" cx="539.6455" cy="-59.9087" r="30.1725" gradientTransform="matrix(-1 0 0 -1 869.2148 36.6689)" gradientUnits="userSpaceOnUse">
		<stop  offset="0" style="stop-color:#F5F5F5"/>
		<stop  offset="1" style="stop-color:#EBD5A5"/>
	</radialGradient>
	<path fill="url(#SVGID_21_)" d="M295.082,102.96c2.103,2.724-6.346,19.896-6.346,19.896s13.912-15.837,17.946-16.206
		c4.035-0.369,8.072,1.19,12.424,1.19c20.925,0,37.883-9.627,37.883-21.503s-16.958-21.501-37.883-21.501
		c-20.92,0-37.88,9.625-37.88,21.501C281.226,93.035,292.979,100.236,295.082,102.96z"/>
	<path opacity="0.35" fill="#F2F2F2" d="M310.669,68.647c0.816-4.846-29.347,5.386-27.353,17.093
		C283.505,86.855,310.292,66.487,310.669,68.647z"/>
</g>
<g>
	<path opacity="0.2" d="M440.086,102.212c2.103,2.725,9.294,27.662,9.294,27.662s-1.728-23.604,2.305-23.973
		c4.035-0.367,8.074,1.191,12.427,1.191c20.923,0,37.884-9.628,37.884-21.502c0-11.877-16.961-21.502-37.884-21.502
		c-20.922,0-37.881,9.625-37.881,21.502C426.23,92.289,437.982,99.489,440.086,102.212z"/>
	
		<radialGradient id="SVGID_22_" cx="396.498" cy="-62.9688" r="31.4445" gradientTransform="matrix(-1 0 0 -1 869.2148 36.6689)" gradientUnits="userSpaceOnUse">
		<stop  offset="0" style="stop-color:#F5F5F5"/>
		<stop  offset="1" style="stop-color:#EBD5A5"/>
	</radialGradient>
	<path fill="url(#SVGID_22_)" d="M438.228,101.771c2.104,2.723,9.295,27.662,9.295,27.662s-1.729-23.605,2.307-23.972
		c4.034-0.369,8.071,1.189,12.425,1.189c20.924,0,37.882-9.627,37.882-21.503c0-11.875-16.958-21.5-37.882-21.5
		c-20.921,0-37.882,9.625-37.882,21.5C424.372,91.846,436.126,99.047,438.228,101.771z"/>
	<path opacity="0.35" fill="#F2F2F2" d="M453.816,67.458c0.815-4.846-29.347,5.386-27.354,17.093
		C426.653,85.667,453.439,65.299,453.816,67.458z"/>
</g>
<g>
	<path fill="#DFC480" d="M488.572,84.453c0,0-15.832-1.284-23.602-1.208c-7.92,0.077-26.067,1.208-26.067,1.208
		s19.601,0.984,26.156,0.907C471.32,85.285,488.572,84.453,488.572,84.453z"/>
	<path fill="#DFC480" d="M484.836,92.338c0,0-13.164-1.068-19.627-1.006c-6.584,0.065-21.674,1.006-21.674,1.006
		s16.297,0.819,21.747,0.756C470.489,93.029,484.836,92.338,484.836,92.338z"/>
	<path fill="#DFC480" d="M484.244,76.488c0,0-13.162-1.069-19.623-1.006c-6.586,0.065-21.677,1.006-21.677,1.006
		s16.3,0.818,21.751,0.752C469.901,77.177,484.244,76.488,484.244,76.488z"/>
	<path fill="#FFFFFF" d="M488.393,83.585c0,0-15.83-1.286-23.603-1.211c-7.919,0.08-26.067,1.211-26.067,1.211
		s19.604,0.984,26.156,0.905C471.142,84.415,488.393,83.585,488.393,83.585z"/>
	<path fill="#FFFFFF" d="M484.654,91.471c0,0-13.161-1.07-19.624-1.006c-6.584,0.065-21.676,1.006-21.676,1.006
		s16.299,0.817,21.749,0.752C470.311,92.16,484.654,91.471,484.654,91.471z"/>
	<path fill="#FFFFFF" d="M484.065,75.619c0,0-13.162-1.07-19.625-1.006c-6.584,0.065-21.675,1.006-21.675,1.006
		s16.3,0.817,21.748,0.754C469.722,76.31,484.065,75.619,484.065,75.619z"/>
</g>
<g>
	<path fill="#DFC480" d="M344.41,85.642c0,0-15.833-1.284-23.602-1.209c-7.919,0.078-26.068,1.209-26.068,1.209
		s19.602,0.985,26.157,0.907C327.157,86.473,344.41,85.642,344.41,85.642z"/>
	<path fill="#DFC480" d="M340.672,93.527c0,0-13.164-1.068-19.627-1.006c-6.583,0.065-21.673,1.006-21.673,1.006
		s16.297,0.82,21.747,0.756C326.326,94.218,340.672,93.527,340.672,93.527z"/>
	<path fill="#DFC480" d="M340.081,77.677c0,0-13.162-1.07-19.623-1.006c-6.585,0.065-21.677,1.006-21.677,1.006
		s16.3,0.818,21.75,0.752C325.738,78.366,340.081,77.677,340.081,77.677z"/>
	<path fill="#FFFFFF" d="M344.229,84.774c0,0-15.83-1.286-23.603-1.21c-7.919,0.079-26.067,1.21-26.067,1.21
		s19.604,0.984,26.157,0.905C326.979,85.604,344.229,84.774,344.229,84.774z"/>
	<path fill="#FFFFFF" d="M340.492,92.66c0,0-13.162-1.07-19.625-1.006c-6.584,0.065-21.676,1.006-21.676,1.006
		s16.299,0.818,21.749,0.752C326.147,93.349,340.492,92.66,340.492,92.66z"/>
	<path fill="#FFFFFF" d="M339.902,76.808c0,0-13.162-1.069-19.625-1.006c-6.583,0.066-21.675,1.006-21.675,1.006
		s16.301,0.818,21.749,0.754C325.558,77.499,339.902,76.808,339.902,76.808z"/>
</g>
<linearGradient id="SVGID_23_" gradientUnits="userSpaceOnUse" x1="381.3027" y1="349.4863" x2="381.3027" y2="287.7676">
	<stop  offset="0.7363" style="stop-color:#FFFFFF"/>
	<stop  offset="1" style="stop-color:#F2F2F2"/>
</linearGradient>
<path fill="url(#SVGID_23_)" d="M430.085,287.768v57.512c0,2.323-0.373,4.207-0.832,4.207h-95.9c-0.459,0-0.832-1.884-0.832-4.207
	v-57.512H430.085z"/>
<radialGradient id="SVGID_24_" cx="385.2041" cy="287.2588" r="52.8966" gradientUnits="userSpaceOnUse">
	<stop  offset="0" style="stop-color:#FFFFFF"/>
	<stop  offset="1" style="stop-color:#F4C970"/>
</radialGradient>
<ellipse opacity="0.25" fill="url(#SVGID_24_)" cx="385.204" cy="287.259" rx="74.182" ry="9.653"/>
<path opacity="0.15" fill="#FFFF00" d="M459.386,287.259c0,5.332-33.213,9.653-74.182,9.653c-40.969,0-74.182-4.321-74.182-9.653
	H459.386z"/>
<g>
	<path opacity="0.2" d="M429.695,288.644c0,0.018-1.136,0.032-2.537,0.032h-92.382c-1.401,0-2.538-0.015-2.538-0.032v-0.942
		c0-0.019,1.136-0.031,2.538-0.031h92.382c1.401,0,2.537,0.013,2.537,0.031V288.644z"/>
	<path fill="#A67C52" d="M429.695,284.727c0,1.401-1.136,2.538-2.537,2.538h-92.382c-1.401,0-2.538-1.137-2.538-2.538v-75.449
		c0-1.401,1.136-2.539,2.538-2.539h92.382c1.401,0,2.537,1.138,2.537,2.539V284.727z"/>
	<path opacity="0.35" fill="#C69C6D" d="M335.794,210.847c0,0,34.402-2.257,41.734-2.257c7.331,0,46.809,0.846,47.655,1.976
		C426.03,211.691,334.666,211.974,335.794,210.847z"/>
	<path opacity="0.15" fill="#603813" d="M427.697,208.59c0,0,1.608,29.713,1.608,36.044c0,6.332-0.604,40.429-1.406,41.159
		C427.096,286.524,426.896,207.615,427.697,208.59z"/>
	<path opacity="0.15" fill="#603813" d="M334.687,208.59c0,0-1.608,29.713-1.608,36.044c0,6.332,0.603,40.429,1.406,41.159
		C335.288,286.524,335.489,207.615,334.687,208.59z"/>
</g>
<g opacity="0.9">
	<rect x="338.65" y="212.252" fill="#FFFFFF" stroke="#B2B2B2" stroke-width="0.5" width="64.051" height="51.851"/>
	<linearGradient id="SVGID_25_" gradientUnits="userSpaceOnUse" x1="370.6758" y1="212.252" x2="370.6758" y2="264.1025">
		<stop  offset="0" style="stop-color:#666666"/>
		<stop  offset="1" style="stop-color:#B2B2B2"/>
	</linearGradient>
	<rect x="338.65" y="212.252" opacity="0.2" fill="url(#SVGID_25_)" width="64.051" height="51.851"/>
</g>
<text transform="matrix(1 0 0 1 344.6484 232.8389)"><tspan x="0" y="0" font-family="'TrebuchetMS'" font-size="18.3004">bugfix</tspan><tspan x="1.273" y="21.961" font-family="'TrebuchetMS'" font-size="18.3004">#4535</tspan></text>
<polygon opacity="0.15" fill="#FCEE21" points="311.022,287.259 361.832,-27.25 459.386,287.259 "/>
</svg>
