<?xml version="1.0" encoding="UTF-8" standalone="no"?>
<!DOCTYPE svg PUBLIC "-//W3C//DTD SVG 20010904//EN"
"http://www.w3.org/TR/2001/REC-SVG-20010904/DTD/svg10.dtd">
<!-- Created with Inkscape (http://www.inkscape.org/) -->
<svg
   width="72.000000pt"
   height="72.000000pt"
   xmlns="http://www.w3.org/2000/svg"
   xmlns:cc="http://web.resource.org/cc/"
   xmlns:inkscape="http://www.inkscape.org/namespaces/inkscape"
   xmlns:sodipodi="http://sodipodi.sourceforge.net/DTD/sodipodi-0.dtd"
   xmlns:rdf="http://www.w3.org/1999/02/22-rdf-syntax-ns#"
   xmlns:dc="http://purl.org/dc/elements/1.1/"
   xmlns:xlink="http://www.w3.org/1999/xlink"
   id="svg1061"
   sodipodi:version="0.32"
   inkscape:version="0.40"
   sodipodi:docbase="/home/mpt/ubuntu/launchpad/lib/canonical/launchpad/images"
   sodipodi:docname="launchpad.svg"
   inkscape:export-filename="/home/mpt/ubuntu/launchpad/lib/canonical/launchpad/images/launchpad.png"
   inkscape:export-xdpi="81.051567"
   inkscape:export-ydpi="81.051567">
  <defs
     id="defs3">
    <linearGradient
       id="linearGradient12079">
      <stop
         style="stop-color:#c7cfd3;stop-opacity:1.0000000;"
         offset="0.0000000"
         id="stop12080" />
      <stop
         style="stop-color:#f3f3f3;stop-opacity:1.0000000;"
         offset="1.0000000"
         id="stop12081" />
    </linearGradient>
    <linearGradient
       inkscape:collect="always"
       id="linearGradient8952">
      <stop
         style="stop-color:#ffdd14;stop-opacity:1;"
         offset="0"
         id="stop8953" />
      <stop
         style="stop-color:#ffdd14;stop-opacity:0;"
         offset="1"
         id="stop8954" />
    </linearGradient>
    <linearGradient
       inkscape:collect="always"
       xlink:href="#linearGradient8952"
       id="linearGradient8955"
       gradientTransform="matrix(1.178962,0.000000,0.000000,1.063987,-0.823660,0.558881)"
       x1="35.595322"
       y1="39.514637"
       x2="8.8867455"
       y2="69.872116"
       gradientUnits="userSpaceOnUse" />
    <linearGradient
       inkscape:collect="always"
       xlink:href="#linearGradient12079"
       id="linearGradient12083"
       gradientTransform="matrix(0.391904,0.391904,-1.600395,1.600395,56.98464,-30.51320)"
       x1="62.977142"
       y1="10.324848"
       x2="82.076363"
       y2="11.542336"
       gradientUnits="userSpaceOnUse" />
  </defs>
  <sodipodi:namedview
     id="base"
     pagecolor="#ffffff"
     bordercolor="#666666"
     borderopacity="1.0"
     inkscape:pageopacity="0.0"
     inkscape:pageshadow="2"
     inkscape:zoom="3.3856471"
     inkscape:cx="27.431528"
     inkscape:cy="32.593710"
     inkscape:current-layer="layer1"
     showgrid="true"
     inkscape:grid-bbox="true"
     gridspacingy="1.0000000pt"
     gridspacingx="1.0000000pt"
     gridoriginy="0.0000000pt"
     gridoriginx="0.0000000pt"
     showguides="false"
     inkscape:guide-bbox="false"
     inkscape:window-width="782"
     inkscape:window-height="556"
     inkscape:window-x="96"
     inkscape:window-y="30" />
  <metadata
     id="metadata4">
    <rdf:RDF
       id="RDF5">
      <cc:Work
         rdf:about=""
         id="Work6">
        <dc:format
           id="format7">image/svg+xml</dc:format>
        <dc:type
           id="type9"
           rdf:resource="http://purl.org/dc/dcmitype/StillImage" />
      </cc:Work>
    </rdf:RDF>
  </metadata>
  <g
     id="layer1"
     inkscape:label="Layer 1"
     inkscape:groupmode="layer">
    <use
       x="0.0000000"
       y="0.0000000"
       xlink:href="#path1071"
       id="use12705"
       transform="matrix(0.000000,-1.000000,-1.000000,0.000000,89.65254,89.61935)"
       width="90.000000"
       height="90.000000" />
    <path
       style="fill:url(#linearGradient12083);fill-opacity:1.0000000;fill-rule:evenodd;stroke:#1578b1;stroke-width:1.4000000;stroke-linecap:butt;stroke-linejoin:round;stroke-miterlimit:4.0000000;stroke-opacity:1.0000000"
       d="M 88.919346,1.3684937 C 64.800570,6.2282468 56.894646,15.046989 45.735212,31.246166 L 52.191584,37.702539"
       id="path1071"
       sodipodi:nodetypes="ccc" />
    <path
       style="fill:#c7cfd3;fill-opacity:1.0000000;fill-rule:evenodd;stroke:#1578b1;stroke-width:1.4000000;stroke-linecap:butt;stroke-linejoin:round;stroke-miterlimit:4.0000000;stroke-opacity:1.0000000"
       d="M 51.983636,22.853781 C 35.869320,17.310739 31.596555,22.919338 24.980390,34.497627 C 34.904637,28.708483 41.044405,26.782058 46.095194,30.846012 C 45.927256,30.572026 51.983636,22.853781 51.983636,22.853781 z "
       id="path2723"
       sodipodi:nodetypes="cccc" />
    <use
       x="0.0000000"
       y="0.0000000"
       xlink:href="#path2723"
       id="use2724"
       transform="matrix(-3.642919e-18,-1.120000,-1.120000,1.821459e-18,93.40539,95.24860)"
       width="80.000000"
       height="80.000000" />
    <path
       sodipodi:type="arc"
       style="fill:#ffffff;fill-opacity:1.0000000;fill-rule:nonzero;stroke:#96b5c6;stroke-width:0.62499982;stroke-miterlimit:4.0000000;stroke-opacity:1.0000000"
       id="path6453"
       sodipodi:cx="40.078007"
       sodipodi:cy="21.049278"
       sodipodi:rx="4.2410588"
       sodipodi:ry="4.2410588"
       d="M 44.319066 21.049278 A 4.2410588 4.2410588 0 1 1  35.836948,21.049278 A 4.2410588 4.2410588 0 1 1  44.319066 21.049278 z"
       transform="matrix(0.791960,0.791960,-0.791960,0.791960,56.98464,-30.51320)" />
    <path
       style="fill:url(#linearGradient8955);fill-opacity:1.0000000;fill-rule:evenodd;stroke:#000000;stroke-width:1.9428903e-16;stroke-linecap:butt;stroke-linejoin:miter;stroke-miterlimit:4.0000000;stroke-dashoffset:0.0000000;stroke-opacity:1.0000000"
       d="M 46.088844,32.283882 C 41.659505,34.435912 40.697148,32.758881 35.576346,32.758881 C 32.124480,32.758881 33.953701,36.958881 27.176346,36.958881 C 25.171065,36.958881 20.176346,38.117109 20.176346,35.558881 C 20.176346,34.725626 17.376346,34.025160 17.376346,39.758881 C 17.376346,44.089374 7.5763460,37.570183 7.5763460,43.958881 C 7.5763460,45.575417 3.8763395,42.214441 3.8763395,44.908878 C 3.8763395,45.568845 3.1888375,47.548905 3.1888375,48.208872 C 3.1888375,50.538869 1.3897547,55.421376 0.076350788,53.758881 C 1.4488156,51.858886 2.7163790,55.158881 3.3763457,55.158881 C 6.3539060,55.158881 -0.61987031,57.746378 3.3513495,57.746378 C 5.2180170,57.746378 3.1138502,61.004712 3.1138502,62.871379 C 3.1138502,63.702585 -0.75882651,67.758881 3.3763457,67.758881 C 4.4198440,67.758881 4.0384810,69.821016 4.7763460,70.558881 C 7.3797640,73.162300 7.5763460,71.947476 7.5763460,76.158881 C 7.5763460,77.202379 10.113479,80.621005 10.851344,81.358870 C 11.613977,82.121502 21.576346,88.406666 21.576346,86.608851 C 23.238841,84.873684 28.676329,91.458552 28.676329,89.246339 C 34.613812,88.111373 37.438807,83.518820 37.438807,82.858853 C 37.913806,78.545399 39.763808,80.598507 39.763808,76.358848 C 39.763808,75.698881 43.063803,75.143816 43.063803,74.483849 C 43.063803,72.617182 43.709646,69.021365 45.576313,69.021365 C 50.508188,69.021365 46.576296,66.358887 49.726320,63.208862 C 52.760399,60.174783 47.641883,57.608862 52.001330,57.608862 C 50.286304,59.508856 49.891373,54.071368 50.551339,54.071368 C 54.763305,54.071368 50.935530,48.896375 53.801342,48.896375 C 54.461309,48.896375 53.591378,46.071379 54.251344,46.071379 C 56.098808,46.546378 56.891373,43.483882 57.551339,43.483882"
       id="path8329"
       sodipodi:nodetypes="cccccccccccccccccccccccccccc" />
    <path
       sodipodi:type="arc"
       style="fill:#ffffff;fill-opacity:1.0000000;fill-rule:nonzero;stroke:#96b5c6;stroke-width:0.83416075;stroke-miterlimit:4.0000000;stroke-opacity:1.0000000"
       id="path9577"
       sodipodi:cx="40.078007"
       sodipodi:cy="21.049278"
       sodipodi:rx="4.2410588"
       sodipodi:ry="4.2410588"
       d="M 44.319066 21.049278 A 4.2410588 4.2410588 0 1 1  35.836948,21.049278 A 4.2410588 4.2410588 0 1 1  44.319066 21.049278 z"
       transform="matrix(0.588865,0.597931,-0.588865,0.597931,60.85075,-18.68392)" />
  </g>
</svg>
